<svg xmlns="http://www.w3.org/2000/svg" xmlns:xlink="http://www.w3.org/1999/xlink" viewBox="0 0 257 108"><defs><style>.cls-1{fill:none;}.cls-2{clip-path:url(#clip-path);}.cls-3{fill:#0071b2;}.cls-4{fill:#333;}</style><clipPath id="clip-path"><rect class="cls-1" x="-471.78" y="154.63" width="1200" height="146"/></clipPath></defs><title>bar-アートボード 63</title><g id="コンテンツ"><g class="cls-2"><image width="1700" height="630" transform="translate(-471.78 -3.6) scale(0.73)" xlink:href="../../../Volumes/DATA/共有/Dropbox/クライアント/TJかごしま/カゴシマプラス/デザイン/9_ph-1.png"/></g></g><g id="コンテンツ-2" data-name="コンテンツ"><path class="cls-3" d="M23.32,92.21a.28.28,0,0,1,0-.25,5.17,5.17,0,0,0-.84-1.8.85.85,0,0,0-.77-.4,1.43,1.43,0,0,0-.82.57,6.33,6.33,0,0,0-.88,1.46A14,14,0,0,0,19,96.25a9.56,9.56,0,0,0,.5,4.29q.63,1.34,1.38,1.38a3.15,3.15,0,0,0,1.76-.29,1,1,0,0,0,.38-.88l-.08-1.3a2.3,2.3,0,0,1,.25-1.34l.17-.17.21-.08a2.51,2.51,0,0,1,.5-.17q.59-.17,1.42-.33t1.42-.25h.71a.54.54,0,0,1,.25.13.76.76,0,0,1,.17.71,1,1,0,0,1,0,.19l0,.19a.56.56,0,0,0,0,.13,8.23,8.23,0,0,1-.63,3.16,7.5,7.5,0,0,1-1.74,2.59,6,6,0,0,1-2.64,1.49,5.78,5.78,0,0,1-3.28-.12A5.4,5.4,0,0,1,16.42,103q-1.17-2-.79-7.15A19.59,19.59,0,0,1,17,88.82a7.23,7.23,0,0,1,1.67-2.28,6.56,6.56,0,0,1,2.34-1.49,3.09,3.09,0,0,1,2.26.21,6.62,6.62,0,0,1,2.18,1.59,7,7,0,0,1,1.38,2.09,2.21,2.21,0,0,1,0,2,.28.28,0,0,1-.13.13l-.08.08-.33.25-1,.63q-1.3.84-1.57,1a.27.27,0,0,1-.4-.13.28.28,0,0,1,0-.29Z"/><path class="cls-3" d="M24,92.25l1.17-.71.92-.63.33-.21.08-.08a1.87,1.87,0,0,0-.13-1.46,5.84,5.84,0,0,0-1.26-1.88,6.47,6.47,0,0,0-2-1.44,2.47,2.47,0,0,0-1.88-.19A5.29,5.29,0,0,0,19.12,87a7.9,7.9,0,0,0-1.57,2.09,20.44,20.44,0,0,0-1.38,6.86q-.29,4.94.75,6.86A4.78,4.78,0,0,0,19.81,105a4.81,4.81,0,0,0,2.95.15,5.94,5.94,0,0,0,2.38-1.34,6.54,6.54,0,0,0,1.61-2.36,7.72,7.72,0,0,0,.59-3s0-.22.08-.58c0-.08,0-.14,0-.17h-.5q-.54.08-1.38.25t-1.34.33l-.46.13-.13.08a1.61,1.61,0,0,0-.13.92q.08,1.34.08,1.38a1.64,1.64,0,0,1-.59,1.3,3.27,3.27,0,0,1-2.13.42q-1.13,0-1.88-1.71a10.28,10.28,0,0,1-.59-4.6,13.94,13.94,0,0,1,1.13-4.6,7.86,7.86,0,0,1,1-1.63,2,2,0,0,1,1.21-.79,1.34,1.34,0,0,1,1.25.63,5.59,5.59,0,0,1,1,2,.28.28,0,0,1,0,.25Z"/><path class="cls-3" d="M40.64,104.51a11.93,11.93,0,0,1-1.76,1.25,4.08,4.08,0,0,1-2.38.54,4.36,4.36,0,0,1-2.72-1.55q-1.63-1.84-1.76-7.2,0-1.51,0-4.18t0-3.47L32,87.4V85.93a3.64,3.64,0,0,0,0-.5.7.7,0,0,0,0-.17,1,1,0,0,1,.17-.25,1.36,1.36,0,0,1,.75-.17,4.65,4.65,0,0,1,.88,0l.92.08.67.08a.26.26,0,0,1,.25.33.27.27,0,0,1-.29.25q0,1.26,0,3.66t0,3.49q0,4.73.25,7.28a2.55,2.55,0,0,0,.54,1.3,2.61,2.61,0,0,0,1.09.84,1.9,1.9,0,0,0,2.43-.79q1.67-2.43,1.72-7.53,0-.71-.08-4.23,0-2.51.08-3.93v-.21a.68.68,0,0,1,.17-.38,1.18,1.18,0,0,1,.59-.17l.84-.08a6.42,6.42,0,0,1,.79,0,1.07,1.07,0,0,1,.33,0,.64.64,0,0,1,.33.17,2.86,2.86,0,0,1,.33,1.13q0,.63.08,1.63,0,.59,0,1.57t0,1.23q.08,3.22.08,7.87,0,3,0,4.77,0,1-.13,1.63a4.56,4.56,0,0,1-.08.5.53.53,0,0,1-.17.38,1.86,1.86,0,0,1-.33.17,1.91,1.91,0,0,0-.38,0,4.53,4.53,0,0,1-.88,0l-.92-.08-.38-.12a.56.56,0,0,1-.29-.23,1.21,1.21,0,0,1-.13-.4V104A7,7,0,0,0,40.64,104.51Z"/><path class="cls-3" d="M42,85.6v.17a36.87,36.87,0,0,0-.08,3.81q.08,3.52.08,4.27,0,5.27-1.8,7.87a2.66,2.66,0,0,1-1.46,1.09,2.45,2.45,0,0,1-1.67-.08,3.07,3.07,0,0,1-1.36-1,3,3,0,0,1-.65-1.59q-.25-2.64-.25-7.36,0-1.09,0-3.51t0-3.72l-1-.08a3.67,3.67,0,0,0-.8,0,1.45,1.45,0,0,0-.42,0v0a3.48,3.48,0,0,1,0,.46V87.4l.08,2.51q0,.84,0,3.47t0,4.18q.08,5.1,1.59,6.78a3.74,3.74,0,0,0,2.34,1.38,3.54,3.54,0,0,0,2.09-.46A10.44,10.44,0,0,0,40.27,104q.46-.38.59-.46l.25-.17a.47.47,0,0,1,.33,0,.45.45,0,0,1,.29.42.24.24,0,0,1,0,.17V104a3,3,0,0,1,0,.75v.33a.17.17,0,0,0,0,.13h0l.25.08.79.08a4.12,4.12,0,0,0,.84,0,.92.92,0,0,0,.29,0h0v-.08c0-.11.06-.27.08-.46a15.3,15.3,0,0,0,.13-1.59q0-1.72,0-4.73,0-4.64-.08-7.87,0-.21,0-1.19t0-1.61q0-1-.1-1.57a2.24,2.24,0,0,0-.19-.82l-.25,0H43l-.75.08a.59.59,0,0,0-.25,0Z"/><path class="cls-3" d="M52.73,86.9l.38-.25.33-.17a4.39,4.39,0,0,1,4.23,1.09,5.13,5.13,0,0,1,2,3.85v.25a.53.53,0,0,1-.08.42.86.86,0,0,1-.38.25,2.8,2.8,0,0,1-.42.21l-.42.17-.29.08-.29.17a2,2,0,0,1-.46.21,1,1,0,0,1-1.09,0,.89.89,0,0,1-.25-.42c0-.06-.11-.27-.25-.63A7.94,7.94,0,0,0,55,90.66a1.58,1.58,0,0,0-.92-.79q-.59-.08-1.34.75a6,6,0,0,0-.75,3,49.24,49.24,0,0,0-.13,4.94q0,.46,0,2.2t0,2.49a11.29,11.29,0,0,1-.08,1.59q0,.33-.08.54a.52.52,0,0,1-.29.38,1.87,1.87,0,0,1-.75.17c-.31,0-.64,0-1,0a4.7,4.7,0,0,1-1-.17,1.48,1.48,0,0,1-.38-.12.68.68,0,0,1-.29-.33,6.57,6.57,0,0,1-.13-1.21q0-.88,0-2.22,0-2.51.08-6.28.17-7.07.38-10a.28.28,0,0,1-.08-.21.27.27,0,0,1,.17-.25.3.3,0,0,1,.29-.17.16.16,0,0,1,.17.13q.71,0,3.1,0a.26.26,0,0,1,.29.29v0a.28.28,0,0,1,.13.25c0,.06,0,.2,0,.42v.63a2.6,2.6,0,0,0,0,.5v0A1.84,1.84,0,0,0,52.73,86.9Z"/><path class="cls-3" d="M51.19,105.18a2,2,0,0,0,0-.46,10,10,0,0,0,.08-1.51q0-.75,0-2.47t0-2.22q0-3.18.13-5a6.16,6.16,0,0,1,.92-3.35,1.76,1.76,0,0,1,3.18.13,15.07,15.07,0,0,1,.79,1.55,3.86,3.86,0,0,0,.25.59,1,1,0,0,0,.13.25q.08.08.46-.08a1.46,1.46,0,0,0,.38-.17,1.55,1.55,0,0,1,.33-.17l.33-.12.42-.17.38-.21.13,0v-.33A4.72,4.72,0,0,0,57.3,88a3.87,3.87,0,0,0-3.68-.92.42.42,0,0,0-.17.08L53,87.4a4.15,4.15,0,0,1-.42.25l-.21.08a.35.35,0,0,1-.29,0,.69.69,0,0,1-.33-.5,4.24,4.24,0,0,1,0-.67v-.59c0-.25,0-.39,0-.42q-2.13,0-2.89,0-.21,2.93-.38,10-.08,3.81-.08,6.23,0,1.38,0,2.22a10.06,10.06,0,0,0,.08,1,0,0,0,0,1,0,0l.25.08a5.54,5.54,0,0,0,.88.13c.33,0,.64,0,.92,0a3,3,0,0,0,.5-.08Z"/><path class="cls-3" d="M67.46,86.9l.38-.25.33-.17a4.39,4.39,0,0,1,4.23,1.09,5.13,5.13,0,0,1,2,3.85v.25a.53.53,0,0,1-.08.42.86.86,0,0,1-.38.25,2.8,2.8,0,0,1-.42.21l-.42.17-.29.08-.29.17a2,2,0,0,1-.46.21,1,1,0,0,1-1.09,0,.89.89,0,0,1-.25-.42c0-.06-.11-.27-.25-.63a7.94,7.94,0,0,0-.75-1.42,1.58,1.58,0,0,0-.92-.79q-.59-.08-1.34.75a6,6,0,0,0-.75,3,49.24,49.24,0,0,0-.13,4.94q0,.46,0,2.2t0,2.49a11.29,11.29,0,0,1-.08,1.59q0,.33-.08.54a.52.52,0,0,1-.29.38,1.87,1.87,0,0,1-.75.17c-.31,0-.64,0-1,0a4.7,4.7,0,0,1-1-.17,1.48,1.48,0,0,1-.38-.12.68.68,0,0,1-.29-.33,6.57,6.57,0,0,1-.13-1.21q0-.88,0-2.22,0-2.51.08-6.28.17-7.07.38-10a.28.28,0,0,1-.08-.21.27.27,0,0,1,.17-.25.3.3,0,0,1,.29-.17.16.16,0,0,1,.17.13q.71,0,3.1,0a.26.26,0,0,1,.29.29v0a.28.28,0,0,1,.13.25c0,.06,0,.2,0,.42v.63a2.6,2.6,0,0,0,0,.5v0A1.84,1.84,0,0,0,67.46,86.9Z"/><path class="cls-3" d="M65.91,105.18a2,2,0,0,0,0-.46,10,10,0,0,0,.08-1.51q0-.75,0-2.47t0-2.22q0-3.18.13-5A6.16,6.16,0,0,1,67,90.2a1.76,1.76,0,0,1,3.18.13A15.07,15.07,0,0,1,71,91.87a3.86,3.86,0,0,0,.25.59,1,1,0,0,0,.13.25q.08.08.46-.08a1.46,1.46,0,0,0,.38-.17,1.55,1.55,0,0,1,.33-.17l.33-.12.42-.17.38-.21.13,0v-.33A4.72,4.72,0,0,0,72,88a3.87,3.87,0,0,0-3.68-.92.42.42,0,0,0-.17.08l-.42.25a4.15,4.15,0,0,1-.42.25l-.21.08a.35.35,0,0,1-.29,0,.69.69,0,0,1-.33-.5,4.24,4.24,0,0,1,0-.67v-.59c0-.25,0-.39,0-.42q-2.13,0-2.89,0-.21,2.93-.38,10-.08,3.81-.08,6.23,0,1.38,0,2.22a10.06,10.06,0,0,0,.08,1,0,0,0,0,1,0,0l.25.08a5.54,5.54,0,0,0,.88.13c.33,0,.64,0,.92,0a3,3,0,0,0,.5-.08Z"/><path class="cls-3" d="M83.19,95.93l-.33,0a1.38,1.38,0,0,1-.42.08c-.28.08-.43.16-.46.23a2,2,0,0,0-.08.4q0,.29,0,.75a11.94,11.94,0,0,0,.38,2,9.24,9.24,0,0,0,.75,1.92q.42.75.75.79a2.83,2.83,0,0,0,2.38-.69,4.51,4.51,0,0,0,1.42-2.36,1.2,1.2,0,0,0,0-.46,1.08,1.08,0,0,1,.21-.71.68.68,0,0,1,.38-.17,1.53,1.53,0,0,1,.38,0,5.71,5.71,0,0,1,1,.1,9.52,9.52,0,0,1,1,.23,1.63,1.63,0,0,1,.38.17.5.5,0,0,1,.29.29,2.31,2.31,0,0,1,.08,1.42,8.26,8.26,0,0,1-.33,1.25,7,7,0,0,1-1.88,2.72,8.64,8.64,0,0,1-2.85,1.74,7.41,7.41,0,0,1-3.28.4,6.69,6.69,0,0,1-3.16-1.13q-2.13-1.46-2.55-5.44a18.38,18.38,0,0,1,.88-7.57A13,13,0,0,1,82,85.77a6.3,6.3,0,0,1,6.53-1,3.45,3.45,0,0,1,1.67,1.88,11,11,0,0,1,.88,2.93,15.45,15.45,0,0,1,.21,2.89,3.46,3.46,0,0,1-.21,1,.93.93,0,0,1-.44.69,10.77,10.77,0,0,1-1.53.44l-2.43.54q-2.18.46-3.35.63A.66.66,0,0,1,83.19,95.93Z"/><path class="cls-3" d="M86.58,94.64Q88,94.34,89,94.05a8.47,8.47,0,0,0,1.38-.38c.06,0,.11-.14.17-.33a3.38,3.38,0,0,0,.17-.92,13.82,13.82,0,0,0-.21-2.72,10.8,10.8,0,0,0-.84-2.8,2.58,2.58,0,0,0-1.38-1.55,5.59,5.59,0,0,0-5.9.88,12.37,12.37,0,0,0-3.64,5.9,18.61,18.61,0,0,0-.84,7.32q.38,3.68,2.3,5a6.63,6.63,0,0,0,3.91,1.07A7.35,7.35,0,0,0,88,104.15,6.54,6.54,0,0,0,90.47,101a4.64,4.64,0,0,0,.33-1.17,2.31,2.31,0,0,0,0-1.09,0,0,0,0,1,0,0l-.29-.08a7.44,7.44,0,0,0-.9-.23,4.88,4.88,0,0,0-.94-.1.91.91,0,0,0-.29,0h0a.72.72,0,0,0,0,.29,3.06,3.06,0,0,1,0,.63,5.57,5.57,0,0,1-1.65,2.66,3.28,3.28,0,0,1-2.82.82q-.63-.12-1.21-1.13a10.16,10.16,0,0,1-.75-2,10.65,10.65,0,0,1-.42-2.13c0-.33,0-.61,0-.84a1.56,1.56,0,0,1,.17-.63,1.21,1.21,0,0,1,.84-.5.3.3,0,0,1,.29-.21A30.73,30.73,0,0,0,86.58,94.64Z"/><path class="cls-3" d="M83.06,90a5.2,5.2,0,0,1,1.26-1.57,2.31,2.31,0,0,1,1.76-.59,2,2,0,0,1,1.46,1.51l.17.67a3,3,0,0,1,.13.38.84.84,0,0,1,0,.38.52.52,0,0,1-.13.21l0,0-.21.08a2.11,2.11,0,0,1-.5.25q-.59.25-1.46.59l-1.55.5a3.85,3.85,0,0,1-.54.17.46.46,0,0,0-.21,0H83a.51.51,0,0,1-.33-.38.17.17,0,0,0,0-.12v-.08a.27.27,0,0,1,0-.29A3.42,3.42,0,0,1,83.06,90Z"/><path class="cls-3" d="M87.25,90.54c0-.11-.06-.24-.08-.38s-.13-.4-.21-.63q-.29-1-1-1.09a1.81,1.81,0,0,0-1.32.48,4.08,4.08,0,0,0-1.17,1.46A2.41,2.41,0,0,0,83.23,92v0l.54-.12q.63-.21,1.51-.54t1.46-.54l.46-.21,0,0Z"/><path class="cls-3" d="M99.21,105.31a.28.28,0,0,1-.08.21.27.27,0,0,1,.17.25.26.26,0,0,1-.29.29l-.75,0q-.79,0-1.13.08-.67,0-1.09,0a1.56,1.56,0,0,1-.46-.13.51.51,0,0,1-.33-.29.24.24,0,0,1,0-.17.58.58,0,0,1,0-.25,4.27,4.27,0,0,1,0-.67q0-.84,0-2.3,0-2.64,0-6.82.08-9.67.29-11a.26.26,0,0,1,.33-.25.16.16,0,0,1,.17.13q.54-.13,1.13-.21a5.28,5.28,0,0,1,.84-.08.68.68,0,0,1,.33,0,.45.45,0,0,1,.33.13l.08.13v3.56a6.68,6.68,0,0,1,.84-1.34,7.88,7.88,0,0,1,3.47-2.64,4.08,4.08,0,0,1,4.27.46,2.82,2.82,0,0,1,.75,1.17,12.75,12.75,0,0,1,.46,1.8,34.63,34.63,0,0,1,.46,4.81q.08,1.8.08,8.54v4.6a.32.32,0,0,0,0,.13v.13a.48.48,0,0,1-.08.13.53.53,0,0,1-.25.13h-1.21l-.25,0-.42.13-.46.08a.17.17,0,0,0-.13,0h-.13a.37.37,0,0,1-.17,0,.56.56,0,0,1-.21-.46.32.32,0,0,0,0-.13v-.12q0-.92,0-3.47.17-3.56.17-4.69a36.55,36.55,0,0,0-.08-4.48,6.64,6.64,0,0,0-.63-2.76,2.1,2.1,0,0,0-1.59-.84q-1.34-.21-2.26,1.72a18.09,18.09,0,0,0-1.38,4.85,58.38,58.38,0,0,0-.63,8.58.29.29,0,0,1,.08.29l-.08.25v.17a.37.37,0,0,1,0,.17Z"/><path class="cls-3" d="M97.87,84.64a4.46,4.46,0,0,0-.79.08,9.9,9.9,0,0,0-1.17.21q-.17,2.26-.25,10.58,0,4.06,0,6.82,0,1.46,0,2.26a3.8,3.8,0,0,0,0,.67v.21h.08a1.29,1.29,0,0,0,.29.08,9.67,9.67,0,0,0,1,0l1.09-.08a2.2,2.2,0,0,0,.5,0,.24.24,0,0,1-.08-.17v-.46a.37.37,0,0,1,0-.17,62.86,62.86,0,0,1,.67-9.12,17.06,17.06,0,0,1,1.38-5q1.17-2.3,2.89-2a2.74,2.74,0,0,1,2,1.09,7,7,0,0,1,.71,3.05,37,37,0,0,1,.08,4.52q0,1.17-.17,4.69-.08,2.55,0,3.47v.13l.33-.08.42-.08.29-.08h1.09v-4.52q0-6.69-.08-8.49a33.53,33.53,0,0,0-.46-4.77,8.55,8.55,0,0,0-.42-1.7,1.89,1.89,0,0,0-.54-.86,3.54,3.54,0,0,0-3.72-.42,7.38,7.38,0,0,0-3.18,2.43,6.83,6.83,0,0,0-1.26,2.38,5,5,0,0,0-.13.54v.54a.12.12,0,0,0,0,.08.25.25,0,0,1-.33.13L98,90.41a.12.12,0,0,1,0-.08V89.7q0-1,0-2.55V84.64S97.93,84.61,97.87,84.64Z"/><path class="cls-3" d="M114.48,89.24l-.59.25a4,4,0,0,0-.5.25,1,1,0,0,1-1.13-.21,3.55,3.55,0,0,1-.33-1.88v-.29a3.42,3.42,0,0,1,0-.42,1.26,1.26,0,0,1,.21-.92,1.33,1.33,0,0,1,1-.38,5.72,5.72,0,0,1,1.13,0q.79.08,1,.08a1,1,0,0,0,.63-.21v0q0-.13.08-.29v-1q0-.92-.17-2.89l-.21-2.89a5.88,5.88,0,0,1,0-1,1.28,1.28,0,0,1,0-.38.44.44,0,0,1,.17-.29.82.82,0,0,1,.59-.17,2.35,2.35,0,0,1,.75,0,5.23,5.23,0,0,1,1.09.25.17.17,0,0,1,.13,0,.26.26,0,0,1,.29.29V82q0,1.84.08,2.93a8.32,8.32,0,0,0,0,1,.57.57,0,0,0,0,.25h0a1.24,1.24,0,0,0,.46,0q.33,0,1.3-.08t1.34-.08a2.2,2.2,0,0,1,.5,0,.8.8,0,0,1,.46.17.53.53,0,0,1,.13.25V87a4.46,4.46,0,0,1,0,.46v.25l.08.67q0,.29.08.46a1.26,1.26,0,0,1,0,.38.76.76,0,0,1-.46.42,3.14,3.14,0,0,1-.63.13,14.29,14.29,0,0,1-1.55,0l-.75,0-.79,0h-.46a.37.37,0,0,1,0,.17,17.61,17.61,0,0,1,.21,3.05q0,.25.38,6.69.17,2.34.17,3.72a10,10,0,0,1-.17,2.34.79.79,0,0,1-.59.46,2.46,2.46,0,0,1-.71.17,2.86,2.86,0,0,1-1.38-.13.49.49,0,0,1-.29-.29l-.13-.46c-.06-.33-.11-.78-.17-1.34q-.13-1.46-.21-4V92.84q0-.42,0-.84a8.43,8.43,0,0,0,0-1q0-.88,0-1.38c0-.17-.06-.31-.08-.42a0,0,0,0,1,0,0A1.47,1.47,0,0,0,114.48,89.24Z"/><path class="cls-3" d="M122.35,86.56a1.45,1.45,0,0,0-.42,0q-.33,0-1.3.08t-1.34.08a1.45,1.45,0,0,1-.5,0,1,1,0,0,1-.46-.17.46.46,0,0,1-.08-.17.17.17,0,0,1,0-.12,1.09,1.09,0,0,1,0-.33,8.34,8.34,0,0,1,0-1q0-1.09-.08-3V77.4a6.92,6.92,0,0,0-1-.21,1.68,1.68,0,0,0-.63,0h-.25v.25a5.42,5.42,0,0,0,0,1l.21,2.89q.17,2,.17,2.93v1.09c0,.14-.06.26-.08.38a.63.63,0,0,1-.17.33,1.5,1.5,0,0,1-1,.38q-.38,0-1.17-.08a4.47,4.47,0,0,0-1,0,.71.71,0,0,0-.59.21,1.43,1.43,0,0,0,0,.46c0,.08,0,.22,0,.4s0,.3,0,.36a2.74,2.74,0,0,0,.25,1.51c.06.11.19.13.42,0a4.45,4.45,0,0,0,.46-.21,3.89,3.89,0,0,1,.63-.29,2.12,2.12,0,0,1,1.42-.08A.66.66,0,0,1,116,89q0,.21.08.5A9.74,9.74,0,0,1,116.2,91a9,9,0,0,1,0,1c0,.26,0,.54,0,.82v7.32q.08,2.47.21,3.89a6.45,6.45,0,0,0,.17,1.3,2.84,2.84,0,0,0,.08.33l0,0a3.53,3.53,0,0,0,1,0,3.08,3.08,0,0,0,.63-.12c.11,0,.17-.06.17-.08a8.37,8.37,0,0,0,.17-2.18q0-1.34-.17-3.68-.38-6.48-.38-6.74a16.5,16.5,0,0,0-.21-3v0a.48.48,0,0,1-.08-.12.44.44,0,0,1,.08-.46.41.41,0,0,1,.21-.17.57.57,0,0,1,.25,0h.54l.82,0,.73,0a13.46,13.46,0,0,0,1.51,0l.46-.08.08,0s0-.09,0-.19a2.92,2.92,0,0,1,0-.4c-.08-.45-.13-.7-.13-.75v-.29c0-.22,0-.36,0-.42v-.46Z"/><path class="cls-3" d="M143.43,105.31a.28.28,0,0,1-.08.21.27.27,0,0,1,.17.25.26.26,0,0,1-.29.29l-.75,0q-.8,0-1.13.08c-.45,0-.81,0-1.09,0a1.56,1.56,0,0,1-.46-.13.51.51,0,0,1-.33-.29.24.24,0,0,1,0-.17.58.58,0,0,1,0-.25,4.21,4.21,0,0,1,0-.67q0-.84,0-2.3,0-2.64,0-6.82.08-9.67.29-11a.26.26,0,0,1,.33-.25.16.16,0,0,1,.17.13q.54-.13,1.13-.21a5.27,5.27,0,0,1,.84-.08.68.68,0,0,1,.33,0,.45.45,0,0,1,.33.13l.08.13v3.56a6.66,6.66,0,0,1,.84-1.34,7.88,7.88,0,0,1,3.47-2.64,4.08,4.08,0,0,1,4.27.46,2.82,2.82,0,0,1,.75,1.17,12.81,12.81,0,0,1,.46,1.8,34.66,34.66,0,0,1,.46,4.81q.08,1.8.08,8.54v4.6a.33.33,0,0,0,0,.13v.13a.5.5,0,0,1-.08.13.53.53,0,0,1-.25.13h-1.21l-.25,0-.42.13-.46.08a.17.17,0,0,0-.13,0h-.13a.37.37,0,0,1-.17,0,.56.56,0,0,1-.21-.46.31.31,0,0,0,0-.13v-.12q0-.92,0-3.47.17-3.56.17-4.69a36.65,36.65,0,0,0-.08-4.48,6.64,6.64,0,0,0-.63-2.76,2.11,2.11,0,0,0-1.59-.84q-1.34-.21-2.26,1.72a18.09,18.09,0,0,0-1.38,4.85,58.32,58.32,0,0,0-.63,8.58.29.29,0,0,1,.08.29l-.08.25v.17a.37.37,0,0,1,0,.17Z"/><path class="cls-3" d="M142.09,84.64a4.45,4.45,0,0,0-.79.08,9.85,9.85,0,0,0-1.17.21q-.17,2.26-.25,10.58,0,4.06,0,6.82,0,1.46,0,2.26a3.87,3.87,0,0,0,0,.67v.21H140a1.32,1.32,0,0,0,.29.08,9.67,9.67,0,0,0,1,0l1.09-.08a2.2,2.2,0,0,0,.5,0,.24.24,0,0,1-.08-.17v-.46a.36.36,0,0,1,0-.17,62.73,62.73,0,0,1,.67-9.12,17.06,17.06,0,0,1,1.38-5q1.17-2.3,2.89-2a2.75,2.75,0,0,1,2,1.09,7,7,0,0,1,.71,3.05,37.22,37.22,0,0,1,.08,4.52q0,1.17-.17,4.69-.08,2.55,0,3.47v.13l.33-.08.42-.08.29-.08h1.09v-4.52q0-6.69-.08-8.49A33.61,33.61,0,0,0,152,87.4a8.58,8.58,0,0,0-.42-1.7,1.89,1.89,0,0,0-.54-.86,3.54,3.54,0,0,0-3.72-.42,7.38,7.38,0,0,0-3.18,2.43,6.83,6.83,0,0,0-1.25,2.38,4.85,4.85,0,0,0-.13.54v.54a.12.12,0,0,0,0,.08.25.25,0,0,1-.33.13l-.17-.13a.12.12,0,0,1,0-.08V89.7q0-1,0-2.55V84.64S142.15,84.61,142.09,84.64Z"/><path class="cls-3" d="M165.77,104.51a12,12,0,0,1-1.76,1.25,4.08,4.08,0,0,1-2.38.54,4.36,4.36,0,0,1-2.72-1.55q-1.63-1.84-1.76-7.2,0-1.51,0-4.18t0-3.47l-.08-2.51V85.93a3.7,3.7,0,0,0,0-.5.69.69,0,0,0,0-.17,1,1,0,0,1,.17-.25,1.37,1.37,0,0,1,.75-.17,4.65,4.65,0,0,1,.88,0l.92.08.67.08a.26.26,0,0,1,.25.33.27.27,0,0,1-.29.25q0,1.26,0,3.66t0,3.49q0,4.73.25,7.28a2.56,2.56,0,0,0,.54,1.3,2.61,2.61,0,0,0,1.09.84,1.9,1.9,0,0,0,2.43-.79q1.67-2.43,1.71-7.53,0-.71-.08-4.23,0-2.51.08-3.93v-.21a.68.68,0,0,1,.17-.38,1.18,1.18,0,0,1,.59-.17l.84-.08a6.44,6.44,0,0,1,.8,0,1.08,1.08,0,0,1,.33,0,.64.64,0,0,1,.33.17,2.84,2.84,0,0,1,.33,1.13q0,.63.08,1.63,0,.59,0,1.57t0,1.23q.08,3.22.08,7.87,0,3,0,4.77,0,1-.12,1.63a4.31,4.31,0,0,1-.08.5.53.53,0,0,1-.17.38,1.83,1.83,0,0,1-.33.17,1.91,1.91,0,0,0-.38,0,4.53,4.53,0,0,1-.88,0l-.92-.08-.38-.12a.56.56,0,0,1-.29-.23,1.22,1.22,0,0,1-.13-.4V104C166.23,104.11,166.05,104.26,165.77,104.51Z"/><path class="cls-3" d="M167.11,85.6v.17a37,37,0,0,0-.08,3.81q.08,3.52.08,4.27,0,5.27-1.8,7.87a2.66,2.66,0,0,1-1.46,1.09,2.45,2.45,0,0,1-1.67-.08,3.08,3.08,0,0,1-1.36-1,3,3,0,0,1-.65-1.59q-.25-2.64-.25-7.36,0-1.09,0-3.51t0-3.72l-1-.08a3.66,3.66,0,0,0-.79,0,1.46,1.46,0,0,0-.42,0v0a3.53,3.53,0,0,1,0,.46V87.4l.08,2.51q0,.84,0,3.47t0,4.18q.08,5.1,1.59,6.78a3.73,3.73,0,0,0,2.34,1.38,3.54,3.54,0,0,0,2.09-.46A10.44,10.44,0,0,0,165.4,104q.46-.38.59-.46l.25-.17a.47.47,0,0,1,.33,0,.45.45,0,0,1,.29.42.25.25,0,0,1,0,.17V104a3,3,0,0,1,0,.75v.33a.17.17,0,0,0,0,.13h0l.25.08.79.08a4.12,4.12,0,0,0,.84,0,.92.92,0,0,0,.29,0h0v-.08a4.54,4.54,0,0,0,.08-.46,15.14,15.14,0,0,0,.13-1.59q0-1.72,0-4.73,0-4.64-.08-7.87,0-.21,0-1.19t0-1.61q0-1-.1-1.57a2.25,2.25,0,0,0-.19-.82l-.25,0h-.75l-.75.08a.6.6,0,0,0-.25,0Z"/><path class="cls-3" d="M177.11,105.47c-.39,0-.67.06-.84.08a4.65,4.65,0,0,1-.88,0,1.66,1.66,0,0,1-.67-.17.52.52,0,0,1-.12-.21.36.36,0,0,1,0-.17,2.2,2.2,0,0,1,0-.5,10.89,10.89,0,0,1-.08-1.55q-.08-1.72-.08-4.73V85.56l-.08-.38a.61.61,0,0,1,.17-.71,1.26,1.26,0,0,1,.88-.13l.23,0,.25,0,.19,0,.17,0,.21,0,.21,0a1.36,1.36,0,0,1,.79.13,1.35,1.35,0,0,1,.17.21.77.77,0,0,1,0,.25q0,.21.08.59t0,1.59v1a4.37,4.37,0,0,0,.27-.42l.19-.33a11.15,11.15,0,0,1,1.55-2.05,2.84,2.84,0,0,1,1.21-.75,1.16,1.16,0,0,1,1.3.46,5.79,5.79,0,0,1,.92,2.93q.08.63.13,1.67t.08,1.3a18.83,18.83,0,0,1,1-3.14,8.9,8.9,0,0,1,1.76-2.84,2.43,2.43,0,0,1,2.59-.71,2.58,2.58,0,0,1,1.67,1.26,13.07,13.07,0,0,1,1.07,4.62,27.47,27.47,0,0,1-.11,5.17q0,.46-.12,2T191,99.49q0,.67-.06,1.84a19.3,19.3,0,0,0,0,2,13.78,13.78,0,0,0,.23,1.71.27.27,0,0,1-.12.29v.08a.26.26,0,0,1-.29.29l-.71,0a8.64,8.64,0,0,0-1,.13q-.63,0-1,0a2.25,2.25,0,0,1-.79-.17.25.25,0,0,1-.17-.17v-.08a.25.25,0,0,1,0-.17v-2q0-.46,0-2.09t0-2.59q0-2.93,0-4.69a13.52,13.52,0,0,0-.13-1.55,4.59,4.59,0,0,0-.08-.46v0l-.17,0a.71.71,0,0,0-.21.21,4,4,0,0,0-.38,1.25,16.24,16.24,0,0,0-.25,1.84q-.17,1.26-.25,1.72a.12.12,0,0,1,0,.08v.21a.75.75,0,0,1-.25.33,1.56,1.56,0,0,1-.63.17q-.29,0-.71,0l-.75,0-.46,0-.46,0-.59,0a2.68,2.68,0,0,1-1.17-.13.69.69,0,0,1-.34-.46c0-.17-.05-.39-.08-.67a7.82,7.82,0,0,1-.06-.88c0-.42,0-.71,0-.88a8.28,8.28,0,0,0-.25-1.67c-.11-.39-.26-.6-.44-.63s-.36.07-.52.29a4.54,4.54,0,0,0-.54,1.21,24,24,0,0,0-.54,4.1q-.08,2.22,0,4.43a10,10,0,0,0,.29,2.55c.08.2,0,.32-.13.38a.36.36,0,0,1-.17,0h-.08Z"/><path class="cls-3" d="M188.07,105.39q.38,0,.92,0,.17,0,1-.13l.63,0a13.61,13.61,0,0,1-.23-1.76,20.22,20.22,0,0,1,0-2.09q0-1.17.06-1.88t.15-2.24q.13-1.53.13-2a30.72,30.72,0,0,0,.08-5.08,13,13,0,0,0-1-4.41,2.12,2.12,0,0,0-1.34-.92,1.91,1.91,0,0,0-2.05.54A7.88,7.88,0,0,0,184.85,88a16.92,16.92,0,0,0-1.34,5.48V94l0,0v0a.27.27,0,0,1-.12.13.29.29,0,0,1-.33,0,.17.17,0,0,1,0-.12l0,0V92.88q0-.33-.17-1.88,0-.25-.08-1.32t-.12-1.7a5.39,5.39,0,0,0-.75-2.64.73.73,0,0,0-.73-.23,2.43,2.43,0,0,0-.94.61,10.26,10.26,0,0,0-1.46,2,7.21,7.21,0,0,0-.75,1.42v.21a.48.48,0,0,1,0,.21.27.27,0,0,1-.19.21.31.31,0,0,1-.27,0,.65.65,0,0,1-.17-.13.33.33,0,0,0,0-.12v-.21a2.53,2.53,0,0,1,0-.54q0-.25,0-1.59,0-1,0-1.55a4.52,4.52,0,0,1,0-.54.12.12,0,0,1,0-.08.66.66,0,0,0-.33,0L176,85l-.75-.08a1,1,0,0,0-.42,0V85a3.55,3.55,0,0,1,.13.54V98.23q0,3,.08,4.69,0,1,0,1.55a2.79,2.79,0,0,0,.08.42v0a.72.72,0,0,0,.29,0,3.67,3.67,0,0,0,.79,0,8,8,0,0,1,.84-.08,1.53,1.53,0,0,0,.38,0,16.83,16.83,0,0,1-.25-2.38q-.13-2.26,0-4.48a23,23,0,0,1,.59-4.23,5,5,0,0,1,.58-1.38,1.24,1.24,0,0,1,1.09-.54q.63.08.92,1a7.72,7.72,0,0,1,.29,1.8q0,.25,0,.86c0,.4,0,.7.06.9a4.85,4.85,0,0,0,.08.54.17.17,0,0,0,0,.13,2.26,2.26,0,0,0,.84,0l.59,0,.5,0,.54,0,.71,0a3.64,3.64,0,0,0,.65,0,1,1,0,0,0,.31-.06.32.32,0,0,1,0-.12V96.9q.08-.46.25-1.71a18.21,18.21,0,0,1,.25-1.88,5.65,5.65,0,0,1,.46-1.46.9.9,0,0,1,.5-.42.73.73,0,0,1,.67.08.71.71,0,0,1,.29.38c0,.14.06.32.08.54q.08.59.13,1.63.08,1.63,0,4.69,0,1,0,2.59t0,2.09v1.92A1.79,1.79,0,0,0,188.07,105.39Z"/><path class="cls-3" d="M198.95,104.38a3.72,3.72,0,0,0,0,.5q-.12.8-.54,1a2,2,0,0,1-.63.13,5,5,0,0,1-.92,0,7.93,7.93,0,0,1-.88,0l-.38-.08a.89.89,0,0,1-.29-.17.52.52,0,0,1-.13-.25v-.59a2.6,2.6,0,0,1,0-.38v-.25q0-2.43.1-7.32t.1-7.32s0-.9,0-2.61,0-3.16,0-4.33q0-2.43.08-4,0-1,.08-1.38a2.6,2.6,0,0,0,0-.42.73.73,0,0,1,.19-.33.7.7,0,0,1,.27-.12.91.91,0,0,1,.29,0,3,3,0,0,1,.71,0l.79.08a.28.28,0,0,1,.25-.13h.5a.78.78,0,0,1,.46.54,11.06,11.06,0,0,1,.13,2.18q0,1.3-.08,3.56,0,.92-.08,2.38l-.08,2.43q0,.92,0,1.34V89a10.56,10.56,0,0,1,1.42-2.3,4.93,4.93,0,0,1,4.14-1.4,6,6,0,0,1,3.93,2,8.76,8.76,0,0,1,1.78,4.52,16.86,16.86,0,0,1-.15,5.86,14.81,14.81,0,0,1-2.07,5.46,5.66,5.66,0,0,1-3.74,2.7,6.46,6.46,0,0,1-2.87-.15,4.89,4.89,0,0,1-2.36-1.4Z"/><path class="cls-3" d="M197,76.9a2.3,2.3,0,0,0-.63,0h-.21v0a1.24,1.24,0,0,0,0,.38q0,.38-.08,1.3-.08,1.55-.08,4,0,1.76,0,4.33t0,2.61q0,2.43-.1,7.32t-.1,7.32v.29a2.6,2.6,0,0,0,0,.38v.42a1.21,1.21,0,0,1,.29,0,7.08,7.08,0,0,0,.84,0,4.11,4.11,0,0,0,.84,0l.42,0c.08-.06.15-.24.21-.54a2,2,0,0,0,0-.46v-.42a.17.17,0,0,1,0-.13.37.37,0,0,1,0-.25.38.38,0,0,1,.25-.29.43.43,0,0,1,.5.25s0,.07.08.13v.08a4.64,4.64,0,0,0,2.2,1.38,5.71,5.71,0,0,0,2.74.17,5.2,5.2,0,0,0,3.39-2.49,13.81,13.81,0,0,0,1.92-5.21,17.12,17.12,0,0,0,.15-5.65,8,8,0,0,0-1.61-4.18,5.43,5.43,0,0,0-3.58-1.88,4.23,4.23,0,0,0-3.66,1.26,5.88,5.88,0,0,0-.59.77q-.25.4-.56,1t-.48.92v0a.38.38,0,0,0,0,.17.54.54,0,0,1-.13.21.31.31,0,0,1-.33.13.4.4,0,0,1-.25-.17.17.17,0,0,0,0-.12V88.7q0-.42,0-1.34l.08-2.43q.08-1.46.08-2.43.08-2.22.08-3.51a9,9,0,0,0-.12-2,.17.17,0,0,0,0-.13h-.08A.24.24,0,0,1,198,77C197.69,77,197.34,76.92,197,76.9Z"/><path class="cls-3" d="M199.57,93.21a7,7,0,0,1,2.16-3.05,3.7,3.7,0,0,1,2.74-.88,2.85,2.85,0,0,1,2.22,1.61,6.68,6.68,0,0,1,.59,3.83,12.86,12.86,0,0,1-1.63,5.44,3.92,3.92,0,0,1-2,1.8,3.24,3.24,0,0,1-3-.54,6.62,6.62,0,0,1-.75-.54,2.42,2.42,0,0,1-.71-.84,10.61,10.61,0,0,1-.08-3.18q0-.42.06-1.13t.08-1.21c0-.33,0-.61,0-.84a.27.27,0,0,1,.25-.29A.38.38,0,0,1,199.57,93.21Z"/><path class="cls-3" d="M199.85,94.53q0,.52-.08,1.23t-.06,1.13a11.27,11.27,0,0,0,.08,3,1.56,1.56,0,0,0,.46.54,8.7,8.7,0,0,0,.75.5,2.73,2.73,0,0,0,2.43.5,3.41,3.41,0,0,0,1.72-1.59,11.49,11.49,0,0,0,1.55-5.19,5.86,5.86,0,0,0-.48-3.41,2.44,2.44,0,0,0-1.82-1.38,3.16,3.16,0,0,0-2.34.79,6.55,6.55,0,0,0-2,2.82.26.26,0,0,1-.21.17v0C199.87,93.9,199.86,94.18,199.85,94.53Z"/><path class="cls-3" d="M219.11,95.93l-.33,0a1.38,1.38,0,0,1-.42.08c-.28.08-.43.16-.46.23a1.94,1.94,0,0,0-.08.4q0,.29,0,.75a11.93,11.93,0,0,0,.38,2,9.24,9.24,0,0,0,.75,1.92c.28.5.53.77.75.79a2.83,2.83,0,0,0,2.38-.69,4.52,4.52,0,0,0,1.42-2.36,1.22,1.22,0,0,0,0-.46,1.09,1.09,0,0,1,.21-.71.68.68,0,0,1,.38-.17,1.54,1.54,0,0,1,.38,0,5.72,5.72,0,0,1,1,.1,9.49,9.49,0,0,1,1,.23,1.64,1.64,0,0,1,.38.17.49.49,0,0,1,.29.29,2.31,2.31,0,0,1,.08,1.42,8.26,8.26,0,0,1-.33,1.25,7,7,0,0,1-1.88,2.72,8.65,8.65,0,0,1-2.84,1.74,7.41,7.41,0,0,1-3.29.4,6.69,6.69,0,0,1-3.16-1.13q-2.13-1.46-2.55-5.44a18.38,18.38,0,0,1,.88-7.57,13,13,0,0,1,3.81-6.15,6.3,6.3,0,0,1,6.53-1,3.45,3.45,0,0,1,1.67,1.88,11,11,0,0,1,.88,2.93,15.53,15.53,0,0,1,.21,2.89,3.46,3.46,0,0,1-.21,1,.93.93,0,0,1-.44.69,10.77,10.77,0,0,1-1.53.44l-2.43.54q-2.18.46-3.35.63A.67.67,0,0,1,219.11,95.93Z"/><path class="cls-3" d="M222.5,94.64q1.38-.29,2.43-.59a8.52,8.52,0,0,0,1.38-.38c.05,0,.11-.14.17-.33a3.36,3.36,0,0,0,.17-.92,13.86,13.86,0,0,0-.21-2.72,10.82,10.82,0,0,0-.84-2.8,2.58,2.58,0,0,0-1.38-1.55,5.59,5.59,0,0,0-5.9.88,12.37,12.37,0,0,0-3.64,5.9,18.62,18.62,0,0,0-.84,7.32q.38,3.68,2.3,5a6.63,6.63,0,0,0,3.91,1.07,7.35,7.35,0,0,0,3.83-1.34,6.54,6.54,0,0,0,2.51-3.12,4.69,4.69,0,0,0,.33-1.17,2.3,2.3,0,0,0,0-1.09,0,0,0,0,1,0,0l-.29-.08a7.44,7.44,0,0,0-.9-.23,4.88,4.88,0,0,0-.94-.1.92.92,0,0,0-.29,0h0a.71.71,0,0,0,0,.29,3.12,3.12,0,0,1,0,.63,5.57,5.57,0,0,1-1.65,2.66,3.28,3.28,0,0,1-2.82.82q-.63-.12-1.21-1.13a10.16,10.16,0,0,1-.75-2,10.62,10.62,0,0,1-.42-2.13c0-.33,0-.61,0-.84a1.55,1.55,0,0,1,.17-.63,1.21,1.21,0,0,1,.84-.5.3.3,0,0,1,.29-.21A30.72,30.72,0,0,0,222.5,94.64Z"/><path class="cls-3" d="M219,90a5.19,5.19,0,0,1,1.25-1.57,2.31,2.31,0,0,1,1.76-.59,2,2,0,0,1,1.46,1.51l.17.67a3.07,3.07,0,0,1,.13.38.85.85,0,0,1,0,.38.53.53,0,0,1-.12.21l0,0-.21.08a2.12,2.12,0,0,1-.5.25q-.59.25-1.46.59l-1.55.5a3.85,3.85,0,0,1-.54.17.46.46,0,0,0-.21,0h-.21a.51.51,0,0,1-.33-.38.17.17,0,0,0,0-.12v-.08a.28.28,0,0,1,0-.29A3.43,3.43,0,0,1,219,90Z"/><path class="cls-3" d="M223.17,90.54c0-.11-.06-.24-.08-.38s-.12-.4-.21-.63q-.29-1-1-1.09a1.81,1.81,0,0,0-1.32.48,4.08,4.08,0,0,0-1.17,1.46,2.41,2.41,0,0,0-.27,1.61v0l.54-.12q.63-.21,1.51-.54t1.46-.54l.46-.21,0,0Z"/><path class="cls-3" d="M235.17,86.9l.38-.25.33-.17a4.39,4.39,0,0,1,4.23,1.09,5.13,5.13,0,0,1,2,3.85v.25a.53.53,0,0,1-.08.42.87.87,0,0,1-.38.25,2.79,2.79,0,0,1-.42.21l-.42.17-.29.08-.29.17a2,2,0,0,1-.46.21,1,1,0,0,1-1.09,0,.89.89,0,0,1-.25-.42c0-.06-.11-.27-.25-.63a7.9,7.9,0,0,0-.75-1.42,1.58,1.58,0,0,0-.92-.79q-.59-.08-1.34.75a6,6,0,0,0-.75,3,49.26,49.26,0,0,0-.12,4.94q0,.46,0,2.2t0,2.49a11.46,11.46,0,0,1-.08,1.59q0,.33-.08.54a.53.53,0,0,1-.29.38,1.87,1.87,0,0,1-.75.17c-.31,0-.64,0-1,0a4.7,4.7,0,0,1-1-.17,1.5,1.5,0,0,1-.38-.12.69.69,0,0,1-.29-.33,6.63,6.63,0,0,1-.12-1.21q0-.88,0-2.22,0-2.51.08-6.28.17-7.07.38-10a.29.29,0,0,1-.08-.21.27.27,0,0,1,.17-.25.3.3,0,0,1,.29-.17.16.16,0,0,1,.17.13q.71,0,3.1,0a.26.26,0,0,1,.29.29v0a.28.28,0,0,1,.13.25c0,.06,0,.2,0,.42v.63a2.65,2.65,0,0,0,0,.5v0A1.84,1.84,0,0,0,235.17,86.9Z"/><path class="cls-3" d="M233.63,105.18a1.9,1.9,0,0,0,0-.46,10.12,10.12,0,0,0,.08-1.51q0-.75,0-2.47t0-2.22q0-3.18.13-5a6.16,6.16,0,0,1,.92-3.35,1.76,1.76,0,0,1,3.18.13,15.07,15.07,0,0,1,.79,1.55,4,4,0,0,0,.25.59,1,1,0,0,0,.13.25c.06.06.21,0,.46-.08a1.48,1.48,0,0,0,.38-.17,1.55,1.55,0,0,1,.33-.17l.33-.12L241,92l.38-.21.13,0v-.33A4.73,4.73,0,0,0,239.74,88a3.87,3.87,0,0,0-3.68-.92.42.42,0,0,0-.17.08l-.42.25a4.21,4.21,0,0,1-.42.25l-.21.08a.35.35,0,0,1-.29,0,.69.69,0,0,1-.34-.5,4.32,4.32,0,0,1,0-.67v-.59c0-.25,0-.39,0-.42q-2.13,0-2.89,0-.21,2.93-.38,10-.08,3.81-.08,6.23,0,1.38,0,2.22a9.72,9.72,0,0,0,.08,1,0,0,0,0,1,0,0l.25.08a5.53,5.53,0,0,0,.88.13c.33,0,.64,0,.92,0a3,3,0,0,0,.5-.08Z"/><path d="M22.32,89.92a.28.28,0,0,1,0-.25,5.17,5.17,0,0,0-.84-1.8.85.85,0,0,0-.77-.4,1.43,1.43,0,0,0-.82.57,6.33,6.33,0,0,0-.88,1.46A14,14,0,0,0,18,94a9.56,9.56,0,0,0,.5,4.29q.63,1.34,1.38,1.38a3.15,3.15,0,0,0,1.76-.29,1,1,0,0,0,.38-.88l-.08-1.3a2.3,2.3,0,0,1,.25-1.34l.17-.17.21-.08a2.51,2.51,0,0,1,.5-.17q.59-.17,1.42-.33t1.42-.25h.71a.54.54,0,0,1,.25.13.76.76,0,0,1,.17.71,1,1,0,0,1,0,.19l0,.19a.56.56,0,0,0,0,.13,8.23,8.23,0,0,1-.63,3.16,7.5,7.5,0,0,1-1.74,2.59,6,6,0,0,1-2.64,1.49,5.78,5.78,0,0,1-3.28-.12,5.4,5.4,0,0,1-3.22-2.51q-1.17-2-.79-7.15A19.59,19.59,0,0,1,16,86.53a7.23,7.23,0,0,1,1.67-2.28,6.56,6.56,0,0,1,2.34-1.49,3.09,3.09,0,0,1,2.26.21,6.62,6.62,0,0,1,2.18,1.59,7,7,0,0,1,1.38,2.09,2.21,2.21,0,0,1,0,2,.28.28,0,0,1-.13.13l-.08.08-.33.25-1,.63q-1.3.84-1.57,1a.27.27,0,0,1-.4-.13.28.28,0,0,1,0-.29ZM23,90l1.17-.71.92-.63.33-.21.08-.08a1.87,1.87,0,0,0-.13-1.46A5.84,5.84,0,0,0,24.08,85a6.47,6.47,0,0,0-2-1.44,2.47,2.47,0,0,0-1.88-.19,5.29,5.29,0,0,0-2.11,1.34,7.9,7.9,0,0,0-1.57,2.09,20.44,20.44,0,0,0-1.38,6.86q-.29,4.94.75,6.86a4.78,4.78,0,0,0,2.89,2.18,4.81,4.81,0,0,0,2.95.15,5.94,5.94,0,0,0,2.38-1.34,6.54,6.54,0,0,0,1.61-2.36,7.72,7.72,0,0,0,.59-3s0-.22.08-.58c0-.08,0-.14,0-.17h-.5q-.54.08-1.38.25T23.2,96l-.46.13-.13.08a1.61,1.61,0,0,0-.13.92q.08,1.34.08,1.38A1.64,1.64,0,0,1,22,99.8a3.27,3.27,0,0,1-2.13.42q-1.13,0-1.88-1.71a10.28,10.28,0,0,1-.59-4.6,13.94,13.94,0,0,1,1.13-4.6,7.86,7.86,0,0,1,1-1.63,2,2,0,0,1,1.21-.79,1.34,1.34,0,0,1,1.25.63,5.59,5.59,0,0,1,1,2,.28.28,0,0,1,0,.25Z"/><path d="M39.64,102.23a11.93,11.93,0,0,1-1.76,1.25,4.08,4.08,0,0,1-2.38.54,4.36,4.36,0,0,1-2.72-1.55q-1.63-1.84-1.76-7.2,0-1.51,0-4.18t0-3.47L31,85.11V83.65a3.64,3.64,0,0,0,0-.5.7.7,0,0,0,0-.17,1,1,0,0,1,.17-.25,1.36,1.36,0,0,1,.75-.17,4.65,4.65,0,0,1,.88,0l.92.08.67.08a.26.26,0,0,1,.25.33.27.27,0,0,1-.29.25q0,1.26,0,3.66t0,3.49q0,4.73.25,7.28a2.55,2.55,0,0,0,.54,1.3,2.61,2.61,0,0,0,1.09.84,1.9,1.9,0,0,0,2.43-.79q1.67-2.43,1.72-7.53,0-.71-.08-4.23,0-2.51.08-3.93v-.21a.68.68,0,0,1,.17-.38,1.18,1.18,0,0,1,.59-.17l.84-.08a6.42,6.42,0,0,1,.79,0,1.07,1.07,0,0,1,.33,0,.64.64,0,0,1,.33.17,2.86,2.86,0,0,1,.33,1.13q0,.63.08,1.63,0,.59,0,1.57t0,1.23q.08,3.22.08,7.87,0,3,0,4.77,0,1-.13,1.63a4.56,4.56,0,0,1-.08.5.53.53,0,0,1-.17.38,1.86,1.86,0,0,1-.33.17,1.91,1.91,0,0,0-.38,0,4.53,4.53,0,0,1-.88,0l-.92-.08-.38-.12a.56.56,0,0,1-.29-.23,1.21,1.21,0,0,1-.13-.4v-1.13A7,7,0,0,0,39.64,102.23ZM41,83.31v.17a36.87,36.87,0,0,0-.08,3.81Q41,90.8,41,91.56q0,5.27-1.8,7.87a2.66,2.66,0,0,1-1.46,1.09,2.45,2.45,0,0,1-1.67-.08,3.07,3.07,0,0,1-1.36-1A3,3,0,0,1,34,97.83q-.25-2.64-.25-7.36,0-1.09,0-3.51t0-3.72l-1-.08a3.67,3.67,0,0,0-.8,0,1.45,1.45,0,0,0-.42,0v0a3.48,3.48,0,0,1,0,.46v1.42l.08,2.51q0,.84,0,3.47t0,4.18q.08,5.1,1.59,6.78a3.74,3.74,0,0,0,2.34,1.38,3.54,3.54,0,0,0,2.09-.46,10.44,10.44,0,0,0,1.63-1.21q.46-.38.59-.46l.25-.17a.47.47,0,0,1,.33,0,.45.45,0,0,1,.29.42.24.24,0,0,1,0,.17v.08a3,3,0,0,1,0,.75v.33a.17.17,0,0,0,0,.13h0l.25.08.79.08a4.12,4.12,0,0,0,.84,0,.92.92,0,0,0,.29,0h0V103c0-.11.06-.27.08-.46a15.3,15.3,0,0,0,.13-1.59q0-1.72,0-4.73,0-4.64-.08-7.87,0-.21,0-1.19t0-1.61q0-1-.1-1.57a2.24,2.24,0,0,0-.19-.82l-.25,0H42l-.75.08a.59.59,0,0,0-.25,0Z"/><path d="M51.73,84.61l.38-.25.33-.17a4.39,4.39,0,0,1,4.23,1.09,5.13,5.13,0,0,1,2,3.85v.25a.53.53,0,0,1-.08.42.86.86,0,0,1-.38.25,2.8,2.8,0,0,1-.42.21l-.42.17-.29.08-.29.17a2,2,0,0,1-.46.21,1,1,0,0,1-1.09,0,.89.89,0,0,1-.25-.42c0-.06-.11-.27-.25-.63A7.94,7.94,0,0,0,54,88.38a1.58,1.58,0,0,0-.92-.79q-.59-.08-1.34.75a6,6,0,0,0-.75,3,49.24,49.24,0,0,0-.13,4.94q0,.46,0,2.2t0,2.49a11.29,11.29,0,0,1-.08,1.59q0,.33-.08.54a.52.52,0,0,1-.29.38,1.87,1.87,0,0,1-.75.17c-.31,0-.64,0-1,0a4.7,4.7,0,0,1-1-.17,1.48,1.48,0,0,1-.38-.12.68.68,0,0,1-.29-.33,6.57,6.57,0,0,1-.13-1.21q0-.88,0-2.22,0-2.51.08-6.28.17-7.07.38-10a.28.28,0,0,1-.08-.21.27.27,0,0,1,.17-.25.3.3,0,0,1,.29-.17.16.16,0,0,1,.17.13q.71,0,3.1,0a.26.26,0,0,1,.29.29v0a.28.28,0,0,1,.13.25c0,.06,0,.2,0,.42v.63a2.6,2.6,0,0,0,0,.5v0A1.84,1.84,0,0,0,51.73,84.61Zm-1.55,18.28a2,2,0,0,0,0-.46,10,10,0,0,0,.08-1.51q0-.75,0-2.47t0-2.22q0-3.18.13-5a6.16,6.16,0,0,1,.92-3.35,1.76,1.76,0,0,1,3.18.13,15.07,15.07,0,0,1,.79,1.55,3.86,3.86,0,0,0,.25.59,1,1,0,0,0,.13.25q.08.08.46-.08a1.46,1.46,0,0,0,.38-.17A1.55,1.55,0,0,1,56.8,90l.33-.12.42-.17.38-.21.13,0v-.33A4.72,4.72,0,0,0,56.3,85.7a3.87,3.87,0,0,0-3.68-.92.42.42,0,0,0-.17.08l-.42.25a4.15,4.15,0,0,1-.42.25l-.21.08a.35.35,0,0,1-.29,0,.69.69,0,0,1-.33-.5,4.24,4.24,0,0,1,0-.67v-.59c0-.25,0-.39,0-.42q-2.13,0-2.89,0-.21,2.93-.38,10-.08,3.81-.08,6.23,0,1.38,0,2.22a10.06,10.06,0,0,0,.08,1,0,0,0,0,1,0,0l.25.08a5.54,5.54,0,0,0,.88.13c.33,0,.64,0,.92,0a3,3,0,0,0,.5-.08Z"/><path d="M66.46,84.61l.38-.25.33-.17a4.39,4.39,0,0,1,4.23,1.09,5.13,5.13,0,0,1,2,3.85v.25a.53.53,0,0,1-.08.42.86.86,0,0,1-.38.25,2.8,2.8,0,0,1-.42.21l-.42.17-.29.08-.29.17a2,2,0,0,1-.46.21,1,1,0,0,1-1.09,0,.89.89,0,0,1-.25-.42c0-.06-.11-.27-.25-.63a7.94,7.94,0,0,0-.75-1.42,1.58,1.58,0,0,0-.92-.79q-.59-.08-1.34.75a6,6,0,0,0-.75,3,49.24,49.24,0,0,0-.13,4.94q0,.46,0,2.2t0,2.49a11.29,11.29,0,0,1-.08,1.59q0,.33-.08.54a.52.52,0,0,1-.29.38,1.87,1.87,0,0,1-.75.17c-.31,0-.64,0-1,0a4.7,4.7,0,0,1-1-.17,1.48,1.48,0,0,1-.38-.12.68.68,0,0,1-.29-.33,6.57,6.57,0,0,1-.13-1.21q0-.88,0-2.22,0-2.51.08-6.28.17-7.07.38-10a.28.28,0,0,1-.08-.21.27.27,0,0,1,.17-.25.3.3,0,0,1,.29-.17.16.16,0,0,1,.17.13q.71,0,3.1,0a.26.26,0,0,1,.29.29v0a.28.28,0,0,1,.13.25c0,.06,0,.2,0,.42v.63a2.6,2.6,0,0,0,0,.5v0A1.84,1.84,0,0,0,66.46,84.61Zm-1.55,18.28a2,2,0,0,0,0-.46,10,10,0,0,0,.08-1.51q0-.75,0-2.47t0-2.22q0-3.18.13-5A6.16,6.16,0,0,1,66,87.92a1.76,1.76,0,0,1,3.18.13A15.07,15.07,0,0,1,70,89.59a3.86,3.86,0,0,0,.25.59,1,1,0,0,0,.13.25q.08.08.46-.08a1.46,1.46,0,0,0,.38-.17,1.55,1.55,0,0,1,.33-.17l.33-.12.42-.17.38-.21.13,0v-.33A4.72,4.72,0,0,0,71,85.7a3.87,3.87,0,0,0-3.68-.92.42.42,0,0,0-.17.08l-.42.25a4.15,4.15,0,0,1-.42.25l-.21.08a.35.35,0,0,1-.29,0,.69.69,0,0,1-.33-.5,4.24,4.24,0,0,1,0-.67v-.59c0-.25,0-.39,0-.42q-2.13,0-2.89,0-.21,2.93-.38,10-.08,3.81-.08,6.23,0,1.38,0,2.22a10.06,10.06,0,0,0,.08,1,0,0,0,0,1,0,0l.25.08a5.54,5.54,0,0,0,.88.13c.33,0,.64,0,.92,0a3,3,0,0,0,.5-.08Z"/><path d="M82.19,93.65l-.33,0a1.38,1.38,0,0,1-.42.08c-.28.08-.43.16-.46.23a2,2,0,0,0-.08.4q0,.29,0,.75a11.94,11.94,0,0,0,.38,2,9.24,9.24,0,0,0,.75,1.92q.42.75.75.79a2.83,2.83,0,0,0,2.38-.69,4.51,4.51,0,0,0,1.42-2.36,1.2,1.2,0,0,0,0-.46,1.08,1.08,0,0,1,.21-.71.68.68,0,0,1,.38-.17,1.53,1.53,0,0,1,.38,0,5.71,5.71,0,0,1,1,.1,9.52,9.52,0,0,1,1,.23,1.63,1.63,0,0,1,.38.17.5.5,0,0,1,.29.29,2.31,2.31,0,0,1,.08,1.42,8.26,8.26,0,0,1-.33,1.25,7,7,0,0,1-1.88,2.72,8.64,8.64,0,0,1-2.85,1.74,7.41,7.41,0,0,1-3.28.4,6.69,6.69,0,0,1-3.16-1.13q-2.13-1.46-2.55-5.44a18.38,18.38,0,0,1,.88-7.57A13,13,0,0,1,81,83.48a6.3,6.3,0,0,1,6.53-1,3.45,3.45,0,0,1,1.67,1.88,11,11,0,0,1,.88,2.93,15.45,15.45,0,0,1,.21,2.89,3.46,3.46,0,0,1-.21,1,.93.93,0,0,1-.44.69,10.77,10.77,0,0,1-1.53.44l-2.43.54q-2.18.46-3.35.63A.66.66,0,0,1,82.19,93.65Zm3.39-1.3Q87,92.06,88,91.77a8.47,8.47,0,0,0,1.38-.38c.06,0,.11-.14.17-.33a3.38,3.38,0,0,0,.17-.92,13.82,13.82,0,0,0-.21-2.72,10.8,10.8,0,0,0-.84-2.8,2.58,2.58,0,0,0-1.38-1.55,5.59,5.59,0,0,0-5.9.88,12.37,12.37,0,0,0-3.64,5.9,18.61,18.61,0,0,0-.84,7.32q.38,3.68,2.3,5a6.63,6.63,0,0,0,3.91,1.07A7.35,7.35,0,0,0,87,101.87a6.54,6.54,0,0,0,2.51-3.12,4.64,4.64,0,0,0,.33-1.17,2.31,2.31,0,0,0,0-1.09,0,0,0,0,1,0,0l-.29-.08a7.44,7.44,0,0,0-.9-.23,4.88,4.88,0,0,0-.94-.1.91.91,0,0,0-.29,0h0a.72.72,0,0,0,0,.29,3.06,3.06,0,0,1,0,.63,5.57,5.57,0,0,1-1.65,2.66,3.28,3.28,0,0,1-2.82.82q-.63-.12-1.21-1.13a10.16,10.16,0,0,1-.75-2,10.65,10.65,0,0,1-.42-2.13c0-.33,0-.61,0-.84a1.56,1.56,0,0,1,.17-.63,1.21,1.21,0,0,1,.84-.5A.3.3,0,0,1,81.6,93,30.73,30.73,0,0,0,85.58,92.35Zm-3.51-4.62a5.2,5.2,0,0,1,1.26-1.57,2.31,2.31,0,0,1,1.76-.59,2,2,0,0,1,1.46,1.51l.17.67a3,3,0,0,1,.13.38.84.84,0,0,1,0,.38.52.52,0,0,1-.13.21l0,0-.21.08a2.11,2.11,0,0,1-.5.25q-.59.25-1.46.59l-1.55.5a3.85,3.85,0,0,1-.54.17.46.46,0,0,0-.21,0H82a.51.51,0,0,1-.33-.38.17.17,0,0,0,0-.12V89.8a.27.27,0,0,1,0-.29A3.42,3.42,0,0,1,82.06,87.73Zm4.18.52c0-.11-.06-.24-.08-.38s-.13-.4-.21-.63q-.29-1-1-1.09a1.81,1.81,0,0,0-1.32.48A4.08,4.08,0,0,0,82.5,88.1a2.41,2.41,0,0,0-.27,1.61v0l.54-.12q.63-.21,1.51-.54t1.46-.54l.46-.21,0,0Z"/><path d="M98.21,103a.28.28,0,0,1-.08.21.27.27,0,0,1,.17.25.26.26,0,0,1-.29.29l-.75,0q-.79,0-1.13.08-.67,0-1.09,0a1.56,1.56,0,0,1-.46-.13.51.51,0,0,1-.33-.29.24.24,0,0,1,0-.17.58.58,0,0,1,0-.25,4.27,4.27,0,0,1,0-.67q0-.84,0-2.3,0-2.64,0-6.82.08-9.67.29-11a.26.26,0,0,1,.33-.25.16.16,0,0,1,.17.13q.54-.13,1.13-.21a5.28,5.28,0,0,1,.84-.08.68.68,0,0,1,.33,0,.45.45,0,0,1,.33.13l.08.13v3.56a6.68,6.68,0,0,1,.84-1.34,7.88,7.88,0,0,1,3.47-2.64,4.08,4.08,0,0,1,4.27.46,2.82,2.82,0,0,1,.75,1.17,12.75,12.75,0,0,1,.46,1.8,34.63,34.63,0,0,1,.46,4.81q.08,1.8.08,8.54V103a.32.32,0,0,0,0,.13v.13a.48.48,0,0,1-.08.13.53.53,0,0,1-.25.13h-1.21l-.25,0-.42.13-.46.08a.17.17,0,0,0-.13,0h-.13a.37.37,0,0,1-.17,0,.56.56,0,0,1-.21-.46.32.32,0,0,0,0-.13V103q0-.92,0-3.47.17-3.56.17-4.69a36.55,36.55,0,0,0-.08-4.48,6.64,6.64,0,0,0-.63-2.76,2.1,2.1,0,0,0-1.59-.84q-1.34-.21-2.26,1.72a18.09,18.09,0,0,0-1.38,4.85,58.38,58.38,0,0,0-.63,8.58.29.29,0,0,1,.08.29l-.08.25v.17a.37.37,0,0,1,0,.17ZM96.87,82.35a4.46,4.46,0,0,0-.79.08,9.9,9.9,0,0,0-1.17.21q-.17,2.26-.25,10.58,0,4.06,0,6.82,0,1.46,0,2.26a3.8,3.8,0,0,0,0,.67v.21h.08a1.29,1.29,0,0,0,.29.08,9.67,9.67,0,0,0,1,0l1.09-.08a2.2,2.2,0,0,0,.5,0,.24.24,0,0,1-.08-.17v-.46a.37.37,0,0,1,0-.17,62.86,62.86,0,0,1,.67-9.12,17.06,17.06,0,0,1,1.38-5q1.17-2.3,2.89-2a2.74,2.74,0,0,1,2,1.09,7,7,0,0,1,.71,3.05,37,37,0,0,1,.08,4.52q0,1.17-.17,4.69-.08,2.55,0,3.47v.13l.33-.08L106,103l.29-.08h1.09V98.38q0-6.69-.08-8.49a33.53,33.53,0,0,0-.46-4.77,8.55,8.55,0,0,0-.42-1.7,1.89,1.89,0,0,0-.54-.86,3.54,3.54,0,0,0-3.72-.42,7.38,7.38,0,0,0-3.18,2.43A6.83,6.83,0,0,0,97.67,87a5,5,0,0,0-.13.54V88a.12.12,0,0,0,0,.08.25.25,0,0,1-.33.13L97,88.12A.12.12,0,0,1,97,88v-.63q0-1,0-2.55V82.35S96.93,82.32,96.87,82.35Zm10.59,20.54h0Z"/><path d="M113.48,87l-.59.25a4,4,0,0,0-.5.25,1,1,0,0,1-1.13-.21,3.55,3.55,0,0,1-.33-1.88v-.29a3.42,3.42,0,0,1,0-.42,1.26,1.26,0,0,1,.21-.92,1.33,1.33,0,0,1,1-.38,5.72,5.72,0,0,1,1.13,0q.79.08,1,.08a1,1,0,0,0,.63-.21v0q0-.13.08-.29v-1q0-.92-.17-2.89l-.21-2.89a5.88,5.88,0,0,1,0-1,1.28,1.28,0,0,1,0-.38.44.44,0,0,1,.17-.29.82.82,0,0,1,.59-.17,2.35,2.35,0,0,1,.75,0,5.23,5.23,0,0,1,1.09.25.17.17,0,0,1,.13,0,.26.26,0,0,1,.29.29v4.85q0,1.84.08,2.93a8.32,8.32,0,0,0,0,1,.57.57,0,0,0,0,.25h0a1.24,1.24,0,0,0,.46,0q.33,0,1.3-.08t1.34-.08a2.2,2.2,0,0,1,.5,0,.8.8,0,0,1,.46.17.53.53,0,0,1,.13.25v.63a4.46,4.46,0,0,1,0,.46v.25l.08.67q0,.29.08.46a1.26,1.26,0,0,1,0,.38.76.76,0,0,1-.46.42,3.14,3.14,0,0,1-.63.13,14.29,14.29,0,0,1-1.55,0l-.75,0-.79,0h-.46a.37.37,0,0,1,0,.17,17.61,17.61,0,0,1,.21,3.05q0,.25.38,6.69.17,2.34.17,3.72a10,10,0,0,1-.17,2.34.79.79,0,0,1-.59.46,2.46,2.46,0,0,1-.71.17,2.86,2.86,0,0,1-1.38-.13.49.49,0,0,1-.29-.29l-.13-.46c-.06-.33-.11-.78-.17-1.34q-.13-1.46-.21-4V90.55q0-.42,0-.84a8.43,8.43,0,0,0,0-1q0-.88,0-1.38c0-.17-.06-.31-.08-.42a0,0,0,0,1,0,0A1.47,1.47,0,0,0,113.48,87Zm7.87-2.68a1.45,1.45,0,0,0-.42,0q-.33,0-1.3.08t-1.34.08a1.45,1.45,0,0,1-.5,0,1,1,0,0,1-.46-.17.46.46,0,0,1-.08-.17.17.17,0,0,1,0-.12,1.09,1.09,0,0,1,0-.33,8.34,8.34,0,0,1,0-1q0-1.09-.08-3V75.11a6.92,6.92,0,0,0-1-.21,1.68,1.68,0,0,0-.63,0h-.25v.25a5.42,5.42,0,0,0,0,1l.21,2.89q.17,2,.17,2.93V83c0,.14-.06.26-.08.38a.63.63,0,0,1-.17.33,1.5,1.5,0,0,1-1,.38q-.38,0-1.17-.08a4.47,4.47,0,0,0-1,0,.71.71,0,0,0-.59.21,1.43,1.43,0,0,0,0,.46c0,.08,0,.22,0,.4s0,.3,0,.36a2.74,2.74,0,0,0,.25,1.51c.06.11.19.13.42,0a4.45,4.45,0,0,0,.46-.21,3.89,3.89,0,0,1,.63-.29,2.12,2.12,0,0,1,1.42-.08.66.66,0,0,1,.33.42q0,.21.08.5a9.74,9.74,0,0,1,.08,1.42,9,9,0,0,1,0,1c0,.26,0,.54,0,.82v7.32q.08,2.47.21,3.89a6.45,6.45,0,0,0,.17,1.3,2.84,2.84,0,0,0,.08.33l0,0a3.53,3.53,0,0,0,1,0,3.08,3.08,0,0,0,.63-.12c.11,0,.17-.06.17-.08a8.37,8.37,0,0,0,.17-2.18q0-1.34-.17-3.68-.38-6.48-.38-6.74a16.5,16.5,0,0,0-.21-3v0a.48.48,0,0,1-.08-.12.44.44,0,0,1,.08-.46.41.41,0,0,1,.21-.17.57.57,0,0,1,.25,0h.54l.82,0,.73,0a13.46,13.46,0,0,0,1.51,0l.46-.08.08,0s0-.09,0-.19a2.92,2.92,0,0,1,0-.4c-.08-.45-.13-.7-.13-.75v-.29c0-.22,0-.36,0-.42v-.46Z"/><path d="M142.43,103a.28.28,0,0,1-.08.21.27.27,0,0,1,.17.25.26.26,0,0,1-.29.29l-.75,0q-.79,0-1.13.08-.67,0-1.09,0a1.56,1.56,0,0,1-.46-.13.5.5,0,0,1-.33-.29.24.24,0,0,1,0-.17.59.59,0,0,1,0-.25,4.21,4.21,0,0,1,0-.67q0-.84,0-2.3,0-2.64,0-6.82.08-9.67.29-11a.26.26,0,0,1,.33-.25.16.16,0,0,1,.17.13q.54-.13,1.13-.21a5.28,5.28,0,0,1,.84-.08.68.68,0,0,1,.33,0,.45.45,0,0,1,.33.13l.08.13v3.56a6.7,6.7,0,0,1,.84-1.34,7.89,7.89,0,0,1,3.47-2.64,4.08,4.08,0,0,1,4.27.46,2.82,2.82,0,0,1,.75,1.17,12.69,12.69,0,0,1,.46,1.8,34.61,34.61,0,0,1,.46,4.81q.08,1.8.08,8.54V103a.32.32,0,0,0,0,.13v.13a.45.45,0,0,1-.08.13.53.53,0,0,1-.25.13h-1.21l-.25,0-.42.13-.46.08a.17.17,0,0,0-.12,0h-.12a.37.37,0,0,1-.17,0,.56.56,0,0,1-.21-.46.32.32,0,0,0,0-.13V103q0-.92,0-3.47Q149,96,149,94.86a36.45,36.45,0,0,0-.08-4.48,6.62,6.62,0,0,0-.63-2.76,2.1,2.1,0,0,0-1.59-.84q-1.34-.21-2.26,1.72a18.09,18.09,0,0,0-1.38,4.85,58.44,58.44,0,0,0-.63,8.58.29.29,0,0,1,.08.29l-.08.25v.17a.38.38,0,0,1,0,.17Zm-1.34-20.67a4.47,4.47,0,0,0-.79.08,9.94,9.94,0,0,0-1.17.21q-.17,2.26-.25,10.58,0,4.06,0,6.82,0,1.46,0,2.26a3.73,3.73,0,0,0,0,.67v.21H139a1.29,1.29,0,0,0,.29.08,9.68,9.68,0,0,0,1,0l1.09-.08a2.21,2.21,0,0,0,.5,0,.24.24,0,0,1-.08-.17v-.46a.38.38,0,0,1,0-.17,63,63,0,0,1,.67-9.12,17.06,17.06,0,0,1,1.38-5q1.17-2.3,2.89-2a2.74,2.74,0,0,1,2,1.09,7,7,0,0,1,.71,3.05,36.86,36.86,0,0,1,.08,4.52q0,1.17-.17,4.69-.08,2.55,0,3.47v.13l.33-.08.42-.08.29-.08h1.09V98.38q0-6.69-.08-8.49a33.44,33.44,0,0,0-.46-4.77,8.52,8.52,0,0,0-.42-1.7,1.89,1.89,0,0,0-.54-.86,3.54,3.54,0,0,0-3.72-.42,7.39,7.39,0,0,0-3.18,2.43A6.83,6.83,0,0,0,141.89,87a5.05,5.05,0,0,0-.12.54V88a.12.12,0,0,0,0,.08.25.25,0,0,1-.33.13l-.17-.13a.12.12,0,0,1,0-.08v-.63q0-1,0-2.55V82.35S141.15,82.32,141.09,82.35Zm10.59,20.54h0Z"/><path d="M164.77,102.23a11.9,11.9,0,0,1-1.76,1.25,4.08,4.08,0,0,1-2.38.54,4.36,4.36,0,0,1-2.72-1.55q-1.63-1.84-1.76-7.2,0-1.51,0-4.18t0-3.47l-.08-2.51V83.65a3.58,3.58,0,0,0,0-.5.7.7,0,0,0,0-.17,1,1,0,0,1,.17-.25,1.36,1.36,0,0,1,.75-.17,4.64,4.64,0,0,1,.88,0l.92.08.67.08a.26.26,0,0,1,.25.33.27.27,0,0,1-.29.25q0,1.26,0,3.66t0,3.49q0,4.73.25,7.28a2.55,2.55,0,0,0,.54,1.3,2.61,2.61,0,0,0,1.09.84,1.9,1.9,0,0,0,2.43-.79q1.67-2.43,1.72-7.53,0-.71-.08-4.23,0-2.51.08-3.93v-.21a.68.68,0,0,1,.17-.38,1.18,1.18,0,0,1,.59-.17l.84-.08a6.44,6.44,0,0,1,.79,0,1.07,1.07,0,0,1,.33,0,.63.63,0,0,1,.33.17,2.86,2.86,0,0,1,.33,1.13q0,.63.08,1.63,0,.59,0,1.57t0,1.23q.08,3.22.08,7.87,0,3,0,4.77,0,1-.13,1.63a4.84,4.84,0,0,1-.08.5.53.53,0,0,1-.17.38,1.89,1.89,0,0,1-.33.17,1.9,1.9,0,0,0-.38,0,4.53,4.53,0,0,1-.88,0l-.92-.08-.38-.12a.56.56,0,0,1-.29-.23,1.2,1.2,0,0,1-.12-.4v-1.13A7,7,0,0,0,164.77,102.23Zm1.34-18.91v.17a36.7,36.7,0,0,0-.08,3.81q.08,3.52.08,4.27,0,5.27-1.8,7.87a2.65,2.65,0,0,1-1.46,1.09,2.46,2.46,0,0,1-1.67-.08,3.07,3.07,0,0,1-1.36-1,3,3,0,0,1-.65-1.59q-.25-2.64-.25-7.36,0-1.09,0-3.51t0-3.72l-1-.08a3.67,3.67,0,0,0-.79,0,1.44,1.44,0,0,0-.42,0v0a3.43,3.43,0,0,1,0,.46v1.42l.08,2.51q0,.84,0,3.47t0,4.18q.08,5.1,1.59,6.78a3.74,3.74,0,0,0,2.34,1.38,3.54,3.54,0,0,0,2.09-.46,10.44,10.44,0,0,0,1.63-1.21l.58-.46.25-.17a.47.47,0,0,1,.33,0,.45.45,0,0,1,.29.42.24.24,0,0,1,0,.17v.08a3,3,0,0,1,0,.75v.33a.17.17,0,0,0,0,.13h0l.25.08.79.08a4.12,4.12,0,0,0,.84,0,.92.92,0,0,0,.29,0h0V103c0-.11.06-.27.08-.46a15.47,15.47,0,0,0,.13-1.59q0-1.72,0-4.73,0-4.64-.08-7.87,0-.21,0-1.19t0-1.61q0-1-.1-1.57a2.23,2.23,0,0,0-.19-.82l-.25,0h-.75l-.75.08a.59.59,0,0,0-.25,0Z"/><path d="M176.11,103.19c-.39,0-.67.06-.84.08a4.65,4.65,0,0,1-.88,0,1.65,1.65,0,0,1-.67-.17.53.53,0,0,1-.13-.21.38.38,0,0,1,0-.17,2.2,2.2,0,0,1,0-.5,10.89,10.89,0,0,1-.08-1.55q-.08-1.72-.08-4.73V83.27l-.08-.38a.61.61,0,0,1,.17-.71,1.26,1.26,0,0,1,.88-.13l.23,0,.25,0,.19,0,.17,0,.21,0,.21,0a.76.76,0,0,1,1,.33.8.8,0,0,1,0,.25q0,.21.08.59t0,1.59v1a4.35,4.35,0,0,0,.27-.42l.19-.33A11.19,11.19,0,0,1,178.7,83a2.82,2.82,0,0,1,1.21-.75,1.16,1.16,0,0,1,1.3.46,5.78,5.78,0,0,1,.92,2.93q.08.63.13,1.67t.08,1.3a18.83,18.83,0,0,1,1-3.14,8.92,8.92,0,0,1,1.76-2.84,2.43,2.43,0,0,1,2.59-.71,2.58,2.58,0,0,1,1.67,1.26,13,13,0,0,1,1.07,4.62,27.48,27.48,0,0,1-.1,5.17q0,.46-.13,2T190,97.2q0,.67-.06,1.84a19.54,19.54,0,0,0,0,2,13.78,13.78,0,0,0,.23,1.71.27.27,0,0,1-.13.29v.08a.26.26,0,0,1-.29.29l-.71,0a8.71,8.71,0,0,0-1,.13c-.42,0-.75,0-1,0a2.26,2.26,0,0,1-.79-.17.25.25,0,0,1-.17-.17v-.08a.24.24,0,0,1,0-.17v-2q0-.46,0-2.09t0-2.59q0-2.93,0-4.69a13.81,13.81,0,0,0-.12-1.55c0-.2-.06-.35-.08-.46v0l-.17,0a.73.73,0,0,0-.21.21,4,4,0,0,0-.38,1.25,16.59,16.59,0,0,0-.25,1.84q-.17,1.26-.25,1.72a.12.12,0,0,1,0,.08V95a.76.76,0,0,1-.25.33,1.54,1.54,0,0,1-.63.17q-.29,0-.71,0l-.75,0-.46,0-.46,0-.59,0a2.69,2.69,0,0,1-1.17-.13.69.69,0,0,1-.33-.46c0-.17-.06-.39-.08-.67a7.89,7.89,0,0,1-.06-.88c0-.42,0-.71,0-.88a8.16,8.16,0,0,0-.25-1.67c-.11-.39-.26-.6-.44-.63a.56.56,0,0,0-.52.29,4.54,4.54,0,0,0-.54,1.21,24,24,0,0,0-.54,4.1q-.08,2.22,0,4.43a10.09,10.09,0,0,0,.29,2.55c.08.2,0,.32-.12.38a.36.36,0,0,1-.17,0h-.08Zm11-.08q.38,0,.92,0,.17,0,1-.13l.63,0a13.78,13.78,0,0,1-.23-1.76,20.76,20.76,0,0,1,0-2.09c0-.78,0-1.41.06-1.88s.06-1.22.15-2.24.13-1.68.13-2a30.72,30.72,0,0,0,.08-5.08,13,13,0,0,0-1-4.41,2.12,2.12,0,0,0-1.34-.92,1.91,1.91,0,0,0-2,.54,7.87,7.87,0,0,0-1.59,2.68,16.93,16.93,0,0,0-1.34,5.48v.5l0,0v0a.27.27,0,0,1-.13.13.29.29,0,0,1-.33,0,.17.17,0,0,1,0-.12l0,0V90.59q0-.33-.17-1.88,0-.25-.08-1.32t-.13-1.7a5.39,5.39,0,0,0-.75-2.64.73.73,0,0,0-.73-.23,2.43,2.43,0,0,0-.94.61,10.22,10.22,0,0,0-1.46,2,7.15,7.15,0,0,0-.75,1.42V87a.46.46,0,0,1,0,.21.26.26,0,0,1-.19.21.32.32,0,0,1-.27,0,.65.65,0,0,1-.17-.13.32.32,0,0,0,0-.12V87a2.47,2.47,0,0,1,0-.54q0-.25,0-1.59,0-1,0-1.55a4.66,4.66,0,0,1,0-.54.12.12,0,0,1,0-.08.66.66,0,0,0-.33,0l-.67.08-.75-.08a1,1,0,0,0-.42,0v.08a3.76,3.76,0,0,1,.13.54V95.95q0,3,.08,4.69,0,1,0,1.55a2.53,2.53,0,0,0,.08.42v0a.7.7,0,0,0,.29,0,3.67,3.67,0,0,0,.79,0,7.91,7.91,0,0,1,.84-.08,1.54,1.54,0,0,0,.38,0,16.83,16.83,0,0,1-.25-2.38q-.13-2.26,0-4.48a22.87,22.87,0,0,1,.59-4.23,5,5,0,0,1,.59-1.38,1.24,1.24,0,0,1,1.09-.54q.63.08.92,1a7.72,7.72,0,0,1,.29,1.8c0,.17,0,.45,0,.86s0,.7.06.9a4.38,4.38,0,0,0,.08.54.17.17,0,0,0,0,.13,2.27,2.27,0,0,0,.84,0l.59,0,.5,0,.54,0,.71,0a3.64,3.64,0,0,0,.65,0,1,1,0,0,0,.31-.06.33.33,0,0,1,0-.12v-.08q.08-.46.25-1.71a18.49,18.49,0,0,1,.25-1.88,5.69,5.69,0,0,1,.46-1.46.89.89,0,0,1,.5-.42.73.73,0,0,1,.67.08.71.71,0,0,1,.29.38c0,.14.06.32.08.54.05.39.1.93.13,1.63q.08,1.63,0,4.69,0,1,0,2.59t0,2.09v1.92A1.79,1.79,0,0,0,187.07,103.1Z"/><path d="M197.95,102.1a3.56,3.56,0,0,0,0,.5q-.13.8-.54,1a2,2,0,0,1-.63.13,5,5,0,0,1-.92,0,8,8,0,0,1-.88,0l-.38-.08a.9.9,0,0,1-.29-.17.53.53,0,0,1-.13-.25v-.59a2.46,2.46,0,0,1,0-.38v-.25q0-2.43.1-7.32t.11-7.32s0-.9,0-2.61,0-3.16,0-4.33q0-2.43.08-4c0-.67.06-1.13.08-1.38a2.7,2.7,0,0,0,0-.42.73.73,0,0,1,.19-.33.69.69,0,0,1,.27-.12.92.92,0,0,1,.29,0,3,3,0,0,1,.71,0l.79.08a.28.28,0,0,1,.25-.13h.5a.78.78,0,0,1,.46.54,11,11,0,0,1,.13,2.18q0,1.3-.08,3.56,0,.92-.08,2.38l-.08,2.43q0,.92,0,1.34v.29a10.49,10.49,0,0,1,1.42-2.3,4.93,4.93,0,0,1,4.14-1.4,6,6,0,0,1,3.93,2,8.77,8.77,0,0,1,1.78,4.52A16.84,16.84,0,0,1,209,95.4a14.81,14.81,0,0,1-2.07,5.46,5.66,5.66,0,0,1-3.75,2.7,6.46,6.46,0,0,1-2.87-.15,4.89,4.89,0,0,1-2.36-1.4Zm-2-27.49a2.32,2.32,0,0,0-.63,0h-.21v0a1.29,1.29,0,0,0,0,.38q0,.38-.08,1.3-.08,1.55-.08,4,0,1.76,0,4.33t0,2.61q0,2.43-.1,7.32t-.1,7.32v.29a2.46,2.46,0,0,0,0,.38V103a1.21,1.21,0,0,1,.29,0,7.07,7.07,0,0,0,.84,0,4.12,4.12,0,0,0,.84,0l.42,0c.08-.06.15-.24.21-.54a2,2,0,0,0,0-.46v-.42a.17.17,0,0,1,0-.13.46.46,0,0,1,.25-.54q.29-.08.5.25s0,.07.08.13v.08a4.64,4.64,0,0,0,2.2,1.38,5.72,5.72,0,0,0,2.74.17,5.2,5.2,0,0,0,3.39-2.49,13.81,13.81,0,0,0,1.92-5.21,17.06,17.06,0,0,0,.15-5.65,8,8,0,0,0-1.61-4.18,5.42,5.42,0,0,0-3.58-1.88,4.23,4.23,0,0,0-3.66,1.26,6.06,6.06,0,0,0-.59.77c-.17.27-.36.61-.56,1s-.37.73-.48.92v0a.37.37,0,0,0,0,.17.51.51,0,0,1-.12.21.31.31,0,0,1-.33.13.41.41,0,0,1-.25-.17.17.17,0,0,0,0-.12V86.41q0-.42,0-1.34l.08-2.43q.08-1.46.08-2.43.08-2.22.08-3.51a9,9,0,0,0-.13-2,.17.17,0,0,0,0-.13h-.08a.24.24,0,0,1-.29.17C196.69,74.68,196.34,74.64,196,74.61Zm-1.26,28.45v0Zm3.85-12.13a7,7,0,0,1,2.15-3.05,3.69,3.69,0,0,1,2.74-.88,2.85,2.85,0,0,1,2.22,1.61,6.68,6.68,0,0,1,.59,3.83,12.86,12.86,0,0,1-1.63,5.44,3.93,3.93,0,0,1-2,1.8,3.24,3.24,0,0,1-3-.54,6.66,6.66,0,0,1-.75-.54,2.42,2.42,0,0,1-.71-.84,10.6,10.6,0,0,1-.08-3.18q0-.42.06-1.13t.08-1.21c0-.33,0-.61,0-.84a.27.27,0,0,1,.25-.29A.36.36,0,0,1,198.57,90.93Zm.27,1.32q0,.52-.08,1.23t-.06,1.13a11.22,11.22,0,0,0,.08,3,1.56,1.56,0,0,0,.46.54,9,9,0,0,0,.75.5,2.73,2.73,0,0,0,2.43.5,3.42,3.42,0,0,0,1.71-1.59,11.47,11.47,0,0,0,1.55-5.19,5.84,5.84,0,0,0-.48-3.41,2.44,2.44,0,0,0-1.82-1.38,3.15,3.15,0,0,0-2.34.79,6.55,6.55,0,0,0-2,2.82.26.26,0,0,1-.21.17v0C198.87,91.61,198.86,91.9,198.85,92.25Z"/><path d="M218.11,93.65l-.33,0a1.37,1.37,0,0,1-.42.08c-.28.08-.43.16-.46.23a2.11,2.11,0,0,0-.08.4c0,.2,0,.45,0,.75a11.94,11.94,0,0,0,.38,2,9.24,9.24,0,0,0,.75,1.92q.42.75.75.79a2.83,2.83,0,0,0,2.38-.69,4.5,4.5,0,0,0,1.42-2.36,1.17,1.17,0,0,0,0-.46,1.08,1.08,0,0,1,.21-.71.68.68,0,0,1,.38-.17,1.53,1.53,0,0,1,.38,0,5.7,5.7,0,0,1,1,.1,9.54,9.54,0,0,1,1,.23,1.63,1.63,0,0,1,.38.17.5.5,0,0,1,.29.29,2.31,2.31,0,0,1,.08,1.42,8.26,8.26,0,0,1-.33,1.25,6.94,6.94,0,0,1-1.88,2.72,8.64,8.64,0,0,1-2.85,1.74,7.4,7.4,0,0,1-3.28.4,6.7,6.7,0,0,1-3.16-1.13q-2.13-1.46-2.55-5.44a18.38,18.38,0,0,1,.88-7.57,13,13,0,0,1,3.81-6.15,6.29,6.29,0,0,1,6.53-1,3.44,3.44,0,0,1,1.67,1.88,11,11,0,0,1,.88,2.93,15.38,15.38,0,0,1,.21,2.89,3.46,3.46,0,0,1-.21,1,.93.93,0,0,1-.44.69,10.77,10.77,0,0,1-1.53.44l-2.43.54q-2.18.46-3.35.63A.65.65,0,0,1,218.11,93.65Zm3.39-1.3q1.38-.29,2.43-.59a8.42,8.42,0,0,0,1.38-.38c.06,0,.11-.14.17-.33a3.4,3.4,0,0,0,.17-.92,13.78,13.78,0,0,0-.21-2.72,10.78,10.78,0,0,0-.84-2.8,2.58,2.58,0,0,0-1.38-1.55,5.59,5.59,0,0,0-5.9.88,12.38,12.38,0,0,0-3.64,5.9,18.6,18.6,0,0,0-.84,7.32q.38,3.68,2.3,5a6.63,6.63,0,0,0,3.91,1.07,7.36,7.36,0,0,0,3.83-1.34,6.55,6.55,0,0,0,2.51-3.12,4.6,4.6,0,0,0,.33-1.17,2.32,2.32,0,0,0,0-1.09,0,0,0,0,1,0,0l-.29-.08a7.44,7.44,0,0,0-.9-.23,4.88,4.88,0,0,0-.94-.1.91.91,0,0,0-.29,0h0a.73.73,0,0,0,0,.29,3,3,0,0,1,0,.63,5.56,5.56,0,0,1-1.65,2.66,3.28,3.28,0,0,1-2.82.82q-.63-.12-1.21-1.13a10.16,10.16,0,0,1-.75-2,10.68,10.68,0,0,1-.42-2.13c0-.33,0-.61,0-.84a1.57,1.57,0,0,1,.17-.63,1.21,1.21,0,0,1,.84-.5.29.29,0,0,1,.29-.21A30.74,30.74,0,0,0,221.5,92.35ZM218,87.73a5.22,5.22,0,0,1,1.26-1.57,2.31,2.31,0,0,1,1.76-.59,2,2,0,0,1,1.46,1.51l.17.67a2.93,2.93,0,0,1,.13.38.82.82,0,0,1,0,.38.52.52,0,0,1-.13.21l0,0-.21.08a2.1,2.1,0,0,1-.5.25q-.59.25-1.46.59l-1.55.5a3.84,3.84,0,0,1-.54.17.46.46,0,0,0-.21,0h-.21a.52.52,0,0,1-.33-.38.17.17,0,0,0,0-.12V89.8a.27.27,0,0,1,0-.29A3.42,3.42,0,0,1,218,87.73Zm4.18.52c0-.11-.06-.24-.08-.38s-.13-.4-.21-.63q-.29-1-1-1.09a1.81,1.81,0,0,0-1.32.48,4.08,4.08,0,0,0-1.17,1.46,2.41,2.41,0,0,0-.27,1.61v0l.54-.12q.63-.21,1.51-.54t1.46-.54l.46-.21,0,0Z"/><path d="M234.18,84.61l.38-.25.34-.17a4.38,4.38,0,0,1,4.22,1.09,5.13,5.13,0,0,1,2,3.85v.25a.53.53,0,0,1-.08.42.86.86,0,0,1-.38.25,2.81,2.81,0,0,1-.42.21l-.42.17-.29.08-.29.17a2,2,0,0,1-.46.21,1,1,0,0,1-1.09,0,.9.9,0,0,1-.25-.42c0-.06-.11-.27-.25-.63a8,8,0,0,0-.75-1.42,1.57,1.57,0,0,0-.92-.79q-.59-.08-1.34.75a6,6,0,0,0-.75,3,49.21,49.21,0,0,0-.13,4.94q0,.46,0,2.2t0,2.49a11.13,11.13,0,0,1-.08,1.59q0,.33-.08.54a.52.52,0,0,1-.29.38,1.87,1.87,0,0,1-.75.17c-.31,0-.64,0-1,0a4.7,4.7,0,0,1-1-.17,1.47,1.47,0,0,1-.38-.12.67.67,0,0,1-.29-.33,6.51,6.51,0,0,1-.13-1.21q0-.88,0-2.22,0-2.51.08-6.28.17-7.07.38-10a.28.28,0,0,1-.08-.21.27.27,0,0,1,.17-.25.3.3,0,0,1,.29-.17.16.16,0,0,1,.17.13q.71,0,3.1,0a.26.26,0,0,1,.29.29v0a.28.28,0,0,1,.13.25c0,.06,0,.2,0,.42v.63a2.56,2.56,0,0,0,0,.5v0A1.84,1.84,0,0,0,234.18,84.61Zm-1.55,18.28a2,2,0,0,0,0-.46,9.83,9.83,0,0,0,.08-1.51q0-.75,0-2.47t0-2.22q0-3.18.13-5a6.15,6.15,0,0,1,.92-3.35,1.76,1.76,0,0,1,3.18.13,15.07,15.07,0,0,1,.79,1.55,3.75,3.75,0,0,0,.25.59,1,1,0,0,0,.13.25c.05.06.21,0,.46-.08a1.44,1.44,0,0,0,.38-.17,1.55,1.55,0,0,1,.33-.17l.33-.12.42-.17a3.6,3.6,0,0,0,.38-.21l.13,0v-.33a4.72,4.72,0,0,0-1.76-3.43,3.87,3.87,0,0,0-3.68-.92.42.42,0,0,0-.17.08l-.42.25a4.1,4.1,0,0,1-.42.25l-.21.08a.35.35,0,0,1-.29,0,.68.68,0,0,1-.33-.5,4.17,4.17,0,0,1,0-.67v-.59c0-.25,0-.39,0-.42q-2.13,0-2.89,0-.21,2.93-.38,10-.08,3.81-.08,6.23,0,1.38,0,2.22a10.43,10.43,0,0,0,.08,1,0,0,0,0,1,0,0l.25.08a5.56,5.56,0,0,0,.88.13c.33,0,.64,0,.92,0a3,3,0,0,0,.5-.08Z"/><path class="cls-4" d="M11,54.38a1.8,1.8,0,0,0-1.45,0A.8.8,0,1,0,11,54.38Z"/><path class="cls-4" d="M17.64,64.51c-.39,1.3,1.17,1.41,1.74.87C19.55,64.34,18.52,64.5,17.64,64.51Z"/><path class="cls-4" d="M.57,65.67c-.15,1.33,1,1.17,1.74.87C2.33,65.64,1.43,65.68.57,65.67Z"/><path class="cls-4" d="M10.7,73.48c-.82-.24-.75.41-1.45.29-.36,1.64,1.64,1.27,1.74.29C10.76,74,10.65,73.82,10.7,73.48Z"/><path class="cls-4" d="M13.86,64.14a5.19,5.19,0,0,1-.77.2l-.38-.25c-.91-.59-1.77-1.16-1.81-2.2l.08,0c-.55-1.38.46-2.85,0-4.05-.37,0-.4-.37-.87-.29-.52,1.12-.47,2.82-.87,4.05l0,.05a.4.4,0,0,0-.26.24,5.38,5.38,0,0,1-1.56,2A10.47,10.47,0,0,0,6.32,65.1a2.86,2.86,0,0,0-1.7.86c.71.23,1.12.76,2,.86a3.15,3.15,0,0,1,1.8,2v0a1.55,1.55,0,0,0,.27.6c0,.92-.29,2.21.87,2,.59-.28.62-1.11.58-2l-.1-.08,0,0a32.8,32.8,0,0,1,3.17-3.92,6,6,0,0,0,1-.24ZM9.53,68.57h-.3A4,4,0,0,0,6.9,66l0,0v-.32A9.26,9.26,0,0,1,8,64.51a6.67,6.67,0,0,0,1.64-2c.17,0,.26-.17.4-.24a4.05,4.05,0,0,0,2.18,2.6l.22.15A33.93,33.93,0,0,0,9.53,68.57Z"/><path class="cls-4" d="M247.48,53A1.8,1.8,0,0,0,246,53,.8.8,0,1,0,247.48,53Z"/><path class="cls-4" d="M254.14,63.18c-.39,1.3,1.17,1.41,1.74.87C256,63,255,63.16,254.14,63.18Z"/><path class="cls-4" d="M237.07,64.33c-.15,1.33,1,1.17,1.74.87C238.83,64.31,237.93,64.34,237.07,64.33Z"/><path class="cls-4" d="M247.19,72.15c-.82-.24-.75.41-1.45.29-.36,1.64,1.64,1.27,1.74.29C247.26,72.66,247.15,72.48,247.19,72.15Z"/><path class="cls-4" d="M250.36,62.8a5.19,5.19,0,0,1-.77.2l-.38-.25c-.91-.59-1.77-1.16-1.81-2.2l.08,0c-.55-1.38.46-2.85,0-4.05-.37,0-.4-.37-.87-.29-.52,1.12-.47,2.82-.87,4.05l0,.05a.4.4,0,0,0-.26.24,5.38,5.38,0,0,1-1.56,2,10.47,10.47,0,0,0-1.12,1.19,2.86,2.86,0,0,0-1.7.86c.71.23,1.12.76,2,.86a3.15,3.15,0,0,1,1.8,2v0a1.55,1.55,0,0,0,.27.6c0,.92-.29,2.21.87,2,.59-.28.62-1.11.58-2l-.1-.08,0,0a32.8,32.8,0,0,1,3.17-3.92,6,6,0,0,0,1-.24ZM246,67.23h-.3a4,4,0,0,0-2.33-2.58l0,0v-.32a9.26,9.26,0,0,1,1.07-1.14,6.67,6.67,0,0,0,1.64-2c.17,0,.26-.17.4-.24a4.05,4.05,0,0,0,2.18,2.6l.22.15A33.93,33.93,0,0,0,246,67.23Z"/><path class="cls-4" d="M100.88,24.62h-3V23.26h7.69v1.36h-3v9h-1.62Z"/><path class="cls-4" d="M107.08,32l1.13-.83a1.83,1.83,0,0,0,1.67,1.12c1,0,1.55-.56,1.55-2.07v-7h1.63v7.16c0,1.85-.9,3.33-3,3.33A3.16,3.16,0,0,1,107.08,32Z"/><path class="cls-4" d="M131.28,29.16a8,8,0,0,1-1.95,3.29A7.76,7.76,0,0,0,132,33.66a3.86,3.86,0,0,0-.77,1,7.77,7.77,0,0,1-2.79-1.44,9.65,9.65,0,0,1-2.59,1.4,4.1,4.1,0,0,0-.64-1v1H124V33.42c-1.65.18-3.31.36-4.58.49l-.1-1.13,1.27-.11v-4.5h-1.15V27.1h12.27v1.06h-6.47v5.41a8.05,8.05,0,0,0,2.35-1.18,8.57,8.57,0,0,1-1.41-2.28l.76-.21h-1.26v-1h4.61l.22,0Zm-1.16-2.72h-9V22.26h9Zm-8.35,1.72V29H124v-.79Zm0,2.54H124v-.83h-2.2Zm2.2,1.64v-.7h-2.2v.91Zm4.85-9.2h-6.5v.8h6.5Zm0,1.63h-6.5v.81h6.5Zm-1.57,5.14a6.16,6.16,0,0,0,1.18,1.76,6.6,6.6,0,0,0,1.27-1.76Z"/><path class="cls-4" d="M139.21,32.72c-.28-.34-.84-.9-1.36-1.39v3.32h-1.26V31.38a10.55,10.55,0,0,1-2.09,2.35,5.34,5.34,0,0,0-.84-.94,9.58,9.58,0,0,0,2.68-2.94H134V28.74h2.59V27.47H134V26.36h1.44a6.67,6.67,0,0,0-.49-1.81l1-.24h-1.72V23.24h2.45V21.91h1.26v1.33h2.45v1.08h-1.69l1,.22c-.27.66-.53,1.34-.77,1.82h1.64v1.11h-2.6v1.27h2.48v1.11h-2.48v.24c.5.35,1.79,1.4,2.11,1.67Zm-3.29-8.4a6.48,6.48,0,0,1,.56,1.83l-.81.21h3.08l-1-.21a13.5,13.5,0,0,0,.63-1.83Zm10.77,3.35h-1.47V34.6H144V27.66h-1.81v.13c0,2.07-.25,5-2.19,6.93a3.13,3.13,0,0,0-.92-.9c1.7-1.72,1.86-4.12,1.86-6.05V22.93l.87.25A18.51,18.51,0,0,0,145.5,22l1.05.94a21.35,21.35,0,0,1-4.4,1.28v2.27h4.54Z"/><path class="cls-4" d="M153,28.67c-.11.35-.22.7-.35,1h6.88a5.15,5.15,0,0,1-.07.58c-.32,2.37-.66,3.46-1.18,3.92a2,2,0,0,1-1.33.45c-.49,0-1.42,0-2.38,0a2.44,2.44,0,0,0-.46-1.25c1,.08,2,.1,2.38.1a1.2,1.2,0,0,0,.69-.13c.32-.25.59-1,.81-2.45h-5.76l-.32.85-1.42-.21c.34-.76.73-1.86,1.07-2.88H148.7V27.5h12.48v1.18Zm6.5-2.12h-8.94v-4.2h8.94Zm-1.34-3.05h-6.32v1.92h6.32Z"/><path class="cls-3" d="M108.57,64.43a.94.94,0,0,1-.71-1.55c2.49-2.91,4.1-6.44,5.67-10.11a.94.94,0,0,1,1.73.74c-1.63,3.81-3.31,7.48-6,10.59a.93.93,0,0,1-.71.33Z"/><path class="cls-3" d="M114.39,54.1a1,1,0,0,1-1-.85,11.52,11.52,0,0,1,.11-2.82c.06-.5.13-1,.14-1.5a1,1,0,1,1,1.92.06c0,.56-.09,1.12-.16,1.68a9.93,9.93,0,0,0-.11,2.37,1,1,0,0,1-.84,1.07Z"/><path class="cls-3" d="M126.4,54.75A102.27,102.27,0,0,1,114.29,54a.88.88,0,1,1,.21-1.75c11.44,1.35,21.55.84,34.91-1.76S182.17,39.23,180.5,26c-.45-3.53-3.49-8.85-9.29-12.76-13.33-9-31.08-10.45-43.64-10.08-11.75.35-33,6.77-40.76,17.46a14.22,14.22,0,0,0-2.37,12.93c3.15,10.58,14.62,15,23.68,16.91a.88.88,0,0,1-.36,1.72c-13.67-2.83-22.32-9.1-25-18.13a15.89,15.89,0,0,1,2.63-14.46C93.55,8.33,115.1,1.8,127.52,1.43c12.81-.38,31,1.12,44.67,10.38,6.68,4.51,9.59,10.36,10,14,1.7,13.48-15.65,23.14-32.5,26.42a120,120,0,0,1-23.34,2.52Z"/></g></svg>