<svg xmlns="http://www.w3.org/2000/svg" viewBox="0 0 179.56 99.25"><defs><style>.cls-1{fill:#0071b2;}.cls-2{fill:#333;}</style></defs><title>bar-アートボード 73</title><g id="コンテンツ-2" data-name="コンテンツ"><path class="cls-1" d="M172.84,56.77l0,0a1.63,1.63,0,0,1-.49-1.05l.05,0a1,1,0,0,0-.07-.69c.22-.78.48-.76.33-1.51l-.65-.14c-.07.27-.34.24-.36.6,0,.79-.61.74-.75,1.36-.36.35-.72.68-1.11,1v-.05c-.34.24-1.14-.24-1.05.67,0,.33.48.31.82.4h0a.31.31,0,0,0,0,.1,2.18,2.18,0,0,0,.49.63,1.59,1.59,0,0,1,.34.42,1.07,1.07,0,0,0,.08.64c0,.81-.91,1.16-.11,1.56.18-.4.87,0,.84-.72.36-.11.46-.63.67-1h0a.34.34,0,0,0,.18-.07,7.3,7.3,0,0,0,.9-.85l0,0c.5.2.56-.29,1.13,0C174.35,57.28,173.24,57.25,172.84,56.77Zm-1.12,1.59c-.2,0-.31.19-.6.07l0,0a1.84,1.84,0,0,0-.54-.79,2.06,2.06,0,0,1-.31-.37c0-.19-.12-.27-.12-.45l-.08,0a16.4,16.4,0,0,0,1.22-1.1v0l.43.09,0,0a2.25,2.25,0,0,0,.73,1.49l0,0,0,0-.07.33A6.43,6.43,0,0,1,171.72,58.36Z"/><path class="cls-1" d="M178,45.16a1.51,1.51,0,0,1-.54,0,3.16,3.16,0,0,0-.59,0,4.17,4.17,0,0,1-1.3-2.91l.08-.38c.06-.21.07-.44.14-.65.17-.51,1.09-1.55.16-1.77l-.43-.09c-.5.77-.78,1.86-1.43,2.4l0,0a5.78,5.78,0,0,1-1.39.92c-.25.14-.51.28-.76.43v0c-.79-.26-1.3-.11-1.48.58.54,0,.38.5,1,.45l.07-.06.27.5a3.67,3.67,0,0,1,.61,1.59l0,0a20,20,0,0,0-.28,3.33q.69.21.79-.51c.18-.39.58-.44.67-1l-.07-.08h0a8.89,8.89,0,0,1,1.87-1.17c.4-.21.81-.43,1.2-.68h.17a1.8,1.8,0,0,1,.5,0,2.28,2.28,0,0,0,.87,0,.45.45,0,0,0-.19-.88Zm-2.84.92a10.76,10.76,0,0,0-1.77,1.07c-.37-.2.18-1-.24-1.17l0,0a4.3,4.3,0,0,0-.68-1.83l-.18-.33.07-.34c.22-.14.44-.26.68-.39a6.8,6.8,0,0,0,1.41-.93h0l.37.08a4.83,4.83,0,0,0,1.41,3.22C175.89,45.7,175.54,45.89,175.17,46.09Z"/><path class="cls-1" d="M166.08,52.09a4.49,4.49,0,0,1-.74-.26,10.13,10.13,0,0,0-.65-1,3.7,3.7,0,0,1-.95-2.36l.06,0c-.14-.84.42-2.12.18-2.9l-.86-.19-.59,2.71a7.2,7.2,0,0,0-.62.81c-.43.63-.83,1.23-1.53,1.37l-.09,0-.06.07-.2.24a2.5,2.5,0,0,1-.44-.23.4.4,0,1,0-.45.66,3.32,3.32,0,0,0,.67.34c.13.33.29.66.45,1a8.15,8.15,0,0,1,.52,1.15v0c0,.67-.4,1.65-.14,2.18,1.08.13,1.24-1.17,1.88-1.73a.33.33,0,0,0,.08-.06,3.29,3.29,0,0,1,1.57-.93,7.69,7.69,0,0,0,1-.42,5.85,5.85,0,0,0,.75.25h0a.36.36,0,0,0,.17-.7Zm-2.15.21a3.85,3.85,0,0,0-1.88,1.16l0,0h0a1,1,0,0,1-.6-.36l0,0a9.44,9.44,0,0,0-.52-1.15,9.82,9.82,0,0,1-.44-.95.34.34,0,0,0,0-.08l.15-.18a3.23,3.23,0,0,0,1.8-1.58,6.94,6.94,0,0,1,.54-.72l.17,0a4.43,4.43,0,0,0,1.07,2.62c.2.28.37.55.53.83A8.15,8.15,0,0,1,163.93,52.3Z"/><path class="cls-1" d="M5.27,58.17c.57-.31.63.18,1.13,0l0,0a7.3,7.3,0,0,0,.9.85A.34.34,0,0,0,7.5,59h0c.2.36.31.87.67,1,0,.73.66.33.84.72.79-.4-.13-.75-.11-1.56A1.07,1.07,0,0,0,9,58.55a1.59,1.59,0,0,1,.34-.42,2.18,2.18,0,0,0,.49-.63.31.31,0,0,0,0-.1h0c.34-.09.85-.08.82-.4.09-.91-.71-.43-1.05-.67v.05c-.39-.32-.75-.65-1.11-1-.14-.62-.72-.56-.75-1.36,0-.36-.29-.33-.36-.6l-.65.14c-.15.75.11.73.33,1.51a1,1,0,0,0-.07.69l.05,0a1.63,1.63,0,0,1-.49,1.05l0,0C6.15,57.25,5,57.28,5.27,58.17ZM7,57.69l-.07-.33,0,0,0,0a2.25,2.25,0,0,0,.73-1.49l0,0,.43-.09v0a16.4,16.4,0,0,0,1.22,1.1l-.08,0c0,.17-.15.26-.12.45a2.06,2.06,0,0,1-.31.37,1.84,1.84,0,0,0-.54.79l0,0c-.29.12-.4,0-.6-.07A6.43,6.43,0,0,1,7,57.69Z"/><path class="cls-1" d="M.84,45.51a.45.45,0,0,0,.35.53,2.28,2.28,0,0,0,.87,0,1.8,1.8,0,0,1,.5,0h.17c.39.25.8.47,1.2.68A8.89,8.89,0,0,1,5.8,47.82h0l-.07.08c.08.54.48.59.67,1s.33.65.79.51a20,20,0,0,0-.28-3.33l0,0a3.67,3.67,0,0,1,.61-1.59l.27-.5.07.06c.65,0,.49-.43,1-.45-.18-.68-.7-.84-1.48-.58v0c-.25-.16-.51-.3-.76-.43a5.78,5.78,0,0,1-1.39-.92l0,0c-.64-.54-.93-1.63-1.43-2.4l-.43.09c-.92.23,0,1.26.16,1.77.07.21.08.44.14.65l.08.38a4.17,4.17,0,0,1-1.3,2.91,3.16,3.16,0,0,0-.59,0,1.51,1.51,0,0,1-.54,0A.45.45,0,0,0,.84,45.51Zm2.32,0a4.83,4.83,0,0,0,1.41-3.22l.37-.08h0a6.8,6.8,0,0,0,1.41.93c.24.13.46.26.68.39l.07.34-.18.33A4.3,4.3,0,0,0,6.25,46l0,0c-.42.17.14,1-.24,1.17a10.76,10.76,0,0,0-1.77-1.07C3.84,45.89,3.5,45.7,3.16,45.5Z"/><path class="cls-1" d="M13,52.53a.36.36,0,0,0,.43.26h0a5.85,5.85,0,0,0,.75-.25,7.69,7.69,0,0,0,1,.42,3.29,3.29,0,0,1,1.57.93.33.33,0,0,0,.08.06c.64.56.8,1.86,1.88,1.73.26-.53-.18-1.51-.14-2.18v0a8.15,8.15,0,0,1,.52-1.15c.16-.31.31-.63.45-1a3.32,3.32,0,0,0,.67-.34.4.4,0,1,0-.45-.66,2.5,2.5,0,0,1-.44.23l-.2-.24-.06-.07-.09,0c-.7-.13-1.1-.73-1.53-1.37a7.2,7.2,0,0,0-.62-.81l-.59-2.71-.86.19c-.23.78.32,2.06.18,2.9l.06,0a3.7,3.7,0,0,1-.95,2.36,10.13,10.13,0,0,0-.65,1,4.49,4.49,0,0,1-.74.26A.36.36,0,0,0,13,52.53ZM14.69,52c.16-.27.33-.55.53-.83a4.43,4.43,0,0,0,1.07-2.62l.17,0a6.94,6.94,0,0,1,.54.72,3.23,3.23,0,0,0,1.8,1.58l.15.18a.34.34,0,0,0,0,.08,9.82,9.82,0,0,1-.44.95A9.44,9.44,0,0,0,18,53.17l0,0a1,1,0,0,1-.6.36h0l0,0a3.85,3.85,0,0,0-1.88-1.16A8.15,8.15,0,0,1,14.69,52Z"/><path class="cls-1" d="M17,96.13q0-1,.06-2.24t.08-1.74q0-2.68,0-8t0-8-.34-3.64q-.17-1.38-.21-2.13v-.79a.57.57,0,0,1,0-.25.9.9,0,0,1,.13-.29,1.36,1.36,0,0,1,.88-.29l.44,0,.31,0,.42,0h.63a3.68,3.68,0,0,1,.59,0,1,1,0,0,1,.54.38,4.71,4.71,0,0,1,.42,1.34,11.63,11.63,0,0,0,.25,1.25q.17.5,1,3.35t1.46,4.27.29.71l.13.25.08-.12q.21-.5.5-1.38.5-1.42,1.3-4.06l1.17-4.14.42-1.38a1.61,1.61,0,0,1,.17-.42.17.17,0,0,1,0-.12.45.45,0,0,1,.08-.17,1.16,1.16,0,0,1,.59-.25,4.31,4.31,0,0,1,.67,0l.65,0,.48,0h.25l.42,0a3.57,3.57,0,0,1,.46,0h.29l.13.08a.48.48,0,0,1,.08.13.32.32,0,0,0,0,.13v.17a3.1,3.1,0,0,1,0,.58v1.67q0,1-.08,2.76-.08,2.34-.5,8.62-.38,5.65-.38,8.58,0,.54,0,1.69t0,2a12.36,12.36,0,0,0,.15,1.63l0,.21.13.42a4.59,4.59,0,0,0,.08.46v.29a.24.24,0,0,1-.08.17.85.85,0,0,1-.71.21l-.21,0-.17,0h-.13l-.33,0a2.58,2.58,0,0,1-.42,0,2.59,2.59,0,0,1-.42,0,.79.79,0,0,1-.42-.08.7.7,0,0,1-.29-.33,1.55,1.55,0,0,1-.13-.46A10.14,10.14,0,0,1,28,95.76q-.13-1.51-.12-4.1,0-1.76,0-2.93t0-2.47q0-1.3,0-1.42V81.66l-.25.59-.71,1.38a12.58,12.58,0,0,1-.79,1.3,2.28,2.28,0,0,1-.42.46.79.79,0,0,1-.5.21,3.48,3.48,0,0,1-3-1,7.7,7.7,0,0,1-.71-1.21q-.5-1.09-.75-1.51a.33.33,0,0,0,0-.12,17.27,17.27,0,0,0,.13,1.84q.17,1.72.17,2.3,0,.25.08,2.41t.17,3.62q0,2.22.08,3.51,0,.79,0,1.25v.38a1.41,1.41,0,0,1-.08.29,1,1,0,0,1-.67.54,4,4,0,0,1-1,.17c-.25,0-.58,0-1,.06l-.69,0a.48.48,0,0,1-.21,0,.12.12,0,0,0-.08,0,.27.27,0,0,1-.38-.21A7.63,7.63,0,0,1,17,96.13Z"/><path class="cls-1" d="M31.1,68.81l-.42,0h-.29l-.48,0-.65,0a3.14,3.14,0,0,0-.59,0,.59.59,0,0,0-.25.08v0q0,.17-.13.42l-.42,1.38-1.21,4.14q-.84,2.89-1.3,4.1a10.43,10.43,0,0,1-.54,1.42l-.21.42a.64.64,0,0,1-.33.29.46.46,0,0,1-.21,0,.12.12,0,0,1-.08,0s0,0,0-.06,0,0,0-.06a.48.48,0,0,1-.08-.17l-.21-.46q-.29-.59-.38-.71-.54-1.46-1.46-4.35l-1-3.35a11.66,11.66,0,0,1-.25-1.3,3.19,3.19,0,0,0-.34-1.13.27.27,0,0,0-.17-.13,2.31,2.31,0,0,0-.46,0h-.59l-.46,0h-.33a2.59,2.59,0,0,0-.42,0,2.68,2.68,0,0,0-.42.08.46.46,0,0,0,0,.21v.71q0,.75.21,2.09.34,3.56.34,3.72,0,2.68,0,8t0,8q0,.59-.08,1.74t-.08,2a5.74,5.74,0,0,0,.21,1.61h.79q.59,0,.92,0a4.82,4.82,0,0,0,.84-.19.76.76,0,0,0,.38-.23v-.46q0-.42,0-1.17,0-1.3-.08-3.51-.08-1.51-.17-3.66t-.08-2.41q0-.54-.17-2.22a14.91,14.91,0,0,1-.12-2.3v-.12a.68.68,0,0,1,0-.21.45.45,0,0,1,.33-.5.35.35,0,0,1,.29,0,.12.12,0,0,0,0,.08.45.45,0,0,1,.08.13l.21.33.13.29.08.13q.25.46.79,1.59a7.81,7.81,0,0,0,.63,1.09,2.89,2.89,0,0,0,2.51.79s.07,0,.13-.08l.33-.33a11.85,11.85,0,0,0,.71-1.21q.25-.42.71-1.42.42-.75.54-1l0-.08,0-.17a1.93,1.93,0,0,0,.13-.21.45.45,0,0,1,.42-.12l.17.17a.12.12,0,0,1,0,.08v.5a8.11,8.11,0,0,1,0,1.17v2.55q0,.13,0,1.42t0,2.47q0,1.17,0,2.93,0,2.59.13,4.06a8.59,8.59,0,0,0,.21,1.34,2.82,2.82,0,0,0,.08.38l0,0H29l.38,0,.4,0,.31,0,.63,0h.17a1.33,1.33,0,0,0-.08-.38c0-.11-.06-.25-.08-.42a1.76,1.76,0,0,1-.08-.29,12.67,12.67,0,0,1-.15-1.69q0-.9,0-2t0-1.65q0-3,.38-8.62.42-6.28.5-8.58,0-1.76.08-2.76V69.31a2.84,2.84,0,0,0,0-.54Z"/><path class="cls-1" d="M35.24,97.76a.27.27,0,0,1,.17-.25,17.93,17.93,0,0,1,.29-2q.21-1,.54-2.24t.46-1.88q.17-.8.33-2.26t.33-2.26q.38-2,1.3-5.65,1-4.1,1.3-5.57,0-.17.25-1.4t.38-2.07q.25-1.21.46-2a6.75,6.75,0,0,1,.25-.71,1.37,1.37,0,0,1,.25-.46,1.48,1.48,0,0,1,.67-.29h.33l.25,0c.33-.06.67-.1,1-.12h.59a.89.89,0,0,1,.54.21l.08.13v0a1.42,1.42,0,0,1,.08.21c.06.17.13.39.21.67L46,72.24l2,7.16q2.76,9.92,3.22,11.71a46.84,46.84,0,0,0,2,6.07.48.48,0,0,1,.08.13.43.43,0,0,1,.08.5.25.25,0,0,1-.17.17l-.17.08-.42.08a6.17,6.17,0,0,1-1.09.08,7.5,7.5,0,0,1-1.13,0,1.73,1.73,0,0,1-.42,0,1.39,1.39,0,0,1-.33-.08,1,1,0,0,1-.29-.42,3.37,3.37,0,0,1-.25-.54c0-.11-.08-.29-.17-.54a1.38,1.38,0,0,1-.08-.33,76.11,76.11,0,0,1-2.68-7.57q0-.08-.13-1a1.49,1.49,0,0,0-.21-.71.62.62,0,0,0-.25-.08,7.88,7.88,0,0,0-1.88,0l-2,.13a4,4,0,0,1-.5-.08H41.1a1.13,1.13,0,0,0-.25.46q-.17.46-.38,1.17-.25,1-.75,3.43-.54,2.64-.79,3.51a7.57,7.57,0,0,1-.75,2.22,1.26,1.26,0,0,1-.63.38,5.61,5.61,0,0,1-.75,0c-.2,0-.45,0-.75,0l-.25,0a.38.38,0,0,1-.17,0l-.13,0A.27.27,0,0,1,35.24,97.76Z"/><path class="cls-1" d="M44.36,69.19h-.54q-.46,0-.92.13l-.31,0-.27,0a.63.63,0,0,0-.33.13,1,1,0,0,0-.13.25,2.79,2.79,0,0,0-.21.67q-.21.71-.46,1.92-.17.84-.38,2.07c-.14.82-.22,1.28-.25,1.36q-.37,1.84-1.3,5.65Q38.34,85,38,87q-.13.71-.33,2.26t-.34,2.26q-.17.75-.48,1.95t-.52,2.17a16.61,16.61,0,0,0-.29,1.9h.13c.28,0,.5,0,.67,0a4,4,0,0,0,.63,0c.14,0,.22-.07.25-.13a6.94,6.94,0,0,0,.71-2l.75-3.51q.5-2.38.79-3.43.21-.8.38-1.26a1.65,1.65,0,0,1,.46-.73.73.73,0,0,1,.63-.1l.38.08,2-.12a8.94,8.94,0,0,1,2,0,1,1,0,0,1,.59.25,2.22,2.22,0,0,1,.38,1,4.45,4.45,0,0,0,.13.88A68.43,68.43,0,0,0,49.43,96a1.59,1.59,0,0,1,.17.42c.08.25.14.43.17.54a2.66,2.66,0,0,0,.17.46,1.23,1.23,0,0,0,.13.17h.08a1.58,1.58,0,0,0,.38,0,6.41,6.41,0,0,0,1,0,5.49,5.49,0,0,0,1-.08.48.48,0,0,0,.21,0,.63.63,0,0,1-.13-.17,57.32,57.32,0,0,1-2-6.07q-.54-2.13-3.22-11.71l-2-7.2L44.78,70c-.08-.28-.15-.5-.21-.67a.32.32,0,0,1,0-.12A.38.38,0,0,1,44.36,69.19Z"/><path class="cls-1" d="M43.23,78a18.8,18.8,0,0,1,.84,1.76,9.53,9.53,0,0,0,.84,1.59.5.5,0,0,0,.08.13l.15.13.19.17a.9.9,0,0,1,.29.79.46.46,0,0,1-.54.25.17.17,0,0,1-.13,0h0l-.63.08c-.42.08-.75.14-1,.17a4.07,4.07,0,0,1-1,0,1,1,0,0,1-.75-.54.82.82,0,0,1,0-.38c0-.14.06-.31.08-.5l.34-1.38q.12-.38.27-.92c.1-.36.17-.66.23-.9s.1-.4.13-.48.17-.28.33-.25a.27.27,0,0,1,.25.29Z"/><path class="cls-1" d="M44.4,81.66a18.37,18.37,0,0,1-.88-1.71l-.59-1.3-.46,1.67-.34,1.34a4.51,4.51,0,0,1-.08.46v.13c0,.06.1.1.29.13a2.48,2.48,0,0,0,.84,0c.25,0,.59-.08,1-.17l.71-.08Z"/><path class="cls-1" d="M69.34,74.33a6.2,6.2,0,0,1,.21,1.8,5.21,5.21,0,0,1-.08,1,1.43,1.43,0,0,1-.46.79,1.9,1.9,0,0,1-.75.21l-1,.08a7.18,7.18,0,0,1-1.09,0,1.74,1.74,0,0,1-.42,0,.48.48,0,0,1-.33-.17A2,2,0,0,1,65,77l-.17-1.3a2.16,2.16,0,0,0-.42-1,1,1,0,0,0-.92-.33q-.84,0-1.51,1.34a11.68,11.68,0,0,0-.63,2A16.73,16.73,0,0,0,61,80.67a39.21,39.21,0,0,0,.06,4.58,16.77,16.77,0,0,0,.79,4.23q.63,1.76,1.59,1.92a1.53,1.53,0,0,0,1.17-.21,3.09,3.09,0,0,0,.71-.88l.29-.59a5.51,5.51,0,0,0,.29-.59,2.11,2.11,0,0,1,.92-.88h.21l.13,0a1.38,1.38,0,0,1,.42.08l.67.13a2.38,2.38,0,0,1,.46,0,1.79,1.79,0,0,1,.42,0,.37.37,0,0,0,.17,0,1.3,1.3,0,0,1,.21.17,1.25,1.25,0,0,1,.08.25v.21q0,.21-.08.54a2.76,2.76,0,0,1,0,.31c0,.13,0,.22,0,.29a.89.89,0,0,0,0,.15,8.87,8.87,0,0,1-1.8,5.77A4.92,4.92,0,0,1,62.06,98q-2.05-.59-3.39-3.6a24.2,24.2,0,0,1-1.59-6.53,49.7,49.7,0,0,1-.4-7,30.71,30.71,0,0,1,.44-5.17,10.3,10.3,0,0,1,2.68-5.06,5.25,5.25,0,0,1,3-1.61,4.65,4.65,0,0,1,3.05.48,6.4,6.4,0,0,1,2.28,1.92,6.29,6.29,0,0,1,1.19,2.8A.12.12,0,0,0,69.34,74.33Z"/><path class="cls-1" d="M67.75,71.95a5.62,5.62,0,0,0-2.18-1.88,4.12,4.12,0,0,0-2.7-.44,4.63,4.63,0,0,0-2.66,1.44,9.43,9.43,0,0,0-2.51,4.73,29.58,29.58,0,0,0-.44,5.08,52.39,52.39,0,0,0,.36,6.92,23.46,23.46,0,0,0,1.59,6.36q1.21,2.76,3,3.26a4.4,4.4,0,0,0,5-1.46,8.41,8.41,0,0,0,1.63-5.4s0-.31.13-.84a2,2,0,0,1,0-.46v-.08a1.07,1.07,0,0,0-.33,0,2.4,2.4,0,0,0-.46,0h0a5.87,5.87,0,0,1-.71-.17l-.38-.08H67a1.61,1.61,0,0,0-.54.59l-.29.54q-.21.42-.29.63A3.3,3.3,0,0,1,65,91.7,2,2,0,0,1,63.4,92q-1.3-.25-2-2.3a18.82,18.82,0,0,1-.84-4.35,41,41,0,0,1-.06-4.69,19.06,19.06,0,0,1,.36-3.22,9.53,9.53,0,0,1,.71-2q.8-1.63,2-1.67a1.57,1.57,0,0,1,1.38.59,2.37,2.37,0,0,1,.5,1.25,10.25,10.25,0,0,1,.21,1.34,1.53,1.53,0,0,0,.17.71h0a1.07,1.07,0,0,0,.33,0,5.9,5.9,0,0,0,1,0l1-.08a3,3,0,0,0,.5-.12.72.72,0,0,0,.21-.42,3.74,3.74,0,0,0,.08-.88,6.17,6.17,0,0,0-.13-1.21.28.28,0,0,1-.08-.21A5.53,5.53,0,0,0,67.75,71.95Z"/><path class="cls-1" d="M75.91,68.56q.8,0,1.3,0a1.74,1.74,0,0,1,.42,0,.46.46,0,0,1,.21,0,.52.52,0,0,1,.21.13,1.06,1.06,0,0,1,.13.42v.63q0,.67,0,1.88,0,.5-.33,5.44-.21,3.64-.25,5.44a13.2,13.2,0,0,0,0,1.92,1.66,1.66,0,0,0,.08.59l0,.21h.13l.54-.08.71,0,.88,0h.84a.8.8,0,0,0,.42-.12h0a.67.67,0,0,0,0-.17l0-.08v-.25a.37.37,0,0,1,0-.17,87.22,87.22,0,0,1,.08-10.21,18.06,18.06,0,0,0-.12-2.26,6.6,6.6,0,0,1,.13-2.38.63.63,0,0,1,.38-.38,2.75,2.75,0,0,1,.46-.17A11.85,11.85,0,0,1,83.27,69q.67,0,1.25,0a3.09,3.09,0,0,1,.88.21c.17.06.28.22.34.5a3.37,3.37,0,0,1,.13.71,15.21,15.21,0,0,1,0,2q0,1.38-.17,3.56,0,.54-.21,11.21-.08,4.35-.17,6.61-.08,1.46-.13,2.26,0,.46-.08.71a1.16,1.16,0,0,1-.13.46,1,1,0,0,1-.42.29l-.5.08a6.32,6.32,0,0,1-1.3,0,7.89,7.89,0,0,1-1.3-.17,1.64,1.64,0,0,1-.5-.13.57.57,0,0,1-.38-.25,1.13,1.13,0,0,1-.25-.71,6.38,6.38,0,0,1,0-1l.29-2.64q.21-1.76.25-2.51a3.17,3.17,0,0,0-.08-.84l-.08-.25a2.12,2.12,0,0,0-.63,0l-.84,0a4.71,4.71,0,0,1-.54,0,3.42,3.42,0,0,1-.59-.08,2.41,2.41,0,0,0-1,.08,1.47,1.47,0,0,0-.08.21,7.1,7.1,0,0,0-.17.88q-.08.84-.12,2.72,0,2.26-.08,2.76a7.06,7.06,0,0,1-.12,1,3.09,3.09,0,0,1-.08.33.53.53,0,0,1-.25.29.93.93,0,0,1-.63,0l-.38-.08H75a3.56,3.56,0,0,1-.5,0,2.56,2.56,0,0,1-.5,0,.88.88,0,0,1-.46-.29,1.47,1.47,0,0,1-.08-.21V96q0-.67.08-1.84,0-.46,0-1.21t.06-1.19c0-.29,0-.5,0-.61q0-10.79-.17-16.32,0-.58-.1-2t-.1-2q0-.61.08-2.07a.26.26,0,0,1,.33-.25.24.24,0,0,1,.17.08Q74.61,68.56,75.91,68.56Z"/><path class="cls-1" d="M77.16,69.19q-.46,0-1.25,0-1.26,0-2,0,0,1.26,0,1.86T74,73q.08,1.3.08,1.92.17,5.52.17,16.32c0,.11,0,.31,0,.61s0,.7-.06,1.21,0,.93,0,1.23Q74,95.42,74,96v.71a.17.17,0,0,0,.13,0,1.11,1.11,0,0,0,.33,0l.46,0h.33a3.66,3.66,0,0,1,.54.08l.17,0a1.17,1.17,0,0,0,.08-.25q0-.29.08-.92T76.24,93q0-1.92.13-2.76c.06-.42.11-.75.17-1a1.87,1.87,0,0,1,.17-.33.5.5,0,0,1,.29-.29,3.78,3.78,0,0,1,1.21-.08,3.38,3.38,0,0,0,.59.08l.5,0,.79,0a2,2,0,0,1,.92.08.84.84,0,0,1,.42.63,4.51,4.51,0,0,1,.08,1q0,.79-.25,2.59T81,95.5a4.91,4.91,0,0,0,0,.92,2.77,2.77,0,0,0,.08.46l.17,0a1,1,0,0,0,.38.13c.36.06.77.1,1.21.13a5.51,5.51,0,0,0,1.21,0,.93.93,0,0,0,.42-.08l.08,0a.68.68,0,0,0,0-.21c0-.17.06-.39.08-.67q0-.8.13-2.22.08-2.3.17-6.65.17-10.67.21-11.25.17-2,.17-3.47a13.82,13.82,0,0,0,0-2q0-.42-.08-.63a.43.43,0,0,0-.08-.17,2,2,0,0,0-.63-.12q-.59,0-1.21,0a8.33,8.33,0,0,0-1.09.13.92.92,0,0,0-.33.13h0A5.45,5.45,0,0,0,81.68,72a20.13,20.13,0,0,1,.13,2.38,85.63,85.63,0,0,0-.08,10.13.91.91,0,0,0,0,.19.88.88,0,0,1,0,.23.66.66,0,0,1-.17.67,1.32,1.32,0,0,1-.75.25,8.44,8.44,0,0,1-.92,0q-.34,0-.92,0l-.67,0h-.13l-.12,0a.37.37,0,0,1-.17,0,.66.66,0,0,1-.67-.17,1.44,1.44,0,0,1-.21-.5c0-.17-.05-.39-.08-.67a14,14,0,0,1,0-2q0-1.84.25-5.48.29-4.94.33-5.44,0-1.21,0-1.84v-.54l0-.12Z"/><path class="cls-1" d="M90,70.23Q90,69,91.43,68.6a2.44,2.44,0,0,1,1,0,1.3,1.3,0,0,1,.84.29.64.64,0,0,1,.13.33,1.79,1.79,0,0,1,0,.42c0,.25,0,.6,0,1q0,.29,0,.75t0,.77c0,.21,0,.38,0,.52v2.43q0,.54,0,2.3l.13,4.48q0,2.72,0,4.85.08,4.44,0,6.95,0,1.51,0,2.34,0,.46-.08.75a1.15,1.15,0,0,1-.13.46.51.51,0,0,1-.21.13.17.17,0,0,1-.12,0,1.08,1.08,0,0,1-.33,0H91.8L91,97.39l-.34-.08a.59.59,0,0,1-.29-.13.54.54,0,0,1-.12-.25v-.17a3.21,3.21,0,0,1,0-.59q0-.59,0-1.59V93.45q0-.63,0-1c0-.28,0-.46,0-.54V85q0-.8-.25-3.39a27.78,27.78,0,0,1-.17-3.43q0-.92.17-2.57T90.17,73q0-.88,0-2.51A.3.3,0,0,1,90,70.23Z"/><path class="cls-1" d="M90.78,72.68q0,.9-.17,2.76t-.19,2.7a27,27,0,0,0,.17,3.39q.21,2.59.25,3.43v6.9c0,.08,0,.26,0,.54s0,.63,0,1,0,.79,0,1.13v1.59a2.26,2.26,0,0,0,0,.5v.08a.59.59,0,0,0,.25,0l.79.08h.79a.46.46,0,0,0,.21,0v-.12c0-.17.06-.4.08-.71q0-.84,0-2.3,0-2.51,0-6.95,0-2.09,0-4.81l-.12-4.52q0-1.76,0-2.3V72.7c0-.14,0-.31,0-.52s0-.47,0-.79,0-.58,0-.77c0-.45,0-.78,0-1v-.33h0a.58.58,0,0,0-.42-.12,2.8,2.8,0,0,0-.84,0,1.24,1.24,0,0,0-.88.58.17.17,0,0,1,0,.13Q90.8,71.78,90.78,72.68Z"/><path class="cls-1" d="M97.91,94.08q.08-3.43.08-3.93t-.25-5.82q-.25-5.23-.25-7.95,0-.63,0-1.78t0-1.49a26.91,26.91,0,0,0-.08-3.18v0a.31.31,0,0,1,0-.13.53.53,0,0,1,.08-.5.45.45,0,0,1,.17-.08l.17-.08a3.39,3.39,0,0,0,.46,0L99.46,69c.47,0,.88,0,1.21,0l.46.08a.46.46,0,0,1,.38.21,3.63,3.63,0,0,1,.54,1q.29.67.71,1.8.71,1.84,1.8,5,2.05,6,2.8,8.58T108.83,90v-.42q0-2.47,0-3.1,0-3.85-.59-16.74a1.67,1.67,0,0,0,0-.19.75.75,0,0,0-.06-.23.87.87,0,0,1,.17-.67l.17-.08h0a.37.37,0,0,0,.17,0h.42q.5,0,1.25,0h1.3a1.46,1.46,0,0,1,.42,0h.21a.17.17,0,0,1,.13,0,.65.65,0,0,1,.13.17v.13a.46.46,0,0,1,0,.21q0,.25,0,.75,0,.84.08,2.22,0,.63.06,1.55t0,1.42q0,.5,0,.67.08,1.09.25,11.55l.08,7.11q0,1.38,0,2.3v.92a.12.12,0,0,1,0,.08.65.65,0,0,1-.38.33,4.33,4.33,0,0,1-.54.17,11.25,11.25,0,0,1-1.46.08,8.06,8.06,0,0,1-1.55-.21,1.85,1.85,0,0,1-1.09-.63q-.38-.54-3.6-7.2l-2-4.14-.46-1a.68.68,0,0,0,0,.21v.17l0,0v0a31.21,31.21,0,0,1,.29,3.81q0,.38.13,1.84.13,2.09.17,2.85a23.09,23.09,0,0,1,.08,2.59,6.68,6.68,0,0,1,0,.88,2.71,2.71,0,0,1-.08.33.5.5,0,0,1-.29.29,6.43,6.43,0,0,1-1.84.21c-.2,0-.5,0-.9-.06l-.9,0a.37.37,0,0,1-.17,0,.17.17,0,0,1-.12,0c-.17,0-.28-.06-.34-.25A18.14,18.14,0,0,1,97.91,94.08Z"/><path class="cls-1" d="M98,69.86a29.68,29.68,0,0,1,.08,3.31c0,.2,0,.68,0,1.44s0,1.36,0,1.78q0,2.72.25,7.95t.25,5.82q0,.5-.08,3.93a16.94,16.94,0,0,0,.17,3.6h.08l.9,0c.4,0,.71,0,.9.06l.46,0,.46,0a.92.92,0,0,0,.38,0,1.21,1.21,0,0,0,.38-.19c-.06,0-.08,0-.08,0a.7.7,0,0,1,0-.17,5.81,5.81,0,0,0,0-.79,23.14,23.14,0,0,0-.08-2.59l-.17-2.8q-.13-1.51-.12-1.88a30.05,30.05,0,0,0-.29-3.72v0l0-.21a2,2,0,0,1-.08-.54,1.28,1.28,0,0,1,0-.54.41.41,0,0,1,.08-.29.33.33,0,0,1,.38-.21.24.24,0,0,1,.17.08.12.12,0,0,1,0,.08l.13.13a1.87,1.87,0,0,0,.21.38l.67,1.34,2,4.18q3.14,6.53,3.56,7.11a1.18,1.18,0,0,0,.75.38,6.24,6.24,0,0,0,1.38.21,9,9,0,0,0,1.34-.08,1.08,1.08,0,0,0,.42-.13l.08,0v-.75q0-.88,0-2.3l-.08-7.07q-.17-10.46-.25-11.59c0-.08,0-.29,0-.63s0-.82,0-1.44,0-1.14-.06-1.53q0-1.46-.08-2.22,0-.46,0-.71V69.1h-1.63q-.71,0-1.21,0h-.42v.13l0,.13v.17a.68.68,0,0,1,0,.21q.59,12.89.59,16.74,0,.63,0,3.1v2.13a.12.12,0,0,1,0,.08.53.53,0,0,1-.08.13.46.46,0,0,1-.23,0,.36.36,0,0,1-.19-.1.46.46,0,0,1-.08-.13l0-.21a10.32,10.32,0,0,0-.33-1,41.56,41.56,0,0,1-1.63-4.73Q106,83.16,104,77.22q-1-2.85-1.8-4.94-.46-1.17-.71-1.76a3.67,3.67,0,0,0-.42-.84.12.12,0,0,1-.08,0l-.38,0c-.31,0-.68,0-1.13,0l-1.17.08a1.08,1.08,0,0,0-.33,0A.71.71,0,0,1,98,69.86Z"/><path class="cls-1" d="M121.17,93.66h1l2.76-.21,2.89-.17q.71,0,1.13,0a2.27,2.27,0,0,1,.79.17.7.7,0,0,1,.29.33,2.24,2.24,0,0,1,.13.46,9.18,9.18,0,0,1,.1,1.19,6.16,6.16,0,0,1-.06,1.19,2.2,2.2,0,0,1-.12.46.71.71,0,0,1-.29.33,1.63,1.63,0,0,1-.75.17l-1.3.08q-1.34,0-3.6,0-1.46,0-3.64,0l-2.47,0a.27.27,0,0,1-.29-.25.17.17,0,0,1-.13,0,.26.26,0,0,1-.29-.29q0-.92.21-4.43.17-2.76.13-4.35,0-2.38-.17-6-.17-4.1-.25-7.26t-.08-6v-.17a.27.27,0,0,1,.25-.29.4.4,0,0,1,.21-.17,1.88,1.88,0,0,1,.59-.13,9.18,9.18,0,0,1,1,0q1,0,2.64,0,2.89,0,4.35.08l.27,0,.5,0,.56,0c.33,0,.6,0,.79,0a1.11,1.11,0,0,1,.67.21.28.28,0,0,1,.13.13v.08a.24.24,0,0,1,0,.17,2.61,2.61,0,0,0,0,.42,10.93,10.93,0,0,1,0,1.34,8.18,8.18,0,0,1-.08,1.3,4.83,4.83,0,0,1-.08.5.67.67,0,0,1-.33.42,5.5,5.5,0,0,1-1.76.13l-2.55-.17q-1.92-.13-2.38-.13a3.21,3.21,0,0,0-.84.08.91.91,0,0,0-.29,0v.08a4.18,4.18,0,0,1,0,.5q0,.54,0,1.55c0,.33,0,.7-.06,1.09s0,.73,0,1,0,.45,0,.48,0,.27,0,.56,0,.63-.06,1,0,.77,0,1.13q0,1,0,1.55a2.84,2.84,0,0,0,0,.54v.13a1.39,1.39,0,0,0,.63.08l1.34-.12a4.49,4.49,0,0,1,1.34,0,.9.9,0,0,1,.88.79,9.22,9.22,0,0,1,.08,1.3,3.71,3.71,0,0,1,0,.79,1.11,1.11,0,0,1,0,.33,1,1,0,0,1-.12.29.74.74,0,0,1-.42.17,2.56,2.56,0,0,1-.5,0,9.33,9.33,0,0,1-1.3-.13,5.06,5.06,0,0,1-.61-.06,5.07,5.07,0,0,0-.65-.06l-.38,0v.17a5.78,5.78,0,0,0,0,.59,4.36,4.36,0,0,1,.08.44c0,.18.06.33.08.46a1.54,1.54,0,0,1,0,.31v3.26l0,2v.67A.58.58,0,0,0,121.17,93.66Z"/><path class="cls-1" d="M128.24,68.77c-.2,0-.45,0-.75,0l-.52,0-.54,0-.31,0q-1.51-.08-4.35-.08-1.63,0-2.64,0a7.22,7.22,0,0,0-.9,0l-.4,0,0,.08v0l-.08.08q0,2.89.08,6t.25,7.2q.13,3.64.17,6,0,1.63-.13,4.39-.21,3.51-.21,4.35a.17.17,0,0,1,.13,0l2.51,0q2.18,0,3.6,0,2.26,0,3.6,0l1.21-.08a3.27,3.27,0,0,0,.54-.08,0,0,0,0,1,0,0,2.55,2.55,0,0,0,.08-.38,4.56,4.56,0,0,0,.06-1,7.72,7.72,0,0,0-.1-1.09,2.69,2.69,0,0,0-.08-.33.12.12,0,0,0,0-.08,1.75,1.75,0,0,0-.54-.13h-1l-2.89.17-2.8.21h-1a1.1,1.1,0,0,1-.67-.21l-.13-.13V93c0-.2,0-.52,0-1s0-.79,0-1V87.68a1.76,1.76,0,0,0,0-.23c0-.1,0-.23-.06-.4l-.13-.46c0-.31,0-.54,0-.71a1,1,0,0,1,.17-.63.34.34,0,0,1,.25-.08.24.24,0,0,1,.17,0,2.58,2.58,0,0,1,.42,0c.14,0,.36.06.67.08l.59,0a9.38,9.38,0,0,0,1.25.13,1.75,1.75,0,0,0,.42,0h.08v-.25a3,3,0,0,0,0-.71,8.51,8.51,0,0,0-.08-1.26q0-.25-.4-.31a4.91,4.91,0,0,0-1.19,0q-1.21.17-1.38.17-.84,0-1.09-.33a.3.3,0,0,1-.13-.21v-.21a2.84,2.84,0,0,1,0-.54q0-.63,0-1.63c0-.33,0-.7,0-1.11s0-.75.06-1,0-.47,0-.52,0-.23,0-.52,0-.63,0-1,0-.75.06-1.09q0-1,0-1.55a4.48,4.48,0,0,0,0-.54.38.38,0,0,0,0-.17v-.08a.5.5,0,0,1,.08-.12,1.53,1.53,0,0,1,.67-.25,3.74,3.74,0,0,1,.88-.08q.54,0,2.47.13l2.51.17a8.44,8.44,0,0,0,1.51-.08,0,0,0,0,1,0,0,1.46,1.46,0,0,0,0-.42,7.37,7.37,0,0,0,.08-1.25,9.6,9.6,0,0,0,0-1.25,2.6,2.6,0,0,1,0-.42A.58.58,0,0,0,128.24,68.77Z"/><path class="cls-1" d="M128.58,68.81h-.08A.05.05,0,0,0,128.58,68.81Z"/><path class="cls-1" d="M139.16,74.25a1.79,1.79,0,0,0-.63-.08,16.52,16.52,0,0,0-1.92,0q-1.46.08-2,.08a2.82,2.82,0,0,1-.75-.08,1,1,0,0,1-.59-.29.47.47,0,0,1,0-.21.25.25,0,0,1,0-.17,3.53,3.53,0,0,1,0-.42q0-.38.08-1.21a14.52,14.52,0,0,0,.17-2,.3.3,0,1,1,.59-.08v.08a.17.17,0,0,1,.13,0l1.48,0,3.05-.06,3.37-.08q3.05,0,4.77,0,1,0,1.59,0a2,2,0,0,1,.46,0,.25.25,0,0,1,.17,0,.53.53,0,0,1,.25.13,1.63,1.63,0,0,1,.13.5V72c.05.5.1.87.13,1.09a2.39,2.39,0,0,1,0,.63.82.82,0,0,1-.17.59,1,1,0,0,1-.59.21,7,7,0,0,1-.84,0l-2.13-.17a19.37,19.37,0,0,0-2.09,0,3.22,3.22,0,0,0-.67.13c-.14.06-.21.11-.21.17a2.75,2.75,0,0,0,0,1q.17,1.13.17,1.26.12,3.64.13,16.07v.92q0,.88,0,1.46a9.61,9.61,0,0,1-.08,1.42l-.12.5a.63.63,0,0,1-.38.42,2,2,0,0,1-.88,0,1.77,1.77,0,0,1-.42-.08l-.29,0h-.84a.64.64,0,0,1-.33-.17.27.27,0,0,1-.13-.17v-.08a.24.24,0,0,1,0-.17c0-.14,0-.35,0-.63V91.61q0-1.51-.17-9.25-.13-5.36-.13-5.61,0-1.21,0-1.84a2.84,2.84,0,0,0,0-.54v-.08A.24.24,0,0,0,139.16,74.25Z"/><path class="cls-1" d="M148.82,70.36a1.48,1.48,0,0,0-.42,0q-.54,0-1.55,0-1.72,0-4.77,0l-3.37.08-3.05.06-1.48,0a.17.17,0,0,1-.13,0q0,.34-.17,1.55-.08.84-.08,1.21a2.46,2.46,0,0,0,0,.38v0l.21.08a4.19,4.19,0,0,0,.67,0c.34,0,1,0,1.93-.08a17.9,17.9,0,0,1,2,0,2.81,2.81,0,0,1,.75.08.83.83,0,0,1,.54.38l0,.08v.21a2.84,2.84,0,0,1,0,.54q0,.67,0,1.84,0,.29.13,5.61.17,7.78.17,9.29v4.73a5.61,5.61,0,0,1,0,.59v0h.84a1.32,1.32,0,0,1,.33.08,2.71,2.71,0,0,1,.42.08l.54,0a.12.12,0,0,1,0-.08,2.64,2.64,0,0,0,.08-.38,8.53,8.53,0,0,0,.08-1.34q0-.59,0-1.46V93q0-12.43-.13-16.07,0-.08-.17-1.17a3,3,0,0,1,0-1.3.88.88,0,0,1,.59-.54,2.71,2.71,0,0,1,.84-.17,20.56,20.56,0,0,1,2.18,0L148,74h.75l.25-.08v-.17a2.09,2.09,0,0,0,0-.59c0-.2-.07-.54-.12-1V70.36Z"/><path class="cls-1" d="M152.76,97.76a.27.27,0,0,1,.17-.25,17.48,17.48,0,0,1,.29-2q.21-1,.54-2.24t.46-1.88q.17-.8.33-2.26t.33-2.26q.38-2,1.3-5.65,1-4.1,1.3-5.57,0-.17.25-1.4t.38-2.07q.25-1.21.46-2a6.55,6.55,0,0,1,.25-.71,1.37,1.37,0,0,1,.25-.46,1.48,1.48,0,0,1,.67-.29h.34l.25,0c.34-.06.67-.1,1-.12h.59a.89.89,0,0,1,.54.21l.08.13v0a1.67,1.67,0,0,1,.08.21c.06.17.13.39.21.67l.71,2.38,2,7.16q2.76,9.92,3.22,11.71a46.86,46.86,0,0,0,2,6.07.53.53,0,0,1,.08.13.43.43,0,0,1,.08.5.25.25,0,0,1-.17.17l-.17.08-.42.08a6.18,6.18,0,0,1-1.09.08,7.5,7.5,0,0,1-1.13,0,1.74,1.74,0,0,1-.42,0,1.39,1.39,0,0,1-.33-.08,1,1,0,0,1-.29-.42,3.37,3.37,0,0,1-.25-.54q0-.17-.17-.54a1.33,1.33,0,0,1-.08-.33,75.62,75.62,0,0,1-2.68-7.57q0-.08-.13-1a1.52,1.52,0,0,0-.21-.71.63.63,0,0,0-.25-.08,7.88,7.88,0,0,0-1.88,0l-2,.13a4,4,0,0,1-.5-.08h-.17a1.15,1.15,0,0,0-.25.46q-.17.46-.38,1.17-.25,1-.75,3.43-.54,2.64-.79,3.51a7.58,7.58,0,0,1-.75,2.22,1.27,1.27,0,0,1-.63.38,5.6,5.6,0,0,1-.75,0c-.2,0-.45,0-.75,0l-.25,0a.37.37,0,0,1-.17,0l-.13,0A.27.27,0,0,1,152.76,97.76Z"/><path class="cls-1" d="M161.88,69.19h-.54q-.46,0-.92.13l-.31,0-.27,0a.63.63,0,0,0-.33.13.93.93,0,0,0-.13.25,2.74,2.74,0,0,0-.21.67q-.21.71-.46,1.92-.17.84-.38,2.07t-.25,1.36q-.38,1.84-1.3,5.65-.92,3.64-1.3,5.56-.12.71-.33,2.26t-.33,2.26q-.17.75-.48,1.95t-.52,2.17a16.19,16.19,0,0,0-.29,1.9h.13c.28,0,.5,0,.67,0a4,4,0,0,0,.63,0c.14,0,.22-.07.25-.13a6.93,6.93,0,0,0,.71-2l.75-3.51q.5-2.38.79-3.43.21-.8.38-1.26a1.64,1.64,0,0,1,.46-.73.73.73,0,0,1,.63-.1l.38.08,2-.12a9,9,0,0,1,2,0,1,1,0,0,1,.59.25,2.23,2.23,0,0,1,.38,1,4.36,4.36,0,0,0,.13.88A68.41,68.41,0,0,0,166.94,96a1.58,1.58,0,0,1,.17.42q.13.38.17.54a2.83,2.83,0,0,0,.17.46l.13.17h.08a1.59,1.59,0,0,0,.38,0,6.43,6.43,0,0,0,1,0,5.48,5.48,0,0,0,1-.08.47.47,0,0,0,.21,0,.63.63,0,0,1-.12-.17,57.34,57.34,0,0,1-2-6.07q-.54-2.13-3.22-11.71l-2-7.2L162.3,70q-.13-.42-.21-.67a.33.33,0,0,1,0-.12A.38.38,0,0,1,161.88,69.19Z"/><path class="cls-1" d="M160.75,78a18.86,18.86,0,0,1,.84,1.76,9.53,9.53,0,0,0,.84,1.59.56.56,0,0,0,.08.13l.15.13.19.17a.9.9,0,0,1,.29.79.46.46,0,0,1-.54.25.17.17,0,0,1-.12,0h0l-.63.08c-.42.08-.75.14-1,.17a4.07,4.07,0,0,1-1,0,1,1,0,0,1-.75-.54.82.82,0,0,1,0-.38c0-.14.05-.31.08-.5l.33-1.38q.13-.38.27-.92t.23-.9q.08-.36.13-.48c.06-.2.17-.28.34-.25a.27.27,0,0,1,.25.29Z"/><path class="cls-1" d="M161.92,81.66a18.17,18.17,0,0,1-.88-1.71l-.59-1.3L160,80.32l-.33,1.34c0,.2-.06.35-.08.46v.13c0,.06.1.1.29.13a2.48,2.48,0,0,0,.84,0q.38,0,1-.17l.71-.08Z"/><path class="cls-2" d="M81.47,10.11A16.38,16.38,0,0,0,87.06,15,6.54,6.54,0,0,0,86.27,16a19.28,19.28,0,0,1-2.51-1.81v1.07H78.18v-1a18.45,18.45,0,0,1-2.47,1.81,4.81,4.81,0,0,0-.77-1,15.8,15.8,0,0,0,5.32-5Zm2.85,6.59.95.29c-.62,1.5-1.57,3.55-2.38,5.16l-1.29-.34c.64-1.21,1.37-2.73,1.88-3.9h-7V16.76H84.1Zm-.62-2.51a17,17,0,0,1-2.76-2.87,15.73,15.73,0,0,1-2.63,2.87Z"/><path class="cls-2" d="M98.21,20.47c0,.78-.21,1.16-.73,1.35a8.6,8.6,0,0,1-2.78.25,5.06,5.06,0,0,0-.52-1.27c1,.05,2.05,0,2.37,0s.39-.1.39-.38V18.17H91a7.18,7.18,0,0,1-2.22,4,4.59,4.59,0,0,0-.92-.88c2-1.74,2.22-4.29,2.22-6.33V10.82h8.1ZM96.94,17V15.07H91.35A16.91,16.91,0,0,1,91.23,17Zm-5.59-5v1.92h5.59V12Z"/><path class="cls-2" d="M106.72,20.29a7.39,7.39,0,0,0,1.14-.18A3.7,3.7,0,0,0,111,16.45a3.4,3.4,0,0,0-3.09-3.59,29.47,29.47,0,0,1-.77,3.61c-.78,2.63-1.85,4.1-3.13,4.1s-2.44-1.44-2.44-3.59a5.59,5.59,0,0,1,5.76-5.34,4.77,4.77,0,0,1,5.06,4.86c0,2.69-1.73,4.56-4.88,5Zm-.91-4.08a17.83,17.83,0,0,0,.7-3.32,4.32,4.32,0,0,0-3.67,4c0,1.48.66,2.16,1.18,2.16S105.21,18.19,105.81,16.2Z"/><path class="cls-2" d="M78.52,35a9.66,9.66,0,0,0-2.87-1.87c0,.26,0,.48,0,.66,0,1-.7,1.87-2.38,1.87-1.95,0-3-.71-3-2s1.16-2.08,3.08-2.08c.33,0,.64,0,.95.05,0-.48,0-1-.05-1.47h-.7c-.82,0-2.28-.07-3.17-.17V28.77a22,22,0,0,0,3.17.25h.66V27.39h-.64a26,26,0,0,1-2.92-.19V26a19.48,19.48,0,0,0,2.91.25h.66v-.73a8.17,8.17,0,0,0-.05-.82h1.38c0,.23-.06.52-.08.87,0,.14,0,.38,0,.64a31.19,31.19,0,0,0,3.21-.33v1.18c-.94.09-2,.21-3.24.26V29c1.27-.06,2.41-.18,3.51-.34v1.22c-1.2.14-2.26.22-3.5.27,0,.58.05,1.2.09,1.75a10.27,10.27,0,0,1,3.68,2Zm-4.17-2.26a6.68,6.68,0,0,0-1.16-.1c-1.09,0-1.68.42-1.68.95s.48.92,1.59.92c.73,0,1.26-.21,1.26-1C74.36,33.3,74.36,33,74.35,32.75Z"/><path class="cls-2" d="M91.21,27.25A45.93,45.93,0,0,1,86,27.8a24.67,24.67,0,0,1-.71,2.69,5.89,5.89,0,0,1,3.43-1c2.07,0,3.34,1.08,3.34,2.65,0,2.77-2.76,3.8-6.77,3.37L85,34.21c2.91.43,5.79,0,5.79-2,0-.87-.74-1.56-2.13-1.56a4.7,4.7,0,0,0-3.71,1.52,3.78,3.78,0,0,0-.38.58l-1.21-.43a20.77,20.77,0,0,0,1.48-4.47c-.85,0-1.65-.05-2.35-.12V26.43a16.13,16.13,0,0,0,2.53.22H85c.05-.27.09-.51.12-.7a6.08,6.08,0,0,0,.05-1.16l1.46.06A10.28,10.28,0,0,0,86.41,26l-.12.57a30.81,30.81,0,0,0,4.9-.6Z"/><path class="cls-2" d="M99.36,27.15c-.17.23-.4.6-.61.92l0,.42c1.07-.94,2.57-2,3.94-2,1.79,0,2.77,1.56,2.77,3.77a11.57,11.57,0,0,1-.16,2.11,9,9,0,0,1,1.39,1.23L106,34.66a13.81,13.81,0,0,0-1.05-1.07,2.51,2.51,0,0,1-2.52,1.65c-1.31,0-2.39-.57-2.39-2,0-1.08,1-1.87,2.38-1.87a4.65,4.65,0,0,1,1.69.31,12.86,12.86,0,0,0,.09-1.62c0-1.51-.71-2.47-1.74-2.47-1.18,0-2.72,1.2-3.82,2.38,0,.52,0,1,0,1.47,0,1.12,0,2,.05,3.21,0,.23.05.61.08.87h-1.4c0-.22,0-.64,0-.84,0-1.2,0-1.94.05-3.37-.6.88-1.35,2-1.9,2.74L94.68,33c.71-.88,2.12-2.74,2.81-3.78l.07-1.12-2.43.32L95,27.07a8,8,0,0,0,1,0c.4,0,1.07-.1,1.69-.2,0-.56.07-1,.07-1.12a5.69,5.69,0,0,0-.07-1l1.52.05c-.07.33-.17,1-.26,1.85Zm4.47,5.71a3.3,3.3,0,0,0-1.55-.4c-.61,0-1.16.33-1.16.79s.55.84,1.2.84A1.57,1.57,0,0,0,103.83,32.86Z"/><path class="cls-2" d="M114.85,27.52a25.51,25.51,0,0,1-2.59.43c-.12.56-.26,1.13-.4,1.68a38.56,38.56,0,0,1-2,5.93l-1.43-.48a28,28,0,0,0,2.18-5.77c.12-.39.22-.82.31-1.23l-1,0c-.6,0-1.07,0-1.53-.05l0-1.27a11.91,11.91,0,0,0,1.57.1c.4,0,.83,0,1.29-.05.06-.38.13-.72.16-.95a6.25,6.25,0,0,0,0-1.17l1.57.12c-.09.33-.19.85-.25,1.11l-.16.75a22.06,22.06,0,0,0,2.31-.44Zm-.4,4.38a4.82,4.82,0,0,0-.18,1.12c0,.58.31,1.1,2,1.1a14.38,14.38,0,0,0,2.57-.26l0,1.31a17.64,17.64,0,0,1-2.55.18c-2.09,0-3.17-.69-3.17-2a8.57,8.57,0,0,1,.19-1.61Zm-.51-3.17a22.53,22.53,0,0,1,2.41-.13,21.49,21.49,0,0,1,2.25.12l0,1.24a18.5,18.5,0,0,0-2.18-.16,21.16,21.16,0,0,0-2.43.13Z"/><path d="M14.29,95.13q0-1,.06-2.24t.08-1.74q0-2.68,0-8t0-8-.33-3.64Q14,70.11,14,69.36v-.79a.58.58,0,0,1,0-.25.93.93,0,0,1,.13-.29,1.36,1.36,0,0,1,.88-.29l.44,0,.31,0,.42,0h.63a3.66,3.66,0,0,1,.59,0,1,1,0,0,1,.54.38,4.73,4.73,0,0,1,.42,1.34,11.5,11.5,0,0,0,.25,1.25q.17.5,1,3.35t1.46,4.27.29.71l.13.25.08-.12q.21-.5.5-1.38.5-1.42,1.3-4.06l1.17-4.14L25,68.23a1.6,1.6,0,0,1,.17-.42.17.17,0,0,1,0-.12.46.46,0,0,1,.08-.17,1.15,1.15,0,0,1,.59-.25,4.32,4.32,0,0,1,.67,0l.65,0,.48,0H28l.42,0a3.57,3.57,0,0,1,.46,0h.29l.13.08a.5.5,0,0,1,.08.13.32.32,0,0,0,0,.13v.17a3.15,3.15,0,0,1,0,.58v1.67q0,1-.08,2.76-.08,2.34-.5,8.62-.38,5.65-.38,8.58,0,.54,0,1.69t0,2a12.53,12.53,0,0,0,.15,1.63l0,.21.13.42c0,.2.06.35.08.46v.29a.24.24,0,0,1-.08.17A.85.85,0,0,1,28,97l-.21,0-.17,0h-.13l-.33,0a2.59,2.59,0,0,1-.42,0,2.59,2.59,0,0,1-.42,0A.78.78,0,0,1,25.9,97a.7.7,0,0,1-.29-.33,1.54,1.54,0,0,1-.13-.46,9.93,9.93,0,0,1-.21-1.42q-.13-1.51-.13-4.1,0-1.76,0-2.93t0-2.47q0-1.3,0-1.42V80.66l-.25.59-.71,1.38a12.75,12.75,0,0,1-.79,1.3,2.29,2.29,0,0,1-.42.46.79.79,0,0,1-.5.21,3.48,3.48,0,0,1-3-1,7.73,7.73,0,0,1-.71-1.21q-.5-1.09-.75-1.51a.32.32,0,0,0,0-.12,17.42,17.42,0,0,0,.13,1.84q.17,1.72.17,2.3,0,.25.08,2.41t.17,3.62q0,2.22.08,3.51,0,.79,0,1.25v.38a1.32,1.32,0,0,1-.08.29,1,1,0,0,1-.67.54,4,4,0,0,1-1,.17c-.25,0-.58,0-1,.06l-.69,0a.48.48,0,0,1-.21,0,.12.12,0,0,0-.08,0,.27.27,0,0,1-.38-.21A7.68,7.68,0,0,1,14.29,95.13ZM28.41,67.81l-.42,0H27.7l-.48,0-.65,0a3.12,3.12,0,0,0-.59,0,.59.59,0,0,0-.25.08v0q0,.17-.13.42l-.42,1.38L24,73.92q-.84,2.89-1.3,4.1a10.37,10.37,0,0,1-.54,1.42l-.21.42a.64.64,0,0,1-.33.29.46.46,0,0,1-.21,0,.12.12,0,0,1-.08,0s0,0,0-.06,0,0,0-.06a.46.46,0,0,1-.08-.17l-.21-.46q-.29-.59-.38-.71-.54-1.46-1.46-4.35l-1-3.35a11.45,11.45,0,0,1-.25-1.3,3.21,3.21,0,0,0-.33-1.13.27.27,0,0,0-.17-.13,2.31,2.31,0,0,0-.46,0h-.59l-.46,0h-.33a2.58,2.58,0,0,0-.42,0,2.67,2.67,0,0,0-.42.08.46.46,0,0,0,0,.21v.71q0,.75.21,2.09.33,3.56.33,3.72,0,2.68,0,8t0,8q0,.59-.08,1.74t-.08,2a5.71,5.71,0,0,0,.21,1.61h.79q.59,0,.92,0a4.81,4.81,0,0,0,.84-.19.75.75,0,0,0,.38-.23v-.46q0-.42,0-1.17,0-1.3-.08-3.51-.08-1.51-.17-3.66t-.08-2.41q0-.54-.17-2.22a15,15,0,0,1-.13-2.3v-.12a.69.69,0,0,1,0-.21.45.45,0,0,1,.33-.5.35.35,0,0,1,.29,0,.12.12,0,0,0,0,.08.48.48,0,0,1,.08.13l.21.33.13.29.08.13q.25.46.79,1.59A7.72,7.72,0,0,0,20,83.21a2.89,2.89,0,0,0,2.51.79s.07,0,.13-.08l.33-.33a11.77,11.77,0,0,0,.71-1.21q.25-.42.71-1.42.42-.75.54-1l0-.08,0-.17a2,2,0,0,0,.13-.21.45.45,0,0,1,.42-.12l.17.17a.12.12,0,0,1,0,.08v.5a8,8,0,0,1,0,1.17v2.55q0,.13,0,1.42t0,2.47q0,1.17,0,2.93,0,2.59.13,4.06a8.52,8.52,0,0,0,.21,1.34,2.68,2.68,0,0,0,.08.38l0,0h.13l.38,0,.4,0,.31,0,.63,0h.17a1.32,1.32,0,0,0-.08-.38q0-.17-.08-.42A1.73,1.73,0,0,1,28,95.3a12.67,12.67,0,0,1-.15-1.69q0-.9,0-2t0-1.65q0-3,.38-8.62.42-6.28.5-8.58,0-1.76.08-2.76V68.31a2.88,2.88,0,0,0,0-.54Z"/><path d="M32.56,96.76a.27.27,0,0,1,.17-.25,17.59,17.59,0,0,1,.29-2q.21-1,.54-2.24T34,90.4q.17-.8.33-2.26t.33-2.26q.38-2,1.3-5.65,1-4.1,1.3-5.57,0-.17.25-1.4t.38-2.07q.25-1.21.46-2a6.88,6.88,0,0,1,.25-.71,1.36,1.36,0,0,1,.25-.46,1.48,1.48,0,0,1,.67-.29h.33l.25,0q.5-.08,1-.12h.59a.89.89,0,0,1,.54.21l.08.13v0a1.6,1.6,0,0,1,.08.21c.06.17.13.39.21.67l.71,2.38L45.4,78.4q2.76,9.92,3.22,11.71a46.85,46.85,0,0,0,2,6.07.5.5,0,0,1,.08.13.43.43,0,0,1,.08.5.25.25,0,0,1-.17.17l-.17.08-.42.08a6.18,6.18,0,0,1-1.09.08,7.49,7.49,0,0,1-1.13,0,1.74,1.74,0,0,1-.42,0A1.41,1.41,0,0,1,47,97.1a1,1,0,0,1-.29-.42,3.33,3.33,0,0,1-.25-.54q0-.17-.17-.54a1.35,1.35,0,0,1-.08-.33,75.86,75.86,0,0,1-2.68-7.57q0-.08-.13-1a1.51,1.51,0,0,0-.21-.71.63.63,0,0,0-.25-.08,7.88,7.88,0,0,0-1.88,0l-2,.13-.5-.08h-.17a1.15,1.15,0,0,0-.25.46q-.17.46-.38,1.17-.25,1-.75,3.43-.54,2.64-.79,3.51a7.58,7.58,0,0,1-.75,2.22,1.27,1.27,0,0,1-.63.38,5.6,5.6,0,0,1-.75,0c-.2,0-.45,0-.75,0l-.25,0a.38.38,0,0,1-.17,0l-.13,0A.27.27,0,0,1,32.56,96.76Zm9.12-28.58h-.54q-.46,0-.92.13l-.31,0-.27,0a.64.64,0,0,0-.33.13,1,1,0,0,0-.13.25,2.72,2.72,0,0,0-.21.67q-.21.71-.46,1.92-.17.84-.38,2.07t-.25,1.36q-.38,1.84-1.3,5.65Q35.65,84,35.27,86q-.13.71-.33,2.26t-.33,2.26q-.17.75-.48,1.95t-.52,2.17a16.19,16.19,0,0,0-.29,1.9h.13c.28,0,.5,0,.67,0a4,4,0,0,0,.63,0q.21,0,.25-.13a7,7,0,0,0,.71-2l.75-3.51q.5-2.38.8-3.43.21-.8.38-1.26a1.65,1.65,0,0,1,.46-.73.73.73,0,0,1,.63-.1l.38.08,2-.12a8.94,8.94,0,0,1,2,0,1,1,0,0,1,.59.25,2.22,2.22,0,0,1,.38,1,4.43,4.43,0,0,0,.13.88A68.62,68.62,0,0,0,46.74,95a1.58,1.58,0,0,1,.17.42q.13.38.17.54a2.74,2.74,0,0,0,.17.46l.13.17h.08a1.59,1.59,0,0,0,.38,0,6.43,6.43,0,0,0,1,0,5.48,5.48,0,0,0,1-.08.47.47,0,0,0,.21,0,.64.64,0,0,1-.13-.17,57.44,57.44,0,0,1-2-6.07q-.54-2.13-3.22-11.71l-2.05-7.2L42.09,69q-.13-.42-.21-.67a.32.32,0,0,1,0-.12A.38.38,0,0,1,41.68,68.19ZM40.55,77a18.73,18.73,0,0,1,.84,1.76,9.52,9.52,0,0,0,.84,1.59.5.5,0,0,0,.08.13l.15.13.19.17a.9.9,0,0,1,.29.79.46.46,0,0,1-.54.25.17.17,0,0,1-.13,0h0l-.63.08c-.42.08-.75.14-1,.17a4.06,4.06,0,0,1-1,0,1,1,0,0,1-.75-.54.83.83,0,0,1,0-.38q0-.21.08-.5l.33-1.38q.13-.38.27-.92t.23-.9q.08-.36.13-.48c.06-.2.17-.28.33-.25a.27.27,0,0,1,.25.29Zm1.17,3.68a18,18,0,0,1-.88-1.71l-.59-1.3-.46,1.67-.33,1.34q0,.29-.08.46v.13c0,.06.1.1.29.13a2.48,2.48,0,0,0,.84,0q.38,0,1-.17l.71-.08Z"/><path d="M66.65,73.33a6.23,6.23,0,0,1,.21,1.8,5.21,5.21,0,0,1-.08,1,1.43,1.43,0,0,1-.46.79,1.89,1.89,0,0,1-.75.21l-1,.08a7.18,7.18,0,0,1-1.09,0,1.74,1.74,0,0,1-.42,0,.48.48,0,0,1-.33-.17,2,2,0,0,1-.33-1l-.17-1.3a2.15,2.15,0,0,0-.42-1,1,1,0,0,0-.92-.33q-.84,0-1.51,1.34a11.73,11.73,0,0,0-.63,2,16.73,16.73,0,0,0-.36,3.08,39.32,39.32,0,0,0,.06,4.58,16.76,16.76,0,0,0,.8,4.23q.63,1.76,1.59,1.92A1.53,1.53,0,0,0,62,90.19a3.09,3.09,0,0,0,.71-.88l.29-.59a5.51,5.51,0,0,0,.29-.59,2.1,2.1,0,0,1,.92-.88h.21l.13,0a1.38,1.38,0,0,1,.42.08l.67.13a2.39,2.39,0,0,1,.46,0,1.79,1.79,0,0,1,.42,0,.37.37,0,0,0,.17,0,1.37,1.37,0,0,1,.21.17,1.32,1.32,0,0,1,.08.25v.21q0,.21-.08.54a2.89,2.89,0,0,1,0,.31c0,.13,0,.22,0,.29a.85.85,0,0,0,0,.15A8.87,8.87,0,0,1,65,95.34,4.92,4.92,0,0,1,59.37,97q-2.05-.59-3.39-3.6a24.24,24.24,0,0,1-1.59-6.53,49.63,49.63,0,0,1-.4-7,30.71,30.71,0,0,1,.44-5.17,10.3,10.3,0,0,1,2.68-5.06,5.24,5.24,0,0,1,3-1.61,4.65,4.65,0,0,1,3.05.48,6.41,6.41,0,0,1,2.28,1.92,6.29,6.29,0,0,1,1.19,2.8A.12.12,0,0,0,66.65,73.33Zm-1.59-2.38a5.63,5.63,0,0,0-2.18-1.88,4.12,4.12,0,0,0-2.7-.44,4.63,4.63,0,0,0-2.66,1.44A9.43,9.43,0,0,0,55,74.8a29.58,29.58,0,0,0-.44,5.08,52.47,52.47,0,0,0,.36,6.92,23.43,23.43,0,0,0,1.59,6.36q1.21,2.76,3,3.26a4.4,4.4,0,0,0,5-1.46,8.42,8.42,0,0,0,1.63-5.4s0-.31.13-.84a2,2,0,0,1,0-.46v-.08a1.07,1.07,0,0,0-.33,0,2.4,2.4,0,0,0-.46,0h0a5.92,5.92,0,0,1-.71-.17l-.38-.08h-.13a1.61,1.61,0,0,0-.54.59l-.29.54q-.21.42-.29.63a3.31,3.31,0,0,1-.88,1.09,2,2,0,0,1-1.59.29q-1.3-.25-2-2.3a18.8,18.8,0,0,1-.84-4.35,41,41,0,0,1-.06-4.69,19,19,0,0,1,.36-3.22,9.45,9.45,0,0,1,.71-2q.8-1.63,2-1.67a1.57,1.57,0,0,1,1.38.59,2.37,2.37,0,0,1,.5,1.25,10.32,10.32,0,0,1,.21,1.34,1.53,1.53,0,0,0,.17.71h0a1.08,1.08,0,0,0,.33,0,5.9,5.9,0,0,0,1,0l1-.08a3,3,0,0,0,.5-.12.72.72,0,0,0,.21-.42,3.71,3.71,0,0,0,.08-.88,6.21,6.21,0,0,0-.13-1.21.28.28,0,0,1-.08-.21A5.54,5.54,0,0,0,65.06,70.95Zm1.38,17.24h0Z"/><path d="M73.22,67.56q.79,0,1.3,0a1.74,1.74,0,0,1,.42,0,.46.46,0,0,1,.21,0,.52.52,0,0,1,.21.13,1.07,1.07,0,0,1,.13.42v.63q0,.67,0,1.88,0,.5-.33,5.44-.21,3.64-.25,5.44a13.06,13.06,0,0,0,0,1.92,1.63,1.63,0,0,0,.08.59l0,.21h.13l.54-.08.71,0,.88,0h.84a.8.8,0,0,0,.42-.12h0a.67.67,0,0,0,0-.17l0-.08v-.25a.37.37,0,0,1,0-.17,87,87,0,0,1,.08-10.21,18,18,0,0,0-.13-2.26,6.6,6.6,0,0,1,.13-2.38.63.63,0,0,1,.38-.38,2.75,2.75,0,0,1,.46-.17A11.86,11.86,0,0,1,80.58,68q.67,0,1.26,0a3.1,3.1,0,0,1,.88.21c.17.06.28.22.33.5a3.33,3.33,0,0,1,.13.71,15.36,15.36,0,0,1,0,2q0,1.38-.17,3.56,0,.54-.21,11.21-.08,4.35-.17,6.61-.08,1.46-.13,2.26,0,.46-.08.71a1.15,1.15,0,0,1-.13.46,1,1,0,0,1-.42.29l-.5.08a6.32,6.32,0,0,1-1.3,0,7.88,7.88,0,0,1-1.3-.17,1.64,1.64,0,0,1-.5-.13.56.56,0,0,1-.38-.25,1.12,1.12,0,0,1-.25-.71,6.5,6.5,0,0,1,0-1L78,91.83q.21-1.76.25-2.51a3.21,3.21,0,0,0-.08-.84l-.08-.25a2.12,2.12,0,0,0-.63,0l-.84,0a4.7,4.7,0,0,1-.54,0,3.42,3.42,0,0,1-.59-.08,2.41,2.41,0,0,0-1,.08,1.6,1.6,0,0,0-.08.21,7.21,7.21,0,0,0-.17.88q-.08.84-.13,2.72,0,2.26-.08,2.76a7,7,0,0,1-.13,1,2.78,2.78,0,0,1-.08.33.53.53,0,0,1-.25.29.93.93,0,0,1-.63,0l-.38-.08H72.3a3.57,3.57,0,0,1-.5,0,2.56,2.56,0,0,1-.5,0,.88.88,0,0,1-.46-.29,1.6,1.6,0,0,1-.08-.21V95q0-.67.08-1.84,0-.46,0-1.21t.06-1.19q0-.44,0-.61,0-10.79-.17-16.32,0-.58-.1-2t-.1-2q0-.61.08-2.07a.26.26,0,0,1,.33-.25.24.24,0,0,1,.17.08Q71.92,67.56,73.22,67.56Zm1.26.63q-.46,0-1.26,0-1.26,0-2,0,0,1.26,0,1.86t.1,1.9q.08,1.3.08,1.92.17,5.52.17,16.32,0,.17,0,.61T71.46,92q0,.77,0,1.23-.08,1.17-.08,1.8v.71a.17.17,0,0,0,.13,0,1.11,1.11,0,0,0,.33,0l.46,0h.33a3.66,3.66,0,0,1,.54.08l.17,0a1.26,1.26,0,0,0,.08-.25q0-.29.08-.92T73.55,92q0-1.92.13-2.76c.06-.42.11-.75.17-1a1.9,1.9,0,0,1,.17-.33.5.5,0,0,1,.29-.29,3.78,3.78,0,0,1,1.21-.08,3.4,3.4,0,0,0,.59.08l.5,0,.79,0a2,2,0,0,1,.92.08.84.84,0,0,1,.42.63,4.57,4.57,0,0,1,.08,1q0,.79-.25,2.59t-.29,2.59a5,5,0,0,0,0,.92,2.77,2.77,0,0,0,.08.46l.17,0a1,1,0,0,0,.38.13q.54.08,1.21.13a5.51,5.51,0,0,0,1.21,0,.93.93,0,0,0,.42-.08l.08,0a.69.69,0,0,0,0-.21c0-.17.06-.39.08-.67q0-.8.13-2.22.08-2.3.17-6.65.17-10.67.21-11.25.17-2,.17-3.47a13.89,13.89,0,0,0,0-2q0-.42-.08-.63a.45.45,0,0,0-.08-.17,2,2,0,0,0-.63-.12q-.59,0-1.21,0a8.35,8.35,0,0,0-1.09.13.93.93,0,0,0-.33.13h0A5.46,5.46,0,0,0,79,71a20.06,20.06,0,0,1,.13,2.38A85.43,85.43,0,0,0,79,83.54a.93.93,0,0,0,0,.19.91.91,0,0,1,0,.23.66.66,0,0,1-.17.67,1.33,1.33,0,0,1-.75.25,8.42,8.42,0,0,1-.92,0q-.33,0-.92,0l-.67,0h-.13l-.13,0a.37.37,0,0,1-.17,0,.66.66,0,0,1-.67-.17,1.43,1.43,0,0,1-.21-.5c0-.17-.06-.39-.08-.67a13.88,13.88,0,0,1,0-2q0-1.84.25-5.48.29-4.94.33-5.44,0-1.21,0-1.84v-.54l0-.12ZM71.34,95.8v0Z"/><path d="M87.28,69.23q0-1.26,1.46-1.63a2.44,2.44,0,0,1,1,0,1.29,1.29,0,0,1,.84.29.63.63,0,0,1,.13.33,1.76,1.76,0,0,1,0,.42q0,.38,0,1,0,.29,0,.75t0,.77c0,.21,0,.38,0,.52v2.43q0,.54,0,2.3l.13,4.48q0,2.72,0,4.85.08,4.44,0,6.95,0,1.51,0,2.34,0,.46-.08.75a1.16,1.16,0,0,1-.13.46.52.52,0,0,1-.21.13.17.17,0,0,1-.13,0,1.07,1.07,0,0,1-.33,0h-.84l-.84-.08-.33-.08a.58.58,0,0,1-.29-.13.53.53,0,0,1-.13-.25v-.17a3.16,3.16,0,0,1,0-.59q0-.59,0-1.59V92.45q0-.63,0-1c0-.28,0-.46,0-.54V84q0-.8-.25-3.39a27.66,27.66,0,0,1-.17-3.43q0-.92.17-2.57T87.48,72q0-.88,0-2.51A.3.3,0,0,1,87.28,69.23Zm.82,2.45q0,.9-.17,2.76t-.19,2.7a26.84,26.84,0,0,0,.17,3.39q.21,2.59.25,3.43v6.9c0,.08,0,.26,0,.54s0,.63,0,1,0,.79,0,1.13v1.59a2.23,2.23,0,0,0,0,.5v.08a.59.59,0,0,0,.25,0l.79.08H90a.46.46,0,0,0,.21,0v-.12c0-.17.06-.4.08-.71q0-.84,0-2.3,0-2.51,0-6.95,0-2.09,0-4.81l-.13-4.52q0-1.76,0-2.3V71.7c0-.14,0-.31,0-.52s0-.47,0-.79,0-.58,0-.77c0-.45,0-.78,0-1v-.33h0a.58.58,0,0,0-.42-.12,2.81,2.81,0,0,0-.84,0,1.24,1.24,0,0,0-.88.58.17.17,0,0,1,0,.13Q88.11,70.78,88.09,71.68Z"/><path d="M95.22,93.08q.08-3.43.08-3.93t-.25-5.82q-.25-5.23-.25-7.95,0-.63,0-1.78t0-1.49a27.13,27.13,0,0,0-.08-3.18v0a.32.32,0,0,1,0-.13.52.52,0,0,1,.08-.5.45.45,0,0,1,.17-.08l.17-.08a3.39,3.39,0,0,0,.46,0L96.77,68q.71,0,1.21,0l.46.08a.46.46,0,0,1,.38.21,3.66,3.66,0,0,1,.54,1q.29.67.71,1.8.71,1.84,1.8,5,2,6,2.8,8.58T106.14,89V88.6q0-2.47,0-3.1,0-3.85-.59-16.74a1.84,1.84,0,0,0,0-.19.78.78,0,0,0-.06-.23.86.86,0,0,1,.17-.67l.17-.08h0a.36.36,0,0,0,.17,0h.42q.5,0,1.26,0h1.3a1.44,1.44,0,0,1,.42,0h.21a.17.17,0,0,1,.13,0,.66.66,0,0,1,.13.17v.13a.47.47,0,0,1,0,.21q0,.25,0,.75,0,.84.08,2.22,0,.63.06,1.55t0,1.42c0,.33,0,.56,0,.67q.08,1.09.25,11.55l.08,7.11q0,1.38,0,2.3v.92a.12.12,0,0,1,0,.08.64.64,0,0,1-.38.33,4.39,4.39,0,0,1-.54.17,11.24,11.24,0,0,1-1.46.08,8,8,0,0,1-1.55-.21,1.84,1.84,0,0,1-1.09-.63q-.38-.54-3.6-7.2l-2-4.14-.46-1a.68.68,0,0,0,0,.21v.17l0,0v0a31.21,31.21,0,0,1,.29,3.81q0,.38.13,1.84Q100,92.29,100,93a23.14,23.14,0,0,1,.08,2.59,6.9,6.9,0,0,1,0,.88,3.37,3.37,0,0,1-.08.33.51.51,0,0,1-.29.29,6.46,6.46,0,0,1-1.84.21c-.2,0-.49,0-.9-.06l-.9,0a.36.36,0,0,1-.17,0,.17.17,0,0,1-.13,0c-.17,0-.28-.06-.33-.25A18,18,0,0,1,95.22,93.08Zm.13-24.23a29.65,29.65,0,0,1,.08,3.31q0,.29,0,1.44t0,1.78q0,2.72.25,7.95t.25,5.82q0,.5-.08,3.93a17,17,0,0,0,.17,3.6h.08l.9,0c.4,0,.7,0,.9.06l.46,0,.46,0a.92.92,0,0,0,.38,0,1.18,1.18,0,0,0,.38-.19c-.06,0-.08,0-.08,0a.69.69,0,0,1,0-.17,6,6,0,0,0,0-.79A22.9,22.9,0,0,0,99.45,93l-.17-2.8q-.13-1.51-.13-1.88a30.21,30.21,0,0,0-.29-3.72v0l0-.21a2,2,0,0,1-.08-.54,1.28,1.28,0,0,1,0-.54.41.41,0,0,1,.08-.29.33.33,0,0,1,.38-.21.24.24,0,0,1,.17.08.12.12,0,0,1,0,.08l.13.13a1.82,1.82,0,0,0,.21.38l.67,1.34,2,4.18q3.14,6.53,3.56,7.11a1.18,1.18,0,0,0,.75.38,6.26,6.26,0,0,0,1.38.21,9.05,9.05,0,0,0,1.34-.08,1.07,1.07,0,0,0,.42-.13l.08,0v-.75q0-.88,0-2.3l-.08-7.07q-.17-10.46-.25-11.59c0-.08,0-.29,0-.63s0-.82,0-1.44,0-1.14-.06-1.53q0-1.46-.08-2.22,0-.46,0-.71V68.1h-1.63q-.71,0-1.21,0H106v.13l0,.13v.17a.71.71,0,0,1,0,.21q.58,12.89.58,16.74,0,.63,0,3.1v2.13a.12.12,0,0,1,0,.08.48.48,0,0,1-.08.13.45.45,0,0,1-.23,0,.37.37,0,0,1-.19-.1.51.51,0,0,1-.08-.13l0-.21q-.13-.46-.33-1a41.73,41.73,0,0,1-1.63-4.73q-.75-2.64-2.76-8.58-1-2.85-1.8-4.94-.46-1.17-.71-1.76a3.76,3.76,0,0,0-.42-.84.12.12,0,0,1-.08,0l-.38,0c-.31,0-.68,0-1.13,0l-1.17.08a1.08,1.08,0,0,0-.33,0A.66.66,0,0,1,95.35,68.86Z"/><path d="M118.48,92.66h1l2.76-.21,2.89-.17q.71,0,1.13,0a2.25,2.25,0,0,1,.79.17.71.71,0,0,1,.29.33,2.13,2.13,0,0,1,.13.46,8.83,8.83,0,0,1,.11,1.19,6.33,6.33,0,0,1-.06,1.19,2.26,2.26,0,0,1-.13.46.7.7,0,0,1-.29.33,1.63,1.63,0,0,1-.75.17l-1.3.08q-1.34,0-3.6,0-1.46,0-3.64,0l-2.47,0a.27.27,0,0,1-.29-.25.17.17,0,0,1-.12,0,.26.26,0,0,1-.29-.29q0-.92.21-4.43.17-2.76.13-4.35,0-2.38-.17-6-.17-4.1-.25-7.26t-.08-6v-.17a.27.27,0,0,1,.25-.29.39.39,0,0,1,.21-.17,1.87,1.87,0,0,1,.59-.13,9.14,9.14,0,0,1,1,0q1,0,2.64,0,2.89,0,4.35.08l.27,0,.5,0,.56,0c.34,0,.6,0,.79,0a1.1,1.1,0,0,1,.67.21.27.27,0,0,1,.13.13v.08a.24.24,0,0,1,0,.17,2.7,2.7,0,0,0,0,.42,10.55,10.55,0,0,1,0,1.34,8.2,8.2,0,0,1-.08,1.3,4.58,4.58,0,0,1-.08.5.66.66,0,0,1-.33.42,5.5,5.5,0,0,1-1.76.13l-2.55-.17q-1.92-.13-2.38-.13a3.22,3.22,0,0,0-.84.08.92.92,0,0,0-.29,0v.08a4.52,4.52,0,0,1,0,.5q0,.54,0,1.55c0,.33,0,.7-.06,1.09s0,.73,0,1,0,.45,0,.48,0,.27,0,.56,0,.63-.06,1,0,.77,0,1.13q0,1,0,1.55a2.92,2.92,0,0,0,0,.54v.13a1.39,1.39,0,0,0,.63.08l1.34-.12a4.48,4.48,0,0,1,1.34,0,.9.9,0,0,1,.88.79,9.08,9.08,0,0,1,.08,1.3,3.84,3.84,0,0,1,0,.79,1.08,1.08,0,0,1,0,.33.93.93,0,0,1-.13.29.73.73,0,0,1-.42.17,2.56,2.56,0,0,1-.5,0,9.34,9.34,0,0,1-1.3-.13,5.09,5.09,0,0,1-.61-.06,5,5,0,0,0-.65-.06l-.38,0v.17a5.56,5.56,0,0,0,0,.59c0,.11.06.26.08.44s.05.33.08.46a1.48,1.48,0,0,1,0,.31v3.26l0,2v.67A.58.58,0,0,0,118.48,92.66Zm7.07-24.89q-.29,0-.75,0l-.52,0-.54,0-.31,0q-1.51-.08-4.35-.08-1.63,0-2.64,0a7.19,7.19,0,0,0-.9,0l-.4,0,0,.08v0l-.08.08q0,2.89.08,6t.25,7.2q.12,3.64.17,6,0,1.63-.12,4.39-.21,3.51-.21,4.35a.17.17,0,0,1,.13,0l2.51,0q2.18,0,3.6,0,2.26,0,3.6,0l1.21-.08a3.25,3.25,0,0,0,.54-.08,0,0,0,0,1,0,0,2.8,2.8,0,0,0,.08-.38,4.69,4.69,0,0,0,.06-1,7.58,7.58,0,0,0-.1-1.09,2.87,2.87,0,0,0-.08-.33.12.12,0,0,0,0-.08,1.74,1.74,0,0,0-.54-.13h-1l-2.89.17-2.8.21h-1a1.1,1.1,0,0,1-.67-.21l-.12-.13V92c0-.2,0-.52,0-1s0-.79,0-1V86.68a1.63,1.63,0,0,0,0-.23c0-.1,0-.23-.06-.4l-.12-.46c0-.31,0-.54,0-.71a1,1,0,0,1,.17-.63.35.35,0,0,1,.25-.08.24.24,0,0,1,.17,0,2.6,2.6,0,0,1,.42,0c.14,0,.36.06.67.08l.58,0a9.4,9.4,0,0,0,1.26.13,1.73,1.73,0,0,0,.42,0h.08v-.25a3.07,3.07,0,0,0,0-.71,8.24,8.24,0,0,0-.08-1.26c0-.17-.16-.27-.4-.31a4.92,4.92,0,0,0-1.19,0q-1.21.17-1.38.17-.84,0-1.09-.33a.3.3,0,0,1-.12-.21v-.21a2.92,2.92,0,0,1,0-.54q0-.63,0-1.63,0-.5,0-1.11t.06-1c0-.29,0-.47,0-.52s0-.23,0-.52,0-.63,0-1,0-.75.06-1.09q0-1,0-1.55a4.66,4.66,0,0,0,0-.54.36.36,0,0,0,0-.17v-.08a.43.43,0,0,1,.08-.12,1.52,1.52,0,0,1,.67-.25,3.74,3.74,0,0,1,.88-.08q.54,0,2.47.13l2.51.17a8.46,8.46,0,0,0,1.51-.08,0,0,0,0,1,0,0,1.49,1.49,0,0,0,0-.42,7.38,7.38,0,0,0,.08-1.25,9.27,9.27,0,0,0,0-1.25,2.7,2.7,0,0,1,0-.42A.58.58,0,0,0,125.55,67.77Zm.34,0h-.08A.05.05,0,0,0,125.89,67.81Z"/><path d="M136.47,73.25a1.78,1.78,0,0,0-.63-.08,16.5,16.5,0,0,0-1.92,0q-1.46.08-2,.08a2.8,2.8,0,0,1-.75-.08,1,1,0,0,1-.59-.29.46.46,0,0,1,0-.21.24.24,0,0,1,0-.17,3.33,3.33,0,0,1,0-.42q0-.38.08-1.21a14.44,14.44,0,0,0,.17-2,.3.3,0,0,1,.59-.08v.08a.17.17,0,0,1,.13,0l1.49,0,3.05-.06,3.37-.08q3.05,0,4.77,0,1,0,1.59,0a2,2,0,0,1,.46,0,.24.24,0,0,1,.17,0,.54.54,0,0,1,.25.13,1.61,1.61,0,0,1,.13.5V71c.06.5.1.87.13,1.09a2.31,2.31,0,0,1,0,.63.82.82,0,0,1-.17.59,1,1,0,0,1-.59.21,7.06,7.06,0,0,1-.84,0l-2.13-.17a19.38,19.38,0,0,0-2.09,0,3.23,3.23,0,0,0-.67.13c-.14.06-.21.11-.21.17a2.74,2.74,0,0,0,0,1q.17,1.13.17,1.26.13,3.64.13,16.07v.92q0,.88,0,1.46a9.74,9.74,0,0,1-.08,1.42l-.13.5a.63.63,0,0,1-.38.42,2,2,0,0,1-.88,0,1.76,1.76,0,0,1-.42-.08l-.29,0h-.84a.64.64,0,0,1-.33-.17.26.26,0,0,1-.12-.17v-.08a.24.24,0,0,1,0-.17q0-.21,0-.63V90.61q0-1.51-.17-9.25-.13-5.36-.12-5.61,0-1.21,0-1.84a2.92,2.92,0,0,0,0-.54v-.08A.24.24,0,0,0,136.47,73.25Zm9.67-3.89a1.49,1.49,0,0,0-.42,0q-.54,0-1.55,0-1.72,0-4.77,0l-3.37.08-3.05.06-1.49,0a.17.17,0,0,1-.12,0q0,.34-.17,1.55c-.05.56-.08,1-.08,1.21a2.56,2.56,0,0,0,0,.38v0l.21.08a4.21,4.21,0,0,0,.67,0c.33,0,1,0,1.92-.08a17.92,17.92,0,0,1,2,0,2.81,2.81,0,0,1,.75.08.83.83,0,0,1,.54.38l0,.08v.21a2.93,2.93,0,0,1,0,.54q0,.67,0,1.84,0,.29.13,5.61.17,7.78.17,9.29v4.73a5.78,5.78,0,0,1,0,.59v0h.84a1.34,1.34,0,0,1,.33.08,2.69,2.69,0,0,1,.42.08l.54,0a.12.12,0,0,1,0-.08,2.51,2.51,0,0,0,.08-.38,8.52,8.52,0,0,0,.08-1.34q0-.59,0-1.46V92q0-12.43-.12-16.07,0-.08-.17-1.17a2.93,2.93,0,0,1,0-1.3.88.88,0,0,1,.59-.54,2.72,2.72,0,0,1,.84-.17,20.56,20.56,0,0,1,2.18,0l2.09.17h.75l.25-.08v-.17a2,2,0,0,0,0-.59c0-.2-.07-.54-.13-1V69.36Z"/><path d="M150.07,96.76a.27.27,0,0,1,.17-.25,17.93,17.93,0,0,1,.29-2q.21-1,.54-2.24t.46-1.88q.17-.8.33-2.26t.33-2.26q.38-2,1.3-5.65,1-4.1,1.3-5.57,0-.17.25-1.4t.38-2.07q.25-1.21.46-2a7,7,0,0,1,.25-.71,1.35,1.35,0,0,1,.25-.46,1.48,1.48,0,0,1,.67-.29h.33l.25,0q.5-.08,1-.12h.59a.89.89,0,0,1,.54.21l.08.13v0a1.53,1.53,0,0,1,.08.21c.06.17.13.39.21.67l.71,2.38,2.05,7.16q2.76,9.92,3.22,11.71a46.84,46.84,0,0,0,2,6.07.48.48,0,0,1,.08.13.43.43,0,0,1,.08.5.25.25,0,0,1-.17.17l-.17.08-.42.08a6.17,6.17,0,0,1-1.09.08,7.49,7.49,0,0,1-1.13,0,1.73,1.73,0,0,1-.42,0,1.42,1.42,0,0,1-.34-.08,1,1,0,0,1-.29-.42,3.38,3.38,0,0,1-.25-.54q0-.17-.17-.54a1.43,1.43,0,0,1-.08-.33,75.62,75.62,0,0,1-2.68-7.57c0-.06,0-.38-.12-1a1.5,1.5,0,0,0-.21-.71.62.62,0,0,0-.25-.08,7.88,7.88,0,0,0-1.88,0l-2,.13-.5-.08h-.17a1.15,1.15,0,0,0-.25.46q-.17.46-.38,1.17-.25,1-.75,3.43-.54,2.64-.79,3.51a7.58,7.58,0,0,1-.75,2.22,1.27,1.27,0,0,1-.63.38,5.59,5.59,0,0,1-.75,0c-.2,0-.45,0-.75,0l-.25,0a.38.38,0,0,1-.17,0l-.12,0A.27.27,0,0,1,150.07,96.76Zm9.12-28.58h-.54q-.46,0-.92.13l-.31,0-.27,0a.64.64,0,0,0-.34.13,1,1,0,0,0-.12.25,2.7,2.7,0,0,0-.21.67q-.21.71-.46,1.92-.17.84-.38,2.07t-.25,1.36q-.38,1.84-1.3,5.65-.92,3.64-1.3,5.56-.13.71-.33,2.26t-.33,2.26q-.17.75-.48,1.95t-.52,2.17a16.19,16.19,0,0,0-.29,1.9h.13c.28,0,.5,0,.67,0a4,4,0,0,0,.63,0c.14,0,.22-.07.25-.13a7,7,0,0,0,.71-2q.17-.8.75-3.51.5-2.38.79-3.43.21-.8.38-1.26a1.65,1.65,0,0,1,.46-.73.73.73,0,0,1,.63-.1l.38.08,2-.12a8.93,8.93,0,0,1,2,0,1,1,0,0,1,.59.25,2.22,2.22,0,0,1,.38,1,4.5,4.5,0,0,0,.13.88A68.84,68.84,0,0,0,164.25,95a1.58,1.58,0,0,1,.17.42q.13.38.17.54a2.67,2.67,0,0,0,.17.46l.13.17H165a1.59,1.59,0,0,0,.38,0,6.44,6.44,0,0,0,1,0,5.48,5.48,0,0,0,1-.08.47.47,0,0,0,.21,0,.66.66,0,0,1-.13-.17,57.54,57.54,0,0,1-2-6.07q-.54-2.13-3.22-11.71l-2.05-7.2L159.61,69c-.08-.28-.15-.5-.21-.67a.32.32,0,0,1,0-.12A.38.38,0,0,1,159.19,68.19ZM158.06,77a18.61,18.61,0,0,1,.84,1.76,9.52,9.52,0,0,0,.84,1.59.48.48,0,0,0,.08.13l.15.13.19.17a.9.9,0,0,1,.29.79.46.46,0,0,1-.54.25.17.17,0,0,1-.13,0h0l-.63.08c-.42.08-.75.14-1,.17a4.06,4.06,0,0,1-1,0,1,1,0,0,1-.75-.54.85.85,0,0,1,0-.38q0-.21.08-.5l.33-1.38c.08-.25.17-.56.27-.92s.17-.66.23-.9.1-.4.13-.48.17-.28.33-.25a.27.27,0,0,1,.25.29Zm1.17,3.68a17.89,17.89,0,0,1-.88-1.71l-.59-1.3-.46,1.67L157,80.66a4.47,4.47,0,0,1-.08.46v.13c0,.06.1.1.29.13a2.48,2.48,0,0,0,.84,0q.38,0,1-.17l.71-.08Z"/><path class="cls-1" d="M72.25,56.33a.84.84,0,0,1-.59-1.41A34.29,34.29,0,0,0,77,46a.84.84,0,0,1,1.52.71,35.69,35.69,0,0,1-5.64,9.31.84.84,0,0,1-.65.27Z"/><path class="cls-1" d="M77.74,47.25a.86.86,0,0,1-.83-.79,10.32,10.32,0,0,1,.18-2.52c.07-.45.14-.89.17-1.34A.86.86,0,1,1,79,42.7c0,.5-.11,1-.19,1.5a8.89,8.89,0,0,0-.16,2.11.86.86,0,0,1-.78.93Z"/><path class="cls-1" d="M88.47,48.16a91.57,91.57,0,0,1-10.82-1,.79.79,0,1,1,.23-1.56C88.08,47.13,97.15,47,109.18,45s29.63-9.2,28.5-21.06c-.3-3.17-2.88-8-8-11.68C118,3.83,102.18,2.05,90.93,2,80.4,2,61.18,7.19,54,16.56A12.73,12.73,0,0,0,51.5,28.07C54,37.62,64.17,41.92,72.23,43.85a.79.79,0,0,1-.37,1.53C59.71,42.47,52.14,36.63,50,28.47A14.23,14.23,0,0,1,52.72,15.6C60.34,5.71,79.81.46,90.93.47c11.47,0,27.68,1.85,39.7,10.51,5.86,4.22,8.3,9.54,8.61,12.81,1.16,12.11-14.64,20.29-29.81,22.76a107.43,107.43,0,0,1-21,1.61Z"/></g></svg>