<svg xmlns="http://www.w3.org/2000/svg" xmlns:xlink="http://www.w3.org/1999/xlink" viewBox="0 0 129.06 98.14"><defs><style>.cls-1{fill:none;}.cls-2{clip-path:url(#clip-path);}.cls-3{fill:#333;}.cls-4{fill:#0071b2;}</style><clipPath id="clip-path"><rect class="cls-1" x="-533.94" y="-240.17" width="1200" height="146"/></clipPath></defs><title>bar-アートボード 64</title><g id="コンテンツ"><g class="cls-2"><image width="1700" height="630" transform="translate(-533.94 -398.41) scale(0.73)" xlink:href="../../../Volumes/DATA/共有/Dropbox/クライアント/TJかごしま/カゴシマプラス/デザイン/9_ph-1.png"/></g></g><g id="コンテンツ-2" data-name="コンテンツ"><path class="cls-3" d="M10.43,44.28a1.8,1.8,0,0,0-1.45,0A.8.8,0,1,0,10.43,44.28Z"/><path class="cls-3" d="M17.09,54.41c-.39,1.3,1.17,1.41,1.74.87C19,54.24,18,54.4,17.09,54.41Z"/><path class="cls-3" d="M0,55.57c-.15,1.33,1,1.17,1.74.87C1.78,55.54.88,55.57,0,55.57Z"/><path class="cls-3" d="M10.14,63.38c-.82-.24-.75.41-1.45.29-.36,1.64,1.64,1.27,1.74.29C10.21,63.9,10.09,63.72,10.14,63.38Z"/><path class="cls-3" d="M13.31,54a5.19,5.19,0,0,1-.77.2L12.16,54c-.91-.59-1.77-1.16-1.81-2.2l.08,0c-.55-1.38.46-2.85,0-4.05-.37,0-.4-.37-.87-.29C9,48.58,9.1,50.28,8.7,51.52l0,.05a.4.4,0,0,0-.26.24,5.38,5.38,0,0,1-1.56,2A10.47,10.47,0,0,0,5.77,55a2.86,2.86,0,0,0-1.7.86c.71.23,1.12.76,2,.86a3.15,3.15,0,0,1,1.8,2v0a1.55,1.55,0,0,0,.27.6c0,.92-.29,2.21.87,2,.59-.28.62-1.11.58-2l-.1-.08,0,0a32.8,32.8,0,0,1,3.17-3.92,6,6,0,0,0,1-.24ZM9,58.46h-.3a4,4,0,0,0-2.33-2.58l0,0v-.32a9.26,9.26,0,0,1,1.07-1.14,6.67,6.67,0,0,0,1.64-2c.17,0,.26-.17.4-.24a4.05,4.05,0,0,0,2.18,2.6l.22.15A33.93,33.93,0,0,0,9,58.46Z"/><path class="cls-3" d="M119.17,42.94a1.8,1.8,0,0,0-1.45,0A.8.8,0,1,0,119.17,42.94Z"/><path class="cls-3" d="M125.82,53.07c-.39,1.3,1.17,1.41,1.74.87C127.73,52.9,126.7,53.06,125.82,53.07Z"/><path class="cls-3" d="M108.75,54.23c-.15,1.33,1,1.17,1.74.87C110.51,54.2,109.61,54.24,108.75,54.23Z"/><path class="cls-3" d="M118.88,62c-.82-.24-.75.41-1.45.29-.36,1.64,1.64,1.27,1.74.29C118.94,62.56,118.83,62.38,118.88,62Z"/><path class="cls-3" d="M122,52.7a5.19,5.19,0,0,1-.77.2l-.38-.25c-.91-.59-1.77-1.16-1.81-2.2l.08,0c-.55-1.38.46-2.85,0-4.05-.37,0-.4-.37-.87-.29-.52,1.12-.47,2.82-.87,4.05l0,.05a.4.4,0,0,0-.26.24,5.38,5.38,0,0,1-1.56,2,10.47,10.47,0,0,0-1.12,1.19,2.86,2.86,0,0,0-1.7.86c.71.23,1.12.76,2,.86a3.15,3.15,0,0,1,1.8,2v0a1.55,1.55,0,0,0,.27.6c0,.92-.29,2.21.87,2,.59-.28.62-1.11.58-2l-.1-.08,0,0A32.8,32.8,0,0,1,121.4,54a6,6,0,0,0,1-.24Zm-4.33,4.42h-.3a4,4,0,0,0-2.33-2.58l0,0V54.2a9.26,9.26,0,0,1,1.07-1.14,6.67,6.67,0,0,0,1.64-2c.17,0,.26-.17.4-.24a4.05,4.05,0,0,0,2.18,2.6l.22.15A33.93,33.93,0,0,0,117.71,57.13Z"/><path class="cls-3" d="M41.73,27.84a10.51,10.51,0,0,0,.1,1.65H40.09a16.26,16.26,0,0,0,.08-1.65v-5a26.88,26.88,0,0,1-5.07,2.06l-.8-1.36A22,22,0,0,0,40.63,21a15.3,15.3,0,0,0,3.66-3.14l1.19,1.08a23.28,23.28,0,0,1-3.74,3Z"/><path class="cls-3" d="M49,24.17c.64-.66,1.81-2.13,2.73-3.22.78-.92,1.44-1,2.51-.13a32.85,32.85,0,0,1,2.89,2.87c.94,1,2.4,2.56,3.4,3.75l-1.16,1.26c-.94-1.2-2.21-2.69-3.08-3.7a37.43,37.43,0,0,0-2.68-2.82c-.53-.45-.76-.45-1.19.1-.63.77-1.74,2.24-2.34,3l-.84,1.18-1.3-1.32C48.28,24.84,48.56,24.56,49,24.17Zm9.4-2.56-1,.45a15.25,15.25,0,0,0-1.29-2.25l1-.42C57.41,19.92,58,21,58.37,21.6Zm1.88-.77-1,.48A14.23,14.23,0,0,0,57.9,19.1l1-.45A19.24,19.24,0,0,1,60.24,20.83Z"/><path class="cls-3" d="M68.58,25.95a13.34,13.34,0,0,0,4.86-5.28l.85,1.53a14.44,14.44,0,0,1-4.92,5.07A15.45,15.45,0,0,1,64,29.35l-.94-1.44A14.57,14.57,0,0,0,68.58,25.95Zm-.48-4.48L67,22.6a31.71,31.71,0,0,0-3.5-3l1-1.09A28.32,28.32,0,0,1,68.11,21.46Z"/><path class="cls-3" d="M86.63,25.54a37.39,37.39,0,0,0-5.29-2.19v4.33a16.34,16.34,0,0,0,.11,1.79H79.73a14.61,14.61,0,0,0,.11-1.79v-8.1A10.15,10.15,0,0,0,79.71,18h1.72c0,.46-.1,1.08-.1,1.57v2.18A48.34,48.34,0,0,1,87.26,24Z"/><path class="cls-4" d="M42.35,54.33a.79.79,0,0,1-.6-1.31,32.44,32.44,0,0,0,4.81-8.56.79.79,0,0,1,1.46.62A33.77,33.77,0,0,1,43,54a.79.79,0,0,1-.6.28Z"/><path class="cls-4" d="M47.28,45.58a.81.81,0,0,1-.81-.72,9.76,9.76,0,0,1,.09-2.39c.05-.42.11-.85.12-1.27a.81.81,0,1,1,1.63.05c0,.48-.07,1-.13,1.42a8.41,8.41,0,0,0-.09,2,.81.81,0,0,1-.71.9Z"/><path class="cls-4" d="M57.46,46.13a86.63,86.63,0,0,1-10.26-.63A.74.74,0,1,1,47.37,44c9.69,1.15,18.25.71,29.57-1.49S104.7,33,103.28,21.8c-.38-3-3-7.5-7.87-10.81-11.29-7.63-26.33-8.85-37-8.54-10,.29-28,5.73-34.53,14.79a12,12,0,0,0-2,11c2.67,9,12.38,12.74,20.06,14.33a.74.74,0,0,1-.3,1.46c-11.58-2.4-18.91-7.71-21.19-15.36a13.46,13.46,0,0,1,2.22-12.25C29.63,6.8,47.89,1.28,58.41,1c10.85-.32,26.22.95,37.84,8.79,5.66,3.82,8.12,8.78,8.51,11.86C106.2,33,91.5,41.22,77.23,44a101.63,101.63,0,0,1-19.77,2.13Z"/><path class="cls-4" d="M29.42,92.85h1l2.76-.21L36,92.47q.71,0,1.13,0a2.26,2.26,0,0,1,.79.17.71.71,0,0,1,.29.33,2.18,2.18,0,0,1,.13.46,9,9,0,0,1,.11,1.19,6.24,6.24,0,0,1-.06,1.19,2.2,2.2,0,0,1-.12.46.71.71,0,0,1-.29.33,1.63,1.63,0,0,1-.75.17l-1.3.08q-1.34,0-3.6,0-1.46,0-3.64,0l-2.47,0a.27.27,0,0,1-.29-.25.17.17,0,0,1-.13,0,.26.26,0,0,1-.29-.29q0-.92.21-4.43.17-2.76.13-4.35,0-2.38-.17-6-.17-4.1-.25-7.26t-.08-6V68a.27.27,0,0,1,.25-.29.4.4,0,0,1,.21-.17,1.88,1.88,0,0,1,.59-.13,9.17,9.17,0,0,1,1,0q1,0,2.64,0,2.89,0,4.35.08l.27,0,.5,0,.56,0c.33,0,.6,0,.8,0a1.1,1.1,0,0,1,.67.21.27.27,0,0,1,.13.13v.08a.24.24,0,0,1,0,.17,2.71,2.71,0,0,0,0,.42,10.55,10.55,0,0,1,0,1.34,8.2,8.2,0,0,1-.08,1.3,4.83,4.83,0,0,1-.08.5.66.66,0,0,1-.33.42,5.5,5.5,0,0,1-1.76.13l-2.55-.17q-1.92-.13-2.38-.13a3.22,3.22,0,0,0-.84.08.92.92,0,0,0-.29,0V72a4.34,4.34,0,0,1,0,.5Q29,73,29,74c0,.33,0,.7-.06,1.09s0,.73,0,1,0,.45,0,.48,0,.27,0,.56,0,.63-.06,1,0,.77,0,1.13q0,1,0,1.55a2.84,2.84,0,0,0,0,.54v.13a1.39,1.39,0,0,0,.63.08l1.34-.12a4.48,4.48,0,0,1,1.34,0,.9.9,0,0,1,.88.79,9.22,9.22,0,0,1,.08,1.3,3.84,3.84,0,0,1,0,.79,1.11,1.11,0,0,1,0,.33,1,1,0,0,1-.13.29.73.73,0,0,1-.42.17,2.56,2.56,0,0,1-.5,0,9.34,9.34,0,0,1-1.3-.13A5.07,5.07,0,0,1,30,85a5.06,5.06,0,0,0-.65-.06l-.38,0v.17a5.78,5.78,0,0,0,0,.59c0,.11.06.26.08.44s.06.33.08.46a1.54,1.54,0,0,1,0,.31v3.26l0,2v.67A.58.58,0,0,0,29.42,92.85Z"/><path class="cls-4" d="M36.49,68q-.29,0-.75,0l-.52,0-.54,0-.31,0Q32.85,68,30,68q-1.63,0-2.64,0a7.22,7.22,0,0,0-.9,0l-.4,0,0,.08v0l-.08.08q0,2.89.08,6t.25,7.2q.12,3.64.17,6,0,1.63-.13,4.39-.21,3.51-.21,4.35a.17.17,0,0,1,.13,0l2.51,0q2.18,0,3.6,0,2.26,0,3.6,0l1.21-.08a3.27,3.27,0,0,0,.54-.08,0,0,0,0,1,0,0,2.8,2.8,0,0,0,.08-.38,4.69,4.69,0,0,0,.06-1,7.72,7.72,0,0,0-.1-1.09,2.87,2.87,0,0,0-.08-.33.12.12,0,0,0,0-.08,1.74,1.74,0,0,0-.54-.13h-1l-2.89.17-2.8.21h-1a1.1,1.1,0,0,1-.67-.21l-.13-.13v-1c0-.2,0-.52,0-1s0-.79,0-1V86.87a1.63,1.63,0,0,0,0-.23c0-.1,0-.23-.06-.4l-.12-.46c0-.31,0-.54,0-.71a1,1,0,0,1,.17-.63.34.34,0,0,1,.25-.08.24.24,0,0,1,.17,0,2.58,2.58,0,0,1,.42,0c.14,0,.36.06.67.08l.58,0a9.4,9.4,0,0,0,1.26.13,1.73,1.73,0,0,0,.42,0h.08v-.25a3.07,3.07,0,0,0,0-.71,8.36,8.36,0,0,0-.08-1.26q0-.25-.4-.31a4.92,4.92,0,0,0-1.19,0q-1.21.17-1.38.17-.84,0-1.09-.33a.3.3,0,0,1-.12-.21v-.21a2.84,2.84,0,0,1,0-.54q0-.63,0-1.63,0-.5,0-1.11c0-.41,0-.75.06-1s0-.47,0-.52,0-.23,0-.52,0-.63,0-1,0-.75.06-1.09q0-1,0-1.55a4.69,4.69,0,0,0,0-.54.38.38,0,0,0,0-.17v-.08a.48.48,0,0,1,.08-.12,1.53,1.53,0,0,1,.67-.25,3.74,3.74,0,0,1,.88-.08q.54,0,2.47.13l2.51.17a8.44,8.44,0,0,0,1.51-.08,0,0,0,0,1,0,0,1.49,1.49,0,0,0,0-.42,7.38,7.38,0,0,0,.08-1.25,9.27,9.27,0,0,0,0-1.25,2.7,2.7,0,0,1,0-.42A.58.58,0,0,0,36.49,68Z"/><path class="cls-4" d="M36.82,68h-.08A.05.05,0,0,0,36.82,68Z"/><path class="cls-4" d="M50,88.83a17.29,17.29,0,0,0,.46-2c0-.08.06-.18.08-.29l0-.08v-.12q.08-.29.25-1.09l.5-2q.25-1.17.5-2.09.46-1.92.79-3a8.7,8.7,0,0,1,.33-1.09,1.77,1.77,0,0,1,.33-.63.57.57,0,0,1,.29-.13,1.07,1.07,0,0,1,.33,0,4.69,4.69,0,0,1,.88,0,8.72,8.72,0,0,1,.88,0,2.15,2.15,0,0,1,.54,0,.53.53,0,0,1,.33.42,1.47,1.47,0,0,1,.08.54,7.88,7.88,0,0,1-.17,1.38l-.54,2.43a57.83,57.83,0,0,1-1.8,5.56,44.57,44.57,0,0,0-1.71,5.52q-.42,2-.54,2.47l-.42,1.38a2,2,0,0,1-.21.54.62.62,0,0,1-.21.33.93.93,0,0,1-.33.13,1.53,1.53,0,0,1-.38,0,5,5,0,0,1-.92,0,4.7,4.7,0,0,1-.92-.08,1.11,1.11,0,0,1-.33,0,1.8,1.8,0,0,1-.33-.17.5.5,0,0,1-.08-.12l-.08-.17a5.17,5.17,0,0,1-.17-.5q-.21-.59-.5-1.59l-1.34-4.81-2.22-8.24a7.94,7.94,0,0,0-.27-.92q-.27-.84-.44-1.42-.21-.88-.29-1.38a4.71,4.71,0,0,1,0-.54.54.54,0,0,1,.21-.5,1.37,1.37,0,0,1,.75-.17,5.43,5.43,0,0,1,1,0,11.72,11.72,0,0,1,1.63.25.3.3,0,0,1,.21.38c0,.14-.12.21-.29.21q.17.5.46,1.59l.79,2.64.79,2.64q1,3.18,1.3,4.06t.5,1.34l.08.08Q49.83,89.33,50,88.83Z"/><path class="cls-4" d="M53.47,77.28l-.33,1q-.33,1.09-.79,3l-.46,2.09-.5,2q-.17.8-.25,1.09L51,86.7a.68.68,0,0,0,0,.21q-.21,1-.46,2.09c-.11.39-.21.7-.29.92a1.8,1.8,0,0,1-.17.33.48.48,0,0,1-.08.13.29.29,0,0,1-.29.08,1,1,0,0,1-.25-.12.46.46,0,0,1-.08-.17,1.35,1.35,0,0,1-.25-.42q-.21-.46-.5-1.34-.5-1.42-1.3-4.1l-.88-2.89-.84-2.8a12,12,0,0,0-.46-1.46q-.46-.08-.92-.13a4.68,4.68,0,0,0-.88,0,1.49,1.49,0,0,0-.42,0v0a2.58,2.58,0,0,0,0,.42,7,7,0,0,0,.29,1.34l.42,1.42q.25.84.29.92l2.18,8.24,1.34,4.81q.34,1,.5,1.59a1.57,1.57,0,0,0,.17.42.34.34,0,0,1,0,.13h0a.92.92,0,0,0,.29,0,5,5,0,0,0,.88.1,5.17,5.17,0,0,0,.84,0h.38l.08-.17a2.83,2.83,0,0,0,.17-.46q.17-.5.38-1.38t.54-2.38a45.09,45.09,0,0,1,1.76-5.65A55.42,55.42,0,0,0,55.31,81q.46-1.84.54-2.38A6.5,6.5,0,0,0,56,77.33a1.25,1.25,0,0,0,0-.38v0l-.38,0h-.84a4.09,4.09,0,0,0-.84,0,.58.58,0,0,0-.25,0h0Z"/><path class="cls-4" d="M65.4,87.37l-.33,0a1.38,1.38,0,0,1-.42.08c-.28.08-.43.16-.46.23a2,2,0,0,0-.08.4c0,.2,0,.45,0,.75a11.94,11.94,0,0,0,.38,2,9.19,9.19,0,0,0,.75,1.92q.42.75.75.79a2.83,2.83,0,0,0,2.38-.69,4.51,4.51,0,0,0,1.42-2.36,1.21,1.21,0,0,0,0-.46,1.08,1.08,0,0,1,.21-.71.68.68,0,0,1,.38-.17,1.53,1.53,0,0,1,.38,0,5.72,5.72,0,0,1,1,.1,9.58,9.58,0,0,1,1,.23,1.63,1.63,0,0,1,.38.17.49.49,0,0,1,.29.29,2.31,2.31,0,0,1,.08,1.42,8.26,8.26,0,0,1-.33,1.25,6.94,6.94,0,0,1-1.88,2.72,8.64,8.64,0,0,1-2.84,1.74,7.41,7.41,0,0,1-3.29.4,6.69,6.69,0,0,1-3.16-1.13Q60,94.9,59.54,90.92a18.38,18.38,0,0,1,.88-7.57,13,13,0,0,1,3.81-6.15,6.29,6.29,0,0,1,6.53-1,3.44,3.44,0,0,1,1.67,1.88A11,11,0,0,1,73.3,81a15.45,15.45,0,0,1,.21,2.89,3.46,3.46,0,0,1-.21,1,.93.93,0,0,1-.44.69,10.73,10.73,0,0,1-1.53.44l-2.43.54q-2.18.46-3.35.63A.66.66,0,0,1,65.4,87.37Z"/><path class="cls-4" d="M68.79,86.07q1.38-.29,2.43-.59a8.49,8.49,0,0,0,1.38-.38c.06,0,.11-.14.17-.33a3.36,3.36,0,0,0,.17-.92,13.78,13.78,0,0,0-.21-2.72,10.78,10.78,0,0,0-.84-2.8,2.58,2.58,0,0,0-1.38-1.55,5.59,5.59,0,0,0-5.9.88A12.38,12.38,0,0,0,61,83.56a18.62,18.62,0,0,0-.84,7.32q.38,3.68,2.3,5a6.63,6.63,0,0,0,3.91,1.07,7.35,7.35,0,0,0,3.83-1.34,6.54,6.54,0,0,0,2.51-3.12A4.6,4.6,0,0,0,73,91.3a2.3,2.3,0,0,0,0-1.09,0,0,0,0,1,0,0l-.29-.08a7.44,7.44,0,0,0-.9-.23,4.88,4.88,0,0,0-.94-.1.92.92,0,0,0-.29,0h0a.73.73,0,0,0,0,.29,3.1,3.1,0,0,1,0,.63,5.56,5.56,0,0,1-1.65,2.66,3.28,3.28,0,0,1-2.82.82q-.63-.12-1.21-1.13A10.1,10.1,0,0,1,64,91a10.62,10.62,0,0,1-.42-2.13c0-.33,0-.61,0-.84a1.55,1.55,0,0,1,.17-.63,1.21,1.21,0,0,1,.84-.5.3.3,0,0,1,.29-.21A30.74,30.74,0,0,0,68.79,86.07Z"/><path class="cls-4" d="M65.27,81.45a5.2,5.2,0,0,1,1.25-1.57,2.31,2.31,0,0,1,1.76-.59,2,2,0,0,1,1.46,1.51l.17.67a2.91,2.91,0,0,1,.13.38.82.82,0,0,1,0,.38.52.52,0,0,1-.12.21l0,0-.21.08a2.13,2.13,0,0,1-.5.25q-.58.25-1.46.59l-1.55.5a3.89,3.89,0,0,1-.54.17.46.46,0,0,0-.21,0h-.21a.52.52,0,0,1-.33-.38.17.17,0,0,0,0-.12v-.08a.28.28,0,0,1,0-.29A3.42,3.42,0,0,1,65.27,81.45Z"/><path class="cls-4" d="M69.45,82c0-.11-.06-.24-.08-.38s-.13-.4-.21-.63q-.29-1-1-1.09a1.81,1.81,0,0,0-1.32.48,4.08,4.08,0,0,0-1.17,1.46,2.41,2.41,0,0,0-.27,1.61v0l.54-.12q.63-.21,1.51-.54T69,82.26l.46-.21,0,0Z"/><path class="cls-4" d="M81.42,96.74a.28.28,0,0,1-.08.21.27.27,0,0,1,.17.25.26.26,0,0,1-.29.29l-.75,0q-.8,0-1.13.08-.67,0-1.09,0a1.55,1.55,0,0,1-.46-.13.51.51,0,0,1-.33-.29.24.24,0,0,1,0-.17.59.59,0,0,1,0-.25,4.21,4.21,0,0,1,0-.67q0-.84,0-2.3,0-2.64,0-6.82.08-9.67.29-11a.26.26,0,0,1,.33-.25.16.16,0,0,1,.17.13q.54-.13,1.13-.21a5.27,5.27,0,0,1,.84-.08.68.68,0,0,1,.33,0,.45.45,0,0,1,.33.13l.08.13v3.56A6.66,6.66,0,0,1,81.63,78a7.88,7.88,0,0,1,3.47-2.64,4.08,4.08,0,0,1,4.27.46,2.83,2.83,0,0,1,.75,1.17,12.82,12.82,0,0,1,.46,1.8A34.48,34.48,0,0,1,91,83.56q.08,1.8.08,8.54v4.6a.33.33,0,0,0,0,.13v.13a.48.48,0,0,1-.08.13.53.53,0,0,1-.25.13H89.54l-.25,0-.42.13-.46.08a.17.17,0,0,0-.12,0h-.13a.36.36,0,0,1-.17,0,.56.56,0,0,1-.21-.46.32.32,0,0,0,0-.13v-.12q0-.92,0-3.47.17-3.56.17-4.69a36.65,36.65,0,0,0-.08-4.48,6.62,6.62,0,0,0-.63-2.76,2.1,2.1,0,0,0-1.59-.84q-1.34-.21-2.26,1.72a18.05,18.05,0,0,0-1.38,4.85,58.44,58.44,0,0,0-.63,8.58.29.29,0,0,1,.08.29l-.08.25v.17a.36.36,0,0,1,0,.17Z"/><path class="cls-4" d="M80.08,76.07a4.47,4.47,0,0,0-.79.08,9.87,9.87,0,0,0-1.17.21q-.17,2.26-.25,10.58,0,4.06,0,6.82,0,1.46,0,2.26a3.84,3.84,0,0,0,0,.67v.21H78a1.29,1.29,0,0,0,.29.08,9.67,9.67,0,0,0,1,0l1.09-.08a2.2,2.2,0,0,0,.5,0,.24.24,0,0,1-.08-.17v-.46a.38.38,0,0,1,0-.17A62.85,62.85,0,0,1,81.54,87a17.06,17.06,0,0,1,1.38-5q1.17-2.3,2.89-2a2.74,2.74,0,0,1,2,1.09,7,7,0,0,1,.71,3.05,37.05,37.05,0,0,1,.08,4.52q0,1.17-.17,4.69-.08,2.55,0,3.47v.13l.33-.08.42-.08.29-.08h1.09V92.1q0-6.69-.08-8.49A33.44,33.44,0,0,0,90,78.83a8.58,8.58,0,0,0-.42-1.7,1.89,1.89,0,0,0-.54-.86,3.54,3.54,0,0,0-3.72-.42,7.38,7.38,0,0,0-3.18,2.43,6.83,6.83,0,0,0-1.26,2.38,4.83,4.83,0,0,0-.12.54v.54a.12.12,0,0,0,0,.08.25.25,0,0,1-.33.13l-.17-.13a.12.12,0,0,1,0-.08v-.63q0-1,0-2.55V76.07S80.13,76,80.08,76.07Z"/><path class="cls-4" d="M96.69,80.67l-.59.25a3.92,3.92,0,0,0-.5.25A1,1,0,0,1,94.47,81a3.54,3.54,0,0,1-.33-1.88v-.29a3.52,3.52,0,0,1,0-.42,1.26,1.26,0,0,1,.21-.92,1.33,1.33,0,0,1,1-.38,5.72,5.72,0,0,1,1.13,0q.79.08,1,.08a1,1,0,0,0,.63-.21v0c0-.08.06-.18.08-.29v-1q0-.92-.17-2.89l-.21-2.89a5.78,5.78,0,0,1,0-1,1.3,1.3,0,0,1,0-.38.44.44,0,0,1,.17-.29.82.82,0,0,1,.59-.17,2.36,2.36,0,0,1,.75,0,5.24,5.24,0,0,1,1.09.25.17.17,0,0,1,.13,0,.26.26,0,0,1,.29.29v4.85q0,1.84.08,2.93a8.21,8.21,0,0,0,0,1,.57.57,0,0,0,0,.25h0a1.24,1.24,0,0,0,.46,0q.33,0,1.3-.08t1.34-.08a2.2,2.2,0,0,1,.5,0,.79.79,0,0,1,.46.17.54.54,0,0,1,.13.25v.63a4.61,4.61,0,0,1,0,.46v.25l.08.67c0,.2.06.35.08.46a1.26,1.26,0,0,1,0,.38.76.76,0,0,1-.46.42,3.13,3.13,0,0,1-.63.13,14.31,14.31,0,0,1-1.55,0l-.75,0-.79,0h-.46a.38.38,0,0,1,0,.17,17.66,17.66,0,0,1,.21,3.05q0,.25.38,6.69.17,2.34.17,3.72a10,10,0,0,1-.17,2.34.79.79,0,0,1-.58.46,2.46,2.46,0,0,1-.71.17,2.86,2.86,0,0,1-1.38-.13.49.49,0,0,1-.29-.29l-.13-.46c-.06-.33-.11-.78-.17-1.34q-.13-1.46-.21-4V84.27c0-.28,0-.56,0-.84a8.44,8.44,0,0,0,0-1q0-.88,0-1.38c0-.17-.06-.31-.08-.42a0,0,0,0,1,0,0A1.47,1.47,0,0,0,96.69,80.67Z"/><path class="cls-4" d="M104.55,78a1.44,1.44,0,0,0-.42,0q-.34,0-1.3.08t-1.34.08a1.45,1.45,0,0,1-.5,0,1,1,0,0,1-.46-.17.46.46,0,0,1-.08-.17.17.17,0,0,1,0-.12,1.08,1.08,0,0,1,0-.33,8.21,8.21,0,0,1,0-1q0-1.09-.08-3V68.83a6.89,6.89,0,0,0-1-.21,1.68,1.68,0,0,0-.63,0h-.25v.25a5.52,5.52,0,0,0,0,1l.21,2.89q.17,2,.17,2.93V76.7c0,.14-.06.26-.08.38a.63.63,0,0,1-.17.33,1.5,1.5,0,0,1-1,.38q-.38,0-1.17-.08a4.47,4.47,0,0,0-1,0,.71.71,0,0,0-.59.21,1.41,1.41,0,0,0,0,.46c0,.08,0,.22,0,.4s0,.3,0,.36A2.75,2.75,0,0,0,95,80.59c.06.11.2.13.42,0l.46-.21a3.89,3.89,0,0,1,.63-.29A2.12,2.12,0,0,1,97.9,80a.66.66,0,0,1,.33.42q0,.21.08.5a9.75,9.75,0,0,1,.08,1.42,8.94,8.94,0,0,1,0,1c0,.26,0,.54,0,.82v7.32q.08,2.47.21,3.89a6.41,6.41,0,0,0,.17,1.3,2.64,2.64,0,0,0,.08.33l0,0a3.54,3.54,0,0,0,1,0,3.07,3.07,0,0,0,.63-.12c.11,0,.17-.06.17-.08a8.38,8.38,0,0,0,.17-2.18q0-1.34-.17-3.68-.38-6.48-.38-6.74a16.5,16.5,0,0,0-.21-3v0a.48.48,0,0,1-.08-.12.44.44,0,0,1,.08-.46.41.41,0,0,1,.21-.17.58.58,0,0,1,.25,0h.54l.82,0,.73,0a13.47,13.47,0,0,0,1.51,0l.46-.08.08,0s0-.09,0-.19a3,3,0,0,1,0-.4c-.08-.45-.13-.7-.13-.75v-.29c0-.22,0-.36,0-.42V78Z"/><path d="M28.42,90.6h1l2.76-.21L35,90.22q.71,0,1.13,0a2.26,2.26,0,0,1,.79.17.71.71,0,0,1,.29.33,2.18,2.18,0,0,1,.13.46,9,9,0,0,1,.11,1.19,6.24,6.24,0,0,1-.06,1.19,2.2,2.2,0,0,1-.12.46.71.71,0,0,1-.29.33,1.63,1.63,0,0,1-.75.17l-1.3.08q-1.34,0-3.6,0-1.46,0-3.64,0l-2.47,0a.27.27,0,0,1-.29-.25.17.17,0,0,1-.13,0,.26.26,0,0,1-.29-.29q0-.92.21-4.43.17-2.76.13-4.35,0-2.38-.17-6-.17-4.1-.25-7.26t-.08-6v-.17a.27.27,0,0,1,.25-.29.4.4,0,0,1,.21-.17,1.88,1.88,0,0,1,.59-.13,9.17,9.17,0,0,1,1,0q1,0,2.64,0,2.89,0,4.35.08l.27,0,.5,0,.56,0c.33,0,.6,0,.8,0a1.1,1.1,0,0,1,.67.21.27.27,0,0,1,.13.13v.08a.24.24,0,0,1,0,.17,2.71,2.71,0,0,0,0,.42,10.55,10.55,0,0,1,0,1.34,8.2,8.2,0,0,1-.08,1.3,4.83,4.83,0,0,1-.08.5.66.66,0,0,1-.33.42,5.5,5.5,0,0,1-1.76.13l-2.55-.17q-1.92-.13-2.38-.13a3.22,3.22,0,0,0-.84.08.92.92,0,0,0-.29,0v.08a4.34,4.34,0,0,1,0,.5q0,.54,0,1.55c0,.33,0,.7-.06,1.09s0,.73,0,1,0,.45,0,.48,0,.27,0,.56,0,.63-.06,1,0,.77,0,1.13q0,1,0,1.55a2.84,2.84,0,0,0,0,.54v.13a1.39,1.39,0,0,0,.63.08l1.34-.12a4.48,4.48,0,0,1,1.34,0,.9.9,0,0,1,.88.79,9.22,9.22,0,0,1,.08,1.3,3.84,3.84,0,0,1,0,.79,1.11,1.11,0,0,1,0,.33,1,1,0,0,1-.13.29.73.73,0,0,1-.42.17,2.56,2.56,0,0,1-.5,0,9.34,9.34,0,0,1-1.3-.13,5.07,5.07,0,0,1-.61-.06,5.06,5.06,0,0,0-.65-.06l-.38,0v.17a5.78,5.78,0,0,0,0,.59c0,.11.06.26.08.44s.06.33.08.46a1.54,1.54,0,0,1,0,.31v3.26l0,2v.67A.58.58,0,0,0,28.42,90.6ZM35.49,65.7q-.29,0-.75,0l-.52,0-.54,0-.31,0q-1.51-.08-4.35-.08-1.63,0-2.64,0a7.22,7.22,0,0,0-.9,0l-.4,0,0,.08v0l-.08.08q0,2.89.08,6t.25,7.2q.12,3.64.17,6,0,1.63-.13,4.39-.21,3.51-.21,4.35a.17.17,0,0,1,.13,0l2.51,0q2.18,0,3.6,0,2.26,0,3.6,0L36.16,94a3.27,3.27,0,0,0,.54-.08,0,0,0,0,1,0,0,2.8,2.8,0,0,0,.08-.38,4.69,4.69,0,0,0,.06-1,7.72,7.72,0,0,0-.1-1.09A2.87,2.87,0,0,0,36.7,91a.12.12,0,0,0,0-.08,1.74,1.74,0,0,0-.54-.13h-1L32.18,91l-2.8.21h-1a1.1,1.1,0,0,1-.67-.21l-.13-.13v-1c0-.2,0-.52,0-1s0-.79,0-1V84.62a1.63,1.63,0,0,0,0-.23c0-.1,0-.23-.06-.4l-.12-.46c0-.31,0-.54,0-.71a1,1,0,0,1,.17-.63.34.34,0,0,1,.25-.08.24.24,0,0,1,.17,0,2.58,2.58,0,0,1,.42,0c.14,0,.36.06.67.08l.58,0a9.4,9.4,0,0,0,1.26.13,1.73,1.73,0,0,0,.42,0h.08v-.25a3.07,3.07,0,0,0,0-.71,8.36,8.36,0,0,0-.08-1.26q0-.25-.4-.31a4.92,4.92,0,0,0-1.19,0Q28.5,80,28.33,80q-.84,0-1.09-.33a.3.3,0,0,1-.12-.21v-.21a2.84,2.84,0,0,1,0-.54q0-.63,0-1.63,0-.5,0-1.11c0-.41,0-.75.06-1s0-.47,0-.52,0-.23,0-.52,0-.63,0-1,0-.75.06-1.09q0-1,0-1.55a4.69,4.69,0,0,0,0-.54.38.38,0,0,0,0-.17v-.08a.48.48,0,0,1,.08-.12,1.53,1.53,0,0,1,.67-.25,3.74,3.74,0,0,1,.88-.08q.54,0,2.47.13l2.51.17a8.44,8.44,0,0,0,1.51-.08,0,0,0,0,1,0,0,1.49,1.49,0,0,0,0-.42,7.38,7.38,0,0,0,.08-1.25,9.27,9.27,0,0,0,0-1.25,2.7,2.7,0,0,1,0-.42A.58.58,0,0,0,35.49,65.7Zm.33,0h-.08A.05.05,0,0,0,35.82,65.75Z"/><path d="M49,86.58a17.29,17.29,0,0,0,.46-2c0-.08.06-.18.08-.29l0-.08v-.12q.08-.29.25-1.09l.5-2q.25-1.17.5-2.09.46-1.92.79-3a8.7,8.7,0,0,1,.33-1.09,1.77,1.77,0,0,1,.33-.63.57.57,0,0,1,.29-.13,1.07,1.07,0,0,1,.33,0,4.69,4.69,0,0,1,.88,0,8.72,8.72,0,0,1,.88,0,2.15,2.15,0,0,1,.54,0,.53.53,0,0,1,.33.42,1.47,1.47,0,0,1,.08.54,7.88,7.88,0,0,1-.17,1.38l-.54,2.43a57.83,57.83,0,0,1-1.8,5.56A44.57,44.57,0,0,0,51.39,90q-.42,2-.54,2.47l-.42,1.38a2,2,0,0,1-.21.54.62.62,0,0,1-.21.33.93.93,0,0,1-.33.13,1.53,1.53,0,0,1-.38,0,5,5,0,0,1-.92,0,4.7,4.7,0,0,1-.92-.08,1.11,1.11,0,0,1-.33,0,1.8,1.8,0,0,1-.33-.17.5.5,0,0,1-.08-.12l-.08-.17a5.17,5.17,0,0,1-.17-.5q-.21-.59-.5-1.59l-1.34-4.81-2.22-8.24a7.94,7.94,0,0,0-.27-.92q-.27-.84-.44-1.42-.21-.88-.29-1.38a4.71,4.71,0,0,1,0-.54.54.54,0,0,1,.21-.5,1.37,1.37,0,0,1,.75-.17,5.43,5.43,0,0,1,1,0,11.72,11.72,0,0,1,1.63.25.3.3,0,0,1,.21.38c0,.14-.12.21-.29.21q.17.5.46,1.59l.79,2.64.79,2.64q1,3.18,1.3,4.06t.5,1.34l.08.08Q48.83,87.08,49,86.58ZM52.47,75l-.33,1q-.33,1.09-.79,3l-.46,2.09-.5,2q-.17.8-.25,1.09l-.08.21a.68.68,0,0,0,0,.21q-.21,1-.46,2.09c-.11.39-.21.7-.29.92a1.8,1.8,0,0,1-.17.33.48.48,0,0,1-.08.13.29.29,0,0,1-.29.08,1,1,0,0,1-.25-.12.46.46,0,0,1-.08-.17,1.35,1.35,0,0,1-.25-.42q-.21-.46-.5-1.34-.5-1.42-1.3-4.1l-.88-2.89-.84-2.8a12,12,0,0,0-.46-1.46q-.46-.08-.92-.13a4.68,4.68,0,0,0-.88,0,1.49,1.49,0,0,0-.42,0v0a2.58,2.58,0,0,0,0,.42,7,7,0,0,0,.29,1.34L42.68,78q.25.84.29.92l2.18,8.24L46.49,92q.34,1,.5,1.59a1.57,1.57,0,0,0,.17.42.34.34,0,0,1,0,.13h0a.92.92,0,0,0,.29,0,5,5,0,0,0,.88.1,5.17,5.17,0,0,0,.84,0h.38l.08-.17a2.83,2.83,0,0,0,.17-.46q.17-.5.38-1.38t.54-2.38a45.09,45.09,0,0,1,1.76-5.65,55.42,55.42,0,0,0,1.76-5.52q.46-1.84.54-2.38A6.5,6.5,0,0,0,55,75.08a1.25,1.25,0,0,0,0-.38v0l-.38,0h-.84a4.09,4.09,0,0,0-.84,0,.58.58,0,0,0-.25,0h0Z"/><path d="M64.4,85.12l-.33,0a1.38,1.38,0,0,1-.42.08c-.28.08-.43.16-.46.23a2,2,0,0,0-.08.4c0,.2,0,.45,0,.75a11.94,11.94,0,0,0,.38,2,9.19,9.19,0,0,0,.75,1.92q.42.75.75.79a2.83,2.83,0,0,0,2.38-.69,4.51,4.51,0,0,0,1.42-2.36,1.21,1.21,0,0,0,0-.46,1.08,1.08,0,0,1,.21-.71.68.68,0,0,1,.38-.17,1.53,1.53,0,0,1,.38,0,5.72,5.72,0,0,1,1,.1,9.58,9.58,0,0,1,1,.23,1.63,1.63,0,0,1,.38.17.49.49,0,0,1,.29.29,2.31,2.31,0,0,1,.08,1.42,8.26,8.26,0,0,1-.33,1.25,6.94,6.94,0,0,1-1.88,2.72,8.64,8.64,0,0,1-2.84,1.74,7.41,7.41,0,0,1-3.29.4,6.69,6.69,0,0,1-3.16-1.13Q59,92.65,58.54,88.67a18.38,18.38,0,0,1,.88-7.57A13,13,0,0,1,63.22,75a6.29,6.29,0,0,1,6.53-1,3.44,3.44,0,0,1,1.67,1.88,11,11,0,0,1,.88,2.93,15.45,15.45,0,0,1,.21,2.89,3.46,3.46,0,0,1-.21,1,.93.93,0,0,1-.44.69,10.73,10.73,0,0,1-1.53.44l-2.43.54q-2.18.46-3.35.63A.66.66,0,0,1,64.4,85.12Zm3.39-1.3q1.38-.29,2.43-.59a8.49,8.49,0,0,0,1.38-.38c.06,0,.11-.14.17-.33a3.36,3.36,0,0,0,.17-.92,13.78,13.78,0,0,0-.21-2.72,10.78,10.78,0,0,0-.84-2.8,2.58,2.58,0,0,0-1.38-1.55,5.59,5.59,0,0,0-5.9.88A12.38,12.38,0,0,0,60,81.31a18.62,18.62,0,0,0-.84,7.32q.38,3.68,2.3,5a6.63,6.63,0,0,0,3.91,1.07,7.35,7.35,0,0,0,3.83-1.34,6.54,6.54,0,0,0,2.51-3.12A4.6,4.6,0,0,0,72,89.05,2.3,2.3,0,0,0,72,88a0,0,0,0,1,0,0l-.29-.08a7.44,7.44,0,0,0-.9-.23,4.88,4.88,0,0,0-.94-.1.92.92,0,0,0-.29,0h0a.73.73,0,0,0,0,.29,3.1,3.1,0,0,1,0,.63,5.56,5.56,0,0,1-1.65,2.66,3.28,3.28,0,0,1-2.82.82q-.63-.12-1.21-1.13a10.1,10.1,0,0,1-.75-2,10.62,10.62,0,0,1-.42-2.13c0-.33,0-.61,0-.84a1.55,1.55,0,0,1,.17-.63,1.21,1.21,0,0,1,.84-.5.3.3,0,0,1,.29-.21A30.74,30.74,0,0,0,67.79,83.82ZM64.27,79.2a5.2,5.2,0,0,1,1.25-1.57A2.31,2.31,0,0,1,67.28,77a2,2,0,0,1,1.46,1.51l.17.67a2.91,2.91,0,0,1,.13.38A.82.82,0,0,1,69,80a.52.52,0,0,1-.12.21l0,0-.21.08a2.13,2.13,0,0,1-.5.25q-.58.25-1.46.59l-1.55.5a3.89,3.89,0,0,1-.54.17.46.46,0,0,0-.21,0h-.21a.52.52,0,0,1-.33-.38.17.17,0,0,0,0-.12v-.08a.28.28,0,0,1,0-.29A3.42,3.42,0,0,1,64.27,79.2Zm4.18.52c0-.11-.06-.24-.08-.38s-.13-.4-.21-.63q-.29-1-1-1.09a1.81,1.81,0,0,0-1.32.48,4.08,4.08,0,0,0-1.17,1.46,2.41,2.41,0,0,0-.27,1.61v0L65,81.1q.63-.21,1.51-.54T68,80l.46-.21,0,0Z"/><path d="M80.42,94.49a.28.28,0,0,1-.08.21.27.27,0,0,1,.17.25.26.26,0,0,1-.29.29l-.75,0q-.8,0-1.13.08-.67,0-1.09,0a1.55,1.55,0,0,1-.46-.13.51.51,0,0,1-.33-.29.24.24,0,0,1,0-.17.59.59,0,0,1,0-.25,4.21,4.21,0,0,1,0-.67q0-.84,0-2.3,0-2.64,0-6.82.08-9.67.29-11a.26.26,0,0,1,.33-.25.16.16,0,0,1,.17.13q.54-.13,1.13-.21a5.27,5.27,0,0,1,.84-.08.68.68,0,0,1,.33,0,.45.45,0,0,1,.33.13l.08.13V77a6.66,6.66,0,0,1,.84-1.34,7.88,7.88,0,0,1,3.47-2.64,4.08,4.08,0,0,1,4.27.46,2.83,2.83,0,0,1,.75,1.17,12.82,12.82,0,0,1,.46,1.8A34.48,34.48,0,0,1,90,81.31q.08,1.8.08,8.54v4.6a.33.33,0,0,0,0,.13v.13a.48.48,0,0,1-.08.13.53.53,0,0,1-.25.13H88.54l-.25,0-.42.13-.46.08a.17.17,0,0,0-.12,0h-.13a.36.36,0,0,1-.17,0,.56.56,0,0,1-.21-.46.32.32,0,0,0,0-.13v-.12q0-.92,0-3.47.17-3.56.17-4.69a36.65,36.65,0,0,0-.08-4.48,6.62,6.62,0,0,0-.63-2.76,2.1,2.1,0,0,0-1.59-.84Q83.39,78,82.47,80a18.05,18.05,0,0,0-1.38,4.85,58.44,58.44,0,0,0-.63,8.58.29.29,0,0,1,.08.29l-.08.25v.17a.36.36,0,0,1,0,.17ZM79.08,73.82a4.47,4.47,0,0,0-.79.08,9.87,9.87,0,0,0-1.17.21q-.17,2.26-.25,10.58,0,4.06,0,6.82,0,1.46,0,2.26a3.84,3.84,0,0,0,0,.67v.21H77a1.29,1.29,0,0,0,.29.08,9.67,9.67,0,0,0,1,0l1.09-.08a2.2,2.2,0,0,0,.5,0,.24.24,0,0,1-.08-.17V94a.38.38,0,0,1,0-.17,62.85,62.85,0,0,1,.67-9.12,17.06,17.06,0,0,1,1.38-5q1.17-2.3,2.89-2a2.74,2.74,0,0,1,2,1.09,7,7,0,0,1,.71,3.05,37.05,37.05,0,0,1,.08,4.52q0,1.17-.17,4.69-.08,2.55,0,3.47v.13l.33-.08.42-.08.29-.08h1.09V89.85q0-6.69-.08-8.49A33.44,33.44,0,0,0,89,76.58a8.58,8.58,0,0,0-.42-1.7A1.89,1.89,0,0,0,88,74a3.54,3.54,0,0,0-3.72-.42A7.38,7.38,0,0,0,81.13,76a6.83,6.83,0,0,0-1.26,2.38,4.83,4.83,0,0,0-.12.54v.54a.12.12,0,0,0,0,.08.25.25,0,0,1-.33.13l-.17-.13a.12.12,0,0,1,0-.08v-.63q0-1,0-2.55V73.82S79.13,73.79,79.08,73.82ZM89.67,94.36h0Z"/><path d="M95.69,78.42l-.59.25a3.92,3.92,0,0,0-.5.25,1,1,0,0,1-1.13-.21,3.54,3.54,0,0,1-.33-1.88v-.29a3.52,3.52,0,0,1,0-.42,1.26,1.26,0,0,1,.21-.92,1.33,1.33,0,0,1,1-.38,5.72,5.72,0,0,1,1.13,0q.79.08,1,.08a1,1,0,0,0,.63-.21v0c0-.08.06-.18.08-.29v-1q0-.92-.17-2.89l-.21-2.89a5.78,5.78,0,0,1,0-1,1.3,1.3,0,0,1,0-.38.44.44,0,0,1,.17-.29.82.82,0,0,1,.59-.17,2.36,2.36,0,0,1,.75,0,5.24,5.24,0,0,1,1.09.25.17.17,0,0,1,.13,0,.26.26,0,0,1,.29.29v4.85q0,1.84.08,2.93a8.21,8.21,0,0,0,0,1,.57.57,0,0,0,0,.25h0a1.24,1.24,0,0,0,.46,0q.33,0,1.3-.08t1.34-.08a2.2,2.2,0,0,1,.5,0,.79.79,0,0,1,.46.17.54.54,0,0,1,.13.25v.63a4.61,4.61,0,0,1,0,.46v.25l.08.67c0,.2.06.35.08.46a1.26,1.26,0,0,1,0,.38.76.76,0,0,1-.46.42,3.13,3.13,0,0,1-.63.13,14.31,14.31,0,0,1-1.55,0l-.75,0-.79,0h-.46a.38.38,0,0,1,0,.17,17.66,17.66,0,0,1,.21,3.05q0,.25.38,6.69.17,2.34.17,3.72a10,10,0,0,1-.17,2.34.79.79,0,0,1-.58.46,2.46,2.46,0,0,1-.71.17,2.86,2.86,0,0,1-1.38-.13.49.49,0,0,1-.29-.29l-.13-.46c-.06-.33-.11-.78-.17-1.34q-.13-1.46-.21-4V82c0-.28,0-.56,0-.84a8.44,8.44,0,0,0,0-1q0-.88,0-1.38c0-.17-.06-.31-.08-.42a0,0,0,0,1,0,0A1.47,1.47,0,0,0,95.69,78.42Zm7.87-2.68a1.44,1.44,0,0,0-.42,0q-.34,0-1.3.08t-1.34.08a1.45,1.45,0,0,1-.5,0,1,1,0,0,1-.46-.17.46.46,0,0,1-.08-.17.17.17,0,0,1,0-.12,1.08,1.08,0,0,1,0-.33,8.21,8.21,0,0,1,0-1q0-1.09-.08-3V66.58a6.89,6.89,0,0,0-1-.21,1.68,1.68,0,0,0-.63,0h-.25v.25a5.52,5.52,0,0,0,0,1l.21,2.89q.17,2,.17,2.93v1.09c0,.14-.06.26-.08.38a.63.63,0,0,1-.17.33,1.5,1.5,0,0,1-1,.38q-.38,0-1.17-.08a4.47,4.47,0,0,0-1,0,.71.71,0,0,0-.59.21,1.41,1.41,0,0,0,0,.46c0,.08,0,.22,0,.4s0,.3,0,.36A2.75,2.75,0,0,0,94,78.34c.06.11.2.13.42,0l.46-.21a3.89,3.89,0,0,1,.63-.29,2.12,2.12,0,0,1,1.42-.08.66.66,0,0,1,.33.42q0,.21.08.5a9.75,9.75,0,0,1,.08,1.42,8.94,8.94,0,0,1,0,1c0,.26,0,.54,0,.82V89.3q.08,2.47.21,3.89a6.41,6.41,0,0,0,.17,1.3,2.64,2.64,0,0,0,.08.33l0,0a3.54,3.54,0,0,0,1,0,3.07,3.07,0,0,0,.63-.12c.11,0,.17-.06.17-.08a8.38,8.38,0,0,0,.17-2.18q0-1.34-.17-3.68-.38-6.48-.38-6.74a16.5,16.5,0,0,0-.21-3v0A.48.48,0,0,1,99,79a.44.44,0,0,1,.08-.46.41.41,0,0,1,.21-.17.58.58,0,0,1,.25,0h.54l.82,0,.73,0a13.47,13.47,0,0,0,1.51,0l.46-.08.08,0s0-.09,0-.19a3,3,0,0,1,0-.4c-.08-.45-.13-.7-.13-.75v-.29c0-.22,0-.36,0-.42v-.46Z"/></g></svg>