<svg xmlns="http://www.w3.org/2000/svg" viewBox="0 0 190.91 98.4"><defs><style>.cls-1{fill:#0071b2;}.cls-2{fill:#333;}</style></defs><title>bar-アートボード 68</title><g id="コンテンツ"><path class="cls-1" d="M23.19,76.63a4.86,4.86,0,0,1,.88,0,1.09,1.09,0,0,1,.68.32,6171448363267.9,6171448363267.9,0,0,1,.08.32,2.46,2.46,0,0,1,0,.48q0,.52,0,1.48v4.36q0,1.4,0,3.08t0,2.8q0,1.12,0,1.4v.56c0,.32,0,.68,0,1.08s0,.77,0,1.12q0,1-.08,1.64c0,.27-.05.47-.08.6a1.26,1.26,0,0,1-.08.24.36.36,0,0,1-.2.2,3,3,0,0,1-1.28.28,2.1,2.1,0,0,1-.72,0,.75.75,0,0,1-.56-.44,4.21,4.21,0,0,1-.08-1.52q0-.16,0-.44t0-.36q0-.44,0-.68,0-1.84,0-8.16,0-4.84-.16-7.6a.36.36,0,0,1-.2-.24.23.23,0,0,1,.16-.28c0-.19.08-.28.24-.28a.29.29,0,0,1,.28.16A6.66,6.66,0,0,1,23.19,76.63Z"/><path class="cls-1" d="M21.91,71.56a1.43,1.43,0,0,1,1.1-.64,1.57,1.57,0,0,1,1.14.36,2.35,2.35,0,0,1,.8,1,1.57,1.57,0,0,1,.08,1.2,1.27,1.27,0,0,1-1,.88,1.75,1.75,0,0,1-1.36-.16A1.44,1.44,0,0,1,21.75,73a1.94,1.94,0,0,1,.2-1.12A.27.27,0,0,1,21.91,71.56Z"/><path class="cls-1" d="M24,77.2a3.47,3.47,0,0,0-.76,0,6.3,6.3,0,0,0-1,.08q.2,2.8.16,7.68,0,6.32,0,8.16,0,.24,0,.72,0,.08,0,.36c0,.19,0,.32,0,.4A3.3,3.3,0,0,0,22.43,96s.05.05.16.08a2,2,0,0,0,.56,0,2.23,2.23,0,0,0,1-.16.17.17,0,0,0,0-.12q0-.2.08-.52,0-.56.08-1.6c0-.35,0-.72,0-1.12s0-.76,0-1.08v-.56q0-.28,0-1.4t0-2.8q0-1.68,0-3.08V79.23q0-1,0-1.48a1.68,1.68,0,0,0,0-.4v-.08A1.19,1.19,0,0,0,24,77.2Z"/><path class="cls-1" d="M22.31,72.92a1.06,1.06,0,0,0,.56.76,1.44,1.44,0,0,0,1,.12.76.76,0,0,0,.6-.52,1.32,1.32,0,0,0-.64-1.56,1.08,1.08,0,0,0-1-.16A2,2,0,0,0,22.31,72.92Z"/><path class="cls-1" d="M32.51,96.11a.27.27,0,0,1-.08.2.26.26,0,0,1,.16.24.25.25,0,0,1-.28.28l-.72,0q-.76,0-1.08.08-.64,0-1,0a1.51,1.51,0,0,1-.44-.12.48.48,0,0,1-.32-.28.23.23,0,0,1,0-.16.55.55,0,0,1,0-.24,4.05,4.05,0,0,1,0-.64q0-.8,0-2.2,0-2.52,0-6.52.08-9.24.28-10.56a.25.25,0,0,1,.32-.24.16.16,0,0,1,.16.12q.52-.12,1.08-.2a5.1,5.1,0,0,1,.8-.08.65.65,0,0,1,.32,0,.43.43,0,0,1,.32.12l.08.12v3.4a6.41,6.41,0,0,1,.8-1.28A7.53,7.53,0,0,1,36,75.64a3.91,3.91,0,0,1,4.08.44,2.7,2.7,0,0,1,.72,1.12,12.18,12.18,0,0,1,.44,1.72,33.1,33.1,0,0,1,.44,4.6q.08,1.72.08,8.16v4.4a.3.3,0,0,0,0,.12v.12a.45.45,0,0,1-.08.12.5.5,0,0,1-.24.12H40.27l-.24,0-.4.12-.44.08a.16.16,0,0,0-.12,0h-.12a.36.36,0,0,1-.16,0,.53.53,0,0,1-.2-.44.3.3,0,0,0,0-.12v-.12q0-.88,0-3.32.16-3.4.16-4.48A35,35,0,0,0,38.75,84a6.33,6.33,0,0,0-.6-2.64,2,2,0,0,0-1.52-.8q-1.28-.2-2.16,1.64a17.3,17.3,0,0,0-1.32,4.64,55.84,55.84,0,0,0-.6,8.2.28.28,0,0,1,.08.28l-.08.24v.16a.36.36,0,0,1,0,.16Z"/><path class="cls-1" d="M31.23,76.36a4.3,4.3,0,0,0-.76.08,9.43,9.43,0,0,0-1.12.2q-.16,2.16-.24,10.12,0,3.88,0,6.52,0,1.4,0,2.16a3.67,3.67,0,0,0,0,.64v.2h.08a1.19,1.19,0,0,0,.28.08,8.91,8.91,0,0,0,1,0l1-.08a2.09,2.09,0,0,0,.48,0,.23.23,0,0,1-.08-.16v-.44a.35.35,0,0,1,0-.16,60.07,60.07,0,0,1,.64-8.72A16.32,16.32,0,0,1,33.95,82q1.12-2.2,2.76-2a2.63,2.63,0,0,1,1.92,1A6.73,6.73,0,0,1,39.31,84a35.58,35.58,0,0,1,.08,4.32q0,1.12-.16,4.48-.08,2.44,0,3.32v.12l.32-.08.4-.08.28-.08h1V91.67q0-6.4-.08-8.12A31.93,31.93,0,0,0,40.71,79a8.15,8.15,0,0,0-.4-1.62,1.81,1.81,0,0,0-.52-.82,3.39,3.39,0,0,0-3.56-.4,7.06,7.06,0,0,0-3,2.32A6.52,6.52,0,0,0,32,80.75a4.79,4.79,0,0,0-.12.52v.52a.12.12,0,0,0,0,.08.24.24,0,0,1-.32.12l-.16-.12a.11.11,0,0,1,0-.08v-.6q0-1,0-2.44v-2.4S31.28,76.33,31.23,76.36Z"/><path class="cls-1" d="M52.59,72.56a2.15,2.15,0,0,0-.2-1l0,0a.44.44,0,0,0-.28.16,1.88,1.88,0,0,0-.36,1.08q-.08.8-.08,2a27.49,27.49,0,0,0,.24,3.36l1-.06q.84-.06,1.32-.06,1.68.08,2,1.16.4,1.44-.24,2a2,2,0,0,1-1.56.28l-.88-.12-.84-.16a1.36,1.36,0,0,0-1,.2v2.24c0,.4.05.87.08,1.4s.05,1.16.08,1.88,0,1.29,0,1.72q.12,3.36.16,5,0,1.12,0,1.76,0,.36-.08.56a.7.7,0,0,1-.16.4.88.88,0,0,1-.32.12,1,1,0,0,1-.32,0,3.64,3.64,0,0,1-.76,0,5.05,5.05,0,0,1-.8-.12.88.88,0,0,1-.32-.12.59.59,0,0,1-.28-.2,1.36,1.36,0,0,1-.08-.32,1.42,1.42,0,0,1,0-.4q0-.44-.08-1.24,0-1.36-.08-3.64,0-3,0-6.08,0-.12,0-.8t0-1.12a6.85,6.85,0,0,0-.06-1q-.06-.38-.18-.46a1.06,1.06,0,0,0-.6,0q-.08,0-1.08.2a3.8,3.8,0,0,1-1.12.12.91.91,0,0,1-.88-.52,1.78,1.78,0,0,1-.12-.56v-.76a6.19,6.19,0,0,1,0-.76.88.88,0,0,1,0-.28.87.87,0,0,1,.12-.28l.12-.08h2l1.32.08h.36q0-.32-.08-2.1t-.08-2.86a20.64,20.64,0,0,1,.16-2.84,3.67,3.67,0,0,1,.72-2,2.28,2.28,0,0,1,.34-.28,1.09,1.09,0,0,1,.44-.16l.38,0h.76A4.38,4.38,0,0,1,54.63,69a2.79,2.79,0,0,1,.56,1.2A10.92,10.92,0,0,1,55.55,72a8,8,0,0,1,0,1.76,1.68,1.68,0,0,1-.48,1.2,2.15,2.15,0,0,1-1.16.24h-.56l-.48,0h-.24a.26.26,0,0,1-.2-.36A5.83,5.83,0,0,0,52.59,72.56Z"/><path class="cls-1" d="M48.91,78.79a.16.16,0,0,0-.12,0h-.48L47,78.67H45.35v.16a4.87,4.87,0,0,0,0,.68v.72c0,.21,0,.33,0,.36s.2.2.44.2a2.85,2.85,0,0,0,1-.12l1.12-.2a1.45,1.45,0,0,1,1,.08,1.09,1.09,0,0,1,.4.84,6.45,6.45,0,0,1,.08,1.12q0,.48,0,1.16c0,.45,0,.71,0,.76q0,3.16,0,6,0,2.32.08,3.68,0,.76.08,1.2a1.21,1.21,0,0,0,0,.36v.08h0l.2.08a5.25,5.25,0,0,0,.72.12,3.27,3.27,0,0,0,.72,0h.24v-.12a4.39,4.39,0,0,0,.08-.48q0-.6,0-1.72,0-1.68-.16-5,0-.64,0-1.72t-.08-1.88q0-.8-.08-1.4v-2.4a1.57,1.57,0,0,1,.08-.2,1.6,1.6,0,0,1,1.52-.4,5.1,5.1,0,0,1,.88.12l.84.12a1.5,1.5,0,0,0,1.12-.12q.36-.32,0-1.44-.16-.68-1.48-.76l-1.24,0q-.92.08-1.16.08a.27.27,0,0,1-.2-.08.28.28,0,0,1-.24-.24,22.83,22.83,0,0,1-.28-3.6,15.06,15.06,0,0,1,.12-2.08,2.27,2.27,0,0,1,.48-1.4.92.92,0,0,1,.64-.32.51.51,0,0,1,.52.28,2.24,2.24,0,0,1,.32,1.24,8.87,8.87,0,0,1-.08,2,1.67,1.67,0,0,1,.32,0h.56a1.48,1.48,0,0,0,.84-.16q.2-.12.26-.78A7.72,7.72,0,0,0,55,72a10.85,10.85,0,0,0-.34-1.62,3.05,3.05,0,0,0-.42-1,3.85,3.85,0,0,0-2.88-.92h-.64l-.24,0-.24,0-.2.08a.52.52,0,0,0-.2.18,3.45,3.45,0,0,0-.56,1.64,19.4,19.4,0,0,0-.16,2.76q0,1.12.08,2.92t.08,2.2a.26.26,0,0,1,0,.24.2.2,0,0,1-.16.1.36.36,0,0,0-.2.1Z"/><path class="cls-1" d="M63.31,76.91a4.38,4.38,0,0,1,3.16-.08,7.21,7.21,0,0,1,3.4,2,7,7,0,0,1,1.92,3.52,12.46,12.46,0,0,1,.12,3.44,20,20,0,0,1-.68,4.2q-1.4,5.16-4.28,5.92t-5.28-2.2a10.92,10.92,0,0,1-2.24-5.48,15.81,15.81,0,0,1,.08-3.1,20.41,20.41,0,0,1,.72-3.7,10.42,10.42,0,0,1,1.56-3.32,4,4,0,0,1,1.48-1.24Z"/><path class="cls-1" d="M62.23,78.51a9.46,9.46,0,0,0-1.48,3.12,22.06,22.06,0,0,0-.68,3.6,14.45,14.45,0,0,0-.08,3,10.68,10.68,0,0,0,2.12,5.24q2.08,2.64,4.68,2t3.88-5.52a19.49,19.49,0,0,0,.7-4.08,11.89,11.89,0,0,0-.14-3.32,6.49,6.49,0,0,0-1.76-3.22,6.26,6.26,0,0,0-3.16-1.86,5.7,5.7,0,0,0-1.72-.2.36.36,0,0,1-.16,0A2.81,2.81,0,0,0,62.23,78.51Z"/><path class="cls-1" d="M63.63,81.51a3.1,3.1,0,0,1,3.32-1.24,3.31,3.31,0,0,1,2.2,2.92,14.49,14.49,0,0,1-.4,5.2A9.72,9.72,0,0,1,67.83,91a2.15,2.15,0,0,1-1.6,1.32,3.16,3.16,0,0,1-3-1.4,7.21,7.21,0,0,1-1.16-3.76,9.33,9.33,0,0,1,.56-3.92,6.47,6.47,0,0,1,.92-1.6A.23.23,0,0,1,63.63,81.51Z"/><path class="cls-1" d="M63.19,83.47a8.36,8.36,0,0,0-.56,3.68,6.22,6.22,0,0,0,1,3.44,2.73,2.73,0,0,0,2.58,1.2q.56,0,1.12-1a10.6,10.6,0,0,0,.84-2.52,13.19,13.19,0,0,0,.4-5,2.7,2.7,0,0,0-1.8-2.44,2.23,2.23,0,0,0-1.68.2.26.26,0,0,1-.2.32A3.27,3.27,0,0,0,63.19,83.47Z"/><path class="cls-1" d="M79.43,78.51l.36-.24.32-.16a4.19,4.19,0,0,1,4,1A4.91,4.91,0,0,1,86,82.83v.24a.5.5,0,0,1-.08.4.83.83,0,0,1-.36.24,2.69,2.69,0,0,1-.4.2l-.4.16-.28.08-.28.16a1.86,1.86,0,0,1-.44.2,1,1,0,0,1-1,0,.85.85,0,0,1-.24-.4q0-.08-.24-.6a7.55,7.55,0,0,0-.72-1.36,1.51,1.51,0,0,0-.88-.76q-.56-.08-1.28.72a5.72,5.72,0,0,0-.72,2.84,47.1,47.1,0,0,0-.12,4.72q0,.44,0,2.1t0,2.38a10.79,10.79,0,0,1-.08,1.52c0,.21-.05.39-.08.52a.5.5,0,0,1-.28.36,1.78,1.78,0,0,1-.72.16q-.44,0-1,0a4.46,4.46,0,0,1-1-.16,1.41,1.41,0,0,1-.36-.12.65.65,0,0,1-.28-.32,6.31,6.31,0,0,1-.12-1.16q0-.84,0-2.12,0-2.4.08-6,.16-6.76.36-9.6a.27.27,0,0,1-.08-.2.26.26,0,0,1,.16-.24.29.29,0,0,1,.28-.16.16.16,0,0,1,.16.12q.68,0,3,0a.25.25,0,0,1,.28.28v0a.27.27,0,0,1,.12.24c0,.05,0,.19,0,.4v.6a2.51,2.51,0,0,0,0,.48v0A1.76,1.76,0,0,0,79.43,78.51Z"/><path class="cls-1" d="M77.95,96a1.9,1.9,0,0,0,0-.44,9.52,9.52,0,0,0,.08-1.44q0-.72,0-2.36t0-2.12a47.54,47.54,0,0,1,.12-4.76,5.88,5.88,0,0,1,.88-3.2,1.68,1.68,0,0,1,3,.12,14.39,14.39,0,0,1,.76,1.48,3.74,3.74,0,0,0,.24.56.94.94,0,0,0,.12.24q.08.08.44-.08a1.38,1.38,0,0,0,.36-.16,1.53,1.53,0,0,1,.32-.16l.32-.12.4-.16.36-.2.12,0v-.32a4.51,4.51,0,0,0-1.68-3.28,3.69,3.69,0,0,0-3.52-.88.41.41,0,0,0-.16.08l-.4.24a3.86,3.86,0,0,1-.4.24l-.2.08a.34.34,0,0,1-.28,0,.65.65,0,0,1-.32-.48,4,4,0,0,1,0-.64v-.56c0-.24,0-.37,0-.4q-2,0-2.76,0-.2,2.8-.36,9.52-.08,3.64-.08,6,0,1.32,0,2.12a9.6,9.6,0,0,0,.08,1,0,0,0,0,1,0,0l.24.08a5.39,5.39,0,0,0,.84.12q.48,0,.88,0a2.93,2.93,0,0,0,.48-.08Z"/><path class="cls-1" d="M92.79,96.27q-.56,0-.8.08a4.25,4.25,0,0,1-.84,0,1.57,1.57,0,0,1-.64-.16.49.49,0,0,1-.12-.2.36.36,0,0,1,0-.16,2.12,2.12,0,0,1,0-.48,10.39,10.39,0,0,1-.08-1.48q-.08-1.64-.08-4.52V77.24l-.08-.36a.59.59,0,0,1,.16-.68,1.2,1.2,0,0,1,.84-.12l.22,0,.24,0,.18,0,.16,0,.2,0,.2,0a1.31,1.31,0,0,1,.76.12,1.28,1.28,0,0,1,.16.2.75.75,0,0,1,0,.24q0,.2.08.56t0,1.52v1a4.15,4.15,0,0,0,.26-.4l.18-.32a10.64,10.64,0,0,1,1.48-2,2.7,2.7,0,0,1,1.16-.72,1.11,1.11,0,0,1,1.24.44,5.54,5.54,0,0,1,.88,2.8q.08.6.12,1.6t.08,1.24a18.05,18.05,0,0,1,.92-3,8.53,8.53,0,0,1,1.68-2.72,2.33,2.33,0,0,1,2.48-.68,2.46,2.46,0,0,1,1.6,1.2,12.47,12.47,0,0,1,1,4.42,26.19,26.19,0,0,1-.1,4.94q0,.44-.12,1.92t-.14,2.12q0,.64-.06,1.76a18.67,18.67,0,0,0,0,2,13.08,13.08,0,0,0,.22,1.64.26.26,0,0,1-.12.28v.08a.25.25,0,0,1-.28.28l-.68,0a8.31,8.31,0,0,0-1,.12q-.6,0-1,0a2.19,2.19,0,0,1-.76-.16.24.24,0,0,1-.16-.16v-.08a.23.23,0,0,1,0-.16V94.31q0-.44,0-2t0-2.48q0-2.8,0-4.48a13.12,13.12,0,0,0-.12-1.48c0-.19-.05-.33-.08-.44v0l-.16,0a.7.7,0,0,0-.2.2,3.81,3.81,0,0,0-.36,1.2,15.45,15.45,0,0,0-.24,1.76q-.16,1.2-.24,1.64a.12.12,0,0,1,0,.08v.2a.73.73,0,0,1-.24.32,1.48,1.48,0,0,1-.6.16q-.28,0-.68,0l-.72,0-.44,0-.44,0-.56,0a2.59,2.59,0,0,1-1.12-.12.66.66,0,0,1-.32-.44q0-.24-.08-.64a7.47,7.47,0,0,1-.06-.84q0-.6,0-.84a7.87,7.87,0,0,0-.24-1.6q-.16-.56-.42-.6a.54.54,0,0,0-.5.28,4.35,4.35,0,0,0-.52,1.16,23,23,0,0,0-.52,3.92q-.08,2.12,0,4.24a9.6,9.6,0,0,0,.28,2.44q.12.28-.12.36a.35.35,0,0,1-.16,0h-.08Z"/><path class="cls-1" d="M103.27,96.19c.24,0,.53,0,.88,0q.16,0,1-.12l.6,0a13.17,13.17,0,0,1-.22-1.68,19.57,19.57,0,0,1,0-2q0-1.12.06-1.8t.14-2.14q.12-1.46.12-1.9a29.47,29.47,0,0,0,.08-4.86,12.44,12.44,0,0,0-.92-4.22,2,2,0,0,0-1.28-.88,1.82,1.82,0,0,0-2,.52,7.53,7.53,0,0,0-1.52,2.56,16.17,16.17,0,0,0-1.28,5.24v.48l0,0v0a.26.26,0,0,1-.12.12.27.27,0,0,1-.32,0,.16.16,0,0,1,0-.12l0,0V84.23q0-.32-.16-1.8,0-.24-.08-1.26T98,79.55A5.15,5.15,0,0,0,97.27,77a.69.69,0,0,0-.7-.22,2.33,2.33,0,0,0-.9.58,9.85,9.85,0,0,0-1.4,1.88,6.88,6.88,0,0,0-.72,1.36v.2a.45.45,0,0,1,0,.2.25.25,0,0,1-.18.2.3.3,0,0,1-.26,0,.6.6,0,0,1-.16-.12.31.31,0,0,0,0-.12v-.2a2.38,2.38,0,0,1,0-.52q0-.24,0-1.52,0-1,0-1.48a4.45,4.45,0,0,1,0-.52.11.11,0,0,1,0-.08.65.65,0,0,0-.32,0l-.64.08L91,76.63a1,1,0,0,0-.4,0v.08a3.47,3.47,0,0,1,.12.52V89.35q0,2.84.08,4.48c0,.64,0,1.13,0,1.48a2.49,2.49,0,0,0,.08.4v0a.69.69,0,0,0,.28,0,3.6,3.6,0,0,0,.76,0,7.62,7.62,0,0,1,.8-.08,1.5,1.5,0,0,0,.36,0,16.12,16.12,0,0,1-.24-2.28q-.12-2.16,0-4.28a22,22,0,0,1,.56-4,4.77,4.77,0,0,1,.56-1.32,1.18,1.18,0,0,1,1-.52q.6.08.88,1A7.4,7.4,0,0,1,96.15,86q0,.24,0,.82t.06.86a4.39,4.39,0,0,0,.08.52.16.16,0,0,0,0,.12,2.19,2.19,0,0,0,.8,0l.56,0,.48,0,.52,0,.68,0a3.47,3.47,0,0,0,.62,0,1,1,0,0,0,.3-.06.3.3,0,0,1,0-.12v-.08q.08-.44.24-1.64a17.85,17.85,0,0,1,.24-1.8,5.43,5.43,0,0,1,.44-1.4.85.85,0,0,1,.48-.4.69.69,0,0,1,.64.08.68.68,0,0,1,.28.36c0,.13.05.31.08.52q.08.56.12,1.56.08,1.56,0,4.48,0,.92,0,2.48t0,2v1.84A1.65,1.65,0,0,0,103.27,96.19Z"/><path class="cls-1" d="M116.27,94.71a3.19,3.19,0,0,1-1.64.94,3.23,3.23,0,0,1-2-.18,5.1,5.1,0,0,1-2.84-3,12.25,12.25,0,0,1-.8-5,20,20,0,0,1,.82-5.06,13.13,13.13,0,0,1,1.78-3.94,4.7,4.7,0,0,1,3.36-2A3.41,3.41,0,0,1,118.23,78a2.11,2.11,0,0,0,.1-.52,5.27,5.27,0,0,0,0-.66,2.08,2.08,0,0,1,0-.54,1.09,1.09,0,0,1,.4-1,2.29,2.29,0,0,1,1.48-.24h.08l.22,0,.22,0,.36,0a.67.67,0,0,0,.2,0,.6.6,0,0,1,.16.12.51.51,0,0,1,.12.2v.2a2.77,2.77,0,0,1,0,.52q0,.52,0,1.44,0,.6,0,1.46t0,.9q0,6.8-.28,13a2.15,2.15,0,0,0,0,.24c0,.11,0,.25,0,.44s0,.35,0,.48q0,.44,0,.72a1.71,1.71,0,0,0,0,.32,1.43,1.43,0,0,1-.18.28.5.5,0,0,1-.3.16,2.55,2.55,0,0,0-.4,0l-1,0a7.13,7.13,0,0,1-1-.1l-.36-.08a.87.87,0,0,1-.32-.16,1.26,1.26,0,0,1-.2-.8q0-.2,0-.92,0-.44,0-.68A12.16,12.16,0,0,1,116.27,94.71Z"/><path class="cls-1" d="M115,77.08a4.12,4.12,0,0,0-2.92,1.76,11.49,11.49,0,0,0-1.74,3.78,19.86,19.86,0,0,0-.78,4.9,11.73,11.73,0,0,0,.72,4.72,4.75,4.75,0,0,0,2.6,2.76,2.48,2.48,0,0,0,3-.68,12.25,12.25,0,0,0,1.44-1.84v0a0,0,0,0,0,0,0v-.08a.51.51,0,0,1,.12-.24.26.26,0,0,1,.16-.12.27.27,0,0,1,.24,0,.77.77,0,0,1,.4.72,3.84,3.84,0,0,1,0,.92c0,.45,0,.73,0,.84a1.4,1.4,0,0,0,0,.4h.08l.32.08a6,6,0,0,0,.94.1l.94,0a1.67,1.67,0,0,1,.32,0h0v0a1.24,1.24,0,0,1,0-.2q0-.24,0-.64c0-.11,0-.25,0-.44s0-.35,0-.48,0-.23,0-.28q.28-6.16.28-13s0-.33,0-.9,0-1.06,0-1.46q0-.92,0-1.44v-.44a.11.11,0,0,1,0-.08,1.05,1.05,0,0,0-.32,0l-.24,0-.2,0h-.12a1.72,1.72,0,0,0-1.08.12.64.64,0,0,0-.16.52,1.56,1.56,0,0,0,0,.48q0,.36,0,.62a2.37,2.37,0,0,1-.1.62,2.56,2.56,0,0,1-.3.68.25.25,0,0,1-.4.08l-.08-.08-.08-.08A2.86,2.86,0,0,0,115,77.08Z"/><path class="cls-1" d="M117.35,81.87q.24,0,.32.24a.31.31,0,0,0,0,.12l.08.12c.16.11.17.23,0,.36a.11.11,0,0,1,0,.08,29,29,0,0,1-.16,5.48.25.25,0,0,1-.32.24.19.19,0,0,1-.2-.16,8.38,8.38,0,0,1-2.36,2.28,1.75,1.75,0,0,1-1.88.16,2.44,2.44,0,0,1-1-1.52,6.73,6.73,0,0,1-.16-2.36,7.28,7.28,0,0,1,1.68-4.6,2.78,2.78,0,0,1,1.92-1,3.45,3.45,0,0,1,1.92.56A.16.16,0,0,1,117.35,81.87Z"/><path class="cls-1" d="M115.35,81.91a2.2,2.2,0,0,0-1.52.76,8,8,0,0,0-1.4,6.44,1.86,1.86,0,0,0,.72,1.2,1.24,1.24,0,0,0,1.32-.16,9.06,9.06,0,0,0,2.28-2.28.25.25,0,0,1,.36-.08,21.84,21.84,0,0,0,.08-5.24A3.08,3.08,0,0,0,115.35,81.91Z"/><path class="cls-1" d="M126.95,80.75l-.56.24a3.74,3.74,0,0,0-.48.24.9.9,0,0,1-1.08-.2,3.38,3.38,0,0,1-.32-1.8V79a3.31,3.31,0,0,1,0-.4,1.21,1.21,0,0,1,.2-.88,1.28,1.28,0,0,1,.92-.36,5.38,5.38,0,0,1,1.08,0q.76.08,1,.08a1,1,0,0,0,.6-.2v0c0-.08.05-.17.08-.28v-1q0-.88-.16-2.76L128,70.4a5.67,5.67,0,0,1,0-1,1.21,1.21,0,0,1,0-.36.41.41,0,0,1,.16-.28.78.78,0,0,1,.56-.16,2.23,2.23,0,0,1,.72,0,5,5,0,0,1,1,.24.17.17,0,0,1,.12,0,.25.25,0,0,1,.28.28V73.8q0,1.76.08,2.8a7.9,7.9,0,0,0,0,.92.55.55,0,0,0,0,.24h0a1.21,1.21,0,0,0,.44,0q.32,0,1.24-.08t1.28-.08a2.15,2.15,0,0,1,.48,0,.76.76,0,0,1,.44.16.51.51,0,0,1,.12.24v.6a4.29,4.29,0,0,1,0,.44v.24l.08.64c0,.19.05.33.08.44a1.21,1.21,0,0,1,0,.36.73.73,0,0,1-.44.4,2.91,2.91,0,0,1-.6.12,13.55,13.55,0,0,1-1.48,0l-.72,0-.76,0h-.44a.36.36,0,0,1,0,.16,16.79,16.79,0,0,1,.2,2.92q0,.24.36,6.4.16,2.24.16,3.56a9.58,9.58,0,0,1-.16,2.24.75.75,0,0,1-.56.44,2.34,2.34,0,0,1-.68.16,2.73,2.73,0,0,1-1.32-.12.48.48,0,0,1-.28-.28l-.12-.44q-.08-.48-.16-1.28-.12-1.4-.2-3.8v-7q0-.4,0-.8a8.06,8.06,0,0,0,0-1q0-.84,0-1.32c0-.16-.05-.29-.08-.4a0,0,0,0,1,0,0A1.41,1.41,0,0,0,126.95,80.75Z"/><path class="cls-1" d="M134.47,78.2a1.38,1.38,0,0,0-.4,0q-.32,0-1.24.08t-1.28.08a1.38,1.38,0,0,1-.48,0,1,1,0,0,1-.44-.16.44.44,0,0,1-.08-.16.17.17,0,0,1,0-.12,1.05,1.05,0,0,1,0-.32,8,8,0,0,1,0-.92q0-1-.08-2.84V69.44a6.71,6.71,0,0,0-1-.2,1.61,1.61,0,0,0-.6,0h-.24v.24a5.14,5.14,0,0,0,0,.92l.2,2.76q.16,1.92.16,2.8v1c0,.13-.05.25-.08.36a.61.61,0,0,1-.16.32,1.44,1.44,0,0,1-1,.36q-.36,0-1.12-.08a4.28,4.28,0,0,0-1,0,.68.68,0,0,0-.56.2,1.35,1.35,0,0,0,0,.44c0,.08,0,.21,0,.38s0,.29,0,.34a2.63,2.63,0,0,0,.24,1.44c.05.11.19.12.4,0l.44-.2a3.71,3.71,0,0,1,.6-.28,2,2,0,0,1,1.36-.08.63.63,0,0,1,.32.4c0,.13.05.29.08.48a9.31,9.31,0,0,1,.08,1.36,8.65,8.65,0,0,1,0,1c0,.25,0,.51,0,.78v7q.08,2.36.2,3.72a6.15,6.15,0,0,0,.16,1.24,2.78,2.78,0,0,0,.08.32l0,0a3.38,3.38,0,0,0,1,0,2.92,2.92,0,0,0,.6-.12c.11,0,.16-.05.16-.08a8,8,0,0,0,.16-2.08q0-1.28-.16-3.52-.36-6.2-.36-6.44a15.78,15.78,0,0,0-.2-2.84v0a.47.47,0,0,1-.08-.12.42.42,0,0,1,.08-.44.39.39,0,0,1,.2-.16.55.55,0,0,1,.24,0h.52l.78,0,.7,0a12.75,12.75,0,0,0,1.44,0l.44-.08.08,0s0-.09,0-.18a2.76,2.76,0,0,1,0-.38q-.12-.64-.12-.72V79c0-.21,0-.35,0-.4V78.2Z"/><path class="cls-1" d="M140.79,76.63a4.86,4.86,0,0,1,.88,0,1.09,1.09,0,0,1,.68.32,280919,280919,0,0,0,.08.32,2.46,2.46,0,0,1,0,.48q0,.52,0,1.48v4.36q0,1.4,0,3.08t0,2.8q0,1.12,0,1.4v.56c0,.32,0,.68,0,1.08s0,.77,0,1.12q0,1-.08,1.64c0,.27-.05.47-.08.6a1.26,1.26,0,0,1-.08.24.36.36,0,0,1-.2.2,3,3,0,0,1-1.28.28,2.1,2.1,0,0,1-.72,0,.75.75,0,0,1-.56-.44,4.21,4.21,0,0,1-.08-1.52q0-.16,0-.44t0-.36q0-.44,0-.68,0-1.84,0-8.16,0-4.84-.16-7.6a.36.36,0,0,1-.2-.24.23.23,0,0,1,.16-.28c0-.19.08-.28.24-.28a.29.29,0,0,1,.28.16A6.66,6.66,0,0,1,140.79,76.63Z"/><path class="cls-1" d="M139.51,71.56a1.43,1.43,0,0,1,1.1-.64,1.57,1.57,0,0,1,1.14.36,2.35,2.35,0,0,1,.8,1,1.57,1.57,0,0,1,.08,1.2,1.27,1.27,0,0,1-1,.88,1.75,1.75,0,0,1-1.36-.16,1.44,1.44,0,0,1-.88-1.12,1.94,1.94,0,0,1,.2-1.12A.27.27,0,0,1,139.51,71.56Z"/><path class="cls-1" d="M141.59,77.2a3.47,3.47,0,0,0-.76,0,6.3,6.3,0,0,0-1,.08q.2,2.8.16,7.68,0,6.32,0,8.16,0,.24,0,.72,0,.08,0,.36c0,.19,0,.32,0,.4A3.3,3.3,0,0,0,140,96s.05.05.16.08a2,2,0,0,0,.56,0,2.23,2.23,0,0,0,1-.16.17.17,0,0,0,0-.12q0-.2.08-.52,0-.56.08-1.6c0-.35,0-.72,0-1.12s0-.76,0-1.08v-.56q0-.28,0-1.4t0-2.8q0-1.68,0-3.08V79.23q0-1,0-1.48a1.68,1.68,0,0,0,0-.4v-.08A1.19,1.19,0,0,0,141.59,77.2Z"/><path class="cls-1" d="M139.91,72.92a1.06,1.06,0,0,0,.56.76,1.44,1.44,0,0,0,1,.12.76.76,0,0,0,.6-.52,1.32,1.32,0,0,0-.64-1.56,1.08,1.08,0,0,0-1-.16A2,2,0,0,0,139.91,72.92Z"/><path class="cls-1" d="M149.63,76.91a4.38,4.38,0,0,1,3.16-.08,7.21,7.21,0,0,1,3.4,2,7,7,0,0,1,1.92,3.52,12.46,12.46,0,0,1,.12,3.44,20,20,0,0,1-.68,4.2q-1.4,5.16-4.28,5.92T148,93.75a10.92,10.92,0,0,1-2.24-5.48,15.81,15.81,0,0,1,.08-3.1,20.41,20.41,0,0,1,.72-3.7,10.42,10.42,0,0,1,1.56-3.32,4,4,0,0,1,1.48-1.24Z"/><path class="cls-1" d="M148.55,78.51a9.46,9.46,0,0,0-1.48,3.12,22.06,22.06,0,0,0-.68,3.6,14.45,14.45,0,0,0-.08,3,10.68,10.68,0,0,0,2.12,5.24q2.08,2.64,4.68,2T157,89.87a19.49,19.49,0,0,0,.7-4.08,11.89,11.89,0,0,0-.14-3.32,6.49,6.49,0,0,0-1.76-3.22,6.26,6.26,0,0,0-3.16-1.86,5.7,5.7,0,0,0-1.72-.2.36.36,0,0,1-.16,0A2.81,2.81,0,0,0,148.55,78.51Z"/><path class="cls-1" d="M149.95,81.51a3.1,3.1,0,0,1,3.32-1.24,3.31,3.31,0,0,1,2.2,2.92,14.49,14.49,0,0,1-.4,5.2,9.72,9.72,0,0,1-.92,2.64,2.15,2.15,0,0,1-1.6,1.32,3.16,3.16,0,0,1-3-1.4,7.21,7.21,0,0,1-1.16-3.76,9.33,9.33,0,0,1,.56-3.92,6.47,6.47,0,0,1,.92-1.6A.23.23,0,0,1,149.95,81.51Z"/><path class="cls-1" d="M149.51,83.47a8.36,8.36,0,0,0-.56,3.68,6.22,6.22,0,0,0,1,3.44,2.73,2.73,0,0,0,2.58,1.2q.56,0,1.12-1a10.6,10.6,0,0,0,.84-2.52,13.19,13.19,0,0,0,.4-5,2.7,2.7,0,0,0-1.8-2.44,2.23,2.23,0,0,0-1.68.2.26.26,0,0,1-.2.32A3.27,3.27,0,0,0,149.51,83.47Z"/><path class="cls-1" d="M165.71,96.11a.27.27,0,0,1-.08.2.26.26,0,0,1,.16.24.25.25,0,0,1-.28.28l-.72,0q-.76,0-1.08.08-.64,0-1,0a1.51,1.51,0,0,1-.44-.12.48.48,0,0,1-.32-.28.23.23,0,0,1,0-.16.55.55,0,0,1,0-.24,4.05,4.05,0,0,1,0-.64q0-.8,0-2.2,0-2.52,0-6.52.08-9.24.28-10.56a.25.25,0,0,1,.32-.24.16.16,0,0,1,.16.12q.52-.12,1.08-.2a5.1,5.1,0,0,1,.8-.08.65.65,0,0,1,.32,0,.43.43,0,0,1,.32.12l.08.12v3.4a6.41,6.41,0,0,1,.8-1.28,7.53,7.53,0,0,1,3.32-2.52,3.91,3.91,0,0,1,4.08.44A2.7,2.7,0,0,1,174,77.2a12.18,12.18,0,0,1,.44,1.72,33.1,33.1,0,0,1,.44,4.6q.08,1.72.08,8.16v4.4a.3.3,0,0,0,0,.12v.12a.45.45,0,0,1-.08.12.5.5,0,0,1-.24.12h-1.16l-.24,0-.4.12-.44.08a.16.16,0,0,0-.12,0h-.12a.36.36,0,0,1-.16,0,.53.53,0,0,1-.2-.44.3.3,0,0,0,0-.12v-.12q0-.88,0-3.32.16-3.4.16-4.48a35,35,0,0,0-.08-4.28,6.33,6.33,0,0,0-.6-2.64,2,2,0,0,0-1.52-.8q-1.28-.2-2.16,1.64a17.3,17.3,0,0,0-1.32,4.64,55.84,55.84,0,0,0-.6,8.2.28.28,0,0,1,.08.28l-.08.24v.16a.36.36,0,0,1,0,.16Z"/><path class="cls-1" d="M164.43,76.36a4.3,4.3,0,0,0-.76.08,9.43,9.43,0,0,0-1.12.2q-.16,2.16-.24,10.12,0,3.88,0,6.52,0,1.4,0,2.16a3.67,3.67,0,0,0,0,.64v.2h.08a1.19,1.19,0,0,0,.28.08,8.91,8.91,0,0,0,1,0l1-.08a2.09,2.09,0,0,0,.48,0,.23.23,0,0,1-.08-.16v-.44a.35.35,0,0,1,0-.16,60.07,60.07,0,0,1,.64-8.72,16.32,16.32,0,0,1,1.32-4.8q1.12-2.2,2.76-2a2.63,2.63,0,0,1,1.92,1,6.73,6.73,0,0,1,.68,2.92,35.58,35.58,0,0,1,.08,4.32q0,1.12-.16,4.48-.08,2.44,0,3.32v.12l.32-.08.4-.08.28-.08h1V91.67q0-6.4-.08-8.12a31.93,31.93,0,0,0-.44-4.56,8.15,8.15,0,0,0-.4-1.62,1.81,1.81,0,0,0-.52-.82,3.39,3.39,0,0,0-3.56-.4,7.06,7.06,0,0,0-3,2.32,6.52,6.52,0,0,0-1.2,2.28,4.79,4.79,0,0,0-.12.52v.52a.12.12,0,0,0,0,.08.24.24,0,0,1-.32.12l-.16-.12a.11.11,0,0,1,0-.08v-.6q0-1,0-2.44v-2.4S164.48,76.33,164.43,76.36Z"/><path d="M21.19,74a4.86,4.86,0,0,1,.88,0,1.09,1.09,0,0,1,.68.32,6171448363257.54,6171448363257.54,0,0,0,.08.32,2.42,2.42,0,0,1,0,.48q0,.52,0,1.48v4.36q0,1.4,0,3.08t0,2.8q0,1.12,0,1.4v.56c0,.32,0,.68,0,1.08s0,.77,0,1.12q0,1-.08,1.64c0,.27-.05.47-.08.6a1.27,1.27,0,0,1-.08.24.36.36,0,0,1-.2.2,3,3,0,0,1-1.28.28,2.1,2.1,0,0,1-.72,0,.75.75,0,0,1-.56-.44,4.2,4.2,0,0,1-.08-1.52c0-.11,0-.25,0-.44s0-.31,0-.36q0-.44,0-.68,0-1.84,0-8.16,0-4.84-.16-7.6a.36.36,0,0,1-.2-.24.23.23,0,0,1,.16-.28c0-.19.08-.28.24-.28a.29.29,0,0,1,.28.16A6.66,6.66,0,0,1,21.19,74ZM19.91,68.9a1.43,1.43,0,0,1,1.1-.64,1.57,1.57,0,0,1,1.14.36,2.35,2.35,0,0,1,.8,1,1.57,1.57,0,0,1,.08,1.2,1.27,1.27,0,0,1-1,.88,1.75,1.75,0,0,1-1.36-.16,1.44,1.44,0,0,1-.88-1.12,1.94,1.94,0,0,1,.2-1.12A.27.27,0,0,1,19.91,68.9ZM22,74.54a3.47,3.47,0,0,0-.76,0,6.3,6.3,0,0,0-1,.08q.2,2.8.16,7.68,0,6.32,0,8.16,0,.24,0,.72c0,.05,0,.17,0,.36s0,.32,0,.4a3.32,3.32,0,0,0,.08,1.36s.05.05.16.08a2,2,0,0,0,.56,0,2.23,2.23,0,0,0,1-.16.17.17,0,0,0,0-.12c0-.13.05-.31.08-.52q0-.56.08-1.6c0-.35,0-.72,0-1.12s0-.76,0-1.08v-.56q0-.28,0-1.4t0-2.8q0-1.68,0-3.08V76.58q0-1,0-1.48a1.71,1.71,0,0,0,0-.4v-.08A1.19,1.19,0,0,0,22,74.54Zm-1.68-4.28a1.07,1.07,0,0,0,.56.76,1.44,1.44,0,0,0,1,.12.76.76,0,0,0,.6-.52,1.32,1.32,0,0,0-.64-1.56,1.08,1.08,0,0,0-1-.16A2,2,0,0,0,20.31,70.26Z"/><path d="M30.51,93.46a.27.27,0,0,1-.08.2.26.26,0,0,1,.16.24.25.25,0,0,1-.28.28l-.72,0q-.76,0-1.08.08-.64,0-1,0a1.51,1.51,0,0,1-.44-.12.49.49,0,0,1-.32-.28.23.23,0,0,1,0-.16.56.56,0,0,1,0-.24,4.11,4.11,0,0,1,0-.64q0-.8,0-2.2,0-2.52,0-6.52.08-9.24.28-10.56a.25.25,0,0,1,.32-.24.16.16,0,0,1,.16.12q.52-.12,1.08-.2a5.11,5.11,0,0,1,.8-.08.65.65,0,0,1,.32,0,.43.43,0,0,1,.32.12l.08.12v3.4a6.46,6.46,0,0,1,.8-1.28A7.53,7.53,0,0,1,34,73a3.91,3.91,0,0,1,4.08.44,2.71,2.71,0,0,1,.72,1.12,12.12,12.12,0,0,1,.44,1.72,33,33,0,0,1,.44,4.6q.08,1.72.08,8.16v4.4a.29.29,0,0,0,0,.12v.12a.48.48,0,0,1-.08.12.5.5,0,0,1-.24.12H38.27l-.24,0-.4.12-.44.08a.16.16,0,0,0-.12,0h-.12a.36.36,0,0,1-.16,0,.54.54,0,0,1-.2-.44.29.29,0,0,0,0-.12v-.12q0-.88,0-3.32.16-3.4.16-4.48a34.93,34.93,0,0,0-.08-4.28,6.34,6.34,0,0,0-.6-2.64,2,2,0,0,0-1.52-.8q-1.28-.2-2.16,1.64a17.3,17.3,0,0,0-1.32,4.64,55.84,55.84,0,0,0-.6,8.2.28.28,0,0,1,.08.28l-.08.24v.16a.36.36,0,0,1,0,.16ZM29.23,73.7a4.3,4.3,0,0,0-.76.08,9.44,9.44,0,0,0-1.12.2q-.16,2.16-.24,10.12,0,3.88,0,6.52,0,1.4,0,2.16a3.68,3.68,0,0,0,0,.64v.2h.08a1.21,1.21,0,0,0,.28.08,8.92,8.92,0,0,0,1,0l1-.08a2.09,2.09,0,0,0,.48,0,.23.23,0,0,1-.08-.16V93a.36.36,0,0,1,0-.16,60.14,60.14,0,0,1,.64-8.72,16.32,16.32,0,0,1,1.32-4.8q1.12-2.2,2.76-2a2.63,2.63,0,0,1,1.92,1,6.73,6.73,0,0,1,.68,2.92,35.68,35.68,0,0,1,.08,4.32q0,1.12-.16,4.48-.08,2.44,0,3.32v.12l.32-.08.4-.08.28-.08h1V89q0-6.4-.08-8.12a31.94,31.94,0,0,0-.44-4.56,8.14,8.14,0,0,0-.4-1.62,1.8,1.8,0,0,0-.52-.82,3.39,3.39,0,0,0-3.56-.4,7.06,7.06,0,0,0-3,2.32A6.52,6.52,0,0,0,30,78.1a5,5,0,0,0-.12.52v.52a.12.12,0,0,0,0,.08.24.24,0,0,1-.32.12l-.16-.12a.11.11,0,0,1,0-.08v-.6q0-1,0-2.44V73.7S29.28,73.67,29.23,73.7ZM39.35,93.34h0Z"/><path d="M50.59,69.9a2.13,2.13,0,0,0-.2-1l0,0a.44.44,0,0,0-.28.16,1.88,1.88,0,0,0-.36,1.08q-.08.8-.08,2a27.48,27.48,0,0,0,.24,3.36l1-.06q.84-.06,1.32-.06,1.68.08,2,1.16.4,1.44-.24,2a2,2,0,0,1-1.56.28l-.88-.12-.84-.16a1.36,1.36,0,0,0-1,.2V81c0,.4.05.87.08,1.4s.05,1.16.08,1.88,0,1.29,0,1.72q.12,3.36.16,5,0,1.12,0,1.76,0,.36-.08.56a.69.69,0,0,1-.16.4.88.88,0,0,1-.32.12,1,1,0,0,1-.32,0,3.64,3.64,0,0,1-.76,0,5,5,0,0,1-.8-.12.88.88,0,0,1-.32-.12.59.59,0,0,1-.28-.2,1.39,1.39,0,0,1-.08-.32,1.42,1.42,0,0,1,0-.4q0-.44-.08-1.24,0-1.36-.08-3.64,0-3,0-6.08c0-.08,0-.35,0-.8s0-.83,0-1.12a6.83,6.83,0,0,0-.06-1q-.06-.38-.18-.46a1.06,1.06,0,0,0-.6,0q-.08,0-1.08.2a3.81,3.81,0,0,1-1.12.12.91.91,0,0,1-.88-.52,1.81,1.81,0,0,1-.12-.56v-.76a6.28,6.28,0,0,1,0-.76.9.9,0,0,1,0-.28.89.89,0,0,1,.12-.28l.12-.08h2l1.32.08h.36q0-.32-.08-2.1t-.08-2.86a20.56,20.56,0,0,1,.16-2.84,3.67,3.67,0,0,1,.72-2,2.23,2.23,0,0,1,.34-.28,1.09,1.09,0,0,1,.44-.16l.38,0h.76a4.38,4.38,0,0,1,3.28,1.08,2.8,2.8,0,0,1,.56,1.2,10.87,10.87,0,0,1,.36,1.72,8,8,0,0,1,0,1.76,1.68,1.68,0,0,1-.48,1.2,2.15,2.15,0,0,1-1.16.24h-.56l-.48,0h-.24a.26.26,0,0,1-.2-.36A5.83,5.83,0,0,0,50.59,69.9Zm-3.68,6.24a.16.16,0,0,0-.12,0h-.48L45,76H43.35v.16a4.8,4.8,0,0,0,0,.68v.72c0,.21,0,.33,0,.36s.2.2.44.2a2.86,2.86,0,0,0,1-.12l1.12-.2a1.45,1.45,0,0,1,1,.08,1.09,1.09,0,0,1,.4.84,6.4,6.4,0,0,1,.08,1.12q0,.48,0,1.16c0,.45,0,.71,0,.76q0,3.16,0,6,0,2.32.08,3.68,0,.76.08,1.2a1.19,1.19,0,0,0,0,.36v.08h0l.2.08a5.27,5.27,0,0,0,.72.12,3.27,3.27,0,0,0,.72,0h.24v-.12a4.41,4.41,0,0,0,.08-.48q0-.6,0-1.72,0-1.68-.16-5,0-.64,0-1.72t-.08-1.88q0-.8-.08-1.4v-2.4a1.44,1.44,0,0,1,.08-.2,1.6,1.6,0,0,1,1.52-.4,5.11,5.11,0,0,1,.88.12l.84.12a1.5,1.5,0,0,0,1.12-.12q.36-.32,0-1.44-.16-.68-1.48-.76l-1.24,0q-.92.08-1.16.08a.27.27,0,0,1-.2-.08.28.28,0,0,1-.24-.24,22.77,22.77,0,0,1-.28-3.6,15.06,15.06,0,0,1,.12-2.08,2.27,2.27,0,0,1,.48-1.4.92.92,0,0,1,.64-.32.51.51,0,0,1,.52.28,2.24,2.24,0,0,1,.32,1.24,8.87,8.87,0,0,1-.08,2,1.66,1.66,0,0,1,.32,0h.56a1.48,1.48,0,0,0,.84-.16q.2-.12.26-.78A7.73,7.73,0,0,0,53,69.38a10.85,10.85,0,0,0-.34-1.62,3,3,0,0,0-.42-1,3.85,3.85,0,0,0-2.88-.92h-.64l-.24,0-.24,0L48,66a.53.53,0,0,0-.2.18,3.46,3.46,0,0,0-.56,1.64,19.47,19.47,0,0,0-.16,2.76q0,1.12.08,2.92t.08,2.2a.26.26,0,0,1,0,.24.2.2,0,0,1-.16.1.36.36,0,0,0-.2.1Z"/><path d="M61.31,74.26a4.38,4.38,0,0,1,3.16-.08,7.2,7.2,0,0,1,3.4,2,7,7,0,0,1,1.92,3.52,12.46,12.46,0,0,1,.12,3.44,20,20,0,0,1-.68,4.2q-1.4,5.16-4.28,5.92t-5.28-2.2a10.92,10.92,0,0,1-2.24-5.48,15.77,15.77,0,0,1,.08-3.1,20.37,20.37,0,0,1,.72-3.7,10.42,10.42,0,0,1,1.56-3.32,4,4,0,0,1,1.48-1.24Zm-1.08,1.6A9.48,9.48,0,0,0,58.75,79a22.06,22.06,0,0,0-.68,3.6,14.42,14.42,0,0,0-.08,3,10.68,10.68,0,0,0,2.12,5.24q2.08,2.64,4.68,2t3.88-5.52a19.46,19.46,0,0,0,.7-4.08,11.88,11.88,0,0,0-.14-3.32,6.49,6.49,0,0,0-1.76-3.22,6.26,6.26,0,0,0-3.16-1.86,5.7,5.7,0,0,0-1.72-.2.36.36,0,0,1-.16,0A2.81,2.81,0,0,0,60.23,75.86Zm1.4,3a3.1,3.1,0,0,1,3.32-1.24,3.31,3.31,0,0,1,2.2,2.92,14.48,14.48,0,0,1-.4,5.2,9.75,9.75,0,0,1-.92,2.64,2.15,2.15,0,0,1-1.6,1.32,3.16,3.16,0,0,1-3-1.4,7.21,7.21,0,0,1-1.16-3.76,9.33,9.33,0,0,1,.56-3.92,6.47,6.47,0,0,1,.92-1.6A.23.23,0,0,1,61.63,78.86Zm-.44,2a8.36,8.36,0,0,0-.56,3.68,6.23,6.23,0,0,0,1,3.44,2.73,2.73,0,0,0,2.58,1.2q.56,0,1.12-1a10.58,10.58,0,0,0,.84-2.52,13.19,13.19,0,0,0,.4-5,2.7,2.7,0,0,0-1.8-2.44,2.23,2.23,0,0,0-1.68.2.26.26,0,0,1-.2.32A3.27,3.27,0,0,0,61.19,80.82Z"/><path d="M77.43,75.86l.36-.24.32-.16a4.19,4.19,0,0,1,4,1A4.91,4.91,0,0,1,84,80.18v.24a.5.5,0,0,1-.08.4.82.82,0,0,1-.36.24,2.7,2.7,0,0,1-.4.2l-.4.16-.28.08-.28.16a1.87,1.87,0,0,1-.44.2,1,1,0,0,1-1,0,.85.85,0,0,1-.24-.4q0-.08-.24-.6a7.55,7.55,0,0,0-.72-1.36,1.51,1.51,0,0,0-.88-.76q-.56-.08-1.28.72a5.71,5.71,0,0,0-.72,2.84Q76.51,84,76.55,87q0,.44,0,2.1t0,2.38A10.7,10.7,0,0,1,76.55,93c0,.21-.05.39-.08.52a.5.5,0,0,1-.28.36,1.78,1.78,0,0,1-.72.16q-.44,0-1,0a4.46,4.46,0,0,1-1-.16,1.4,1.4,0,0,1-.36-.12.65.65,0,0,1-.28-.32,6.4,6.4,0,0,1-.12-1.16q0-.84,0-2.12,0-2.4.08-6,.16-6.76.36-9.6a.27.27,0,0,1-.08-.2.26.26,0,0,1,.16-.24.29.29,0,0,1,.28-.16.16.16,0,0,1,.16.12q.68,0,3,0a.25.25,0,0,1,.28.28v0a.27.27,0,0,1,.12.24c0,.05,0,.19,0,.4v.6a2.51,2.51,0,0,0,0,.48v0A1.76,1.76,0,0,0,77.43,75.86ZM75.95,93.34a1.92,1.92,0,0,0,0-.44,9.58,9.58,0,0,0,.08-1.44q0-.72,0-2.36T76,87a47.25,47.25,0,0,1,.12-4.76A5.87,5.87,0,0,1,77,79a1.68,1.68,0,0,1,3,.12,14.41,14.41,0,0,1,.76,1.48,3.76,3.76,0,0,0,.24.56.9.9,0,0,0,.12.24q.08.08.44-.08a1.39,1.39,0,0,0,.36-.16,1.54,1.54,0,0,1,.32-.16l.32-.12.4-.16.36-.2.12,0v-.32a4.51,4.51,0,0,0-1.68-3.28A3.69,3.69,0,0,0,78.27,76a.41.41,0,0,0-.16.08l-.4.24a3.86,3.86,0,0,1-.4.24l-.2.08a.33.33,0,0,1-.28,0,.65.65,0,0,1-.32-.48,4.1,4.1,0,0,1,0-.64v-.56c0-.24,0-.37,0-.4q-2,0-2.76,0-.2,2.8-.36,9.52-.08,3.64-.08,6,0,1.32,0,2.12a9.31,9.31,0,0,0,.08,1,0,0,0,0,1,0,0l.24.08a5.4,5.4,0,0,0,.84.12q.48,0,.88,0a2.94,2.94,0,0,0,.48-.08Z"/><path d="M90.79,93.62q-.56,0-.8.08a4.25,4.25,0,0,1-.84,0,1.57,1.57,0,0,1-.64-.16.49.49,0,0,1-.12-.2.36.36,0,0,1,0-.16,2.15,2.15,0,0,1,0-.48,10.47,10.47,0,0,1-.08-1.48q-.08-1.64-.08-4.52V74.58l-.08-.36a.59.59,0,0,1,.16-.68,1.2,1.2,0,0,1,.84-.12l.22,0,.24,0,.18,0,.16,0,.2,0,.2,0a1.31,1.31,0,0,1,.76.12,1.28,1.28,0,0,1,.16.2.76.76,0,0,1,0,.24q0,.2.08.56t0,1.52v1a4.25,4.25,0,0,0,.26-.4l.18-.32a10.66,10.66,0,0,1,1.48-2,2.7,2.7,0,0,1,1.16-.72,1.11,1.11,0,0,1,1.24.44,5.54,5.54,0,0,1,.88,2.8q.08.6.12,1.6t.08,1.24a18.05,18.05,0,0,1,.92-3A8.53,8.53,0,0,1,99.35,74a2.33,2.33,0,0,1,2.48-.68,2.46,2.46,0,0,1,1.6,1.2,12.48,12.48,0,0,1,1,4.42,26.15,26.15,0,0,1-.1,4.94q0,.44-.12,1.92t-.14,2.12q0,.64-.06,1.76a18.68,18.68,0,0,0,0,2,13,13,0,0,0,.22,1.64.26.26,0,0,1-.12.28v.08a.25.25,0,0,1-.28.28l-.68,0a8.31,8.31,0,0,0-1,.12c-.4,0-.72,0-1,0a2.19,2.19,0,0,1-.76-.16.24.24,0,0,1-.16-.16V93.7a.23.23,0,0,1,0-.16V91.66q0-.44,0-2t0-2.48q0-2.8,0-4.48a12.89,12.89,0,0,0-.12-1.48,4.35,4.35,0,0,0-.08-.44v0l-.16,0a.7.7,0,0,0-.2.2,3.8,3.8,0,0,0-.36,1.2,15.37,15.37,0,0,0-.24,1.76q-.16,1.2-.24,1.64a.12.12,0,0,1,0,.08v.2a.73.73,0,0,1-.24.32,1.47,1.47,0,0,1-.6.16q-.28,0-.68,0l-.72,0-.44,0-.44,0-.56,0a2.59,2.59,0,0,1-1.12-.12.66.66,0,0,1-.32-.44c0-.16-.05-.37-.08-.64a7.35,7.35,0,0,1-.06-.84q0-.6,0-.84a7.83,7.83,0,0,0-.24-1.6q-.16-.56-.42-.6a.54.54,0,0,0-.5.28,4.37,4.37,0,0,0-.52,1.16,23,23,0,0,0-.52,3.92q-.08,2.12,0,4.24a9.61,9.61,0,0,0,.28,2.44q.12.28-.12.36a.34.34,0,0,1-.16,0h-.08Zm10.48-.08c.24,0,.53,0,.88,0q.16,0,1-.12l.6,0a13.17,13.17,0,0,1-.22-1.68,19.29,19.29,0,0,1,0-2q0-1.12.06-1.8t.14-2.14q.12-1.46.12-1.9a29.41,29.41,0,0,0,.08-4.86,12.42,12.42,0,0,0-.92-4.22,2,2,0,0,0-1.28-.88,1.82,1.82,0,0,0-2,.52,7.53,7.53,0,0,0-1.52,2.56,16.16,16.16,0,0,0-1.28,5.24v.48l0,0v0a.26.26,0,0,1-.12.12.27.27,0,0,1-.32,0,.16.16,0,0,1,0-.12l0,0V81.58q0-.32-.16-1.8,0-.24-.08-1.26T96,76.9a5.14,5.14,0,0,0-.72-2.52.69.69,0,0,0-.7-.22,2.33,2.33,0,0,0-.9.58,9.83,9.83,0,0,0-1.4,1.88A6.9,6.9,0,0,0,91.55,78v.2a.45.45,0,0,1,0,.2.25.25,0,0,1-.18.2.3.3,0,0,1-.26,0,.61.61,0,0,1-.16-.12.3.3,0,0,0,0-.12v-.2a2.41,2.41,0,0,1,0-.52q0-.24,0-1.52,0-1,0-1.48a4.45,4.45,0,0,1,0-.52.11.11,0,0,1,0-.08.65.65,0,0,0-.32,0l-.64.08L89,74a1,1,0,0,0-.4,0v.08a3.47,3.47,0,0,1,.12.52V86.7q0,2.84.08,4.48c0,.64,0,1.13,0,1.48a2.43,2.43,0,0,0,.08.4v0a.69.69,0,0,0,.28,0,3.6,3.6,0,0,0,.76,0,7.65,7.65,0,0,1,.8-.08,1.5,1.5,0,0,0,.36,0,16.18,16.18,0,0,1-.24-2.28q-.12-2.16,0-4.28a22,22,0,0,1,.56-4,4.77,4.77,0,0,1,.56-1.32,1.18,1.18,0,0,1,1-.52q.6.08.88,1a7.4,7.4,0,0,1,.28,1.72q0,.24,0,.82t.06.86a4.6,4.6,0,0,0,.08.52.17.17,0,0,0,0,.12,2.2,2.2,0,0,0,.8,0l.56,0,.48,0,.52,0,.68,0a3.46,3.46,0,0,0,.62,0,1,1,0,0,0,.3-.06.29.29,0,0,1,0-.12v-.08q.08-.44.24-1.64a17.67,17.67,0,0,1,.24-1.8,5.43,5.43,0,0,1,.44-1.4.86.86,0,0,1,.48-.4.69.69,0,0,1,.64.08.68.68,0,0,1,.28.36c0,.13.05.31.08.52q.08.56.12,1.56.08,1.56,0,4.48,0,.92,0,2.48t0,2v1.84A1.64,1.64,0,0,0,101.27,93.53Z"/><path d="M114.27,92.06a3.19,3.19,0,0,1-1.64.94,3.23,3.23,0,0,1-2-.18,5.1,5.1,0,0,1-2.84-3,12.27,12.27,0,0,1-.8-5,20,20,0,0,1,.82-5.06,13.13,13.13,0,0,1,1.78-3.94,4.7,4.7,0,0,1,3.36-2,3.41,3.41,0,0,1,3.24,1.44,2.16,2.16,0,0,0,.1-.52,5.27,5.27,0,0,0,0-.66,2.07,2.07,0,0,1,0-.54,1.09,1.09,0,0,1,.4-1,2.29,2.29,0,0,1,1.48-.24h.08l.22,0,.22,0,.36,0a.67.67,0,0,0,.2,0,.61.61,0,0,1,.16.12.52.52,0,0,1,.12.2V73a2.77,2.77,0,0,1,0,.52q0,.52,0,1.44,0,.6,0,1.46c0,.57,0,.87,0,.9q0,6.8-.28,13a2.25,2.25,0,0,0,0,.24c0,.11,0,.25,0,.44s0,.35,0,.48q0,.44,0,.72a1.67,1.67,0,0,0,0,.32,1.43,1.43,0,0,1-.18.28.5.5,0,0,1-.3.16,2.55,2.55,0,0,0-.4,0l-1,0a7.14,7.14,0,0,1-1-.1l-.36-.08a.87.87,0,0,1-.32-.16,1.25,1.25,0,0,1-.2-.8q0-.2,0-.92,0-.44,0-.68A12.15,12.15,0,0,1,114.27,92.06ZM113,74.42a4.12,4.12,0,0,0-2.92,1.76A11.49,11.49,0,0,0,108.37,80a19.84,19.84,0,0,0-.78,4.9,11.72,11.72,0,0,0,.72,4.72,4.75,4.75,0,0,0,2.6,2.76,2.48,2.48,0,0,0,3-.68,12.26,12.26,0,0,0,1.44-1.84v0a0,0,0,0,0,0,0v-.08a.51.51,0,0,1,.12-.24.26.26,0,0,1,.16-.12.27.27,0,0,1,.24,0,.77.77,0,0,1,.4.72,3.84,3.84,0,0,1,0,.92c0,.45,0,.73,0,.84a1.38,1.38,0,0,0,0,.4h.08l.32.08a6,6,0,0,0,.94.1l.94,0a1.66,1.66,0,0,1,.32,0h0v0a1.24,1.24,0,0,1,0-.2c0-.16,0-.37,0-.64,0-.11,0-.25,0-.44s0-.35,0-.48,0-.23,0-.28q.28-6.16.28-13s0-.33,0-.9,0-1.06,0-1.46q0-.92,0-1.44V73.1a.11.11,0,0,1,0-.08,1.05,1.05,0,0,0-.32,0l-.24,0-.2,0h-.12a1.72,1.72,0,0,0-1.08.12c-.11.08-.16.25-.16.52a1.55,1.55,0,0,0,0,.48q0,.36,0,.62a2.35,2.35,0,0,1-.1.62,2.54,2.54,0,0,1-.3.68.25.25,0,0,1-.4.08L116,76l-.08-.08A2.86,2.86,0,0,0,113,74.42Zm2.32,4.8c.16,0,.27.05.32.24a.32.32,0,0,0,0,.12l.08.12q.24.16,0,.36a.11.11,0,0,1,0,.08,28.88,28.88,0,0,1-.16,5.48.25.25,0,0,1-.32.24.19.19,0,0,1-.2-.16A8.39,8.39,0,0,1,112.75,88a1.75,1.75,0,0,1-1.88.16,2.44,2.44,0,0,1-1-1.52,6.73,6.73,0,0,1-.16-2.36,7.29,7.29,0,0,1,1.68-4.6,2.78,2.78,0,0,1,1.92-1,3.45,3.45,0,0,1,1.92.56A.16.16,0,0,1,115.35,79.22Zm-2,0a2.2,2.2,0,0,0-1.52.76,8,8,0,0,0-1.4,6.44,1.86,1.86,0,0,0,.72,1.2,1.24,1.24,0,0,0,1.32-.16,9.06,9.06,0,0,0,2.28-2.28.25.25,0,0,1,.36-.08,21.84,21.84,0,0,0,.08-5.24A3.08,3.08,0,0,0,113.35,79.26Z"/><path d="M124.95,78.1l-.56.24a3.76,3.76,0,0,0-.48.24.91.91,0,0,1-1.08-.2,3.39,3.39,0,0,1-.32-1.8V76.3a3.31,3.31,0,0,1,0-.4,1.21,1.21,0,0,1,.2-.88,1.28,1.28,0,0,1,.92-.36,5.39,5.39,0,0,1,1.08,0q.76.08,1,.08a1,1,0,0,0,.6-.2v0c0-.08.05-.17.08-.28v-1q0-.88-.16-2.76l-.2-2.76a5.67,5.67,0,0,1,0-1,1.23,1.23,0,0,1,0-.36.42.42,0,0,1,.16-.28.78.78,0,0,1,.56-.16,2.23,2.23,0,0,1,.72,0,5,5,0,0,1,1,.24.17.17,0,0,1,.12,0,.25.25,0,0,1,.28.28v4.64q0,1.76.08,2.8a7.79,7.79,0,0,0,0,.92.55.55,0,0,0,0,.24h0a1.21,1.21,0,0,0,.44,0q.32,0,1.24-.08t1.28-.08a2.16,2.16,0,0,1,.48,0,.76.76,0,0,1,.44.16.5.5,0,0,1,.12.24V76a4.33,4.33,0,0,1,0,.44v.24l.08.64c0,.19.05.33.08.44a1.23,1.23,0,0,1,0,.36.73.73,0,0,1-.44.4,2.9,2.9,0,0,1-.6.12,13.54,13.54,0,0,1-1.48,0l-.72,0-.76,0h-.44a.36.36,0,0,1,0,.16,16.73,16.73,0,0,1,.2,2.92q0,.24.36,6.4.16,2.24.16,3.56a9.55,9.55,0,0,1-.16,2.24.75.75,0,0,1-.56.44,2.34,2.34,0,0,1-.68.16,2.74,2.74,0,0,1-1.32-.12.48.48,0,0,1-.28-.28l-.12-.44q-.08-.48-.16-1.28-.12-1.4-.2-3.8v-7q0-.4,0-.8a8.07,8.07,0,0,0,0-1q0-.84,0-1.32c0-.16-.05-.29-.08-.4a0,0,0,0,1,0,0A1.41,1.41,0,0,0,124.95,78.1Zm7.52-2.56a1.38,1.38,0,0,0-.4,0q-.32,0-1.24.08t-1.28.08a1.37,1.37,0,0,1-.48,0,1,1,0,0,1-.44-.16.46.46,0,0,1-.08-.16.17.17,0,0,1,0-.12,1.05,1.05,0,0,1,0-.32,8,8,0,0,1,0-.92q0-1-.08-2.84V66.78a6.71,6.71,0,0,0-1-.2,1.62,1.62,0,0,0-.6,0h-.24v.24a5,5,0,0,0,0,.92l.2,2.76q.16,1.92.16,2.8v1c0,.13-.05.25-.08.36a.61.61,0,0,1-.16.32,1.44,1.44,0,0,1-1,.36q-.36,0-1.12-.08a4.28,4.28,0,0,0-1,0,.68.68,0,0,0-.56.2,1.33,1.33,0,0,0,0,.44c0,.08,0,.21,0,.38s0,.29,0,.34a2.64,2.64,0,0,0,.24,1.44c.05.11.19.12.4,0l.44-.2a3.69,3.69,0,0,1,.6-.28,2,2,0,0,1,1.36-.08.63.63,0,0,1,.32.4c0,.13.05.29.08.48a9.38,9.38,0,0,1,.08,1.36,8.52,8.52,0,0,1,0,1c0,.25,0,.51,0,.78v7q.08,2.36.2,3.72a6.18,6.18,0,0,0,.16,1.24,3,3,0,0,0,.08.32l0,0a3.39,3.39,0,0,0,1,0,2.91,2.91,0,0,0,.6-.12c.11,0,.16-.05.16-.08a8,8,0,0,0,.16-2.08q0-1.28-.16-3.52-.36-6.2-.36-6.44a15.84,15.84,0,0,0-.2-2.84v0a.45.45,0,0,1-.08-.12.42.42,0,0,1,.08-.44.39.39,0,0,1,.2-.16.55.55,0,0,1,.24,0h.52l.78,0,.7,0a12.74,12.74,0,0,0,1.44,0l.44-.08.08,0s0-.09,0-.18a2.77,2.77,0,0,1,0-.38q-.12-.64-.12-.72v-.28c0-.21,0-.35,0-.4v-.44Z"/><path d="M138.79,74a4.86,4.86,0,0,1,.88,0,1.09,1.09,0,0,1,.68.32,280919,280919,0,0,1,.08.32,2.42,2.42,0,0,1,0,.48q0,.52,0,1.48v4.36q0,1.4,0,3.08t0,2.8q0,1.12,0,1.4v.56c0,.32,0,.68,0,1.08s0,.77,0,1.12q0,1-.08,1.64c0,.27-.05.47-.08.6a1.27,1.27,0,0,1-.08.24.36.36,0,0,1-.2.2,3,3,0,0,1-1.28.28,2.1,2.1,0,0,1-.72,0,.75.75,0,0,1-.56-.44,4.2,4.2,0,0,1-.08-1.52c0-.11,0-.25,0-.44s0-.31,0-.36q0-.44,0-.68,0-1.84,0-8.16,0-4.84-.16-7.6a.36.36,0,0,1-.2-.24.23.23,0,0,1,.16-.28c0-.19.08-.28.24-.28a.29.29,0,0,1,.28.16A6.66,6.66,0,0,1,138.79,74Zm-1.28-5.08a1.43,1.43,0,0,1,1.1-.64,1.57,1.57,0,0,1,1.14.36,2.35,2.35,0,0,1,.8,1,1.57,1.57,0,0,1,.08,1.2,1.27,1.27,0,0,1-1,.88,1.75,1.75,0,0,1-1.36-.16,1.44,1.44,0,0,1-.88-1.12,1.94,1.94,0,0,1,.2-1.12A.27.27,0,0,1,137.51,68.9Zm2.08,5.64a3.47,3.47,0,0,0-.76,0,6.3,6.3,0,0,0-1,.08q.2,2.8.16,7.68,0,6.32,0,8.16,0,.24,0,.72c0,.05,0,.17,0,.36s0,.32,0,.4A3.32,3.32,0,0,0,138,93.3s.05.05.16.08a2,2,0,0,0,.56,0,2.23,2.23,0,0,0,1-.16.17.17,0,0,0,0-.12c0-.13.05-.31.08-.52q0-.56.08-1.6c0-.35,0-.72,0-1.12s0-.76,0-1.08v-.56q0-.28,0-1.4t0-2.8q0-1.68,0-3.08V76.58q0-1,0-1.48a1.71,1.71,0,0,0,0-.4v-.08A1.19,1.19,0,0,0,139.59,74.54Zm-1.68-4.28a1.07,1.07,0,0,0,.56.76,1.44,1.44,0,0,0,1,.12.76.76,0,0,0,.6-.52,1.32,1.32,0,0,0-.64-1.56,1.08,1.08,0,0,0-1-.16A2,2,0,0,0,137.91,70.26Z"/><path d="M147.63,74.26a4.38,4.38,0,0,1,3.16-.08,7.2,7.2,0,0,1,3.4,2,7,7,0,0,1,1.92,3.52,12.46,12.46,0,0,1,.12,3.44,20,20,0,0,1-.68,4.2q-1.4,5.16-4.28,5.92T146,91.1a10.92,10.92,0,0,1-2.24-5.48,15.77,15.77,0,0,1,.08-3.1,20.37,20.37,0,0,1,.72-3.7,10.42,10.42,0,0,1,1.56-3.32,4,4,0,0,1,1.48-1.24Zm-1.08,1.6A9.48,9.48,0,0,0,145.07,79a22.06,22.06,0,0,0-.68,3.6,14.42,14.42,0,0,0-.08,3,10.68,10.68,0,0,0,2.12,5.24q2.08,2.64,4.68,2T155,87.22a19.46,19.46,0,0,0,.7-4.08,11.88,11.88,0,0,0-.14-3.32,6.49,6.49,0,0,0-1.76-3.22,6.26,6.26,0,0,0-3.16-1.86,5.7,5.7,0,0,0-1.72-.2.36.36,0,0,1-.16,0A2.81,2.81,0,0,0,146.55,75.86Zm1.4,3a3.1,3.1,0,0,1,3.32-1.24,3.31,3.31,0,0,1,2.2,2.92,14.48,14.48,0,0,1-.4,5.2,9.75,9.75,0,0,1-.92,2.64,2.15,2.15,0,0,1-1.6,1.32,3.16,3.16,0,0,1-3-1.4,7.21,7.21,0,0,1-1.16-3.76,9.33,9.33,0,0,1,.56-3.92,6.47,6.47,0,0,1,.92-1.6A.23.23,0,0,1,147.95,78.86Zm-.44,2a8.36,8.36,0,0,0-.56,3.68,6.23,6.23,0,0,0,1,3.44,2.73,2.73,0,0,0,2.58,1.2q.56,0,1.12-1a10.58,10.58,0,0,0,.84-2.52,13.19,13.19,0,0,0,.4-5,2.7,2.7,0,0,0-1.8-2.44,2.23,2.23,0,0,0-1.68.2.26.26,0,0,1-.2.32A3.27,3.27,0,0,0,147.51,80.82Z"/><path d="M163.71,93.46a.27.27,0,0,1-.08.2.26.26,0,0,1,.16.24.25.25,0,0,1-.28.28l-.72,0c-.51,0-.87.05-1.08.08q-.64,0-1,0a1.51,1.51,0,0,1-.44-.12.48.48,0,0,1-.32-.28.23.23,0,0,1,0-.16.54.54,0,0,1,0-.24,4,4,0,0,1,0-.64q0-.8,0-2.2,0-2.52,0-6.52.08-9.24.28-10.56a.25.25,0,0,1,.32-.24.16.16,0,0,1,.16.12q.52-.12,1.08-.2a5.09,5.09,0,0,1,.8-.08.64.64,0,0,1,.32,0,.43.43,0,0,1,.32.12l.08.12v3.4a6.37,6.37,0,0,1,.8-1.28A7.52,7.52,0,0,1,167.23,73a3.9,3.9,0,0,1,4.08.44,2.7,2.7,0,0,1,.72,1.12,12.24,12.24,0,0,1,.44,1.72,33.19,33.19,0,0,1,.44,4.6Q173,82.58,173,89v4.4a.31.31,0,0,0,0,.12v.12a.43.43,0,0,1-.08.12.5.5,0,0,1-.24.12h-1.16l-.24,0-.4.12-.44.08a.16.16,0,0,0-.12,0h-.12a.36.36,0,0,1-.16,0,.53.53,0,0,1-.2-.44.31.31,0,0,0,0-.12v-.12q0-.88,0-3.32.16-3.4.16-4.48a35.13,35.13,0,0,0-.08-4.28,6.33,6.33,0,0,0-.6-2.64,2,2,0,0,0-1.52-.8q-1.28-.2-2.16,1.64a17.3,17.3,0,0,0-1.32,4.64,55.84,55.84,0,0,0-.6,8.2.28.28,0,0,1,.08.28l-.08.24v.16a.36.36,0,0,1,0,.16ZM162.43,73.7a4.31,4.31,0,0,0-.76.08,9.42,9.42,0,0,0-1.12.2q-.16,2.16-.24,10.12,0,3.88,0,6.52,0,1.4,0,2.16a3.66,3.66,0,0,0,0,.64v.2h.08a1.18,1.18,0,0,0,.28.08,8.9,8.9,0,0,0,1,0l1-.08a2.1,2.1,0,0,0,.48,0,.23.23,0,0,1-.08-.16V93a.35.35,0,0,1,0-.16,60,60,0,0,1,.64-8.72,16.32,16.32,0,0,1,1.32-4.8q1.12-2.2,2.76-2a2.63,2.63,0,0,1,1.92,1,6.72,6.72,0,0,1,.68,2.92,35.48,35.48,0,0,1,.08,4.32q0,1.12-.16,4.48-.08,2.44,0,3.32v.12l.32-.08.4-.08.28-.08h1V89q0-6.4-.08-8.12a31.91,31.91,0,0,0-.44-4.56,8.15,8.15,0,0,0-.4-1.62,1.81,1.81,0,0,0-.52-.82,3.39,3.39,0,0,0-3.56-.4,7.06,7.06,0,0,0-3,2.32,6.52,6.52,0,0,0-1.2,2.28,4.57,4.57,0,0,0-.12.52v.52a.12.12,0,0,0,0,.08.24.24,0,0,1-.32.12l-.16-.12a.11.11,0,0,1,0-.08v-.6q0-1,0-2.44V73.7S162.48,73.67,162.43,73.7Zm10.12,19.64h0Z"/><path class="cls-2" d="M82.37,34.42A9.85,9.85,0,0,0,82.46,36H80.84a15,15,0,0,0,.08-1.53V29.79a24.86,24.86,0,0,1-4.71,1.91l-.74-1.26a20.38,20.38,0,0,0,5.86-2.37,14.22,14.22,0,0,0,3.39-2.91l1.1,1A21.48,21.48,0,0,1,82.37,29Z"/><path class="cls-2" d="M94.3,32.67a12.37,12.37,0,0,0,4.51-4.9l.79,1.42A13.4,13.4,0,0,1,95,33.89a14.32,14.32,0,0,1-5,1.94l-.87-1.34A13.5,13.5,0,0,0,94.3,32.67Zm-.44-4.16-1,1.05a29.5,29.5,0,0,0-3.25-2.76l.95-1A26.41,26.41,0,0,1,93.86,28.51Z"/><path class="cls-2" d="M111.85,26.83a4,4,0,0,0-.23.75,12.89,12.89,0,0,1-1.94,4.77,10.1,10.1,0,0,1-5.17,3.52l-1.1-1.22a8.58,8.58,0,0,0,5.07-3.09,9,9,0,0,0,1.63-4h-6.38c-.56,0-1.08,0-1.4.05V26.17a11.52,11.52,0,0,0,1.4.1H110a3.35,3.35,0,0,0,.83-.09Z"/><path class="cls-2" d="M124,27.51a10.46,10.46,0,0,0,1.21-.09v1.37l-1.14,0h-1.9c0,1.92.09,4.33.1,6,0,.75-.44,1.17-1.31,1.17-.72,0-1.47,0-2.16-.08l-.1-1.34a13.42,13.42,0,0,0,1.78.14c.35,0,.48-.17.48-.52,0-1,0-2.61,0-4.19a18,18,0,0,1-5.53,4.65l-.94-1.07a16,16,0,0,0,5.86-4.78h-4q-.68,0-1.33,0V27.41a10.07,10.07,0,0,0,1.3.09h4.54c0-.43,0-.81,0-1.12a8.32,8.32,0,0,0-.12-1.2h1.48a7.36,7.36,0,0,0-.06,1.2v1.12Z"/></g><g id="コンテンツ-2" data-name="コンテンツ"><path class="cls-2" d="M10.89,48a1.8,1.8,0,0,0-1.45,0A.8.8,0,1,0,10.89,48Z"/><path class="cls-2" d="M17.55,58.13c-.39,1.3,1.17,1.41,1.74.87C19.45,58,18.43,58.12,17.55,58.13Z"/><path class="cls-2" d="M.47,59.29c-.15,1.33,1,1.17,1.74.87C2.24,59.26,1.34,59.29.47,59.29Z"/><path class="cls-2" d="M10.6,67.1c-.82-.24-.75.41-1.45.29-.36,1.64,1.64,1.27,1.74.29C10.67,67.62,10.56,67.44,10.6,67.1Z"/><path class="cls-2" d="M13.77,57.76A5.19,5.19,0,0,1,13,58l-.38-.25c-.91-.59-1.77-1.16-1.81-2.2l.08,0c-.55-1.38.46-2.85,0-4.05-.37,0-.4-.37-.87-.29C9.5,52.3,9.56,54,9.16,55.23l0,.05a.4.4,0,0,0-.26.24,5.38,5.38,0,0,1-1.56,2,10.47,10.47,0,0,0-1.12,1.19,2.86,2.86,0,0,0-1.7.86c.71.23,1.12.76,2,.86a3.15,3.15,0,0,1,1.8,2v0a1.55,1.55,0,0,0,.27.6c0,.92-.29,2.21.87,2,.59-.28.62-1.11.58-2L9.93,63l0,0A32.8,32.8,0,0,1,13.12,59a6,6,0,0,0,1-.24ZM9.44,62.18h-.3A4,4,0,0,0,6.8,59.61l0,0v-.32a9.26,9.26,0,0,1,1.07-1.14,6.67,6.67,0,0,0,1.64-2c.17,0,.26-.17.4-.24a4.05,4.05,0,0,0,2.18,2.6l.22.15A33.93,33.93,0,0,0,9.44,62.18Z"/><path class="cls-2" d="M180.5,45.66a1.8,1.8,0,0,0-1.45,0A.8.8,0,1,0,180.5,45.66Z"/><path class="cls-2" d="M187.15,55.79c-.39,1.3,1.17,1.41,1.74.87C189.06,55.62,188,55.78,187.15,55.79Z"/><path class="cls-2" d="M170.08,56.95c-.15,1.33,1,1.17,1.74.87C171.84,56.92,170.94,57,170.08,56.95Z"/><path class="cls-2" d="M180.21,64.76c-.82-.24-.75.41-1.45.29-.36,1.64,1.64,1.27,1.74.29C180.27,65.28,180.16,65.1,180.21,64.76Z"/><path class="cls-2" d="M183.37,55.42a5.19,5.19,0,0,1-.77.2l-.38-.25c-.91-.59-1.77-1.16-1.81-2.2l.08,0c-.55-1.38.46-2.85,0-4.05-.37,0-.4-.37-.87-.29-.52,1.12-.47,2.82-.87,4.05l0,.05a.4.4,0,0,0-.26.24,5.38,5.38,0,0,1-1.56,2,10.47,10.47,0,0,0-1.12,1.19,2.86,2.86,0,0,0-1.7.86c.71.23,1.12.76,2,.86a3.15,3.15,0,0,1,1.8,2v0a1.55,1.55,0,0,0,.27.6c0,.92-.29,2.21.87,2,.59-.28.62-1.11.58-2l-.1-.08,0,0a32.8,32.8,0,0,1,3.17-3.92,6,6,0,0,0,1-.24ZM179,59.84h-.3a4,4,0,0,0-2.33-2.58l0,0v-.32a9.26,9.26,0,0,1,1.07-1.14,6.67,6.67,0,0,0,1.64-2c.17,0,.26-.17.4-.24a4.05,4.05,0,0,0,2.18,2.6l.22.15A33.93,33.93,0,0,0,179,59.84Z"/><path class="cls-1" d="M83.07,60.41a.79.79,0,0,1-.6-1.31,32.44,32.44,0,0,0,4.81-8.56.79.79,0,0,1,1.46.62,33.77,33.77,0,0,1-5.06,9,.79.79,0,0,1-.6.28Z"/><path class="cls-1" d="M88,51.66a.81.81,0,0,1-.81-.72,9.76,9.76,0,0,1,.09-2.39c.05-.42.11-.85.12-1.27a.81.81,0,1,1,1.63.05c0,.48-.07,1-.13,1.42a8.41,8.41,0,0,0-.09,2,.81.81,0,0,1-.71.9Z"/><path class="cls-1" d="M98.17,52.22a86.63,86.63,0,0,1-10.26-.63.74.74,0,1,1,.18-1.48c9.69,1.15,18.25.71,29.57-1.49S145.41,39.06,144,27.89c-.38-3-3-7.5-7.87-10.81-11.29-7.63-26.33-8.85-37-8.54-10,.29-28,5.73-34.53,14.79a12,12,0,0,0-2,11C65.3,43.25,75,47,82.69,48.61a.74.74,0,0,1-.3,1.46c-11.58-2.4-18.91-7.71-21.19-15.36a13.46,13.46,0,0,1,2.22-12.25C70.34,12.89,88.6,7.36,99.12,7,110,6.72,125.34,8,137,15.84c5.66,3.82,8.12,8.78,8.51,11.86,1.44,11.41-13.26,19.6-27.53,22.38a101.63,101.63,0,0,1-19.77,2.13Z"/></g></svg>