<svg xmlns="http://www.w3.org/2000/svg" viewBox="0 0 211.06 104.67"><defs><style>.cls-1{fill:#c63043;}.cls-2{fill:#333;}</style></defs><title>bar-アートボード 67</title><g id="コンテンツ"><path class="cls-1" d="M22.27,84.57l.36-.24.32-.16a4.19,4.19,0,0,1,4,1,4.91,4.91,0,0,1,1.88,3.68v.24a.5.5,0,0,1-.08.4.83.83,0,0,1-.36.24,2.69,2.69,0,0,1-.4.2l-.4.16-.28.08-.28.16a1.86,1.86,0,0,1-.44.2,1,1,0,0,1-1,0,.85.85,0,0,1-.24-.4q0-.08-.24-.6a7.55,7.55,0,0,0-.72-1.36,1.51,1.51,0,0,0-.88-.76q-.56-.08-1.28.72A5.72,5.72,0,0,0,21.51,91a47.11,47.11,0,0,0-.12,4.72q0,.44,0,2.1t0,2.38a10.79,10.79,0,0,1-.08,1.52c0,.21-.05.39-.08.52a.5.5,0,0,1-.28.36,1.78,1.78,0,0,1-.72.16q-.44,0-1,0a4.46,4.46,0,0,1-1-.16,1.41,1.41,0,0,1-.36-.12.65.65,0,0,1-.28-.32,6.31,6.31,0,0,1-.12-1.16q0-.84,0-2.12,0-2.4.08-6,.16-6.76.36-9.6A.27.27,0,0,1,18,83a.26.26,0,0,1,.16-.24.29.29,0,0,1,.28-.16.16.16,0,0,1,.16.12q.68,0,3,0a.25.25,0,0,1,.28.28v0a.27.27,0,0,1,.12.24c0,.05,0,.19,0,.4v.6a2.51,2.51,0,0,0,0,.48v0A1.76,1.76,0,0,0,22.27,84.57Z"/><path class="cls-1" d="M20.79,102.05a1.9,1.9,0,0,0,0-.44,9.52,9.52,0,0,0,.08-1.44q0-.72,0-2.36t0-2.12A47.54,47.54,0,0,1,21,90.93a5.88,5.88,0,0,1,.88-3.2,2.09,2.09,0,0,1,1.76-.88,2.09,2.09,0,0,1,1.28,1,14.39,14.39,0,0,1,.76,1.48,3.74,3.74,0,0,0,.24.56.94.94,0,0,0,.12.24q.08.08.44-.08a1.38,1.38,0,0,0,.36-.16,1.53,1.53,0,0,1,.32-.16l.32-.12.4-.16.36-.2.12,0v-.32a4.51,4.51,0,0,0-1.68-3.28,3.69,3.69,0,0,0-3.52-.88.41.41,0,0,0-.16.08l-.4.24a3.86,3.86,0,0,1-.4.24l-.2.08a.34.34,0,0,1-.28,0,.65.65,0,0,1-.32-.48,4,4,0,0,1,0-.64v-.56c0-.24,0-.37,0-.4q-2,0-2.76,0-.2,2.8-.36,9.52-.08,3.64-.08,6,0,1.32,0,2.12a9.6,9.6,0,0,0,.08,1,0,0,0,0,1,0,0l.24.08a5.39,5.39,0,0,0,.84.12q.48,0,.88,0a2.93,2.93,0,0,0,.48-.08Z"/><path class="cls-1" d="M37.31,93.21l-.32,0a1.31,1.31,0,0,1-.4.08q-.4.12-.44.22a1.93,1.93,0,0,0-.08.38q0,.28,0,.72a11.41,11.41,0,0,0,.36,1.92,8.83,8.83,0,0,0,.72,1.84q.4.72.72.76a2.71,2.71,0,0,0,2.28-.66,4.3,4.3,0,0,0,1.36-2.26,1.13,1.13,0,0,0,0-.44,1,1,0,0,1,.2-.68.64.64,0,0,1,.36-.16,1.5,1.5,0,0,1,.36,0,5.44,5.44,0,0,1,1,.1,9.19,9.19,0,0,1,.94.22,1.58,1.58,0,0,1,.36.16.48.48,0,0,1,.28.28,2.21,2.21,0,0,1,.08,1.36,7.91,7.91,0,0,1-.32,1.2,6.64,6.64,0,0,1-1.8,2.6,8.26,8.26,0,0,1-2.72,1.66,7.08,7.08,0,0,1-3.14.38,6.41,6.41,0,0,1-3-1.08q-2-1.4-2.44-5.2a17.58,17.58,0,0,1,.84-7.24,12.43,12.43,0,0,1,3.64-5.88,6,6,0,0,1,6.24-1,3.29,3.29,0,0,1,1.6,1.8,10.56,10.56,0,0,1,.84,2.8,14.78,14.78,0,0,1,.2,2.76,3.31,3.31,0,0,1-.2,1,.89.89,0,0,1-.42.66A10.22,10.22,0,0,1,43,92l-2.32.52q-2.08.44-3.2.6A.6.6,0,0,1,37.31,93.21Z"/><path class="cls-1" d="M40.55,92q1.32-.28,2.32-.56a8.19,8.19,0,0,0,1.32-.36c.05,0,.11-.13.16-.32a3.25,3.25,0,0,0,.16-.88,13.15,13.15,0,0,0-.2-2.6,10.31,10.31,0,0,0-.8-2.68,2.46,2.46,0,0,0-1.32-1.48,5.35,5.35,0,0,0-5.64.84,11.83,11.83,0,0,0-3.48,5.64,17.79,17.79,0,0,0-.8,7q.36,3.52,2.2,4.76a6.34,6.34,0,0,0,3.74,1,7,7,0,0,0,3.66-1.28,6.25,6.25,0,0,0,2.4-3A4.41,4.41,0,0,0,44.59,97a2.2,2.2,0,0,0,0-1,0,0,0,0,1,0,0l-.28-.08a7.17,7.17,0,0,0-.86-.22,4.58,4.58,0,0,0-.9-.1.89.89,0,0,0-.28,0h0a.68.68,0,0,0,0,.28,2.91,2.91,0,0,1,0,.6A5.32,5.32,0,0,1,40.53,99a3.14,3.14,0,0,1-2.7.78q-.6-.12-1.16-1.08A9.73,9.73,0,0,1,36,96.73a10.23,10.23,0,0,1-.4-2q0-.48,0-.8a1.47,1.47,0,0,1,.16-.6,1.15,1.15,0,0,1,.8-.48.28.28,0,0,1,.28-.2A29.44,29.44,0,0,0,40.55,92Z"/><path class="cls-1" d="M37.19,87.55a5,5,0,0,1,1.2-1.5,2.21,2.21,0,0,1,1.68-.56,1.88,1.88,0,0,1,1.4,1.44l.16.64a2.87,2.87,0,0,1,.12.36.79.79,0,0,1,0,.36.51.51,0,0,1-.12.2l0,0-.2.08a2,2,0,0,1-.48.24q-.56.24-1.4.56L38,89.89a3.62,3.62,0,0,1-.52.16.44.44,0,0,0-.2,0h-.2a.49.49,0,0,1-.32-.36.17.17,0,0,0,0-.12v-.08a.26.26,0,0,1,0-.28A3.27,3.27,0,0,1,37.19,87.55Z"/><path class="cls-1" d="M41.19,88.05q0-.16-.08-.36c-.05-.19-.12-.39-.2-.6q-.28-.92-.92-1a1.73,1.73,0,0,0-1.26.46,3.89,3.89,0,0,0-1.12,1.4,2.3,2.3,0,0,0-.26,1.54v0l.52-.12q.6-.2,1.44-.52t1.4-.52l.44-.2,0,0Z"/><path class="cls-1" d="M55.87,86.13a1.89,1.89,0,0,0-1.32-.24,1.42,1.42,0,0,0-1,.64,1.44,1.44,0,0,0,0,1.44,8.24,8.24,0,0,0,2,2.44A16.69,16.69,0,0,1,58,93a11.42,11.42,0,0,1,1.4,3.18,6.73,6.73,0,0,1,.16,3.06A4,4,0,0,1,58,101.73a5.67,5.67,0,0,1-3.44.92,8.39,8.39,0,0,1-3.12-.4,3.78,3.78,0,0,1-1.08-.84,16.71,16.71,0,0,1-1.16-1.48,8.16,8.16,0,0,1-.88-1.6,1.88,1.88,0,0,1-.12-1.44.9.9,0,0,1,.32-.32,2.65,2.65,0,0,1,.44-.16l.28-.1.24-.1.12,0,.36-.32q.4-.36.72-.16A.7.7,0,0,1,51,96a3.57,3.57,0,0,1,.2.36,7,7,0,0,0,.44.84,2.67,2.67,0,0,0,2,1.24A1.65,1.65,0,0,0,54.91,98a1.57,1.57,0,0,0,.68-1.14,3,3,0,0,0-.76-1.72q-.32-.4-1.08-1.26t-.92-1.06q-3-3.56-3-6.76a4,4,0,0,1,.64-2.18,4.88,4.88,0,0,1,1.64-1.62,5.25,5.25,0,0,1,3.8-.76,4.63,4.63,0,0,1,2.56,1.72,7.18,7.18,0,0,1,1.24,2.52,3.19,3.19,0,0,1,.12,1.08,1.1,1.1,0,0,1-.24.8.61.61,0,0,1-.32.16,1,1,0,0,1-.32,0c-.21,0-.48,0-.8,0l-.8,0-.52,0a.25.25,0,0,1-.28-.28.27.27,0,0,1,.08-.2A1.48,1.48,0,0,0,55.87,86.13Z"/><path class="cls-1" d="M48.87,98.09a6.33,6.33,0,0,0,.84,1.52,8.59,8.59,0,0,0,1.12,1.4,3.71,3.71,0,0,0,.88.76,8.57,8.57,0,0,0,2.88.32q3.84,0,4.44-3a6.45,6.45,0,0,0-.16-2.82,10.36,10.36,0,0,0-1.32-3,18.74,18.74,0,0,0-2.4-2.52,9.5,9.5,0,0,1-2.24-2.6,2.09,2.09,0,0,1,.12-2,2,2,0,0,1,1.44-.88,2.43,2.43,0,0,1,1.72.32,2,2,0,0,1,1,1.52h.2l.8.08h.72a.56.56,0,0,0,.24,0h0a.74.74,0,0,0,.08-.4,2.35,2.35,0,0,0-.12-.92A6.25,6.25,0,0,0,58,83.57a3.87,3.87,0,0,0-2.24-1.52,4.34,4.34,0,0,0-3.36.68,4.08,4.08,0,0,0-1.48,1.42,3.54,3.54,0,0,0-.56,1.9q0,3,2.92,6.4l.92,1.08q.76.88,1.08,1.28a3.23,3.23,0,0,1,.88,2.12,2.11,2.11,0,0,1-.92,1.48,2.24,2.24,0,0,1-1.64.56,3.17,3.17,0,0,1-2.4-1.48,7.44,7.44,0,0,1-.52-.92,1.8,1.8,0,0,0-.16-.32.11.11,0,0,1,0-.08l-.12.08a4.12,4.12,0,0,1-.48.4.43.43,0,0,1-.16.08l-.28.1-.24.1a1.56,1.56,0,0,0-.36.16l-.12,0A1.4,1.4,0,0,0,48.87,98.09Z"/><path class="cls-1" d="M68.23,93.21l-.32,0a1.31,1.31,0,0,1-.4.08q-.4.12-.44.22a1.93,1.93,0,0,0-.08.38q0,.28,0,.72a11.41,11.41,0,0,0,.36,1.92,8.83,8.83,0,0,0,.72,1.84q.4.72.72.76a2.71,2.71,0,0,0,2.28-.66,4.3,4.3,0,0,0,1.36-2.26,1.13,1.13,0,0,0,0-.44,1,1,0,0,1,.2-.68.64.64,0,0,1,.36-.16,1.5,1.5,0,0,1,.36,0,5.44,5.44,0,0,1,1,.1,9.19,9.19,0,0,1,.94.22,1.58,1.58,0,0,1,.36.16.48.48,0,0,1,.28.28,2.21,2.21,0,0,1,.08,1.36,7.91,7.91,0,0,1-.32,1.2,6.64,6.64,0,0,1-1.8,2.6,8.26,8.26,0,0,1-2.72,1.66,7.08,7.08,0,0,1-3.14.38,6.41,6.41,0,0,1-3-1.08q-2-1.4-2.44-5.2a17.58,17.58,0,0,1,.84-7.24,12.43,12.43,0,0,1,3.64-5.88,6,6,0,0,1,6.24-1,3.29,3.29,0,0,1,1.6,1.8,10.56,10.56,0,0,1,.84,2.8,14.78,14.78,0,0,1,.2,2.76,3.31,3.31,0,0,1-.2,1,.89.89,0,0,1-.42.66,10.22,10.22,0,0,1-1.46.42l-2.32.52q-2.08.44-3.2.6A.6.6,0,0,1,68.23,93.21Z"/><path class="cls-1" d="M71.47,92q1.32-.28,2.32-.56a8.19,8.19,0,0,0,1.32-.36c.05,0,.11-.13.16-.32a3.25,3.25,0,0,0,.16-.88,13.15,13.15,0,0,0-.2-2.6,10.31,10.31,0,0,0-.8-2.68,2.46,2.46,0,0,0-1.32-1.48,5.35,5.35,0,0,0-5.64.84A11.83,11.83,0,0,0,64,89.57a17.79,17.79,0,0,0-.8,7q.36,3.52,2.2,4.76a6.34,6.34,0,0,0,3.74,1,7,7,0,0,0,3.66-1.28,6.25,6.25,0,0,0,2.4-3A4.41,4.41,0,0,0,75.51,97a2.2,2.2,0,0,0,0-1,0,0,0,0,1,0,0l-.28-.08a7.17,7.17,0,0,0-.86-.22,4.58,4.58,0,0,0-.9-.1.89.89,0,0,0-.28,0h0a.68.68,0,0,0,0,.28,2.91,2.91,0,0,1,0,.6A5.32,5.32,0,0,1,71.45,99a3.14,3.14,0,0,1-2.7.78q-.6-.12-1.16-1.08a9.7,9.7,0,0,1-.72-1.92,10.2,10.2,0,0,1-.4-2q0-.48,0-.8a1.47,1.47,0,0,1,.16-.6,1.15,1.15,0,0,1,.8-.48.28.28,0,0,1,.28-.2A29.44,29.44,0,0,0,71.47,92Z"/><path class="cls-1" d="M68.11,87.55a5,5,0,0,1,1.2-1.5A2.21,2.21,0,0,1,71,85.49a1.88,1.88,0,0,1,1.4,1.44l.16.64a2.87,2.87,0,0,1,.12.36.81.81,0,0,1,0,.36.51.51,0,0,1-.12.2l0,0-.2.08a2,2,0,0,1-.48.24q-.56.24-1.4.56l-1.48.48a3.62,3.62,0,0,1-.52.16.44.44,0,0,0-.2,0H68a.49.49,0,0,1-.32-.36.17.17,0,0,0,0-.12v-.08a.26.26,0,0,1,0-.28A3.27,3.27,0,0,1,68.11,87.55Z"/><path class="cls-1" d="M72.11,88.05q0-.16-.08-.36c-.05-.19-.12-.39-.2-.6q-.28-.92-.92-1a1.73,1.73,0,0,0-1.26.46,3.89,3.89,0,0,0-1.12,1.4,2.3,2.3,0,0,0-.26,1.54v0l.52-.12q.6-.2,1.44-.52t1.4-.52l.44-.2,0,0Z"/><path class="cls-1" d="M83.59,84.57l.36-.24.32-.16a4.19,4.19,0,0,1,4,1,4.91,4.91,0,0,1,1.88,3.68v.24a.5.5,0,0,1-.08.4.83.83,0,0,1-.36.24,2.69,2.69,0,0,1-.4.2l-.4.16-.28.08-.28.16a1.86,1.86,0,0,1-.44.2,1,1,0,0,1-1,0,.85.85,0,0,1-.24-.4q0-.08-.24-.6a7.55,7.55,0,0,0-.72-1.36,1.51,1.51,0,0,0-.88-.76q-.56-.08-1.28.72A5.72,5.72,0,0,0,82.83,91a47.11,47.11,0,0,0-.12,4.72q0,.44,0,2.1t0,2.38a10.79,10.79,0,0,1-.08,1.52c0,.21-.05.39-.08.52a.5.5,0,0,1-.28.36,1.78,1.78,0,0,1-.72.16q-.44,0-1,0a4.46,4.46,0,0,1-1-.16,1.41,1.41,0,0,1-.36-.12.65.65,0,0,1-.28-.32,6.31,6.31,0,0,1-.12-1.16q0-.84,0-2.12,0-2.4.08-6,.16-6.76.36-9.6a.27.27,0,0,1-.08-.2.26.26,0,0,1,.16-.24.29.29,0,0,1,.28-.16.16.16,0,0,1,.16.12q.68,0,3,0a.25.25,0,0,1,.28.28v0a.27.27,0,0,1,.12.24c0,.05,0,.19,0,.4v.6a2.51,2.51,0,0,0,0,.48v0A1.76,1.76,0,0,0,83.59,84.57Z"/><path class="cls-1" d="M82.11,102.05a1.9,1.9,0,0,0,0-.44,9.52,9.52,0,0,0,.08-1.44q0-.72,0-2.36t0-2.12a47.54,47.54,0,0,1,.12-4.76,5.88,5.88,0,0,1,.88-3.2,1.68,1.68,0,0,1,3,.12,14.39,14.39,0,0,1,.76,1.48,3.74,3.74,0,0,0,.24.56.94.94,0,0,0,.12.24q.08.08.44-.08a1.38,1.38,0,0,0,.36-.16,1.53,1.53,0,0,1,.32-.16l.32-.12.4-.16.36-.2.12,0v-.32a4.51,4.51,0,0,0-1.68-3.28,3.69,3.69,0,0,0-3.52-.88.41.41,0,0,0-.16.08l-.4.24a3.86,3.86,0,0,1-.4.24l-.2.08a.34.34,0,0,1-.28,0,.65.65,0,0,1-.32-.48,4,4,0,0,1,0-.64v-.56c0-.24,0-.37,0-.4q-2,0-2.76,0-.2,2.8-.36,9.52-.08,3.64-.08,6,0,1.32,0,2.12a9.6,9.6,0,0,0,.08,1,0,0,0,0,1,0,0l.24.08a5.39,5.39,0,0,0,.84.12q.48,0,.88,0a2.93,2.93,0,0,0,.48-.08Z"/><path class="cls-1" d="M101.19,94.61a16.47,16.47,0,0,0,.44-1.92c0-.08.05-.17.08-.28l0-.08v-.12q.08-.28.24-1l.48-1.88q.24-1.12.48-2,.44-1.84.76-2.88a8.32,8.32,0,0,1,.32-1,1.71,1.71,0,0,1,.32-.6.56.56,0,0,1,.28-.12,1,1,0,0,1,.32,0,4.45,4.45,0,0,1,.84,0q.44,0,.84,0a2.08,2.08,0,0,1,.52,0,.51.51,0,0,1,.32.4,1.42,1.42,0,0,1,.08.52,7.53,7.53,0,0,1-.16,1.32l-.52,2.32a55.29,55.29,0,0,1-1.72,5.32,42.41,42.41,0,0,0-1.64,5.28q-.4,1.88-.52,2.36l-.4,1.32a1.92,1.92,0,0,1-.2.52.6.6,0,0,1-.2.32.88.88,0,0,1-.32.12,1.5,1.5,0,0,1-.36,0,4.86,4.86,0,0,1-.88,0,4.46,4.46,0,0,1-.88-.08,1,1,0,0,1-.32,0,1.71,1.71,0,0,1-.32-.16.48.48,0,0,1-.08-.12l-.08-.16a5,5,0,0,1-.16-.48q-.2-.56-.48-1.52L97,95.37l-2.12-7.88a7.62,7.62,0,0,0-.26-.88q-.26-.8-.42-1.36-.2-.84-.28-1.32a4.45,4.45,0,0,1,0-.52.51.51,0,0,1,.2-.48,1.31,1.31,0,0,1,.72-.16,5.34,5.34,0,0,1,.92,0,11.44,11.44,0,0,1,1.56.24.29.29,0,0,1,.2.36.25.25,0,0,1-.28.2q.16.48.44,1.52l.76,2.52.76,2.52q.92,3,1.24,3.88t.48,1.28l.08.08Q101.07,95.09,101.19,94.61Z"/><path class="cls-1" d="M104.55,83.57l-.32,1q-.32,1-.76,2.84l-.44,2-.48,1.92q-.16.76-.24,1l-.08.2a.65.65,0,0,0,0,.2q-.2,1-.44,2c-.11.37-.2.67-.28.88a1.8,1.8,0,0,1-.16.32.49.49,0,0,1-.08.12.28.28,0,0,1-.28.08,1.06,1.06,0,0,1-.24-.12.44.44,0,0,1-.08-.16,1.31,1.31,0,0,1-.24-.4q-.2-.44-.48-1.28-.48-1.36-1.24-3.92l-.84-2.76L97,84.85a11.44,11.44,0,0,0-.44-1.4q-.44-.08-.88-.12a4.29,4.29,0,0,0-.84,0,1.38,1.38,0,0,0-.4,0v0a2.49,2.49,0,0,0,0,.4,6.7,6.7,0,0,0,.28,1.28l.4,1.36q.24.8.28.88l2.08,7.88,1.28,4.6q.32,1,.48,1.52a1.52,1.52,0,0,0,.16.4.31.31,0,0,1,0,.12h0a.89.89,0,0,0,.28,0,4.84,4.84,0,0,0,.84.1,5,5,0,0,0,.8,0h.36l.08-.16a2.61,2.61,0,0,0,.16-.44q.16-.48.36-1.32t.52-2.28a43.16,43.16,0,0,1,1.68-5.4,52.81,52.81,0,0,0,1.68-5.28q.44-1.76.52-2.28a6.21,6.21,0,0,0,.16-1.2,1.22,1.22,0,0,0,0-.36v0l-.36,0h-.8a3.88,3.88,0,0,0-.8,0,.55.55,0,0,0-.24,0h0Z"/><path class="cls-1" d="M115.95,93.21l-.32,0a1.3,1.3,0,0,1-.4.08q-.4.12-.44.22a2,2,0,0,0-.08.38q0,.28,0,.72a11.46,11.46,0,0,0,.36,1.92,8.8,8.8,0,0,0,.72,1.84q.4.72.72.76a2.71,2.71,0,0,0,2.28-.66,4.31,4.31,0,0,0,1.36-2.26,1.14,1.14,0,0,0,0-.44,1,1,0,0,1,.2-.68.64.64,0,0,1,.36-.16,1.5,1.5,0,0,1,.36,0,5.44,5.44,0,0,1,1,.1,9.17,9.17,0,0,1,.94.22,1.58,1.58,0,0,1,.36.16.47.47,0,0,1,.28.28,2.21,2.21,0,0,1,.08,1.36,7.85,7.85,0,0,1-.32,1.2,6.63,6.63,0,0,1-1.8,2.6,8.25,8.25,0,0,1-2.72,1.66,7.07,7.07,0,0,1-3.14.38,6.41,6.41,0,0,1-3-1.08q-2-1.4-2.44-5.2a17.59,17.59,0,0,1,.84-7.24,12.43,12.43,0,0,1,3.64-5.88,6,6,0,0,1,6.24-1,3.29,3.29,0,0,1,1.6,1.8,10.54,10.54,0,0,1,.84,2.8,14.79,14.79,0,0,1,.2,2.76,3.31,3.31,0,0,1-.2,1,.89.89,0,0,1-.42.66,10.22,10.22,0,0,1-1.46.42l-2.32.52q-2.08.44-3.2.6A.61.61,0,0,1,115.95,93.21Z"/><path class="cls-1" d="M119.19,92q1.32-.28,2.32-.56a8.2,8.2,0,0,0,1.32-.36c.05,0,.11-.13.16-.32a3.25,3.25,0,0,0,.16-.88,13.11,13.11,0,0,0-.2-2.6,10.31,10.31,0,0,0-.8-2.68,2.46,2.46,0,0,0-1.32-1.48,5.35,5.35,0,0,0-5.64.84,11.83,11.83,0,0,0-3.48,5.64,17.77,17.77,0,0,0-.8,7q.36,3.52,2.2,4.76a6.34,6.34,0,0,0,3.74,1,7,7,0,0,0,3.66-1.28,6.25,6.25,0,0,0,2.4-3,4.39,4.39,0,0,0,.32-1.12,2.2,2.2,0,0,0,0-1,0,0,0,0,1,0,0l-.28-.08a7.18,7.18,0,0,0-.86-.22,4.58,4.58,0,0,0-.9-.1.9.9,0,0,0-.28,0h0a.69.69,0,0,0,0,.28,2.88,2.88,0,0,1,0,.6A5.31,5.31,0,0,1,119.17,99a3.14,3.14,0,0,1-2.7.78q-.6-.12-1.16-1.08a9.7,9.7,0,0,1-.72-1.92,10.16,10.16,0,0,1-.4-2q0-.48,0-.8a1.47,1.47,0,0,1,.16-.6,1.15,1.15,0,0,1,.8-.48.28.28,0,0,1,.28-.2A29.43,29.43,0,0,0,119.19,92Z"/><path class="cls-1" d="M115.83,87.55a5,5,0,0,1,1.2-1.5,2.21,2.21,0,0,1,1.68-.56,1.87,1.87,0,0,1,1.4,1.44l.16.64a3,3,0,0,1,.12.36.81.81,0,0,1,0,.36.52.52,0,0,1-.12.2l0,0-.2.08a2,2,0,0,1-.48.24q-.56.24-1.4.56l-1.48.48a3.62,3.62,0,0,1-.52.16.44.44,0,0,0-.2,0h-.2a.49.49,0,0,1-.32-.36.17.17,0,0,0,0-.12v-.08a.26.26,0,0,1,0-.28A3.26,3.26,0,0,1,115.83,87.55Z"/><path class="cls-1" d="M119.83,88.05c0-.11-.05-.23-.08-.36s-.12-.39-.2-.6q-.28-.92-.92-1a1.73,1.73,0,0,0-1.26.46,3.9,3.9,0,0,0-1.12,1.4,2.3,2.3,0,0,0-.26,1.54v0l.52-.12q.6-.2,1.44-.52t1.4-.52l.44-.2,0,0Z"/><path class="cls-1" d="M146.51,86.13a1.89,1.89,0,0,0-1.32-.24,1.42,1.42,0,0,0-1,.64,1.44,1.44,0,0,0,0,1.44,8.23,8.23,0,0,0,2,2.44,16.64,16.64,0,0,1,2.52,2.6,11.41,11.41,0,0,1,1.4,3.18,6.72,6.72,0,0,1,.16,3.06,4,4,0,0,1-1.56,2.48,5.67,5.67,0,0,1-3.44.92,8.39,8.39,0,0,1-3.12-.4,3.78,3.78,0,0,1-1.08-.84,16.79,16.79,0,0,1-1.16-1.48,8.14,8.14,0,0,1-.88-1.6,1.88,1.88,0,0,1-.12-1.44.9.9,0,0,1,.32-.32,2.68,2.68,0,0,1,.44-.16l.28-.1.24-.1.12,0,.36-.32q.4-.36.72-.16a.71.71,0,0,1,.28.28,3.81,3.81,0,0,1,.2.36,7,7,0,0,0,.44.84,2.67,2.67,0,0,0,2,1.24,1.65,1.65,0,0,0,1.24-.42,1.56,1.56,0,0,0,.68-1.14,3,3,0,0,0-.76-1.72q-.32-.4-1.08-1.26l-.92-1.06q-3-3.56-3-6.76a4,4,0,0,1,.64-2.18,4.88,4.88,0,0,1,1.64-1.62,5.25,5.25,0,0,1,3.8-.76,4.63,4.63,0,0,1,2.56,1.72,7.18,7.18,0,0,1,1.24,2.52,3.18,3.18,0,0,1,.12,1.08,1.1,1.1,0,0,1-.24.8.61.61,0,0,1-.32.16,1,1,0,0,1-.32,0c-.21,0-.48,0-.8,0l-.8,0-.52,0a.25.25,0,0,1-.28-.28.27.27,0,0,1,.08-.2A1.48,1.48,0,0,0,146.51,86.13Z"/><path class="cls-1" d="M139.51,98.09a6.33,6.33,0,0,0,.84,1.52,8.59,8.59,0,0,0,1.12,1.4,3.7,3.7,0,0,0,.88.76,8.57,8.57,0,0,0,2.88.32q3.84,0,4.44-3a6.45,6.45,0,0,0-.16-2.82,10.35,10.35,0,0,0-1.32-3,18.81,18.81,0,0,0-2.4-2.52,9.5,9.5,0,0,1-2.24-2.6,2.09,2.09,0,0,1,.12-2,2,2,0,0,1,1.44-.88,2.43,2.43,0,0,1,1.72.32,2,2,0,0,1,1,1.52h.2l.8.08h.72a.56.56,0,0,0,.24,0h0a.74.74,0,0,0,.08-.4,2.37,2.37,0,0,0-.12-.92,6.25,6.25,0,0,0-1.12-2.32,3.87,3.87,0,0,0-2.24-1.52,4.34,4.34,0,0,0-3.36.68,4.08,4.08,0,0,0-1.48,1.42,3.53,3.53,0,0,0-.56,1.9q0,3,2.92,6.4l.92,1.08q.76.88,1.08,1.28a3.22,3.22,0,0,1,.88,2.12,2.11,2.11,0,0,1-.92,1.48,2.24,2.24,0,0,1-1.64.56,3.17,3.17,0,0,1-2.4-1.48,7.46,7.46,0,0,1-.52-.92,1.8,1.8,0,0,0-.16-.32.11.11,0,0,1,0-.08l-.12.08a4.18,4.18,0,0,1-.48.4.43.43,0,0,1-.16.08l-.28.1-.24.1a1.57,1.57,0,0,0-.36.16l-.12,0A1.41,1.41,0,0,0,139.51,98.09Z"/><path class="cls-1" d="M158.87,93.21l-.32,0a1.31,1.31,0,0,1-.4.08q-.4.12-.44.22a1.86,1.86,0,0,0-.08.38q0,.28,0,.72a11.36,11.36,0,0,0,.36,1.92,8.85,8.85,0,0,0,.72,1.84q.4.72.72.76a2.71,2.71,0,0,0,2.28-.66,4.3,4.3,0,0,0,1.36-2.26,1.12,1.12,0,0,0,0-.44,1,1,0,0,1,.2-.68.64.64,0,0,1,.36-.16,1.5,1.5,0,0,1,.36,0,5.45,5.45,0,0,1,1,.1,9.21,9.21,0,0,1,.94.22,1.57,1.57,0,0,1,.36.16.48.48,0,0,1,.28.28,2.21,2.21,0,0,1,.08,1.36,8,8,0,0,1-.32,1.2,6.65,6.65,0,0,1-1.8,2.6,8.27,8.27,0,0,1-2.72,1.66,7.08,7.08,0,0,1-3.14.38,6.41,6.41,0,0,1-3-1.08q-2-1.4-2.44-5.2a17.57,17.57,0,0,1,.84-7.24,12.43,12.43,0,0,1,3.64-5.88,6,6,0,0,1,6.24-1,3.29,3.29,0,0,1,1.6,1.8,10.58,10.58,0,0,1,.84,2.8,14.78,14.78,0,0,1,.2,2.76,3.31,3.31,0,0,1-.2,1,.89.89,0,0,1-.42.66,10.22,10.22,0,0,1-1.46.42l-2.32.52q-2.08.44-3.2.6A.6.6,0,0,1,158.87,93.21Z"/><path class="cls-1" d="M162.11,92q1.32-.28,2.32-.56a8.18,8.18,0,0,0,1.32-.36c.05,0,.11-.13.16-.32a3.24,3.24,0,0,0,.16-.88,13.19,13.19,0,0,0-.2-2.6,10.31,10.31,0,0,0-.8-2.68,2.46,2.46,0,0,0-1.32-1.48,5.35,5.35,0,0,0-5.64.84,11.84,11.84,0,0,0-3.48,5.64,17.81,17.81,0,0,0-.8,7q.36,3.52,2.2,4.76a6.34,6.34,0,0,0,3.74,1,7,7,0,0,0,3.66-1.28,6.25,6.25,0,0,0,2.4-3,4.43,4.43,0,0,0,.32-1.12,2.2,2.2,0,0,0,0-1,0,0,0,0,1,0,0l-.28-.08a7.16,7.16,0,0,0-.86-.22,4.59,4.59,0,0,0-.9-.1.89.89,0,0,0-.28,0h0a.68.68,0,0,0,0,.28,3,3,0,0,1,0,.6A5.32,5.32,0,0,1,162.09,99a3.14,3.14,0,0,1-2.7.78q-.6-.12-1.16-1.08a9.7,9.7,0,0,1-.72-1.92,10.23,10.23,0,0,1-.4-2q0-.48,0-.8a1.48,1.48,0,0,1,.16-.6,1.16,1.16,0,0,1,.8-.48.28.28,0,0,1,.28-.2A29.46,29.46,0,0,0,162.11,92Z"/><path class="cls-1" d="M158.75,87.55a5,5,0,0,1,1.2-1.5,2.21,2.21,0,0,1,1.68-.56,1.88,1.88,0,0,1,1.4,1.44l.16.64a2.71,2.71,0,0,1,.12.36.78.78,0,0,1,0,.36.5.5,0,0,1-.12.2l0,0-.2.08a2,2,0,0,1-.48.24q-.56.24-1.4.56l-1.48.48a3.63,3.63,0,0,1-.52.16.44.44,0,0,0-.2,0h-.2a.49.49,0,0,1-.32-.36.17.17,0,0,0,0-.12v-.08a.26.26,0,0,1,0-.28A3.27,3.27,0,0,1,158.75,87.55Z"/><path class="cls-1" d="M162.75,88.05c0-.11-.05-.23-.08-.36s-.12-.39-.2-.6q-.28-.92-.92-1a1.73,1.73,0,0,0-1.26.46,3.89,3.89,0,0,0-1.12,1.4,2.3,2.3,0,0,0-.26,1.54v0l.52-.12q.6-.2,1.44-.52t1.4-.52l.44-.2,0,0Z"/><path class="cls-1" d="M176.55,100.77a3.19,3.19,0,0,1-1.64.94,3.23,3.23,0,0,1-2-.18,5.1,5.1,0,0,1-2.84-3,12.24,12.24,0,0,1-.8-5,19.92,19.92,0,0,1,.82-5.06,13.13,13.13,0,0,1,1.78-3.94,4.7,4.7,0,0,1,3.36-2A3.41,3.41,0,0,1,178.51,84a2.07,2.07,0,0,0,.1-.52,5.27,5.27,0,0,0,0-.66,2.1,2.1,0,0,1,0-.54,1.09,1.09,0,0,1,.4-1,2.29,2.29,0,0,1,1.48-.24h.08l.22,0,.22,0,.36,0a.67.67,0,0,0,.2,0,.6.6,0,0,1,.16.12.5.5,0,0,1,.12.2v.2a2.77,2.77,0,0,1,0,.52q0,.52,0,1.44,0,.6,0,1.46t0,.9q0,6.8-.28,13a2.06,2.06,0,0,0,0,.24c0,.11,0,.25,0,.44s0,.35,0,.48c0,.29,0,.53,0,.72a1.75,1.75,0,0,0,0,.32,1.43,1.43,0,0,1-.18.28.5.5,0,0,1-.3.16,2.56,2.56,0,0,0-.4,0l-1,0a7.11,7.11,0,0,1-1-.1l-.36-.08a.87.87,0,0,1-.32-.16,1.26,1.26,0,0,1-.2-.8c0-.13,0-.44,0-.92q0-.44,0-.68A12.16,12.16,0,0,1,176.55,100.77Z"/><path class="cls-1" d="M175.31,83.13a4.12,4.12,0,0,0-2.92,1.76,11.49,11.49,0,0,0-1.74,3.78,19.88,19.88,0,0,0-.78,4.9,11.74,11.74,0,0,0,.72,4.72,4.75,4.75,0,0,0,2.6,2.76,2.48,2.48,0,0,0,3-.68,12.25,12.25,0,0,0,1.44-1.84v0a0,0,0,0,0,0,0v-.08a.5.5,0,0,1,.12-.24.26.26,0,0,1,.16-.12.27.27,0,0,1,.24,0,.77.77,0,0,1,.4.72,3.85,3.85,0,0,1,0,.92c0,.45,0,.73,0,.84a1.41,1.41,0,0,0,0,.4h.08l.32.08a6,6,0,0,0,.94.1l.94,0a1.67,1.67,0,0,1,.32,0h0v0a1.24,1.24,0,0,1,0-.2q0-.24,0-.64c0-.11,0-.25,0-.44s0-.35,0-.48,0-.23,0-.28q.28-6.16.28-13s0-.33,0-.9,0-1.06,0-1.46q0-.92,0-1.44v-.44a.11.11,0,0,1,0-.08,1.05,1.05,0,0,0-.32,0l-.24,0-.2,0h-.12a1.72,1.72,0,0,0-1.08.12.64.64,0,0,0-.16.52,1.56,1.56,0,0,0,0,.48q0,.36,0,.62a2.39,2.39,0,0,1-.1.62,2.58,2.58,0,0,1-.3.68.26.26,0,0,1-.4.08l-.08-.08-.08-.08A2.86,2.86,0,0,0,175.31,83.13Z"/><path class="cls-1" d="M177.63,87.93q.24,0,.32.24a.3.3,0,0,0,0,.12l.08.12c.16.11.17.23,0,.36a.11.11,0,0,1,0,.08,29,29,0,0,1-.16,5.48.25.25,0,0,1-.32.24.19.19,0,0,1-.2-.16A8.37,8.37,0,0,1,175,96.69a1.75,1.75,0,0,1-1.88.16,2.44,2.44,0,0,1-1-1.52A6.73,6.73,0,0,1,172,93a7.28,7.28,0,0,1,1.68-4.6,2.78,2.78,0,0,1,1.92-1,3.44,3.44,0,0,1,1.92.56A.16.16,0,0,1,177.63,87.93Z"/><path class="cls-1" d="M175.63,88a2.2,2.2,0,0,0-1.52.76,8,8,0,0,0-1.4,6.44,1.85,1.85,0,0,0,.72,1.2,1.24,1.24,0,0,0,1.32-.16A9.06,9.06,0,0,0,177,93.93a.25.25,0,0,1,.36-.08,21.84,21.84,0,0,0,.08-5.24A3.07,3.07,0,0,0,175.63,88Z"/><path class="cls-1" d="M187.23,86.81l-.56.24a3.76,3.76,0,0,0-.48.24.91.91,0,0,1-1.08-.2,3.39,3.39,0,0,1-.32-1.8V85a3.31,3.31,0,0,1,0-.4,1.21,1.21,0,0,1,.2-.88,1.28,1.28,0,0,1,.92-.36,5.39,5.39,0,0,1,1.08,0q.76.08,1,.08a1,1,0,0,0,.6-.2v0c0-.08.05-.17.08-.28V82q0-.88-.16-2.76l-.2-2.76a5.67,5.67,0,0,1,0-1,1.23,1.23,0,0,1,0-.36.42.42,0,0,1,.16-.28.78.78,0,0,1,.56-.16,2.23,2.23,0,0,1,.72,0,5,5,0,0,1,1,.24.17.17,0,0,1,.12,0,.25.25,0,0,1,.28.28v4.64q0,1.76.08,2.8a7.79,7.79,0,0,0,0,.92.55.55,0,0,0,0,.24h0a1.21,1.21,0,0,0,.44,0q.32,0,1.24-.08t1.28-.08a2.16,2.16,0,0,1,.48,0,.76.76,0,0,1,.44.16.5.5,0,0,1,.12.24v.6a4.33,4.33,0,0,1,0,.44v.24l.08.64c0,.19.05.33.08.44a1.23,1.23,0,0,1,0,.36.73.73,0,0,1-.44.4,2.9,2.9,0,0,1-.6.12,13.54,13.54,0,0,1-1.48,0l-.72,0-.76,0H191a.36.36,0,0,1,0,.16,16.73,16.73,0,0,1,.2,2.92q0,.24.36,6.4.16,2.24.16,3.56a9.55,9.55,0,0,1-.16,2.24.75.75,0,0,1-.56.44,2.34,2.34,0,0,1-.68.16,2.74,2.74,0,0,1-1.32-.12.48.48,0,0,1-.28-.28l-.12-.44q-.08-.48-.16-1.28-.12-1.4-.2-3.8v-7q0-.4,0-.8a8.07,8.07,0,0,0,0-1q0-.84,0-1.32c0-.16-.05-.29-.08-.4a0,0,0,0,1,0,0A1.41,1.41,0,0,0,187.23,86.81Z"/><path class="cls-1" d="M194.75,84.25a1.38,1.38,0,0,0-.4,0q-.32,0-1.24.08t-1.28.08a1.37,1.37,0,0,1-.48,0,1,1,0,0,1-.44-.16.46.46,0,0,1-.08-.16.17.17,0,0,1,0-.12,1.05,1.05,0,0,1,0-.32,8,8,0,0,1,0-.92q0-1-.08-2.84V75.5a6.71,6.71,0,0,0-1-.2,1.62,1.62,0,0,0-.6,0h-.24v.24a5,5,0,0,0,0,.92l.2,2.76q.16,1.92.16,2.8v1c0,.13-.05.25-.08.36a.61.61,0,0,1-.16.32,1.44,1.44,0,0,1-1,.36q-.36,0-1.12-.08a4.28,4.28,0,0,0-1,0,.68.68,0,0,0-.56.2,1.33,1.33,0,0,0,0,.44c0,.08,0,.21,0,.38s0,.29,0,.34a2.64,2.64,0,0,0,.24,1.44c.05.11.19.12.4,0l.44-.2a3.69,3.69,0,0,1,.6-.28,2,2,0,0,1,1.36-.08.63.63,0,0,1,.32.4c0,.13.05.29.08.48a9.38,9.38,0,0,1,.08,1.36,8.52,8.52,0,0,1,0,1c0,.25,0,.51,0,.78v7q.08,2.36.2,3.72a6.18,6.18,0,0,0,.16,1.24,3,3,0,0,0,.08.32l0,0a3.39,3.39,0,0,0,1,0,2.91,2.91,0,0,0,.6-.12c.11,0,.16-.05.16-.08a8,8,0,0,0,.16-2.08q0-1.28-.16-3.52-.36-6.2-.36-6.44a15.84,15.84,0,0,0-.2-2.84v0a.45.45,0,0,1-.08-.12.42.42,0,0,1,.08-.44.39.39,0,0,1,.2-.16.55.55,0,0,1,.24,0h.52l.78,0,.7,0a12.74,12.74,0,0,0,1.44,0l.44-.08.08,0s0-.09,0-.18a2.77,2.77,0,0,1,0-.38q-.12-.64-.12-.72v-.28c0-.21,0-.35,0-.4v-.44Z"/><path class="cls-2" d="M79.66,21H75.21V20h4.45Zm-.35,7.88c2-.75,2.27-2.05,2.35-4.37h1.13c-.09,2.73-.49,4.41-2.81,5.34a3.51,3.51,0,0,0-.68-.92v.16H76.75v.57h-1V25.28h3.55Zm0-6.14H75.77v-.94H79.3Zm-3.52.79H79.3v.95H75.77Zm3.48-4.26H75.85v-.95h3.41Zm-.95,7H76.75v1.87h1.56Zm2.61-1.11H79.84V22.78H87v2.37H85.88V23.76h-5ZM82.77,20H79.95v-1h2.82V17.87H84v1.08h3v1H84v1h2.59v1H80.36V21h2.41ZM86,28.62c.25,0,.3-.22.34-1.68a3.15,3.15,0,0,0,1,.46c-.08,1.81-.36,2.27-1.21,2.27h-1c-1,0-1.22-.34-1.22-1.43V24.51H85v3.72c0,.34,0,.39.27.39Z"/><path class="cls-2" d="M95.18,23c-.58.44-1.2.83-1.82,1.22h5v5.55H97.16v-.35h-4.9v.4h-1.2V25.45c-.73.34-1.47.65-2.21.94a6.72,6.72,0,0,0-.74-1A23.36,23.36,0,0,0,93.19,23H88.44V21.91h4.3V20.46H89.57V19.4h3.17V17.88h1.2V19.4h3V20a14.3,14.3,0,0,0,1.42-1.68l1,.55a18.83,18.83,0,0,1-2.87,3.07H100V23Zm2,2.22h-4.9v1.08h4.9Zm0,3.17V27.24h-4.9v1.14Zm-2.38-6.47a18.59,18.59,0,0,0,1.7-1.46H93.94v1.46Z"/><path class="cls-2" d="M111.39,28.48c.43,0,.51-.26.56-1.87a3.79,3.79,0,0,0,1.09.49c-.12,2-.44,2.52-1.55,2.52h-1.69c-1.29,0-1.6-.39-1.6-1.61V24.5H106c-.29,2.41-1,4.32-3.94,5.4a4,4,0,0,0-.75-1.07c2.67-.82,3.2-2.39,3.42-4.33h-3.22V23.33h5.07V20.94h-2.48a9.78,9.78,0,0,1-1.07,1.9,6.53,6.53,0,0,0-1.07-.57,10.72,10.72,0,0,0,1.79-4.12l1.24.23c-.13.44-.27.92-.44,1.4h2v-1.9h1.22v1.9h4.12v1.16h-4.12v2.39h5.08V24.5h-3.47V28c0,.4.08.47.52.47Z"/><path class="cls-2" d="M118.78,21.08a17.49,17.49,0,0,1-1.42,2v6.77h-1.21V24.41a17.18,17.18,0,0,1-1.29,1.17,6.74,6.74,0,0,0-.83-1,13.78,13.78,0,0,0,3.6-3.9Zm-.49-2.73a17.15,17.15,0,0,1-3.43,3.29,5.57,5.57,0,0,0-.69-1,11.77,11.77,0,0,0,3-2.79Zm7.8,5h-1.87v5c0,.69-.16,1-.65,1.24a8.14,8.14,0,0,1-2.46.2,4.83,4.83,0,0,0-.39-1.21c.83,0,1.7,0,1.94,0s.33-.07.33-.25v-5h-4.11V22.18h7.22Zm-.36-3.55h-6.31V18.64h6.31Z"/><path class="cls-2" d="M59.43,32.93c0,.27-.05.6-.05,1v4.36c0,.34,0,.79.05,1.05H57.91c0-.22.07-.68.07-1.05V33.9c0-.23,0-.69-.05-1Zm6-.1c0,.34-.05.73-.05,1.2v2.31c0,3-.47,4.08-1.43,5.17a7.22,7.22,0,0,1-3.11,1.9l-1.08-1.13a6,6,0,0,0,3.15-1.7c.91-1,1.08-2,1.08-4.32V34a10,10,0,0,0-.08-1.2Z"/><path class="cls-2" d="M78.7,35.43a8.63,8.63,0,0,0,1.3-.08v1.38c-.2,0-.66,0-1.29,0H77.49v.44c0,3.35-.77,5.21-3.81,6.57l-1.11-1c2.43-.88,3.58-2,3.58-5.45v-.52H72.73v2c0,.52,0,1.08.05,1.26H71.34a11.46,11.46,0,0,0,.07-1.26v-2H70.13c-.6,0-1.13,0-1.35,0v-1.4a10,10,0,0,0,1.35.1h1.27v-1.5c0-.46-.05-.87-.07-1.05H72.8a8.13,8.13,0,0,0-.06,1.05v1.5h3.42V33.92a8.87,8.87,0,0,0-.07-1.13h1.47c0,.19-.07.61-.07,1.13v1.51Zm-.05-.6A16,16,0,0,0,77.93,33l.74-.23a17.72,17.72,0,0,1,.73,1.78ZM80,34.42a16,16,0,0,0-.74-1.79l.74-.23a14.26,14.26,0,0,1,.74,1.78Z"/><path class="cls-2" d="M82.47,37c.42,0,1.22.08,1.92.08h7.06c.64,0,1.14-.05,1.46-.08v1.6c-.29,0-.87-.05-1.44-.05H84.39c-.73,0-1.5,0-1.92.05Z"/><path class="cls-2" d="M104.57,33.84l.71.47a4,4,0,0,0-.23.75,12.8,12.8,0,0,1-2,4.77,10.06,10.06,0,0,1-5.16,3.52l-1.12-1.22A8.64,8.64,0,0,0,101.9,39a9.1,9.1,0,0,0,1.63-4H97.15c-.56,0-1.08,0-1.4,0V33.65a11.61,11.61,0,0,0,1.4.09h6.3a4.72,4.72,0,0,0,.57,0,14.64,14.64,0,0,0-.86-1.43l.87-.36c.33.47.77,1.23,1,1.72Zm1.21-2.26c.31.46.79,1.23,1.05,1.72l-.88.39a14.47,14.47,0,0,0-1.05-1.74Z"/><path class="cls-2" d="M112.08,37.39l-.75,1.16a32.52,32.52,0,0,0-2.9-1.82l.74-1.12C110,36.05,111.47,37,112.08,37.39Zm1.31,3.06a13.38,13.38,0,0,0,5-4.82l.78,1.38a15,15,0,0,1-9.39,6.27L109,41.93A14.28,14.28,0,0,0,113.4,40.45Zm.64-5.93-.77,1.12c-.66-.48-2.05-1.4-2.86-1.86l.74-1.12C112,33.12,113.42,34.08,114,34.52Z"/><path class="cls-2" d="M121.47,37c.42,0,1.22.08,1.92.08h7.06c.64,0,1.14-.05,1.46-.08v1.6c-.29,0-.87-.05-1.44-.05h-7.07c-.73,0-1.5,0-1.92.05Z"/><path class="cls-2" d="M143.75,39.6a34.74,34.74,0,0,0-4.92-2v4a15.12,15.12,0,0,0,.1,1.66h-1.6a13.53,13.53,0,0,0,.1-1.66V34.08a9.39,9.39,0,0,0-.12-1.46h1.6c0,.43-.09,1-.09,1.46v2a45,45,0,0,1,5.5,2.08Z"/><path d="M20.27,82.14l.36-.24.32-.16a4.19,4.19,0,0,1,4,1,4.91,4.91,0,0,1,1.88,3.68v.24a.5.5,0,0,1-.08.4.83.83,0,0,1-.36.24,2.69,2.69,0,0,1-.4.2l-.4.16-.28.08-.28.16a1.86,1.86,0,0,1-.44.2,1,1,0,0,1-1,0,.85.85,0,0,1-.24-.4q0-.08-.24-.6a7.55,7.55,0,0,0-.72-1.36,1.51,1.51,0,0,0-.88-.76q-.56-.08-1.28.72a5.72,5.72,0,0,0-.72,2.84,47.11,47.11,0,0,0-.12,4.72q0,.44,0,2.1t0,2.38a10.79,10.79,0,0,1-.08,1.52c0,.21-.05.39-.08.52a.5.5,0,0,1-.28.36,1.78,1.78,0,0,1-.72.16q-.44,0-1,0a4.46,4.46,0,0,1-1-.16A1.41,1.41,0,0,1,16,100a.65.65,0,0,1-.28-.32,6.31,6.31,0,0,1-.12-1.16q0-.84,0-2.12,0-2.4.08-6,.16-6.76.36-9.6a.27.27,0,0,1-.08-.2.26.26,0,0,1,.16-.24.29.29,0,0,1,.28-.16.16.16,0,0,1,.16.12q.68,0,3,0a.25.25,0,0,1,.28.28v0a.27.27,0,0,1,.12.24c0,.05,0,.19,0,.4v.6a2.51,2.51,0,0,0,0,.48v0A1.76,1.76,0,0,0,20.27,82.14ZM18.79,99.62a1.9,1.9,0,0,0,0-.44,9.52,9.52,0,0,0,.08-1.44q0-.72,0-2.36t0-2.12A47.54,47.54,0,0,1,19,88.5a5.88,5.88,0,0,1,.88-3.2,2.09,2.09,0,0,1,1.76-.88,2.09,2.09,0,0,1,1.28,1,14.39,14.39,0,0,1,.76,1.48,3.74,3.74,0,0,0,.24.56.94.94,0,0,0,.12.24q.08.08.44-.08a1.38,1.38,0,0,0,.36-.16,1.53,1.53,0,0,1,.32-.16l.32-.12.4-.16.36-.2.12,0v-.32a4.51,4.51,0,0,0-1.68-3.28,3.69,3.69,0,0,0-3.52-.88.41.41,0,0,0-.16.08l-.4.24a3.86,3.86,0,0,1-.4.24l-.2.08a.34.34,0,0,1-.28,0,.65.65,0,0,1-.32-.48,4,4,0,0,1,0-.64v-.56c0-.24,0-.37,0-.4q-2,0-2.76,0-.2,2.8-.36,9.52-.08,3.64-.08,6,0,1.32,0,2.12a9.6,9.6,0,0,0,.08,1,0,0,0,0,1,0,0l.24.08a5.39,5.39,0,0,0,.84.12q.48,0,.88,0a2.93,2.93,0,0,0,.48-.08Z"/><path d="M35.31,90.78l-.32,0a1.31,1.31,0,0,1-.4.08q-.4.12-.44.22a1.93,1.93,0,0,0-.08.38q0,.28,0,.72a11.41,11.41,0,0,0,.36,1.92A8.83,8.83,0,0,0,35.19,96q.4.72.72.76a2.71,2.71,0,0,0,2.28-.66,4.3,4.3,0,0,0,1.36-2.26,1.13,1.13,0,0,0,0-.44,1,1,0,0,1,.2-.68.64.64,0,0,1,.36-.16,1.5,1.5,0,0,1,.36,0,5.44,5.44,0,0,1,1,.1,9.19,9.19,0,0,1,.94.22,1.58,1.58,0,0,1,.36.16.48.48,0,0,1,.28.28,2.21,2.21,0,0,1,.08,1.36,7.91,7.91,0,0,1-.32,1.2,6.64,6.64,0,0,1-1.8,2.6,8.26,8.26,0,0,1-2.72,1.66,7.08,7.08,0,0,1-3.14.38,6.41,6.41,0,0,1-3-1.08q-2-1.4-2.44-5.2a17.58,17.58,0,0,1,.84-7.24,12.43,12.43,0,0,1,3.64-5.88,6,6,0,0,1,6.24-1A3.29,3.29,0,0,1,42,81.9a10.56,10.56,0,0,1,.84,2.8,14.78,14.78,0,0,1,.2,2.76,3.31,3.31,0,0,1-.2,1,.89.89,0,0,1-.42.66,10.22,10.22,0,0,1-1.46.42l-2.32.52q-2.08.44-3.2.6A.6.6,0,0,1,35.31,90.78Zm3.24-1.24q1.32-.28,2.32-.56a8.19,8.19,0,0,0,1.32-.36c.05,0,.11-.13.16-.32a3.25,3.25,0,0,0,.16-.88,13.15,13.15,0,0,0-.2-2.6,10.31,10.31,0,0,0-.8-2.68,2.46,2.46,0,0,0-1.32-1.48,5.35,5.35,0,0,0-5.64.84,11.83,11.83,0,0,0-3.48,5.64,17.79,17.79,0,0,0-.8,7q.36,3.52,2.2,4.76a6.34,6.34,0,0,0,3.74,1,7,7,0,0,0,3.66-1.28,6.25,6.25,0,0,0,2.4-3,4.41,4.41,0,0,0,.32-1.12,2.2,2.2,0,0,0,0-1,0,0,0,0,1,0,0l-.28-.08a7.17,7.17,0,0,0-.86-.22,4.58,4.58,0,0,0-.9-.1.89.89,0,0,0-.28,0h0a.68.68,0,0,0,0,.28,2.91,2.91,0,0,1,0,.6,5.32,5.32,0,0,1-1.58,2.54,3.14,3.14,0,0,1-2.7.78q-.6-.12-1.16-1.08A9.73,9.73,0,0,1,34,94.3a10.23,10.23,0,0,1-.4-2q0-.48,0-.8a1.47,1.47,0,0,1,.16-.6,1.15,1.15,0,0,1,.8-.48.28.28,0,0,1,.28-.2A29.44,29.44,0,0,0,38.55,89.54Zm-3.36-4.42a5,5,0,0,1,1.2-1.5,2.21,2.21,0,0,1,1.68-.56,1.88,1.88,0,0,1,1.4,1.44l.16.64a2.87,2.87,0,0,1,.12.36.79.79,0,0,1,0,.36.51.51,0,0,1-.12.2l0,0-.2.08a2,2,0,0,1-.48.24q-.56.24-1.4.56L36,87.46a3.62,3.62,0,0,1-.52.16.44.44,0,0,0-.2,0h-.2a.49.49,0,0,1-.32-.36.17.17,0,0,0,0-.12V87.1a.26.26,0,0,1,0-.28A3.27,3.27,0,0,1,35.19,85.12Zm4,.5q0-.16-.08-.36c-.05-.19-.12-.39-.2-.6q-.28-.92-.92-1a1.73,1.73,0,0,0-1.26.46,3.89,3.89,0,0,0-1.12,1.4A2.3,2.3,0,0,0,35.35,87v0l.52-.12q.6-.2,1.44-.52t1.4-.52l.44-.2,0,0Z"/><path d="M53.87,83.7a1.89,1.89,0,0,0-1.32-.24,1.42,1.42,0,0,0-1,.64,1.44,1.44,0,0,0,0,1.44,8.24,8.24,0,0,0,2,2.44A16.69,16.69,0,0,1,56,90.58a11.42,11.42,0,0,1,1.4,3.18,6.73,6.73,0,0,1,.16,3.06A4,4,0,0,1,56,99.3a5.67,5.67,0,0,1-3.44.92,8.39,8.39,0,0,1-3.12-.4A3.78,3.78,0,0,1,48.39,99a16.71,16.71,0,0,1-1.16-1.48,8.16,8.16,0,0,1-.88-1.6,1.88,1.88,0,0,1-.12-1.44.9.9,0,0,1,.32-.32A2.65,2.65,0,0,1,47,94l.28-.1.24-.1.12,0,.36-.32q.4-.36.72-.16a.7.7,0,0,1,.28.28,3.57,3.57,0,0,1,.2.36,7,7,0,0,0,.44.84,2.67,2.67,0,0,0,2,1.24,1.65,1.65,0,0,0,1.24-.42,1.57,1.57,0,0,0,.68-1.14,3,3,0,0,0-.76-1.72q-.32-.4-1.08-1.26t-.92-1.06q-3-3.56-3-6.76a4,4,0,0,1,.64-2.18,4.88,4.88,0,0,1,1.64-1.62,5.25,5.25,0,0,1,3.8-.76,4.63,4.63,0,0,1,2.56,1.72,7.18,7.18,0,0,1,1.24,2.52,3.19,3.19,0,0,1,.12,1.08,1.1,1.1,0,0,1-.24.8.61.61,0,0,1-.32.16,1,1,0,0,1-.32,0c-.21,0-.48,0-.8,0l-.8,0-.52,0a.25.25,0,0,1-.28-.28.27.27,0,0,1,.08-.2A1.48,1.48,0,0,0,53.87,83.7Zm-7,12a6.33,6.33,0,0,0,.84,1.52,8.59,8.59,0,0,0,1.12,1.4,3.71,3.71,0,0,0,.88.76,8.57,8.57,0,0,0,2.88.32q3.84,0,4.44-3a6.45,6.45,0,0,0-.16-2.82,10.36,10.36,0,0,0-1.32-3,18.74,18.74,0,0,0-2.4-2.52,9.5,9.5,0,0,1-2.24-2.6,2.09,2.09,0,0,1,.12-2,2,2,0,0,1,1.44-.88,2.43,2.43,0,0,1,1.72.32,2,2,0,0,1,1,1.52h.2l.8.08h.72a.56.56,0,0,0,.24,0h0a.74.74,0,0,0,.08-.4,2.35,2.35,0,0,0-.12-.92A6.25,6.25,0,0,0,56,81.14a3.87,3.87,0,0,0-2.24-1.52,4.34,4.34,0,0,0-3.36.68,4.08,4.08,0,0,0-1.48,1.42,3.54,3.54,0,0,0-.56,1.9q0,3,2.92,6.4l.92,1.08q.76.88,1.08,1.28a3.23,3.23,0,0,1,.88,2.12A2.11,2.11,0,0,1,53.23,96a2.24,2.24,0,0,1-1.64.56,3.17,3.17,0,0,1-2.4-1.48,7.44,7.44,0,0,1-.52-.92,1.8,1.8,0,0,0-.16-.32.11.11,0,0,1,0-.08l-.12.08a4.12,4.12,0,0,1-.48.4.43.43,0,0,1-.16.08l-.28.1-.24.1a1.56,1.56,0,0,0-.36.16l-.12,0A1.4,1.4,0,0,0,46.87,95.66Z"/><path d="M66.23,90.78l-.32,0a1.31,1.31,0,0,1-.4.08q-.4.12-.44.22a1.93,1.93,0,0,0-.08.38q0,.28,0,.72a11.41,11.41,0,0,0,.36,1.92A8.83,8.83,0,0,0,66.11,96q.4.72.72.76a2.71,2.71,0,0,0,2.28-.66,4.3,4.3,0,0,0,1.36-2.26,1.13,1.13,0,0,0,0-.44,1,1,0,0,1,.2-.68.64.64,0,0,1,.36-.16,1.5,1.5,0,0,1,.36,0,5.44,5.44,0,0,1,1,.1,9.19,9.19,0,0,1,.94.22,1.58,1.58,0,0,1,.36.16.48.48,0,0,1,.28.28,2.21,2.21,0,0,1,.08,1.36,7.91,7.91,0,0,1-.32,1.2,6.64,6.64,0,0,1-1.8,2.6,8.26,8.26,0,0,1-2.72,1.66,7.08,7.08,0,0,1-3.14.38,6.41,6.41,0,0,1-3-1.08q-2-1.4-2.44-5.2a17.58,17.58,0,0,1,.84-7.24,12.43,12.43,0,0,1,3.64-5.88,6,6,0,0,1,6.24-1,3.29,3.29,0,0,1,1.6,1.8,10.56,10.56,0,0,1,.84,2.8,14.78,14.78,0,0,1,.2,2.76,3.31,3.31,0,0,1-.2,1,.89.89,0,0,1-.42.66,10.22,10.22,0,0,1-1.46.42l-2.32.52q-2.08.44-3.2.6A.6.6,0,0,1,66.23,90.78Zm3.24-1.24q1.32-.28,2.32-.56a8.19,8.19,0,0,0,1.32-.36c.05,0,.11-.13.16-.32a3.25,3.25,0,0,0,.16-.88,13.15,13.15,0,0,0-.2-2.6,10.31,10.31,0,0,0-.8-2.68,2.46,2.46,0,0,0-1.32-1.48,5.35,5.35,0,0,0-5.64.84A11.83,11.83,0,0,0,62,87.14a17.79,17.79,0,0,0-.8,7q.36,3.52,2.2,4.76a6.34,6.34,0,0,0,3.74,1,7,7,0,0,0,3.66-1.28,6.25,6.25,0,0,0,2.4-3,4.41,4.41,0,0,0,.32-1.12,2.2,2.2,0,0,0,0-1,0,0,0,0,1,0,0l-.28-.08a7.17,7.17,0,0,0-.86-.22,4.58,4.58,0,0,0-.9-.1.89.89,0,0,0-.28,0h0a.68.68,0,0,0,0,.28,2.91,2.91,0,0,1,0,.6,5.32,5.32,0,0,1-1.58,2.54,3.14,3.14,0,0,1-2.7.78q-.6-.12-1.16-1.08a9.7,9.7,0,0,1-.72-1.92,10.2,10.2,0,0,1-.4-2q0-.48,0-.8a1.47,1.47,0,0,1,.16-.6,1.15,1.15,0,0,1,.8-.48.28.28,0,0,1,.28-.2A29.44,29.44,0,0,0,69.47,89.54Zm-3.36-4.42a5,5,0,0,1,1.2-1.5A2.21,2.21,0,0,1,69,83.06a1.88,1.88,0,0,1,1.4,1.44l.16.64a2.87,2.87,0,0,1,.12.36.81.81,0,0,1,0,.36.51.51,0,0,1-.12.2l0,0-.2.08a2,2,0,0,1-.48.24q-.56.24-1.4.56l-1.48.48a3.62,3.62,0,0,1-.52.16.44.44,0,0,0-.2,0H66a.49.49,0,0,1-.32-.36.17.17,0,0,0,0-.12V87.1a.26.26,0,0,1,0-.28A3.27,3.27,0,0,1,66.11,85.12Zm4,.5q0-.16-.08-.36c-.05-.19-.12-.39-.2-.6q-.28-.92-.92-1a1.73,1.73,0,0,0-1.26.46,3.89,3.89,0,0,0-1.12,1.4A2.3,2.3,0,0,0,66.27,87v0l.52-.12q.6-.2,1.44-.52t1.4-.52l.44-.2,0,0Z"/><path d="M81.59,82.14l.36-.24.32-.16a4.19,4.19,0,0,1,4,1,4.91,4.91,0,0,1,1.88,3.68v.24a.5.5,0,0,1-.08.4.83.83,0,0,1-.36.24,2.69,2.69,0,0,1-.4.2l-.4.16-.28.08-.28.16a1.86,1.86,0,0,1-.44.2,1,1,0,0,1-1,0,.85.85,0,0,1-.24-.4q0-.08-.24-.6a7.55,7.55,0,0,0-.72-1.36,1.51,1.51,0,0,0-.88-.76q-.56-.08-1.28.72a5.72,5.72,0,0,0-.72,2.84,47.11,47.11,0,0,0-.12,4.72q0,.44,0,2.1t0,2.38a10.79,10.79,0,0,1-.08,1.52c0,.21-.05.39-.08.52a.5.5,0,0,1-.28.36,1.78,1.78,0,0,1-.72.16q-.44,0-1,0a4.46,4.46,0,0,1-1-.16,1.41,1.41,0,0,1-.36-.12.65.65,0,0,1-.28-.32,6.31,6.31,0,0,1-.12-1.16q0-.84,0-2.12,0-2.4.08-6,.16-6.76.36-9.6a.27.27,0,0,1-.08-.2.26.26,0,0,1,.16-.24.29.29,0,0,1,.28-.16.16.16,0,0,1,.16.12q.68,0,3,0a.25.25,0,0,1,.28.28v0a.27.27,0,0,1,.12.24c0,.05,0,.19,0,.4v.6a2.51,2.51,0,0,0,0,.48v0A1.76,1.76,0,0,0,81.59,82.14ZM80.11,99.62a1.9,1.9,0,0,0,0-.44,9.52,9.52,0,0,0,.08-1.44q0-.72,0-2.36t0-2.12a47.54,47.54,0,0,1,.12-4.76,5.88,5.88,0,0,1,.88-3.2,1.68,1.68,0,0,1,3,.12,14.39,14.39,0,0,1,.76,1.48,3.74,3.74,0,0,0,.24.56.94.94,0,0,0,.12.24q.08.08.44-.08a1.38,1.38,0,0,0,.36-.16,1.53,1.53,0,0,1,.32-.16l.32-.12.4-.16.36-.2.12,0v-.32a4.51,4.51,0,0,0-1.68-3.28,3.69,3.69,0,0,0-3.52-.88.41.41,0,0,0-.16.08l-.4.24a3.86,3.86,0,0,1-.4.24l-.2.08a.34.34,0,0,1-.28,0,.65.65,0,0,1-.32-.48,4,4,0,0,1,0-.64v-.56c0-.24,0-.37,0-.4q-2,0-2.76,0-.2,2.8-.36,9.52-.08,3.64-.08,6,0,1.32,0,2.12a9.6,9.6,0,0,0,.08,1,0,0,0,0,1,0,0l.24.08a5.39,5.39,0,0,0,.84.12q.48,0,.88,0a2.93,2.93,0,0,0,.48-.08Z"/><path d="M99.19,92.18a16.47,16.47,0,0,0,.44-1.92c0-.08.05-.17.08-.28l0-.08v-.12q.08-.28.24-1l.48-1.88q.24-1.12.48-2,.44-1.84.76-2.88a8.32,8.32,0,0,1,.32-1,1.71,1.71,0,0,1,.32-.6.56.56,0,0,1,.28-.12,1,1,0,0,1,.32,0,4.45,4.45,0,0,1,.84,0q.44,0,.84,0a2.08,2.08,0,0,1,.52,0,.51.51,0,0,1,.32.4,1.42,1.42,0,0,1,.08.52,7.53,7.53,0,0,1-.16,1.32l-.52,2.32a55.29,55.29,0,0,1-1.72,5.32,42.41,42.41,0,0,0-1.64,5.28q-.4,1.88-.52,2.36l-.4,1.32a1.92,1.92,0,0,1-.2.52.6.6,0,0,1-.2.32.88.88,0,0,1-.32.12,1.5,1.5,0,0,1-.36,0,4.86,4.86,0,0,1-.88,0,4.46,4.46,0,0,1-.88-.08,1,1,0,0,1-.32,0,1.71,1.71,0,0,1-.32-.16A.48.48,0,0,1,97,99.7l-.08-.16a5,5,0,0,1-.16-.48q-.2-.56-.48-1.52L95,92.94l-2.12-7.88a7.62,7.62,0,0,0-.26-.88q-.26-.8-.42-1.36Q92,82,91.95,81.5a4.45,4.45,0,0,1,0-.52.51.51,0,0,1,.2-.48,1.31,1.31,0,0,1,.72-.16,5.34,5.34,0,0,1,.92,0,11.44,11.44,0,0,1,1.56.24.29.29,0,0,1,.2.36.25.25,0,0,1-.28.2q.16.48.44,1.52l.76,2.52.76,2.52q.92,3,1.24,3.88t.48,1.28l.08.08Q99.07,92.66,99.19,92.18Zm3.36-11-.32,1q-.32,1-.76,2.84L101,87l-.48,1.92q-.16.76-.24,1l-.08.2a.65.65,0,0,0,0,.2q-.2,1-.44,2c-.11.37-.2.67-.28.88a1.8,1.8,0,0,1-.16.32.49.49,0,0,1-.08.12.28.28,0,0,1-.28.08,1.06,1.06,0,0,1-.24-.12.44.44,0,0,1-.08-.16,1.31,1.31,0,0,1-.24-.4q-.2-.44-.48-1.28-.48-1.36-1.24-3.92l-.84-2.76L95,82.42a11.44,11.44,0,0,0-.44-1.4q-.44-.08-.88-.12a4.29,4.29,0,0,0-.84,0,1.38,1.38,0,0,0-.4,0v0a2.49,2.49,0,0,0,0,.4,6.7,6.7,0,0,0,.28,1.28l.4,1.36q.24.8.28.88l2.08,7.88,1.28,4.6q.32,1,.48,1.52a1.52,1.52,0,0,0,.16.4.31.31,0,0,1,0,.12h0a.89.89,0,0,0,.28,0,4.84,4.84,0,0,0,.84.1,5,5,0,0,0,.8,0h.36l.08-.16a2.61,2.61,0,0,0,.16-.44q.16-.48.36-1.32t.52-2.28a43.16,43.16,0,0,1,1.68-5.4,52.81,52.81,0,0,0,1.68-5.28q.44-1.76.52-2.28a6.21,6.21,0,0,0,.16-1.2,1.22,1.22,0,0,0,0-.36v0l-.36,0h-.8a3.88,3.88,0,0,0-.8,0,.55.55,0,0,0-.24,0h0Z"/><path d="M113.95,90.78l-.32,0a1.3,1.3,0,0,1-.4.08q-.4.12-.44.22a2,2,0,0,0-.08.38q0,.28,0,.72a11.36,11.36,0,0,0,.36,1.92,8.75,8.75,0,0,0,.72,1.84q.4.72.72.76a2.71,2.71,0,0,0,2.28-.66,4.3,4.3,0,0,0,1.36-2.26,1.14,1.14,0,0,0,0-.44,1,1,0,0,1,.2-.68.64.64,0,0,1,.36-.16,1.49,1.49,0,0,1,.36,0,5.46,5.46,0,0,1,1,.1,9.21,9.21,0,0,1,.94.22,1.56,1.56,0,0,1,.36.16.47.47,0,0,1,.28.28,2.21,2.21,0,0,1,.08,1.36,8,8,0,0,1-.32,1.2,6.64,6.64,0,0,1-1.8,2.6,8.26,8.26,0,0,1-2.72,1.66,7.08,7.08,0,0,1-3.14.38,6.41,6.41,0,0,1-3-1.08q-2-1.4-2.44-5.2a17.6,17.6,0,0,1,.84-7.24,12.43,12.43,0,0,1,3.64-5.88,6,6,0,0,1,6.24-1,3.29,3.29,0,0,1,1.6,1.8,10.54,10.54,0,0,1,.84,2.8,14.79,14.79,0,0,1,.2,2.76,3.28,3.28,0,0,1-.2,1,.89.89,0,0,1-.42.66,10.15,10.15,0,0,1-1.46.42l-2.32.52q-2.08.44-3.2.6A.6.6,0,0,1,113.95,90.78Zm3.24-1.24q1.32-.28,2.32-.56a8.2,8.2,0,0,0,1.32-.36c.05,0,.11-.13.16-.32a3.28,3.28,0,0,0,.16-.88,13.19,13.19,0,0,0-.2-2.6,10.31,10.31,0,0,0-.8-2.68,2.46,2.46,0,0,0-1.32-1.48,5.35,5.35,0,0,0-5.64.84,11.84,11.84,0,0,0-3.48,5.64,17.79,17.79,0,0,0-.8,7q.36,3.52,2.2,4.76a6.35,6.35,0,0,0,3.74,1,7,7,0,0,0,3.66-1.28,6.25,6.25,0,0,0,2.4-3,4.43,4.43,0,0,0,.32-1.12,2.2,2.2,0,0,0,0-1,0,0,0,0,1,0,0l-.28-.08a7.21,7.21,0,0,0-.86-.22,4.59,4.59,0,0,0-.9-.1.89.89,0,0,0-.28,0h0a.7.7,0,0,0,0,.28,2.86,2.86,0,0,1,0,.6,5.31,5.31,0,0,1-1.58,2.54,3.14,3.14,0,0,1-2.7.78q-.6-.12-1.16-1.08a9.7,9.7,0,0,1-.72-1.92,10.23,10.23,0,0,1-.4-2q0-.48,0-.8a1.46,1.46,0,0,1,.16-.6,1.15,1.15,0,0,1,.8-.48.28.28,0,0,1,.28-.2A29.46,29.46,0,0,0,117.19,89.54Zm-3.36-4.42a5,5,0,0,1,1.2-1.5,2.21,2.21,0,0,1,1.68-.56,1.88,1.88,0,0,1,1.4,1.44l.16.64a2.87,2.87,0,0,1,.12.36.81.81,0,0,1,0,.36.51.51,0,0,1-.12.2l0,0-.2.08a2,2,0,0,1-.48.24q-.56.24-1.4.56l-1.48.48a3.63,3.63,0,0,1-.52.16.44.44,0,0,0-.2,0h-.2a.49.49,0,0,1-.32-.36.17.17,0,0,0,0-.12V87.1a.26.26,0,0,1,0-.28A3.27,3.27,0,0,1,113.83,85.12Zm4,.5c0-.11-.05-.23-.08-.36s-.12-.39-.2-.6q-.28-.92-.92-1a1.73,1.73,0,0,0-1.26.46,3.88,3.88,0,0,0-1.12,1.4A2.29,2.29,0,0,0,114,87v0l.52-.12q.6-.2,1.44-.52t1.4-.52l.44-.2,0,0Z"/><path d="M144.51,83.7a1.89,1.89,0,0,0-1.32-.24,1.42,1.42,0,0,0-1,.64,1.44,1.44,0,0,0,0,1.44,8.25,8.25,0,0,0,2,2.44,16.74,16.74,0,0,1,2.52,2.6,11.44,11.44,0,0,1,1.4,3.18,6.72,6.72,0,0,1,.16,3.06,4,4,0,0,1-1.56,2.48,5.67,5.67,0,0,1-3.44.92,8.39,8.39,0,0,1-3.12-.4A3.78,3.78,0,0,1,139,99a16.62,16.62,0,0,1-1.16-1.48,8.14,8.14,0,0,1-.88-1.6,1.88,1.88,0,0,1-.12-1.44.89.89,0,0,1,.32-.32,2.63,2.63,0,0,1,.44-.16l.28-.1.24-.1.12,0,.36-.32q.4-.36.72-.16a.71.71,0,0,1,.28.28,3.81,3.81,0,0,1,.2.36,7.16,7.16,0,0,0,.44.84,2.67,2.67,0,0,0,2,1.24,1.65,1.65,0,0,0,1.24-.42,1.57,1.57,0,0,0,.68-1.14,3,3,0,0,0-.76-1.72q-.32-.4-1.08-1.26t-.92-1.06q-3-3.56-3-6.76a4,4,0,0,1,.64-2.18,4.88,4.88,0,0,1,1.64-1.62,5.24,5.24,0,0,1,3.8-.76,4.63,4.63,0,0,1,2.56,1.72,7.16,7.16,0,0,1,1.24,2.52,3.21,3.21,0,0,1,.12,1.08,1.1,1.1,0,0,1-.24.8.62.62,0,0,1-.32.16,1,1,0,0,1-.32,0c-.21,0-.48,0-.8,0l-.8,0-.52,0a.25.25,0,0,1-.28-.28.27.27,0,0,1,.08-.2A1.48,1.48,0,0,0,144.51,83.7Zm-7,12a6.36,6.36,0,0,0,.84,1.52,8.59,8.59,0,0,0,1.12,1.4,3.7,3.7,0,0,0,.88.76,8.58,8.58,0,0,0,2.88.32q3.84,0,4.44-3a6.48,6.48,0,0,0-.16-2.82,10.38,10.38,0,0,0-1.32-3,18.74,18.74,0,0,0-2.4-2.52,9.48,9.48,0,0,1-2.24-2.6,2.09,2.09,0,0,1,.12-2,2,2,0,0,1,1.44-.88,2.43,2.43,0,0,1,1.72.32,2,2,0,0,1,1,1.52h.2l.8.08h.72a.56.56,0,0,0,.24,0h0a.74.74,0,0,0,.08-.4,2.35,2.35,0,0,0-.12-.92,6.25,6.25,0,0,0-1.12-2.32,3.87,3.87,0,0,0-2.24-1.52,4.34,4.34,0,0,0-3.36.68,4.08,4.08,0,0,0-1.48,1.42,3.54,3.54,0,0,0-.56,1.9q0,3,2.92,6.4l.92,1.08q.76.88,1.08,1.28a3.22,3.22,0,0,1,.88,2.12,2.11,2.11,0,0,1-.92,1.48,2.24,2.24,0,0,1-1.64.56,3.17,3.17,0,0,1-2.4-1.48,7.46,7.46,0,0,1-.52-.92,1.74,1.74,0,0,0-.16-.32.11.11,0,0,1,0-.08l-.12.08a4,4,0,0,1-.48.4.43.43,0,0,1-.16.08l-.28.1-.24.1a1.57,1.57,0,0,0-.36.16l-.12,0A1.4,1.4,0,0,0,137.51,95.66Z"/><path d="M156.87,90.78l-.32,0a1.31,1.31,0,0,1-.4.08q-.4.12-.44.22a1.93,1.93,0,0,0-.08.38q0,.28,0,.72a11.45,11.45,0,0,0,.36,1.92,8.85,8.85,0,0,0,.72,1.84q.4.72.72.76a2.71,2.71,0,0,0,2.28-.66,4.31,4.31,0,0,0,1.36-2.26,1.16,1.16,0,0,0,0-.44,1,1,0,0,1,.2-.68.64.64,0,0,1,.36-.16,1.5,1.5,0,0,1,.36,0,5.44,5.44,0,0,1,1,.1,9.15,9.15,0,0,1,.94.22,1.57,1.57,0,0,1,.36.16.48.48,0,0,1,.28.28,2.22,2.22,0,0,1,.08,1.36,8,8,0,0,1-.32,1.2,6.63,6.63,0,0,1-1.8,2.6,8.27,8.27,0,0,1-2.72,1.66,7.08,7.08,0,0,1-3.14.38,6.4,6.4,0,0,1-3-1.08q-2-1.4-2.44-5.2a17.59,17.59,0,0,1,.84-7.24,12.43,12.43,0,0,1,3.64-5.88,6,6,0,0,1,6.24-1,3.29,3.29,0,0,1,1.6,1.8,10.54,10.54,0,0,1,.84,2.8,14.87,14.87,0,0,1,.2,2.76,3.34,3.34,0,0,1-.2,1,.89.89,0,0,1-.42.66,10.22,10.22,0,0,1-1.46.42l-2.32.52q-2.08.44-3.2.6A.58.58,0,0,1,156.87,90.78Zm3.24-1.24q1.32-.28,2.32-.56a8.18,8.18,0,0,0,1.32-.36c.05,0,.11-.13.16-.32a3.24,3.24,0,0,0,.16-.88,13.11,13.11,0,0,0-.2-2.6,10.3,10.3,0,0,0-.8-2.68,2.46,2.46,0,0,0-1.32-1.48,5.35,5.35,0,0,0-5.64.84,11.83,11.83,0,0,0-3.48,5.64,17.79,17.79,0,0,0-.8,7q.36,3.52,2.2,4.76a6.34,6.34,0,0,0,3.74,1,7,7,0,0,0,3.66-1.28,6.24,6.24,0,0,0,2.4-3,4.39,4.39,0,0,0,.32-1.12,2.2,2.2,0,0,0,0-1,0,0,0,0,1,0,0l-.28-.08a7.11,7.11,0,0,0-.86-.22,4.59,4.59,0,0,0-.9-.1.9.9,0,0,0-.28,0h0a.69.69,0,0,0,0,.28,3,3,0,0,1,0,.6,5.32,5.32,0,0,1-1.58,2.54,3.14,3.14,0,0,1-2.7.78q-.6-.12-1.16-1.08a9.63,9.63,0,0,1-.72-1.92,10.3,10.3,0,0,1-.4-2c0-.32,0-.59,0-.8a1.47,1.47,0,0,1,.16-.6,1.15,1.15,0,0,1,.8-.48.28.28,0,0,1,.28-.2A29.45,29.45,0,0,0,160.11,89.54Zm-3.36-4.42a5,5,0,0,1,1.2-1.5,2.21,2.21,0,0,1,1.68-.56A1.87,1.87,0,0,1,161,84.5l.16.64a2.85,2.85,0,0,1,.12.36.78.78,0,0,1,0,.36.51.51,0,0,1-.12.2l0,0-.2.08a2,2,0,0,1-.48.24q-.56.24-1.4.56l-1.48.48a3.62,3.62,0,0,1-.52.16.45.45,0,0,0-.2,0h-.2a.49.49,0,0,1-.32-.36.17.17,0,0,0,0-.12V87.1a.26.26,0,0,1,0-.28A3.26,3.26,0,0,1,156.75,85.12Zm4,.5c0-.11-.05-.23-.08-.36s-.12-.39-.2-.6q-.28-.92-.92-1a1.73,1.73,0,0,0-1.26.46,3.88,3.88,0,0,0-1.12,1.4,2.29,2.29,0,0,0-.26,1.54v0l.52-.12q.6-.2,1.44-.52t1.4-.52l.44-.2,0,0Z"/><path d="M174.55,98.34a3.19,3.19,0,0,1-1.64.94,3.23,3.23,0,0,1-2-.18,5.1,5.1,0,0,1-2.84-3,12.25,12.25,0,0,1-.8-5,19.88,19.88,0,0,1,.82-5.06,13.11,13.11,0,0,1,1.78-3.94,4.7,4.7,0,0,1,3.36-2,3.41,3.41,0,0,1,3.24,1.44,2.16,2.16,0,0,0,.1-.52,5.27,5.27,0,0,0,0-.66,2.07,2.07,0,0,1,0-.54,1.09,1.09,0,0,1,.4-1,2.29,2.29,0,0,1,1.48-.24h.08l.22,0,.22,0,.36,0a.67.67,0,0,0,.2,0,.58.58,0,0,1,.16.12.51.51,0,0,1,.12.2v.2a2.87,2.87,0,0,1,0,.52q0,.52,0,1.44,0,.6,0,1.46t0,.9q0,6.8-.28,13a2,2,0,0,0,0,.24c0,.11,0,.25,0,.44s0,.35,0,.48q0,.44,0,.72a1.74,1.74,0,0,0,0,.32,1.43,1.43,0,0,1-.18.28.5.5,0,0,1-.3.16,2.56,2.56,0,0,0-.4,0l-1,0a7.11,7.11,0,0,1-1-.1l-.36-.08a.87.87,0,0,1-.32-.16,1.25,1.25,0,0,1-.2-.8c0-.13,0-.44,0-.92q0-.44,0-.68A12.16,12.16,0,0,1,174.55,98.34ZM173.31,80.7a4.12,4.12,0,0,0-2.92,1.76,11.49,11.49,0,0,0-1.74,3.78,19.84,19.84,0,0,0-.78,4.9,11.72,11.72,0,0,0,.72,4.72,4.75,4.75,0,0,0,2.6,2.76,2.48,2.48,0,0,0,3-.68,12.32,12.32,0,0,0,1.44-1.84v0a0,0,0,0,0,0,0v-.08a.51.51,0,0,1,.12-.24.26.26,0,0,1,.16-.12.27.27,0,0,1,.24,0,.77.77,0,0,1,.4.72,3.84,3.84,0,0,1,0,.92c0,.45,0,.73,0,.84a1.37,1.37,0,0,0,0,.4h.08l.32.08a6,6,0,0,0,.94.1l.94,0a1.66,1.66,0,0,1,.32,0h0v0a1.24,1.24,0,0,1,0-.2c0-.16,0-.37,0-.64,0-.11,0-.25,0-.44s0-.35,0-.48,0-.23,0-.28q.28-6.16.28-13s0-.33,0-.9,0-1.06,0-1.46q0-.92,0-1.44v-.44a.11.11,0,0,1,0-.08,1.05,1.05,0,0,0-.32,0l-.24,0-.2,0h-.12a1.72,1.72,0,0,0-1.08.12c-.11.08-.16.25-.16.52a1.55,1.55,0,0,0,0,.48c0,.24,0,.45,0,.62a2.35,2.35,0,0,1-.1.62,2.58,2.58,0,0,1-.3.68.26.26,0,0,1-.4.08l-.08-.08-.08-.08A2.86,2.86,0,0,0,173.31,80.7Zm2.32,4.8c.16,0,.27.05.32.24a.32.32,0,0,0,0,.12l.08.12q.24.16,0,.36a.11.11,0,0,1,0,.08,29,29,0,0,1-.16,5.48.25.25,0,0,1-.32.24.19.19,0,0,1-.2-.16A8.36,8.36,0,0,1,173,94.26a1.75,1.75,0,0,1-1.88.16,2.44,2.44,0,0,1-1-1.52,6.71,6.71,0,0,1-.16-2.36,7.28,7.28,0,0,1,1.68-4.6,2.78,2.78,0,0,1,1.92-1,3.45,3.45,0,0,1,1.92.56A.16.16,0,0,1,175.63,85.5Zm-2,0a2.21,2.21,0,0,0-1.52.76,8,8,0,0,0-1.4,6.44,1.85,1.85,0,0,0,.72,1.2,1.24,1.24,0,0,0,1.32-.16A9.08,9.08,0,0,0,175,91.5a.25.25,0,0,1,.36-.08,21.79,21.79,0,0,0,.08-5.24A3.07,3.07,0,0,0,173.63,85.54Z"/><path d="M185.23,84.38l-.56.24a3.76,3.76,0,0,0-.48.24.9.9,0,0,1-1.08-.2,3.38,3.38,0,0,1-.32-1.8v-.28a3.17,3.17,0,0,1,0-.4,1.21,1.21,0,0,1,.2-.88,1.27,1.27,0,0,1,.92-.36,5.38,5.38,0,0,1,1.08,0q.76.08,1,.08a1,1,0,0,0,.6-.2v0c0-.08.05-.17.08-.28v-1q0-.88-.16-2.76l-.2-2.76a5.89,5.89,0,0,1,0-1,1.19,1.19,0,0,1,0-.36.41.41,0,0,1,.16-.28.77.77,0,0,1,.56-.16,2.23,2.23,0,0,1,.72,0,5,5,0,0,1,1,.24.17.17,0,0,1,.12,0,.25.25,0,0,1,.28.28v4.64q0,1.76.08,2.8a8,8,0,0,0,0,.92.55.55,0,0,0,0,.24h0a1.21,1.21,0,0,0,.44,0q.32,0,1.24-.08t1.28-.08a2.15,2.15,0,0,1,.48,0,.76.76,0,0,1,.44.16.51.51,0,0,1,.12.24v.6c0,.08,0,.23,0,.44v.24l.08.64c0,.19.05.33.08.44a1.19,1.19,0,0,1,0,.36.73.73,0,0,1-.44.4,2.93,2.93,0,0,1-.6.12,13.56,13.56,0,0,1-1.48,0l-.72,0-.76,0H189a.35.35,0,0,1,0,.16,16.85,16.85,0,0,1,.2,2.92q0,.24.36,6.4.16,2.24.16,3.56a9.55,9.55,0,0,1-.16,2.24.75.75,0,0,1-.56.44,2.35,2.35,0,0,1-.68.16,2.73,2.73,0,0,1-1.32-.12.48.48,0,0,1-.28-.28l-.12-.44q-.08-.48-.16-1.28-.12-1.4-.2-3.8v-7c0-.27,0-.53,0-.8a8,8,0,0,0,0-1q0-.84,0-1.32c0-.16-.05-.29-.08-.4a0,0,0,0,1,0,0A1.41,1.41,0,0,0,185.23,84.38Zm7.52-2.56a1.38,1.38,0,0,0-.4,0q-.32,0-1.24.08t-1.28.08a1.38,1.38,0,0,1-.48,0,1,1,0,0,1-.44-.16.43.43,0,0,1-.08-.16.16.16,0,0,1,0-.12,1.09,1.09,0,0,1,0-.32,7.75,7.75,0,0,1,0-.92q0-1-.08-2.84V73.06a6.71,6.71,0,0,0-1-.2,1.61,1.61,0,0,0-.6,0h-.24v.24a5,5,0,0,0,0,.92l.2,2.76q.16,1.92.16,2.8v1c0,.13-.05.25-.08.36a.6.6,0,0,1-.16.32,1.44,1.44,0,0,1-1,.36q-.36,0-1.12-.08a4.28,4.28,0,0,0-1,0,.68.68,0,0,0-.56.2,1.36,1.36,0,0,0,0,.44c0,.08,0,.21,0,.38s0,.29,0,.34a2.64,2.64,0,0,0,.24,1.44c.05.11.19.12.4,0l.44-.2a3.69,3.69,0,0,1,.6-.28,2,2,0,0,1,1.36-.08.64.64,0,0,1,.32.4c0,.13.05.29.08.48a9.24,9.24,0,0,1,.08,1.36,8.78,8.78,0,0,1,0,1c0,.25,0,.51,0,.78v7q.08,2.36.2,3.72a6.11,6.11,0,0,0,.16,1.24,2.59,2.59,0,0,0,.08.32l0,0a3.39,3.39,0,0,0,1,0,2.93,2.93,0,0,0,.6-.12c.11,0,.16-.05.16-.08a8.05,8.05,0,0,0,.16-2.08q0-1.28-.16-3.52-.36-6.2-.36-6.44a15.84,15.84,0,0,0-.2-2.84v0a.47.47,0,0,1-.08-.12.42.42,0,0,1,.08-.44.39.39,0,0,1,.2-.16.55.55,0,0,1,.24,0h.52l.78,0,.7,0a12.74,12.74,0,0,0,1.44,0l.44-.08.08,0s0-.09,0-.18a2.75,2.75,0,0,1,0-.38q-.12-.64-.12-.72v-.28c0-.21,0-.35,0-.4v-.44Z"/></g><g id="コンテンツ-2" data-name="コンテンツ"><path class="cls-2" d="M11.68,46.07a1.8,1.8,0,0,0-1.45,0A.8.8,0,1,0,11.68,46.07Z"/><path class="cls-2" d="M18.34,56.2c-.39,1.3,1.17,1.41,1.74.87C20.24,56,19.22,56.19,18.34,56.2Z"/><path class="cls-2" d="M1.26,57.36c-.15,1.33,1,1.17,1.74.87C3,57.33,2.13,57.37,1.26,57.36Z"/><path class="cls-2" d="M11.39,65.17c-.82-.24-.75.41-1.45.29-.36,1.64,1.64,1.27,1.74.29C11.46,65.69,11.34,65.51,11.39,65.17Z"/><path class="cls-2" d="M14.55,55.83a5.19,5.19,0,0,1-.77.2l-.38-.25c-.91-.59-1.77-1.16-1.81-2.2l.08,0c-.55-1.38.46-2.85,0-4.05-.37,0-.4-.37-.87-.29-.52,1.12-.47,2.82-.87,4.05l0,.05a.4.4,0,0,0-.26.24,5.38,5.38,0,0,1-1.56,2A10.47,10.47,0,0,0,7,56.79a2.86,2.86,0,0,0-1.7.86c.71.23,1.12.76,2,.86a3.15,3.15,0,0,1,1.8,2v0a1.55,1.55,0,0,0,.27.6c0,.92-.29,2.21.87,2,.59-.28.62-1.11.58-2l-.1-.08,0,0a32.8,32.8,0,0,1,3.17-3.92,6,6,0,0,0,1-.24Zm-4.33,4.42h-.3a4,4,0,0,0-2.33-2.58l0,0v-.32A9.26,9.26,0,0,1,8.7,56.2a6.67,6.67,0,0,0,1.64-2c.17,0,.26-.17.4-.24a4.05,4.05,0,0,0,2.18,2.6l.22.15A33.93,33.93,0,0,0,10.23,60.25Z"/><path class="cls-2" d="M202.18,43.74a1.8,1.8,0,0,0-1.45,0A.8.8,0,1,0,202.18,43.74Z"/><path class="cls-2" d="M208.83,53.86c-.39,1.3,1.17,1.41,1.74.87C210.74,53.7,209.71,53.85,208.83,53.86Z"/><path class="cls-2" d="M191.76,55c-.15,1.33,1,1.17,1.74.87C193.52,55,192.62,55,191.76,55Z"/><path class="cls-2" d="M201.89,62.83c-.82-.24-.75.41-1.45.29-.36,1.64,1.64,1.27,1.74.29C202,63.35,201.84,63.17,201.89,62.83Z"/><path class="cls-2" d="M205,53.49a5.19,5.19,0,0,1-.77.2l-.38-.25c-.91-.59-1.77-1.16-1.81-2.2l.08,0c-.55-1.38.46-2.85,0-4.05-.37,0-.4-.37-.87-.29-.52,1.12-.47,2.82-.87,4.05l0,.05a.4.4,0,0,0-.26.24,5.38,5.38,0,0,1-1.56,2,10.47,10.47,0,0,0-1.12,1.19,2.86,2.86,0,0,0-1.7.86c.71.23,1.12.76,2,.86a3.15,3.15,0,0,1,1.8,2v0a1.55,1.55,0,0,0,.27.6c0,.92-.29,2.21.87,2,.59-.28.62-1.11.58-2l-.1-.08,0,0a32.8,32.8,0,0,1,3.17-3.92,6,6,0,0,0,1-.24Zm-4.33,4.42h-.3a4,4,0,0,0-2.33-2.58l0,0V55a9.26,9.26,0,0,1,1.07-1.14,6.67,6.67,0,0,0,1.64-2c.17,0,.26-.17.4-.24a4.05,4.05,0,0,0,2.18,2.6l.22.15A33.93,33.93,0,0,0,200.72,57.92Z"/><path class="cls-1" d="M74.7,72.88a1.05,1.05,0,0,1-.8-1.74c2.8-3.26,4.61-7.23,6.37-11.34a1.05,1.05,0,0,1,1.94.83c-1.83,4.27-3.72,8.4-6.7,11.88a1,1,0,0,1-.8.37Z"/><path class="cls-1" d="M81.24,61.29a1.08,1.08,0,0,1-1.07-1,12.93,12.93,0,0,1,.12-3.17c.07-.56.14-1.12.16-1.69a1.08,1.08,0,1,1,2.16.07c0,.63-.1,1.26-.17,1.89a11.15,11.15,0,0,0-.12,2.65,1.08,1.08,0,0,1-.95,1.2Z"/><path class="cls-1" d="M94.72,62a114.77,114.77,0,0,1-13.59-.83,1,1,0,1,1,.23-2c12.83,1.52,24.18.95,39.17-2s36.77-12.66,34.9-27.47c-.5-4-3.92-9.93-10.42-14.33C130,5.36,110.12,3.74,96,4.16,82.84,4.55,59,11.75,50.29,23.75a16,16,0,0,0-2.66,14.51c3.54,11.87,16.41,16.87,26.58,19a1,1,0,0,1-.4,1.93C58.47,56,48.76,49,45.74,38.83A17.84,17.84,0,0,1,48.69,22.6C57.85,9.92,82,2.59,96,2.18c14.37-.43,34.74,1.25,50.13,11.65,7.5,5.06,10.76,11.63,11.28,15.71,1.91,15.12-17.57,26-36.48,29.65A134.64,134.64,0,0,1,94.72,62Z"/></g></svg>