<svg xmlns="http://www.w3.org/2000/svg" viewBox="0 0 163 94.99"><defs><style>.cls-1{fill:#0071b2;}.cls-2{fill:#333;}</style></defs><title>bar-アートボード 71</title><g id="コンテンツ"><path class="cls-1" d="M28.54,81.76q-.56,0-.8.08a4.25,4.25,0,0,1-.84,0,1.57,1.57,0,0,1-.64-.16.49.49,0,0,1-.12-.2.36.36,0,0,1,0-.16,2.12,2.12,0,0,1,0-.48A10.39,10.39,0,0,1,26,79.36q-.08-1.64-.08-4.52V62.73l-.08-.36a.59.59,0,0,1,.16-.68,1.2,1.2,0,0,1,.84-.12l.22,0,.24,0,.18,0,.16,0,.2,0,.2,0a1.31,1.31,0,0,1,.76.12,1.28,1.28,0,0,1,.16.2.75.75,0,0,1,0,.24q0,.2.08.56t0,1.52v1a4.15,4.15,0,0,0,.26-.4l.18-.32a10.64,10.64,0,0,1,1.48-2,2.7,2.7,0,0,1,1.16-.72,1.11,1.11,0,0,1,1.24.44A5.54,5.54,0,0,1,34.3,65q.08.6.12,1.6t.08,1.24a18.05,18.05,0,0,1,.92-3,8.53,8.53,0,0,1,1.68-2.72,2.33,2.33,0,0,1,2.48-.68,2.46,2.46,0,0,1,1.6,1.2,12.47,12.47,0,0,1,1,4.42A26.19,26.19,0,0,1,42.1,72q0,.44-.12,1.92T41.84,76q0,.64-.06,1.76a18.67,18.67,0,0,0,0,2A13.08,13.08,0,0,0,42,81.4a.26.26,0,0,1-.12.28v.08a.25.25,0,0,1-.28.28l-.68,0a8.29,8.29,0,0,0-1,.12q-.6,0-1,0a2.19,2.19,0,0,1-.76-.16.24.24,0,0,1-.16-.16v-.08a.23.23,0,0,1,0-.16V79.81q0-.44,0-2t0-2.48q0-2.8,0-4.48a13.12,13.12,0,0,0-.12-1.48c0-.19-.05-.33-.08-.44v0l-.16,0a.7.7,0,0,0-.2.2,3.79,3.79,0,0,0-.36,1.2A15.45,15.45,0,0,0,36.9,72q-.16,1.2-.24,1.64a.12.12,0,0,1,0,.08v.2a.73.73,0,0,1-.24.32,1.48,1.48,0,0,1-.6.16q-.28,0-.68,0l-.72,0-.44,0-.44,0-.56,0a2.59,2.59,0,0,1-1.12-.12.66.66,0,0,1-.32-.44q0-.24-.08-.64a7.32,7.32,0,0,1-.06-.84q0-.6,0-.84a7.87,7.87,0,0,0-.24-1.6q-.16-.56-.42-.6a.54.54,0,0,0-.5.28,4.35,4.35,0,0,0-.52,1.16,23,23,0,0,0-.52,3.92q-.08,2.12,0,4.24a9.6,9.6,0,0,0,.28,2.44q.12.28-.12.36a.35.35,0,0,1-.16,0H29.1Z"/><path class="cls-1" d="M39,81.68c.24,0,.53,0,.88,0q.16,0,1-.12l.6,0a13.08,13.08,0,0,1-.22-1.68,19.42,19.42,0,0,1,0-2q0-1.12.06-1.8t.14-2.14q.12-1.46.12-1.9a29.47,29.47,0,0,0,.08-4.86,12.44,12.44,0,0,0-.92-4.22A2,2,0,0,0,39.42,62a1.82,1.82,0,0,0-2,.52,7.53,7.53,0,0,0-1.52,2.56,16.17,16.17,0,0,0-1.28,5.24v.48l0,0v0a.26.26,0,0,1-.12.12.27.27,0,0,1-.32,0,.16.16,0,0,1,0-.12l0,0V69.73q0-.32-.16-1.8,0-.24-.08-1.26T33.74,65A5.15,5.15,0,0,0,33,62.53a.69.69,0,0,0-.7-.22,2.33,2.33,0,0,0-.9.58A9.83,9.83,0,0,0,30,64.77a6.88,6.88,0,0,0-.72,1.36v.2a.45.45,0,0,1,0,.2.25.25,0,0,1-.18.2.3.3,0,0,1-.26,0,.6.6,0,0,1-.16-.12.31.31,0,0,0,0-.12v-.2a2.38,2.38,0,0,1,0-.52q0-.24,0-1.52,0-1,0-1.48a4.45,4.45,0,0,1,0-.52.11.11,0,0,1,0-.08.65.65,0,0,0-.32,0l-.64.08-.72-.08a1,1,0,0,0-.4,0v.08a3.47,3.47,0,0,1,.12.52V74.85q0,2.84.08,4.48c0,.64,0,1.13,0,1.48a2.49,2.49,0,0,0,.08.4v0a.69.69,0,0,0,.28,0,3.6,3.6,0,0,0,.76,0,7.62,7.62,0,0,1,.8-.08,1.51,1.51,0,0,0,.36,0,16,16,0,0,1-.24-2.28q-.12-2.16,0-4.28a22,22,0,0,1,.56-4,4.77,4.77,0,0,1,.56-1.32,1.18,1.18,0,0,1,1-.52q.6.08.88,1a7.4,7.4,0,0,1,.28,1.72q0,.24,0,.82t.06.86a4.39,4.39,0,0,0,.08.52.16.16,0,0,0,0,.12,2.19,2.19,0,0,0,.8,0l.56,0,.48,0,.52,0,.68,0a3.47,3.47,0,0,0,.62,0,1,1,0,0,0,.3-.06.3.3,0,0,1,0-.12v-.08q.08-.44.24-1.64a17.85,17.85,0,0,1,.24-1.8,5.43,5.43,0,0,1,.44-1.4.85.85,0,0,1,.48-.4.69.69,0,0,1,.64.08.68.68,0,0,1,.28.36c0,.13.05.31.08.52q.08.56.12,1.56.08,1.56,0,4.48,0,.92,0,2.48t0,2v1.84A1.65,1.65,0,0,0,39,81.68Z"/><path class="cls-1" d="M52,80.2a3.19,3.19,0,0,1-1.64.94,3.23,3.23,0,0,1-2-.18,5.1,5.1,0,0,1-2.84-3,12.25,12.25,0,0,1-.8-5,20,20,0,0,1,.82-5.06A13.13,13.13,0,0,1,47.38,64a4.7,4.7,0,0,1,3.36-2A3.41,3.41,0,0,1,54,63.45a2.11,2.11,0,0,0,.1-.52,5.27,5.27,0,0,0,0-.66,2.08,2.08,0,0,1,0-.54,1.09,1.09,0,0,1,.4-1A2.29,2.29,0,0,1,56,60.53h.08l.22,0,.22,0,.36,0a.67.67,0,0,0,.2,0,.6.6,0,0,1,.16.12.51.51,0,0,1,.12.2v.2a2.77,2.77,0,0,1,0,.52q0,.52,0,1.44,0,.6,0,1.46t0,.9q0,6.8-.28,13a2.15,2.15,0,0,0,0,.24c0,.11,0,.25,0,.44s0,.35,0,.48q0,.44,0,.72a1.71,1.71,0,0,0,0,.32,1.43,1.43,0,0,1-.18.28.5.5,0,0,1-.3.16,2.55,2.55,0,0,0-.4,0l-1,0a7.13,7.13,0,0,1-1-.1l-.36-.08a.87.87,0,0,1-.32-.16,1.26,1.26,0,0,1-.2-.8q0-.2,0-.92,0-.44,0-.68A12.16,12.16,0,0,1,52,80.2Z"/><path class="cls-1" d="M50.78,62.57a4.12,4.12,0,0,0-2.92,1.76,11.49,11.49,0,0,0-1.74,3.78,19.86,19.86,0,0,0-.78,4.9,11.73,11.73,0,0,0,.72,4.72,4.75,4.75,0,0,0,2.6,2.76,2.48,2.48,0,0,0,3-.68A12.25,12.25,0,0,0,53.06,78v0a0,0,0,0,0,0,0v-.08a.51.51,0,0,1,.12-.24.26.26,0,0,1,.16-.12.27.27,0,0,1,.24,0,.77.77,0,0,1,.4.72,3.84,3.84,0,0,1,0,.92c0,.45,0,.73,0,.84a1.4,1.4,0,0,0,0,.4h.08l.32.08a6,6,0,0,0,.94.1l.94,0a1.67,1.67,0,0,1,.32,0h0v0a1.24,1.24,0,0,1,0-.2q0-.24,0-.64c0-.11,0-.25,0-.44s0-.35,0-.48,0-.23,0-.28q.28-6.16.28-13s0-.33,0-.9,0-1.06,0-1.46q0-.92,0-1.44v-.44a.11.11,0,0,1,0-.08,1.05,1.05,0,0,0-.32,0l-.24,0-.2,0H55.9a1.72,1.72,0,0,0-1.08.12.64.64,0,0,0-.16.52,1.56,1.56,0,0,0,0,.48q0,.36,0,.62a2.37,2.37,0,0,1-.1.62,2.56,2.56,0,0,1-.3.68.25.25,0,0,1-.4.08l-.08-.08L53.7,64A2.86,2.86,0,0,0,50.78,62.57Z"/><path class="cls-1" d="M53.1,67.37q.24,0,.32.24a.31.31,0,0,0,0,.12l.08.12q.24.16,0,.36a.11.11,0,0,1,0,.08,29,29,0,0,1-.16,5.48.25.25,0,0,1-.32.24.19.19,0,0,1-.2-.16,8.38,8.38,0,0,1-2.36,2.28,1.75,1.75,0,0,1-1.88.16,2.44,2.44,0,0,1-1-1.52,6.73,6.73,0,0,1-.16-2.36,7.28,7.28,0,0,1,1.68-4.6,2.78,2.78,0,0,1,1.92-1,3.45,3.45,0,0,1,1.92.56A.16.16,0,0,1,53.1,67.37Z"/><path class="cls-1" d="M51.1,67.41a2.2,2.2,0,0,0-1.52.76,8,8,0,0,0-1.4,6.44,1.86,1.86,0,0,0,.72,1.2,1.24,1.24,0,0,0,1.32-.16,9.06,9.06,0,0,0,2.28-2.28.25.25,0,0,1,.36-.08A21.84,21.84,0,0,0,52.94,68,3.08,3.08,0,0,0,51.1,67.41Z"/><path class="cls-1" d="M69.14,79.73A10.16,10.16,0,0,1,67.92,81a5.52,5.52,0,0,1-1.46,1,3.91,3.91,0,0,1-1.7.32,4.69,4.69,0,0,1-1.94-.5A3.62,3.62,0,0,1,60.94,80q-1.12-2.28-.44-7.16a20.47,20.47,0,0,1,2-6.92,7,7,0,0,1,1.2-1.62,4.44,4.44,0,0,1,4.68-1.22,3.62,3.62,0,0,1,1.76,1,2.73,2.73,0,0,1,0-.44,3.45,3.45,0,0,1,0-.88,1.11,1.11,0,0,1,.2-.72.6.6,0,0,1,.32-.2l.48-.16a5.63,5.63,0,0,1,1.2-.2,5.28,5.28,0,0,1,1.16,0,1.53,1.53,0,0,1,.48.12.6.6,0,0,1,.36.36,13.7,13.7,0,0,1,.08,4.68L74,69.37q-.2,1.64-.24,2.12a63.21,63.21,0,0,0-.24,8.92q0,.6.2,2.52t.2,3a15.77,15.77,0,0,1-.36,5.48,3.63,3.63,0,0,1-1.8,1.88A6.35,6.35,0,0,1,68.9,94,7.87,7.87,0,0,1,66,93.48a5.48,5.48,0,0,1-2.22-1.4,6.42,6.42,0,0,1-1.44-4.16.34.34,0,0,1,0-.32.26.26,0,0,1,.28-.24h0a9.7,9.7,0,0,1,1.16-.56,10.08,10.08,0,0,0,1.32-.72h0s0-.07.08-.12a.38.38,0,0,1,.48-.12,2.05,2.05,0,0,1,.84,1,6.41,6.41,0,0,0,.28.72,4.37,4.37,0,0,0,.32.76A2.72,2.72,0,0,0,68,89.52a2,2,0,0,0,1.6.24q.2,0,.4-.4a3.86,3.86,0,0,0,.4-1.16,18.38,18.38,0,0,0,.36-3.64,26.79,26.79,0,0,0-.12-3.92,8.57,8.57,0,0,0-.48-2.4h-.12A15.44,15.44,0,0,1,69.14,79.73Z"/><path class="cls-1" d="M68.26,63.65a4.21,4.21,0,0,0-2.76,0,5,5,0,0,0-1.38,1A7.13,7.13,0,0,0,63,66.17a20.85,20.85,0,0,0-1.92,6.76q-.68,4.72.36,6.84a3.53,3.53,0,0,0,1.64,1.6q3.68,1.76,6.56-3.44.12-.24.32-.16a.27.27,0,0,1,.2-.08q.2,0,.24.12a.28.28,0,0,1,.28.2,7.75,7.75,0,0,1,.56,2.6,27.65,27.65,0,0,1,.12,4A19.91,19.91,0,0,1,71,88.32a4.93,4.93,0,0,1-.48,1.32,1.15,1.15,0,0,1-.8.68,2.61,2.61,0,0,1-2-.36,3.36,3.36,0,0,1-1.08-1.36,6.23,6.23,0,0,1-.32-.8q-.24-.56-.28-.68a2,2,0,0,0-.44-.72.46.46,0,0,1-.16.16,12.56,12.56,0,0,1-1.4.72q-.84.4-1.16.6a5.86,5.86,0,0,0,1.28,3.8,5,5,0,0,0,2,1.28,7.25,7.25,0,0,0,2.74.44,5.73,5.73,0,0,0,2.6-.56A2.94,2.94,0,0,0,73,91.2a14,14,0,0,0,.36-5.2q0-1.12-.2-3T73,80.4a64.67,64.67,0,0,1,.24-9q0-.44.24-2.08l.32-2.64a12.51,12.51,0,0,0-.08-4.48h0a.57.57,0,0,0-.32-.08,4.2,4.2,0,0,0-1,0,6.21,6.21,0,0,0-1.08.16,3.08,3.08,0,0,0-.4.16.44.44,0,0,0-.16.08.8.8,0,0,0,0,.36,2.55,2.55,0,0,0,0,.76A5.24,5.24,0,0,0,70.9,65q.08.24-.2.36h0a.24.24,0,0,1-.16.16.29.29,0,0,1-.36-.2A2.32,2.32,0,0,0,68.26,63.65Z"/><path class="cls-1" d="M69.38,68.45a.25.25,0,0,1,.28.28v.12a.34.34,0,0,1,0,.32q0,2.52.16,4a.25.25,0,0,1-.24.32h-.12a.36.36,0,0,1,0,.16l-.88,1.24a11.58,11.58,0,0,0-.8,1.24,4.69,4.69,0,0,1-1,1.12,2.06,2.06,0,0,1-1.4.6q-1.64-.08-1.92-2.16A8,8,0,0,1,64,71.85a6.49,6.49,0,0,1,2.24-3.2,2.48,2.48,0,0,1,3-.12A.16.16,0,0,1,69.38,68.45Z"/><path class="cls-1" d="M69.1,69.13a2,2,0,0,0-2.52,0,6.26,6.26,0,0,0-2,3A7.41,7.41,0,0,0,64,75.67q.22,1.62,1.38,1.66a1.42,1.42,0,0,0,1-.48,3.73,3.73,0,0,0,.84-1,9.21,9.21,0,0,1,.84-1.24q.72-1.08.84-1.24a.3.3,0,0,1,.32-.12Q69.1,71.73,69.1,69.13Z"/><path class="cls-1" d="M84.26,80.2a3.19,3.19,0,0,1-1.64.94,3.23,3.23,0,0,1-2-.18,5.1,5.1,0,0,1-2.84-3,12.25,12.25,0,0,1-.8-5,20,20,0,0,1,.82-5.06A13.13,13.13,0,0,1,79.62,64,4.7,4.7,0,0,1,83,62a3.41,3.41,0,0,1,3.24,1.44,2.11,2.11,0,0,0,.1-.52,5.27,5.27,0,0,0,0-.66,2.08,2.08,0,0,1,0-.54,1.09,1.09,0,0,1,.4-1,2.29,2.29,0,0,1,1.48-.24h.08l.22,0,.22,0,.36,0a.67.67,0,0,0,.2,0,.6.6,0,0,1,.16.12.51.51,0,0,1,.12.2v.2a2.77,2.77,0,0,1,0,.52q0,.52,0,1.44,0,.6,0,1.46t0,.9q0,6.8-.28,13a2.15,2.15,0,0,0,0,.24c0,.11,0,.25,0,.44s0,.35,0,.48q0,.44,0,.72a1.71,1.71,0,0,0,0,.32,1.43,1.43,0,0,1-.18.28.5.5,0,0,1-.3.16,2.55,2.55,0,0,0-.4,0l-1,0a7.13,7.13,0,0,1-1-.1l-.36-.08a.87.87,0,0,1-.32-.16,1.26,1.26,0,0,1-.2-.8q0-.2,0-.92,0-.44,0-.68A12.16,12.16,0,0,1,84.26,80.2Z"/><path class="cls-1" d="M83,62.57a4.12,4.12,0,0,0-2.92,1.76,11.49,11.49,0,0,0-1.74,3.78,19.86,19.86,0,0,0-.78,4.9,11.73,11.73,0,0,0,.72,4.72,4.75,4.75,0,0,0,2.6,2.76,2.48,2.48,0,0,0,3-.68A12.25,12.25,0,0,0,85.3,78v0a0,0,0,0,0,0,0v-.08a.51.51,0,0,1,.12-.24.26.26,0,0,1,.16-.12.27.27,0,0,1,.24,0,.77.77,0,0,1,.4.72,3.84,3.84,0,0,1,0,.92c0,.45,0,.73,0,.84a1.4,1.4,0,0,0,0,.4h.08l.32.08a6,6,0,0,0,.94.1l.94,0a1.67,1.67,0,0,1,.32,0h0v0a1.24,1.24,0,0,1,0-.2q0-.24,0-.64c0-.11,0-.25,0-.44s0-.35,0-.48,0-.23,0-.28q.28-6.16.28-13s0-.33,0-.9,0-1.06,0-1.46q0-.92,0-1.44v-.44a.11.11,0,0,1,0-.08,1.05,1.05,0,0,0-.32,0l-.24,0-.2,0h-.12a1.72,1.72,0,0,0-1.08.12.64.64,0,0,0-.16.52,1.56,1.56,0,0,0,0,.48q0,.36,0,.62a2.37,2.37,0,0,1-.1.62,2.56,2.56,0,0,1-.3.68.25.25,0,0,1-.4.08L86,64.13,85.94,64A2.86,2.86,0,0,0,83,62.57Z"/><path class="cls-1" d="M85.34,67.37q.24,0,.32.24a.31.31,0,0,0,0,.12l.08.12c.16.11.17.23,0,.36a.11.11,0,0,1,0,.08,29,29,0,0,1-.16,5.48.25.25,0,0,1-.32.24.19.19,0,0,1-.2-.16,8.38,8.38,0,0,1-2.36,2.28,1.75,1.75,0,0,1-1.88.16,2.44,2.44,0,0,1-1-1.52,6.73,6.73,0,0,1-.16-2.36,7.28,7.28,0,0,1,1.68-4.6,2.78,2.78,0,0,1,1.92-1,3.45,3.45,0,0,1,1.92.56A.16.16,0,0,1,85.34,67.37Z"/><path class="cls-1" d="M83.34,67.41a2.2,2.2,0,0,0-1.52.76,8,8,0,0,0-1.4,6.44,1.86,1.86,0,0,0,.72,1.2,1.24,1.24,0,0,0,1.32-.16,9.06,9.06,0,0,0,2.28-2.28.25.25,0,0,1,.36-.08A21.84,21.84,0,0,0,85.18,68,3.08,3.08,0,0,0,83.34,67.41Z"/><path class="cls-1" d="M97.3,66.53l-1.56-.12q-2-.08-2.64-.08a.25.25,0,0,1-.28-.28.27.27,0,0,1,.12-.24v-3a.38.38,0,0,1-.16-.2.26.26,0,0,1,.2-.32.25.25,0,0,1,.32,0,24.18,24.18,0,0,1,5.14.08q3.38.32,3.62.32l.48,0,.84,0q.52,0,.84,0a1.74,1.74,0,0,0,.32,0,.91.91,0,0,1,.32.2.49.49,0,0,1,0,.36c0,.08-.05.17-.08.28l-.44.76q-.36.68-1.36,2.2-2.56,3.88-2.84,4.36-.88,1.6-3.92,6.16h.12a.27.27,0,0,1,.2-.08l1.72-.12,2.84-.2,2.72-.16a7.81,7.81,0,0,1,.92,0,1.75,1.75,0,0,0,.32,0,.5.5,0,0,1,.28.24,1.11,1.11,0,0,1,.12.44v.56c0,.4-.07.88-.12,1.44a12.58,12.58,0,0,1-.2,1.4A4,4,0,0,1,105,81a.51.51,0,0,1-.12.2.39.39,0,0,1-.2.16,3.51,3.51,0,0,1-.72,0H98.66l-3.88-.08q-.84,0-1.32,0h-.4l-.12,0a.36.36,0,0,1-.16,0,.36.36,0,0,1-.2-.2,1.71,1.71,0,0,1-.08-.2q0-.24-.08-.6a12.94,12.94,0,0,1-.16-1.68q0-1,0-1.76a4.78,4.78,0,0,1,0-.68,1.2,1.2,0,0,1,.12-.48,5.23,5.23,0,0,1,.84-1.16q.64-.72.84-1,1-1.68,2.44-4.2.72-1.32,1-2l.24-.64A2.77,2.77,0,0,0,97.3,66.53Z"/><path class="cls-1" d="M97,77.4a7.88,7.88,0,0,0-1.24.08.25.25,0,0,1-.32-.24.23.23,0,0,1,.16-.28.27.27,0,0,1,0-.24q3.2-4.8,4-6.28.28-.52,2.84-4.4.92-1.44,1.36-2.2a5.39,5.39,0,0,0,.4-.72v0l-.12,0-.76,0-.84,0-.52,0q-.48,0-3.7-.32a24,24,0,0,0-4.86-.12v3l2.28.08,1.56.12a3,3,0,0,1,.56,0,.44.44,0,0,1,.2,0h0l.16.08a.43.43,0,0,1,.12.32c0,.08-.05.17-.08.28s-.15.39-.28.68a22.43,22.43,0,0,1-1,2.08q-1.36,2.44-2.48,4.24a8.59,8.59,0,0,1-.92,1.08,6.56,6.56,0,0,0-.76,1,1.65,1.65,0,0,1,0,.28,4.78,4.78,0,0,0,0,.64q0,.76,0,1.74A11.54,11.54,0,0,0,93,80.08a4.22,4.22,0,0,0,.08.52v.08h.4q.48,0,1.32,0l3.92.08h5.76l0,0c0-.11.07-.25.12-.44a10.88,10.88,0,0,0,.2-1.32,9.57,9.57,0,0,0,.12-1.4v-.52a.71.71,0,0,1,0-.16.45.45,0,0,0-.2,0,6.52,6.52,0,0,0-.84,0q-1,0-2.68.16l-2.84.2c-.48.05-.84.08-1.08.08A.27.27,0,0,1,97,77.4Z"/><path class="cls-1" d="M111.06,62.13a4.86,4.86,0,0,1,.88,0,1.09,1.09,0,0,1,.68.32.35.35,0,0,1,0,.16.36.36,0,0,1,0,.16,2.42,2.42,0,0,1,0,.48q0,.52,0,1.48v4.36q0,1.4,0,3.08t0,2.8q0,1.12,0,1.4v.56c0,.32,0,.68,0,1.08s0,.77,0,1.12q0,1-.08,1.64c0,.27-.05.47-.08.6a1.34,1.34,0,0,1-.08.24.37.37,0,0,1-.2.2,3,3,0,0,1-1.28.28,2.1,2.1,0,0,1-.72,0,.75.75,0,0,1-.56-.44,4.18,4.18,0,0,1-.08-1.52c0-.11,0-.25,0-.44s0-.31,0-.36q0-.44,0-.68,0-1.84,0-8.16,0-4.84-.16-7.6a.35.35,0,0,1-.2-.24.23.23,0,0,1,.16-.28c0-.19.08-.28.24-.28a.29.29,0,0,1,.28.16A6.66,6.66,0,0,1,111.06,62.13Z"/><path class="cls-1" d="M109.78,57a1.44,1.44,0,0,1,1.1-.64,1.57,1.57,0,0,1,1.14.36,2.35,2.35,0,0,1,.8,1,1.57,1.57,0,0,1,.08,1.2,1.27,1.27,0,0,1-1,.88,1.75,1.75,0,0,1-1.36-.16,1.44,1.44,0,0,1-.88-1.12,1.94,1.94,0,0,1,.2-1.12A.27.27,0,0,1,109.78,57Z"/><path class="cls-1" d="M111.86,62.69a3.47,3.47,0,0,0-.76,0,6.3,6.3,0,0,0-1,.08q.2,2.8.16,7.68,0,6.32,0,8.16,0,.24,0,.72c0,.05,0,.17,0,.36s0,.32,0,.4a3.3,3.3,0,0,0,.08,1.36s.05.05.16.08a2,2,0,0,0,.56,0,2.23,2.23,0,0,0,1-.16.17.17,0,0,0,0-.12q0-.2.08-.52,0-.56.08-1.6c0-.35,0-.72,0-1.12s0-.76,0-1.08v-.56c0-.19,0-.65,0-1.4s0-1.68,0-2.8,0-2.15,0-3.08V64.73q0-1,0-1.48a1.65,1.65,0,0,0,0-.4v-.08A1.18,1.18,0,0,0,111.86,62.69Z"/><path class="cls-1" d="M110.18,58.41a1.06,1.06,0,0,0,.56.76,1.44,1.44,0,0,0,1,.12.76.76,0,0,0,.6-.52,1.32,1.32,0,0,0-.64-1.56,1.08,1.08,0,0,0-1-.16A2,2,0,0,0,110.18,58.41Z"/><path class="cls-1" d="M120.38,81.6a.27.27,0,0,1-.08.2.26.26,0,0,1,.16.24.25.25,0,0,1-.28.28l-.72,0q-.76,0-1.08.08-.64,0-1,0a1.5,1.5,0,0,1-.44-.12.48.48,0,0,1-.32-.28.23.23,0,0,1,0-.16.56.56,0,0,1,0-.24,4,4,0,0,1,0-.64q0-.8,0-2.2,0-2.52,0-6.52.08-9.24.28-10.56a.25.25,0,0,1,.32-.24.16.16,0,0,1,.16.12q.52-.12,1.08-.2a5.1,5.1,0,0,1,.8-.08.64.64,0,0,1,.32,0,.43.43,0,0,1,.32.12l.08.12v3.4a6.41,6.41,0,0,1,.8-1.28,7.53,7.53,0,0,1,3.32-2.52,3.91,3.91,0,0,1,4.08.44,2.71,2.71,0,0,1,.72,1.12,12.24,12.24,0,0,1,.44,1.72,33,33,0,0,1,.44,4.6q.08,1.72.08,8.16v4.4a.3.3,0,0,0,0,.12v.12a.43.43,0,0,1-.08.12.5.5,0,0,1-.24.12h-1.16l-.24,0-.4.12-.44.08a.16.16,0,0,0-.12,0h-.12a.36.36,0,0,1-.16,0,.54.54,0,0,1-.2-.44.31.31,0,0,0,0-.12V81.6q0-.88,0-3.32.16-3.4.16-4.48a34.93,34.93,0,0,0-.08-4.28,6.32,6.32,0,0,0-.6-2.64,2,2,0,0,0-1.52-.8q-1.28-.2-2.16,1.64A17.27,17.27,0,0,0,121,72.37a55.7,55.7,0,0,0-.6,8.2.28.28,0,0,1,.08.28l-.08.24v.16a.35.35,0,0,1,0,.16Z"/><path class="cls-1" d="M119.1,61.85a4.3,4.3,0,0,0-.76.08,9.4,9.4,0,0,0-1.12.2q-.16,2.16-.24,10.12,0,3.88,0,6.52,0,1.4,0,2.16a3.66,3.66,0,0,0,0,.64v.2h.08a1.21,1.21,0,0,0,.28.08,8.91,8.91,0,0,0,1,0l1-.08a2.09,2.09,0,0,0,.48,0,.23.23,0,0,1-.08-.16v-.44a.35.35,0,0,1,0-.16,60.14,60.14,0,0,1,.64-8.72,16.36,16.36,0,0,1,1.32-4.8q1.12-2.2,2.76-2a2.63,2.63,0,0,1,1.92,1,6.72,6.72,0,0,1,.68,2.92,35.28,35.28,0,0,1,.08,4.32q0,1.12-.16,4.48-.08,2.44,0,3.32v.12l.32-.08.4-.08.28-.08h1V77.17q0-6.4-.08-8.12a32.08,32.08,0,0,0-.44-4.56,8.21,8.21,0,0,0-.4-1.62,1.81,1.81,0,0,0-.52-.82,3.39,3.39,0,0,0-3.56-.4,7.07,7.07,0,0,0-3,2.32,6.52,6.52,0,0,0-1.2,2.28,4.79,4.79,0,0,0-.12.52v.52a.12.12,0,0,0,0,.08.24.24,0,0,1-.32.12l-.16-.12a.12.12,0,0,1,0-.08v-.6q0-1,0-2.44v-2.4S119.16,61.82,119.1,61.85Z"/><path class="cls-1" d="M138.1,72.65l-.32,0a1.3,1.3,0,0,1-.4.08q-.4.12-.44.22a1.93,1.93,0,0,0-.08.38q0,.28,0,.72a11.36,11.36,0,0,0,.36,1.92,8.8,8.8,0,0,0,.72,1.84q.4.72.72.76a2.7,2.7,0,0,0,2.28-.66,4.3,4.3,0,0,0,1.36-2.26,1.11,1.11,0,0,0,0-.44,1,1,0,0,1,.2-.68.64.64,0,0,1,.36-.16,1.5,1.5,0,0,1,.36,0,5.45,5.45,0,0,1,1,.1,9.23,9.23,0,0,1,.94.22,1.58,1.58,0,0,1,.36.16.47.47,0,0,1,.28.28,2.2,2.2,0,0,1,.08,1.36,7.85,7.85,0,0,1-.32,1.2,6.65,6.65,0,0,1-1.8,2.6,8.25,8.25,0,0,1-2.72,1.66,7.08,7.08,0,0,1-3.14.38,6.41,6.41,0,0,1-3-1.08q-2-1.4-2.44-5.2a17.57,17.57,0,0,1,.84-7.24A12.43,12.43,0,0,1,137,62.93a6,6,0,0,1,6.24-1,3.29,3.29,0,0,1,1.6,1.8,10.58,10.58,0,0,1,.84,2.8,14.7,14.7,0,0,1,.2,2.76,3.28,3.28,0,0,1-.2,1,.89.89,0,0,1-.42.66,10.22,10.22,0,0,1-1.46.42l-2.32.52q-2.08.44-3.2.6A.63.63,0,0,1,138.1,72.65Z"/><path class="cls-1" d="M141.34,71.41q1.32-.28,2.32-.56a8.2,8.2,0,0,0,1.32-.36c.05,0,.11-.13.16-.32a3.25,3.25,0,0,0,.16-.88,13.19,13.19,0,0,0-.2-2.6,10.31,10.31,0,0,0-.8-2.68A2.47,2.47,0,0,0,143,62.53a5.35,5.35,0,0,0-5.64.84A11.83,11.83,0,0,0,133.86,69a17.79,17.79,0,0,0-.8,7q.36,3.52,2.2,4.76a6.34,6.34,0,0,0,3.74,1,7,7,0,0,0,3.66-1.28,6.25,6.25,0,0,0,2.4-3,4.43,4.43,0,0,0,.32-1.12,2.2,2.2,0,0,0,0-1,0,0,0,0,1,0,0l-.28-.08a7.23,7.23,0,0,0-.86-.22,4.58,4.58,0,0,0-.9-.1.89.89,0,0,0-.28,0h0a.68.68,0,0,0,0,.28,2.88,2.88,0,0,1,0,.6,5.31,5.31,0,0,1-1.58,2.54,3.14,3.14,0,0,1-2.7.78q-.6-.12-1.16-1.08a9.76,9.76,0,0,1-.72-1.92,10.09,10.09,0,0,1-.4-2c0-.32,0-.59,0-.8a1.48,1.48,0,0,1,.16-.6,1.16,1.16,0,0,1,.8-.48.28.28,0,0,1,.28-.2A29.43,29.43,0,0,0,141.34,71.41Z"/><path class="cls-1" d="M138,67a5,5,0,0,1,1.2-1.5,2.21,2.21,0,0,1,1.68-.56,1.88,1.88,0,0,1,1.4,1.44l.16.64a2.88,2.88,0,0,1,.12.36.84.84,0,0,1,0,.36.51.51,0,0,1-.12.2l0,0-.2.08a2,2,0,0,1-.48.24q-.56.24-1.4.56l-1.48.48a3.63,3.63,0,0,1-.52.16.43.43,0,0,0-.2,0h-.2a.49.49,0,0,1-.32-.36.16.16,0,0,0,0-.12V69a.27.27,0,0,1,0-.28A3.27,3.27,0,0,1,138,67Z"/><path class="cls-1" d="M142,67.49c0-.11-.05-.23-.08-.36s-.12-.39-.2-.6q-.28-.92-.92-1a1.73,1.73,0,0,0-1.26.46,3.9,3.9,0,0,0-1.12,1.4,2.31,2.31,0,0,0-.26,1.54v0l.52-.12q.6-.2,1.44-.52t1.4-.52l.44-.2,0,0Z"/><path d="M26.54,80.77q-.56,0-.8.08a4.25,4.25,0,0,1-.84,0,1.57,1.57,0,0,1-.64-.16.49.49,0,0,1-.12-.2.36.36,0,0,1,0-.16,2.12,2.12,0,0,1,0-.48A10.39,10.39,0,0,1,24,78.37q-.08-1.64-.08-4.52V61.74l-.08-.36A.59.59,0,0,1,24,60.7a1.2,1.2,0,0,1,.84-.12l.22,0,.24,0,.18,0,.16,0,.2,0,.2,0a1.31,1.31,0,0,1,.76.12,1.28,1.28,0,0,1,.16.2.75.75,0,0,1,0,.24q0,.2.08.56t0,1.52v1a4.15,4.15,0,0,0,.26-.4l.18-.32a10.64,10.64,0,0,1,1.48-2,2.7,2.7,0,0,1,1.16-.72,1.11,1.11,0,0,1,1.24.44A5.54,5.54,0,0,1,32.3,64q.08.6.12,1.6t.08,1.24a18.05,18.05,0,0,1,.92-3,8.53,8.53,0,0,1,1.68-2.72,2.33,2.33,0,0,1,2.48-.68,2.46,2.46,0,0,1,1.6,1.2,12.47,12.47,0,0,1,1,4.42A26.19,26.19,0,0,1,40.1,71q0,.44-.12,1.92t-.14,2.12q0,.64-.06,1.76a18.67,18.67,0,0,0,0,2A13.08,13.08,0,0,0,40,80.41a.26.26,0,0,1-.12.28v.08a.25.25,0,0,1-.28.28l-.68,0a8.29,8.29,0,0,0-1,.12q-.6,0-1,0a2.19,2.19,0,0,1-.76-.16.24.24,0,0,1-.16-.16v-.08a.23.23,0,0,1,0-.16V78.81q0-.44,0-2t0-2.48q0-2.8,0-4.48a13.12,13.12,0,0,0-.12-1.48c0-.19-.05-.33-.08-.44v0l-.16,0a.7.7,0,0,0-.2.2,3.79,3.79,0,0,0-.36,1.2A15.45,15.45,0,0,0,34.9,71q-.16,1.2-.24,1.64a.12.12,0,0,1,0,.08v.2a.73.73,0,0,1-.24.32,1.48,1.48,0,0,1-.6.16q-.28,0-.68,0l-.72,0-.44,0-.44,0-.56,0a2.59,2.59,0,0,1-1.12-.12.66.66,0,0,1-.32-.44q0-.24-.08-.64a7.32,7.32,0,0,1-.06-.84q0-.6,0-.84a7.87,7.87,0,0,0-.24-1.6q-.16-.56-.42-.6a.54.54,0,0,0-.5.28,4.35,4.35,0,0,0-.52,1.16,23,23,0,0,0-.52,3.92q-.08,2.12,0,4.24a9.6,9.6,0,0,0,.28,2.44q.12.28-.12.36a.35.35,0,0,1-.16,0H27.1ZM37,80.69c.24,0,.53,0,.88,0q.16,0,1-.12l.6,0a13.08,13.08,0,0,1-.22-1.68,19.42,19.42,0,0,1,0-2q0-1.12.06-1.8t.14-2.14q.12-1.46.12-1.9a29.47,29.47,0,0,0,.08-4.86,12.44,12.44,0,0,0-.92-4.22A2,2,0,0,0,37.42,61a1.82,1.82,0,0,0-2,.52,7.53,7.53,0,0,0-1.52,2.56,16.17,16.17,0,0,0-1.28,5.24v.48l0,0v0a.26.26,0,0,1-.12.12.27.27,0,0,1-.32,0,.16.16,0,0,1,0-.12l0,0V68.73q0-.32-.16-1.8,0-.24-.08-1.26t-.12-1.62A5.15,5.15,0,0,0,31,61.54a.69.69,0,0,0-.7-.22,2.33,2.33,0,0,0-.9.58A9.83,9.83,0,0,0,28,63.78a6.88,6.88,0,0,0-.72,1.36v.2a.45.45,0,0,1,0,.2.25.25,0,0,1-.18.2.3.3,0,0,1-.26,0,.6.6,0,0,1-.16-.12.31.31,0,0,0,0-.12v-.2a2.38,2.38,0,0,1,0-.52q0-.24,0-1.52,0-1,0-1.48a4.45,4.45,0,0,1,0-.52.11.11,0,0,1,0-.08.65.65,0,0,0-.32,0l-.64.08-.72-.08a1,1,0,0,0-.4,0v.08a3.47,3.47,0,0,1,.12.52V73.85q0,2.84.08,4.48c0,.64,0,1.13,0,1.48a2.49,2.49,0,0,0,.08.4v0a.69.69,0,0,0,.28,0,3.6,3.6,0,0,0,.76,0,7.62,7.62,0,0,1,.8-.08,1.51,1.51,0,0,0,.36,0,16,16,0,0,1-.24-2.28q-.12-2.16,0-4.28a22,22,0,0,1,.56-4,4.77,4.77,0,0,1,.56-1.32,1.18,1.18,0,0,1,1-.52q.6.08.88,1a7.4,7.4,0,0,1,.28,1.72q0,.24,0,.82t.06.86a4.39,4.39,0,0,0,.08.52.16.16,0,0,0,0,.12,2.19,2.19,0,0,0,.8,0l.56,0,.48,0,.52,0,.68,0a3.47,3.47,0,0,0,.62,0,1,1,0,0,0,.3-.06.3.3,0,0,1,0-.12v-.08q.08-.44.24-1.64a17.85,17.85,0,0,1,.24-1.8,5.43,5.43,0,0,1,.44-1.4.85.85,0,0,1,.48-.4.69.69,0,0,1,.64.08.68.68,0,0,1,.28.36c0,.13.05.31.08.52q.08.56.12,1.56.08,1.56,0,4.48,0,.92,0,2.48t0,2v1.84A1.65,1.65,0,0,0,37,80.69Z"/><path d="M50,79.21a3.19,3.19,0,0,1-1.64.94,3.23,3.23,0,0,1-2-.18,5.1,5.1,0,0,1-2.84-3,12.25,12.25,0,0,1-.8-5A20,20,0,0,1,43.6,67,13.13,13.13,0,0,1,45.38,63a4.7,4.7,0,0,1,3.36-2A3.41,3.41,0,0,1,52,62.46a2.11,2.11,0,0,0,.1-.52,5.27,5.27,0,0,0,0-.66,2.08,2.08,0,0,1,0-.54,1.09,1.09,0,0,1,.4-1A2.29,2.29,0,0,1,54,59.54h.08l.22,0,.22,0,.36,0a.67.67,0,0,0,.2,0,.6.6,0,0,1,.16.12.51.51,0,0,1,.12.2v.2a2.77,2.77,0,0,1,0,.52q0,.52,0,1.44,0,.6,0,1.46t0,.9q0,6.8-.28,13a2.15,2.15,0,0,0,0,.24c0,.11,0,.25,0,.44s0,.35,0,.48q0,.44,0,.72a1.71,1.71,0,0,0,0,.32,1.43,1.43,0,0,1-.18.28.5.5,0,0,1-.3.16,2.55,2.55,0,0,0-.4,0l-1,0a7.13,7.13,0,0,1-1-.1l-.36-.08a.87.87,0,0,1-.32-.16,1.26,1.26,0,0,1-.2-.8q0-.2,0-.92,0-.44,0-.68A12.16,12.16,0,0,1,50,79.21ZM48.78,61.58a4.12,4.12,0,0,0-2.92,1.76,11.49,11.49,0,0,0-1.74,3.78,19.86,19.86,0,0,0-.78,4.9,11.73,11.73,0,0,0,.72,4.72,4.75,4.75,0,0,0,2.6,2.76,2.48,2.48,0,0,0,3-.68A12.25,12.25,0,0,0,51.06,77v0a0,0,0,0,0,0,0v-.08a.51.51,0,0,1,.12-.24.26.26,0,0,1,.16-.12.27.27,0,0,1,.24,0,.77.77,0,0,1,.4.72,3.84,3.84,0,0,1,0,.92c0,.45,0,.73,0,.84a1.4,1.4,0,0,0,0,.4h.08l.32.08a6,6,0,0,0,.94.1l.94,0a1.67,1.67,0,0,1,.32,0h0v0a1.24,1.24,0,0,1,0-.2q0-.24,0-.64c0-.11,0-.25,0-.44s0-.35,0-.48,0-.23,0-.28q.28-6.16.28-13s0-.33,0-.9,0-1.06,0-1.46q0-.92,0-1.44v-.44a.11.11,0,0,1,0-.08,1.05,1.05,0,0,0-.32,0l-.24,0-.2,0H53.9a1.72,1.72,0,0,0-1.08.12.64.64,0,0,0-.16.52,1.56,1.56,0,0,0,0,.48q0,.36,0,.62a2.37,2.37,0,0,1-.1.62,2.56,2.56,0,0,1-.3.68.25.25,0,0,1-.4.08l-.08-.08-.08-.08A2.86,2.86,0,0,0,48.78,61.58Zm2.32,4.8q.24,0,.32.24a.31.31,0,0,0,0,.12l.08.12q.24.16,0,.36a.11.11,0,0,1,0,.08,29,29,0,0,1-.16,5.48.25.25,0,0,1-.32.24.19.19,0,0,1-.2-.16,8.38,8.38,0,0,1-2.36,2.28,1.75,1.75,0,0,1-1.88.16,2.44,2.44,0,0,1-1-1.52,6.73,6.73,0,0,1-.16-2.36,7.28,7.28,0,0,1,1.68-4.6,2.78,2.78,0,0,1,1.92-1,3.45,3.45,0,0,1,1.92.56A.16.16,0,0,1,51.1,66.38Zm-2,0a2.2,2.2,0,0,0-1.52.76,8,8,0,0,0-1.4,6.44,1.86,1.86,0,0,0,.72,1.2,1.24,1.24,0,0,0,1.32-.16,9.06,9.06,0,0,0,2.28-2.28.25.25,0,0,1,.36-.08,21.84,21.84,0,0,0,.08-5.24A3.08,3.08,0,0,0,49.1,66.42Z"/><path d="M67.14,78.73a10.16,10.16,0,0,1-1.22,1.32,5.52,5.52,0,0,1-1.46,1,3.91,3.91,0,0,1-1.7.32,4.69,4.69,0,0,1-1.94-.5A3.62,3.62,0,0,1,58.94,79q-1.12-2.28-.44-7.16a20.47,20.47,0,0,1,2-6.92,7,7,0,0,1,1.2-1.62,4.44,4.44,0,0,1,4.68-1.22,3.62,3.62,0,0,1,1.76,1,2.73,2.73,0,0,1,0-.44,3.45,3.45,0,0,1,0-.88,1.11,1.11,0,0,1,.2-.72.6.6,0,0,1,.32-.2l.48-.16a5.63,5.63,0,0,1,1.2-.2,5.28,5.28,0,0,1,1.16,0,1.53,1.53,0,0,1,.48.12.6.6,0,0,1,.36.36,13.7,13.7,0,0,1,.08,4.68L72,68.38q-.2,1.64-.24,2.12a63.21,63.21,0,0,0-.24,8.92q0,.6.2,2.52t.2,3a15.77,15.77,0,0,1-.36,5.48,3.63,3.63,0,0,1-1.8,1.88A6.35,6.35,0,0,1,66.9,93,7.87,7.87,0,0,1,64,92.49a5.48,5.48,0,0,1-2.22-1.4,6.42,6.42,0,0,1-1.44-4.16.34.34,0,0,1,0-.32.26.26,0,0,1,.28-.24h0a9.7,9.7,0,0,1,1.16-.56,10.08,10.08,0,0,0,1.32-.72h0s0-.07.08-.12a.38.38,0,0,1,.48-.12,2.05,2.05,0,0,1,.84,1,6.41,6.41,0,0,0,.28.72,4.37,4.37,0,0,0,.32.76A2.72,2.72,0,0,0,66,88.53a2,2,0,0,0,1.6.24q.2,0,.4-.4a3.86,3.86,0,0,0,.4-1.16,18.38,18.38,0,0,0,.36-3.64,26.79,26.79,0,0,0-.12-3.92,8.57,8.57,0,0,0-.48-2.4h-.12A15.44,15.44,0,0,1,67.14,78.73Zm-.88-16.08a4.21,4.21,0,0,0-2.76,0,5,5,0,0,0-1.38,1A7.13,7.13,0,0,0,61,65.18a20.85,20.85,0,0,0-1.92,6.76q-.68,4.72.36,6.84a3.53,3.53,0,0,0,1.64,1.6q3.68,1.76,6.56-3.44.12-.24.32-.16a.27.27,0,0,1,.2-.08q.2,0,.24.12a.28.28,0,0,1,.28.2,7.75,7.75,0,0,1,.56,2.6,27.65,27.65,0,0,1,.12,4A19.91,19.91,0,0,1,69,87.33a4.93,4.93,0,0,1-.48,1.32,1.15,1.15,0,0,1-.8.68,2.61,2.61,0,0,1-2-.36,3.36,3.36,0,0,1-1.08-1.36,6.23,6.23,0,0,1-.32-.8q-.24-.56-.28-.68a2,2,0,0,0-.44-.72.46.46,0,0,1-.16.16,12.56,12.56,0,0,1-1.4.72q-.84.4-1.16.6a5.86,5.86,0,0,0,1.28,3.8,5,5,0,0,0,2,1.28,7.25,7.25,0,0,0,2.74.44,5.73,5.73,0,0,0,2.6-.56A2.94,2.94,0,0,0,71,90.21a14,14,0,0,0,.36-5.2q0-1.12-.2-3T71,79.41a64.67,64.67,0,0,1,.24-9q0-.44.24-2.08l.32-2.64a12.51,12.51,0,0,0-.08-4.48h0a.57.57,0,0,0-.32-.08,4.2,4.2,0,0,0-1,0,6.21,6.21,0,0,0-1.08.16,3.08,3.08,0,0,0-.4.16.44.44,0,0,0-.16.08.8.8,0,0,0,0,.36,2.55,2.55,0,0,0,0,.76A5.24,5.24,0,0,0,68.9,64q.08.24-.2.36h0a.24.24,0,0,1-.16.16.29.29,0,0,1-.36-.2A2.32,2.32,0,0,0,66.26,62.66Zm1.12,4.8a.25.25,0,0,1,.28.28v.12a.34.34,0,0,1,0,.32q0,2.52.16,4a.25.25,0,0,1-.24.32h-.12a.36.36,0,0,1,0,.16l-.88,1.24a11.58,11.58,0,0,0-.8,1.24,4.69,4.69,0,0,1-1,1.12,2.06,2.06,0,0,1-1.4.6q-1.64-.08-1.92-2.16A8,8,0,0,1,62,70.85a6.49,6.49,0,0,1,2.24-3.2,2.48,2.48,0,0,1,3-.12A.16.16,0,0,1,67.38,67.46Zm-.28.68a2,2,0,0,0-2.52,0,6.26,6.26,0,0,0-2,3A7.41,7.41,0,0,0,62,74.67q.22,1.62,1.38,1.66a1.42,1.42,0,0,0,1-.48,3.73,3.73,0,0,0,.84-1,9.21,9.21,0,0,1,.84-1.24q.72-1.08.84-1.24a.3.3,0,0,1,.32-.12Q67.1,70.74,67.1,68.13Z"/><path d="M82.26,79.21a3.19,3.19,0,0,1-1.64.94,3.23,3.23,0,0,1-2-.18,5.1,5.1,0,0,1-2.84-3,12.25,12.25,0,0,1-.8-5A20,20,0,0,1,75.84,67,13.13,13.13,0,0,1,77.62,63,4.7,4.7,0,0,1,81,61a3.41,3.41,0,0,1,3.24,1.44,2.11,2.11,0,0,0,.1-.52,5.27,5.27,0,0,0,0-.66,2.08,2.08,0,0,1,0-.54,1.09,1.09,0,0,1,.4-1,2.29,2.29,0,0,1,1.48-.24h.08l.22,0,.22,0,.36,0a.67.67,0,0,0,.2,0,.6.6,0,0,1,.16.12.51.51,0,0,1,.12.2v.2a2.77,2.77,0,0,1,0,.52q0,.52,0,1.44,0,.6,0,1.46t0,.9q0,6.8-.28,13a2.15,2.15,0,0,0,0,.24c0,.11,0,.25,0,.44s0,.35,0,.48q0,.44,0,.72a1.71,1.71,0,0,0,0,.32,1.43,1.43,0,0,1-.18.28.5.5,0,0,1-.3.16,2.55,2.55,0,0,0-.4,0l-1,0a7.13,7.13,0,0,1-1-.1l-.36-.08a.87.87,0,0,1-.32-.16,1.26,1.26,0,0,1-.2-.8q0-.2,0-.92,0-.44,0-.68A12.16,12.16,0,0,1,82.26,79.21ZM81,61.58a4.12,4.12,0,0,0-2.92,1.76,11.49,11.49,0,0,0-1.74,3.78,19.86,19.86,0,0,0-.78,4.9,11.73,11.73,0,0,0,.72,4.72,4.75,4.75,0,0,0,2.6,2.76,2.48,2.48,0,0,0,3-.68A12.25,12.25,0,0,0,83.3,77v0a0,0,0,0,0,0,0v-.08a.51.51,0,0,1,.12-.24.26.26,0,0,1,.16-.12.27.27,0,0,1,.24,0,.77.77,0,0,1,.4.72,3.84,3.84,0,0,1,0,.92c0,.45,0,.73,0,.84a1.4,1.4,0,0,0,0,.4h.08l.32.08a6,6,0,0,0,.94.1l.94,0a1.67,1.67,0,0,1,.32,0h0v0a1.24,1.24,0,0,1,0-.2q0-.24,0-.64c0-.11,0-.25,0-.44s0-.35,0-.48,0-.23,0-.28q.28-6.16.28-13s0-.33,0-.9,0-1.06,0-1.46q0-.92,0-1.44v-.44a.11.11,0,0,1,0-.08,1.05,1.05,0,0,0-.32,0l-.24,0-.2,0h-.12a1.72,1.72,0,0,0-1.08.12.64.64,0,0,0-.16.52,1.56,1.56,0,0,0,0,.48q0,.36,0,.62a2.37,2.37,0,0,1-.1.62,2.56,2.56,0,0,1-.3.68.25.25,0,0,1-.4.08L84,63.14l-.08-.08A2.86,2.86,0,0,0,81,61.58Zm2.32,4.8q.24,0,.32.24a.31.31,0,0,0,0,.12l.08.12c.16.11.17.23,0,.36a.11.11,0,0,1,0,.08,29,29,0,0,1-.16,5.48.25.25,0,0,1-.32.24.19.19,0,0,1-.2-.16,8.38,8.38,0,0,1-2.36,2.28,1.75,1.75,0,0,1-1.88.16,2.44,2.44,0,0,1-1-1.52,6.73,6.73,0,0,1-.16-2.36,7.28,7.28,0,0,1,1.68-4.6,2.78,2.78,0,0,1,1.92-1,3.45,3.45,0,0,1,1.92.56A.16.16,0,0,1,83.34,66.38Zm-2,0a2.2,2.2,0,0,0-1.52.76,8,8,0,0,0-1.4,6.44,1.86,1.86,0,0,0,.72,1.2,1.24,1.24,0,0,0,1.32-.16,9.06,9.06,0,0,0,2.28-2.28.25.25,0,0,1,.36-.08,21.84,21.84,0,0,0,.08-5.24A3.08,3.08,0,0,0,81.34,66.42Z"/><path d="M95.3,65.54l-1.56-.12q-2-.08-2.64-.08a.25.25,0,0,1-.28-.28.27.27,0,0,1,.12-.24v-3a.38.38,0,0,1-.16-.2.26.26,0,0,1,.2-.32.25.25,0,0,1,.32,0,24.18,24.18,0,0,1,5.14.08q3.38.32,3.62.32l.48,0,.84,0q.52,0,.84,0a1.74,1.74,0,0,0,.32,0,.91.91,0,0,1,.32.2.49.49,0,0,1,0,.36c0,.08-.05.17-.08.28l-.44.76q-.36.68-1.36,2.2-2.56,3.88-2.84,4.36-.88,1.6-3.92,6.16h.12a.27.27,0,0,1,.2-.08l1.72-.12,2.84-.2,2.72-.16a7.81,7.81,0,0,1,.92,0,1.75,1.75,0,0,0,.32,0,.5.5,0,0,1,.28.24,1.11,1.11,0,0,1,.12.44v.56c0,.4-.07.88-.12,1.44a12.58,12.58,0,0,1-.2,1.4A4,4,0,0,1,103,80a.51.51,0,0,1-.12.2.39.39,0,0,1-.2.16,3.51,3.51,0,0,1-.72,0H96.66l-3.88-.08q-.84,0-1.32,0h-.4l-.12,0a.36.36,0,0,1-.16,0,.36.36,0,0,1-.2-.2,1.71,1.71,0,0,1-.08-.2q0-.24-.08-.6a12.94,12.94,0,0,1-.16-1.68q0-1,0-1.76a4.78,4.78,0,0,1,0-.68,1.2,1.2,0,0,1,.12-.48,5.23,5.23,0,0,1,.84-1.16q.64-.72.84-1,1-1.68,2.44-4.2.72-1.32,1-2l.24-.64A2.77,2.77,0,0,0,95.3,65.54ZM95,76.41a7.88,7.88,0,0,0-1.24.08.25.25,0,0,1-.32-.24.23.23,0,0,1,.16-.28.27.27,0,0,1,0-.24q3.2-4.8,4-6.28.28-.52,2.84-4.4.92-1.44,1.36-2.2a5.39,5.39,0,0,0,.4-.72v0l-.12,0-.76,0-.84,0-.52,0q-.48,0-3.7-.32a24,24,0,0,0-4.86-.12v3l2.28.08,1.56.12a3,3,0,0,1,.56,0,.44.44,0,0,1,.2,0h0l.16.08a.43.43,0,0,1,.12.32c0,.08-.05.17-.08.28s-.15.39-.28.68a22.43,22.43,0,0,1-1,2.08q-1.36,2.44-2.48,4.24a8.59,8.59,0,0,1-.92,1.08,6.56,6.56,0,0,0-.76,1,1.65,1.65,0,0,1,0,.28,4.78,4.78,0,0,0,0,.64q0,.76,0,1.74A11.54,11.54,0,0,0,91,79.09a4.22,4.22,0,0,0,.08.52v.08h.4q.48,0,1.32,0l3.92.08h5.76l0,0c0-.11.07-.25.12-.44a10.88,10.88,0,0,0,.2-1.32,9.57,9.57,0,0,0,.12-1.4v-.52a.71.71,0,0,1,0-.16.45.45,0,0,0-.2,0,6.52,6.52,0,0,0-.84,0q-1,0-2.68.16l-2.84.2c-.48.05-.84.08-1.08.08A.27.27,0,0,1,95,76.41Z"/><path d="M109.06,61.14a4.86,4.86,0,0,1,.88,0,1.09,1.09,0,0,1,.68.32.35.35,0,0,1,0,.16.36.36,0,0,1,0,.16,2.42,2.42,0,0,1,0,.48q0,.52,0,1.48v4.36q0,1.4,0,3.08t0,2.8q0,1.12,0,1.4v.56c0,.32,0,.68,0,1.08s0,.77,0,1.12q0,1-.08,1.64c0,.27-.05.47-.08.6a1.34,1.34,0,0,1-.08.24.37.37,0,0,1-.2.2,3,3,0,0,1-1.28.28,2.1,2.1,0,0,1-.72,0,.75.75,0,0,1-.56-.44,4.18,4.18,0,0,1-.08-1.52c0-.11,0-.25,0-.44s0-.31,0-.36q0-.44,0-.68,0-1.84,0-8.16,0-4.84-.16-7.6a.35.35,0,0,1-.2-.24.23.23,0,0,1,.16-.28c0-.19.08-.28.24-.28a.29.29,0,0,1,.28.16A6.66,6.66,0,0,1,109.06,61.14Zm-1.28-5.08a1.44,1.44,0,0,1,1.1-.64,1.57,1.57,0,0,1,1.14.36,2.35,2.35,0,0,1,.8,1,1.57,1.57,0,0,1,.08,1.2,1.27,1.27,0,0,1-1,.88,1.75,1.75,0,0,1-1.36-.16,1.44,1.44,0,0,1-.88-1.12,1.94,1.94,0,0,1,.2-1.12A.27.27,0,0,1,107.78,56.06Zm2.08,5.64a3.47,3.47,0,0,0-.76,0,6.3,6.3,0,0,0-1,.08q.2,2.8.16,7.68,0,6.32,0,8.16,0,.24,0,.72c0,.05,0,.17,0,.36s0,.32,0,.4a3.3,3.3,0,0,0,.08,1.36s.05.05.16.08a2,2,0,0,0,.56,0,2.23,2.23,0,0,0,1-.16.17.17,0,0,0,0-.12q0-.2.08-.52,0-.56.08-1.6c0-.35,0-.72,0-1.12s0-.76,0-1.08v-.56c0-.19,0-.65,0-1.4s0-1.68,0-2.8,0-2.15,0-3.08V63.74q0-1,0-1.48a1.65,1.65,0,0,0,0-.4v-.08A1.18,1.18,0,0,0,109.86,61.7Zm-1.68-4.28a1.06,1.06,0,0,0,.56.76,1.44,1.44,0,0,0,1,.12.76.76,0,0,0,.6-.52,1.32,1.32,0,0,0-.64-1.56,1.08,1.08,0,0,0-1-.16A2,2,0,0,0,108.18,57.42Z"/><path d="M118.38,80.61a.27.27,0,0,1-.08.2.26.26,0,0,1,.16.24.25.25,0,0,1-.28.28l-.72,0q-.76,0-1.08.08-.64,0-1,0a1.5,1.5,0,0,1-.44-.12.48.48,0,0,1-.32-.28.23.23,0,0,1,0-.16.56.56,0,0,1,0-.24,4,4,0,0,1,0-.64q0-.8,0-2.2,0-2.52,0-6.52.08-9.24.28-10.56a.25.25,0,0,1,.32-.24.16.16,0,0,1,.16.12q.52-.12,1.08-.2a5.1,5.1,0,0,1,.8-.08.64.64,0,0,1,.32,0,.43.43,0,0,1,.32.12l.08.12v3.4a6.41,6.41,0,0,1,.8-1.28,7.53,7.53,0,0,1,3.32-2.52,3.91,3.91,0,0,1,4.08.44,2.71,2.71,0,0,1,.72,1.12,12.24,12.24,0,0,1,.44,1.72,33,33,0,0,1,.44,4.6q.08,1.72.08,8.16v4.4a.3.3,0,0,0,0,.12v.12a.43.43,0,0,1-.08.12.5.5,0,0,1-.24.12h-1.16l-.24,0-.4.12-.44.08a.16.16,0,0,0-.12,0h-.12a.36.36,0,0,1-.16,0,.54.54,0,0,1-.2-.44.31.31,0,0,0,0-.12v-.12q0-.88,0-3.32.16-3.4.16-4.48a34.93,34.93,0,0,0-.08-4.28,6.33,6.33,0,0,0-.6-2.64,2,2,0,0,0-1.52-.8q-1.28-.2-2.16,1.64A17.27,17.27,0,0,0,119,71.37a55.7,55.7,0,0,0-.6,8.2.28.28,0,0,1,.08.28l-.08.24v.16a.35.35,0,0,1,0,.16ZM117.1,60.86a4.3,4.3,0,0,0-.76.08,9.4,9.4,0,0,0-1.12.2q-.16,2.16-.24,10.12,0,3.88,0,6.52,0,1.4,0,2.16a3.66,3.66,0,0,0,0,.64v.2h.08a1.21,1.21,0,0,0,.28.08,8.91,8.91,0,0,0,1,0l1-.08a2.09,2.09,0,0,0,.48,0,.23.23,0,0,1-.08-.16v-.44a.35.35,0,0,1,0-.16,60.14,60.14,0,0,1,.64-8.72,16.36,16.36,0,0,1,1.32-4.8q1.12-2.2,2.76-2a2.63,2.63,0,0,1,1.92,1,6.72,6.72,0,0,1,.68,2.92,35.28,35.28,0,0,1,.08,4.32q0,1.12-.16,4.48-.08,2.44,0,3.32v.12l.32-.08.4-.08.28-.08h1V76.17q0-6.4-.08-8.12a32.08,32.08,0,0,0-.44-4.56,8.21,8.21,0,0,0-.4-1.62,1.81,1.81,0,0,0-.52-.82,3.39,3.39,0,0,0-3.56-.4,7.07,7.07,0,0,0-3,2.32,6.52,6.52,0,0,0-1.2,2.28,4.79,4.79,0,0,0-.12.52v.52a.12.12,0,0,0,0,.08.24.24,0,0,1-.32.12l-.16-.12a.12.12,0,0,1,0-.08v-.6q0-1,0-2.44v-2.4S117.16,60.83,117.1,60.86Zm10.12,19.64h0Z"/><path d="M136.1,71.65l-.32,0a1.3,1.3,0,0,1-.4.08q-.4.12-.44.22a1.93,1.93,0,0,0-.08.38q0,.28,0,.72a11.36,11.36,0,0,0,.36,1.92,8.8,8.8,0,0,0,.72,1.84q.4.72.72.76A2.7,2.7,0,0,0,139,77a4.3,4.3,0,0,0,1.36-2.26,1.11,1.11,0,0,0,0-.44,1,1,0,0,1,.2-.68.64.64,0,0,1,.36-.16,1.5,1.5,0,0,1,.36,0,5.45,5.45,0,0,1,1,.1,9.23,9.23,0,0,1,.94.22,1.58,1.58,0,0,1,.36.16.47.47,0,0,1,.28.28,2.2,2.2,0,0,1,.08,1.36,7.85,7.85,0,0,1-.32,1.2,6.65,6.65,0,0,1-1.8,2.6A8.25,8.25,0,0,1,139.1,81a7.08,7.08,0,0,1-3.14.38,6.41,6.41,0,0,1-3-1.08q-2-1.4-2.44-5.2a17.57,17.57,0,0,1,.84-7.24A12.43,12.43,0,0,1,135,61.94a6,6,0,0,1,6.24-1,3.29,3.29,0,0,1,1.6,1.8,10.58,10.58,0,0,1,.84,2.8,14.7,14.7,0,0,1,.2,2.76,3.28,3.28,0,0,1-.2,1,.89.89,0,0,1-.42.66,10.22,10.22,0,0,1-1.46.42l-2.32.52q-2.08.44-3.2.6A.63.63,0,0,1,136.1,71.65Zm3.24-1.24q1.32-.28,2.32-.56A8.2,8.2,0,0,0,143,69.5c.05,0,.11-.13.16-.32a3.25,3.25,0,0,0,.16-.88,13.19,13.19,0,0,0-.2-2.6,10.31,10.31,0,0,0-.8-2.68A2.47,2.47,0,0,0,141,61.54a5.35,5.35,0,0,0-5.64.84A11.83,11.83,0,0,0,131.86,68a17.79,17.79,0,0,0-.8,7q.36,3.52,2.2,4.76a6.34,6.34,0,0,0,3.74,1,7,7,0,0,0,3.66-1.28,6.25,6.25,0,0,0,2.4-3,4.43,4.43,0,0,0,.32-1.12,2.2,2.2,0,0,0,0-1,0,0,0,0,1,0,0l-.28-.08a7.23,7.23,0,0,0-.86-.22,4.58,4.58,0,0,0-.9-.1.89.89,0,0,0-.28,0h0a.68.68,0,0,0,0,.28,2.88,2.88,0,0,1,0,.6,5.31,5.31,0,0,1-1.58,2.54,3.14,3.14,0,0,1-2.7.78q-.6-.12-1.16-1.08a9.76,9.76,0,0,1-.72-1.92,10.09,10.09,0,0,1-.4-2c0-.32,0-.59,0-.8a1.48,1.48,0,0,1,.16-.6,1.16,1.16,0,0,1,.8-.48.28.28,0,0,1,.28-.2A29.43,29.43,0,0,0,139.34,70.41ZM136,66a5,5,0,0,1,1.2-1.5,2.21,2.21,0,0,1,1.68-.56,1.88,1.88,0,0,1,1.4,1.44l.16.64a2.88,2.88,0,0,1,.12.36.84.84,0,0,1,0,.36.51.51,0,0,1-.12.2l0,0-.2.08a2,2,0,0,1-.48.24q-.56.24-1.4.56l-1.48.48a3.63,3.63,0,0,1-.52.16.43.43,0,0,0-.2,0h-.2a.49.49,0,0,1-.32-.36.16.16,0,0,0,0-.12V68a.27.27,0,0,1,0-.28A3.27,3.27,0,0,1,136,66Zm4,.5c0-.11-.05-.23-.08-.36s-.12-.39-.2-.6q-.28-.92-.92-1a1.73,1.73,0,0,0-1.26.46,3.9,3.9,0,0,0-1.12,1.4,2.31,2.31,0,0,0-.26,1.54v0l.52-.12q.6-.2,1.44-.52t1.4-.52l.44-.2,0,0Z"/><path class="cls-2" d="M61.85,24.69s0,.36,0,.53c-.15,3.42-.29,4.72-.67,5.15a1.2,1.2,0,0,1-1,.45,10.69,10.69,0,0,1-1.7,0,2.67,2.67,0,0,0-.36-1.15,14.26,14.26,0,0,0,1.5.07c.22,0,.36,0,.46-.15s.38-1.25.49-3.77h-2a8,8,0,0,1-2.44,5.07,3.26,3.26,0,0,0-.9-.91c1.88-1.51,2.18-4.23,2.31-6.67H56.16V18.69h5.59v4.65H58.89c0,.45-.06.9-.11,1.34Zm-4.5-2.49h3.14V19.84H57.35Zm6.91,5.27H63V19.73h1.26Zm3.39-9.13V29.26c0,.81-.2,1.19-.69,1.43a8.21,8.21,0,0,1-2.63.22,6.06,6.06,0,0,0-.46-1.33c1,0,1.83,0,2.12,0s.36-.1.36-.35V18.33Z"/><path class="cls-2" d="M82.29,25.15H81v4.27c0,.62-.1,1-.49,1.23a3.85,3.85,0,0,1-1.75.24,4.65,4.65,0,0,0-.41-1.27c.5,0,1,0,1.15,0s.21-.07.21-.25V25.15H77.93v5.58H76.71V25.15H74.93v5.58H73.73V25.15H72v5.79H70.75V25.15H69.4V23.86h1.34v-5H81v5h1.25Zm-8.56-1.29V20.15H72v3.71Zm3,0V20.15H74.93v3.71Zm3,0V20.15H77.93v3.71Z"/><path class="cls-2" d="M91.46,27.62a13.23,13.23,0,0,0,5,2,5.73,5.73,0,0,0-.83,1.09,12.78,12.78,0,0,1-5.16-2.68V30.9h-1.3V28.14a12.45,12.45,0,0,1-5,2.59,5.61,5.61,0,0,0-.8-1.05,12.57,12.57,0,0,0,4.89-2.06H83.6V26.54h5.55V25.46h1.3v1.08h5.66v1.08Zm-5.88-3.74c.36-.39.77-.9,1.21-1.43H83.84V21.4h3.75c.31-.42.62-.83.88-1.21l1.22.35c-.2.28-.41.56-.63.85h6.82v1.05H93.31A4.49,4.49,0,0,1,92,24.16c1.26.34,2.41.7,3.26,1l-.79.91a33.77,33.77,0,0,0-3.73-1.21A19.32,19.32,0,0,1,84.62,26a3.53,3.53,0,0,0-.42-1,27.26,27.26,0,0,0,4.71-.6c-.64-.17-1.27-.31-1.88-.43l-.24.28Zm-.39-2.77H84V19h5.2v-1h1.3v1h5.27V21.1H94.5v-1H85.18Zm3.07,1.34-.56.71c.9.17,1.88.38,2.86.62a3.36,3.36,0,0,0,1.36-1.33Z"/><path class="cls-2" d="M109.49,29.31c0,.77-.18,1.16-.7,1.37a7.77,7.77,0,0,1-2.62.24,5.2,5.2,0,0,0-.45-1.32c.91,0,1.86,0,2.13,0s.35-.08.35-.34V21.66h-3.7a11.12,11.12,0,0,1-.22,1.72,42.1,42.1,0,0,1,3.71,3.7l-1.06.85a33.56,33.56,0,0,0-3.05-3.29,7.45,7.45,0,0,1-3.25,3.52,4.64,4.64,0,0,0-.92-1,5.93,5.93,0,0,0,3.46-5.52H99.52v9.27h-1.3V20.4h5V18.05h1.34V20.4h5Z"/></g><g id="コンテンツ-2" data-name="コンテンツ"><path d="M17.28,32a1.8,1.8,0,0,0-1.45,0A.8.8,0,1,0,17.28,32Z"/><path d="M23.93,42.12c-.39,1.3,1.17,1.41,1.74.87C25.84,42,24.81,42.11,23.93,42.12Z"/><path d="M6.86,43.28c-.15,1.33,1,1.17,1.74.87C8.62,43.25,7.72,43.29,6.86,43.28Z"/><path d="M17,51.09c-.82-.24-.75.41-1.45.29-.36,1.64,1.64,1.27,1.74.29C17.05,51.61,16.94,51.43,17,51.09Z"/><path d="M20.15,41.75a5.19,5.19,0,0,1-.77.2L19,41.7c-.91-.59-1.77-1.16-1.81-2.2l.08,0c-.55-1.38.46-2.85,0-4.05-.37,0-.4-.37-.87-.29-.52,1.12-.47,2.82-.87,4.05l0,.05a.4.4,0,0,0-.26.24,5.38,5.38,0,0,1-1.56,2,10.47,10.47,0,0,0-1.12,1.19,2.86,2.86,0,0,0-1.7.86c.71.23,1.12.76,2,.86a3.15,3.15,0,0,1,1.8,2v0A1.55,1.55,0,0,0,15,47c0,.92-.29,2.21.87,2,.59-.28.62-1.11.58-2l-.1-.08,0,0A32.8,32.8,0,0,1,19.51,43a6,6,0,0,0,1-.24Zm-4.33,4.42h-.3a4,4,0,0,0-2.33-2.58l0,0v-.32a9.26,9.26,0,0,1,1.07-1.14,6.67,6.67,0,0,0,1.64-2c.17,0,.26-.17.4-.24a4.05,4.05,0,0,0,2.18,2.6l.22.15A33.93,33.93,0,0,0,15.82,46.18Z"/><path d="M152.61,29.66a1.8,1.8,0,0,0-1.45,0A.8.8,0,1,0,152.61,29.66Z"/><path d="M159.26,39.79c-.39,1.3,1.17,1.41,1.74.87C161.17,39.62,160.14,39.77,159.26,39.79Z"/><path d="M142.19,40.94c-.15,1.33,1,1.17,1.74.87C144,40.92,143.05,40.95,142.19,40.94Z"/><path d="M152.32,48.76c-.82-.24-.75.41-1.45.29-.36,1.64,1.64,1.27,1.74.29C152.38,49.27,152.27,49.09,152.32,48.76Z"/><path d="M155.48,39.41a5.19,5.19,0,0,1-.77.2l-.38-.25c-.91-.59-1.77-1.16-1.81-2.2l.08,0c-.55-1.38.46-2.85,0-4.05-.37,0-.4-.37-.87-.29-.52,1.12-.47,2.82-.87,4.05l0,.05a.4.4,0,0,0-.26.24,5.38,5.38,0,0,1-1.56,2,10.47,10.47,0,0,0-1.12,1.19,2.86,2.86,0,0,0-1.7.86c.71.23,1.12.76,2,.86a3.15,3.15,0,0,1,1.8,2v0a1.55,1.55,0,0,0,.27.6c0,.92-.29,2.21.87,2,.59-.28.62-1.11.58-2l-.1-.08,0,0a32.8,32.8,0,0,1,3.17-3.92,6,6,0,0,0,1-.24Zm-4.33,4.42h-.3a4,4,0,0,0-2.33-2.58l0,0v-.32a9.26,9.26,0,0,1,1.07-1.14,6.67,6.67,0,0,0,1.64-2c.17,0,.26-.17.4-.24a4.05,4.05,0,0,0,2.18,2.6l.22.15A33.93,33.93,0,0,0,151.15,43.84Z"/><path class="cls-1" d="M62.81,55.41a.79.79,0,0,1-.6-1.31A32.44,32.44,0,0,0,67,45.53a.79.79,0,0,1,1.46.62,33.77,33.77,0,0,1-5.06,9,.79.79,0,0,1-.6.28Z"/><path class="cls-1" d="M67.74,46.66a.81.81,0,0,1-.81-.72A9.76,9.76,0,0,1,67,43.55c.05-.42.11-.85.12-1.27a.81.81,0,1,1,1.63.05c0,.48-.07,1-.13,1.42a8.41,8.41,0,0,0-.09,2,.81.81,0,0,1-.71.9Z"/><path class="cls-1" d="M77.92,47.21a86.63,86.63,0,0,1-10.26-.63.74.74,0,1,1,.18-1.48c9.69,1.15,18.25.71,29.57-1.49s27.75-9.56,26.34-20.73c-.38-3-3-7.5-7.87-10.81-11.29-7.63-26.33-8.85-37-8.54-10,.29-28,5.73-34.53,14.79a12,12,0,0,0-2,11C45,38.24,54.76,42,62.44,43.61a.74.74,0,0,1-.3,1.46c-11.58-2.4-18.91-7.71-21.19-15.36a13.46,13.46,0,0,1,2.22-12.25C50.09,7.88,68.35,2.35,78.87,2c10.85-.32,26.22.95,37.84,8.79,5.66,3.82,8.12,8.78,8.51,11.86C126.66,34.11,112,42.3,97.69,45.08a101.63,101.63,0,0,1-19.77,2.13Z"/></g></svg>