<svg xmlns="http://www.w3.org/2000/svg" xmlns:xlink="http://www.w3.org/1999/xlink" viewBox="0 0 339 112.84"><defs><style>.cls-1{fill:none;}.cls-2{fill:#c63043;}.cls-3{clip-path:url(#clip-path);}.cls-4{fill:#333;}</style><clipPath id="clip-path"><rect class="cls-1" x="-431" y="-210.31" width="1200" height="146"/></clipPath></defs><title>bar-アートボード 62</title><g id="コンテンツ"><path class="cls-2" d="M27.36,88.32a1.69,1.69,0,0,0-.6-.08,15.6,15.6,0,0,0-1.84,0q-1.4.08-1.92.08a2.71,2.71,0,0,1-.72-.08.92.92,0,0,1-.56-.28.45.45,0,0,1,0-.2.23.23,0,0,1,0-.16,3.32,3.32,0,0,1,0-.4q0-.36.08-1.16a14,14,0,0,0,.16-1.92.28.28,0,1,1,.56-.08v.08a.16.16,0,0,1,.12,0l1.42,0L26.94,84,30.16,84q2.92,0,4.56,0,1,0,1.52,0a1.86,1.86,0,0,1,.44,0,.23.23,0,0,1,.16,0,.51.51,0,0,1,.24.12,1.6,1.6,0,0,1,.12.48v1.48q.08.72.12,1a2.26,2.26,0,0,1,0,.6.78.78,0,0,1-.16.56.92.92,0,0,1-.56.2,6.48,6.48,0,0,1-.8,0l-2-.16a18.27,18.27,0,0,0-2,0,3.07,3.07,0,0,0-.64.12c-.13.05-.2.11-.2.16a2.62,2.62,0,0,0,0,1q.16,1.08.16,1.2.12,3.48.12,15.36v.88q0,.84,0,1.4a9.37,9.37,0,0,1-.08,1.36l-.12.48a.61.61,0,0,1-.36.4,1.86,1.86,0,0,1-.84,0,1.67,1.67,0,0,1-.4-.08l-.28,0h-.8a.62.62,0,0,1-.32-.16.26.26,0,0,1-.12-.16v-.08a.23.23,0,0,1,0-.16q0-.2,0-.6v-4.52q0-1.44-.16-8.84Q27.6,91,27.6,90.72q0-1.16,0-1.76a2.77,2.77,0,0,0,0-.52v-.08A.23.23,0,0,0,27.36,88.32Z"/><path class="cls-2" d="M36.6,84.6a1.41,1.41,0,0,0-.4,0q-.52,0-1.48,0-1.64,0-4.56,0l-3.22.08L24,84.66l-1.42,0a.16.16,0,0,1-.12,0q0,.32-.16,1.48-.08.8-.08,1.16a2.46,2.46,0,0,0,0,.36v0l.2.08a4,4,0,0,0,.64,0q.48,0,1.84-.08a17.18,17.18,0,0,1,1.92,0,2.71,2.71,0,0,1,.72.08.79.79,0,0,1,.52.36l0,.08v.2a2.67,2.67,0,0,1,0,.52q0,.64,0,1.76,0,.28.12,5.36.16,7.44.16,8.88v4.52a5.51,5.51,0,0,1,0,.56v0h.8a1.29,1.29,0,0,1,.32.08,2.55,2.55,0,0,1,.4.08l.52,0a.11.11,0,0,1,0-.08,2.58,2.58,0,0,0,.08-.36,8.07,8.07,0,0,0,.08-1.28q0-.56,0-1.4v-.88q0-11.88-.12-15.36,0-.08-.16-1.12a2.8,2.8,0,0,1,0-1.24.84.84,0,0,1,.56-.52,2.61,2.61,0,0,1,.8-.16,20,20,0,0,1,2.08,0l2,.16h.72l.24-.08V87.8a1.91,1.91,0,0,0,0-.56c0-.19-.07-.52-.12-1V84.6Z"/><path class="cls-2" d="M44.12,100.16s0,.69-.08,2a19.51,19.51,0,0,0,0,2.52,4.38,4.38,0,0,0,.48,2,.94.94,0,0,0,1.12.52,3.65,3.65,0,0,0,2.56-1.8q1.16-1.88,1.44-8.16.08-1.4.14-4.64t.14-4.4q0-.16,0-2.68,0-1.16,0-1.64a3.05,3.05,0,0,1,0-.56V83a.43.43,0,0,1,.08-.12.88.88,0,0,1,.32-.12,1.51,1.51,0,0,1,.36,0q.36,0,.88,0l.92.08.32.08a1.23,1.23,0,0,1,.28.08.91.91,0,0,1,.32.56,4.38,4.38,0,0,1,.12.8q.08.8.08,2.2,0,.68-.12,3.76,0,1-.6,7,0,.56-.14,2.26t-.24,3.16a18.45,18.45,0,0,1-.46,2.74Q51,110.71,47,111.31a9.66,9.66,0,0,1-3.16,0,4.51,4.51,0,0,1-2.8-1.56,3.61,3.61,0,0,1-.28-.76,9.33,9.33,0,0,1-.2-1.2q-.2-1.44-.28-3.24a27.08,27.08,0,0,1,0-3.24,11.64,11.64,0,0,1,.12-1.2,1.56,1.56,0,0,1,.32-.76.41.41,0,0,1,.52,0l.12.08a3.44,3.44,0,0,0,.74.08l.9,0,.76,0a.25.25,0,0,1,.28.28.24.24,0,0,1-.12.2A.28.28,0,0,1,44.12,100.16Z"/><path class="cls-2" d="M50.6,83.36a2.41,2.41,0,0,0,0,.52q0,.52,0,1.64,0,2.52,0,2.76-.12,1.12-.16,4.34t-.12,4.66q-.28,6.4-1.52,8.44a4.44,4.44,0,0,1-3,2A1.47,1.47,0,0,1,44,107a6,6,0,0,1-.52-2.24,20.44,20.44,0,0,1,0-2.6l.08-2a.27.27,0,0,1,.08-.2,16.58,16.58,0,0,1-2.36,0L41,99.84a2.58,2.58,0,0,0-.08.36,8.31,8.31,0,0,0-.12,1.12,30.86,30.86,0,0,0,0,3.16q.12,1.8.32,3.2a7.94,7.94,0,0,0,.2,1.16,1.17,1.17,0,0,0,.2.56A3.91,3.91,0,0,0,44,110.71a8.45,8.45,0,0,0,3,0q3.52-.52,4.68-5.36a20.38,20.38,0,0,0,.42-2.64q.14-1.44.26-3.12l.12-2.32q.56-6,.6-7,.12-3.08.12-3.76,0-1.32-.08-2.16a4,4,0,0,0-.12-.72.5.5,0,0,0-.08-.2.11.11,0,0,1-.08,0,1.14,1.14,0,0,1-.28,0l-.88-.08c-.32,0-.6,0-.84,0h-.2Z"/><path class="cls-2" d="M70.68,82.28a2.51,2.51,0,0,1,.92.08.9.9,0,0,1,.68.48,5.63,5.63,0,0,1,.28,1.4q.08.84.16,2.12.08,1.84.08,3.68s0,.39,0,1.08v.08a4,4,0,0,0,.6-.68q.64-.84,1.56-2.24,1.2-1.84,2.44-4a1.22,1.22,0,0,0,.14-.24,5,5,0,0,1,.58-.88,1.34,1.34,0,0,1,.44-.2,2.88,2.88,0,0,1,.56-.12,12.62,12.62,0,0,1,1.48-.08,5.4,5.4,0,0,1,1.4.08,2.11,2.11,0,0,1,.52.12.44.44,0,0,1,.28.48,3.34,3.34,0,0,1-.44,1.08q-.32.56-1,1.52-.92,1.4-2.72,3.84L76,93.52l-.84,1.28-.24.36a.31.31,0,0,0,0,.12,3.3,3.3,0,0,0,.32.64,12.52,12.52,0,0,0,.72,1l.84,1,.6.76a46.91,46.91,0,0,1,2.44,4.12q1.8,3.4,2.24,4.16.24.44,1,1.56a18.26,18.26,0,0,1,1,1.6h0a.48.48,0,0,0,.08.12.4.4,0,0,1,.08.52.62.62,0,0,1-.44.2,1.92,1.92,0,0,1-.44,0l-.44,0H82.6l-.44,0a4,4,0,0,1-.68.08,5.93,5.93,0,0,1-.64,0,1.77,1.77,0,0,1-.6-.16.64.64,0,0,1-.2-.24,2.4,2.4,0,0,1-.28-.36,13.56,13.56,0,0,1-.8-1.16l-2.16-3.4q-2.8-4.52-3.44-5.8l-.32-.6L73,99.36a3,3,0,0,0,0,.56,30.2,30.2,0,0,0,.16,3.36q0,.12.16,1.48t.2,2.36q.12,1.52.16,2.32v1.08a1.29,1.29,0,0,1-.08.24,1.33,1.33,0,0,1-.84.44q-.44,0-1.12,0l-1.12-.12-.76,0h0a.24.24,0,0,1-.32,0l-.32-.24a.35.35,0,0,1-.12-.24.36.36,0,0,1,0-.16q0-2,.14-8.76t0-10.44q0-1.08,0-2.68t.06-3a17.2,17.2,0,0,0-.22-2.6v0a.32.32,0,0,1,.16-.32A5.68,5.68,0,0,1,70.68,82.28Z"/><path class="cls-2" d="M81.88,83.4a6.3,6.3,0,0,0-1.28,0,11.81,11.81,0,0,0-1.44.08l-.48.08-.2.08a2.71,2.71,0,0,0-.32.44l-.2.32-.12.28-2.44,4q-.92,1.32-1.6,2.24a7.21,7.21,0,0,1-.64.76,1.47,1.47,0,0,1-.56.44.28.28,0,0,1-.28-.08.45.45,0,0,1-.08-.12.35.35,0,0,0,0-.1.43.43,0,0,1,0-.14v-.48l0-1.08q0-1.8-.08-3.68-.08-1.24-.16-2.08a4.3,4.3,0,0,0-.2-1.2.64.64,0,0,0-.36-.2,2.2,2.2,0,0,0-.76,0,6.26,6.26,0,0,0-1.2.2,19,19,0,0,1,.16,2.6q0,1.44-.08,3t0,2.56q.12,3.68,0,10.44t-.14,8.76l.16.12a.16.16,0,0,1,.12,0q.16,0,.8.08l1.08.08a9.42,9.42,0,0,0,1,0,1.62,1.62,0,0,0,.48-.16v-1q0-.76-.16-2.28-.08-1.08-.2-2.36t-.16-1.44a31.61,31.61,0,0,1-.16-3.48,3.55,3.55,0,0,1,.08-.84.33.33,0,0,1,.08-.24.36.36,0,0,1,.28-.24.28.28,0,0,1,.28.08l.16.16.28.4.32.64q.64,1.24,3.44,5.72L79.44,109l.76,1.12a2.46,2.46,0,0,0,.24.32l.12.12a1.35,1.35,0,0,0,.32.08l.56,0a4.13,4.13,0,0,0,.64-.08l.52,0h.28l.44,0h.24a.12.12,0,0,1,0-.08q-.32-.52-1-1.52l-1-1.56-2.28-4.2q-1.48-2.72-2.4-4.08a9.26,9.26,0,0,0-.56-.76l-.84-1q-.48-.64-.76-1.08a2.38,2.38,0,0,1-.4-.88.94.94,0,0,1,.12-.4l.24-.44q.28-.44.88-1.28l2.64-3.6q2-2.72,2.72-3.84.6-.88,1-1.48a4.1,4.1,0,0,0,.32-.8Z"/><path class="cls-2" d="M87.28,110.79a.26.26,0,0,1,.16-.24,16.77,16.77,0,0,1,.28-1.9q.2-1,.52-2.14t.44-1.8q.16-.76.32-2.16t.32-2.16q.36-1.88,1.24-5.4,1-3.92,1.24-5.32,0-.16.24-1.34t.36-2q.24-1.16.44-1.88a6.71,6.71,0,0,1,.24-.68,1.28,1.28,0,0,1,.24-.44,1.42,1.42,0,0,1,.64-.28h.32l.24,0q.48-.08,1-.12H96a.85.85,0,0,1,.52.2l.08.12v0a1.38,1.38,0,0,1,.08.2q.08.24.2.64l.68,2.28,2,6.84q2.64,9.48,3.08,11.2a44.87,44.87,0,0,0,1.88,5.8.45.45,0,0,1,.08.12.41.41,0,0,1,.08.48.24.24,0,0,1-.16.16l-.16.08-.4.08a6,6,0,0,1-1,.08,7.36,7.36,0,0,1-1.08,0,1.69,1.69,0,0,1-.4,0,1.34,1.34,0,0,1-.32-.08,1,1,0,0,1-.28-.4,3.23,3.23,0,0,1-.24-.52c0-.11-.08-.28-.16-.52a1.29,1.29,0,0,1-.08-.32,72.07,72.07,0,0,1-2.56-7.24q0-.08-.12-.92a1.44,1.44,0,0,0-.2-.68.59.59,0,0,0-.24-.08,7.61,7.61,0,0,0-1.8,0l-1.92.12-.48-.08h-.16a1.09,1.09,0,0,0-.24.44q-.16.44-.36,1.12-.24,1-.72,3.28-.52,2.52-.76,3.36a7.25,7.25,0,0,1-.72,2.12,1.21,1.21,0,0,1-.6.36,5.32,5.32,0,0,1-.72,0c-.19,0-.43,0-.72,0l-.24,0a.36.36,0,0,1-.16,0l-.12,0A.26.26,0,0,1,87.28,110.79Z"/><path class="cls-2" d="M96,83.48h-.52q-.44,0-.88.12l-.3,0-.26,0a.6.6,0,0,0-.32.12.87.87,0,0,0-.12.24,2.61,2.61,0,0,0-.2.64q-.2.68-.44,1.84-.16.8-.36,2c-.13.79-.21,1.22-.24,1.3q-.36,1.76-1.24,5.4-.88,3.48-1.24,5.32-.12.68-.32,2.16t-.32,2.16q-.16.72-.46,1.86t-.5,2.08a15.69,15.69,0,0,0-.28,1.82h.12l.64,0a3.79,3.79,0,0,0,.6,0q.2,0,.24-.12a6.67,6.67,0,0,0,.68-1.92l.72-3.36q.48-2.28.76-3.28.2-.76.36-1.2a1.57,1.57,0,0,1,.44-.7.7.7,0,0,1,.6-.1l.36.08,1.88-.12a8.58,8.58,0,0,1,1.92,0,.92.92,0,0,1,.56.24,2.12,2.12,0,0,1,.36,1,4.33,4.33,0,0,0,.12.84,65.63,65.63,0,0,0,2.48,7.16,1.5,1.5,0,0,1,.16.4q.12.36.16.52a2.68,2.68,0,0,0,.16.44,1,1,0,0,0,.12.16h.08a1.45,1.45,0,0,0,.36,0,6.08,6.08,0,0,0,1,0,5.28,5.28,0,0,0,1-.08.45.45,0,0,0,.2,0,.63.63,0,0,1-.12-.16,54.89,54.89,0,0,1-1.88-5.8q-.52-2-3.08-11.2l-2-6.88-.64-2.24c-.08-.27-.15-.48-.2-.64a.3.3,0,0,1,0-.12A.35.35,0,0,1,96,83.48Z"/><path class="cls-2" d="M94.92,91.88a18,18,0,0,1,.8,1.68,9.19,9.19,0,0,0,.8,1.52.52.52,0,0,0,.08.12l.14.12.18.16a.86.86,0,0,1,.28.76.44.44,0,0,1-.52.24.17.17,0,0,1-.12,0h0l-.6.08q-.6.12-1,.16a3.94,3.94,0,0,1-1,0,.91.91,0,0,1-.72-.52.8.8,0,0,1,0-.36c0-.13.05-.29.08-.48L93.64,94c.08-.24.17-.53.26-.88s.17-.63.22-.86.09-.38.12-.46.16-.27.32-.24a.26.26,0,0,1,.24.28Z"/><path class="cls-2" d="M96,95.4a17.33,17.33,0,0,1-.84-1.64l-.56-1.24-.44,1.6-.32,1.28c0,.19-.05.33-.08.44V96c0,.05.09.09.28.12a2.4,2.4,0,0,0,.8,0q.36,0,1-.16l.68-.08Z"/><path class="cls-2" d="M118.88,106.65l-.06.26a.57.57,0,0,0,0,.12,7.58,7.58,0,0,1-2.36,4,4.59,4.59,0,0,1-4.52.32,6.23,6.23,0,0,1-2.48-1.72,7,7,0,0,1-1.52-2.64q-1-3.08-.08-10.52t2.4-10.16a7.32,7.32,0,0,1,2.14-2.46,5.91,5.91,0,0,1,3-1.14,4.82,4.82,0,0,1,3.22.92,6.19,6.19,0,0,1,1.76,2.16.24.24,0,0,1,.36.12,14.46,14.46,0,0,1,1.08,2.68,5.43,5.43,0,0,1,.2,1.6,1.26,1.26,0,0,1-.76,1.16,6.48,6.48,0,0,1-1.64.24,6.27,6.27,0,0,1-1,0l-.4-.08a.54.54,0,0,1-.36-.2,2.64,2.64,0,0,1-.32-1.16q-.16-1-.24-1.28a1.39,1.39,0,0,0-.52-.84,1.92,1.92,0,0,0-1.4-.16q-1.28.2-2.28,2.52a21.32,21.32,0,0,0-1.32,5.44,38.46,38.46,0,0,0-.32,6,11.75,11.75,0,0,0,.64,4,3,3,0,0,0,1.72,1.48,1.6,1.6,0,0,0,2-.32,6.82,6.82,0,0,0,1.12-3.44q0-.44-.2-.56a1.88,1.88,0,0,0-.92,0l-.6.1-.68.1a1.29,1.29,0,0,1-1.08-.24,1.15,1.15,0,0,1-.16-.52v-.6a3,3,0,0,0,0-.56c0-.21,0-.33,0-.36v-.28a3.52,3.52,0,0,1,0-.48,2.52,2.52,0,0,1,0-.48.7.7,0,0,1,.24-.48,1.24,1.24,0,0,1,.28-.08,1.5,1.5,0,0,1,.36,0q.4,0,1,0,1.28,0,3,.16t2.92.28a8.82,8.82,0,0,1,1,.16l.32.08c.16.05.25.13.28.24a5.28,5.28,0,0,1,.24,1.8q0,1-.08,2.84-.2,4.44-.12,5l0,.16.08.32a.83.83,0,0,1,0,.36.55.55,0,0,1-.12.4.27.27,0,0,1-.2.08.36.36,0,0,1-.16,0H122q-.52,0-1.16,0a11,11,0,0,1-1.16-.12l-.4-.08-.16,0a1.32,1.32,0,0,1-.2-.16,1.54,1.54,0,0,1-.12-.48v-.68q0-.2.12-1.76,0-.76,0-1.24Z"/><path class="cls-2" d="M120.12,86.6l-.32-.6c-.05-.11-.15-.28-.3-.52a3.84,3.84,0,0,0-.38-.54l-.4-.42a3.15,3.15,0,0,0-.48-.4,4.3,4.3,0,0,0-2.84-.84,5.23,5.23,0,0,0-2.68,1,6.94,6.94,0,0,0-2,2.26q-1.48,2.84-2.32,10t.08,10.28a6.41,6.41,0,0,0,1.38,2.42,5.37,5.37,0,0,0,2.22,1.54,4.08,4.08,0,0,0,4-.2,6.78,6.78,0,0,0,2.16-3.72l0-.16a2.42,2.42,0,0,0,.08-.36l.12-.4a3.63,3.63,0,0,1,.16-.6,1.12,1.12,0,0,0,0-.24l.08-.08v0a.38.38,0,0,1,.28-.12q.28,0,.4.44c0,.13.05.33.08.6s0,.93,0,1.68q-.12,1.56-.12,1.72V110a.23.23,0,0,0,0,.16l0,0a1.23,1.23,0,0,0,.36,0,9.32,9.32,0,0,0,1.08.12q.64,0,1.12,0h.32v-.24c0-.08-.05-.17-.08-.28l0-.2q-.08-.6.12-5.08.08-1.84.08-2.84a4.53,4.53,0,0,0-.16-1.52l-.24,0c-.24-.05-.56-.11-1-.16q-1.2-.16-2.88-.28t-2.92-.16a9.69,9.69,0,0,0-1,0H114a.11.11,0,0,1-.08,0v.08a1.65,1.65,0,0,0,0,.4c0,.11,0,.25,0,.44s0,.29,0,.32,0,.19,0,.4a3.05,3.05,0,0,1,0,.56v.52a.23.23,0,0,0,0,.16c.08.08.28.11.6.08l.64-.1a5.6,5.6,0,0,1,.6-.06,2.2,2.2,0,0,1,1.24.08.94.94,0,0,1,.52,1.12,7,7,0,0,1-1.28,3.68,2.08,2.08,0,0,1-2.6.52,3.47,3.47,0,0,1-2-1.76,11.72,11.72,0,0,1-.72-4.24,39.14,39.14,0,0,1,.32-6,23.13,23.13,0,0,1,1.4-5.64q1.08-2.6,2.68-2.84a2.52,2.52,0,0,1,1.8.28,2.07,2.07,0,0,1,.76,1.16,11,11,0,0,1,.2,1.32,4.91,4.91,0,0,0,.24.92h.08a.68.68,0,0,0,.28,0,5.11,5.11,0,0,0,.92,0A5.46,5.46,0,0,0,121,90.8c.21-.08.33-.3.36-.66a4.43,4.43,0,0,0-.2-1.42,9.74,9.74,0,0,0-.48-1.4.29.29,0,0,1-.28-.16Q120.36,87,120.12,86.6Z"/><path class="cls-2" d="M132,83.6h.2a4.5,4.5,0,0,1,1.8.6,4.8,4.8,0,0,1,1.4,1.3,13.66,13.66,0,0,1,1,1.48,15.87,15.87,0,0,1,.76,1.66q1.32,3.08.72,8.92a58.08,58.08,0,0,1-1.72,8.88,16.11,16.11,0,0,1-1.16,3q-1.12,2-2.4,2.08-3.36.16-5-4.16a24.18,24.18,0,0,1-1.24-9.32,32.62,32.62,0,0,1,1.52-9.6A14.83,14.83,0,0,1,129.4,85a3.74,3.74,0,0,1,2.08-1.72.29.29,0,0,1,.36.2v0Z"/><path class="cls-2" d="M129.84,85.36a13.52,13.52,0,0,0-1.52,3.28,32.89,32.89,0,0,0-1.48,9.48,23.62,23.62,0,0,0,1.2,9.08q1.48,3.92,4.48,3.8,1,0,1.88-1.8a13.93,13.93,0,0,0,1.12-2.92,58.7,58.7,0,0,0,1.72-8.8q.6-5.68-.64-8.6a15,15,0,0,0-1.9-3.3,3.82,3.82,0,0,0-2.62-1.42l-.6-.08a.63.63,0,0,0-.32.24c-.13.16-.27.19-.4.08l0,0A4.82,4.82,0,0,0,129.84,85.36Z"/><path class="cls-2" d="M134,92.16a13.2,13.2,0,0,1,.4,4.16,23,23,0,0,1-.6,4.48,6.51,6.51,0,0,1-1.2,2.92,1.15,1.15,0,0,1-.62.34.79.79,0,0,1-.62-.14,2.13,2.13,0,0,1-.8-1,6.46,6.46,0,0,1-.72-2.4,22.65,22.65,0,0,1,1.76-10.16c.05-.16.17-.2.36-.12s.09,0,.12.12Q133.36,90.32,134,92.16Z"/><path class="cls-2" d="M130.36,100.39a6.21,6.21,0,0,0,.64,2.24,2.33,2.33,0,0,0,.6.84.76.76,0,0,0,.24,0,.71.71,0,0,0,.32-.2,6.32,6.32,0,0,0,1.08-2.64,23.63,23.63,0,0,0,.56-4.4,12,12,0,0,0-.4-4q-.48-1.52-1.48-1.44A21.52,21.52,0,0,0,130.36,100.39Z"/><path class="cls-2" d="M151.24,91.6a.24.24,0,0,1-.36-.12l-.08-.12a.28.28,0,0,1-.24-.24.36.36,0,0,1,0-.16,3.55,3.55,0,0,0-1.38-1.3,2.47,2.47,0,0,0-1.54-.3,1.41,1.41,0,0,0-1.2.76,2.87,2.87,0,0,0,0,2.16,4.23,4.23,0,0,0,1.24,1.84q.28.28.92.84t.88.8A18.45,18.45,0,0,1,153,100.6,12.1,12.1,0,0,1,154.4,106q0,1,0,1.42a4.8,4.8,0,0,1-.26,1.16,3.45,3.45,0,0,1-.76,1.3,5.53,5.53,0,0,1-3.28,1.32,10.75,10.75,0,0,1-3.6,0,7,7,0,0,1-3.72-1.92,7.6,7.6,0,0,1-1.2-2.52,6,6,0,0,1-.36-1.52q0-.88.4-1.16a5.62,5.62,0,0,1,1-.44,4.37,4.37,0,0,1,.56-.24,1.7,1.7,0,0,1,.44-.08.71.71,0,0,1,.6.36,1,1,0,0,1,.12.24.7.7,0,0,1,.08.2q.16.28.4.8t.4.82a7.72,7.72,0,0,0,.42.68,3.53,3.53,0,0,0,.58.66,3,3,0,0,0,3,.82,2.69,2.69,0,0,0,1.86-2.42,3.47,3.47,0,0,0-.6-2.08,17.23,17.23,0,0,0-1.88-2.52l-1.4-1.6q-1-1.12-1.58-1.84a7.36,7.36,0,0,1-.86-1.28A13.25,13.25,0,0,1,143,89.72a5.59,5.59,0,0,1,.72-3.16,4.94,4.94,0,0,1,2.56-1.9,5.11,5.11,0,0,1,5.66,1.62,5.74,5.74,0,0,1,1.34,3.24,2.56,2.56,0,0,0,0,.26,2.21,2.21,0,0,1,0,.38,2.56,2.56,0,0,1,0,.4.76.76,0,0,1-.08.4.83.83,0,0,1-.56.32,2.66,2.66,0,0,1-.72.08h-.6A.26.26,0,0,1,151.24,91.6Z"/><path class="cls-2" d="M152.8,90.56a1.67,1.67,0,0,0,0-.32,2.1,2.1,0,0,0,0-.38,2.46,2.46,0,0,1,0-.26,5,5,0,0,0-1.2-2.94,4.84,4.84,0,0,0-2.34-1.54,4.76,4.76,0,0,0-2.72.08,4.14,4.14,0,0,0-2.26,1.68,4.91,4.91,0,0,0-.64,2.84,13,13,0,0,0,1.68,6.2,7.73,7.73,0,0,0,.84,1.2q.56.68,1.56,1.76l1.4,1.64a20.41,20.41,0,0,1,1.92,2.6,3.48,3.48,0,0,1-.08,4.28,3,3,0,0,1-1.48,1,3.63,3.63,0,0,1-3.6-1,3.77,3.77,0,0,1-.62-.72q-.3-.44-.48-.76t-.42-.86q-.24-.54-.36-.78s-.07-.07-.12-.2a.44.44,0,0,0-.08-.16c-.05-.08-.09-.12-.12-.12a1.17,1.17,0,0,0-.28.06,3.49,3.49,0,0,0-.52.22,5,5,0,0,0-.84.4q-.16.12-.16.64a6,6,0,0,0,.32,1.4,6.67,6.67,0,0,0,1.08,2.28,6.41,6.41,0,0,0,3.48,1.76,9.89,9.89,0,0,0,3.36.08,5.11,5.11,0,0,0,3-1.2,2.6,2.6,0,0,0,.64-1.06,4.17,4.17,0,0,0,.22-1q0-.42,0-1.38a11.59,11.59,0,0,0-1.34-5.2,17.85,17.85,0,0,0-3.34-4.68l-.84-.8q-.64-.56-.92-.84A5.25,5.25,0,0,1,146,92.44a3.34,3.34,0,0,1,0-2.56,1.9,1.9,0,0,1,1.6-1.08,3.22,3.22,0,0,1,1.92.4,4.1,4.1,0,0,1,1.64,1.6H152a3.79,3.79,0,0,0,.6,0l.2-.08Z"/><path class="cls-2" d="M160.44,82.88q.76,0,1.24,0a1.69,1.69,0,0,1,.4,0,.45.45,0,0,1,.2,0,.5.5,0,0,1,.2.12,1,1,0,0,1,.12.4v.6q0,.64,0,1.8,0,.48-.32,5.2-.2,3.48-.24,5.2a12.67,12.67,0,0,0,0,1.84,1.57,1.57,0,0,0,.08.56l0,.2h.12l.52-.08.68,0,.84,0h.8a.76.76,0,0,0,.4-.12h0a.61.61,0,0,0,0-.16l0-.08v-.24a.36.36,0,0,1,0-.16,83.45,83.45,0,0,1,.08-9.76,17.07,17.07,0,0,0-.12-2.16,6.29,6.29,0,0,1,.12-2.28.6.6,0,0,1,.36-.36,2.72,2.72,0,0,1,.44-.16,11.57,11.57,0,0,1,1.16-.12q.64,0,1.2,0a3,3,0,0,1,.84.2c.16.05.27.21.32.48a3.11,3.11,0,0,1,.12.68,14.71,14.71,0,0,1,0,2q0,1.32-.16,3.4,0,.52-.2,10.72-.08,4.16-.16,6.32-.08,1.4-.12,2.16,0,.44-.08.68a1.1,1.1,0,0,1-.12.44,1,1,0,0,1-.4.28l-.48.08a6,6,0,0,1-1.24,0,7.38,7.38,0,0,1-1.24-.16,1.58,1.58,0,0,1-.48-.12.54.54,0,0,1-.36-.24,1.07,1.07,0,0,1-.24-.68,6.27,6.27,0,0,1,0-1l.28-2.52q.2-1.68.24-2.4a3.1,3.1,0,0,0-.08-.8l-.08-.24a2.09,2.09,0,0,0-.6,0l-.8,0a4.44,4.44,0,0,1-.52,0,3.26,3.26,0,0,1-.56-.08,2.3,2.3,0,0,0-.92.08,1.39,1.39,0,0,0-.08.2,6.76,6.76,0,0,0-.16.84q-.08.8-.12,2.6,0,2.16-.08,2.64a6.53,6.53,0,0,1-.12,1,2.78,2.78,0,0,1-.08.32.51.51,0,0,1-.24.28.9.9,0,0,1-.6,0l-.36-.08h-.28a3.52,3.52,0,0,1-.48,0,2.52,2.52,0,0,1-.48,0,.84.84,0,0,1-.44-.28,1.57,1.57,0,0,1-.08-.2v-.8q0-.64.08-1.76,0-.44,0-1.16t.06-1.14q0-.42,0-.58,0-10.32-.16-15.6,0-.56-.1-1.92t-.1-1.94q0-.58.08-2a.25.25,0,0,1,.32-.24.23.23,0,0,1,.16.08Q159.2,82.88,160.44,82.88Z"/><path class="cls-2" d="M161.64,83.48q-.44,0-1.2,0-1.2,0-1.92,0,0,1.2,0,1.78t.1,1.82q.08,1.24.08,1.84.16,5.28.16,15.6,0,.16,0,.58t-.06,1.16q0,.74,0,1.18-.08,1.12-.08,1.72v.68a.16.16,0,0,0,.12,0,1,1,0,0,0,.32,0,3.19,3.19,0,0,0,.44,0h.32a3.6,3.6,0,0,1,.52.08l.16,0a1.22,1.22,0,0,0,.08-.24c0-.19.05-.48.08-.88s.05-1.19.08-2.6q0-1.84.12-2.64c.05-.4.11-.72.16-1a1.77,1.77,0,0,1,.16-.32.49.49,0,0,1,.28-.28,3.62,3.62,0,0,1,1.16-.08,3.3,3.3,0,0,0,.56.08l.48,0,.76,0a1.93,1.93,0,0,1,.88.08.81.81,0,0,1,.4.6,4.32,4.32,0,0,1,.08.92q0,.76-.24,2.48t-.28,2.48a4.64,4.64,0,0,0,0,.88,2.69,2.69,0,0,0,.08.44l.16,0a.93.93,0,0,0,.36.12q.52.08,1.16.12a5.28,5.28,0,0,0,1.16,0,.89.89,0,0,0,.4-.08l.08,0a.67.67,0,0,0,0-.2c0-.16.05-.37.08-.64q0-.76.12-2.12.08-2.2.16-6.36.16-10.2.2-10.76.16-1.88.16-3.32a13.38,13.38,0,0,0,0-1.88q0-.4-.08-.6a.43.43,0,0,0-.08-.16,1.88,1.88,0,0,0-.6-.12q-.56,0-1.16,0a7.93,7.93,0,0,0-1,.12.87.87,0,0,0-.32.12h0A5.21,5.21,0,0,0,166,86.2a19.25,19.25,0,0,1,.12,2.28,81.53,81.53,0,0,0-.08,9.68.85.85,0,0,0,0,.18.88.88,0,0,1,0,.22.63.63,0,0,1-.16.64,1.29,1.29,0,0,1-.72.24,8.23,8.23,0,0,1-.88,0l-.88,0-.64,0h-.12l-.12,0a.36.36,0,0,1-.16,0,.63.63,0,0,1-.64-.16,1.37,1.37,0,0,1-.2-.48c0-.16-.05-.37-.08-.64a13.24,13.24,0,0,1,0-1.88q0-1.76.24-5.24.28-4.72.32-5.2,0-1.16,0-1.76V83.6l0-.12Z"/><path class="cls-2" d="M173.88,84.48q0-1.2,1.4-1.56a2.32,2.32,0,0,1,1,0,1.23,1.23,0,0,1,.8.28.61.61,0,0,1,.12.32,1.65,1.65,0,0,1,0,.4c0,.24,0,.57,0,1,0,.19,0,.43,0,.72s0,.54,0,.74,0,.37,0,.5v2.32q0,.52,0,2.2l.12,4.28q0,2.6,0,4.64.08,4.24,0,6.64,0,1.44,0,2.24c0,.29-.05.53-.08.72a1.1,1.1,0,0,1-.12.44.51.51,0,0,1-.2.12.17.17,0,0,1-.12,0,1.05,1.05,0,0,1-.32,0h-.8l-.8-.08-.32-.08a.55.55,0,0,1-.28-.12.5.5,0,0,1-.12-.24v-.16a3,3,0,0,1,0-.56q0-.56,0-1.52v-1.08c0-.4,0-.73,0-1s0-.44,0-.52v-6.6q0-.76-.24-3.24a26.63,26.63,0,0,1-.16-3.28q0-.88.16-2.46t.16-2.42q0-.84,0-2.4A.28.28,0,0,1,173.88,84.48Z"/><path class="cls-2" d="M174.66,86.82q0,.86-.16,2.64T174.32,92a25.45,25.45,0,0,0,.16,3.24q.2,2.48.24,3.28v6.6c0,.08,0,.25,0,.52s0,.6,0,1,0,.76,0,1.08v1.52a2.16,2.16,0,0,0,0,.48v.08a.55.55,0,0,0,.24,0l.76.08h.76a.44.44,0,0,0,.2,0v-.12c0-.16.05-.39.08-.68q0-.8,0-2.2,0-2.4,0-6.64,0-2,0-4.6l-.12-4.32q0-1.68,0-2.2V86.84c0-.13,0-.3,0-.5s0-.45,0-.76,0-.55,0-.74q0-.64,0-1v-.32h0a.55.55,0,0,0-.4-.12,2.73,2.73,0,0,0-.8,0,1.19,1.19,0,0,0-.84.56.16.16,0,0,1,0,.12Q174.68,86,174.66,86.82Z"/><path class="cls-2" d="M181.5,109.23q0-1,.06-2.14t.08-1.66q0-2.56,0-7.66t0-7.66-.32-3.48q-.16-1.32-.2-2v-.76a.55.55,0,0,1,0-.24.88.88,0,0,1,.12-.28,1.3,1.3,0,0,1,.84-.28l.42,0,.3,0,.4,0h.6a3.37,3.37,0,0,1,.56,0,1,1,0,0,1,.52.36,4.54,4.54,0,0,1,.4,1.28,10.68,10.68,0,0,0,.24,1.2q.16.48,1,3.2T188,93.2c0,.08.12.31.28.68l.12.24.08-.12q.2-.48.48-1.32.48-1.36,1.24-3.88l1.12-4,.4-1.32a1.55,1.55,0,0,1,.16-.4.16.16,0,0,1,0-.12.43.43,0,0,1,.08-.16,1.1,1.1,0,0,1,.56-.24,4.11,4.11,0,0,1,.64,0l.62,0,.46,0h.24l.4,0,.44,0h.28l.12.08a.52.52,0,0,1,.08.12.31.31,0,0,0,0,.12V83a3,3,0,0,1,0,.56v1.6q0,.92-.08,2.64Q195.8,90,195.4,96q-.36,5.4-.36,8.2,0,.52,0,1.62t0,1.9a12.12,12.12,0,0,0,.14,1.56l0,.2.12.4c0,.19.05.33.08.44v.28a.23.23,0,0,1-.08.16.81.81,0,0,1-.68.2l-.2,0-.16,0h-.12l-.32,0a1658.33,1658.33,0,0,0-.8.08.75.75,0,0,1-.4-.08.68.68,0,0,1-.28-.32,1.45,1.45,0,0,1-.12-.44,9.53,9.53,0,0,1-.2-1.36q-.12-1.44-.12-3.92,0-1.68,0-2.8t0-2.36q0-1.24,0-1.36v-3l-.24.56L191,97.28a12.07,12.07,0,0,1-.76,1.24,2.18,2.18,0,0,1-.4.44.75.75,0,0,1-.48.2,3.33,3.33,0,0,1-2.84-1A7.35,7.35,0,0,1,185.8,97q-.48-1-.72-1.44a.3.3,0,0,0,0-.12,16.59,16.59,0,0,0,.12,1.76q.16,1.64.16,2.2,0,.24.08,2.3t.16,3.46q0,2.12.08,3.36,0,.76,0,1.2v.36a1.3,1.3,0,0,1-.08.28,1,1,0,0,1-.64.52,3.8,3.8,0,0,1-.92.16c-.24,0-.55,0-.94.06l-.66,0a.44.44,0,0,1-.2,0,.11.11,0,0,0-.08,0,.26.26,0,0,1-.36-.2A7.43,7.43,0,0,1,181.5,109.23Z"/><path class="cls-2" d="M195,83.12l-.4,0h-.28l-.46,0-.62,0a3,3,0,0,0-.56,0,.56.56,0,0,0-.24.08v0c0,.11-.07.24-.12.4l-.4,1.32-1.16,4q-.8,2.76-1.24,3.92a10,10,0,0,1-.52,1.36l-.2.4a.61.61,0,0,1-.32.28.45.45,0,0,1-.2,0,.11.11,0,0,1-.08,0s0,0,0-.06,0,0,0-.06a.42.42,0,0,1-.08-.16l-.2-.44q-.28-.56-.36-.68-.52-1.4-1.4-4.16l-1-3.2a11.35,11.35,0,0,1-.24-1.24,3.06,3.06,0,0,0-.32-1.08.25.25,0,0,0-.16-.12,2.27,2.27,0,0,0-.44,0h-.56l-.44,0h-.32a1.37,1.37,0,0,0-.8,0,.45.45,0,0,0,0,.2v.68q0,.72.2,2,.32,3.4.32,3.56,0,2.56,0,7.66t0,7.66q0,.56-.08,1.66t-.08,2a5.45,5.45,0,0,0,.2,1.54H183c.37,0,.67,0,.88,0a4.53,4.53,0,0,0,.8-.18.72.72,0,0,0,.36-.22v-.44c0-.27,0-.64,0-1.12q0-1.24-.08-3.36-.08-1.44-.16-3.5t-.08-2.3q0-.52-.16-2.12a14.33,14.33,0,0,1-.12-2.2V95a.67.67,0,0,1,0-.2.43.43,0,0,1,.32-.48.33.33,0,0,1,.28,0,.11.11,0,0,0,0,.08.49.49,0,0,1,.08.12l.2.32.12.28.08.12q.24.44.76,1.52a7.21,7.21,0,0,0,.6,1,2.76,2.76,0,0,0,2.4.76s.07,0,.12-.08l.32-.32a11.3,11.3,0,0,0,.68-1.16q.24-.4.68-1.36.4-.72.52-1l0-.08,0-.16.12-.2a.43.43,0,0,1,.4-.12l.16.16a.11.11,0,0,1,0,.08v.48a7.69,7.69,0,0,1,0,1.12v2.44q0,.12,0,1.36t0,2.36q0,1.12,0,2.8,0,2.48.12,3.88a8.13,8.13,0,0,0,.2,1.28,2.55,2.55,0,0,0,.08.36l0,0H193l.36,0,.38,0,.3,0,.6,0h.16a1.26,1.26,0,0,0-.08-.36c0-.11-.05-.24-.08-.4a1.65,1.65,0,0,1-.08-.28,12.11,12.11,0,0,1-.14-1.62q0-.86,0-2t0-1.58q0-2.84.36-8.24.4-6,.48-8.2,0-1.68.08-2.64V83.6a2.76,2.76,0,0,0,0-.52Z"/><path class="cls-2" d="M199,110.79a.25.25,0,0,1,.16-.24,16.76,16.76,0,0,1,.28-1.9q.2-1,.52-2.14t.44-1.8q.16-.76.32-2.16t.32-2.16q.36-1.88,1.24-5.4,1-3.92,1.24-5.32,0-.16.24-1.34t.36-2q.24-1.16.44-1.88a6.46,6.46,0,0,1,.24-.68,1.28,1.28,0,0,1,.24-.44,1.41,1.41,0,0,1,.64-.28H206l.24,0c.32-.05.64-.09,1-.12h.56a.85.85,0,0,1,.52.2l.08.12v0a1.64,1.64,0,0,1,.08.2c.05.16.12.37.2.64l.68,2.28,2,6.84q2.64,9.48,3.08,11.2a44.72,44.72,0,0,0,1.88,5.8.45.45,0,0,1,.08.12.41.41,0,0,1,.08.48.24.24,0,0,1-.16.16l-.16.08-.4.08a5.94,5.94,0,0,1-1,.08,7.35,7.35,0,0,1-1.08,0,1.7,1.7,0,0,1-.4,0,1.31,1.31,0,0,1-.32-.08,1,1,0,0,1-.28-.4,3.22,3.22,0,0,1-.24-.52c0-.11-.08-.28-.16-.52a1.34,1.34,0,0,1-.08-.32,72.56,72.56,0,0,1-2.56-7.24q0-.08-.12-.92a1.44,1.44,0,0,0-.2-.68.6.6,0,0,0-.24-.08,7.61,7.61,0,0,0-1.8,0l-1.92.12-.48-.08h-.16a1.12,1.12,0,0,0-.24.44q-.16.44-.36,1.12-.24,1-.72,3.28-.52,2.52-.76,3.36a7.21,7.21,0,0,1-.72,2.12,1.2,1.2,0,0,1-.6.36,5.31,5.31,0,0,1-.72,0q-.28,0-.72,0l-.24,0a.36.36,0,0,1-.16,0l-.12,0A.26.26,0,0,1,199,110.79Z"/><path class="cls-2" d="M207.68,83.48h-.52c-.29,0-.59.07-.88.12l-.3,0-.26,0a.61.61,0,0,0-.32.12.93.93,0,0,0-.12.24,2.57,2.57,0,0,0-.2.64q-.2.68-.44,1.84-.16.8-.36,2t-.24,1.3q-.36,1.76-1.24,5.4-.88,3.48-1.24,5.32-.12.68-.32,2.16t-.32,2.16q-.16.72-.46,1.86t-.5,2.08a15.28,15.28,0,0,0-.28,1.82h.12q.4,0,.64,0a3.77,3.77,0,0,0,.6,0q.2,0,.24-.12a6.67,6.67,0,0,0,.68-1.92l.72-3.36q.48-2.28.76-3.28.2-.76.36-1.2a1.58,1.58,0,0,1,.44-.7.7.7,0,0,1,.6-.1l.36.08,1.88-.12a8.59,8.59,0,0,1,1.92,0,.92.92,0,0,1,.56.24,2.12,2.12,0,0,1,.36,1,4.15,4.15,0,0,0,.12.84,65.43,65.43,0,0,0,2.48,7.16,1.56,1.56,0,0,1,.16.4q.12.36.16.52a2.77,2.77,0,0,0,.16.44l.12.16h.08a1.45,1.45,0,0,0,.36,0,6.07,6.07,0,0,0,1,0,5.28,5.28,0,0,0,1-.08.45.45,0,0,0,.2,0,.63.63,0,0,1-.12-.16,55.12,55.12,0,0,1-1.88-5.8q-.52-2-3.08-11.2l-2-6.88-.64-2.24q-.12-.4-.2-.64a.31.31,0,0,1,0-.12A.34.34,0,0,1,207.68,83.48Z"/><path class="cls-2" d="M206.6,91.88a18,18,0,0,1,.8,1.68,9,9,0,0,0,.8,1.52.49.49,0,0,0,.08.12l.14.12.18.16a.86.86,0,0,1,.28.76.44.44,0,0,1-.52.24.16.16,0,0,1-.12,0h0l-.6.08q-.6.12-1,.16a3.93,3.93,0,0,1-1,0,.91.91,0,0,1-.72-.52.78.78,0,0,1,0-.36c0-.13.05-.29.08-.48l.32-1.32q.12-.36.26-.88t.22-.86q.08-.34.12-.46c.05-.19.16-.27.32-.24a.26.26,0,0,1,.24.28Z"/><path class="cls-2" d="M207.72,95.4a17.33,17.33,0,0,1-.84-1.64l-.56-1.24-.44,1.6-.32,1.28c0,.19-.05.33-.08.44V96c0,.05.09.09.28.12a2.4,2.4,0,0,0,.8,0c.24,0,.56-.08,1-.16l.68-.08Z"/><path class="cls-2" d="M236.08,106.87H237l2.64-.2,2.76-.16c.45,0,.81,0,1.08,0a2.19,2.19,0,0,1,.76.16.68.68,0,0,1,.28.32,2.12,2.12,0,0,1,.12.44,8.81,8.81,0,0,1,.1,1.14,6,6,0,0,1-.06,1.14,2.22,2.22,0,0,1-.12.44.68.68,0,0,1-.28.32,1.56,1.56,0,0,1-.72.16l-1.24.08q-1.28,0-3.44,0-1.4,0-3.48,0l-2.36,0a.26.26,0,0,1-.28-.24.17.17,0,0,1-.12,0,.25.25,0,0,1-.28-.28q0-.88.2-4.24.16-2.64.12-4.16,0-2.28-.16-5.76-.16-3.92-.24-6.94t-.08-5.78v-.16a.26.26,0,0,1,.24-.28.39.39,0,0,1,.2-.16,1.81,1.81,0,0,1,.56-.12,8.7,8.7,0,0,1,.92,0q.92,0,2.52,0,2.76,0,4.16.08l.26,0,.48,0,.54,0,.76,0a1.06,1.06,0,0,1,.64.2.26.26,0,0,1,.12.12v.08a.23.23,0,0,1,0,.16,2.55,2.55,0,0,0,0,.4,10.36,10.36,0,0,1,0,1.28A7.74,7.74,0,0,1,243.6,86a4.36,4.36,0,0,1-.08.48.63.63,0,0,1-.32.4,5.25,5.25,0,0,1-1.68.12l-2.44-.16q-1.84-.12-2.28-.12a3.1,3.1,0,0,0-.8.08.9.9,0,0,0-.28,0v.08a4.11,4.11,0,0,1,0,.48q0,.52,0,1.48,0,.48-.06,1c0,.37,0,.7,0,1s0,.43,0,.46,0,.26,0,.54,0,.61-.06,1,0,.73,0,1.08q0,.92,0,1.48a2.69,2.69,0,0,0,0,.52v.12a1.35,1.35,0,0,0,.6.08l1.28-.12a4.28,4.28,0,0,1,1.28,0,.86.86,0,0,1,.84.76,8.74,8.74,0,0,1,.08,1.24,3.64,3.64,0,0,1,0,.76,1,1,0,0,1,0,.32.88.88,0,0,1-.12.28.7.7,0,0,1-.4.16,2.51,2.51,0,0,1-.48,0,8.94,8.94,0,0,1-1.24-.12,4.91,4.91,0,0,1-.58-.06,4.86,4.86,0,0,0-.62-.06l-.36,0v.16a5.51,5.51,0,0,0,0,.56c0,.11.05.25.08.42s.05.32.08.44a1.46,1.46,0,0,1,0,.3v3.12l0,1.92v.64A.56.56,0,0,0,236.08,106.87Z"/><path class="cls-2" d="M242.84,83.08c-.19,0-.43,0-.72,0l-.5,0-.52,0-.3,0q-1.44-.08-4.16-.08-1.56,0-2.52,0a6.82,6.82,0,0,0-.86,0l-.38,0,0,.08v0l-.08.08q0,2.76.08,5.76t.24,6.88q.12,3.48.16,5.76,0,1.56-.12,4.2-.2,3.36-.2,4.16a.17.17,0,0,1,.12,0l2.4,0q2.08,0,3.44,0,2.16,0,3.44,0l1.16-.08A3,3,0,0,0,244,110a0,0,0,0,1,0,0,2.43,2.43,0,0,0,.08-.36,4.47,4.47,0,0,0,.06-1,7.22,7.22,0,0,0-.1-1,2.83,2.83,0,0,0-.08-.32.12.12,0,0,0,0-.08,1.68,1.68,0,0,0-.52-.12h-1l-2.76.16-2.68.2h-1a1,1,0,0,1-.64-.2l-.12-.12v-.92q0-.28,0-.92t0-1v-3.12a1.62,1.62,0,0,0,0-.22c0-.09,0-.22-.06-.38l-.12-.44q0-.44,0-.68a1,1,0,0,1,.16-.6.33.33,0,0,1,.24-.08.23.23,0,0,1,.16,0,2.55,2.55,0,0,1,.4,0,6.42,6.42,0,0,0,.64.08l.56,0a8.87,8.87,0,0,0,1.2.12,1.71,1.71,0,0,0,.4,0h.08v-.24a2.8,2.8,0,0,0,0-.68,8.05,8.05,0,0,0-.08-1.2c0-.16-.15-.26-.38-.3a4.79,4.79,0,0,0-1.14,0q-1.16.16-1.32.16-.8,0-1-.32a.29.29,0,0,1-.12-.2V96a2.77,2.77,0,0,1,0-.52q0-.6,0-1.56c0-.32,0-.67,0-1.06s0-.72.06-1,0-.45,0-.5,0-.22,0-.5,0-.61,0-1,0-.72.06-1q0-1,0-1.48a4.45,4.45,0,0,0,0-.52.36.36,0,0,0,0-.16V86.6a.43.43,0,0,1,.08-.12,1.46,1.46,0,0,1,.64-.24,3.55,3.55,0,0,1,.84-.08q.52,0,2.36.12l2.4.16a8.13,8.13,0,0,0,1.44-.08,0,0,0,0,1,0,0,1.41,1.41,0,0,0,0-.4,7.09,7.09,0,0,0,.08-1.2,9.1,9.1,0,0,0,0-1.2,2.44,2.44,0,0,1,0-.4A.55.55,0,0,0,242.84,83.08Z"/><path class="cls-2" d="M243.16,83.12h-.08A0,0,0,0,0,243.16,83.12Z"/><path class="cls-2" d="M255.42,101.46a1.43,1.43,0,0,1,.06-.26v-.08q.28-1.36,1-4.2t2-7.24q.76-2.72,1.28-4.36l.52-1.48.2-.48a.86.86,0,0,1,.24-.28A.36.36,0,0,1,261,83a.81.81,0,0,1,.36,0,6.71,6.71,0,0,1,.92.08q1,.12,1.52.24l.08,0H264a.5.5,0,0,1,.36.28.3.3,0,0,1,0,.12v.2a2.71,2.71,0,0,0-.08.36q-.12.44-.32,1.24l-1,3.6L261.36,95l-2.72,8.52q-1.08,3.28-1.76,5.16a16.69,16.69,0,0,1-.64,1.68l-.2.52a.61.61,0,0,0-.12.16.39.39,0,0,1-.2.16,2.16,2.16,0,0,1-.6,0,4.56,4.56,0,0,1-.8-.08l-.8-.16a1.9,1.9,0,0,1-.56-.24,3,3,0,0,1-.52-1.08q-.2-.6-.44-1.64-.08-.4-.4-1.72-.2-.88-.28-1.12a90,90,0,0,1-2.2-10.64q-1.2-7.4-2.08-10.6a.26.26,0,0,1,0-.24.21.21,0,0,1-.24-.16q-.12-.28.12-.36a4.25,4.25,0,0,1,.88-.16,10,10,0,0,1,1.32-.08q.8,0,1.32,0a2.77,2.77,0,0,1,.52,0,.69.69,0,0,1,.4.16l.08.12v0a.16.16,0,0,1,0,.12l.12.44q.12.56.36,1.52L253,90q1.36,6.48,1.52,7.52.28,1.92.44,2.64a10.05,10.05,0,0,0,.4,1.48v.08A1.47,1.47,0,0,0,255.42,101.46Z"/><path class="cls-2" d="M249.68,94.44a88,88,0,0,0,2.2,10.6,10.35,10.35,0,0,1,.28,1.16q.28,1.32.36,1.72l.44,1.6a2.13,2.13,0,0,0,.4.84,1.12,1.12,0,0,0,.32.12,4.13,4.13,0,0,0,.72.12,3.92,3.92,0,0,0,.76.08l.32,0a.11.11,0,0,0,0-.08l.24-.44q.24-.6.6-1.68.68-1.84,1.76-5.12l2.68-8.52q.48-1.48,1.68-5.88l1-3.64.32-1.2a1.23,1.23,0,0,1,.08-.28.12.12,0,0,1-.08,0h-.16a13.16,13.16,0,0,0-1.44-.24,6,6,0,0,0-.88-.08.5.5,0,0,0-.28,0h0a.17.17,0,0,0,0,.12l-.2.4-.52,1.48q-.52,1.6-1.28,4.28-1.28,4.52-2,7.28t-1,4.12a.9.9,0,0,1,0,.14c0,.07,0,.15,0,.26a1.52,1.52,0,0,1-.06.28,2.44,2.44,0,0,1-.08.4l0,.2-.08.08a.31.31,0,0,1-.28.12.58.58,0,0,1-.4-.32,2.88,2.88,0,0,1-.24-.56q-.16-.56-.36-1.52T254,97.6q-.16-1-1.52-7.52l-1-4.6q-.24-1-.36-1.48c0-.19-.05-.33-.08-.44v0h-.08a1.91,1.91,0,0,0-.44,0q-.52,0-1.28,0a10.12,10.12,0,0,0-1.32.08,1.7,1.7,0,0,0-.4,0,.61.61,0,0,1,.12.16Q248.48,87,249.68,94.44Z"/><path class="cls-2" d="M272.12,106.87H273l2.64-.2,2.76-.16q.68,0,1.08,0a2.19,2.19,0,0,1,.76.16.68.68,0,0,1,.28.32,2.06,2.06,0,0,1,.12.44,8.62,8.62,0,0,1,.1,1.14,6,6,0,0,1-.06,1.14,2.1,2.1,0,0,1-.12.44.68.68,0,0,1-.28.32,1.57,1.57,0,0,1-.72.16l-1.24.08q-1.28,0-3.44,0-1.4,0-3.48,0l-2.36,0a.26.26,0,0,1-.28-.24.16.16,0,0,1-.12,0,.25.25,0,0,1-.28-.28q0-.88.2-4.24.16-2.64.12-4.16,0-2.28-.16-5.76-.16-3.92-.24-6.94t-.08-5.78v-.16a.26.26,0,0,1,.24-.28.38.38,0,0,1,.2-.16,1.82,1.82,0,0,1,.56-.12,8.68,8.68,0,0,1,.92,0q.92,0,2.52,0,2.76,0,4.16.08l.26,0,.48,0,.54,0,.76,0a1.06,1.06,0,0,1,.64.2.26.26,0,0,1,.12.12v.08a.23.23,0,0,1,0,.16,2.55,2.55,0,0,0,0,.4,10,10,0,0,1,0,1.28,7.74,7.74,0,0,1-.08,1.24,4.41,4.41,0,0,1-.08.48.63.63,0,0,1-.32.4,5.25,5.25,0,0,1-1.68.12l-2.44-.16q-1.84-.12-2.28-.12a3.1,3.1,0,0,0-.8.08.89.89,0,0,0-.28,0v.08a4.34,4.34,0,0,1,0,.48q0,.52,0,1.48,0,.48-.06,1t0,1c0,.28,0,.43,0,.46s0,.26,0,.54,0,.61-.06,1,0,.73,0,1.08q0,.92,0,1.48a2.77,2.77,0,0,0,0,.52v.12a1.36,1.36,0,0,0,.6.08l1.28-.12a4.27,4.27,0,0,1,1.28,0,.86.86,0,0,1,.84.76,8.74,8.74,0,0,1,.08,1.24,3.51,3.51,0,0,1,0,.76,1,1,0,0,1,0,.32.88.88,0,0,1-.12.28.7.7,0,0,1-.4.16,2.51,2.51,0,0,1-.48,0,8.92,8.92,0,0,1-1.24-.12,4.94,4.94,0,0,1-.58-.06,4.85,4.85,0,0,0-.62-.06l-.36,0v.16a5.24,5.24,0,0,0,0,.56c0,.11.05.25.08.42s.05.32.08.44a1.46,1.46,0,0,1,0,.3v3.12l0,1.92v.64A.56.56,0,0,0,272.12,106.87Z"/><path class="cls-2" d="M278.88,83.08c-.19,0-.43,0-.72,0l-.5,0-.52,0-.3,0q-1.44-.08-4.16-.08-1.56,0-2.52,0a6.84,6.84,0,0,0-.86,0l-.38,0,0,.08v0l-.08.08q0,2.76.08,5.76t.24,6.88q.12,3.48.16,5.76,0,1.56-.12,4.2-.2,3.36-.2,4.16a.16.16,0,0,1,.12,0l2.4,0q2.08,0,3.44,0,2.16,0,3.44,0l1.16-.08A3,3,0,0,0,280,110a0,0,0,0,1,0,0,2.57,2.57,0,0,0,.08-.36,4.48,4.48,0,0,0,.06-1,7.1,7.1,0,0,0-.1-1,2.81,2.81,0,0,0-.08-.32.12.12,0,0,0,0-.08,1.67,1.67,0,0,0-.52-.12h-1l-2.76.16-2.68.2h-1a1,1,0,0,1-.64-.2l-.12-.12v-.92q0-.28,0-.92t0-1v-3.12a1.76,1.76,0,0,0,0-.22c0-.09,0-.22-.06-.38l-.12-.44q0-.44,0-.68a1,1,0,0,1,.16-.6.33.33,0,0,1,.24-.08.23.23,0,0,1,.16,0,2.54,2.54,0,0,1,.4,0,6.45,6.45,0,0,0,.64.08l.56,0a8.87,8.87,0,0,0,1.2.12,1.7,1.7,0,0,0,.4,0H275v-.24a2.91,2.91,0,0,0,0-.68,7.91,7.91,0,0,0-.08-1.2q0-.24-.38-.3a4.78,4.78,0,0,0-1.14,0q-1.16.16-1.32.16-.8,0-1-.32a.28.28,0,0,1-.12-.2V96a2.69,2.69,0,0,1,0-.52q0-.6,0-1.56c0-.32,0-.67,0-1.06s0-.72.06-1,0-.45,0-.5,0-.22,0-.5,0-.61,0-1,0-.72.06-1q0-1,0-1.48a4.25,4.25,0,0,0,0-.52.34.34,0,0,0,0-.16V86.6a.48.48,0,0,1,.08-.12,1.47,1.47,0,0,1,.64-.24,3.56,3.56,0,0,1,.84-.08q.52,0,2.36.12l2.4.16a8.11,8.11,0,0,0,1.44-.08,0,0,0,0,1,0,0,1.41,1.41,0,0,0,0-.4,7,7,0,0,0,.08-1.2,9.1,9.1,0,0,0,0-1.2,2.55,2.55,0,0,1,0-.4A.55.55,0,0,0,278.88,83.08Z"/><path class="cls-2" d="M279.2,83.12h-.08A.05.05,0,0,0,279.2,83.12Z"/><path class="cls-2" d="M284.92,107.27q.08-3.28.08-3.76T284.76,98q-.24-5-.24-7.6,0-.6,0-1.7t0-1.42a26,26,0,0,0-.08-3v0a.32.32,0,0,1,0-.12.51.51,0,0,1,.08-.48.45.45,0,0,1,.16-.08l.16-.08a3.19,3.19,0,0,0,.44,0l1.12-.08q.68,0,1.16,0l.44.08a.44.44,0,0,1,.36.2,3.51,3.51,0,0,1,.52.92q.28.64.68,1.72.68,1.76,1.72,4.76,2,5.72,2.68,8.2t1.4,4.2V103q0-2.36,0-3,0-3.68-.56-16a1.67,1.67,0,0,0,0-.18.73.73,0,0,0-.06-.22.83.83,0,0,1,.16-.64l.16-.08h0a.36.36,0,0,0,.16,0h.4q.48,0,1.2,0H298a1.42,1.42,0,0,1,.4,0h.2a.16.16,0,0,1,.12,0,.61.61,0,0,1,.12.16v.12a.44.44,0,0,1,0,.2q0,.24,0,.72,0,.8.08,2.12,0,.6.06,1.48t0,1.36c0,.32,0,.53,0,.64q.08,1,.24,11l.08,6.8q0,1.32,0,2.2v.88a.11.11,0,0,1,0,.08.62.62,0,0,1-.36.32,4.16,4.16,0,0,1-.52.16,10.82,10.82,0,0,1-1.4.08,7.71,7.71,0,0,1-1.48-.2,1.77,1.77,0,0,1-1-.6q-.36-.52-3.44-6.88l-1.92-4-.44-1a.64.64,0,0,0,0,.2V99l0,0v0a29.86,29.86,0,0,1,.28,3.64q0,.36.12,1.76.12,2,.16,2.72a22.12,22.12,0,0,1,.08,2.48,6.53,6.53,0,0,1,0,.84,2.78,2.78,0,0,1-.08.32.48.48,0,0,1-.28.28,6.14,6.14,0,0,1-1.76.2c-.19,0-.47,0-.86-.06l-.86,0a.36.36,0,0,1-.16,0,.17.17,0,0,1-.12,0q-.24,0-.32-.24A17.32,17.32,0,0,1,284.92,107.27Z"/><path class="cls-2" d="M285,84.12a28.33,28.33,0,0,1,.08,3.16q0,.28,0,1.38t0,1.7q0,2.6.24,7.6t.24,5.56q0,.48-.08,3.76a16.19,16.19,0,0,0,.16,3.44h.08l.86,0c.39,0,.67,0,.86.06l.44,0,.44,0a.89.89,0,0,0,.36,0,1.15,1.15,0,0,0,.36-.18c-.05,0-.08,0-.08,0a.62.62,0,0,1,0-.16,5.7,5.7,0,0,0,0-.76,22.12,22.12,0,0,0-.08-2.48l-.16-2.68q-.12-1.44-.12-1.8a28.74,28.74,0,0,0-.28-3.56v0l0-.2a1.92,1.92,0,0,1-.08-.52,1.23,1.23,0,0,1,0-.52.39.39,0,0,1,.08-.28.32.32,0,0,1,.36-.2.23.23,0,0,1,.16.08.11.11,0,0,1,0,.08l.12.12a1.74,1.74,0,0,0,.2.36l.64,1.28,1.92,4q3,6.24,3.4,6.8a1.13,1.13,0,0,0,.72.36,6,6,0,0,0,1.32.2,8.56,8.56,0,0,0,1.28-.08,1,1,0,0,0,.4-.12l.08,0v-.72q0-.84,0-2.2l-.08-6.76q-.16-10-.24-11.08c0-.08,0-.28,0-.6s0-.78,0-1.38,0-1.09-.06-1.46q0-1.4-.08-2.12c0-.29,0-.52,0-.68V83.4h-1.56q-.68,0-1.16,0h-.4v.12l0,.12v.16a.64.64,0,0,1,0,.2q.56,12.32.56,16,0,.6,0,3v2a.12.12,0,0,1,0,.08.5.5,0,0,1-.08.12.43.43,0,0,1-.22,0,.35.35,0,0,1-.18-.1.48.48,0,0,1-.08-.12l0-.2q-.12-.44-.32-1a39.83,39.83,0,0,1-1.56-4.52q-.72-2.52-2.64-8.2-1-2.72-1.72-4.72-.44-1.12-.68-1.68a3.52,3.52,0,0,0-.4-.8.12.12,0,0,1-.08,0l-.36,0c-.29,0-.65,0-1.08,0l-1.12.08a1,1,0,0,0-.32,0A.62.62,0,0,1,285,84.12Z"/><path class="cls-2" d="M308,88.32a1.69,1.69,0,0,0-.6-.08,15.6,15.6,0,0,0-1.84,0q-1.4.08-1.92.08a2.71,2.71,0,0,1-.72-.08.92.92,0,0,1-.56-.28.45.45,0,0,1,0-.2.23.23,0,0,1,0-.16,3.32,3.32,0,0,1,0-.4q0-.36.08-1.16a14,14,0,0,0,.16-1.92.28.28,0,1,1,.56-.08v.08a.16.16,0,0,1,.12,0l1.42,0,2.92-.06,3.22-.08q2.92,0,4.56,0,1,0,1.52,0a1.86,1.86,0,0,1,.44,0,.23.23,0,0,1,.16,0,.51.51,0,0,1,.24.12,1.6,1.6,0,0,1,.12.48v1.48q.08.72.12,1a2.26,2.26,0,0,1,0,.6.78.78,0,0,1-.16.56.92.92,0,0,1-.56.2,6.48,6.48,0,0,1-.8,0l-2-.16a18.27,18.27,0,0,0-2,0,3.07,3.07,0,0,0-.64.12c-.13.05-.2.11-.2.16a2.62,2.62,0,0,0,0,1q.16,1.08.16,1.2.12,3.48.12,15.36v.88q0,.84,0,1.4a9.37,9.37,0,0,1-.08,1.36l-.12.48a.61.61,0,0,1-.36.4,1.86,1.86,0,0,1-.84,0,1.67,1.67,0,0,1-.4-.08l-.28,0h-.8a.62.62,0,0,1-.32-.16.26.26,0,0,1-.12-.16v-.08a.23.23,0,0,1,0-.16q0-.2,0-.6v-4.52q0-1.44-.16-8.84-.12-5.12-.12-5.36,0-1.16,0-1.76a2.77,2.77,0,0,0,0-.52v-.08A.23.23,0,0,0,308,88.32Z"/><path class="cls-2" d="M317.27,84.6a1.41,1.41,0,0,0-.4,0q-.52,0-1.48,0-1.64,0-4.56,0l-3.22.08-2.92.06-1.42,0a.16.16,0,0,1-.12,0q0,.32-.16,1.48-.08.8-.08,1.16a2.46,2.46,0,0,0,0,.36v0l.2.08a4,4,0,0,0,.64,0q.48,0,1.84-.08a17.18,17.18,0,0,1,1.92,0,2.71,2.71,0,0,1,.72.08.79.79,0,0,1,.52.36l0,.08v.2a2.67,2.67,0,0,1,0,.52q0,.64,0,1.76,0,.28.12,5.36.16,7.44.16,8.88v4.52a5.51,5.51,0,0,1,0,.56v0h.8a1.29,1.29,0,0,1,.32.08,2.55,2.55,0,0,1,.4.08l.52,0a.11.11,0,0,1,0-.08,2.58,2.58,0,0,0,.08-.36,8.07,8.07,0,0,0,.08-1.28q0-.56,0-1.4v-.88q0-11.88-.12-15.36,0-.08-.16-1.12a2.8,2.8,0,0,1,0-1.24.84.84,0,0,1,.56-.52,2.61,2.61,0,0,1,.8-.16,20,20,0,0,1,2.08,0l2,.16h.72l.24-.08V87.8a1.91,1.91,0,0,0,0-.56c0-.19-.07-.52-.12-1V84.6Z"/><g class="cls-3"><image width="500" height="284" transform="translate(-445.63 -576.64) scale(2.45)" xlink:href="../../../Volumes/DATA/共有/Dropbox/クライアント/TJかごしま/カゴシマプラス/デザイン/FotoliaComp_41450810_kZfvEJxlOH9GWmO3uxERDGxkZUbnMzrw_NW40.jpg"/></g><path class="cls-4" d="M144.05,22.57h-2.81V21.31h7.14v1.26h-2.82v8.31h-1.51Z"/><path class="cls-4" d="M149.16,29.46l1.05-.77a1.7,1.7,0,0,0,1.55,1c1,0,1.44-.52,1.44-1.92v-6.5h1.51v6.64c0,1.72-.83,3.09-2.78,3.09A2.94,2.94,0,0,1,149.16,29.46Z"/><path class="cls-4" d="M165,20.72c-.07.27-.13.6-.18.88s-.19,1-.31,1.6c.53,0,1-.07,1.29-.07,1.25,0,2.2.52,2.2,2.31a12.4,12.4,0,0,1-.74,4.67,1.92,1.92,0,0,1-2,1.12,7,7,0,0,1-1.52-.2l-.22-1.35a6.9,6.9,0,0,0,1.59.27,1,1,0,0,0,1.05-.61,10.32,10.32,0,0,0,.57-3.76c0-1.1-.49-1.29-1.31-1.29-.26,0-.69,0-1.17.07a27.2,27.2,0,0,1-2.65,6.9l-1.34-.53a20.13,20.13,0,0,0,2.65-6.23l-1.39.16c-.34,0-.92.12-1.29.18l-.12-1.4c.43,0,.81,0,1.24,0s1.1-.07,1.83-.13a14.19,14.19,0,0,0,.3-2.76ZM169.44,22a23,23,0,0,1,2.31,4.68l-1.27.61a15.46,15.46,0,0,0-2.25-4.77Z"/><path class="cls-4" d="M175.68,27.08a4.89,4.89,0,0,0-.25,1.39c0,.9.9,1.55,2.87,1.55a16.91,16.91,0,0,0,4.45-.51v1.42a18.9,18.9,0,0,1-4.42.46c-2.77,0-4.26-.92-4.26-2.61a7.88,7.88,0,0,1,.26-1.82Zm-.78-5.32a29.09,29.09,0,0,0,3.45.17c1.26,0,2.64-.09,3.59-.18V23.1c-.88.07-2.38.16-3.58.16s-2.42-.07-3.46-.14Zm8.48.36-.86.38a13.19,13.19,0,0,0-1-1.81l.84-.35A19,19,0,0,1,183.38,22.12Zm1.51-.56-.84.38A12.44,12.44,0,0,0,183,20.15l.84-.35A20.17,20.17,0,0,1,184.89,21.57Z"/><path class="cls-4" d="M189.79,20.71a14.17,14.17,0,0,0-.14,1.47c-.05,1.43-.16,4.39-.16,6.19,0,1.35.86,1.82,2,1.82A5.24,5.24,0,0,0,196,27.53l.92,1.13a6.55,6.55,0,0,1-5.47,2.89c-2,0-3.28-.84-3.28-3,0-1.83.13-5.15.13-6.4a7.42,7.42,0,0,0-.13-1.48Z"/><path class="cls-4" d="M208.7,30.81a9.66,9.66,0,0,0-2.87-1.87c0,.26,0,.48,0,.66,0,1-.7,1.87-2.38,1.87-1.95,0-3-.71-3-2s1.16-2.08,3.08-2.08c.33,0,.64,0,.95.05,0-.48,0-1-.05-1.47h-.7c-.82,0-2.28-.07-3.17-.17V24.57a22,22,0,0,0,3.17.25h.66V23.19h-.64a26,26,0,0,1-2.92-.19V21.81a19.48,19.48,0,0,0,2.91.25h.66v-.73a8,8,0,0,0-.05-.82h1.38c0,.23-.06.52-.08.87,0,.14,0,.38,0,.64a31.19,31.19,0,0,0,3.21-.33v1.18c-.94.09-2,.21-3.24.26v1.64c1.27-.06,2.41-.18,3.51-.34v1.22c-1.2.14-2.26.22-3.5.27,0,.58.05,1.2.09,1.75a10.27,10.27,0,0,1,3.68,2Zm-4.17-2.26a6.68,6.68,0,0,0-1.16-.1c-1.09,0-1.68.42-1.68.95s.48.92,1.59.92c.73,0,1.26-.21,1.26-1C204.54,29.09,204.54,28.85,204.53,28.55Z"/><path class="cls-4" d="M144.87,44.82a9.73,9.73,0,0,0,.09,1.53h-1.61a15,15,0,0,0,.08-1.53V40.19a24.89,24.89,0,0,1-4.71,1.91L138,40.84a20.4,20.4,0,0,0,5.86-2.37,14.22,14.22,0,0,0,3.39-2.91l1.1,1a21.52,21.52,0,0,1-3.47,2.79Z"/><path class="cls-4" d="M151.59,41.42c.6-.61,1.68-2,2.54-3,.73-.86,1.34-.95,2.33-.12A30.43,30.43,0,0,1,159.13,41c.87.94,2.22,2.38,3.16,3.48l-1.08,1.17c-.87-1.12-2.05-2.5-2.86-3.43a34.56,34.56,0,0,0-2.48-2.61c-.49-.42-.7-.42-1.11.09-.58.71-1.61,2.08-2.17,2.79l-.78,1.09-1.21-1.22C151,42,151.22,41.78,151.59,41.42ZM160.32,39l-.94.42a14.08,14.08,0,0,0-1.2-2.09l.91-.39C159.43,37.48,160,38.44,160.32,39Zm1.74-.72-.92.44a13.17,13.17,0,0,0-1.25-2.05l.91-.42A17.82,17.82,0,0,1,162.06,38.32Z"/><path class="cls-4" d="M169.81,43.07a12.37,12.37,0,0,0,4.51-4.9l.79,1.42a13.4,13.4,0,0,1-4.56,4.71,14.33,14.33,0,0,1-5,1.94l-.87-1.34A13.5,13.5,0,0,0,169.81,43.07Zm-.44-4.16-1,1.05a29.5,29.5,0,0,0-3.25-2.76l.95-1A26.41,26.41,0,0,1,169.37,38.91Z"/><path class="cls-4" d="M186.56,42.69a34.74,34.74,0,0,0-4.92-2v4a15.12,15.12,0,0,0,.1,1.66h-1.6a13.53,13.53,0,0,0,.1-1.66V37.16a9.39,9.39,0,0,0-.12-1.46h1.6c0,.43-.09,1-.09,1.46v2a45,45,0,0,1,5.5,2.08Z"/><path class="cls-4" d="M189.38,40.82a17.6,17.6,0,0,0,.56-3.34l.87.12a17.78,17.78,0,0,1-.52,3.52ZM192.75,39a17,17,0,0,0-.66-1.82v9.68H191V35h1.11V37.1l.75-.3a12,12,0,0,1,.73,1.83Zm8.7.08V40H193v-.9h3.56v-.75h-2.85V37.5h2.85v-.68h-3.16v-.9h3.16V35h1.2v1h3.29v.9h-3.29v.68h3v.84h-3v.75Zm-1,6.55c0,.55-.12.86-.51,1a5.56,5.56,0,0,1-1.91.18,4.48,4.48,0,0,0-.35-1c.6,0,1.22,0,1.39,0s.23-.06.23-.22v-.7H195v2h-1.12V40.63h6.57ZM195,41.54v.81h4.3v-.81Zm4.3,2.51v-.81H195v.81Z"/><path class="cls-4" d="M206.06,38.36h2.28v1h-1.21l.56.14c-.22.55-.46,1.12-.66,1.53h1.16v1h-2.12v1.22h2v1h-2v2.51h-1.13V44.35h-2v-1h2V42.1h-2.16v-1h1.13a5.83,5.83,0,0,0-.49-1.53l.53-.14h-1.39v-1h2.38V37.23H203v-1h1.91V35h1.13v1.22h1.79v1h-1.79Zm0,2.59a15.93,15.93,0,0,0,.55-1.56h-2.25a6.16,6.16,0,0,1,.51,1.56l-.43.12h2.07Zm8.07-.79a12.68,12.68,0,0,1-1.47,4.24,6.29,6.29,0,0,0,1.94,1.55,4.79,4.79,0,0,0-.81,1A7.14,7.14,0,0,1,212,45.37a7.46,7.46,0,0,1-1.59,1.55,3.74,3.74,0,0,0-.66-.7v.69h-1.09V35.54h5.17V38c0,.56-.12.87-.57,1a6.53,6.53,0,0,1-2.07.17,3.82,3.82,0,0,0-.36-1c.74,0,1.43,0,1.63,0s.25-.05.25-.2V36.6h-3v3.33h3.44l.2-.05ZM209.78,46a6.54,6.54,0,0,0,1.55-1.56,13.42,13.42,0,0,1-1.55-3.51Zm1-5.07a11.2,11.2,0,0,0,1.16,2.5,10.46,10.46,0,0,0,.92-2.5Z"/><path d="M25.36,85.25a1.69,1.69,0,0,0-.6-.08,15.6,15.6,0,0,0-1.84,0q-1.4.08-1.92.08a2.71,2.71,0,0,1-.72-.08.92.92,0,0,1-.56-.28.45.45,0,0,1,0-.2.23.23,0,0,1,0-.16,3.32,3.32,0,0,1,0-.4q0-.36.08-1.16a14,14,0,0,0,.16-1.92.28.28,0,1,1,.56-.08v.08a.16.16,0,0,1,.12,0L22,81,24.94,81l3.22-.08q2.92,0,4.56,0,1,0,1.52,0a1.86,1.86,0,0,1,.44,0,.23.23,0,0,1,.16,0,.51.51,0,0,1,.24.12,1.6,1.6,0,0,1,.12.48v1.48q.08.72.12,1a2.26,2.26,0,0,1,0,.6.78.78,0,0,1-.16.56.92.92,0,0,1-.56.2,6.48,6.48,0,0,1-.8,0l-2-.16a18.27,18.27,0,0,0-2,0,3.07,3.07,0,0,0-.64.12c-.13.05-.2.11-.2.16a2.62,2.62,0,0,0,0,1q.16,1.08.16,1.2.12,3.48.12,15.36V104q0,.84,0,1.4a9.37,9.37,0,0,1-.08,1.36l-.12.48a.61.61,0,0,1-.36.4,1.86,1.86,0,0,1-.84,0,1.67,1.67,0,0,1-.4-.08l-.28,0h-.8a.62.62,0,0,1-.32-.16.26.26,0,0,1-.12-.16v-.08a.23.23,0,0,1,0-.16q0-.2,0-.6v-4.52q0-1.44-.16-8.84-.12-5.12-.12-5.36,0-1.16,0-1.76a2.77,2.77,0,0,0,0-.52v-.08A.23.23,0,0,0,25.36,85.25Zm9.24-3.72a1.41,1.41,0,0,0-.4,0q-.52,0-1.48,0-1.64,0-4.56,0l-3.22.08L22,81.59l-1.42,0a.16.16,0,0,1-.12,0q0,.32-.16,1.48-.08.8-.08,1.16a2.46,2.46,0,0,0,0,.36v0l.2.08a4,4,0,0,0,.64,0q.48,0,1.84-.08a17.18,17.18,0,0,1,1.92,0,2.71,2.71,0,0,1,.72.08A.79.79,0,0,1,26,85l0,.08v.2a2.67,2.67,0,0,1,0,.52q0,.64,0,1.76,0,.28.12,5.36.16,7.44.16,8.88v4.52a5.51,5.51,0,0,1,0,.56v0h.8a1.29,1.29,0,0,1,.32.08,2.55,2.55,0,0,1,.4.08l.52,0a.11.11,0,0,1,0-.08,2.58,2.58,0,0,0,.08-.36,8.07,8.07,0,0,0,.08-1.28q0-.56,0-1.4v-.88q0-11.88-.12-15.36,0-.08-.16-1.12a2.8,2.8,0,0,1,0-1.24.84.84,0,0,1,.56-.52,2.61,2.61,0,0,1,.8-.16,20,20,0,0,1,2.08,0l2,.16h.72l.24-.08v-.16a1.91,1.91,0,0,0,0-.56c0-.19-.07-.52-.12-1V81.53Z"/><path d="M42.12,97.09s0,.69-.08,2a19.51,19.51,0,0,0,0,2.52,4.38,4.38,0,0,0,.48,2,.94.94,0,0,0,1.12.52,3.65,3.65,0,0,0,2.56-1.8q1.16-1.88,1.44-8.16.08-1.4.14-4.64t.14-4.4q0-.16,0-2.68,0-1.16,0-1.64a3.05,3.05,0,0,1,0-.56V80a.43.43,0,0,1,.08-.12.88.88,0,0,1,.32-.12,1.51,1.51,0,0,1,.36,0q.36,0,.88,0l.92.08.32.08a1.23,1.23,0,0,1,.28.08.91.91,0,0,1,.32.56,4.38,4.38,0,0,1,.12.8q.08.8.08,2.2,0,.68-.12,3.76,0,1-.6,7,0,.56-.14,2.26t-.24,3.16a18.45,18.45,0,0,1-.46,2.74Q49,107.64,45,108.24a9.66,9.66,0,0,1-3.16,0,4.51,4.51,0,0,1-2.8-1.56,3.61,3.61,0,0,1-.28-.76,9.33,9.33,0,0,1-.2-1.2q-.2-1.44-.28-3.24a27.08,27.08,0,0,1,0-3.24A11.64,11.64,0,0,1,38.4,97a1.56,1.56,0,0,1,.32-.76.41.41,0,0,1,.52,0l.12.08a3.44,3.44,0,0,0,.74.08l.9,0,.76,0a.25.25,0,0,1,.28.28.24.24,0,0,1-.12.2A.28.28,0,0,1,42.12,97.09Zm6.48-16.8a2.41,2.41,0,0,0,0,.52q0,.52,0,1.64,0,2.52,0,2.76-.12,1.12-.16,4.34t-.12,4.66q-.28,6.4-1.52,8.44a4.44,4.44,0,0,1-3,2,1.47,1.47,0,0,1-1.72-.8,6,6,0,0,1-.52-2.24,20.44,20.44,0,0,1,0-2.6l.08-2a.27.27,0,0,1,.08-.2,16.58,16.58,0,0,1-2.36,0L39,96.77a2.58,2.58,0,0,0-.08.36,8.31,8.31,0,0,0-.12,1.12,30.86,30.86,0,0,0,0,3.16q.12,1.8.32,3.2a7.94,7.94,0,0,0,.2,1.16,1.17,1.17,0,0,0,.2.56A3.91,3.91,0,0,0,42,107.64a8.45,8.45,0,0,0,3,0q3.52-.52,4.68-5.36a20.38,20.38,0,0,0,.42-2.64q.14-1.44.26-3.12l.12-2.32q.56-6,.6-7,.12-3.08.12-3.76,0-1.32-.08-2.16a4,4,0,0,0-.12-.72.5.5,0,0,0-.08-.2.11.11,0,0,1-.08,0,1.14,1.14,0,0,1-.28,0l-.88-.08c-.32,0-.6,0-.84,0h-.2Z"/><path d="M68.68,79.21a2.51,2.51,0,0,1,.92.08.9.9,0,0,1,.68.48,5.63,5.63,0,0,1,.28,1.4q.08.84.16,2.12.08,1.84.08,3.68s0,.39,0,1.08v.08a4,4,0,0,0,.6-.68q.64-.84,1.56-2.24,1.2-1.84,2.44-4A1.22,1.22,0,0,0,75.5,81a5,5,0,0,1,.58-.88,1.34,1.34,0,0,1,.44-.2,2.88,2.88,0,0,1,.56-.12,12.62,12.62,0,0,1,1.48-.08,5.4,5.4,0,0,1,1.4.08,2.11,2.11,0,0,1,.52.12.44.44,0,0,1,.28.48,3.34,3.34,0,0,1-.44,1.08Q80,82,79.36,83q-.92,1.4-2.72,3.84L74,90.45l-.84,1.28-.24.36a.31.31,0,0,0,0,.12,3.3,3.3,0,0,0,.32.64,12.52,12.52,0,0,0,.72,1l.84,1,.6.76a46.91,46.91,0,0,1,2.44,4.12q1.8,3.4,2.24,4.16.24.44,1,1.56a18.26,18.26,0,0,1,1,1.6h0a.48.48,0,0,0,.08.12.4.4,0,0,1,.08.52.62.62,0,0,1-.44.2,1.92,1.92,0,0,1-.44,0l-.44,0H80.6l-.44,0a4,4,0,0,1-.68.08,5.93,5.93,0,0,1-.64,0,1.77,1.77,0,0,1-.6-.16.64.64,0,0,1-.2-.24,2.4,2.4,0,0,1-.28-.36,13.56,13.56,0,0,1-.8-1.16l-2.16-3.4Q72,98.29,71.36,97l-.32-.6L71,96.29a3,3,0,0,0,0,.56,30.2,30.2,0,0,0,.16,3.36q0,.12.16,1.48t.2,2.36q.12,1.52.16,2.32v1.08a1.29,1.29,0,0,1-.08.24,1.33,1.33,0,0,1-.84.44q-.44,0-1.12,0L68.44,108l-.76,0h0a.24.24,0,0,1-.32,0l-.32-.24a.35.35,0,0,1-.12-.24.36.36,0,0,1,0-.16q0-2,.14-8.76t0-10.44q0-1.08,0-2.68t.06-3a17.2,17.2,0,0,0-.22-2.6v0a.32.32,0,0,1,.16-.32A5.68,5.68,0,0,1,68.68,79.21Zm11.2,1.12a6.3,6.3,0,0,0-1.28,0,11.81,11.81,0,0,0-1.44.08l-.48.08-.2.08a2.71,2.71,0,0,0-.32.44l-.2.32-.12.28-2.44,4q-.92,1.32-1.6,2.24a7.21,7.21,0,0,1-.64.76,1.47,1.47,0,0,1-.56.44.28.28,0,0,1-.28-.08.45.45,0,0,1-.08-.12.35.35,0,0,0,0-.1.43.43,0,0,1,0-.14V88l0-1.08q0-1.8-.08-3.68Q70.08,82,70,81.21a4.3,4.3,0,0,0-.2-1.2.64.64,0,0,0-.36-.2,2.2,2.2,0,0,0-.76,0,6.26,6.26,0,0,0-1.2.2,19,19,0,0,1,.16,2.6q0,1.44-.08,3t0,2.56q.12,3.68,0,10.44t-.14,8.76l.16.12a.16.16,0,0,1,.12,0q.16,0,.8.08l1.08.08a9.42,9.42,0,0,0,1,0,1.62,1.62,0,0,0,.48-.16v-1q0-.76-.16-2.28-.08-1.08-.2-2.36t-.16-1.44a31.61,31.61,0,0,1-.16-3.48,3.55,3.55,0,0,1,.08-.84.33.33,0,0,1,.08-.24.36.36,0,0,1,.28-.24.28.28,0,0,1,.28.08l.16.16.28.4.32.64q.64,1.24,3.44,5.72l2.16,3.44L78.2,107a2.46,2.46,0,0,0,.24.32l.12.12a1.35,1.35,0,0,0,.32.08l.56,0a4.13,4.13,0,0,0,.64-.08l.52,0h.28l.44,0h.24a.12.12,0,0,1,0-.08q-.32-.52-1-1.52l-1-1.56-2.28-4.2q-1.48-2.72-2.4-4.08a9.26,9.26,0,0,0-.56-.76l-.84-1q-.48-.64-.76-1.08a2.38,2.38,0,0,1-.4-.88.94.94,0,0,1,.12-.4l.24-.44q.28-.44.88-1.28l2.64-3.6q2-2.72,2.72-3.84.6-.88,1-1.48a4.1,4.1,0,0,0,.32-.8Z"/><path d="M85.28,107.72a.26.26,0,0,1,.16-.24,16.77,16.77,0,0,1,.28-1.9q.2-1,.52-2.14t.44-1.8q.16-.76.32-2.16t.32-2.16q.36-1.88,1.24-5.4,1-3.92,1.24-5.32,0-.16.24-1.34t.36-2q.24-1.16.44-1.88a6.71,6.71,0,0,1,.24-.68,1.28,1.28,0,0,1,.24-.44A1.42,1.42,0,0,1,92,80h.32l.24,0q.48-.08,1-.12H94a.85.85,0,0,1,.52.2l.08.12v0a1.38,1.38,0,0,1,.08.2q.08.24.2.64l.68,2.28,2,6.84q2.64,9.48,3.08,11.2a44.87,44.87,0,0,0,1.88,5.8.45.45,0,0,1,.08.12.41.41,0,0,1,.08.48.24.24,0,0,1-.16.16l-.16.08-.4.08a6,6,0,0,1-1,.08,7.36,7.36,0,0,1-1.08,0,1.69,1.69,0,0,1-.4,0,1.34,1.34,0,0,1-.32-.08,1,1,0,0,1-.28-.4,3.23,3.23,0,0,1-.24-.52c0-.11-.08-.28-.16-.52a1.29,1.29,0,0,1-.08-.32A72.07,72.07,0,0,1,95.8,99q0-.08-.12-.92a1.44,1.44,0,0,0-.2-.68.59.59,0,0,0-.24-.08,7.61,7.61,0,0,0-1.8,0l-1.92.12L91,97.37h-.16a1.09,1.09,0,0,0-.24.44q-.16.44-.36,1.12-.24,1-.72,3.28-.52,2.52-.76,3.36a7.25,7.25,0,0,1-.72,2.12,1.21,1.21,0,0,1-.6.36,5.32,5.32,0,0,1-.72,0c-.19,0-.43,0-.72,0l-.24,0a.36.36,0,0,1-.16,0l-.12,0A.26.26,0,0,1,85.28,107.72ZM94,80.41h-.52q-.44,0-.88.12l-.3,0-.26,0a.6.6,0,0,0-.32.12.87.87,0,0,0-.12.24,2.61,2.61,0,0,0-.2.64q-.2.68-.44,1.84-.16.8-.36,2c-.13.79-.21,1.22-.24,1.3q-.36,1.76-1.24,5.4-.88,3.48-1.24,5.32-.12.68-.32,2.16t-.32,2.16q-.16.72-.46,1.86t-.5,2.08a15.69,15.69,0,0,0-.28,1.82h.12l.64,0a3.79,3.79,0,0,0,.6,0q.2,0,.24-.12a6.67,6.67,0,0,0,.68-1.92l.72-3.36q.48-2.28.76-3.28.2-.76.36-1.2a1.57,1.57,0,0,1,.44-.7.7.7,0,0,1,.6-.1l.36.08,1.88-.12a8.58,8.58,0,0,1,1.92,0,.92.92,0,0,1,.56.24,2.12,2.12,0,0,1,.36,1,4.33,4.33,0,0,0,.12.84A65.63,65.63,0,0,0,98.84,106a1.5,1.5,0,0,1,.16.4q.12.36.16.52a2.68,2.68,0,0,0,.16.44,1,1,0,0,0,.12.16h.08a1.45,1.45,0,0,0,.36,0,6.08,6.08,0,0,0,1,0,5.28,5.28,0,0,0,1-.08.45.45,0,0,0,.2,0,.63.63,0,0,1-.12-.16,54.89,54.89,0,0,1-1.88-5.8q-.52-2-3.08-11.2l-2-6.88-.64-2.24c-.08-.27-.15-.48-.2-.64a.3.3,0,0,1,0-.12A.35.35,0,0,1,94,80.41Zm-1.08,8.4a18,18,0,0,1,.8,1.68,9.19,9.19,0,0,0,.8,1.52.52.52,0,0,0,.08.12l.14.12.18.16a.86.86,0,0,1,.28.76.44.44,0,0,1-.52.24.17.17,0,0,1-.12,0h0l-.6.08q-.6.12-1,.16a3.94,3.94,0,0,1-1,0,.91.91,0,0,1-.72-.52.8.8,0,0,1,0-.36c0-.13.05-.29.08-.48l.32-1.32c.08-.24.17-.53.26-.88s.17-.63.22-.86.09-.38.12-.46.16-.27.32-.24a.26.26,0,0,1,.24.28ZM94,92.33a17.33,17.33,0,0,1-.84-1.64l-.56-1.24L92.2,91l-.32,1.28c0,.19-.05.33-.08.44v.12c0,.05.09.09.28.12a2.4,2.4,0,0,0,.8,0q.36,0,1-.16l.68-.08Z"/><path d="M116.88,103.58l-.06.26a.57.57,0,0,0,0,.12,7.58,7.58,0,0,1-2.36,4,4.59,4.59,0,0,1-4.52.32,6.23,6.23,0,0,1-2.48-1.72,7,7,0,0,1-1.52-2.64q-1-3.08-.08-10.52t2.4-10.16a7.32,7.32,0,0,1,2.14-2.46,5.91,5.91,0,0,1,3-1.14,4.82,4.82,0,0,1,3.22.92,6.19,6.19,0,0,1,1.76,2.16.24.24,0,0,1,.36.12,14.46,14.46,0,0,1,1.08,2.68,5.43,5.43,0,0,1,.2,1.6,1.26,1.26,0,0,1-.76,1.16,6.48,6.48,0,0,1-1.64.24,6.27,6.27,0,0,1-1,0l-.4-.08a.54.54,0,0,1-.36-.2,2.64,2.64,0,0,1-.32-1.16q-.16-1-.24-1.28a1.39,1.39,0,0,0-.52-.84,1.92,1.92,0,0,0-1.4-.16Q112,85,111,87.33a21.32,21.32,0,0,0-1.32,5.44,38.46,38.46,0,0,0-.32,6,11.75,11.75,0,0,0,.64,4,3,3,0,0,0,1.72,1.48,1.6,1.6,0,0,0,2-.32,6.82,6.82,0,0,0,1.12-3.44q0-.44-.2-.56a1.88,1.88,0,0,0-.92,0l-.6.1-.68.1a1.29,1.29,0,0,1-1.08-.24,1.15,1.15,0,0,1-.16-.52v-.6a3,3,0,0,0,0-.56c0-.21,0-.33,0-.36v-.28a3.52,3.52,0,0,1,0-.48,2.52,2.52,0,0,1,0-.48.7.7,0,0,1,.24-.48,1.24,1.24,0,0,1,.28-.08,1.5,1.5,0,0,1,.36,0q.4,0,1,0,1.28,0,3,.16t2.92.28a8.82,8.82,0,0,1,1,.16l.32.08c.16.05.25.13.28.24a5.28,5.28,0,0,1,.24,1.8q0,1-.08,2.84-.2,4.44-.12,5l0,.16.08.32a.83.83,0,0,1,0,.36.55.55,0,0,1-.12.4.27.27,0,0,1-.2.08.36.36,0,0,1-.16,0H120q-.52,0-1.16,0a11,11,0,0,1-1.16-.12l-.4-.08-.16,0a1.32,1.32,0,0,1-.2-.16,1.54,1.54,0,0,1-.12-.48v-.68q0-.2.12-1.76,0-.76,0-1.24Zm1.24-20.06-.32-.6c-.05-.11-.15-.28-.3-.52a3.84,3.84,0,0,0-.38-.54l-.4-.42a3.15,3.15,0,0,0-.48-.4,4.3,4.3,0,0,0-2.84-.84,5.23,5.23,0,0,0-2.68,1,6.94,6.94,0,0,0-2,2.26q-1.48,2.84-2.32,10t.08,10.28a6.41,6.41,0,0,0,1.38,2.42,5.37,5.37,0,0,0,2.22,1.54,4.08,4.08,0,0,0,4-.2,6.78,6.78,0,0,0,2.16-3.72l0-.16a2.42,2.42,0,0,0,.08-.36l.12-.4a3.63,3.63,0,0,1,.16-.6,1.12,1.12,0,0,0,0-.24l.08-.08v0a.38.38,0,0,1,.28-.12q.28,0,.4.44c0,.13.05.33.08.6s0,.93,0,1.68q-.12,1.56-.12,1.72v.64a.23.23,0,0,0,0,.16l0,0a1.23,1.23,0,0,0,.36,0,9.32,9.32,0,0,0,1.08.12q.64,0,1.12,0h.32V107c0-.08-.05-.17-.08-.28l0-.2q-.08-.6.12-5.08.08-1.84.08-2.84a4.53,4.53,0,0,0-.16-1.52l-.24,0c-.24-.05-.56-.11-1-.16q-1.2-.16-2.88-.28t-2.92-.16a9.69,9.69,0,0,0-1,0H112a.11.11,0,0,1-.08,0v.08a1.65,1.65,0,0,0,0,.4c0,.11,0,.25,0,.44s0,.29,0,.32,0,.19,0,.4a3.05,3.05,0,0,1,0,.56v.52a.23.23,0,0,0,0,.16c.08.08.28.11.6.08l.64-.1a5.6,5.6,0,0,1,.6-.06,2.2,2.2,0,0,1,1.24.08.94.94,0,0,1,.52,1.12,7,7,0,0,1-1.28,3.68,2.08,2.08,0,0,1-2.6.52,3.47,3.47,0,0,1-2-1.76,11.72,11.72,0,0,1-.72-4.24,39.14,39.14,0,0,1,.32-6,23.13,23.13,0,0,1,1.4-5.64q1.08-2.6,2.68-2.84a2.52,2.52,0,0,1,1.8.28,2.07,2.07,0,0,1,.76,1.16A11,11,0,0,1,116,87a4.91,4.91,0,0,0,.24.92h.08a.68.68,0,0,0,.28,0,5.11,5.11,0,0,0,.92,0,5.46,5.46,0,0,0,1.52-.24c.21-.08.33-.3.36-.66a4.43,4.43,0,0,0-.2-1.42,9.74,9.74,0,0,0-.48-1.4.29.29,0,0,1-.28-.16Q118.36,84,118.12,83.53Z"/><path d="M130,80.53h.2a4.5,4.5,0,0,1,1.8.6,4.8,4.8,0,0,1,1.4,1.3,13.66,13.66,0,0,1,1,1.48,15.87,15.87,0,0,1,.76,1.66q1.32,3.08.72,8.92a58.08,58.08,0,0,1-1.72,8.88,16.11,16.11,0,0,1-1.16,3q-1.12,2-2.4,2.08-3.36.16-5-4.16A24.18,24.18,0,0,1,124.28,95a32.62,32.62,0,0,1,1.52-9.6A14.83,14.83,0,0,1,127.4,82a3.74,3.74,0,0,1,2.08-1.72.29.29,0,0,1,.36.2v0Zm-2.12,1.76a13.52,13.52,0,0,0-1.52,3.28A32.89,32.89,0,0,0,124.84,95a23.62,23.62,0,0,0,1.2,9.08q1.48,3.92,4.48,3.8,1,0,1.88-1.8a13.93,13.93,0,0,0,1.12-2.92,58.7,58.7,0,0,0,1.72-8.8q.6-5.68-.64-8.6a15,15,0,0,0-1.9-3.3,3.82,3.82,0,0,0-2.62-1.42l-.6-.08a.63.63,0,0,0-.32.24c-.13.16-.27.19-.4.08l0,0A4.82,4.82,0,0,0,127.84,82.29Zm4.12,6.8a13.2,13.2,0,0,1,.4,4.16,23,23,0,0,1-.6,4.48,6.51,6.51,0,0,1-1.2,2.92,1.15,1.15,0,0,1-.62.34.79.79,0,0,1-.62-.14,2.13,2.13,0,0,1-.8-1,6.46,6.46,0,0,1-.72-2.4,22.65,22.65,0,0,1,1.76-10.16c.05-.16.17-.2.36-.12s.09,0,.12.12Q131.36,87.25,132,89.09Zm-3.6,8.24a6.21,6.21,0,0,0,.64,2.24,2.33,2.33,0,0,0,.6.84.76.76,0,0,0,.24,0,.71.71,0,0,0,.32-.2,6.32,6.32,0,0,0,1.08-2.64,23.63,23.63,0,0,0,.56-4.4,12,12,0,0,0-.4-4q-.48-1.52-1.48-1.44A21.52,21.52,0,0,0,128.36,97.33Z"/><path d="M149.24,88.53a.24.24,0,0,1-.36-.12l-.08-.12a.28.28,0,0,1-.24-.24.36.36,0,0,1,0-.16,3.55,3.55,0,0,0-1.38-1.3,2.47,2.47,0,0,0-1.54-.3,1.41,1.41,0,0,0-1.2.76,2.87,2.87,0,0,0,0,2.16A4.23,4.23,0,0,0,145.76,91q.28.28.92.84t.88.8A18.45,18.45,0,0,1,151,97.53,12.1,12.1,0,0,1,152.4,103q0,1,0,1.42a4.8,4.8,0,0,1-.26,1.16,3.45,3.45,0,0,1-.76,1.3,5.53,5.53,0,0,1-3.28,1.32,10.75,10.75,0,0,1-3.6,0,7,7,0,0,1-3.72-1.92,7.6,7.6,0,0,1-1.2-2.52,6,6,0,0,1-.36-1.52q0-.88.4-1.16a5.62,5.62,0,0,1,1-.44,4.37,4.37,0,0,1,.56-.24,1.7,1.7,0,0,1,.44-.08.71.71,0,0,1,.6.36,1,1,0,0,1,.12.24.7.7,0,0,1,.08.2q.16.28.4.8t.4.82a7.72,7.72,0,0,0,.42.68,3.53,3.53,0,0,0,.58.66,3,3,0,0,0,3,.82,2.69,2.69,0,0,0,1.86-2.42,3.47,3.47,0,0,0-.6-2.08,17.23,17.23,0,0,0-1.88-2.52l-1.4-1.6q-1-1.12-1.58-1.84a7.36,7.36,0,0,1-.86-1.28A13.25,13.25,0,0,1,141,86.65a5.59,5.59,0,0,1,.72-3.16,4.94,4.94,0,0,1,2.56-1.9,5.11,5.11,0,0,1,5.66,1.62,5.74,5.74,0,0,1,1.34,3.24,2.56,2.56,0,0,0,0,.26,2.21,2.21,0,0,1,0,.38,2.56,2.56,0,0,1,0,.4.76.76,0,0,1-.08.4.83.83,0,0,1-.56.32,2.66,2.66,0,0,1-.72.08h-.6A.26.26,0,0,1,149.24,88.53Zm1.56-1a1.67,1.67,0,0,0,0-.32,2.1,2.1,0,0,0,0-.38,2.46,2.46,0,0,1,0-.26,5,5,0,0,0-1.2-2.94A4.84,4.84,0,0,0,147.14,82a4.76,4.76,0,0,0-2.72.08,4.14,4.14,0,0,0-2.26,1.68,4.91,4.91,0,0,0-.64,2.84,13,13,0,0,0,1.68,6.2A7.73,7.73,0,0,0,144,94q.56.68,1.56,1.76l1.4,1.64a20.41,20.41,0,0,1,1.92,2.6,3.48,3.48,0,0,1-.08,4.28,3,3,0,0,1-1.48,1,3.63,3.63,0,0,1-3.6-1,3.77,3.77,0,0,1-.62-.72q-.3-.44-.48-.76t-.42-.86q-.24-.54-.36-.78s-.07-.07-.12-.2a.44.44,0,0,0-.08-.16c-.05-.08-.09-.12-.12-.12a1.17,1.17,0,0,0-.28.06,3.49,3.49,0,0,0-.52.22,5,5,0,0,0-.84.4q-.16.12-.16.64a6,6,0,0,0,.32,1.4,6.67,6.67,0,0,0,1.08,2.28,6.41,6.41,0,0,0,3.48,1.76,9.89,9.89,0,0,0,3.36.08,5.11,5.11,0,0,0,3-1.2,2.6,2.6,0,0,0,.64-1.06,4.17,4.17,0,0,0,.22-1q0-.42,0-1.38a11.59,11.59,0,0,0-1.34-5.2,17.85,17.85,0,0,0-3.34-4.68l-.84-.8q-.64-.56-.92-.84A5.25,5.25,0,0,1,144,89.37a3.34,3.34,0,0,1,0-2.56,1.9,1.9,0,0,1,1.6-1.08,3.22,3.22,0,0,1,1.92.4,4.1,4.1,0,0,1,1.64,1.6H150a3.79,3.79,0,0,0,.6,0l.2-.08Z"/><path d="M158.44,79.81q.76,0,1.24,0a1.69,1.69,0,0,1,.4,0,.45.45,0,0,1,.2,0,.5.5,0,0,1,.2.12,1,1,0,0,1,.12.4V81q0,.64,0,1.8,0,.48-.32,5.2-.2,3.48-.24,5.2a12.67,12.67,0,0,0,0,1.84,1.57,1.57,0,0,0,.08.56l0,.2h.12l.52-.08.68,0,.84,0h.8a.76.76,0,0,0,.4-.12h0a.61.61,0,0,0,0-.16l0-.08v-.24a.36.36,0,0,1,0-.16,83.45,83.45,0,0,1,.08-9.76,17.07,17.07,0,0,0-.12-2.16,6.29,6.29,0,0,1,.12-2.28.6.6,0,0,1,.36-.36,2.72,2.72,0,0,1,.44-.16,11.57,11.57,0,0,1,1.16-.12q.64,0,1.2,0a3,3,0,0,1,.84.2c.16.05.27.21.32.48a3.11,3.11,0,0,1,.12.68,14.71,14.71,0,0,1,0,2q0,1.32-.16,3.4,0,.52-.2,10.72-.08,4.16-.16,6.32-.08,1.4-.12,2.16,0,.44-.08.68a1.1,1.1,0,0,1-.12.44,1,1,0,0,1-.4.28l-.48.08a6,6,0,0,1-1.24,0,7.38,7.38,0,0,1-1.24-.16,1.58,1.58,0,0,1-.48-.12.54.54,0,0,1-.36-.24,1.07,1.07,0,0,1-.24-.68,6.27,6.27,0,0,1,0-1L163,103q.2-1.68.24-2.4a3.1,3.1,0,0,0-.08-.8l-.08-.24a2.09,2.09,0,0,0-.6,0l-.8,0a4.44,4.44,0,0,1-.52,0,3.26,3.26,0,0,1-.56-.08,2.3,2.3,0,0,0-.92.08,1.39,1.39,0,0,0-.08.2,6.76,6.76,0,0,0-.16.84q-.08.8-.12,2.6,0,2.16-.08,2.64a6.53,6.53,0,0,1-.12,1,2.78,2.78,0,0,1-.08.32.51.51,0,0,1-.24.28.9.9,0,0,1-.6,0l-.36-.08h-.28a3.52,3.52,0,0,1-.48,0,2.52,2.52,0,0,1-.48,0,.84.84,0,0,1-.44-.28,1.57,1.57,0,0,1-.08-.2v-.8q0-.64.08-1.76,0-.44,0-1.16t.06-1.14q0-.42,0-.58,0-10.32-.16-15.6,0-.56-.1-1.92t-.1-1.94q0-.58.08-2a.25.25,0,0,1,.32-.24.23.23,0,0,1,.16.08Q157.2,79.81,158.44,79.81Zm1.2.6q-.44,0-1.2,0-1.2,0-1.92,0,0,1.2,0,1.78t.1,1.82q.08,1.24.08,1.84.16,5.28.16,15.6,0,.16,0,.58t-.06,1.16q0,.74,0,1.18-.08,1.12-.08,1.72v.68a.16.16,0,0,0,.12,0,1,1,0,0,0,.32,0,3.19,3.19,0,0,0,.44,0h.32a3.6,3.6,0,0,1,.52.08l.16,0a1.22,1.22,0,0,0,.08-.24c0-.19.05-.48.08-.88s.05-1.19.08-2.6q0-1.84.12-2.64c.05-.4.11-.72.16-1a1.77,1.77,0,0,1,.16-.32.49.49,0,0,1,.28-.28,3.62,3.62,0,0,1,1.16-.08,3.3,3.3,0,0,0,.56.08l.48,0,.76,0a1.93,1.93,0,0,1,.88.08.81.81,0,0,1,.4.6,4.32,4.32,0,0,1,.08.92q0,.76-.24,2.48t-.28,2.48a4.64,4.64,0,0,0,0,.88,2.69,2.69,0,0,0,.08.44l.16,0a.93.93,0,0,0,.36.12q.52.08,1.16.12a5.28,5.28,0,0,0,1.16,0,.89.89,0,0,0,.4-.08l.08,0a.67.67,0,0,0,0-.2c0-.16.05-.37.08-.64q0-.76.12-2.12.08-2.2.16-6.36.16-10.2.2-10.76.16-1.88.16-3.32a13.38,13.38,0,0,0,0-1.88q0-.4-.08-.6a.43.43,0,0,0-.08-.16,1.88,1.88,0,0,0-.6-.12q-.56,0-1.16,0a7.93,7.93,0,0,0-1,.12.87.87,0,0,0-.32.12h0a5.21,5.21,0,0,0-.12,2.08,19.25,19.25,0,0,1,.12,2.28,81.53,81.53,0,0,0-.08,9.68.85.85,0,0,0,0,.18.88.88,0,0,1,0,.22.63.63,0,0,1-.16.64,1.29,1.29,0,0,1-.72.24,8.23,8.23,0,0,1-.88,0l-.88,0-.64,0h-.12l-.12,0a.36.36,0,0,1-.16,0,.63.63,0,0,1-.64-.16,1.37,1.37,0,0,1-.2-.48c0-.16-.05-.37-.08-.64a13.24,13.24,0,0,1,0-1.88q0-1.76.24-5.24.28-4.72.32-5.2,0-1.16,0-1.76v-.52l0-.12Zm-3,26.4v0Z"/><path d="M171.88,81.41q0-1.2,1.4-1.56a2.32,2.32,0,0,1,1,0,1.23,1.23,0,0,1,.8.28.61.61,0,0,1,.12.32,1.65,1.65,0,0,1,0,.4c0,.24,0,.57,0,1,0,.19,0,.43,0,.72s0,.54,0,.74,0,.37,0,.5v2.32q0,.52,0,2.2l.12,4.28q0,2.6,0,4.64.08,4.24,0,6.64,0,1.44,0,2.24c0,.29-.05.53-.08.72a1.1,1.1,0,0,1-.12.44.51.51,0,0,1-.2.12.17.17,0,0,1-.12,0,1.05,1.05,0,0,1-.32,0h-.8l-.8-.08-.32-.08a.55.55,0,0,1-.28-.12.5.5,0,0,1-.12-.24v-.16a3,3,0,0,1,0-.56q0-.56,0-1.52V103.6c0-.4,0-.73,0-1s0-.44,0-.52v-6.6q0-.76-.24-3.24a26.63,26.63,0,0,1-.16-3.28q0-.88.16-2.46t.16-2.42q0-.84,0-2.4A.28.28,0,0,1,171.88,81.41Zm.78,2.34q0,.86-.16,2.64T172.32,89a25.45,25.45,0,0,0,.16,3.24q.2,2.48.24,3.28v6.6c0,.08,0,.25,0,.52s0,.6,0,1,0,.76,0,1.08v1.52a2.16,2.16,0,0,0,0,.48v.08a.55.55,0,0,0,.24,0l.76.08h.76a.44.44,0,0,0,.2,0v-.12c0-.16.05-.39.08-.68q0-.8,0-2.2,0-2.4,0-6.64,0-2,0-4.6l-.12-4.32q0-1.68,0-2.2V83.77c0-.13,0-.3,0-.5s0-.45,0-.76,0-.55,0-.74q0-.64,0-1v-.32h0a.55.55,0,0,0-.4-.12,2.73,2.73,0,0,0-.8,0,1.19,1.19,0,0,0-.84.56.16.16,0,0,1,0,.12Q172.68,82.89,172.66,83.75Z"/><path d="M179.5,106.16q0-1,.06-2.14t.08-1.66q0-2.56,0-7.66t0-7.66-.32-3.48q-.16-1.32-.2-2v-.76a.55.55,0,0,1,0-.24.88.88,0,0,1,.12-.28,1.3,1.3,0,0,1,.84-.28l.42,0,.3,0,.4,0h.6a3.37,3.37,0,0,1,.56,0,1,1,0,0,1,.52.36,4.54,4.54,0,0,1,.4,1.28,10.68,10.68,0,0,0,.24,1.2q.16.48,1,3.2t1.4,4.08c0,.08.12.31.28.68l.12.24.08-.12q.2-.48.48-1.32.48-1.36,1.24-3.88l1.12-4,.4-1.32a1.55,1.55,0,0,1,.16-.4.16.16,0,0,1,0-.12.43.43,0,0,1,.08-.16,1.1,1.1,0,0,1,.56-.24,4.11,4.11,0,0,1,.64,0l.62,0,.46,0h.24l.4,0,.44,0h.28l.12.08a.52.52,0,0,1,.08.12.31.31,0,0,0,0,.12v.16a3,3,0,0,1,0,.56v1.6q0,.92-.08,2.64Q193.8,87,193.4,93q-.36,5.4-.36,8.2,0,.52,0,1.62t0,1.9a12.12,12.12,0,0,0,.14,1.56l0,.2.12.4c0,.19.05.33.08.44v.28a.23.23,0,0,1-.08.16.81.81,0,0,1-.68.2l-.2,0-.16,0h-.12l-.32,0a1658.33,1658.33,0,0,0-.8.08.75.75,0,0,1-.4-.08.68.68,0,0,1-.28-.32,1.45,1.45,0,0,1-.12-.44,9.53,9.53,0,0,1-.2-1.36q-.12-1.44-.12-3.92,0-1.68,0-2.8t0-2.36q0-1.24,0-1.36v-3l-.24.56L189,94.21a12.07,12.07,0,0,1-.76,1.24,2.18,2.18,0,0,1-.4.44.75.75,0,0,1-.48.2,3.33,3.33,0,0,1-2.84-1A7.35,7.35,0,0,1,183.8,94q-.48-1-.72-1.44a.3.3,0,0,0,0-.12,16.59,16.59,0,0,0,.12,1.76q.16,1.64.16,2.2,0,.24.08,2.3t.16,3.46q0,2.12.08,3.36,0,.76,0,1.2V107a1.3,1.3,0,0,1-.08.28,1,1,0,0,1-.64.52,3.8,3.8,0,0,1-.92.16c-.24,0-.55,0-.94.06l-.66,0a.44.44,0,0,1-.2,0,.11.11,0,0,0-.08,0,.26.26,0,0,1-.36-.2A7.43,7.43,0,0,1,179.5,106.16ZM193,80l-.4,0h-.28l-.46,0-.62,0a3,3,0,0,0-.56,0,.56.56,0,0,0-.24.08v0c0,.11-.07.24-.12.4l-.4,1.32-1.16,4q-.8,2.76-1.24,3.92a10,10,0,0,1-.52,1.36l-.2.4a.61.61,0,0,1-.32.28.45.45,0,0,1-.2,0,.11.11,0,0,1-.08,0s0,0,0-.06,0,0,0-.06a.42.42,0,0,1-.08-.16l-.2-.44q-.28-.56-.36-.68-.52-1.4-1.4-4.16l-1-3.2a11.35,11.35,0,0,1-.24-1.24,3.06,3.06,0,0,0-.32-1.08.25.25,0,0,0-.16-.12,2.27,2.27,0,0,0-.44,0h-.56l-.44,0h-.32a1.37,1.37,0,0,0-.8,0,.45.45,0,0,0,0,.2v.68q0,.72.2,2,.32,3.4.32,3.56,0,2.56,0,7.66t0,7.66q0,.56-.08,1.66t-.08,2a5.45,5.45,0,0,0,.2,1.54H181c.37,0,.67,0,.88,0a4.53,4.53,0,0,0,.8-.18.72.72,0,0,0,.36-.22v-.44c0-.27,0-.64,0-1.12q0-1.24-.08-3.36-.08-1.44-.16-3.5t-.08-2.3q0-.52-.16-2.12a14.33,14.33,0,0,1-.12-2.2v-.12a.67.67,0,0,1,0-.2.43.43,0,0,1,.32-.48.33.33,0,0,1,.28,0,.11.11,0,0,0,0,.08.49.49,0,0,1,.08.12l.2.32.12.28.08.12q.24.44.76,1.52a7.21,7.21,0,0,0,.6,1,2.76,2.76,0,0,0,2.4.76s.07,0,.12-.08l.32-.32a11.3,11.3,0,0,0,.68-1.16q.24-.4.68-1.36.4-.72.52-1l0-.08,0-.16.12-.2a.43.43,0,0,1,.4-.12l.16.16a.11.11,0,0,1,0,.08v.48a7.69,7.69,0,0,1,0,1.12v2.44q0,.12,0,1.36t0,2.36q0,1.12,0,2.8,0,2.48.12,3.88a8.13,8.13,0,0,0,.2,1.28,2.55,2.55,0,0,0,.08.36l0,0H191l.36,0,.38,0,.3,0,.6,0h.16a1.26,1.26,0,0,0-.08-.36c0-.11-.05-.24-.08-.4a1.65,1.65,0,0,1-.08-.28,12.11,12.11,0,0,1-.14-1.62q0-.86,0-2t0-1.58q0-2.84.36-8.24.4-6,.48-8.2,0-1.68.08-2.64V80.53a2.76,2.76,0,0,0,0-.52Z"/><path d="M197,107.72a.25.25,0,0,1,.16-.24,16.76,16.76,0,0,1,.28-1.9q.2-1,.52-2.14t.44-1.8q.16-.76.32-2.16t.32-2.16q.36-1.88,1.24-5.4,1-3.92,1.24-5.32,0-.16.24-1.34t.36-2q.24-1.16.44-1.88a6.46,6.46,0,0,1,.24-.68,1.28,1.28,0,0,1,.24-.44,1.41,1.41,0,0,1,.64-.28H204l.24,0c.32-.05.64-.09,1-.12h.56a.85.85,0,0,1,.52.2l.08.12v0a1.64,1.64,0,0,1,.08.2c.05.16.12.37.2.64l.68,2.28,2,6.84q2.64,9.48,3.08,11.2a44.72,44.72,0,0,0,1.88,5.8.45.45,0,0,1,.08.12.41.41,0,0,1,.08.48.24.24,0,0,1-.16.16L214,108l-.4.08a5.94,5.94,0,0,1-1,.08,7.35,7.35,0,0,1-1.08,0,1.7,1.7,0,0,1-.4,0,1.31,1.31,0,0,1-.32-.08,1,1,0,0,1-.28-.4,3.23,3.23,0,0,1-.24-.52c0-.11-.08-.28-.16-.52a1.34,1.34,0,0,1-.08-.32A72.56,72.56,0,0,1,207.48,99q0-.08-.12-.92a1.44,1.44,0,0,0-.2-.68.6.6,0,0,0-.24-.08,7.61,7.61,0,0,0-1.8,0l-1.92.12-.48-.08h-.16a1.12,1.12,0,0,0-.24.44q-.16.44-.36,1.12-.24,1-.72,3.28-.52,2.52-.76,3.36a7.21,7.21,0,0,1-.72,2.12,1.2,1.2,0,0,1-.6.36,5.31,5.31,0,0,1-.72,0q-.28,0-.72,0l-.24,0a.36.36,0,0,1-.16,0l-.12,0A.26.26,0,0,1,197,107.72Zm8.72-27.32h-.52c-.29,0-.59.07-.88.12l-.3,0-.26,0a.61.61,0,0,0-.32.12.93.93,0,0,0-.12.24,2.57,2.57,0,0,0-.2.64q-.2.68-.44,1.84-.16.8-.36,2t-.24,1.3q-.36,1.76-1.24,5.4-.88,3.48-1.24,5.32-.12.68-.32,2.16t-.32,2.16q-.16.72-.46,1.86t-.5,2.08a15.28,15.28,0,0,0-.28,1.82h.12q.4,0,.64,0a3.77,3.77,0,0,0,.6,0q.2,0,.24-.12a6.67,6.67,0,0,0,.68-1.92l.72-3.36q.48-2.28.76-3.28.2-.76.36-1.2a1.58,1.58,0,0,1,.44-.7.7.7,0,0,1,.6-.1l.36.08,1.88-.12a8.59,8.59,0,0,1,1.92,0,.92.92,0,0,1,.56.24,2.12,2.12,0,0,1,.36,1,4.15,4.15,0,0,0,.12.84,65.43,65.43,0,0,0,2.48,7.16,1.56,1.56,0,0,1,.16.4q.12.36.16.52a2.77,2.77,0,0,0,.16.44l.12.16h.08a1.45,1.45,0,0,0,.36,0,6.07,6.07,0,0,0,1,0,5.28,5.28,0,0,0,1-.08.45.45,0,0,0,.2,0,.63.63,0,0,1-.12-.16,55.12,55.12,0,0,1-1.88-5.8q-.52-2-3.08-11.2l-2-6.88-.64-2.24q-.12-.4-.2-.64a.31.31,0,0,1,0-.12A.34.34,0,0,1,205.68,80.41Zm-1.08,8.4a18,18,0,0,1,.8,1.68,9,9,0,0,0,.8,1.52.49.49,0,0,0,.08.12l.14.12.18.16a.86.86,0,0,1,.28.76.44.44,0,0,1-.52.24.16.16,0,0,1-.12,0h0l-.6.08q-.6.12-1,.16a3.93,3.93,0,0,1-1,0,.91.91,0,0,1-.72-.52.78.78,0,0,1,0-.36c0-.13.05-.29.08-.48l.32-1.32q.12-.36.26-.88t.22-.86q.08-.34.12-.46c.05-.19.16-.27.32-.24a.26.26,0,0,1,.24.28Zm1.12,3.52a17.33,17.33,0,0,1-.84-1.64l-.56-1.24-.44,1.6-.32,1.28c0,.19-.05.33-.08.44v.12c0,.05.09.09.28.12a2.4,2.4,0,0,0,.8,0c.24,0,.56-.08,1-.16l.68-.08Z"/><path d="M234.08,103.8H235l2.64-.2,2.76-.16c.45,0,.81,0,1.08,0a2.19,2.19,0,0,1,.76.16.68.68,0,0,1,.28.32,2.12,2.12,0,0,1,.12.44,8.81,8.81,0,0,1,.1,1.14,6,6,0,0,1-.06,1.14,2.22,2.22,0,0,1-.12.44.68.68,0,0,1-.28.32,1.56,1.56,0,0,1-.72.16l-1.24.08q-1.28,0-3.44,0-1.4,0-3.48,0l-2.36,0a.26.26,0,0,1-.28-.24.17.17,0,0,1-.12,0,.25.25,0,0,1-.28-.28q0-.88.2-4.24.16-2.64.12-4.16,0-2.28-.16-5.76-.16-3.92-.24-6.94t-.08-5.78v-.16a.26.26,0,0,1,.24-.28.39.39,0,0,1,.2-.16,1.81,1.81,0,0,1,.56-.12,8.7,8.7,0,0,1,.92,0q.92,0,2.52,0,2.76,0,4.16.08l.26,0,.48,0,.54,0,.76,0a1.06,1.06,0,0,1,.64.2.26.26,0,0,1,.12.12v.08a.23.23,0,0,1,0,.16,2.55,2.55,0,0,0,0,.4,10.36,10.36,0,0,1,0,1.28,7.74,7.74,0,0,1-.08,1.24,4.36,4.36,0,0,1-.08.48.63.63,0,0,1-.32.4,5.25,5.25,0,0,1-1.68.12l-2.44-.16q-1.84-.12-2.28-.12a3.1,3.1,0,0,0-.8.08.9.9,0,0,0-.28,0v.08a4.11,4.11,0,0,1,0,.48q0,.52,0,1.48,0,.48-.06,1c0,.37,0,.7,0,1s0,.43,0,.46,0,.26,0,.54,0,.61-.06,1,0,.73,0,1.08q0,.92,0,1.48a2.69,2.69,0,0,0,0,.52V93a1.35,1.35,0,0,0,.6.08l1.28-.12a4.28,4.28,0,0,1,1.28,0,.86.86,0,0,1,.84.76,8.74,8.74,0,0,1,.08,1.24,3.64,3.64,0,0,1,0,.76,1.05,1.05,0,0,1,0,.32.88.88,0,0,1-.12.28.7.7,0,0,1-.4.16,2.51,2.51,0,0,1-.48,0,8.94,8.94,0,0,1-1.24-.12,4.91,4.91,0,0,1-.58-.06,4.86,4.86,0,0,0-.62-.06l-.36,0v.16a5.51,5.51,0,0,0,0,.56c0,.11.05.25.08.42s.05.32.08.44a1.46,1.46,0,0,1,0,.3v3.12l0,1.92v.64A.56.56,0,0,0,234.08,103.8ZM240.84,80c-.19,0-.43,0-.72,0l-.5,0-.52,0-.3,0q-1.44-.08-4.16-.08-1.56,0-2.52,0a6.82,6.82,0,0,0-.86,0l-.38,0,0,.08v0l-.08.08q0,2.76.08,5.76t.24,6.88q.12,3.48.16,5.76,0,1.56-.12,4.2-.2,3.36-.2,4.16a.17.17,0,0,1,.12,0l2.4,0q2.08,0,3.44,0,2.16,0,3.44,0l1.16-.08A3,3,0,0,0,242,107a0,0,0,0,1,0,0,2.43,2.43,0,0,0,.08-.36,4.47,4.47,0,0,0,.06-1,7.22,7.22,0,0,0-.1-1,2.83,2.83,0,0,0-.08-.32.12.12,0,0,0,0-.08,1.68,1.68,0,0,0-.52-.12h-1l-2.76.16-2.68.2h-1a1,1,0,0,1-.64-.2l-.12-.12v-.92q0-.28,0-.92t0-1V98.09a1.62,1.62,0,0,0,0-.22c0-.09,0-.22-.06-.38l-.12-.44q0-.44,0-.68a1,1,0,0,1,.16-.6.33.33,0,0,1,.24-.08.23.23,0,0,1,.16,0,2.55,2.55,0,0,1,.4,0,6.42,6.42,0,0,0,.64.08l.56,0a8.87,8.87,0,0,0,1.2.12,1.71,1.71,0,0,0,.4,0h.08v-.24a2.8,2.8,0,0,0,0-.68,8.05,8.05,0,0,0-.08-1.2c0-.16-.15-.26-.38-.3a4.79,4.79,0,0,0-1.14,0q-1.16.16-1.32.16-.8,0-1-.32a.29.29,0,0,1-.12-.2v-.2a2.77,2.77,0,0,1,0-.52q0-.6,0-1.56c0-.32,0-.67,0-1.06s0-.72.06-1,0-.45,0-.5,0-.22,0-.5,0-.61,0-1,0-.72.06-1q0-1,0-1.48a4.45,4.45,0,0,0,0-.52.36.36,0,0,0,0-.16v-.08a.43.43,0,0,1,.08-.12,1.46,1.46,0,0,1,.64-.24,3.55,3.55,0,0,1,.84-.08q.52,0,2.36.12l2.4.16a8.13,8.13,0,0,0,1.44-.08,0,0,0,0,1,0,0,1.41,1.41,0,0,0,0-.4,7.09,7.09,0,0,0,.08-1.2,9.1,9.1,0,0,0,0-1.2,2.44,2.44,0,0,1,0-.4A.55.55,0,0,0,240.84,80Zm.32,0h-.08A0,0,0,0,0,241.16,80Z"/><path d="M253.42,98.39a1.43,1.43,0,0,1,.06-.26V98q.28-1.36,1-4.2t2-7.24q.76-2.72,1.28-4.36l.52-1.48.2-.48a.86.86,0,0,1,.24-.28.36.36,0,0,1,.32-.12.81.81,0,0,1,.36,0,6.71,6.71,0,0,1,.92.08q1,.12,1.52.24l.08,0H262a.5.5,0,0,1,.36.28.3.3,0,0,1,0,.12v.2a2.71,2.71,0,0,0-.08.36q-.12.44-.32,1.24L261,86,259.36,92l-2.72,8.52q-1.08,3.28-1.76,5.16a16.69,16.69,0,0,1-.64,1.68l-.2.52a.61.61,0,0,0-.12.16.39.39,0,0,1-.2.16,2.16,2.16,0,0,1-.6,0,4.56,4.56,0,0,1-.8-.08l-.8-.16a1.9,1.9,0,0,1-.56-.24,3,3,0,0,1-.52-1.08q-.2-.6-.44-1.64-.08-.4-.4-1.72-.2-.88-.28-1.12a90,90,0,0,1-2.2-10.64q-1.2-7.4-2.08-10.6a.26.26,0,0,1,0-.24.21.21,0,0,1-.24-.16q-.12-.28.12-.36a4.25,4.25,0,0,1,.88-.16,10,10,0,0,1,1.32-.08q.8,0,1.32,0a2.77,2.77,0,0,1,.52,0,.69.69,0,0,1,.4.16l.08.12v0a.16.16,0,0,1,0,.12l.12.44q.12.56.36,1.52l1,4.64q1.36,6.48,1.52,7.52.28,1.92.44,2.64a10.05,10.05,0,0,0,.4,1.48v.08A1.47,1.47,0,0,0,253.42,98.39Zm-5.74-7a88,88,0,0,0,2.2,10.6,10.35,10.35,0,0,1,.28,1.16q.28,1.32.36,1.72l.44,1.6a2.13,2.13,0,0,0,.4.84,1.12,1.12,0,0,0,.32.12,4.13,4.13,0,0,0,.72.12,3.92,3.92,0,0,0,.76.08l.32,0a.11.11,0,0,0,0-.08l.24-.44q.24-.6.6-1.68.68-1.84,1.76-5.12l2.68-8.52q.48-1.48,1.68-5.88l1-3.64.32-1.2a1.23,1.23,0,0,1,.08-.28.12.12,0,0,1-.08,0h-.16a13.16,13.16,0,0,0-1.44-.24,6,6,0,0,0-.88-.08.5.5,0,0,0-.28,0h0a.17.17,0,0,0,0,.12l-.2.4-.52,1.48q-.52,1.6-1.28,4.28-1.28,4.52-2,7.28t-1,4.12a.9.9,0,0,1,0,.14c0,.07,0,.15,0,.26a1.52,1.52,0,0,1-.06.28,2.44,2.44,0,0,1-.08.4l0,.2-.08.08a.31.31,0,0,1-.28.12.58.58,0,0,1-.4-.32,2.88,2.88,0,0,1-.24-.56q-.16-.56-.36-1.52T252,94.53q-.16-1-1.52-7.52l-1-4.6q-.24-1-.36-1.48c0-.19-.05-.33-.08-.44v0h-.08a1.91,1.91,0,0,0-.44,0q-.52,0-1.28,0a10.12,10.12,0,0,0-1.32.08,1.7,1.7,0,0,0-.4,0,.61.61,0,0,1,.12.16Q246.48,84,247.68,91.37Z"/><path d="M270.12,103.8H271l2.64-.2,2.76-.16q.68,0,1.08,0a2.19,2.19,0,0,1,.76.16.68.68,0,0,1,.28.32,2.06,2.06,0,0,1,.12.44,8.62,8.62,0,0,1,.1,1.14,6,6,0,0,1-.06,1.14,2.1,2.1,0,0,1-.12.44.68.68,0,0,1-.28.32,1.57,1.57,0,0,1-.72.16l-1.24.08q-1.28,0-3.44,0-1.4,0-3.48,0l-2.36,0a.26.26,0,0,1-.28-.24.16.16,0,0,1-.12,0,.25.25,0,0,1-.28-.28q0-.88.2-4.24.16-2.64.12-4.16,0-2.28-.16-5.76Q266.4,89,266.32,86t-.08-5.78v-.16a.26.26,0,0,1,.24-.28.38.38,0,0,1,.2-.16,1.82,1.82,0,0,1,.56-.12,8.68,8.68,0,0,1,.92,0q.92,0,2.52,0,2.76,0,4.16.08l.26,0,.48,0,.54,0,.76,0a1.06,1.06,0,0,1,.64.2.26.26,0,0,1,.12.12v.08a.23.23,0,0,1,0,.16,2.55,2.55,0,0,0,0,.4,10,10,0,0,1,0,1.28,7.74,7.74,0,0,1-.08,1.24,4.41,4.41,0,0,1-.08.48.63.63,0,0,1-.32.4,5.25,5.25,0,0,1-1.68.12l-2.44-.16q-1.84-.12-2.28-.12a3.1,3.1,0,0,0-.8.08.89.89,0,0,0-.28,0v.08a4.34,4.34,0,0,1,0,.48q0,.52,0,1.48,0,.48-.06,1t0,1c0,.28,0,.43,0,.46s0,.26,0,.54,0,.61-.06,1,0,.73,0,1.08q0,.92,0,1.48a2.77,2.77,0,0,0,0,.52V93a1.36,1.36,0,0,0,.6.08l1.28-.12a4.27,4.27,0,0,1,1.28,0,.86.86,0,0,1,.84.76,8.74,8.74,0,0,1,.08,1.24,3.51,3.51,0,0,1,0,.76,1,1,0,0,1,0,.32.88.88,0,0,1-.12.28.7.7,0,0,1-.4.16,2.51,2.51,0,0,1-.48,0,8.92,8.92,0,0,1-1.24-.12,4.94,4.94,0,0,1-.58-.06,4.85,4.85,0,0,0-.62-.06l-.36,0v.16a5.24,5.24,0,0,0,0,.56c0,.11.05.25.08.42s.05.32.08.44a1.46,1.46,0,0,1,0,.3v3.12l0,1.92v.64A.56.56,0,0,0,270.12,103.8ZM276.88,80c-.19,0-.43,0-.72,0l-.5,0-.52,0-.3,0Q273.4,80,270.68,80q-1.56,0-2.52,0a6.84,6.84,0,0,0-.86,0l-.38,0,0,.08v0l-.08.08q0,2.76.08,5.76t.24,6.88q.12,3.48.16,5.76,0,1.56-.12,4.2-.2,3.36-.2,4.16a.16.16,0,0,1,.12,0l2.4,0q2.08,0,3.44,0,2.16,0,3.44,0l1.16-.08A3,3,0,0,0,278,107a0,0,0,0,1,0,0,2.57,2.57,0,0,0,.08-.36,4.48,4.48,0,0,0,.06-1,7.1,7.1,0,0,0-.1-1,2.81,2.81,0,0,0-.08-.32.12.12,0,0,0,0-.08,1.67,1.67,0,0,0-.52-.12h-1l-2.76.16-2.68.2h-1a1,1,0,0,1-.64-.2l-.12-.12v-.92q0-.28,0-.92t0-1V98.09a1.76,1.76,0,0,0,0-.22c0-.09,0-.22-.06-.38l-.12-.44q0-.44,0-.68a1,1,0,0,1,.16-.6.33.33,0,0,1,.24-.08.23.23,0,0,1,.16,0,2.54,2.54,0,0,1,.4,0,6.45,6.45,0,0,0,.64.08l.56,0a8.87,8.87,0,0,0,1.2.12,1.7,1.7,0,0,0,.4,0H273v-.24a2.91,2.91,0,0,0,0-.68,7.91,7.91,0,0,0-.08-1.2q0-.24-.38-.3a4.78,4.78,0,0,0-1.14,0q-1.16.16-1.32.16-.8,0-1-.32a.28.28,0,0,1-.12-.2v-.2a2.69,2.69,0,0,1,0-.52q0-.6,0-1.56c0-.32,0-.67,0-1.06s0-.72.06-1,0-.45,0-.5,0-.22,0-.5,0-.61,0-1,0-.72.06-1q0-1,0-1.48a4.25,4.25,0,0,0,0-.52.34.34,0,0,0,0-.16v-.08a.48.48,0,0,1,.08-.12,1.47,1.47,0,0,1,.64-.24,3.56,3.56,0,0,1,.84-.08q.52,0,2.36.12l2.4.16a8.11,8.11,0,0,0,1.44-.08,0,0,0,0,1,0,0,1.41,1.41,0,0,0,0-.4,7,7,0,0,0,.08-1.2,9.1,9.1,0,0,0,0-1.2,2.55,2.55,0,0,1,0-.4A.55.55,0,0,0,276.88,80Zm.32,0h-.08A.05.05,0,0,0,277.2,80Z"/><path d="M282.92,104.2q.08-3.28.08-3.76t-.24-5.56q-.24-5-.24-7.6,0-.6,0-1.7t0-1.42a26,26,0,0,0-.08-3v0a.32.32,0,0,1,0-.12.51.51,0,0,1,.08-.48.45.45,0,0,1,.16-.08l.16-.08a3.19,3.19,0,0,0,.44,0l1.12-.08q.68,0,1.16,0l.44.08a.44.44,0,0,1,.36.2,3.51,3.51,0,0,1,.52.92q.28.64.68,1.72.68,1.76,1.72,4.76,2,5.72,2.68,8.2t1.4,4.2v-.4q0-2.36,0-3,0-3.68-.56-16a1.67,1.67,0,0,0,0-.18.73.73,0,0,0-.06-.22.83.83,0,0,1,.16-.64l.16-.08h0a.36.36,0,0,0,.16,0h.4q.48,0,1.2,0H296a1.42,1.42,0,0,1,.4,0h.2a.16.16,0,0,1,.12,0,.61.61,0,0,1,.12.16v.12a.44.44,0,0,1,0,.2q0,.24,0,.72,0,.8.08,2.12,0,.6.06,1.48t0,1.36c0,.32,0,.53,0,.64q.08,1,.24,11l.08,6.8q0,1.32,0,2.2v.88a.11.11,0,0,1,0,.08.62.62,0,0,1-.36.32,4.16,4.16,0,0,1-.52.16,10.82,10.82,0,0,1-1.4.08,7.71,7.71,0,0,1-1.48-.2,1.77,1.77,0,0,1-1-.6q-.36-.52-3.44-6.88l-1.92-4-.44-1a.64.64,0,0,0,0,.2V96l0,0v0a29.86,29.86,0,0,1,.28,3.64q0,.36.12,1.76.12,2,.16,2.72a22.12,22.12,0,0,1,.08,2.48,6.53,6.53,0,0,1,0,.84,2.78,2.78,0,0,1-.08.32.48.48,0,0,1-.28.28,6.14,6.14,0,0,1-1.76.2c-.19,0-.47,0-.86-.06l-.86,0a.36.36,0,0,1-.16,0,.17.17,0,0,1-.12,0q-.24,0-.32-.24A17.32,17.32,0,0,1,282.92,104.2ZM283,81a28.33,28.33,0,0,1,.08,3.16q0,.28,0,1.38t0,1.7q0,2.6.24,7.6t.24,5.56q0,.48-.08,3.76a16.19,16.19,0,0,0,.16,3.44h.08l.86,0c.39,0,.67,0,.86.06l.44,0,.44,0a.89.89,0,0,0,.36,0,1.15,1.15,0,0,0,.36-.18c-.05,0-.08,0-.08,0a.62.62,0,0,1,0-.16,5.7,5.7,0,0,0,0-.76,22.12,22.12,0,0,0-.08-2.48l-.16-2.68q-.12-1.44-.12-1.8a28.74,28.74,0,0,0-.28-3.56v0l0-.2a1.92,1.92,0,0,1-.08-.52,1.23,1.23,0,0,1,0-.52.39.39,0,0,1,.08-.28.32.32,0,0,1,.36-.2.23.23,0,0,1,.16.08.11.11,0,0,1,0,.08l.12.12a1.74,1.74,0,0,0,.2.36l.64,1.28,1.92,4q3,6.24,3.4,6.8a1.13,1.13,0,0,0,.72.36,6,6,0,0,0,1.32.2,8.56,8.56,0,0,0,1.28-.08,1,1,0,0,0,.4-.12l.08,0v-.72q0-.84,0-2.2l-.08-6.76q-.16-10-.24-11.08c0-.08,0-.28,0-.6s0-.78,0-1.38,0-1.09-.06-1.46q0-1.4-.08-2.12c0-.29,0-.52,0-.68v-.08h-1.56q-.68,0-1.16,0h-.4v.12l0,.12v.16a.64.64,0,0,1,0,.2q.56,12.32.56,16,0,.6,0,3v2a.12.12,0,0,1,0,.08.5.5,0,0,1-.08.12.43.43,0,0,1-.22,0,.35.35,0,0,1-.18-.1.48.48,0,0,1-.08-.12l0-.2q-.12-.44-.32-1a39.83,39.83,0,0,1-1.56-4.52q-.72-2.52-2.64-8.2-1-2.72-1.72-4.72-.44-1.12-.68-1.68a3.52,3.52,0,0,0-.4-.8.12.12,0,0,1-.08,0l-.36,0c-.29,0-.65,0-1.08,0l-1.12.08a1,1,0,0,0-.32,0A.62.62,0,0,1,283,81Z"/><path d="M306,85.25a1.69,1.69,0,0,0-.6-.08,15.6,15.6,0,0,0-1.84,0q-1.4.08-1.92.08a2.71,2.71,0,0,1-.72-.08.92.92,0,0,1-.56-.28.45.45,0,0,1,0-.2.23.23,0,0,1,0-.16,3.32,3.32,0,0,1,0-.4q0-.36.08-1.16a14,14,0,0,0,.16-1.92.28.28,0,1,1,.56-.08v.08a.16.16,0,0,1,.12,0l1.42,0,2.92-.06,3.22-.08q2.92,0,4.56,0,1,0,1.52,0a1.86,1.86,0,0,1,.44,0,.23.23,0,0,1,.16,0,.51.51,0,0,1,.24.12,1.6,1.6,0,0,1,.12.48v1.48q.08.72.12,1a2.26,2.26,0,0,1,0,.6.78.78,0,0,1-.16.56.92.92,0,0,1-.56.2,6.48,6.48,0,0,1-.8,0l-2-.16a18.27,18.27,0,0,0-2,0,3.07,3.07,0,0,0-.64.12c-.13.05-.2.11-.2.16a2.62,2.62,0,0,0,0,1q.16,1.08.16,1.2.12,3.48.12,15.36V104q0,.84,0,1.4a9.37,9.37,0,0,1-.08,1.36l-.12.48a.61.61,0,0,1-.36.4,1.86,1.86,0,0,1-.84,0,1.67,1.67,0,0,1-.4-.08l-.28,0h-.8a.62.62,0,0,1-.32-.16.26.26,0,0,1-.12-.16v-.08a.23.23,0,0,1,0-.16q0-.2,0-.6v-4.52q0-1.44-.16-8.84-.12-5.12-.12-5.36,0-1.16,0-1.76a2.77,2.77,0,0,0,0-.52v-.08A.23.23,0,0,0,306,85.25Zm9.24-3.72a1.41,1.41,0,0,0-.4,0q-.52,0-1.48,0-1.64,0-4.56,0l-3.22.08-2.92.06-1.42,0a.16.16,0,0,1-.12,0q0,.32-.16,1.48-.08.8-.08,1.16a2.46,2.46,0,0,0,0,.36v0l.2.08a4,4,0,0,0,.64,0q.48,0,1.84-.08a17.18,17.18,0,0,1,1.92,0,2.71,2.71,0,0,1,.72.08.79.79,0,0,1,.52.36l0,.08v.2a2.67,2.67,0,0,1,0,.52q0,.64,0,1.76,0,.28.12,5.36.16,7.44.16,8.88v4.52a5.51,5.51,0,0,1,0,.56v0h.8a1.29,1.29,0,0,1,.32.08,2.55,2.55,0,0,1,.4.08l.52,0a.11.11,0,0,1,0-.08,2.58,2.58,0,0,0,.08-.36,8.07,8.07,0,0,0,.08-1.28q0-.56,0-1.4v-.88q0-11.88-.12-15.36,0-.08-.16-1.12a2.8,2.8,0,0,1,0-1.24.84.84,0,0,1,.56-.52,2.61,2.61,0,0,1,.8-.16,20,20,0,0,1,2.08,0l2,.16h.72l.24-.08v-.16a1.91,1.91,0,0,0,0-.56c0-.19-.07-.52-.12-1V81.53Z"/></g><g id="コンテンツ-2" data-name="コンテンツ"><path class="cls-4" d="M13.79,45.16a1.8,1.8,0,0,0-1.45,0A.8.8,0,1,0,13.79,45.16Z"/><path class="cls-4" d="M20.45,55.29c-.39,1.3,1.17,1.41,1.74.87C22.35,55.12,21.33,55.28,20.45,55.29Z"/><path class="cls-4" d="M3.37,56.44c-.15,1.33,1,1.17,1.74.87C5.14,56.42,4.24,56.45,3.37,56.44Z"/><path class="cls-4" d="M13.5,64.26c-.82-.24-.75.41-1.45.29-.36,1.64,1.64,1.27,1.74.29C13.57,64.77,13.46,64.59,13.5,64.26Z"/><path class="cls-4" d="M16.67,54.92a5.19,5.19,0,0,1-.77.2l-.38-.25c-.91-.59-1.77-1.16-1.81-2.2l.08,0c-.55-1.38.46-2.85,0-4.05-.37,0-.4-.37-.87-.29-.52,1.12-.47,2.82-.87,4.05l0,.05a.4.4,0,0,0-.26.24,5.38,5.38,0,0,1-1.56,2,10.47,10.47,0,0,0-1.12,1.19,2.86,2.86,0,0,0-1.7.86c.71.23,1.12.76,2,.86a3.15,3.15,0,0,1,1.8,2v0a1.55,1.55,0,0,0,.27.6c0,.92-.29,2.21.87,2,.59-.28.62-1.11.58-2l-.1-.08,0,0A32.8,32.8,0,0,1,16,56.19a6,6,0,0,0,1-.24Zm-4.33,4.42H12A4,4,0,0,0,9.7,56.77l0,0v-.32a9.26,9.26,0,0,1,1.07-1.14,6.67,6.67,0,0,0,1.64-2c.17,0,.26-.17.4-.24A4.05,4.05,0,0,0,15,55.6l.22.15A33.93,33.93,0,0,0,12.34,59.34Z"/><path class="cls-4" d="M327.89,42.82a1.8,1.8,0,0,0-1.45,0A.8.8,0,1,0,327.89,42.82Z"/><path class="cls-4" d="M334.54,52.95c-.39,1.3,1.17,1.41,1.74.87C336.45,52.78,335.42,52.94,334.54,52.95Z"/><path class="cls-4" d="M317.47,54.11c-.15,1.33,1,1.17,1.74.87C319.23,54.08,318.33,54.11,317.47,54.11Z"/><path class="cls-4" d="M327.6,61.92c-.82-.24-.75.41-1.45.29-.36,1.64,1.64,1.27,1.74.29C327.66,62.43,327.55,62.26,327.6,61.92Z"/><path class="cls-4" d="M330.76,52.58a5.19,5.19,0,0,1-.77.2l-.38-.25c-.91-.59-1.77-1.16-1.81-2.2l.08,0c-.55-1.38.46-2.85,0-4.05-.37,0-.4-.37-.87-.29-.52,1.12-.47,2.82-.87,4.05l0,.05a.4.4,0,0,0-.26.24,5.38,5.38,0,0,1-1.56,2,10.47,10.47,0,0,0-1.12,1.19,2.86,2.86,0,0,0-1.7.86c.71.23,1.12.76,2,.86a3.15,3.15,0,0,1,1.8,2v0a1.55,1.55,0,0,0,.27.6c0,.92-.29,2.21.87,2,.59-.28.62-1.11.58-2l-.1-.08,0,0a32.8,32.8,0,0,1,3.17-3.92,6,6,0,0,0,1-.24ZM326.43,57h-.3a4,4,0,0,0-2.33-2.58l0,0v-.32a9.26,9.26,0,0,1,1.07-1.14,6.67,6.67,0,0,0,1.64-2c.17,0,.26-.17.4-.24a4.05,4.05,0,0,0,2.18,2.6l.22.15A33.93,33.93,0,0,0,326.43,57Z"/><path class="cls-2" d="M151.69,73.26a1.05,1.05,0,0,1-.8-1.74c2.8-3.26,4.61-7.23,6.37-11.34a1.05,1.05,0,0,1,1.94.83c-1.83,4.27-3.72,8.4-6.7,11.88a1,1,0,0,1-.8.37Z"/><path class="cls-2" d="M158.22,61.68a1.08,1.08,0,0,1-1.07-1,12.93,12.93,0,0,1,.12-3.17c.07-.56.14-1.12.16-1.69a1.08,1.08,0,1,1,2.16.07c0,.63-.1,1.26-.17,1.89a11.15,11.15,0,0,0-.12,2.65,1.08,1.08,0,0,1-.95,1.2Z"/><path class="cls-2" d="M171.7,62.41a114.77,114.77,0,0,1-13.59-.83,1,1,0,1,1,.23-2c12.83,1.52,24.18.95,39.17-2S234.28,45,232.41,30.18c-.5-4-3.92-9.93-10.42-14.33C207,5.75,187.11,4.13,173,4.54c-13.19.39-37.07,7.59-45.75,19.6a16,16,0,0,0-2.66,14.51c3.54,11.87,16.41,16.87,26.58,19a1,1,0,0,1-.4,1.93c-15.34-3.18-25-10.21-28.07-20.35A17.84,17.84,0,0,1,125.67,23C134.84,10.31,159,3,173,2.57c14.37-.43,34.74,1.25,50.13,11.65,7.5,5.06,10.76,11.63,11.28,15.71,1.91,15.12-17.57,26-36.48,29.65a134.64,134.64,0,0,1-26.19,2.82Z"/></g></svg>