<svg xmlns="http://www.w3.org/2000/svg" viewBox="0 0 177.83 91.64"><defs><style>.cls-1{fill:#0071b2;}.cls-2{fill:#333;}</style></defs><title>bar-アートボード 70</title><g id="コンテンツ"><path class="cls-1" d="M26.3,77.17a.27.27,0,0,1,0-.24,5,5,0,0,0-.8-1.72.81.81,0,0,0-.74-.38,1.37,1.37,0,0,0-.78.54,6.1,6.1,0,0,0-.84,1.4,13.42,13.42,0,0,0-1,4.26,9.13,9.13,0,0,0,.48,4.1q.6,1.28,1.32,1.32a3,3,0,0,0,1.68-.28,1,1,0,0,0,.36-.84l-.08-1.24a2.19,2.19,0,0,1,.24-1.28l.16-.16.2-.08a2.48,2.48,0,0,1,.48-.16q.56-.16,1.36-.32t1.36-.24h.68a.5.5,0,0,1,.24.12.72.72,0,0,1,.16.68,1,1,0,0,1,0,.18l0,.18a.53.53,0,0,0,0,.12,7.88,7.88,0,0,1-.6,3,7.17,7.17,0,0,1-1.66,2.48A5.78,5.78,0,0,1,25.92,90a5.52,5.52,0,0,1-3.14-.12,5.15,5.15,0,0,1-3.08-2.4q-1.12-2-.76-6.84a18.7,18.7,0,0,1,1.36-6.76,6.9,6.9,0,0,1,1.6-2.18,6.27,6.27,0,0,1,2.24-1.42,3,3,0,0,1,2.16.2,6.34,6.34,0,0,1,2.08,1.52,6.65,6.65,0,0,1,1.32,2,2.11,2.11,0,0,1,0,1.92.26.26,0,0,1-.12.12l-.08.08-.32.24-.92.6q-1.24.8-1.5.92a.25.25,0,0,1-.38-.12.27.27,0,0,1,0-.28Z"/><path class="cls-1" d="M26.9,77.21,28,76.53l.88-.6.32-.2.08-.08a1.78,1.78,0,0,0-.12-1.4,5.59,5.59,0,0,0-1.2-1.8,6.2,6.2,0,0,0-1.88-1.38,2.35,2.35,0,0,0-1.8-.18,5,5,0,0,0-2,1.28,7.52,7.52,0,0,0-1.5,2,19.52,19.52,0,0,0-1.32,6.56q-.28,4.72.72,6.56a4.57,4.57,0,0,0,2.76,2.08,4.58,4.58,0,0,0,2.82.14A5.67,5.67,0,0,0,28,88.23,6.23,6.23,0,0,0,29.58,86a7.37,7.37,0,0,0,.56-2.84s0-.21.08-.56c0-.08,0-.13,0-.16h-.48l-1.32.24c-.48.11-.91.21-1.28.32l-.44.12-.12.08a1.53,1.53,0,0,0-.12.88c.05.85.08,1.29.08,1.32A1.56,1.56,0,0,1,26,86.61a3.13,3.13,0,0,1-2,.4q-1.08,0-1.8-1.64a9.83,9.83,0,0,1-.56-4.4,13.35,13.35,0,0,1,1.08-4.4A7.49,7.49,0,0,1,23.58,75a1.88,1.88,0,0,1,1.16-.76,1.28,1.28,0,0,1,1.2.6,5.37,5.37,0,0,1,1,2,.27.27,0,0,1,0,.24Z"/><path class="cls-1" d="M37.74,70.49a4.38,4.38,0,0,1,3.16-.08,7.21,7.21,0,0,1,3.4,2A7,7,0,0,1,46.22,76a12.47,12.47,0,0,1,.12,3.44,20,20,0,0,1-.68,4.2q-1.4,5.16-4.28,5.92t-5.28-2.2a10.92,10.92,0,0,1-2.24-5.48,15.77,15.77,0,0,1,.08-3.1,20.45,20.45,0,0,1,.72-3.7,10.42,10.42,0,0,1,1.56-3.32,4,4,0,0,1,1.48-1.24Z"/><path class="cls-1" d="M36.66,72.09a9.46,9.46,0,0,0-1.48,3.12,22.06,22.06,0,0,0-.68,3.6,14.5,14.5,0,0,0-.08,3A10.69,10.69,0,0,0,36.54,87q2.08,2.64,4.68,2t3.88-5.52a19.52,19.52,0,0,0,.7-4.08A11.91,11.91,0,0,0,45.66,76a6.49,6.49,0,0,0-1.76-3.22A6.26,6.26,0,0,0,40.74,71a5.7,5.7,0,0,0-1.72-.2.36.36,0,0,1-.16,0A2.81,2.81,0,0,0,36.66,72.09Z"/><path class="cls-1" d="M38.06,75.09a3.1,3.1,0,0,1,3.32-1.24,3.31,3.31,0,0,1,2.2,2.92,14.48,14.48,0,0,1-.4,5.2,9.68,9.68,0,0,1-.92,2.64,2.15,2.15,0,0,1-1.6,1.32,3.15,3.15,0,0,1-3-1.4,7.21,7.21,0,0,1-1.16-3.76,9.33,9.33,0,0,1,.56-3.92,6.47,6.47,0,0,1,.92-1.6A.23.23,0,0,1,38.06,75.09Z"/><path class="cls-1" d="M37.62,77a8.37,8.37,0,0,0-.56,3.68,6.22,6.22,0,0,0,1,3.44,2.73,2.73,0,0,0,2.58,1.2q.56,0,1.12-1a10.63,10.63,0,0,0,.84-2.52,13.19,13.19,0,0,0,.4-5,2.7,2.7,0,0,0-1.8-2.44,2.23,2.23,0,0,0-1.68.2.26.26,0,0,1-.2.32A3.27,3.27,0,0,0,37.62,77Z"/><path class="cls-1" d="M53.86,72.09l.36-.24.32-.16a4.19,4.19,0,0,1,4,1,4.91,4.91,0,0,1,1.88,3.68v.24a.5.5,0,0,1-.08.4.83.83,0,0,1-.36.24,2.72,2.72,0,0,1-.4.2l-.4.16-.28.08-.28.16a1.84,1.84,0,0,1-.44.2.94.94,0,0,1-1,0,.85.85,0,0,1-.24-.4q0-.08-.24-.6A7.55,7.55,0,0,0,56,75.69a1.51,1.51,0,0,0-.88-.76q-.56-.08-1.28.72a5.7,5.7,0,0,0-.72,2.84A47,47,0,0,0,53,83.21q0,.44,0,2.1t0,2.38A10.89,10.89,0,0,1,53,89.21c0,.21-.05.39-.08.52a.5.5,0,0,1-.28.36,1.78,1.78,0,0,1-.72.16q-.44,0-1,0A4.46,4.46,0,0,1,50,90a1.39,1.39,0,0,1-.36-.12.65.65,0,0,1-.28-.32,6.34,6.34,0,0,1-.12-1.16q0-.84,0-2.12,0-2.4.08-6,.16-6.76.36-9.6a.27.27,0,0,1-.08-.2.26.26,0,0,1,.16-.24.29.29,0,0,1,.28-.16.16.16,0,0,1,.16.12q.68,0,3,0a.25.25,0,0,1,.28.28v0a.27.27,0,0,1,.12.24c0,.05,0,.19,0,.4v.6a2.42,2.42,0,0,0,0,.48v0A1.75,1.75,0,0,0,53.86,72.09Z"/><path class="cls-1" d="M52.38,89.57a1.92,1.92,0,0,0,0-.44,9.58,9.58,0,0,0,.08-1.44q0-.72,0-2.36t0-2.12a47.54,47.54,0,0,1,.12-4.76,5.89,5.89,0,0,1,.88-3.2,1.68,1.68,0,0,1,3,.12,14.41,14.41,0,0,1,.76,1.48,3.76,3.76,0,0,0,.24.56.94.94,0,0,0,.12.24q.08.08.44-.08a1.39,1.39,0,0,0,.36-.16,1.5,1.5,0,0,1,.32-.16l.32-.12.4-.16.36-.2.12,0v-.32a4.51,4.51,0,0,0-1.68-3.28,3.69,3.69,0,0,0-3.52-.88.41.41,0,0,0-.16.08l-.4.24a4,4,0,0,1-.4.24l-.2.08a.34.34,0,0,1-.28,0,.65.65,0,0,1-.32-.48,4.12,4.12,0,0,1,0-.64v-.56c0-.24,0-.37,0-.4q-2,0-2.76,0-.2,2.8-.36,9.52-.08,3.64-.08,6,0,1.32,0,2.12a9.6,9.6,0,0,0,.08,1,0,0,0,0,1,0,0l.24.08a5.36,5.36,0,0,0,.84.12q.48,0,.88,0a2.94,2.94,0,0,0,.48-.08Z"/><path class="cls-1" d="M67.94,72.09l.36-.24.32-.16a4.19,4.19,0,0,1,4,1,4.91,4.91,0,0,1,1.88,3.68v.24a.5.5,0,0,1-.08.4.83.83,0,0,1-.36.24,2.67,2.67,0,0,1-.4.2l-.4.16-.28.08-.28.16a1.87,1.87,0,0,1-.44.2,1,1,0,0,1-1,0,.85.85,0,0,1-.24-.4q0-.08-.24-.6a7.6,7.6,0,0,0-.72-1.36,1.5,1.5,0,0,0-.88-.76q-.56-.08-1.28.72a5.71,5.71,0,0,0-.72,2.84,46.93,46.93,0,0,0-.12,4.72q0,.44,0,2.1t0,2.38a10.73,10.73,0,0,1-.08,1.52c0,.21-.05.39-.08.52a.5.5,0,0,1-.28.36,1.78,1.78,0,0,1-.72.16c-.29,0-.61,0-1,0a4.45,4.45,0,0,1-1-.16,1.42,1.42,0,0,1-.36-.12.65.65,0,0,1-.28-.32,6.31,6.31,0,0,1-.12-1.16q0-.84,0-2.12,0-2.4.08-6,.16-6.76.36-9.6a.27.27,0,0,1-.08-.2.26.26,0,0,1,.16-.24.29.29,0,0,1,.28-.16.16.16,0,0,1,.16.12q.68,0,3,0a.25.25,0,0,1,.28.28v0a.27.27,0,0,1,.12.24c0,.05,0,.19,0,.4v.6a2.51,2.51,0,0,0,0,.48v0A1.76,1.76,0,0,0,67.94,72.09Z"/><path class="cls-1" d="M66.46,89.57a1.86,1.86,0,0,0,0-.44,9.58,9.58,0,0,0,.08-1.44q0-.72,0-2.36t0-2.12a47.6,47.6,0,0,1,.12-4.76,5.88,5.88,0,0,1,.88-3.2,1.68,1.68,0,0,1,3,.12,14.41,14.41,0,0,1,.76,1.48,3.54,3.54,0,0,0,.24.56,1,1,0,0,0,.12.24q.08.08.44-.08a1.39,1.39,0,0,0,.36-.16,1.51,1.51,0,0,1,.32-.16l.32-.12.4-.16.36-.2.12,0v-.32a4.51,4.51,0,0,0-1.68-3.28,3.69,3.69,0,0,0-3.52-.88.4.4,0,0,0-.16.08l-.4.24a3.86,3.86,0,0,1-.4.24l-.2.08a.33.33,0,0,1-.28,0,.65.65,0,0,1-.32-.48,4,4,0,0,1,0-.64v-.56c0-.24,0-.37,0-.4q-2,0-2.76,0-.2,2.8-.36,9.52-.08,3.64-.08,6,0,1.32,0,2.12a9.9,9.9,0,0,0,.08,1s0,0,0,0l.24.08a5.4,5.4,0,0,0,.84.12q.48,0,.88,0a2.94,2.94,0,0,0,.48-.08Z"/><path class="cls-1" d="M83,80.73l-.32,0a1.3,1.3,0,0,1-.4.08q-.4.12-.44.22a2,2,0,0,0-.08.38q0,.28,0,.72a11.36,11.36,0,0,0,.36,1.92,8.75,8.75,0,0,0,.72,1.84q.4.72.72.76A2.71,2.71,0,0,0,85.86,86a4.3,4.3,0,0,0,1.36-2.26,1.14,1.14,0,0,0,0-.44,1,1,0,0,1,.2-.68.64.64,0,0,1,.36-.16,1.49,1.49,0,0,1,.36,0,5.46,5.46,0,0,1,1,.1,9.21,9.21,0,0,1,.94.22,1.56,1.56,0,0,1,.36.16.47.47,0,0,1,.28.28,2.21,2.21,0,0,1,.08,1.36,8,8,0,0,1-.32,1.2,6.64,6.64,0,0,1-1.8,2.6A8.26,8.26,0,0,1,86,90a7.08,7.08,0,0,1-3.14.38,6.41,6.41,0,0,1-3-1.08q-2-1.4-2.44-5.2a17.6,17.6,0,0,1,.84-7.24A12.43,12.43,0,0,1,81.86,71a6,6,0,0,1,6.24-1,3.29,3.29,0,0,1,1.6,1.8,10.54,10.54,0,0,1,.84,2.8,14.79,14.79,0,0,1,.2,2.76,3.28,3.28,0,0,1-.2,1,.89.89,0,0,1-.42.66,10.15,10.15,0,0,1-1.46.42L86.34,80q-2.08.44-3.2.6A.6.6,0,0,1,83,80.73Z"/><path class="cls-1" d="M86.22,79.49q1.32-.28,2.32-.56a8.2,8.2,0,0,0,1.32-.36c.05,0,.11-.13.16-.32a3.28,3.28,0,0,0,.16-.88,13.19,13.19,0,0,0-.2-2.6,10.31,10.31,0,0,0-.8-2.68,2.46,2.46,0,0,0-1.32-1.48,5.35,5.35,0,0,0-5.64.84,11.84,11.84,0,0,0-3.48,5.64,17.79,17.79,0,0,0-.8,7q.36,3.52,2.2,4.76a6.35,6.35,0,0,0,3.74,1,7,7,0,0,0,3.66-1.28,6.25,6.25,0,0,0,2.4-3,4.43,4.43,0,0,0,.32-1.12,2.2,2.2,0,0,0,0-1,0,0,0,0,1,0,0l-.28-.08a7.21,7.21,0,0,0-.86-.22,4.59,4.59,0,0,0-.9-.1.89.89,0,0,0-.28,0h0a.7.7,0,0,0,0,.28,2.86,2.86,0,0,1,0,.6,5.31,5.31,0,0,1-1.58,2.54,3.14,3.14,0,0,1-2.7.78q-.6-.12-1.16-1.08a9.7,9.7,0,0,1-.72-1.92,10.23,10.23,0,0,1-.4-2q0-.48,0-.8a1.46,1.46,0,0,1,.16-.6,1.15,1.15,0,0,1,.8-.48.28.28,0,0,1,.28-.2A29.46,29.46,0,0,0,86.22,79.49Z"/><path class="cls-1" d="M82.86,75.07a5,5,0,0,1,1.2-1.5A2.21,2.21,0,0,1,85.74,73a1.88,1.88,0,0,1,1.4,1.44l.16.64a2.87,2.87,0,0,1,.12.36.78.78,0,0,1,0,.36.51.51,0,0,1-.12.2l0,0-.2.08a2,2,0,0,1-.48.24q-.56.24-1.4.56l-1.48.48a3.63,3.63,0,0,1-.52.16.44.44,0,0,0-.2,0h-.2a.49.49,0,0,1-.32-.36.17.17,0,0,0,0-.12V77a.26.26,0,0,1,0-.28A3.27,3.27,0,0,1,82.86,75.07Z"/><path class="cls-1" d="M86.86,75.57c0-.11-.05-.23-.08-.36s-.12-.39-.2-.6q-.28-.92-.92-1A1.73,1.73,0,0,0,84.4,74a3.88,3.88,0,0,0-1.12,1.4A2.29,2.29,0,0,0,83,77v0l.52-.12q.6-.2,1.44-.52t1.4-.52l.44-.2,0,0Z"/><path class="cls-1" d="M100.7,77.17a.27.27,0,0,1,0-.24,5,5,0,0,0-.8-1.72.81.81,0,0,0-.74-.38,1.37,1.37,0,0,0-.78.54,6.1,6.1,0,0,0-.84,1.4,13.42,13.42,0,0,0-1,4.26,9.13,9.13,0,0,0,.48,4.1q.6,1.28,1.32,1.32a3,3,0,0,0,1.68-.28,1,1,0,0,0,.36-.84l-.08-1.24a2.19,2.19,0,0,1,.24-1.28l.16-.16.2-.08a2.48,2.48,0,0,1,.48-.16q.56-.16,1.36-.32t1.36-.24h.68A.5.5,0,0,1,105,82a.72.72,0,0,1,.16.68,1,1,0,0,1,0,.18l0,.18a.53.53,0,0,0,0,.12,7.88,7.88,0,0,1-.6,3,7.17,7.17,0,0,1-1.66,2.48A5.78,5.78,0,0,1,100.32,90a5.52,5.52,0,0,1-3.14-.12,5.15,5.15,0,0,1-3.08-2.4q-1.12-2-.76-6.84a18.7,18.7,0,0,1,1.36-6.76,6.9,6.9,0,0,1,1.6-2.18,6.27,6.27,0,0,1,2.24-1.42,3,3,0,0,1,2.16.2,6.34,6.34,0,0,1,2.08,1.52,6.65,6.65,0,0,1,1.32,2,2.11,2.11,0,0,1,0,1.92.26.26,0,0,1-.12.12l-.08.08-.32.24-.92.6q-1.24.8-1.5.92a.25.25,0,0,1-.38-.12.27.27,0,0,1,0-.28Z"/><path class="cls-1" d="M101.3,77.21l1.12-.68.88-.6.32-.2.08-.08a1.78,1.78,0,0,0-.12-1.4,5.59,5.59,0,0,0-1.2-1.8,6.2,6.2,0,0,0-1.88-1.38,2.35,2.35,0,0,0-1.8-.18,5,5,0,0,0-2,1.28,7.52,7.52,0,0,0-1.5,2,19.52,19.52,0,0,0-1.32,6.56q-.28,4.72.72,6.56a5.35,5.35,0,0,0,5.58,2.22,5.67,5.67,0,0,0,2.28-1.28A6.23,6.23,0,0,0,104,86a7.37,7.37,0,0,0,.56-2.84s0-.21.08-.56c0-.08,0-.13,0-.16h-.48l-1.32.24c-.48.11-.91.21-1.28.32l-.44.12-.12.08a1.53,1.53,0,0,0-.12.88c.05.85.08,1.29.08,1.32a1.56,1.56,0,0,1-.56,1.24,3.13,3.13,0,0,1-2,.4q-1.08,0-1.8-1.64A9.83,9.83,0,0,1,96,81a13.35,13.35,0,0,1,1.08-4.4A7.49,7.49,0,0,1,98,75a1.88,1.88,0,0,1,1.16-.76,1.28,1.28,0,0,1,1.2.6,5.37,5.37,0,0,1,1,2,.27.27,0,0,1,0,.24Z"/><path class="cls-1" d="M110.5,74.33l-.56.24a3.76,3.76,0,0,0-.48.24.91.91,0,0,1-1.08-.2,3.39,3.39,0,0,1-.32-1.8v-.28a3.31,3.31,0,0,1,0-.4,1.21,1.21,0,0,1,.2-.88,1.28,1.28,0,0,1,.92-.36,5.39,5.39,0,0,1,1.08,0c.51.05.84.08,1,.08a1,1,0,0,0,.6-.2v0c0-.08.05-.17.08-.28v-1q0-.88-.16-2.76l-.2-2.76a5.67,5.67,0,0,1,0-1,1.19,1.19,0,0,1,0-.36.42.42,0,0,1,.16-.28.78.78,0,0,1,.56-.16,2.23,2.23,0,0,1,.72,0,5,5,0,0,1,1,.24.17.17,0,0,1,.12,0,.25.25,0,0,1,.28.28v4.64q0,1.76.08,2.8a7.75,7.75,0,0,0,0,.92.56.56,0,0,0,0,.24h0a1.21,1.21,0,0,0,.44,0q.32,0,1.24-.08t1.28-.08a2.16,2.16,0,0,1,.48,0,.76.76,0,0,1,.44.16.5.5,0,0,1,.12.24v.6a4.24,4.24,0,0,1,0,.44v.24l.08.64a4.25,4.25,0,0,0,.08.44,1.19,1.19,0,0,1,0,.36.73.73,0,0,1-.44.4,2.91,2.91,0,0,1-.6.12,13.56,13.56,0,0,1-1.48,0l-.72,0-.76,0h-.44a.36.36,0,0,1,0,.16,16.85,16.85,0,0,1,.2,2.92q0,.24.36,6.4.16,2.24.16,3.56A9.61,9.61,0,0,1,114.9,90a.75.75,0,0,1-.56.44,2.35,2.35,0,0,1-.68.16,2.74,2.74,0,0,1-1.32-.12.48.48,0,0,1-.28-.28l-.12-.44q-.08-.48-.16-1.28-.12-1.4-.2-3.8v-7q0-.4,0-.8a7.85,7.85,0,0,0,0-1q0-.84,0-1.32c0-.16-.05-.29-.08-.4a0,0,0,0,1,0,0A1.41,1.41,0,0,0,110.5,74.33Z"/><path class="cls-1" d="M118,71.77a1.38,1.38,0,0,0-.4,0q-.32,0-1.24.08t-1.28.08a1.38,1.38,0,0,1-.48,0,1,1,0,0,1-.44-.16.44.44,0,0,1-.08-.16.17.17,0,0,1,0-.12,1.05,1.05,0,0,1,0-.32,8,8,0,0,1,0-.92q0-1-.08-2.84V63a6.76,6.76,0,0,0-1-.2,1.61,1.61,0,0,0-.6,0h-.24V63a5.23,5.23,0,0,0,0,.92l.2,2.76q.16,1.92.16,2.8v1c0,.13-.05.25-.08.36a.61.61,0,0,1-.16.32,1.44,1.44,0,0,1-1,.36q-.36,0-1.12-.08a4.28,4.28,0,0,0-1,0,.68.68,0,0,0-.56.2,1.32,1.32,0,0,0,0,.44c0,.08,0,.21,0,.38s0,.29,0,.34a2.64,2.64,0,0,0,.24,1.44c.05.11.19.12.4,0l.44-.2a3.69,3.69,0,0,1,.6-.28,2,2,0,0,1,1.36-.08.64.64,0,0,1,.32.4c0,.13.05.29.08.48a9.38,9.38,0,0,1,.08,1.36,8.75,8.75,0,0,1,0,1c0,.25,0,.51,0,.78v7q.08,2.36.2,3.72a6.18,6.18,0,0,0,.16,1.24,2.78,2.78,0,0,0,.08.32l0,0a3.39,3.39,0,0,0,1,0,2.91,2.91,0,0,0,.6-.12c.11,0,.16-.05.16-.08a8,8,0,0,0,.16-2.08q0-1.28-.16-3.52-.36-6.2-.36-6.44a15.73,15.73,0,0,0-.2-2.84v0a.5.5,0,0,1-.08-.12.42.42,0,0,1,.08-.44.39.39,0,0,1,.2-.16.55.55,0,0,1,.24,0h.52l.78,0,.7,0a12.76,12.76,0,0,0,1.44,0l.44-.08.08,0s0-.09,0-.18a2.77,2.77,0,0,1,0-.38c-.08-.43-.12-.67-.12-.72v-.28c0-.21,0-.35,0-.4v-.44Z"/><path class="cls-1" d="M124.34,70.21a4.86,4.86,0,0,1,.88,0,1.09,1.09,0,0,1,.68.32.36.36,0,0,1,0,.16.34.34,0,0,1,0,.16,2.5,2.5,0,0,1,0,.48q0,.52,0,1.48v4.36q0,1.4,0,3.08t0,2.8q0,1.12,0,1.4V85c0,.32,0,.68,0,1.08s0,.77,0,1.12c0,.69-.05,1.24-.08,1.64s-.05.47-.08.6a1.19,1.19,0,0,1-.08.24.36.36,0,0,1-.2.2,3,3,0,0,1-1.28.28,2.1,2.1,0,0,1-.72,0,.76.76,0,0,1-.56-.44,4.25,4.25,0,0,1-.08-1.52c0-.11,0-.25,0-.44s0-.31,0-.36q0-.44,0-.68,0-1.84,0-8.16,0-4.84-.16-7.6a.36.36,0,0,1-.2-.24.23.23,0,0,1,.16-.28c0-.19.08-.28.24-.28a.29.29,0,0,1,.28.16A6.65,6.65,0,0,1,124.34,70.21Z"/><path class="cls-1" d="M123.06,65.13a1.43,1.43,0,0,1,1.1-.64,1.57,1.57,0,0,1,1.14.36,2.35,2.35,0,0,1,.8,1,1.57,1.57,0,0,1,.08,1.2,1.27,1.27,0,0,1-1,.88,1.75,1.75,0,0,1-1.36-.16,1.44,1.44,0,0,1-.88-1.12,1.94,1.94,0,0,1,.2-1.12A.27.27,0,0,1,123.06,65.13Z"/><path class="cls-1" d="M125.14,70.77a3.47,3.47,0,0,0-.76,0,6.29,6.29,0,0,0-1,.08q.2,2.8.16,7.68,0,6.32,0,8.16,0,.24,0,.72,0,.08,0,.36c0,.19,0,.32,0,.4a3.3,3.3,0,0,0,.08,1.36s.05.05.16.08a2,2,0,0,0,.56,0,2.23,2.23,0,0,0,1-.16.17.17,0,0,0,0-.12c0-.13.05-.31.08-.52,0-.37.05-.91.08-1.6,0-.35,0-.72,0-1.12s0-.76,0-1.08v-.56q0-.28,0-1.4t0-2.8q0-1.68,0-3.08V72.81q0-1,0-1.48a1.71,1.71,0,0,0,0-.4v-.08A1.19,1.19,0,0,0,125.14,70.77Z"/><path class="cls-1" d="M123.46,66.49a1.06,1.06,0,0,0,.56.76,1.45,1.45,0,0,0,1,.12.76.76,0,0,0,.6-.52,1.32,1.32,0,0,0-.64-1.56,1.09,1.09,0,0,0-1-.16A2,2,0,0,0,123.46,66.49Z"/><path class="cls-1" d="M133.18,70.49a4.38,4.38,0,0,1,3.16-.08,7.21,7.21,0,0,1,3.4,2A7,7,0,0,1,141.66,76a12.46,12.46,0,0,1,.12,3.44,20,20,0,0,1-.68,4.2q-1.4,5.16-4.28,5.92t-5.28-2.2a10.92,10.92,0,0,1-2.24-5.48,15.77,15.77,0,0,1,.08-3.1,20.45,20.45,0,0,1,.72-3.7,10.44,10.44,0,0,1,1.56-3.32,4,4,0,0,1,1.48-1.24Z"/><path class="cls-1" d="M132.1,72.09a9.46,9.46,0,0,0-1.48,3.12,22.17,22.17,0,0,0-.68,3.6,14.48,14.48,0,0,0-.08,3A10.67,10.67,0,0,0,132,87q2.08,2.64,4.68,2t3.88-5.52a19.52,19.52,0,0,0,.7-4.08A11.84,11.84,0,0,0,141.1,76a6.49,6.49,0,0,0-1.76-3.22A6.26,6.26,0,0,0,136.18,71a5.7,5.7,0,0,0-1.72-.2.36.36,0,0,1-.16,0A2.81,2.81,0,0,0,132.1,72.09Z"/><path class="cls-1" d="M133.5,75.09a3.1,3.1,0,0,1,3.32-1.24,3.31,3.31,0,0,1,2.2,2.92,14.48,14.48,0,0,1-.4,5.2,9.75,9.75,0,0,1-.92,2.64,2.15,2.15,0,0,1-1.6,1.32,3.16,3.16,0,0,1-3-1.4,7.21,7.21,0,0,1-1.16-3.76,9.33,9.33,0,0,1,.56-3.92,6.4,6.4,0,0,1,.92-1.6A.23.23,0,0,1,133.5,75.09Z"/><path class="cls-1" d="M133.06,77a8.36,8.36,0,0,0-.56,3.68,6.21,6.21,0,0,0,1,3.44,2.73,2.73,0,0,0,2.58,1.2q.56,0,1.12-1a10.63,10.63,0,0,0,.84-2.52,13.19,13.19,0,0,0,.4-5,2.7,2.7,0,0,0-1.8-2.44,2.23,2.23,0,0,0-1.68.2.26.26,0,0,1-.2.32A3.27,3.27,0,0,0,133.06,77Z"/><path class="cls-1" d="M149.26,89.69a.27.27,0,0,1-.08.2.26.26,0,0,1,.16.24.25.25,0,0,1-.28.28l-.72,0q-.76,0-1.08.08c-.43,0-.77,0-1,0a1.5,1.5,0,0,1-.44-.12.48.48,0,0,1-.32-.28.23.23,0,0,1,0-.16.56.56,0,0,1,0-.24,4,4,0,0,1,0-.64q0-.8,0-2.2,0-2.52,0-6.52.08-9.24.28-10.56a.25.25,0,0,1,.32-.24.16.16,0,0,1,.16.12q.52-.12,1.08-.2a5.09,5.09,0,0,1,.8-.08.65.65,0,0,1,.32,0,.43.43,0,0,1,.32.12l.08.12V73a6.41,6.41,0,0,1,.8-1.28,7.53,7.53,0,0,1,3.32-2.52,3.9,3.9,0,0,1,4.08.44,2.7,2.7,0,0,1,.72,1.12,12.12,12.12,0,0,1,.44,1.72,33,33,0,0,1,.44,4.6q.08,1.72.08,8.16v4.4a.31.31,0,0,0,0,.12v.12a.45.45,0,0,1-.08.12.5.5,0,0,1-.24.12H157l-.24,0-.4.12-.44.08a.16.16,0,0,0-.12,0h-.12a.35.35,0,0,1-.16,0,.53.53,0,0,1-.2-.44.3.3,0,0,0,0-.12v-.12q0-.88,0-3.32.16-3.4.16-4.48a34.74,34.74,0,0,0-.08-4.28,6.33,6.33,0,0,0-.6-2.64,2,2,0,0,0-1.52-.8q-1.28-.2-2.16,1.64a17.3,17.3,0,0,0-1.32,4.64,55.84,55.84,0,0,0-.6,8.2.28.28,0,0,1,.08.28l-.08.24v.16a.36.36,0,0,1,0,.16Z"/><path class="cls-1" d="M148,69.93a4.31,4.31,0,0,0-.76.08,9.44,9.44,0,0,0-1.12.2q-.16,2.16-.24,10.12,0,3.88,0,6.52,0,1.4,0,2.16a3.79,3.79,0,0,0,0,.64v.2H146a1.2,1.2,0,0,0,.28.08,8.89,8.89,0,0,0,1,0l1-.08a2.08,2.08,0,0,0,.48,0,.23.23,0,0,1-.08-.16v-.44a.35.35,0,0,1,0-.16,60,60,0,0,1,.64-8.72,16.32,16.32,0,0,1,1.32-4.8q1.12-2.2,2.76-2a2.63,2.63,0,0,1,1.92,1,6.75,6.75,0,0,1,.68,2.92,35.68,35.68,0,0,1,.08,4.32q0,1.12-.16,4.48-.08,2.44,0,3.32v.12l.32-.08.4-.08.28-.08h1V85.25q0-6.4-.08-8.12a31.91,31.91,0,0,0-.44-4.56,8.15,8.15,0,0,0-.4-1.62,1.82,1.82,0,0,0-.52-.82,3.39,3.39,0,0,0-3.56-.4,7.06,7.06,0,0,0-3,2.32,6.5,6.5,0,0,0-1.2,2.28,4.81,4.81,0,0,0-.12.52v.52a.12.12,0,0,0,0,.08.24.24,0,0,1-.32.12l-.16-.12a.11.11,0,0,1,0-.08v-.6q0-1,0-2.44v-2.4S148,69.9,148,69.93Z"/><path class="cls-2" d="M61.6,22.66a9.16,9.16,0,0,1,2.47-.37c1.76,0,3.09.95,3.09,2.47s-.82,2.4-2.57,2.82a7.92,7.92,0,0,1-1.5.17l-.43-1.2a7.93,7.93,0,0,0,1.43-.08c1-.18,1.87-.71,1.87-1.71s-.83-1.42-1.91-1.42a8,8,0,0,0-2.43.4c0,1,0,2,0,2.45,0,1.26-.47,1.62-1.16,1.62-1,0-2.61-.94-2.61-2.09S59.1,23.65,60.51,23V22.3c0-.42,0-.86,0-1.31-.29,0-.55,0-.78,0-.53,0-1.09,0-1.56-.06l0-1.15a12,12,0,0,0,1.57.1l.82,0c0-.54,0-1,0-1.19a7.58,7.58,0,0,0-.07-.94h1.29c0,.23-.06.62-.07.91s0,.67,0,1.09A14.47,14.47,0,0,0,64,19.31l0,1.17a23.69,23.69,0,0,1-2.39.4c0,.48,0,.95,0,1.37Zm-1,3.32c0-.37,0-1.06,0-1.82-.86.42-1.46,1-1.46,1.5s.7.88,1.1.88C60.42,26.53,60.57,26.38,60.57,26Zm4.77-6.91a22,22,0,0,1,2.81,1.7l-.59,1A17.59,17.59,0,0,0,64.81,20Z"/><path class="cls-2" d="M69.2,19.3h4.2v.89H69.2Zm4,8.37H70.65v.5h-.94v-4h3.44Zm0-5.88H69.72v-.86h3.42Zm-3.42.73h3.42v.88H69.72Zm3.38-3.93H69.77v-.88h3.33ZM70.65,25v1.73h1.56V25Zm8.13,2.24c.38,0,.47-.25.52-1.5a3.83,3.83,0,0,0,1,.41c-.11,1.58-.4,2-1.38,2H77.24c-1.15,0-1.45-.32-1.45-1.44v-2l-2.11.36-.2-1,2.31-.37V22.26l-1.48.29a3.63,3.63,0,0,0-.35-.84,21.41,21.41,0,0,0,4.32-1.22l.84.83a19.38,19.38,0,0,1-2.25.71v1.57L80,23.08l.2,1-3.37.56V26.8c0,.42.08.49.5.49ZM74.63,21h-1V18.85h2.63V17.33h1.12v1.51h2.71V21h-1V19.78H74.63Z"/><path class="cls-2" d="M89.3,18.6a9.8,9.8,0,0,0,2.54,4.91l-.89.94a13.83,13.83,0,0,1-1.28-1.93c.18,2.88-1.09,5.66-4.17,5.66A3,3,0,0,1,82.31,25a7.65,7.65,0,0,1,2-4.83c-.53.08-1.32.2-1.78.3-.22,0-.41.08-.67.14l-.17-1.25a6.11,6.11,0,0,0,.65,0,21.28,21.28,0,0,0,3.91-.68l.36,1.07a5.08,5.08,0,0,0-.62.23,7.42,7.42,0,0,0-2.51,4.89,1.92,1.92,0,0,0,2.05,2.11c2.4,0,3.77-2.82,2.88-7.18-.1-.25-.19-.5-.28-.78Zm1.12,1.26a14.2,14.2,0,0,0-.76-1.73l.73-.24c.24.48.59,1.21.77,1.7Zm1.28-.46a12.45,12.45,0,0,0-.77-1.71l.71-.25c.26.47.6,1.2.82,1.7Z"/><path class="cls-2" d="M102.3,20.32c-.3.18-.64.36-1,.55a37.26,37.26,0,0,0-3.48,1.88c-1.06.68-1.71,1.43-1.71,2.29s.88,1.46,2.65,1.46a19.34,19.34,0,0,0,3.84-.41v1.34a22.24,22.24,0,0,1-3.78.3c-2.29,0-4-.67-4-2.57a3.91,3.91,0,0,1,2-3.09c-.54-1-1.14-2.34-1.69-3.61L96.31,18a27.3,27.3,0,0,0,1.55,3.42c1-.62,2.22-1.21,2.83-1.56a6.71,6.71,0,0,0,1-.62Z"/><path class="cls-2" d="M105.2,19.3H110v.89H105.2Zm4.29,8.37h-2.77v.5h-1v-4h3.75Zm-3.73-6.74h3.77v.86h-3.77Zm0,1.59h3.77v.88h-3.77Zm3.78-3.93h-3.71v-.88h3.71ZM106.72,25v1.73h1.78V25Zm9.52-5.65h-2.18V27c0,.67-.14,1-.6,1.19a7,7,0,0,1-2.19.19,4.87,4.87,0,0,0-.37-1.14c.76,0,1.51,0,1.74,0s.3-.07.3-.28V19.4h-2.78V18.32h6.09Z"/><path class="cls-2" d="M128.09,26.75v1.08H117.35V26.75h1.56V21.28h1.15v5.47h2.39V19.24h-4.67V18.15h9.93v1.09h-4.09v2.94h3.57v1.08h-3.57v3.49Z"/><path d="M24.3,74.51a.27.27,0,0,1,0-.24,5,5,0,0,0-.8-1.72.81.81,0,0,0-.74-.38,1.37,1.37,0,0,0-.78.54,6.1,6.1,0,0,0-.84,1.4,13.42,13.42,0,0,0-1,4.26,9.13,9.13,0,0,0,.48,4.1q.6,1.28,1.32,1.32a3,3,0,0,0,1.68-.28,1,1,0,0,0,.36-.84l-.08-1.24a2.19,2.19,0,0,1,.24-1.28L24.3,80l.2-.08a2.48,2.48,0,0,1,.48-.16q.56-.16,1.36-.32t1.36-.24h.68a.5.5,0,0,1,.24.12.72.72,0,0,1,.16.68,1,1,0,0,1,0,.18l0,.18a.53.53,0,0,0,0,.12,7.88,7.88,0,0,1-.6,3A7.17,7.17,0,0,1,26.44,86a5.78,5.78,0,0,1-2.52,1.42,5.52,5.52,0,0,1-3.14-.12,5.15,5.15,0,0,1-3.08-2.4q-1.12-2-.76-6.84a18.7,18.7,0,0,1,1.36-6.76,6.9,6.9,0,0,1,1.6-2.18,6.27,6.27,0,0,1,2.24-1.42,3,3,0,0,1,2.16.2,6.34,6.34,0,0,1,2.08,1.52,6.65,6.65,0,0,1,1.32,2,2.11,2.11,0,0,1,0,1.92.26.26,0,0,1-.12.12l-.08.08-.32.24-.92.6q-1.24.8-1.5.92a.25.25,0,0,1-.38-.12.27.27,0,0,1,0-.28Zm.6,0L26,73.87l.88-.6.32-.2L27.3,73a1.78,1.78,0,0,0-.12-1.4,5.59,5.59,0,0,0-1.2-1.8,6.2,6.2,0,0,0-1.88-1.38,2.35,2.35,0,0,0-1.8-.18,5,5,0,0,0-2,1.28,7.52,7.52,0,0,0-1.5,2,19.52,19.52,0,0,0-1.32,6.56q-.28,4.72.72,6.56a4.57,4.57,0,0,0,2.76,2.08,4.58,4.58,0,0,0,2.82.14A5.67,5.67,0,0,0,26,85.57a6.23,6.23,0,0,0,1.54-2.26,7.37,7.37,0,0,0,.56-2.84s0-.21.08-.56c0-.08,0-.13,0-.16h-.48L26.42,80c-.48.11-.91.21-1.28.32l-.44.12-.12.08a1.53,1.53,0,0,0-.12.88c.05.85.08,1.29.08,1.32A1.56,1.56,0,0,1,24,84a3.13,3.13,0,0,1-2,.4q-1.08,0-1.8-1.64a9.83,9.83,0,0,1-.56-4.4,13.35,13.35,0,0,1,1.08-4.4,7.49,7.49,0,0,1,.92-1.56,1.88,1.88,0,0,1,1.16-.76,1.28,1.28,0,0,1,1.2.6,5.37,5.37,0,0,1,1,2,.27.27,0,0,1,0,.24Z"/><path d="M35.74,67.83a4.38,4.38,0,0,1,3.16-.08,7.21,7.21,0,0,1,3.4,2,7,7,0,0,1,1.92,3.52,12.47,12.47,0,0,1,.12,3.44,20,20,0,0,1-.68,4.2q-1.4,5.16-4.28,5.92t-5.28-2.2a10.92,10.92,0,0,1-2.24-5.48,15.77,15.77,0,0,1,.08-3.1,20.45,20.45,0,0,1,.72-3.7,10.42,10.42,0,0,1,1.56-3.32,4,4,0,0,1,1.48-1.24Zm-1.08,1.6a9.46,9.46,0,0,0-1.48,3.12,22.06,22.06,0,0,0-.68,3.6,14.5,14.5,0,0,0-.08,3,10.69,10.69,0,0,0,2.12,5.24q2.08,2.64,4.68,2t3.88-5.52a19.52,19.52,0,0,0,.7-4.08,11.91,11.91,0,0,0-.14-3.32,6.49,6.49,0,0,0-1.76-3.22,6.26,6.26,0,0,0-3.16-1.86,5.7,5.7,0,0,0-1.72-.2.36.36,0,0,1-.16,0A2.81,2.81,0,0,0,34.66,69.43Zm1.4,3a3.1,3.1,0,0,1,3.32-1.24,3.31,3.31,0,0,1,2.2,2.92,14.48,14.48,0,0,1-.4,5.2A9.68,9.68,0,0,1,40.26,82a2.15,2.15,0,0,1-1.6,1.32,3.15,3.15,0,0,1-3-1.4,7.21,7.21,0,0,1-1.16-3.76,9.33,9.33,0,0,1,.56-3.92,6.47,6.47,0,0,1,.92-1.6A.23.23,0,0,1,36.06,72.43Zm-.44,2a8.37,8.37,0,0,0-.56,3.68,6.22,6.22,0,0,0,1,3.44,2.73,2.73,0,0,0,2.58,1.2q.56,0,1.12-1a10.63,10.63,0,0,0,.84-2.52,13.19,13.19,0,0,0,.4-5,2.7,2.7,0,0,0-1.8-2.44,2.23,2.23,0,0,0-1.68.2.26.26,0,0,1-.2.32A3.27,3.27,0,0,0,35.62,74.39Z"/><path d="M51.86,69.43l.36-.24.32-.16a4.19,4.19,0,0,1,4,1,4.91,4.91,0,0,1,1.88,3.68V74a.5.5,0,0,1-.08.4.83.83,0,0,1-.36.24,2.72,2.72,0,0,1-.4.2l-.4.16-.28.08-.28.16a1.84,1.84,0,0,1-.44.2.94.94,0,0,1-1,0,.85.85,0,0,1-.24-.4q0-.08-.24-.6A7.55,7.55,0,0,0,54,73a1.51,1.51,0,0,0-.88-.76q-.56-.08-1.28.72a5.7,5.7,0,0,0-.72,2.84A47,47,0,0,0,51,80.55q0,.44,0,2.1t0,2.38A10.89,10.89,0,0,1,51,86.55c0,.21-.05.39-.08.52a.5.5,0,0,1-.28.36,1.78,1.78,0,0,1-.72.16q-.44,0-1,0a4.46,4.46,0,0,1-1-.16,1.39,1.39,0,0,1-.36-.12.65.65,0,0,1-.28-.32,6.34,6.34,0,0,1-.12-1.16q0-.84,0-2.12,0-2.4.08-6,.16-6.76.36-9.6a.27.27,0,0,1-.08-.2.26.26,0,0,1,.16-.24.29.29,0,0,1,.28-.16.16.16,0,0,1,.16.12q.68,0,3,0a.25.25,0,0,1,.28.28v0a.27.27,0,0,1,.12.24c0,.05,0,.19,0,.4v.6a2.42,2.42,0,0,0,0,.48v0A1.75,1.75,0,0,0,51.86,69.43ZM50.38,86.91a1.92,1.92,0,0,0,0-.44A9.58,9.58,0,0,0,50.5,85q0-.72,0-2.36t0-2.12a47.54,47.54,0,0,1,.12-4.76,5.89,5.89,0,0,1,.88-3.2,1.68,1.68,0,0,1,3,.12,14.41,14.41,0,0,1,.76,1.48,3.76,3.76,0,0,0,.24.56.94.94,0,0,0,.12.24q.08.08.44-.08a1.39,1.39,0,0,0,.36-.16,1.5,1.5,0,0,1,.32-.16l.32-.12.4-.16.36-.2.12,0v-.32a4.51,4.51,0,0,0-1.68-3.28,3.69,3.69,0,0,0-3.52-.88.41.41,0,0,0-.16.08l-.4.24a4,4,0,0,1-.4.24l-.2.08a.34.34,0,0,1-.28,0,.65.65,0,0,1-.32-.48,4.12,4.12,0,0,1,0-.64v-.56c0-.24,0-.37,0-.4q-2,0-2.76,0-.2,2.8-.36,9.52-.08,3.64-.08,6,0,1.32,0,2.12a9.6,9.6,0,0,0,.08,1,0,0,0,0,1,0,0l.24.08A5.36,5.36,0,0,0,49,87q.48,0,.88,0a2.94,2.94,0,0,0,.48-.08Z"/><path d="M65.94,69.43l.36-.24.32-.16a4.19,4.19,0,0,1,4,1,4.91,4.91,0,0,1,1.88,3.68V74a.5.5,0,0,1-.08.4.83.83,0,0,1-.36.24,2.67,2.67,0,0,1-.4.2l-.4.16-.28.08-.28.16a1.87,1.87,0,0,1-.44.2,1,1,0,0,1-1,0A.85.85,0,0,1,69,75q0-.08-.24-.6A7.6,7.6,0,0,0,68.06,73a1.5,1.5,0,0,0-.88-.76q-.56-.08-1.28.72a5.71,5.71,0,0,0-.72,2.84,46.93,46.93,0,0,0-.12,4.72q0,.44,0,2.1t0,2.38a10.73,10.73,0,0,1-.08,1.52c0,.21-.05.39-.08.52a.5.5,0,0,1-.28.36,1.78,1.78,0,0,1-.72.16c-.29,0-.61,0-1,0a4.45,4.45,0,0,1-1-.16,1.42,1.42,0,0,1-.36-.12.65.65,0,0,1-.28-.32,6.31,6.31,0,0,1-.12-1.16q0-.84,0-2.12,0-2.4.08-6,.16-6.76.36-9.6a.27.27,0,0,1-.08-.2.26.26,0,0,1,.16-.24.29.29,0,0,1,.28-.16.16.16,0,0,1,.16.12q.68,0,3,0a.25.25,0,0,1,.28.28v0a.27.27,0,0,1,.12.24c0,.05,0,.19,0,.4v.6a2.51,2.51,0,0,0,0,.48v0A1.76,1.76,0,0,0,65.94,69.43ZM64.46,86.91a1.86,1.86,0,0,0,0-.44A9.58,9.58,0,0,0,64.58,85q0-.72,0-2.36t0-2.12a47.6,47.6,0,0,1,.12-4.76,5.88,5.88,0,0,1,.88-3.2,1.68,1.68,0,0,1,3,.12,14.41,14.41,0,0,1,.76,1.48,3.54,3.54,0,0,0,.24.56,1,1,0,0,0,.12.24q.08.08.44-.08a1.39,1.39,0,0,0,.36-.16,1.51,1.51,0,0,1,.32-.16l.32-.12.4-.16.36-.2.12,0v-.32a4.51,4.51,0,0,0-1.68-3.28,3.69,3.69,0,0,0-3.52-.88.4.4,0,0,0-.16.08l-.4.24a3.86,3.86,0,0,1-.4.24l-.2.08a.33.33,0,0,1-.28,0,.65.65,0,0,1-.32-.48,4,4,0,0,1,0-.64v-.56c0-.24,0-.37,0-.4q-2,0-2.76,0-.2,2.8-.36,9.52-.08,3.64-.08,6,0,1.32,0,2.12a9.9,9.9,0,0,0,.08,1s0,0,0,0l.24.08a5.4,5.4,0,0,0,.84.12q.48,0,.88,0a2.94,2.94,0,0,0,.48-.08Z"/><path d="M81,78.07l-.32,0a1.3,1.3,0,0,1-.4.08q-.4.12-.44.22a2,2,0,0,0-.08.38q0,.28,0,.72a11.36,11.36,0,0,0,.36,1.92,8.75,8.75,0,0,0,.72,1.84q.4.72.72.76a2.71,2.71,0,0,0,2.28-.66,4.3,4.3,0,0,0,1.36-2.26,1.14,1.14,0,0,0,0-.44,1,1,0,0,1,.2-.68.64.64,0,0,1,.36-.16,1.49,1.49,0,0,1,.36,0,5.46,5.46,0,0,1,1,.1,9.21,9.21,0,0,1,.94.22,1.56,1.56,0,0,1,.36.16.47.47,0,0,1,.28.28,2.21,2.21,0,0,1,.08,1.36,8,8,0,0,1-.32,1.2,6.64,6.64,0,0,1-1.8,2.6A8.26,8.26,0,0,1,84,87.37a7.08,7.08,0,0,1-3.14.38,6.41,6.41,0,0,1-3-1.08q-2-1.4-2.44-5.2a17.6,17.6,0,0,1,.84-7.24,12.43,12.43,0,0,1,3.64-5.88,6,6,0,0,1,6.24-1,3.29,3.29,0,0,1,1.6,1.8,10.54,10.54,0,0,1,.84,2.8,14.79,14.79,0,0,1,.2,2.76,3.28,3.28,0,0,1-.2,1,.89.89,0,0,1-.42.66,10.15,10.15,0,0,1-1.46.42l-2.32.52q-2.08.44-3.2.6A.6.6,0,0,1,81,78.07Zm3.24-1.24q1.32-.28,2.32-.56a8.2,8.2,0,0,0,1.32-.36c.05,0,.11-.13.16-.32a3.28,3.28,0,0,0,.16-.88,13.19,13.19,0,0,0-.2-2.6,10.31,10.31,0,0,0-.8-2.68A2.46,2.46,0,0,0,85.86,68a5.35,5.35,0,0,0-5.64.84,11.84,11.84,0,0,0-3.48,5.64,17.79,17.79,0,0,0-.8,7q.36,3.52,2.2,4.76a6.35,6.35,0,0,0,3.74,1,7,7,0,0,0,3.66-1.28,6.25,6.25,0,0,0,2.4-3,4.43,4.43,0,0,0,.32-1.12,2.2,2.2,0,0,0,0-1,0,0,0,0,1,0,0l-.28-.08a7.21,7.21,0,0,0-.86-.22,4.59,4.59,0,0,0-.9-.1.89.89,0,0,0-.28,0h0a.7.7,0,0,0,0,.28,2.86,2.86,0,0,1,0,.6,5.31,5.31,0,0,1-1.58,2.54,3.14,3.14,0,0,1-2.7.78q-.6-.12-1.16-1.08a9.7,9.7,0,0,1-.72-1.92,10.23,10.23,0,0,1-.4-2q0-.48,0-.8a1.46,1.46,0,0,1,.16-.6,1.15,1.15,0,0,1,.8-.48.28.28,0,0,1,.28-.2A29.46,29.46,0,0,0,84.22,76.83Zm-3.36-4.42a5,5,0,0,1,1.2-1.5,2.21,2.21,0,0,1,1.68-.56,1.88,1.88,0,0,1,1.4,1.44l.16.64a2.87,2.87,0,0,1,.12.36.78.78,0,0,1,0,.36.51.51,0,0,1-.12.2l0,0-.2.08a2,2,0,0,1-.48.24q-.56.24-1.4.56l-1.48.48a3.63,3.63,0,0,1-.52.16.44.44,0,0,0-.2,0h-.2a.49.49,0,0,1-.32-.36.17.17,0,0,0,0-.12v-.08a.26.26,0,0,1,0-.28A3.27,3.27,0,0,1,80.86,72.41Zm4,.5c0-.11-.05-.23-.08-.36s-.12-.39-.2-.6q-.28-.92-.92-1a1.73,1.73,0,0,0-1.26.46,3.88,3.88,0,0,0-1.12,1.4A2.29,2.29,0,0,0,81,74.31v0l.52-.12q.6-.2,1.44-.52t1.4-.52l.44-.2,0,0Z"/><path d="M98.7,74.51a.27.27,0,0,1,0-.24,5,5,0,0,0-.8-1.72.81.81,0,0,0-.74-.38,1.37,1.37,0,0,0-.78.54,6.1,6.1,0,0,0-.84,1.4,13.42,13.42,0,0,0-1,4.26,9.13,9.13,0,0,0,.48,4.1q.6,1.28,1.32,1.32A3,3,0,0,0,98,83.51a1,1,0,0,0,.36-.84l-.08-1.24a2.19,2.19,0,0,1,.24-1.28L98.7,80l.2-.08a2.48,2.48,0,0,1,.48-.16q.56-.16,1.36-.32t1.36-.24h.68a.5.5,0,0,1,.24.12.72.72,0,0,1,.16.68,1,1,0,0,1,0,.18l0,.18a.53.53,0,0,0,0,.12,7.88,7.88,0,0,1-.6,3A7.17,7.17,0,0,1,100.84,86a5.78,5.78,0,0,1-2.52,1.42,5.52,5.52,0,0,1-3.14-.12,5.15,5.15,0,0,1-3.08-2.4q-1.12-2-.76-6.84a18.7,18.7,0,0,1,1.36-6.76,6.9,6.9,0,0,1,1.6-2.18,6.27,6.27,0,0,1,2.24-1.42,3,3,0,0,1,2.16.2,6.34,6.34,0,0,1,2.08,1.52,6.65,6.65,0,0,1,1.32,2,2.11,2.11,0,0,1,0,1.92.26.26,0,0,1-.12.12l-.08.08-.32.24-.92.6q-1.24.8-1.5.92a.25.25,0,0,1-.38-.12.27.27,0,0,1,0-.28Zm.6,0,1.12-.68.88-.6.32-.2.08-.08a1.78,1.78,0,0,0-.12-1.4,5.59,5.59,0,0,0-1.2-1.8,6.2,6.2,0,0,0-1.88-1.38,2.35,2.35,0,0,0-1.8-.18,5,5,0,0,0-2,1.28,7.52,7.52,0,0,0-1.5,2,19.52,19.52,0,0,0-1.32,6.56q-.28,4.72.72,6.56a5.35,5.35,0,0,0,5.58,2.22,5.67,5.67,0,0,0,2.28-1.28A6.23,6.23,0,0,0,102,83.31a7.37,7.37,0,0,0,.56-2.84s0-.21.08-.56c0-.08,0-.13,0-.16h-.48l-1.32.24c-.48.11-.91.21-1.28.32l-.44.12-.12.08a1.53,1.53,0,0,0-.12.88c.05.85.08,1.29.08,1.32A1.56,1.56,0,0,1,98.38,84a3.13,3.13,0,0,1-2,.4q-1.08,0-1.8-1.64a9.83,9.83,0,0,1-.56-4.4,13.35,13.35,0,0,1,1.08-4.4A7.49,7.49,0,0,1,96,72.35a1.88,1.88,0,0,1,1.16-.76,1.28,1.28,0,0,1,1.2.6,5.37,5.37,0,0,1,1,2,.27.27,0,0,1,0,.24Z"/><path d="M108.5,71.67l-.56.24a3.76,3.76,0,0,0-.48.24.91.91,0,0,1-1.08-.2,3.39,3.39,0,0,1-.32-1.8v-.28a3.31,3.31,0,0,1,0-.4,1.21,1.21,0,0,1,.2-.88,1.28,1.28,0,0,1,.92-.36,5.39,5.39,0,0,1,1.08,0c.51.05.84.08,1,.08a1,1,0,0,0,.6-.2v0c0-.08.05-.17.08-.28v-1q0-.88-.16-2.76l-.2-2.76a5.67,5.67,0,0,1,0-1,1.19,1.19,0,0,1,0-.36.42.42,0,0,1,.16-.28.78.78,0,0,1,.56-.16,2.23,2.23,0,0,1,.72,0,5,5,0,0,1,1,.24.17.17,0,0,1,.12,0,.25.25,0,0,1,.28.28v4.64q0,1.76.08,2.8a7.75,7.75,0,0,0,0,.92.56.56,0,0,0,0,.24h0a1.21,1.21,0,0,0,.44,0q.32,0,1.24-.08t1.28-.08a2.16,2.16,0,0,1,.48,0,.76.76,0,0,1,.44.16.5.5,0,0,1,.12.24v.6a4.24,4.24,0,0,1,0,.44v.24l.08.64a4.25,4.25,0,0,0,.08.44,1.19,1.19,0,0,1,0,.36.73.73,0,0,1-.44.4,2.91,2.91,0,0,1-.6.12,13.56,13.56,0,0,1-1.48,0l-.72,0-.76,0h-.44a.36.36,0,0,1,0,.16,16.85,16.85,0,0,1,.2,2.92q0,.24.36,6.4.16,2.24.16,3.56a9.61,9.61,0,0,1-.16,2.24.75.75,0,0,1-.56.44,2.35,2.35,0,0,1-.68.16,2.74,2.74,0,0,1-1.32-.12.48.48,0,0,1-.28-.28l-.12-.44q-.08-.48-.16-1.28-.12-1.4-.2-3.8v-7q0-.4,0-.8a7.85,7.85,0,0,0,0-1q0-.84,0-1.32c0-.16-.05-.29-.08-.4a0,0,0,0,1,0,0A1.41,1.41,0,0,0,108.5,71.67ZM116,69.12a1.38,1.38,0,0,0-.4,0q-.32,0-1.24.08t-1.28.08a1.38,1.38,0,0,1-.48,0,1,1,0,0,1-.44-.16.44.44,0,0,1-.08-.16.17.17,0,0,1,0-.12,1.05,1.05,0,0,1,0-.32,8,8,0,0,1,0-.92q0-1-.08-2.84V60.36a6.76,6.76,0,0,0-1-.2,1.61,1.61,0,0,0-.6,0h-.24v.24a5.23,5.23,0,0,0,0,.92l.2,2.76q.16,1.92.16,2.8v1c0,.13-.05.25-.08.36a.61.61,0,0,1-.16.32,1.44,1.44,0,0,1-1,.36q-.36,0-1.12-.08a4.28,4.28,0,0,0-1,0,.68.68,0,0,0-.56.2,1.32,1.32,0,0,0,0,.44c0,.08,0,.21,0,.38s0,.29,0,.34a2.64,2.64,0,0,0,.24,1.44c.05.11.19.12.4,0l.44-.2a3.69,3.69,0,0,1,.6-.28,2,2,0,0,1,1.36-.08.64.64,0,0,1,.32.4c0,.13.05.29.08.48a9.38,9.38,0,0,1,.08,1.36,8.75,8.75,0,0,1,0,1c0,.25,0,.51,0,.78v7q.08,2.36.2,3.72A6.18,6.18,0,0,0,110.5,87a2.78,2.78,0,0,0,.08.32l0,0a3.39,3.39,0,0,0,1,0,2.91,2.91,0,0,0,.6-.12c.11,0,.16-.05.16-.08a8,8,0,0,0,.16-2.08q0-1.28-.16-3.52-.36-6.2-.36-6.44a15.73,15.73,0,0,0-.2-2.84v0a.5.5,0,0,1-.08-.12.42.42,0,0,1,.08-.44.39.39,0,0,1,.2-.16.55.55,0,0,1,.24,0h.52l.78,0,.7,0a12.76,12.76,0,0,0,1.44,0l.44-.08.08,0s0-.09,0-.18a2.77,2.77,0,0,1,0-.38c-.08-.43-.12-.67-.12-.72V70c0-.21,0-.35,0-.4v-.44Z"/><path d="M122.34,67.55a4.86,4.86,0,0,1,.88,0,1.09,1.09,0,0,1,.68.32.36.36,0,0,1,0,.16.34.34,0,0,1,0,.16,2.5,2.5,0,0,1,0,.48q0,.52,0,1.48v4.36q0,1.4,0,3.08t0,2.8q0,1.12,0,1.4v.56c0,.32,0,.68,0,1.08s0,.77,0,1.12c0,.69-.05,1.24-.08,1.64s-.05.47-.08.6a1.19,1.19,0,0,1-.08.24.36.36,0,0,1-.2.2,3,3,0,0,1-1.28.28,2.1,2.1,0,0,1-.72,0A.76.76,0,0,1,121,87a4.25,4.25,0,0,1-.08-1.52c0-.11,0-.25,0-.44s0-.31,0-.36q0-.44,0-.68,0-1.84,0-8.16,0-4.84-.16-7.6a.36.36,0,0,1-.2-.24.23.23,0,0,1,.16-.28c0-.19.08-.28.24-.28a.29.29,0,0,1,.28.16A6.65,6.65,0,0,1,122.34,67.55Zm-1.28-5.08a1.43,1.43,0,0,1,1.1-.64,1.57,1.57,0,0,1,1.14.36,2.35,2.35,0,0,1,.8,1,1.57,1.57,0,0,1,.08,1.2,1.27,1.27,0,0,1-1,.88,1.75,1.75,0,0,1-1.36-.16A1.44,1.44,0,0,1,120.9,64a1.94,1.94,0,0,1,.2-1.12A.27.27,0,0,1,121.06,62.48Zm2.08,5.64a3.47,3.47,0,0,0-.76,0,6.29,6.29,0,0,0-1,.08q.2,2.8.16,7.68,0,6.32,0,8.16,0,.24,0,.72,0,.08,0,.36c0,.19,0,.32,0,.4a3.3,3.3,0,0,0,.08,1.36s.05.05.16.08a2,2,0,0,0,.56,0,2.23,2.23,0,0,0,1-.16.17.17,0,0,0,0-.12c0-.13.05-.31.08-.52,0-.37.05-.91.08-1.6,0-.35,0-.72,0-1.12s0-.76,0-1.08v-.56q0-.28,0-1.4t0-2.8q0-1.68,0-3.08V70.15q0-1,0-1.48a1.71,1.71,0,0,0,0-.4V68.2A1.19,1.19,0,0,0,123.14,68.12Zm-1.68-4.28a1.06,1.06,0,0,0,.56.76,1.45,1.45,0,0,0,1,.12.76.76,0,0,0,.6-.52,1.32,1.32,0,0,0-.64-1.56,1.09,1.09,0,0,0-1-.16A2,2,0,0,0,121.46,63.84Z"/><path d="M131.18,67.83a4.38,4.38,0,0,1,3.16-.08,7.21,7.21,0,0,1,3.4,2,7,7,0,0,1,1.92,3.52,12.46,12.46,0,0,1,.12,3.44,20,20,0,0,1-.68,4.2q-1.4,5.16-4.28,5.92t-5.28-2.2a10.92,10.92,0,0,1-2.24-5.48,15.77,15.77,0,0,1,.08-3.1,20.45,20.45,0,0,1,.72-3.7,10.44,10.44,0,0,1,1.56-3.32,4,4,0,0,1,1.48-1.24Zm-1.08,1.6a9.46,9.46,0,0,0-1.48,3.12,22.17,22.17,0,0,0-.68,3.6,14.48,14.48,0,0,0-.08,3A10.67,10.67,0,0,0,130,84.35q2.08,2.64,4.68,2t3.88-5.52a19.52,19.52,0,0,0,.7-4.08,11.84,11.84,0,0,0-.14-3.32,6.49,6.49,0,0,0-1.76-3.22,6.26,6.26,0,0,0-3.16-1.86,5.7,5.7,0,0,0-1.72-.2.36.36,0,0,1-.16,0A2.81,2.81,0,0,0,130.1,69.43Zm1.4,3a3.1,3.1,0,0,1,3.32-1.24,3.31,3.31,0,0,1,2.2,2.92,14.48,14.48,0,0,1-.4,5.2A9.75,9.75,0,0,1,135.7,82a2.15,2.15,0,0,1-1.6,1.32,3.16,3.16,0,0,1-3-1.4,7.21,7.21,0,0,1-1.16-3.76,9.33,9.33,0,0,1,.56-3.92,6.4,6.4,0,0,1,.92-1.6A.23.23,0,0,1,131.5,72.43Zm-.44,2a8.36,8.36,0,0,0-.56,3.68,6.21,6.21,0,0,0,1,3.44,2.73,2.73,0,0,0,2.58,1.2q.56,0,1.12-1a10.63,10.63,0,0,0,.84-2.52,13.19,13.19,0,0,0,.4-5,2.7,2.7,0,0,0-1.8-2.44A2.23,2.23,0,0,0,133,72a.26.26,0,0,1-.2.32A3.27,3.27,0,0,0,131.06,74.39Z"/><path d="M147.26,87a.27.27,0,0,1-.08.2.26.26,0,0,1,.16.24.25.25,0,0,1-.28.28l-.72,0q-.76,0-1.08.08c-.43,0-.77,0-1,0a1.5,1.5,0,0,1-.44-.12.48.48,0,0,1-.32-.28.23.23,0,0,1,0-.16.56.56,0,0,1,0-.24,4,4,0,0,1,0-.64q0-.8,0-2.2,0-2.52,0-6.52.08-9.24.28-10.56a.25.25,0,0,1,.32-.24.16.16,0,0,1,.16.12q.52-.12,1.08-.2a5.09,5.09,0,0,1,.8-.08.65.65,0,0,1,.32,0,.43.43,0,0,1,.32.12l.08.12v3.4a6.41,6.41,0,0,1,.8-1.28,7.53,7.53,0,0,1,3.32-2.52,3.9,3.9,0,0,1,4.08.44,2.7,2.7,0,0,1,.72,1.12,12.12,12.12,0,0,1,.44,1.72,33,33,0,0,1,.44,4.6q.08,1.72.08,8.16V87a.31.31,0,0,0,0,.12v.12a.45.45,0,0,1-.08.12.5.5,0,0,1-.24.12H155l-.24,0-.4.12-.44.08a.16.16,0,0,0-.12,0h-.12a.35.35,0,0,1-.16,0,.53.53,0,0,1-.2-.44.3.3,0,0,0,0-.12V87q0-.88,0-3.32.16-3.4.16-4.48A34.74,34.74,0,0,0,153.5,75a6.33,6.33,0,0,0-.6-2.64,2,2,0,0,0-1.52-.8q-1.28-.2-2.16,1.64a17.3,17.3,0,0,0-1.32,4.64,55.84,55.84,0,0,0-.6,8.2.28.28,0,0,1,.08.28l-.08.24v.16a.36.36,0,0,1,0,.16ZM146,67.28a4.31,4.31,0,0,0-.76.08,9.44,9.44,0,0,0-1.12.2q-.16,2.16-.24,10.12,0,3.88,0,6.52,0,1.4,0,2.16a3.79,3.79,0,0,0,0,.64v.2H144a1.2,1.2,0,0,0,.28.08,8.89,8.89,0,0,0,1,0l1-.08a2.08,2.08,0,0,0,.48,0,.23.23,0,0,1-.08-.16v-.44a.35.35,0,0,1,0-.16,60,60,0,0,1,.64-8.72,16.32,16.32,0,0,1,1.32-4.8q1.12-2.2,2.76-2a2.63,2.63,0,0,1,1.92,1,6.75,6.75,0,0,1,.68,2.92,35.68,35.68,0,0,1,.08,4.32q0,1.12-.16,4.48-.08,2.44,0,3.32v.12l.32-.08.4-.08.28-.08h1V82.59q0-6.4-.08-8.12a31.91,31.91,0,0,0-.44-4.56,8.15,8.15,0,0,0-.4-1.62,1.82,1.82,0,0,0-.52-.82,3.39,3.39,0,0,0-3.56-.4,7.06,7.06,0,0,0-3,2.32,6.5,6.5,0,0,0-1.2,2.28,4.81,4.81,0,0,0-.12.52v.52a.12.12,0,0,0,0,.08.24.24,0,0,1-.32.12l-.16-.12a.11.11,0,0,1,0-.08v-.6q0-1,0-2.44v-2.4S146,67.25,146,67.28ZM156.1,86.91h0Z"/></g><g id="コンテンツ-2" data-name="コンテンツ"><path class="cls-2" d="M10.43,41.58a1.8,1.8,0,0,0-1.45,0A.8.8,0,1,0,10.43,41.58Z"/><path class="cls-2" d="M17.09,51.71c-.39,1.3,1.17,1.41,1.74.87C19,51.54,18,51.69,17.09,51.71Z"/><path class="cls-2" d="M0,52.86c-.15,1.33,1,1.17,1.74.87C1.78,52.84.88,52.87,0,52.86Z"/><path class="cls-2" d="M10.14,60.68c-.82-.24-.75.41-1.45.29-.36,1.64,1.64,1.27,1.74.29C10.21,61.19,10.09,61,10.14,60.68Z"/><path class="cls-2" d="M13.31,51.33a5.19,5.19,0,0,1-.77.2l-.38-.25c-.91-.59-1.77-1.16-1.81-2.2l.08,0c-.55-1.38.46-2.85,0-4.05-.37,0-.4-.37-.87-.29C9,45.88,9.1,47.57,8.7,48.81l0,.05a.4.4,0,0,0-.26.24,5.38,5.38,0,0,1-1.56,2,10.47,10.47,0,0,0-1.12,1.19,2.86,2.86,0,0,0-1.7.86c.71.23,1.12.76,2,.86a3.15,3.15,0,0,1,1.8,2v0a1.55,1.55,0,0,0,.27.6c0,.92-.29,2.21.87,2,.59-.28.62-1.11.58-2l-.1-.08,0,0a32.8,32.8,0,0,1,3.17-3.92,6,6,0,0,0,1-.24ZM9,55.76h-.3a4,4,0,0,0-2.33-2.58l0,0v-.32A9.26,9.26,0,0,1,7.45,51.7a6.67,6.67,0,0,0,1.64-2c.17,0,.26-.17.4-.24A4.05,4.05,0,0,0,11.68,52l.22.15A33.93,33.93,0,0,0,9,55.76Z"/><path class="cls-2" d="M168.5,39.24a1.8,1.8,0,0,0-1.45,0A.8.8,0,1,0,168.5,39.24Z"/><path class="cls-2" d="M175.15,49.37c-.39,1.3,1.17,1.41,1.74.87C177.06,49.2,176,49.35,175.15,49.37Z"/><path class="cls-2" d="M158.08,50.52c-.15,1.33,1,1.17,1.74.87C159.84,50.5,158.94,50.53,158.08,50.52Z"/><path class="cls-2" d="M168.21,58.34c-.82-.24-.75.41-1.45.29-.36,1.64,1.64,1.27,1.74.29C168.27,58.85,168.16,58.67,168.21,58.34Z"/><path class="cls-2" d="M171.37,49a5.19,5.19,0,0,1-.77.2l-.38-.25c-.91-.59-1.77-1.16-1.81-2.2l.08,0c-.55-1.38.46-2.85,0-4.05-.37,0-.4-.37-.87-.29-.52,1.12-.47,2.82-.87,4.05l0,.05a.4.4,0,0,0-.26.24,5.38,5.38,0,0,1-1.56,2A10.47,10.47,0,0,0,163.83,50a2.86,2.86,0,0,0-1.7.86c.71.23,1.12.76,2,.86a3.15,3.15,0,0,1,1.8,2v0a1.55,1.55,0,0,0,.27.6c0,.92-.29,2.21.87,2,.59-.28.62-1.11.58-2l-.1-.08,0,0a32.8,32.8,0,0,1,3.17-3.92,6,6,0,0,0,1-.24ZM167,53.42h-.3a4,4,0,0,0-2.33-2.58l0,0V50.5a9.26,9.26,0,0,1,1.07-1.14,6.67,6.67,0,0,0,1.64-2c.17,0,.26-.17.4-.24a4.05,4.05,0,0,0,2.18,2.6l.22.15A33.93,33.93,0,0,0,167,53.42Z"/><path class="cls-1" d="M73.7,54a.79.79,0,0,1-.6-1.31,32.44,32.44,0,0,0,4.81-8.56.79.79,0,0,1,1.46.62,33.77,33.77,0,0,1-5.06,9,.79.79,0,0,1-.6.28Z"/><path class="cls-1" d="M78.63,45.24a.81.81,0,0,1-.81-.72,9.76,9.76,0,0,1,.09-2.39c.05-.42.11-.85.12-1.27a.81.81,0,1,1,1.63.05c0,.48-.07,1-.13,1.42a8.41,8.41,0,0,0-.09,2,.81.81,0,0,1-.71.9Z"/><path class="cls-1" d="M88.8,45.79a86.63,86.63,0,0,1-10.26-.63.74.74,0,1,1,.18-1.48c9.69,1.15,18.25.71,29.57-1.49S136,32.64,134.63,21.47c-.38-3-3-7.5-7.87-10.81C115.47,3,100.43,1.8,89.8,2.11c-10,.29-28,5.73-34.53,14.79a12,12,0,0,0-2,11c2.67,9,12.38,12.74,20.06,14.33a.74.74,0,0,1-.3,1.46c-11.58-2.4-18.91-7.71-21.19-15.36A13.46,13.46,0,0,1,54.06,16C61,6.46,79.23.94,89.75.62,100.6.3,116,1.57,127.6,9.42c5.66,3.82,8.12,8.78,8.51,11.86,1.44,11.41-13.26,19.6-27.53,22.38A101.63,101.63,0,0,1,88.8,45.79Z"/></g></svg>