<?xml version="1.0" encoding="utf-8"?>
<!-- Generator: Adobe Illustrator 21.0.0, SVG Export Plug-In . SVG Version: 6.00 Build 0)  -->
<svg version="1.1" id="レイヤー_1" xmlns="http://www.w3.org/2000/svg" xmlns:xlink="http://www.w3.org/1999/xlink" x="0px"
	 y="0px" viewBox="0 0 257 108" style="enable-background:new 0 0 257 108;" xml:space="preserve">
<style type="text/css">
	.st0{clip-path:url(#SVGID_2_);}
	.st1{fill:#0071B2;}
	.st2{fill:#333333;}
</style>
<title>bar-アートボード 63</title>
<g id="コンテンツ">
	<g>
		<defs>
			<rect id="SVGID_1_" x="-471.8" y="154.6" width="1200" height="146"/>
		</defs>
		<clipPath id="SVGID_2_">
			<use xlink:href="#SVGID_1_"  style="overflow:visible;"/>
		</clipPath>
		<g class="st0">
		</g>
	</g>
</g>
<path class="st1" d="M23.3,92.2c0-0.1,0-0.2,0-0.3c-0.2-0.6-0.4-1.3-0.8-1.8c-0.2-0.3-0.5-0.4-0.8-0.4c-0.3,0.1-0.6,0.3-0.8,0.6
	c-0.4,0.4-0.7,0.9-0.9,1.5c-0.6,1.4-0.9,2.9-1,4.5c-0.2,1.4,0,2.9,0.5,4.3c0.4,0.9,0.9,1.4,1.4,1.4c0.6,0.1,1.2,0,1.8-0.3
	c0.3-0.2,0.4-0.5,0.4-0.9l-0.1-1.3c-0.1-0.5,0-0.9,0.3-1.3l0.2-0.2l0.2-0.1c0.2-0.1,0.3-0.1,0.5-0.2c0.4-0.1,0.9-0.2,1.4-0.3
	c0.6-0.1,1-0.2,1.4-0.3h0.7c0.1,0,0.2,0.1,0.3,0.1c0.2,0.2,0.2,0.5,0.2,0.7c0,0.1,0,0.1,0,0.2v0.2c0,0,0,0.1,0,0.1
	c0,1.1-0.2,2.2-0.6,3.2c-0.4,1-1,1.9-1.7,2.6c-0.7,0.7-1.6,1.2-2.6,1.5c-1.1,0.3-2.2,0.2-3.3-0.1c-1.4-0.4-2.6-1.3-3.3-2.6
	c-0.8-1.3-1-3.7-0.8-7.2c0-2.4,0.5-4.8,1.4-7c0.4-0.9,1-1.6,1.7-2.3c0.7-0.7,1.5-1.2,2.3-1.5c0.8-0.2,1.6-0.1,2.3,0.2
	c0.8,0.4,1.6,0.9,2.2,1.6c0.6,0.6,1,1.3,1.4,2.1c0.3,0.6,0.3,1.4,0,2c0,0.1-0.1,0.1-0.1,0.1l-0.1,0.1l-0.3,0.3l-1,0.6
	c-0.9,0.6-1.4,0.9-1.6,1c-0.1,0.1-0.3,0-0.4-0.1c0,0,0,0,0-0.1c-0.1-0.1-0.1-0.2,0-0.3L23.3,92.2z"/>
<path class="st1" d="M24,92.3l1.2-0.7l0.9-0.6l0.3-0.2l0.1-0.1c0.2-0.5,0.1-1-0.1-1.5c-0.3-0.7-0.7-1.3-1.3-1.9
	c-0.6-0.6-1.2-1.1-2-1.4c-0.6-0.3-1.3-0.4-1.9-0.2c-0.8,0.3-1.5,0.7-2.1,1.3c-0.6,0.6-1.2,1.3-1.6,2.1c-0.9,2.2-1.3,4.5-1.4,6.9
	c-0.2,3.3,0.1,5.6,0.8,6.9c0.6,1.1,1.7,1.9,2.9,2.2c0.9,0.4,2,0.4,3,0.2c0.9-0.3,1.7-0.7,2.4-1.3c0.7-0.7,1.3-1.5,1.6-2.4
	c0.4-1,0.6-2,0.6-3c0,0,0-0.2,0.1-0.6c0-0.1,0-0.1,0-0.2h-0.5c-0.4,0.1-0.8,0.1-1.4,0.3c-0.6,0.1-1,0.2-1.3,0.3l-0.5,0.1l-0.1,0.1
	c-0.1,0.3-0.2,0.6-0.1,0.9c0.1,0.9,0.1,1.4,0.1,1.4c0,0.5-0.2,1-0.6,1.3c-0.6,0.4-1.4,0.5-2.1,0.4c-0.8,0-1.4-0.6-1.9-1.7
	c-0.5-1.5-0.7-3-0.6-4.6c0.1-1.6,0.5-3.1,1.1-4.6c0.3-0.6,0.6-1.1,1-1.6c0.3-0.4,0.7-0.7,1.2-0.8c0.5,0,1,0.2,1.3,0.6
	c0.5,0.6,0.8,1.3,1,2c0,0.1,0,0.2,0,0.3L24,92.3z"/>
<path class="st1" d="M40.6,104.5c-0.5,0.5-1.1,0.9-1.8,1.3c-0.7,0.4-1.6,0.6-2.4,0.5c-1.1-0.2-2-0.7-2.7-1.6
	c-1.1-1.2-1.7-3.6-1.8-7.2c0-1,0-2.4,0-4.2s0-2.9,0-3.5l0-2.5v-1.5c0-0.2,0-0.3,0-0.5c0-0.1,0-0.1,0-0.2c0-0.1,0.1-0.2,0.2-0.3
	c0.2-0.1,0.5-0.2,0.8-0.2c0.3,0,0.6,0,0.9,0l0.9,0.1l0.7,0.1c0.1,0,0.3,0.1,0.3,0.3c0,0,0,0,0,0.1c0,0.1-0.1,0.3-0.3,0.3
	c0,0,0,0,0,0c0,0.8,0,2.1,0,3.7c0,1.6,0,2.8,0,3.5c0,3.2,0.1,5.6,0.3,7.3c0.1,0.5,0.2,0.9,0.5,1.3c0.3,0.4,0.7,0.7,1.1,0.8
	c0.9,0.4,1.9,0.1,2.4-0.8c1.1-1.6,1.7-4.1,1.7-7.5c0-0.5,0-1.9-0.1-4.2c0-1.7,0-3,0.1-3.9v-0.2c0-0.1,0.1-0.3,0.2-0.4
	c0.2-0.1,0.4-0.2,0.6-0.2l0.8-0.1c0.3,0,0.5,0,0.8,0c0.1,0,0.2,0,0.3,0c0.1,0,0.2,0.1,0.3,0.2c0.2,0.3,0.3,0.7,0.3,1.1
	c0,0.4,0,1,0.1,1.6c0,0.4,0,0.9,0,1.6c0,0.7,0,1.1,0,1.2c0.1,2.1,0.1,4.8,0.1,7.9c0,2,0,3.6,0,4.8c0,0.7,0,1.2-0.1,1.6
	c0,0.2,0,0.3-0.1,0.5c0,0.1-0.1,0.3-0.2,0.4c-0.1,0.1-0.2,0.1-0.3,0.2c-0.1,0-0.3,0-0.4,0c-0.3,0-0.6,0-0.9,0l-0.9-0.1l-0.4-0.1
	c-0.1,0-0.2-0.1-0.3-0.2c-0.1-0.1-0.1-0.3-0.1-0.4v-1C41,104.2,40.8,104.3,40.6,104.5z"/>
<path class="st1" d="M42,85.6v0.2c-0.1,1.3-0.1,2.5-0.1,3.8c0.1,2.3,0.1,3.8,0.1,4.3c0,3.5-0.6,6.1-1.8,7.9
	c-0.3,0.5-0.9,0.9-1.5,1.1c-0.5,0.2-1.1,0.1-1.7-0.1c-0.5-0.2-1-0.5-1.4-1c-0.4-0.5-0.6-1-0.7-1.6c-0.2-1.8-0.3-4.2-0.3-7.4
	c0-0.7,0-1.9,0-3.5s0-2.9,0-3.7l-1-0.1c-0.3,0-0.5,0-0.8,0c-0.1,0-0.3,0-0.4,0l0,0c0,0.2,0,0.3,0,0.5v1.5l0.1,2.5c0,0.6,0,1.7,0,3.5
	s0,3.1,0,4.2c0.1,3.4,0.6,5.7,1.6,6.8c0.6,0.7,1.4,1.2,2.3,1.4c0.7,0.1,1.5-0.1,2.1-0.5c0.6-0.4,1.1-0.8,1.6-1.3
	c0.3-0.3,0.5-0.4,0.6-0.5l0.3-0.2c0.1,0,0.2,0,0.3,0c0.2,0.1,0.3,0.2,0.3,0.4c0,0.1,0,0.1,0,0.2v0c0,0.2,0,0.5,0,0.8v0.3
	c0,0,0,0.1,0,0.1l0,0l0.3,0.1l0.8,0.1c0.3,0,0.6,0,0.8,0c0.1,0,0.2,0,0.3,0l0,0v-0.1c0-0.1,0.1-0.3,0.1-0.5c0.1-0.5,0.1-1.1,0.1-1.6
	c0-1.1,0-2.7,0-4.7c0-3.1,0-5.7-0.1-7.9c0-0.1,0-0.5,0-1.2c0-0.7,0-1.2,0-1.6c0-0.7,0-1.2-0.1-1.6c0-0.3-0.1-0.6-0.2-0.8h-0.3H43
	l-0.8,0.1C42.2,85.5,42.1,85.5,42,85.6L42,85.6z"/>
<path class="st1" d="M52.7,86.9l0.4-0.3l0.3-0.2c1.5-0.4,3.1,0,4.2,1.1c1.2,0.9,1.9,2.3,2,3.8v0.3c0,0.1,0,0.3-0.1,0.4
	c-0.1,0.1-0.2,0.2-0.4,0.3c-0.1,0.1-0.3,0.2-0.4,0.2l-0.4,0.2l-0.3,0.1L57.8,93c-0.1,0.1-0.3,0.2-0.5,0.2c-0.3,0.2-0.8,0.2-1.1,0
	c-0.1-0.1-0.2-0.3-0.3-0.4c0-0.1-0.1-0.3-0.3-0.6c-0.2-0.5-0.4-1-0.7-1.5c-0.2-0.4-0.5-0.7-0.9-0.8c-0.4-0.1-0.8,0.2-1.3,0.8
	c-0.5,0.9-0.8,2-0.8,3c-0.1,1.6-0.2,3.3-0.1,4.9c0,0.3,0,1,0,2.2c0,1.2,0,2,0,2.5c0,0.5,0,1.1-0.1,1.6c0,0.2,0,0.4-0.1,0.5
	c0,0.2-0.1,0.3-0.3,0.4c-0.2,0.1-0.5,0.2-0.8,0.2c-0.3,0-0.6,0-1,0c-0.3,0-0.7-0.1-1-0.2c-0.1,0-0.3-0.1-0.4-0.1
	c-0.1-0.1-0.2-0.2-0.3-0.3c-0.1-0.4-0.1-0.8-0.1-1.2c0-0.6,0-1.3,0-2.2c0-1.7,0-3.8,0.1-6.3c0.1-4.7,0.2-8,0.4-10
	c-0.1-0.1-0.1-0.1-0.1-0.2c0-0.1,0.1-0.2,0.2-0.3c0.1-0.1,0.2-0.2,0.3-0.2c0.1,0,0.2,0,0.2,0.1c0.5,0,1.5,0,3.1,0
	c0.1,0,0.3,0.1,0.3,0.2c0,0,0,0,0,0.1l0,0c0.1,0.1,0.1,0.1,0.1,0.3c0,0.1,0,0.2,0,0.4v0.6c0,0.2,0,0.3,0,0.5l0,0
	C52.5,87.1,52.6,87,52.7,86.9z"/>
<path class="st1" d="M51.2,105.2c0-0.2,0-0.3,0-0.5c0.1-0.5,0.1-1,0.1-1.5c0-0.5,0-1.3,0-2.5s0-1.9,0-2.2c0-2.1,0-3.8,0.1-5
	c0-1.2,0.3-2.3,0.9-3.3c0.5-0.9,1.5-1.2,2.4-0.7c0.4,0.2,0.6,0.5,0.8,0.9c0.3,0.5,0.6,1,0.8,1.6c0.1,0.2,0.2,0.4,0.3,0.6
	c0,0.1,0.1,0.2,0.1,0.3c0.1,0.1,0.2,0,0.5-0.1c0.1,0,0.3-0.1,0.4-0.2c0.1-0.1,0.2-0.1,0.3-0.2l0.3-0.1l0.4-0.2l0.4-0.2h0.1v-0.3
	c-0.1-1.4-0.7-2.6-1.8-3.4c-1-0.9-2.4-1.3-3.7-0.9c-0.1,0-0.1,0-0.2,0.1L53,87.4c-0.1,0.1-0.3,0.2-0.4,0.3l-0.2,0.1
	c-0.1,0-0.2,0-0.3,0c-0.2-0.1-0.3-0.3-0.3-0.5c0-0.2,0-0.4,0-0.7V86c0-0.3,0-0.4,0-0.4c-1.4,0-2.4,0-2.9,0c-0.1,2-0.3,5.3-0.4,10
	c-0.1,2.5-0.1,4.6-0.1,6.2c0,0.9,0,1.7,0,2.2c0,0.3,0,0.7,0.1,1l0,0l0.3,0.1c0.3,0.1,0.6,0.1,0.9,0.1c0.3,0,0.6,0,0.9,0
	c0.2,0,0.3,0,0.5-0.1L51.2,105.2z"/>
<path class="st1" d="M67.5,86.9l0.4-0.3l0.3-0.2c1.5-0.4,3.1,0,4.2,1.1c1.2,0.9,1.9,2.3,2,3.8v0.3c0,0.1,0,0.3-0.1,0.4
	c-0.1,0.1-0.2,0.2-0.4,0.3c-0.1,0.1-0.3,0.2-0.4,0.2l-0.4,0.2l-0.3,0.1L72.5,93c-0.1,0.1-0.3,0.2-0.5,0.2c-0.3,0.2-0.8,0.2-1.1,0
	c-0.1-0.1-0.2-0.3-0.3-0.4c0-0.1-0.1-0.3-0.3-0.6c-0.2-0.5-0.5-1-0.8-1.4c-0.2-0.4-0.5-0.7-0.9-0.8c-0.4-0.1-0.8,0.2-1.3,0.8
	c-0.5,0.9-0.8,2-0.8,3c-0.1,1.6-0.2,3.3-0.1,4.9c0,0.3,0,1,0,2.2s0,2,0,2.5c0,0.5,0,1.1-0.1,1.6c0,0.2,0,0.4-0.1,0.5
	c0,0.2-0.1,0.3-0.3,0.4c-0.2,0.1-0.5,0.2-0.8,0.2c-0.3,0-0.6,0-1,0c-0.3,0-0.7-0.1-1-0.2c-0.1,0-0.3-0.1-0.4-0.1
	c-0.1-0.1-0.2-0.2-0.3-0.3c-0.1-0.4-0.1-0.8-0.1-1.2c0-0.6,0-1.3,0-2.2c0-1.7,0-3.8,0.1-6.3c0.1-4.7,0.2-8,0.4-10
	C63,85.6,63,85.5,63,85.4c0-0.1,0.1-0.2,0.2-0.3c0.1-0.1,0.2-0.2,0.3-0.2c0.1,0,0.2,0,0.2,0.1c0.5,0,1.5,0,3.1,0
	c0.1,0,0.3,0.1,0.3,0.2c0,0,0,0,0,0.1l0,0c0.1,0.1,0.1,0.1,0.1,0.3c0,0.1,0,0.2,0,0.4v0.6c0,0.2,0,0.3,0,0.5l0,0
	C67.2,87.1,67.4,87,67.5,86.9z"/>
<path class="st1" d="M65.9,105.2c0-0.2,0-0.3,0-0.5c0.1-0.5,0.1-1,0.1-1.5c0-0.5,0-1.3,0-2.5s0-1.9,0-2.2c0-2.1,0-3.8,0.1-5
	c0-1.2,0.3-2.3,0.9-3.3c0.5-0.9,1.5-1.2,2.4-0.7c0.4,0.2,0.6,0.5,0.8,0.9c0.3,0.5,0.6,1,0.8,1.5c0.1,0.2,0.2,0.4,0.3,0.6
	c0,0.1,0.1,0.2,0.1,0.3c0.1,0.1,0.2,0,0.5-0.1c0.1,0,0.3-0.1,0.4-0.2c0.1-0.1,0.2-0.1,0.3-0.2l0.3-0.1l0.4-0.2l0.4-0.2h0.1v-0.3
	c-0.1-1.4-0.7-2.6-1.8-3.5c-1-0.9-2.4-1.3-3.7-0.9c-0.1,0-0.1,0-0.2,0.1l-0.4,0.3c-0.1,0.1-0.3,0.2-0.4,0.3l-0.2,0.1
	c-0.1,0-0.2,0-0.3,0c-0.2-0.1-0.3-0.3-0.3-0.5c0-0.2,0-0.4,0-0.7V86c0-0.3,0-0.4,0-0.4c-1.4,0-2.4,0-2.9,0c-0.1,2-0.3,5.3-0.4,10
	c-0.1,2.5-0.1,4.6-0.1,6.2c0,0.9,0,1.7,0,2.2c0,0.3,0,0.7,0.1,1l0,0l0.3,0.1c0.3,0.1,0.6,0.1,0.9,0.1c0.3,0,0.6,0,0.9,0
	c0.2,0,0.3,0,0.5-0.1L65.9,105.2z"/>
<path class="st1" d="M83.2,95.9h-0.3c-0.1,0-0.3,0.1-0.4,0.1c-0.3,0.1-0.4,0.2-0.5,0.2c0,0.1-0.1,0.3-0.1,0.4c0,0.2,0,0.4,0,0.8
	c0.1,0.7,0.2,1.3,0.4,2c0.2,0.7,0.4,1.3,0.8,1.9c0.3,0.5,0.5,0.8,0.8,0.8c0.9,0.1,1.7-0.1,2.4-0.7c0.7-0.6,1.2-1.4,1.4-2.4
	c0-0.2,0-0.3,0-0.5c0-0.3,0.1-0.5,0.2-0.7c0.1-0.1,0.2-0.2,0.4-0.2c0.1,0,0.3,0,0.4,0c0.3,0,0.7,0,1,0.1c0.3,0.1,0.7,0.1,1,0.2
	c0.1,0,0.3,0.1,0.4,0.2c0.1,0.1,0.2,0.2,0.3,0.3c0.2,0.5,0.2,1,0.1,1.4c-0.1,0.4-0.2,0.8-0.3,1.3c-0.4,1-1,2-1.9,2.7
	c-0.8,0.8-1.8,1.4-2.8,1.7c-1,0.4-2.2,0.5-3.3,0.4c-1.1-0.1-2.2-0.5-3.2-1.1c-1.4-1-2.3-2.8-2.6-5.4c-0.2-2.6,0.1-5.1,0.9-7.6
	c0.7-2.4,2-4.5,3.9-6.1c1.8-1.5,4.3-1.9,6.5-1c0.8,0.4,1.4,1.1,1.7,1.9c0.4,0.9,0.7,1.9,0.9,2.9c0.2,1,0.2,1.9,0.2,2.9
	c0,0.3-0.1,0.7-0.2,1c0,0.3-0.2,0.5-0.4,0.7c-0.5,0.2-1,0.3-1.5,0.4l-2.4,0.5c-1.5,0.3-2.6,0.5-3.3,0.6
	C83.3,95.8,83.2,95.9,83.2,95.9z"/>
<path class="st1" d="M86.6,94.6c0.9-0.2,1.8-0.4,2.4-0.6c0.5-0.1,0.9-0.2,1.4-0.4c0.1,0,0.1-0.1,0.2-0.3c0.1-0.3,0.2-0.6,0.2-0.9
	c0-0.9-0.1-1.8-0.2-2.7c-0.2-1-0.4-1.9-0.8-2.8c-0.2-0.7-0.7-1.2-1.4-1.6c-2-0.9-4.3-0.5-5.9,0.9c-1.8,1.6-3,3.6-3.6,5.9
	c-0.8,2.4-1.1,4.8-0.8,7.3c0.3,2.5,1,4.1,2.3,5c1.2,0.8,2.5,1.1,3.9,1.1c1.4-0.1,2.7-0.6,3.9-1.4c1.1-0.8,2-1.9,2.5-3.2
	c0.2-0.4,0.3-0.8,0.3-1.2c0.1-0.4,0.1-0.7,0-1.1l0,0l-0.3-0.1c-0.3-0.1-0.6-0.2-0.9-0.2c-0.3-0.1-0.6-0.1-0.9-0.1
	c-0.1,0-0.2,0-0.3,0l0,0c0,0.1,0,0.2,0,0.3c0,0.2,0,0.4,0,0.6c-0.3,1-0.9,1.9-1.7,2.7c-0.8,0.7-1.8,1-2.8,0.8
	c-0.4-0.1-0.8-0.5-1.2-1.1c-0.3-0.6-0.6-1.3-0.8-2c-0.2-0.7-0.4-1.4-0.4-2.1c0-0.3,0-0.6,0-0.8c0-0.2,0.1-0.4,0.2-0.6
	c0.2-0.3,0.5-0.5,0.8-0.5c0-0.1,0.2-0.2,0.3-0.2C84.1,95.2,85.3,94.9,86.6,94.6z"/>
<path class="st1" d="M83.1,90c0.3-0.6,0.7-1.1,1.3-1.6c0.5-0.4,1.1-0.6,1.8-0.6c0.7,0.2,1.3,0.8,1.5,1.5l0.2,0.7
	c0.1,0.1,0.1,0.3,0.1,0.4c0,0.1,0,0.3,0,0.4c0,0.1-0.1,0.2-0.1,0.2l0,0l-0.2,0.1c-0.2,0.1-0.3,0.2-0.5,0.3c-0.4,0.2-0.9,0.4-1.5,0.6
	L84,92.4c-0.2,0.1-0.4,0.1-0.5,0.2c-0.1,0-0.1,0-0.2,0H83c-0.2-0.1-0.3-0.2-0.3-0.4c0,0,0-0.1,0-0.1V92c-0.1-0.1-0.1-0.2,0-0.3
	C82.6,91.1,82.8,90.5,83.1,90z"/>
<path class="st1" d="M87.3,90.5c0-0.1-0.1-0.2-0.1-0.4S87,89.8,87,89.5c-0.2-0.7-0.5-1-1-1.1c-0.5,0-1,0.1-1.3,0.5
	c-0.5,0.4-0.9,0.9-1.2,1.5c-0.3,0.5-0.4,1.1-0.2,1.6l0,0l0.5-0.1c0.4-0.1,0.9-0.3,1.5-0.5s1.1-0.4,1.5-0.5L87.3,90.5L87.3,90.5
	L87.3,90.5z"/>
<path class="st1" d="M99.2,105.3c0,0.1,0,0.2-0.1,0.2c0.1,0,0.2,0.1,0.2,0.3c0,0.1-0.1,0.3-0.2,0.3c0,0,0,0-0.1,0h-0.8
	c-0.5,0-0.9,0-1.1,0.1c-0.4,0-0.8,0-1.1,0c-0.2,0-0.3-0.1-0.5-0.1c-0.1,0-0.3-0.1-0.3-0.3c0-0.1,0-0.1,0-0.2c0-0.1,0-0.2,0-0.3
	c0-0.2,0-0.4,0-0.7c0-0.6,0-1.3,0-2.3c0-1.8,0-4,0-6.8c0.1-6.4,0.2-10.1,0.3-11c0-0.1,0.1-0.3,0.3-0.3c0,0,0,0,0.1,0
	c0.1,0,0.2,0,0.2,0.1c0.4-0.1,0.7-0.2,1.1-0.2c0.3,0,0.6-0.1,0.8-0.1c0.1,0,0.2,0,0.3,0c0.1,0,0.2,0,0.3,0.1l0.1,0.1v3.6
	c0.2-0.5,0.5-0.9,0.8-1.3c0.9-1.2,2.1-2.1,3.5-2.6c1.4-0.7,3-0.5,4.3,0.5c0.3,0.3,0.6,0.7,0.8,1.2c0.2,0.6,0.4,1.2,0.5,1.8
	c0.3,1.6,0.4,3.2,0.5,4.8c0.1,1.2,0.1,4,0.1,8.5v4.6c0,0,0,0.1,0,0.1v0.1c0,0,0,0.1-0.1,0.1c-0.1,0.1-0.2,0.1-0.3,0.1h-1.2h-0.3
	l-0.4,0.1l-0.5,0.1c0,0-0.1,0-0.1,0h-0.1c-0.1,0-0.1,0-0.2,0c-0.1-0.1-0.2-0.3-0.2-0.5c0,0,0-0.1,0-0.1v-0.1c0-0.6,0-1.8,0-3.5
	c0.1-2.4,0.2-3.9,0.2-4.7c0.1-1.5,0-3-0.1-4.5c0-1-0.2-1.9-0.6-2.8c-0.4-0.5-1-0.8-1.6-0.8c-0.9-0.1-1.6,0.4-2.3,1.7
	c-0.7,1.5-1.1,3.2-1.4,4.8c-0.4,2.8-0.6,5.7-0.6,8.6c0.1,0.1,0.1,0.2,0.1,0.3l-0.1,0.3v0.2c0,0.1,0,0.1,0,0.2L99.2,105.3z"/>
<path class="st1" d="M97.9,84.6c-0.3,0-0.5,0-0.8,0.1c-0.4,0-0.8,0.1-1.2,0.2c-0.1,1.5-0.2,5-0.3,10.6c0,2.7,0,5,0,6.8
	c0,1,0,1.7,0,2.3c0,0.2,0,0.4,0,0.7v0.2h0.1c0.1,0,0.2,0.1,0.3,0.1c0.3,0,0.7,0,1,0l1.1-0.1c0.2,0,0.3,0,0.5,0c0,0-0.1-0.1-0.1-0.2
	v-0.5c0-0.1,0-0.1,0-0.2c0-3.1,0.2-6.1,0.7-9.1c0.2-1.7,0.7-3.4,1.4-5c0.8-1.5,1.7-2.2,2.9-2c0.8,0.1,1.5,0.5,2,1.1
	c0.5,1,0.7,2,0.7,3.1c0.1,1.5,0.1,3,0.1,4.5c0,0.8-0.1,2.3-0.2,4.7c-0.1,1.7-0.1,2.9,0,3.5v0.1l0.3-0.1l0.4-0.1l0.3-0.1h1.1v-4.5
	c0-4.5,0-7.3-0.1-8.5c0-1.6-0.2-3.2-0.5-4.8c-0.1-0.6-0.2-1.1-0.4-1.7c-0.1-0.3-0.3-0.6-0.5-0.9c-1.1-0.8-2.5-1-3.7-0.4
	c-1.3,0.5-2.4,1.3-3.2,2.4c-0.6,0.7-1,1.5-1.3,2.4c-0.1,0.2-0.1,0.4-0.1,0.5v0.5c0,0,0,0.1,0,0.1c-0.1,0.1-0.2,0.2-0.3,0.1
	c0,0,0,0,0,0L98,90.4c0,0,0-0.1,0-0.1v-0.6c0-0.7,0-1.5,0-2.6v-2.5C98,84.6,97.9,84.6,97.9,84.6z"/>
<path class="st1" d="M114.5,89.2l-0.6,0.3c-0.2,0.1-0.3,0.2-0.5,0.3c-0.4,0.2-0.8,0.1-1.1-0.2c-0.3-0.6-0.4-1.2-0.3-1.9v-0.3
	c0-0.1,0-0.3,0-0.4c-0.1-0.3,0-0.7,0.2-0.9c0.3-0.3,0.6-0.4,1-0.4c0.4,0,0.8,0,1.1,0c0.5,0.1,0.9,0.1,1,0.1c0.2,0,0.5-0.1,0.6-0.2
	l0,0c0-0.1,0-0.2,0.1-0.3v-1c0-0.6-0.1-1.6-0.2-2.9l-0.2-2.9c0-0.3,0-0.7,0-1c0-0.1,0-0.3,0-0.4c0-0.1,0.1-0.2,0.2-0.3
	c0.2-0.1,0.4-0.2,0.6-0.2c0.2,0,0.5,0,0.8,0c0.4,0,0.7,0.1,1.1,0.3c0,0,0.1,0,0.1,0c0.1,0,0.3,0.1,0.3,0.2c0,0,0,0,0,0.1V82
	c0,1.2,0,2.2,0.1,2.9c0,0.3,0,0.7,0,1c0,0.1,0,0.2,0,0.3l0,0c0.2,0,0.3,0,0.5,0c0.2,0,0.7,0,1.3-0.1c0.6-0.1,1.1-0.1,1.3-0.1
	c0.2,0,0.3,0,0.5,0c0.2,0,0.3,0.1,0.5,0.2c0.1,0.1,0.1,0.2,0.1,0.3V87c0,0.2,0,0.3,0,0.5v0.3l0.1,0.7c0,0.2,0,0.3,0.1,0.5
	c0,0.1,0,0.3,0,0.4c-0.1,0.2-0.3,0.4-0.5,0.4c-0.2,0.1-0.4,0.1-0.6,0.1c-0.5,0-1,0-1.6,0h-0.8h-0.8h-0.5c0,0.1,0,0.1,0,0.2
	c0.2,1,0.2,2,0.2,3.1c0,0.2,0.1,2.4,0.4,6.7c0.1,1.6,0.2,2.8,0.2,3.7c0,0.8,0,1.6-0.2,2.3c-0.1,0.2-0.3,0.4-0.6,0.5
	c-0.2,0.1-0.5,0.1-0.7,0.2c-0.5,0.1-0.9,0-1.4-0.1c-0.1,0-0.2-0.2-0.3-0.3l-0.1-0.5c-0.1-0.3-0.1-0.8-0.2-1.3c-0.1-1-0.2-2.3-0.2-4
	v-7.3c0-0.3,0-0.6,0-0.8c0-0.3,0-0.7,0-1c0-0.6,0-1,0-1.4c0-0.2-0.1-0.3-0.1-0.4l0,0C115.1,89.1,114.8,89.1,114.5,89.2z"/>
<path class="st1" d="M122.3,85.2c-0.1,0-0.3,0-0.4,0c-0.2,0-0.7,0-1.3,0.1s-1.1,0.1-1.3,0.1c-0.2,0-0.3,0-0.5,0
	c-0.2,0-0.3-0.1-0.5-0.1c0,0-0.1-0.1-0.1-0.1c0,0,0-0.1,0-0.1c0-0.1,0-0.2,0-0.3c0-0.3,0-0.6,0-0.9c0-0.6,0-1.5-0.1-2.6v-3.9
	c-0.3-0.1-0.7-0.1-1-0.2c-0.2,0-0.4,0-0.6,0h-0.3v0.2c0,0.3,0,0.6,0,0.9l0.2,2.5c0.1,1.1,0.2,2,0.2,2.5v0.9c0,0.1-0.1,0.2-0.1,0.3
	c0,0.1-0.1,0.2-0.2,0.3c-0.3,0.2-0.6,0.3-1,0.3c-0.3,0-0.6,0-1.2-0.1c-0.3,0-0.7,0-1,0c-0.2,0-0.4,0-0.6,0.2c0,0.1,0,0.3,0,0.4
	c0,0.1,0,0.2,0,0.3c0,0.2,0,0.3,0,0.3c-0.1,0.4,0,0.9,0.3,1.3c0.1,0.1,0.2,0.1,0.4,0c0.2-0.1,0.3-0.1,0.5-0.2
	c0.2-0.1,0.4-0.2,0.6-0.2c0.4-0.2,1-0.2,1.4-0.1c0.1,0.1,0.1,0.1,0.2,0.2c0,0.1,0,0.3,0.1,0.4c0.1,0.4,0.1,0.9,0.1,1.3
	c0,0.3,0,0.6,0,0.9c0,0.2,0,0.5,0,0.7v6.3c0.1,1.4,0.1,2.5,0.2,3.3c0,0.4,0.1,0.7,0.2,1.1c0,0.1,0,0.2,0.1,0.3l0,0c0.3,0,0.7,0,1,0
	c0.2,0,0.4,0,0.6-0.1c0.1,0,0.2-0.1,0.2-0.1c0.2-0.6,0.2-1.2,0.2-1.9c0-0.8-0.1-1.8-0.2-3.1c-0.3-3.7-0.4-5.6-0.4-5.8
	c0-0.9,0-1.7-0.2-2.6l0,0c0,0-0.1-0.1-0.1-0.1c-0.1-0.1,0-0.3,0.1-0.4c0-0.1,0.1-0.1,0.2-0.1c0.1,0,0.2,0,0.3,0h0.5h0.8h0.7
	c0.5,0,1,0,1.5,0l0.5-0.1h0.1c0,0,0-0.1,0-0.2c0-0.1,0-0.2,0-0.3c-0.1-0.4-0.1-0.6-0.1-0.6v-0.2c0-0.2,0-0.3,0-0.4L122.3,85.2
	L122.3,85.2z"/>
<path class="st1" d="M143.4,105.3c0,0.1,0,0.2-0.1,0.2c0.1,0,0.2,0.1,0.2,0.3c0,0.1-0.1,0.3-0.2,0.3c0,0,0,0-0.1,0h-0.8
	c-0.5,0-0.9,0-1.1,0.1c-0.4,0-0.8,0-1.1,0c-0.2,0-0.3-0.1-0.5-0.1c-0.1,0-0.3-0.1-0.3-0.3c0-0.1,0-0.1,0-0.2c0-0.1,0-0.2,0-0.3
	c0-0.2,0-0.4,0-0.7c0-0.6,0-1.3,0-2.3c0-1.8,0-4,0-6.8c0.1-6.4,0.1-10.1,0.3-11c0-0.1,0.1-0.3,0.3-0.3c0,0,0,0,0.1,0
	c0.1,0,0.2,0,0.2,0.1c0.4-0.1,0.7-0.2,1.1-0.2c0.3,0,0.6-0.1,0.8-0.1c0.1,0,0.2,0,0.3,0c0.1,0,0.2,0,0.3,0.1l0.1,0.1v3.6
	c0.2-0.5,0.5-0.9,0.8-1.3c0.9-1.2,2.1-2.1,3.5-2.6c1.4-0.7,3-0.5,4.3,0.5c0.3,0.3,0.6,0.7,0.8,1.2c0.2,0.6,0.4,1.2,0.5,1.8
	c0.3,1.6,0.4,3.2,0.5,4.8c0.1,1.2,0.1,4,0.1,8.5v4.6c0,0,0,0.1,0,0.1v0.1c0,0,0,0.1-0.1,0.1c-0.1,0.1-0.2,0.1-0.3,0.1h-1.2h-0.3
	l-0.4,0.1l-0.5,0.1c0,0-0.1,0-0.1,0h-0.1c-0.1,0-0.1,0-0.2,0c-0.1-0.1-0.2-0.3-0.2-0.5c0,0,0-0.1,0-0.1v-0.1c0-0.6,0-1.8,0-3.5
	c0.1-2.4,0.2-3.9,0.2-4.7c0.1-1.5,0-3-0.1-4.5c0-1-0.2-1.9-0.6-2.8c-0.4-0.5-1-0.8-1.6-0.8c-0.9-0.1-1.6,0.4-2.3,1.7
	c-0.7,1.5-1.1,3.2-1.4,4.8c-0.4,2.8-0.6,5.7-0.6,8.6c0.1,0.1,0.1,0.2,0.1,0.3l-0.1,0.3v0.2c0,0.1,0,0.1,0,0.2L143.4,105.3z"/>
<path class="st1" d="M142.1,84.6c-0.3,0-0.5,0-0.8,0.1c-0.4,0-0.8,0.1-1.2,0.2c-0.1,1.5-0.2,5-0.3,10.6c0,2.7,0,5,0,6.8
	c0,1,0,1.7,0,2.3c0,0.2,0,0.4,0,0.7v0.2h0.1c0.1,0,0.2,0.1,0.3,0.1c0.3,0,0.7,0,1,0l1.1-0.1c0.2,0,0.3,0,0.5,0c0,0-0.1-0.1-0.1-0.2
	v-0.5c0-0.1,0-0.1,0-0.2c0-3.1,0.2-6.1,0.7-9.1c0.2-1.7,0.7-3.4,1.4-5c0.8-1.5,1.7-2.2,2.9-2c0.8,0.1,1.5,0.5,2,1.1
	c0.5,1,0.7,2,0.7,3.1c0.1,1.5,0.1,3,0.1,4.5c0,0.8-0.1,2.3-0.2,4.7c-0.1,1.7-0.1,2.9,0,3.5v0.1l0.3-0.1l0.4-0.1l0.3-0.1h1.1v-4.5
	c0-4.5,0-7.3-0.1-8.5c0-1.6-0.2-3.2-0.4-4.8c-0.1-0.6-0.2-1.1-0.4-1.7c-0.1-0.3-0.3-0.6-0.5-0.9c-1.1-0.8-2.5-1-3.7-0.4
	c-1.3,0.5-2.4,1.3-3.2,2.4c-0.6,0.7-1,1.5-1.3,2.4c-0.1,0.2-0.1,0.4-0.1,0.5v0.5c0,0,0,0.1,0,0.1c-0.1,0.1-0.2,0.2-0.3,0.1
	c0,0,0,0,0,0l-0.2-0.1c0,0,0-0.1,0-0.1v-0.6c0-0.7,0-1.5,0-2.6v-2.5C142.3,84.6,142.1,84.6,142.1,84.6z"/>
<path class="st1" d="M165.8,104.5c-0.5,0.5-1.1,0.9-1.8,1.3c-0.7,0.4-1.6,0.6-2.4,0.5c-1.1-0.2-2-0.7-2.7-1.6
	c-1.1-1.2-1.7-3.6-1.8-7.2c0-1,0-2.4,0-4.2s0-2.9,0-3.5l-0.1-2.5v-1.5c0-0.2,0-0.3,0-0.5c0-0.1,0-0.1,0-0.2c0-0.1,0.1-0.2,0.2-0.3
	c0.2-0.1,0.5-0.2,0.8-0.2c0.3,0,0.6,0,0.9,0l0.9,0.1l0.7,0.1c0.1,0,0.3,0.1,0.3,0.3c0,0,0,0,0,0.1c0,0.1-0.1,0.3-0.3,0.3
	c0,0,0,0,0,0c0,0.8,0,2.1,0,3.7c0,1.6,0,2.8,0,3.5c0,3.2,0.1,5.6,0.3,7.3c0.1,0.5,0.2,0.9,0.5,1.3c0.3,0.4,0.7,0.7,1.1,0.8
	c0.9,0.4,1.9,0.1,2.4-0.8c1.1-1.6,1.7-4.1,1.7-7.5c0-0.5,0-1.9-0.1-4.2c0-1.7,0-3,0.1-3.9v-0.2c0-0.1,0.1-0.3,0.2-0.4
	c0.2-0.1,0.4-0.2,0.6-0.2l0.8-0.1c0.3,0,0.5,0,0.8,0c0.1,0,0.2,0,0.3,0c0.1,0,0.2,0.1,0.3,0.2c0.2,0.3,0.3,0.7,0.3,1.1
	c0,0.4,0,1,0.1,1.6c0,0.4,0,0.9,0,1.6s0,1.1,0,1.2c0.1,2.1,0.1,4.8,0.1,7.9c0,2,0,3.6,0,4.8c0,0.7,0,1.2-0.1,1.6
	c0,0.2,0,0.3-0.1,0.5c0,0.1-0.1,0.3-0.2,0.4c-0.1,0.1-0.2,0.1-0.3,0.2c-0.1,0-0.3,0-0.4,0c-0.3,0-0.6,0-0.9,0l-0.9-0.1l-0.4-0.1
	c-0.1,0-0.2-0.1-0.3-0.2c-0.1-0.1-0.1-0.3-0.1-0.4v-1C166.2,104.1,166.1,104.3,165.8,104.5z"/>
<path class="st1" d="M167.1,85.6v0.2c-0.1,1.3-0.1,2.5-0.1,3.8c0.1,2.3,0.1,3.8,0.1,4.3c0,3.5-0.6,6.1-1.8,7.9
	c-0.3,0.5-0.9,0.9-1.5,1.1c-0.5,0.2-1.1,0.1-1.7-0.1c-0.5-0.2-1-0.5-1.4-1c-0.4-0.5-0.6-1-0.6-1.6c-0.2-1.8-0.3-4.2-0.3-7.4
	c0-0.7,0-1.9,0-3.5s0-2.9,0-3.7l-1-0.1c-0.3,0-0.5,0-0.8,0c-0.1,0-0.3,0-0.4,0l0,0c0,0.2,0,0.3,0,0.5v1.5l0.1,2.5c0,0.6,0,1.7,0,3.5
	s0,3.1,0,4.2c0.1,3.4,0.6,5.7,1.6,6.8c0.6,0.7,1.4,1.2,2.3,1.4c0.7,0.1,1.5-0.1,2.1-0.5c0.6-0.4,1.1-0.8,1.6-1.3
	c0.3-0.3,0.5-0.4,0.6-0.5l0.3-0.2c0.1,0,0.2,0,0.3,0c0.2,0.1,0.3,0.2,0.3,0.4c0,0.1,0,0.1,0,0.2v0c0,0.2,0,0.5,0,0.8v0.3
	c0,0,0,0.1,0,0.1l0,0l0.3,0.1l0.8,0.1c0.3,0,0.6,0,0.8,0c0.1,0,0.2,0,0.3,0l0,0v-0.1c0-0.2,0.1-0.3,0.1-0.5c0.1-0.5,0.1-1.1,0.1-1.6
	c0-1.1,0-2.7,0-4.7c0-3.1,0-5.7-0.1-7.9c0-0.1,0-0.5,0-1.2s0-1.2,0-1.6c0-0.7,0-1.2-0.1-1.6c0-0.3-0.1-0.6-0.2-0.8h-0.3h-0.8
	L167.1,85.6c-0.1-0.1-0.2-0.1-0.2-0.1L167.1,85.6z"/>
<path class="st1" d="M177.1,105.5c-0.4,0-0.7,0.1-0.8,0.1c-0.3,0-0.6,0-0.9,0c-0.2,0-0.5-0.1-0.7-0.2c-0.1-0.1-0.1-0.1-0.1-0.2
	c0-0.1,0-0.1,0-0.2c0-0.2,0-0.3,0-0.5c-0.1-0.5-0.1-1-0.1-1.6c-0.1-1.1-0.1-2.7-0.1-4.7V85.6l-0.1-0.4c-0.1-0.2,0-0.5,0.2-0.7
	c0.3-0.1,0.6-0.2,0.9-0.1h0.2h0.3h0.2h0.2h0.2h0.2c0.3,0,0.5,0,0.8,0.1c0.1,0.1,0.1,0.1,0.2,0.2c0,0.1,0,0.2,0,0.3
	c0,0.1,0,0.3,0.1,0.6c0.1,0.3,0.1,0.8,0,1.6v1c0.1-0.1,0.2-0.3,0.3-0.4l0.2-0.3c0.4-0.7,1-1.4,1.6-2.1c0.3-0.3,0.7-0.6,1.2-0.8
	c0.5-0.1,1,0,1.3,0.5c0.6,0.9,0.9,1.9,0.9,2.9c0.1,0.4,0.1,1,0.1,1.7c0,0.7,0.1,1.1,0.1,1.3c0.2-1.1,0.6-2.1,1-3.1
	c0.4-1,1-2,1.8-2.8c0.6-0.7,1.7-1,2.6-0.7c0.7,0.2,1.3,0.6,1.7,1.3c0.6,1.5,1,3,1.1,4.6c0.1,1.7,0.1,3.5-0.1,5.2c0,0.3,0,1-0.1,2
	s-0.2,1.8-0.2,2.2c0,0.4,0,1.1-0.1,1.8c0,0.7,0,1.3,0,2c0,0.6,0.1,1.1,0.2,1.7c0,0.1,0,0.2-0.1,0.3v0.1c0,0.1-0.1,0.3-0.2,0.3
	c0,0,0,0-0.1,0h-0.7c-0.3,0-0.7,0.1-1,0.1c-0.4,0-0.8,0-1,0c-0.3,0-0.5-0.1-0.8-0.2c-0.1,0-0.1-0.1-0.2-0.2v-0.1c0-0.1,0-0.1,0-0.2
	v-2c0-0.3,0-1,0-2.1c0-1.1,0-1.9,0-2.6c0-2,0-3.5,0-4.7c0-0.5-0.1-1-0.1-1.6c0-0.2,0-0.3-0.1-0.5l0,0h-0.2c-0.1,0.1-0.2,0.1-0.2,0.2
	c-0.2,0.4-0.3,0.8-0.4,1.3c-0.1,0.6-0.2,1.2-0.3,1.8c-0.1,0.8-0.2,1.4-0.3,1.7c0,0,0,0.1,0,0.1v0.2c-0.1,0.1-0.1,0.2-0.3,0.3
	c-0.2,0.1-0.4,0.2-0.6,0.2c-0.2,0-0.4,0-0.7,0h-0.8h-0.5h-0.5h-0.6c-0.4,0-0.8,0-1.2-0.1c-0.2-0.1-0.3-0.3-0.3-0.5
	c0-0.2-0.1-0.4-0.1-0.7c0-0.3-0.1-0.6-0.1-0.9c0-0.4,0-0.7,0-0.9c0-0.6-0.1-1.1-0.3-1.7c-0.1-0.4-0.3-0.6-0.4-0.6s-0.4,0.1-0.5,0.3
	c-0.2,0.4-0.4,0.8-0.5,1.2c-0.3,1.3-0.5,2.7-0.5,4.1c-0.1,1.5-0.1,3,0,4.4c0,0.9,0.1,1.7,0.3,2.6c0.1,0.2,0,0.3-0.1,0.4
	c-0.1,0-0.1,0-0.2,0h-0.1L177.1,105.5z"/>
<path class="st1" d="M188.1,105.4c0.3,0,0.6,0,0.9,0c0.1,0,0.4,0,1-0.1h0.6c-0.1-0.6-0.2-1.2-0.2-1.8c0-0.7,0-1.4,0-2.1
	c0-0.8,0-1.4,0.1-1.9c0-0.5,0.1-1.2,0.1-2.2c0.1-1,0.1-1.7,0.1-2c0.2-1.7,0.2-3.4,0.1-5.1c-0.1-1.5-0.4-3-1-4.4
	c-0.3-0.5-0.8-0.8-1.3-0.9c-0.7-0.3-1.5,0-2.1,0.5c-0.7,0.8-1.2,1.6-1.6,2.6c-0.8,1.7-1.2,3.6-1.3,5.5V94l0,0l0,0
	c0,0.1-0.1,0.1-0.1,0.1c-0.1,0.1-0.2,0.1-0.3,0c0,0,0-0.1,0-0.1l0,0v-1.1c0-0.2-0.1-0.8-0.2-1.9c0-0.2,0-0.6-0.1-1.3
	c-0.1-0.7-0.1-1.3-0.1-1.7c0-0.9-0.3-1.8-0.8-2.6c-0.2-0.2-0.5-0.3-0.7-0.2c-0.4,0.1-0.7,0.3-0.9,0.6c-0.6,0.6-1.1,1.3-1.5,2
	c-0.3,0.4-0.6,0.9-0.8,1.4v0.2c0,0.1,0,0.1,0,0.2c0,0.1-0.1,0.2-0.2,0.2c-0.1,0-0.2,0-0.3,0c-0.1,0-0.1-0.1-0.2-0.1c0,0,0-0.1,0-0.1
	v-0.2c0-0.2,0-0.4,0-0.5c0-0.2,0-0.7,0-1.6c0-0.7,0-1.2,0-1.6c0-0.2,0-0.4,0-0.5c0,0,0-0.1,0-0.1c-0.1,0-0.2,0-0.3,0l-1.1,0
	l-0.8-0.1c-0.1,0-0.3,0-0.4,0V85c0.1,0.2,0.1,0.4,0.1,0.5v12.7c0,2,0,3.6,0.1,4.7c0,0.7,0,1.2,0,1.6c0,0.1,0,0.3,0.1,0.4l0,0
	c0.1,0,0.2,0,0.3,0c0.3,0,0.5,0,0.8,0c0.3,0,0.6-0.1,0.8-0.1c0.1,0,0.3,0,0.4,0c-0.1-0.8-0.2-1.6-0.3-2.4c-0.1-1.5-0.1-3,0-4.5
	c0.1-1.4,0.3-2.8,0.6-4.2c0.1-0.5,0.3-1,0.6-1.4c0.2-0.4,0.7-0.6,1.1-0.5c0.4,0.1,0.7,0.4,0.9,1c0.2,0.6,0.3,1.2,0.3,1.8
	c0,0.2,0,0.5,0,0.9c0,0.4,0,0.7,0.1,0.9c0,0.2,0,0.4,0.1,0.5c0,0,0,0.1,0,0.1c0.3,0.1,0.6,0.1,0.8,0h0.6h0.5h0.5h0.7
	c0.2,0,0.4,0,0.6,0c0.1,0,0.2,0,0.3-0.1c0,0,0-0.1,0-0.1v0c0.1-0.3,0.1-0.9,0.3-1.7c0.1-0.6,0.1-1.3,0.3-1.9c0.1-0.5,0.2-1,0.5-1.5
	c0.1-0.2,0.3-0.3,0.5-0.4c0.2-0.1,0.5-0.1,0.7,0.1c0.1,0.1,0.2,0.2,0.3,0.4c0,0.1,0.1,0.3,0.1,0.5c0.1,0.4,0.1,0.9,0.1,1.6
	c0.1,1.1,0.1,2.6,0,4.7c0,0.7,0,1.5,0,2.6s0,1.8,0,2.1v1.9C187.7,105.4,187.9,105.4,188.1,105.4z"/>
<path class="st1" d="M198.9,104.4c0,0.2,0,0.3,0,0.5c-0.1,0.5-0.3,0.9-0.5,1c-0.2,0.1-0.4,0.1-0.6,0.1c-0.3,0-0.6,0-0.9,0
	c-0.3,0-0.6,0-0.9,0l-0.4-0.1c-0.1,0-0.2-0.1-0.3-0.2c-0.1-0.1-0.1-0.2-0.1-0.3v-0.6c0-0.1,0-0.3,0-0.4v-0.3c0-1.6,0-4.1,0.1-7.3
	c0.1-3.3,0.1-5.7,0.1-7.3c0-2.4,0-0.9,0-2.6s0-3.2,0-4.3c0-1.6,0-3,0.1-4c0-0.7,0-1.1,0.1-1.4c0-0.1,0-0.3,0-0.4
	c0-0.1,0.1-0.2,0.2-0.3c0.1-0.1,0.2-0.1,0.3-0.1c0.1,0,0.2,0,0.3,0c0.2,0,0.5,0,0.7,0l0.8,0.1c0.1-0.1,0.1-0.1,0.3-0.1h0.5
	c0.2,0.1,0.4,0.3,0.5,0.5c0.1,0.7,0.2,1.5,0.1,2.2c0,0.9,0,2.1-0.1,3.6c0,0.6,0,1.4-0.1,2.4l-0.1,2.4c0,0.6,0,1.1,0,1.3V89
	c0.4-0.8,0.9-1.6,1.4-2.3c1.1-1.1,2.6-1.6,4.1-1.4c1.5,0.1,2.9,0.9,3.9,2c1,1.3,1.6,2.9,1.8,4.5c0.3,1.9,0.2,3.9-0.1,5.9
	c-0.3,1.9-1,3.8-2.1,5.5c-0.8,1.4-2.2,2.4-3.7,2.7c-1,0.2-1.9,0.1-2.9-0.2C200.4,105.5,199.6,105,198.9,104.4L198.9,104.4z"/>
<path class="st1" d="M197,76.9c-0.2,0-0.4,0-0.6,0h-0.2l0,0c0,0.1,0,0.3,0,0.4c0,0.3,0,0.7-0.1,1.3c-0.1,1-0.1,2.4-0.1,4
	c0,1.2,0,2.6,0,4.3c0,1.7,0,2.6,0,2.6c0,1.6,0,4.1-0.1,7.3c-0.1,3.3-0.1,5.7-0.1,7.3v0.3c0,0.1,0,0.3,0,0.4v0.4c0.1,0,0.2,0,0.3,0
	c0.3,0,0.6,0,0.8,0c0.3,0,0.6,0,0.8,0h0.4c0.1-0.1,0.1-0.2,0.2-0.5c0-0.2,0-0.3,0-0.5v-0.4c0,0,0-0.1,0-0.1c0-0.1,0-0.2,0-0.3
	c0-0.1,0.1-0.2,0.3-0.3c0.2-0.1,0.4,0.1,0.5,0.3c0,0,0,0.1,0.1,0.1v0.1c0.6,0.7,1.4,1.1,2.2,1.4c0.9,0.3,1.8,0.3,2.7,0.2
	c1.4-0.3,2.7-1.2,3.4-2.5c1-1.6,1.6-3.4,1.9-5.2c0.4-1.9,0.4-3.8,0.1-5.7c-0.1-1.5-0.7-3-1.6-4.2c-0.9-1.1-2.2-1.7-3.6-1.9
	c-1.4-0.2-2.7,0.3-3.7,1.3c-0.2,0.2-0.4,0.5-0.6,0.8c-0.2,0.3-0.4,0.6-0.6,1c-0.2,0.4-0.4,0.7-0.5,0.9l0,0c0,0.1,0,0.1,0,0.2
	c0,0.1-0.1,0.2-0.1,0.2c-0.1,0.1-0.2,0.2-0.3,0.1c-0.1,0-0.2-0.1-0.3-0.2c0,0,0-0.1,0-0.1v-1.2c0-0.3,0-0.7,0-1.3l0.1-2.4
	c0.1-1,0.1-1.8,0.1-2.4c0.1-1.5,0.1-2.7,0.1-3.5c0-0.7,0-1.3-0.1-2c0,0,0-0.1,0-0.1h-0.1c0,0.1,0,0.3-0.2,0.3s-0.3,0-0.3-0.2
	C197.7,77,197.3,76.9,197,76.9z"/>
<path class="st1" d="M199.6,93.2c0.4-1.2,1.2-2.2,2.2-3.1c0.8-0.7,1.7-1,2.7-0.9c1,0.1,1.8,0.7,2.2,1.6c0.6,1.2,0.8,2.5,0.6,3.8
	c-0.1,1.9-0.7,3.8-1.6,5.4c-0.4,0.8-1.1,1.5-2,1.8c-1,0.3-2.2,0.1-3-0.5c-0.3-0.2-0.5-0.3-0.8-0.5c-0.3-0.2-0.5-0.5-0.7-0.8
	c-0.2-1-0.2-2.1-0.1-3.2c0-0.3,0-0.7,0.1-1.1c0-0.5,0.1-0.9,0.1-1.2c0-0.3,0-0.6,0-0.8c0-0.1,0.1-0.3,0.2-0.3c0,0,0,0,0,0
	C199.5,93.3,199.5,93.3,199.6,93.2z"/>
<path class="st1" d="M199.9,94.5c0,0.3,0,0.8-0.1,1.2c-0.1,0.5-0.1,0.9-0.1,1.1c-0.1,1-0.1,2,0.1,3c0.1,0.2,0.3,0.4,0.5,0.5
	c0.2,0.2,0.5,0.3,0.8,0.5c0.7,0.5,1.6,0.7,2.4,0.5c0.7-0.3,1.4-0.9,1.7-1.6c0.9-1.6,1.5-3.4,1.6-5.2c0.2-1.2,0-2.3-0.5-3.4
	c-0.3-0.7-1-1.2-1.8-1.4c-0.9-0.1-1.7,0.2-2.3,0.8c-0.9,0.7-1.6,1.7-2,2.8c0,0.1-0.1,0.2-0.2,0.2l0,0
	C199.9,93.9,199.9,94.2,199.9,94.5z"/>
<path class="st1" d="M219.1,95.9h-0.3c-0.1,0-0.3,0.1-0.4,0.1c-0.3,0.1-0.4,0.2-0.5,0.2c0,0.1-0.1,0.3-0.1,0.4c0,0.2,0,0.4,0,0.8
	c0.1,0.7,0.2,1.3,0.4,2c0.2,0.7,0.4,1.3,0.8,1.9c0.3,0.5,0.5,0.8,0.8,0.8c0.9,0.1,1.7-0.1,2.4-0.7c0.7-0.6,1.2-1.4,1.4-2.4
	c0-0.2,0-0.3,0-0.5c0-0.3,0.1-0.5,0.2-0.7c0.1-0.1,0.2-0.2,0.4-0.2c0.1,0,0.3,0,0.4,0c0.3,0,0.7,0,1,0.1c0.3,0.1,0.7,0.1,1,0.2
	c0.1,0,0.3,0.1,0.4,0.2c0.1,0,0.2,0.2,0.3,0.3c0.2,0.5,0.2,1,0.1,1.4c-0.1,0.4-0.2,0.8-0.3,1.3c-0.4,1-1,2-1.9,2.7
	c-0.8,0.8-1.8,1.3-2.8,1.7c-1.1,0.4-2.2,0.5-3.3,0.4c-1.1-0.1-2.2-0.5-3.2-1.1c-1.4-1-2.3-2.8-2.6-5.4c-0.2-2.6,0.1-5.1,0.9-7.6
	c0.7-2.4,2-4.5,3.8-6.2c1.8-1.5,4.3-1.9,6.5-1c0.8,0.4,1.4,1.1,1.7,1.9c0.4,0.9,0.7,1.9,0.9,2.9c0.2,1,0.2,1.9,0.2,2.9
	c0,0.3-0.1,0.7-0.2,1c0,0.3-0.2,0.5-0.4,0.7c-0.5,0.2-1,0.3-1.5,0.4l-2.4,0.5c-1.5,0.3-2.6,0.5-3.4,0.6
	C219.2,95.8,219.1,95.9,219.1,95.9z"/>
<path class="st1" d="M222.5,94.6c0.9-0.2,1.7-0.4,2.4-0.6c0.5-0.1,0.9-0.2,1.4-0.4c0.1,0,0.1-0.1,0.2-0.3c0.1-0.3,0.2-0.6,0.2-0.9
	c0-0.9-0.1-1.8-0.2-2.7c-0.2-1-0.4-1.9-0.8-2.8c-0.2-0.7-0.7-1.2-1.4-1.6c-2-0.9-4.3-0.5-5.9,0.9c-1.8,1.6-3,3.6-3.6,5.9
	c-0.8,2.4-1.1,4.8-0.8,7.3c0.3,2.5,1,4.1,2.3,5c1.2,0.8,2.5,1.1,3.9,1.1c1.4-0.1,2.7-0.5,3.8-1.3c1.1-0.8,2-1.8,2.5-3.1
	c0.2-0.4,0.3-0.8,0.3-1.2c0.1-0.4,0.1-0.7,0-1.1l0,0l-0.3-0.1c-0.3-0.1-0.6-0.2-0.9-0.2c-0.3-0.1-0.6-0.1-0.9-0.1
	c-0.1,0-0.2,0-0.3,0l0,0c0,0.1,0,0.2,0,0.3c0,0.2,0,0.4,0,0.6c-0.3,1-0.9,1.9-1.6,2.7c-0.8,0.7-1.8,1-2.8,0.8
	c-0.4-0.1-0.8-0.5-1.2-1.1c-0.3-0.6-0.6-1.3-0.8-2c-0.2-0.7-0.4-1.4-0.4-2.1c0-0.3,0-0.6,0-0.8c0-0.2,0.1-0.4,0.2-0.6
	c0.2-0.3,0.5-0.5,0.8-0.5c0-0.1,0.2-0.2,0.3-0.2C220,95.2,221.3,95,222.5,94.6z"/>
<path class="st1" d="M219,90c0.3-0.6,0.7-1.1,1.3-1.6c0.5-0.4,1.1-0.6,1.8-0.6c0.7,0.2,1.3,0.8,1.5,1.5l0.2,0.7
	c0.1,0.1,0.1,0.3,0.1,0.4c0,0.1,0,0.3,0,0.4c0,0.1-0.1,0.2-0.1,0.2l0,0l-0.2,0.1c-0.2,0.1-0.3,0.2-0.5,0.3c-0.4,0.2-0.9,0.4-1.5,0.6
	l-1.6,0.5c-0.2,0.1-0.4,0.1-0.5,0.2c-0.1,0-0.1,0-0.2,0H219c-0.2-0.1-0.3-0.2-0.3-0.4c0,0,0-0.1,0-0.1V92c-0.1-0.1-0.1-0.2,0-0.3
	C218.6,91.1,218.7,90.5,219,90z"/>
<path class="st1" d="M223.2,90.5c0-0.1-0.1-0.2-0.1-0.4s-0.1-0.4-0.2-0.6c-0.2-0.7-0.5-1-1-1.1c-0.5,0-1,0.1-1.3,0.5
	c-0.5,0.4-0.9,0.9-1.2,1.5c-0.3,0.5-0.4,1.1-0.3,1.6l0,0l0.5-0.1c0.4-0.1,0.9-0.3,1.5-0.5c0.6-0.2,1.1-0.4,1.5-0.5L223.2,90.5
	L223.2,90.5L223.2,90.5z"/>
<path class="st1" d="M235.2,86.9l0.4-0.3l0.3-0.2c1.5-0.4,3.1,0,4.2,1.1c1.2,0.9,1.9,2.3,2,3.8v0.3c0,0.1,0,0.3-0.1,0.4
	c-0.1,0.1-0.2,0.2-0.4,0.3c-0.1,0.1-0.3,0.2-0.4,0.2l-0.4,0.2l-0.3,0.1l-0.3,0.2c-0.1,0.1-0.3,0.2-0.5,0.2c-0.3,0.2-0.8,0.2-1.1,0
	c-0.1-0.1-0.2-0.3-0.3-0.4c0-0.1-0.1-0.3-0.3-0.6c-0.2-0.5-0.5-1-0.8-1.4c-0.2-0.4-0.5-0.7-0.9-0.8c-0.4-0.1-0.8,0.2-1.3,0.8
	c-0.5,0.9-0.8,2-0.8,3c-0.1,1.6-0.2,3.3-0.1,4.9c0,0.3,0,1,0,2.2c0,1.2,0,2,0,2.5c0,0.5,0,1.1-0.1,1.6c0,0.2,0,0.4-0.1,0.5
	c0,0.2-0.1,0.3-0.3,0.4c-0.2,0.1-0.5,0.2-0.8,0.2c-0.3,0-0.6,0-1,0c-0.3,0-0.7-0.1-1-0.2c-0.1,0-0.3-0.1-0.4-0.1
	c-0.1-0.1-0.2-0.2-0.3-0.3c-0.1-0.4-0.1-0.8-0.1-1.2c0-0.6,0-1.3,0-2.2c0-1.7,0-3.8,0.1-6.3c0.1-4.7,0.2-8,0.4-10
	c-0.1-0.1-0.1-0.1-0.1-0.2c0-0.1,0.1-0.2,0.2-0.3c0.1-0.1,0.2-0.2,0.3-0.2c0.1,0,0.2,0,0.2,0.1c0.5,0,1.5,0,3.1,0
	c0.1,0,0.3,0.1,0.3,0.2c0,0,0,0,0,0.1l0,0c0.1,0.1,0.1,0.1,0.1,0.3c0,0.1,0,0.2,0,0.4v0.6c0,0.2,0,0.3,0,0.5l0,0
	C235,87.1,235.1,87,235.2,86.9z"/>
<path class="st1" d="M233.6,105.2c0-0.2,0-0.3,0-0.5c0.1-0.5,0.1-1,0.1-1.5c0-0.5,0-1.3,0-2.5s0-1.9,0-2.2c0-2.1,0-3.8,0.1-5
	c0-1.2,0.3-2.3,0.9-3.3c0.5-0.9,1.5-1.2,2.4-0.7c0.4,0.2,0.6,0.5,0.8,0.9c0.3,0.5,0.6,1,0.8,1.6c0.1,0.2,0.2,0.4,0.3,0.6
	c0,0.1,0.1,0.2,0.1,0.3c0.1,0.1,0.2,0,0.5-0.1c0.1,0,0.3-0.1,0.4-0.2c0.1-0.1,0.2-0.1,0.3-0.2l0.3-0.1L241,92l0.4-0.2h0.1v-0.3
	c-0.1-1.4-0.7-2.6-1.8-3.5c-1-0.9-2.4-1.3-3.7-0.9c-0.1,0-0.1,0-0.2,0.1l-0.4,0.3c-0.1,0.1-0.3,0.2-0.4,0.3l-0.2,0.1
	c-0.1,0-0.2,0-0.3,0c-0.2-0.1-0.3-0.3-0.3-0.5c0-0.2,0-0.4,0-0.7V86c0-0.3,0-0.4,0-0.4c-1.4,0-2.4,0-2.9,0c-0.1,2-0.3,5.3-0.4,10
	c-0.1,2.5-0.1,4.6-0.1,6.2c0,0.9,0,1.7,0,2.2c0,0.3,0,0.7,0.1,1l0,0l0.3,0.1c0.3,0.1,0.6,0.1,0.9,0.1c0.3,0,0.6,0,0.9,0
	c0.2,0,0.3,0,0.5-0.1L233.6,105.2z"/>
<path d="M22.3,89.9c0-0.1,0-0.2,0-0.3c-0.2-0.6-0.4-1.3-0.8-1.8c-0.2-0.3-0.5-0.4-0.8-0.4c-0.3,0.1-0.6,0.3-0.8,0.6
	c-0.4,0.4-0.7,0.9-0.9,1.5c-0.6,1.4-0.9,3-1,4.5c-0.2,1.4,0,2.9,0.5,4.3c0.4,0.9,0.9,1.4,1.4,1.4c0.6,0.1,1.2,0,1.8-0.3
	c0.3-0.2,0.4-0.5,0.4-0.9l-0.1-1.3c-0.1-0.5,0-0.9,0.3-1.3l0.2-0.2l0.2-0.1c0.2-0.1,0.3-0.1,0.5-0.2c0.4-0.1,0.9-0.2,1.4-0.3
	c0.6-0.1,1-0.2,1.4-0.3h0.7c0.1,0,0.2,0.1,0.3,0.1c0.2,0.2,0.2,0.5,0.2,0.7c0,0.1,0,0.1,0,0.2v0.2c0,0,0,0.1,0,0.1
	c0,1.1-0.2,2.2-0.6,3.2c-0.4,1-1,1.9-1.7,2.6c-0.7,0.7-1.6,1.2-2.6,1.5c-1.1,0.3-2.2,0.2-3.3-0.1c-1.4-0.4-2.5-1.3-3.2-2.5
	c-0.8-1.3-1-3.7-0.8-7.2c0-2.4,0.4-4.9,1.3-7.1c0.4-0.9,1-1.6,1.7-2.3c0.7-0.7,1.5-1.2,2.3-1.5c0.8-0.2,1.6-0.1,2.3,0.2
	c0.8,0.4,1.6,0.9,2.2,1.6c0.6,0.6,1,1.3,1.4,2.1c0.3,0.6,0.3,1.4,0,2c0,0.1-0.1,0.1-0.1,0.1l-0.1,0.1l-0.3,0.3l-1,0.6
	c-0.9,0.6-1.4,0.9-1.6,1c-0.1,0.1-0.3,0-0.4-0.1c0,0,0,0,0-0.1c-0.1-0.1-0.1-0.2,0-0.3L22.3,89.9z M23,90l1.2-0.7l0.9-0.6l0.3-0.2
	l0.1-0.1c0.2-0.5,0.1-1-0.1-1.5c-0.3-0.7-0.7-1.4-1.3-1.9c-0.6-0.6-1.2-1.1-2-1.4c-0.6-0.3-1.3-0.4-1.9-0.2
	c-0.8,0.3-1.5,0.7-2.1,1.3c-0.6,0.6-1.2,1.3-1.6,2.1c-0.9,2.2-1.3,4.5-1.4,6.9c-0.2,3.3,0.1,5.6,0.8,6.9c0.6,1.1,1.7,1.9,2.9,2.2
	c0.9,0.4,2,0.4,3,0.2c0.9-0.3,1.7-0.7,2.4-1.3c0.7-0.7,1.3-1.5,1.6-2.4c0.4-1,0.6-2,0.6-3c0,0,0-0.2,0.1-0.6c0-0.1,0-0.1,0-0.2h-0.5
	c-0.4,0.1-0.8,0.1-1.4,0.3s-1,0.2-1.3,0.4l-0.5,0.1l-0.1,0.1c-0.1,0.3-0.2,0.6-0.1,0.9c0.1,0.9,0.1,1.4,0.1,1.4c0,0.5-0.2,1-0.6,1.3
	c-0.6,0.4-1.4,0.5-2.1,0.4c-0.8,0-1.4-0.6-1.9-1.7c-0.5-1.5-0.7-3-0.6-4.6c0.1-1.6,0.5-3.1,1.1-4.6c0.3-0.6,0.6-1.1,1-1.6
	c0.3-0.4,0.7-0.7,1.2-0.8c0.5,0,1,0.2,1.3,0.6c0.5,0.6,0.8,1.3,1,2c0,0.1,0,0.2,0,0.3L23,90z"/>
<path d="M39.6,102.2c-0.5,0.5-1.1,0.9-1.8,1.3c-0.7,0.4-1.6,0.6-2.4,0.5c-1.1-0.2-2-0.7-2.7-1.6c-1.1-1.2-1.7-3.6-1.8-7.2
	c0-1,0-2.4,0-4.2s0-2.9,0-3.5l0-2.5v-1.5c0-0.2,0-0.3,0-0.5c0-0.1,0-0.1,0-0.2c0-0.1,0.1-0.2,0.2-0.3c0.2-0.1,0.5-0.2,0.8-0.2
	c0.3,0,0.6,0,0.9,0l0.9,0.1l0.7,0.1c0.1,0,0.3,0.1,0.3,0.3c0,0,0,0,0,0.1c0,0.1-0.1,0.3-0.3,0.3c0,0,0,0,0,0c0,0.8,0,2.1,0,3.7
	c0,1.6,0,2.8,0,3.5c0,3.2,0.1,5.6,0.3,7.3c0.1,0.5,0.2,0.9,0.5,1.3c0.3,0.4,0.7,0.7,1.1,0.8c0.9,0.4,1.9,0.1,2.4-0.8
	c1.1-1.6,1.7-4.1,1.7-7.5c0-0.5,0-1.9-0.1-4.2c0-1.7,0-3,0.1-3.9v-0.2c0-0.1,0.1-0.3,0.2-0.4c0.2-0.1,0.4-0.2,0.6-0.2l0.8-0.1
	c0.3,0,0.5,0,0.8,0c0.1,0,0.2,0,0.3,0c0.1,0,0.2,0.1,0.3,0.2c0.2,0.3,0.3,0.7,0.3,1.1c0,0.4,0,1,0.1,1.6c0,0.4,0,0.9,0,1.6
	c0,0.7,0,1.1,0,1.2c0.1,2.1,0.1,4.8,0.1,7.9c0,2,0,3.6,0,4.8c0,0.7,0,1.2-0.1,1.6c0,0.2,0,0.3-0.1,0.5c0,0.1-0.1,0.3-0.2,0.4
	c-0.1,0.1-0.2,0.1-0.3,0.2c-0.1,0-0.3,0-0.4,0c-0.3,0-0.6,0-0.9,0l-0.9-0.1l-0.4-0.1c-0.1,0-0.2-0.1-0.3-0.2
	c-0.1-0.1-0.1-0.3-0.1-0.4v-1.1C40,101.8,39.8,102,39.6,102.2z M41,83.3v0.2c-0.1,1.3-0.1,2.5-0.1,3.8c0.1,2.3,0.1,3.8,0.1,4.3
	c0,3.5-0.6,6.1-1.8,7.9c-0.3,0.5-0.9,0.9-1.5,1.1c-0.5,0.2-1.1,0.1-1.7-0.1c-0.5-0.2-1-0.5-1.4-1c-0.4-0.5-0.6-1-0.7-1.6
	c-0.2-1.8-0.3-4.2-0.3-7.4c0-0.7,0-1.9,0-3.5c0-1.6,0-2.9,0-3.7l-1-0.1c-0.3,0-0.5,0-0.8,0c-0.1,0-0.3,0-0.4,0l0,0
	c0,0.2,0,0.3,0,0.5V85l0.1,2.5c0,0.6,0,1.7,0,3.5c0,1.8,0,3.1,0,4.2c0.1,3.4,0.6,5.7,1.6,6.8c0.6,0.7,1.4,1.2,2.3,1.4
	c0.7,0.1,1.5-0.1,2.1-0.5c0.6-0.3,1.1-0.8,1.6-1.2c0.3-0.3,0.5-0.4,0.6-0.5l0.3-0.2c0.1,0,0.2,0,0.3,0c0.2,0.1,0.3,0.2,0.3,0.4
	c0,0.1,0,0.1,0,0.2v0.1c0,0.2,0,0.5,0,0.8v0.3c0,0,0,0.1,0,0.1l0,0L41,103l0.8,0.1c0.3,0,0.6,0,0.8,0c0.1,0,0.2,0,0.3,0l0,0V103
	c0-0.1,0.1-0.3,0.1-0.5c0.1-0.5,0.1-1.1,0.1-1.6c0-1.1,0-2.7,0-4.7c0-3.1,0-5.7-0.1-7.9c0-0.1,0-0.5,0-1.2s0-1.2,0-1.6
	c0-0.7,0-1.2-0.1-1.6c0-0.3-0.1-0.6-0.2-0.8h-0.3H42l-0.8,0.1C41.2,83.2,41.1,83.2,41,83.3L41,83.3z"/>
<path d="M51.7,84.6l0.4-0.3l0.3-0.2c1.5-0.4,3.1,0,4.2,1.1c1.2,0.9,1.9,2.3,2,3.8v0.3c0,0.1,0,0.3-0.1,0.4c-0.1,0.1-0.2,0.2-0.4,0.3
	c-0.1,0.1-0.3,0.2-0.4,0.2l-0.4,0.2l-0.3,0.1l-0.3,0.2c-0.1,0.1-0.3,0.2-0.5,0.2c-0.3,0.2-0.8,0.2-1.1,0c-0.1-0.1-0.2-0.3-0.3-0.4
	c0-0.1-0.1-0.3-0.3-0.6c-0.2-0.5-0.4-1-0.7-1.5c-0.2-0.4-0.5-0.7-0.9-0.8c-0.4-0.1-0.8,0.2-1.3,0.8c-0.5,0.9-0.8,2-0.8,3
	c-0.1,1.6-0.2,3.3-0.1,4.9c0,0.3,0,1,0,2.2s0,2,0,2.5c0,0.5,0,1.1-0.1,1.6c0,0.2,0,0.4-0.1,0.5c0,0.2-0.1,0.3-0.3,0.4
	c-0.2,0.1-0.5,0.2-0.8,0.2c-0.3,0-0.6,0-1,0c-0.3,0-0.7-0.1-1-0.2c-0.1,0-0.3-0.1-0.4-0.1c-0.1-0.1-0.2-0.2-0.3-0.3
	c-0.1-0.4-0.1-0.8-0.1-1.2c0-0.6,0-1.3,0-2.2c0-1.7,0-3.8,0.1-6.3c0.1-4.7,0.2-8,0.4-10c-0.1-0.1-0.1-0.1-0.1-0.2
	c0-0.1,0.1-0.2,0.2-0.3c0.1-0.1,0.2-0.2,0.3-0.2c0.1,0,0.2,0,0.2,0.1c0.5,0,1.5,0,3.1,0c0.1,0,0.3,0.1,0.3,0.2c0,0,0,0,0,0.1l0,0
	c0.1,0.1,0.1,0.1,0.1,0.3c0,0.1,0,0.2,0,0.4v0.6c0,0.2,0,0.3,0,0.5l0,0C51.5,84.8,51.6,84.7,51.7,84.6z M50.2,102.9
	c0-0.2,0-0.3,0-0.5c0.1-0.5,0.1-1,0.1-1.5c0-0.5,0-1.3,0-2.5c0-1.1,0-1.9,0-2.2c0-2.1,0-3.8,0.1-5c0-1.2,0.3-2.3,0.9-3.3
	c0.5-0.9,1.5-1.2,2.4-0.7c0.4,0.2,0.6,0.5,0.8,0.9c0.3,0.5,0.6,1,0.8,1.6c0.1,0.2,0.2,0.4,0.3,0.6c0,0.1,0.1,0.2,0.1,0.3
	c0.1,0.1,0.2,0,0.5-0.1c0.1,0,0.3-0.1,0.4-0.2c0.1-0.1,0.2-0.1,0.3-0.1l0.3-0.1l0.4-0.2l0.4-0.2h0.1v-0.3c-0.1-1.4-0.7-2.6-1.8-3.5
	c-1-0.9-2.4-1.3-3.7-0.9c-0.1,0-0.1,0-0.2,0.1L52,85.1c-0.1,0.1-0.3,0.2-0.4,0.3l-0.2,0.1c-0.1,0-0.2,0-0.3,0
	c-0.2-0.1-0.3-0.3-0.3-0.5c0-0.2,0-0.4,0-0.7v-0.6c0-0.3,0-0.4,0-0.4c-1.4,0-2.4,0-2.9,0c-0.1,2-0.3,5.3-0.4,10
	c-0.1,2.5-0.1,4.6-0.1,6.2c0,0.9,0,1.7,0,2.2c0,0.3,0,0.7,0.1,1l0,0l0.3,0.1c0.3,0.1,0.6,0.1,0.9,0.1c0.3,0,0.6,0,0.9,0
	c0.2,0,0.3,0,0.5-0.1L50.2,102.9z"/>
<path d="M66.5,84.6l0.4-0.3l0.3-0.2c1.5-0.4,3.1,0,4.2,1.1c1.2,0.9,1.9,2.3,2,3.8v0.3c0,0.1,0,0.3-0.1,0.4c-0.1,0.1-0.2,0.2-0.4,0.3
	c-0.1,0.1-0.3,0.2-0.4,0.2l-0.4,0.2l-0.3,0.1l-0.3,0.2c-0.1,0.1-0.3,0.2-0.5,0.2c-0.3,0.2-0.8,0.2-1.1,0c-0.1-0.1-0.2-0.3-0.3-0.4
	c0-0.1-0.1-0.3-0.3-0.6c-0.2-0.5-0.5-1-0.8-1.4c-0.2-0.4-0.5-0.7-0.9-0.8c-0.4-0.1-0.8,0.2-1.3,0.8c-0.5,0.9-0.8,2-0.8,3
	c-0.1,1.6-0.2,3.3-0.1,4.9c0,0.3,0,1,0,2.2c0,1.2,0,2,0,2.5c0,0.5,0,1.1-0.1,1.6c0,0.2,0,0.4-0.1,0.5c0,0.2-0.1,0.3-0.3,0.4
	c-0.2,0.1-0.5,0.2-0.8,0.2c-0.3,0-0.6,0-1,0c-0.3,0-0.7-0.1-1-0.2c-0.1,0-0.3-0.1-0.4-0.1c-0.1-0.1-0.2-0.2-0.3-0.3
	c-0.1-0.4-0.1-0.8-0.1-1.2c0-0.6,0-1.3,0-2.2c0-1.7,0-3.8,0.1-6.3c0.1-4.7,0.2-8,0.4-10C62,83.3,62,83.2,62,83.1
	c0-0.1,0.1-0.2,0.2-0.3c0.1-0.1,0.2-0.2,0.3-0.2c0.1,0,0.2,0,0.2,0.1c0.5,0,1.5,0,3.1,0c0.1,0,0.3,0.1,0.3,0.2c0,0,0,0,0,0.1l0,0
	c0.1,0.1,0.1,0.1,0.1,0.3c0,0.1,0,0.2,0,0.4v0.6c0,0.2,0,0.3,0,0.5l0,0C66.2,84.9,66.4,84.7,66.5,84.6z M64.9,102.9
	c0-0.2,0-0.3,0-0.5c0.1-0.5,0.1-1,0.1-1.5c0-0.5,0-1.3,0-2.5c0-1.1,0-1.9,0-2.2c0-2.1,0-3.8,0.1-5c0-1.2,0.3-2.3,0.9-3.3
	c0.5-0.9,1.5-1.2,2.4-0.7c0.4,0.2,0.6,0.5,0.8,0.9c0.3,0.5,0.6,1,0.8,1.5c0.1,0.2,0.2,0.4,0.3,0.6c0,0.1,0.1,0.2,0.1,0.3
	c0.1,0.1,0.2,0,0.5-0.1c0.1,0,0.3-0.1,0.4-0.2c0.1-0.1,0.2-0.1,0.3-0.2l0.3-0.1l0.4-0.2l0.4-0.2h0.1v-0.3c-0.1-1.4-0.7-2.6-1.8-3.5
	c-1-0.9-2.4-1.3-3.7-0.9c-0.1,0-0.1,0-0.2,0.1l-0.4,0.3c-0.1,0.1-0.3,0.2-0.4,0.3l-0.2,0.1c-0.1,0-0.2,0-0.3,0
	c-0.2-0.1-0.3-0.3-0.3-0.5c0-0.2,0-0.4,0-0.7v-0.6c0-0.3,0-0.4,0-0.4c-1.4,0-2.4,0-2.9,0c-0.1,2-0.3,5.3-0.4,10
	c-0.1,2.5-0.1,4.6-0.1,6.2c0,0.9,0,1.7,0,2.2c0,0.3,0,0.7,0.1,1l0,0l0.3,0.1c0.3,0.1,0.6,0.1,0.9,0.1c0.3,0,0.6,0,0.9,0
	c0.2,0,0.3,0,0.5-0.1L64.9,102.9z"/>
<path d="M82.2,93.7h-0.3c-0.1,0-0.3,0.1-0.4,0.1C81.2,93.8,81,93.9,81,94c0,0.1-0.1,0.3-0.1,0.4c0,0.2,0,0.4,0,0.8
	c0.1,0.7,0.2,1.3,0.4,2c0.2,0.7,0.4,1.3,0.8,1.9c0.3,0.5,0.5,0.8,0.8,0.8c0.9,0.1,1.7-0.1,2.4-0.7c0.7-0.6,1.2-1.4,1.4-2.4
	c0-0.2,0-0.3,0-0.5c0-0.3,0.1-0.5,0.2-0.7c0.1-0.1,0.2-0.2,0.4-0.2c0.1,0,0.3,0,0.4,0c0.3,0,0.7,0,1,0.1c0.3,0.1,0.7,0.1,1,0.2
	c0.1,0,0.3,0.1,0.4,0.2c0.1,0.1,0.2,0.2,0.3,0.3c0.2,0.5,0.2,1,0.1,1.4c-0.1,0.4-0.2,0.8-0.3,1.3c-0.4,1-1,2-1.9,2.7
	c-0.8,0.8-1.8,1.4-2.8,1.7c-1,0.4-2.2,0.5-3.3,0.4c-1.1-0.1-2.2-0.5-3.2-1.1c-1.4-1-2.3-2.8-2.6-5.4c-0.2-2.6,0.1-5.1,0.9-7.6
	c0.7-2.4,2-4.5,3.9-6.1c1.8-1.5,4.3-1.9,6.5-1c0.8,0.4,1.4,1.1,1.7,1.9c0.4,0.9,0.7,1.9,0.9,2.9c0.2,1,0.2,1.9,0.2,2.9
	c0,0.3-0.1,0.7-0.2,1c0,0.3-0.2,0.5-0.4,0.7c-0.5,0.2-1,0.3-1.5,0.4l-2.4,0.5c-1.5,0.3-2.6,0.5-3.3,0.6
	C82.3,93.5,82.2,93.6,82.2,93.7z M85.6,92.3c0.9-0.2,1.8-0.4,2.4-0.6c0.5-0.1,0.9-0.2,1.4-0.4c0.1,0,0.1-0.1,0.2-0.3
	c0.1-0.3,0.2-0.6,0.2-0.9c0-0.9-0.1-1.8-0.2-2.7c-0.2-1-0.4-1.9-0.8-2.8c-0.2-0.7-0.7-1.2-1.4-1.6c-2-0.9-4.3-0.5-5.9,0.9
	c-1.8,1.6-3,3.6-3.6,5.9c-0.8,2.4-1.1,4.8-0.8,7.3c0.3,2.5,1,4.1,2.3,5c1.2,0.8,2.5,1.1,3.9,1.1c1.4-0.1,2.7-0.6,3.9-1.4
	c1.1-0.8,2-1.8,2.5-3.1c0.2-0.4,0.3-0.8,0.3-1.2c0.1-0.4,0.1-0.7,0-1.1l0,0l-0.3-0.1c-0.3-0.1-0.6-0.2-0.9-0.2
	c-0.3-0.1-0.6-0.1-0.9-0.1c-0.1,0-0.2,0-0.3,0l0,0c0,0.1,0,0.2,0,0.3c0,0.2,0,0.4,0,0.6c-0.3,1-0.9,1.9-1.7,2.7
	c-0.8,0.7-1.8,1-2.8,0.8c-0.4-0.1-0.8-0.5-1.2-1.1c-0.3-0.6-0.6-1.3-0.8-2c-0.2-0.7-0.4-1.4-0.4-2.1c0-0.3,0-0.6,0-0.8
	c0-0.2,0.1-0.4,0.2-0.6c0.2-0.3,0.5-0.5,0.8-0.5c0-0.1,0-0.2,0-0.3C82.9,92.9,84.3,92.7,85.6,92.3z M82.1,87.7
	c0.3-0.6,0.7-1.1,1.3-1.6c0.5-0.4,1.1-0.6,1.8-0.6c0.7,0.2,1.3,0.8,1.5,1.5l0.2,0.7c0.1,0.1,0.1,0.3,0.1,0.4c0,0.1,0,0.3,0,0.4
	c0,0.1-0.1,0.2-0.1,0.2l0,0l-0.2,0.1C86.4,88.9,86.2,89,86,89c-0.4,0.2-0.9,0.4-1.5,0.6L83,90.1c-0.2,0.1-0.4,0.1-0.5,0.2
	c-0.1,0-0.1,0-0.2,0H82c-0.2-0.1-0.3-0.2-0.3-0.4c0,0,0-0.1,0-0.1v0c-0.1-0.1-0.1-0.2,0-0.3C81.6,88.9,81.8,88.3,82.1,87.7
	L82.1,87.7z M86.3,88.2c0-0.1-0.1-0.2-0.1-0.4S86,87.5,86,87.2c-0.2-0.7-0.5-1-1-1.1c-0.5,0-1,0.1-1.3,0.5c-0.5,0.4-0.9,0.9-1.1,1.5
	c-0.3,0.5-0.4,1.1-0.3,1.6l0,0l0.5-0.1c0.4-0.1,0.9-0.3,1.5-0.5s1.1-0.4,1.5-0.5L86.3,88.2L86.3,88.2L86.3,88.2z"/>
<path d="M98.2,103c0,0.1,0,0.2-0.1,0.2c0.1,0,0.2,0.1,0.2,0.3c0,0.1-0.1,0.3-0.2,0.3c0,0,0,0-0.1,0h-0.8c-0.5,0-0.9,0-1.1,0.1
	c-0.4,0-0.8,0-1.1,0c-0.2,0-0.3-0.1-0.5-0.1c-0.1,0-0.3-0.1-0.3-0.3c0-0.1,0-0.1,0-0.2c0-0.1,0-0.2,0-0.3c0-0.2,0-0.4,0-0.7
	c0-0.6,0-1.3,0-2.3c0-1.8,0-4,0-6.8c0.1-6.4,0.2-10.1,0.3-11c0-0.1,0.1-0.3,0.3-0.3c0,0,0,0,0.1,0c0.1,0,0.2,0,0.2,0.1
	c0.4-0.1,0.7-0.2,1.1-0.2c0.3,0,0.6-0.1,0.8-0.1c0.1,0,0.2,0,0.3,0c0.1,0,0.2,0,0.3,0.1l0.1,0.1v3.6c0.2-0.5,0.5-0.9,0.8-1.3
	c0.9-1.2,2.1-2.1,3.5-2.6c1.4-0.7,3-0.5,4.3,0.5c0.3,0.3,0.6,0.7,0.8,1.2c0.2,0.6,0.4,1.2,0.5,1.8c0.3,1.6,0.4,3.2,0.5,4.8
	c0.1,1.2,0.1,4,0.1,8.5v4.6c0,0,0,0.1,0,0.1v0.1c0,0,0,0.1-0.1,0.1c-0.1,0.1-0.2,0.1-0.3,0.1h-1.2h-0.3l-0.4,0.1l-0.5,0.1
	c0,0-0.1,0-0.1,0h-0.1c-0.1,0-0.1,0-0.2,0c-0.1-0.1-0.2-0.3-0.2-0.5c0,0,0-0.1,0-0.1V103c0-0.6,0-1.8,0-3.5c0.1-2.4,0.2-3.9,0.2-4.7
	c0.1-1.5,0-3-0.1-4.5c0-1-0.2-1.9-0.6-2.8c-0.4-0.5-1-0.8-1.6-0.8c-0.9-0.1-1.6,0.4-2.3,1.7c-0.7,1.5-1.1,3.2-1.4,4.8
	c-0.4,2.8-0.6,5.7-0.6,8.6c0.1,0.1,0.1,0.2,0.1,0.3l-0.1,0.3v0.2c0,0.1,0,0.1,0,0.2L98.2,103z M96.9,82.3c-0.3,0-0.5,0-0.8,0.1
	c-0.4,0-0.8,0.1-1.2,0.2c-0.1,1.5-0.2,5-0.3,10.6c0,2.7,0,5,0,6.8c0,1,0,1.7,0,2.3c0,0.2,0,0.4,0,0.7v0.2h0.1c0.1,0,0.2,0.1,0.3,0.1
	c0.3,0,0.7,0,1,0l1.1-0.1c0.2,0,0.3,0,0.5,0c0,0-0.1-0.1-0.1-0.2v-0.5c0-0.1,0-0.1,0-0.2c0-3.1,0.2-6.1,0.7-9.1
	c0.2-1.7,0.7-3.4,1.4-5c0.8-1.5,1.7-2.2,2.9-2c0.8,0.1,1.5,0.5,2,1.1c0.5,1,0.7,2,0.7,3.1c0.1,1.5,0.1,3,0.1,4.5
	c0,0.8-0.1,2.3-0.2,4.7c-0.1,1.7-0.1,2.9,0,3.5v0.1l0.3-0.1l0.6-0.1l0.3-0.1h1.1v-4.5c0-4.5,0-7.3-0.1-8.5c0-1.6-0.2-3.2-0.5-4.8
	c-0.1-0.6-0.2-1.1-0.4-1.7c-0.1-0.3-0.3-0.6-0.5-0.9c-1.1-0.8-2.5-1-3.7-0.4c-1.3,0.5-2.4,1.3-3.2,2.4c-0.6,0.7-1,1.5-1.3,2.4
	c-0.1,0.2-0.1,0.4-0.1,0.5V88c0,0,0,0.1,0,0.1c-0.1,0.1-0.2,0.2-0.3,0.1c0,0,0,0,0,0L97,88.1c0,0,0-0.1,0-0.1v-0.6
	c0-0.7,0-1.5,0-2.6v-2.5C97,82.3,96.9,82.3,96.9,82.3z M107.5,102.9L107.5,102.9z"/>
<path d="M113.5,87l-0.6,0.3c-0.2,0.1-0.3,0.2-0.5,0.3c-0.4,0.2-0.8,0.1-1.1-0.2c-0.3-0.6-0.4-1.2-0.3-1.9v-0.3c0-0.1,0-0.3,0-0.4
	c-0.1-0.3,0-0.7,0.2-0.9c0.3-0.3,0.6-0.4,1-0.4c0.4,0,0.8,0,1.1,0c0.5,0.1,0.9,0.1,1,0.1c0.2,0,0.5-0.1,0.6-0.2l0,0
	c0-0.1,0-0.2,0.1-0.3v-1c0-0.6-0.1-1.6-0.2-2.9l-0.2-2.9c0-0.3,0-0.7,0-1c0-0.1,0-0.3,0-0.4c0-0.1,0.1-0.2,0.2-0.3
	c0.2-0.1,0.4-0.2,0.6-0.2c0.2,0,0.5,0,0.8,0c0.4,0,0.7,0.1,1.1,0.3c0,0,0.1,0,0.1,0c0.1,0,0.3,0.1,0.3,0.2c0,0,0,0,0,0.1v4.8
	c0,1.2,0,2.2,0.1,2.9c0,0.3,0,0.7,0,1c0,0.1,0,0.2,0,0.3l0,0c0.2,0,0.3,0,0.5,0c0.2,0,0.7,0,1.3-0.1c0.6-0.1,1.1-0.1,1.3-0.1
	c0.2,0,0.3,0,0.5,0c0.2,0,0.3,0.1,0.5,0.2c0.1,0.1,0.1,0.2,0.1,0.3v0.6c0,0.2,0,0.3,0,0.5v0.3l0.1,0.7c0,0.2,0,0.3,0.1,0.5
	c0,0.1,0,0.3,0,0.4c-0.1,0.2-0.3,0.4-0.5,0.4c-0.2,0.1-0.4,0.1-0.6,0.1c-0.5,0-1,0-1.6,0h-0.8h-0.8h-0.5c0,0.1,0,0.1,0,0.2
	c0.2,1,0.2,2,0.2,3.1c0,0.2,0.1,2.4,0.4,6.7c0.1,1.6,0.2,2.8,0.2,3.7c0,0.8,0,1.6-0.2,2.3c-0.1,0.2-0.3,0.4-0.6,0.5
	c-0.2,0.1-0.5,0.1-0.7,0.2c-0.5,0.1-0.9,0-1.4-0.1c-0.1,0-0.2-0.2-0.3-0.3l-0.1-0.5c-0.1-0.3-0.1-0.8-0.2-1.3c-0.1-1-0.2-2.3-0.2-4
	v-7.4c0-0.3,0-0.6,0-0.8c0-0.3,0-0.7,0-1c0-0.6,0-1,0-1.4c0-0.2-0.1-0.3-0.1-0.4l0,0C114.1,86.8,113.8,86.9,113.5,87z M121.4,84.3
	c-0.1,0-0.3,0-0.4,0c-0.2,0-0.7,0-1.3,0.1c-0.6,0.1-1.1,0.1-1.3,0.1c-0.2,0-0.3,0-0.5,0c-0.2,0-0.3-0.1-0.5-0.2
	c0-0.1-0.1-0.1-0.1-0.2c0,0,0-0.1,0-0.1c0-0.1,0-0.2,0-0.3c0-0.3,0-0.7,0-1c0-0.7,0-1.7-0.1-3v-4.6c-0.3-0.1-0.7-0.2-1-0.2
	c-0.2,0-0.4,0-0.6,0h-0.3v0.3c0,0.3,0,0.7,0,1l0.2,2.9c0.1,1.3,0.2,2.3,0.2,2.9v1c0,0.1-0.1,0.3-0.1,0.4c0,0.1-0.1,0.2-0.2,0.3
	c-0.3,0.2-0.6,0.4-1,0.4c-0.3,0-0.6,0-1.2-0.1c-0.3,0-0.7,0-1,0c-0.2,0-0.4,0.1-0.6,0.2c0,0.2,0,0.3,0,0.5c0,0.1,0,0.2,0,0.4
	s0,0.3,0,0.4c-0.1,0.5,0,1,0.3,1.5c0.1,0.1,0.2,0.1,0.4,0c0.2-0.1,0.3-0.1,0.5-0.2c0.2-0.1,0.4-0.2,0.6-0.3c0.4-0.2,1-0.2,1.4-0.1
	c0.2,0.1,0.3,0.2,0.3,0.4c0,0.1,0,0.3,0.1,0.5c0.1,0.5,0.1,0.9,0.1,1.4c0,0.3,0,0.7,0,1c0,0.3,0,0.5,0,0.8v7.3
	c0.1,1.6,0.1,2.9,0.2,3.9c0,0.4,0.1,0.9,0.2,1.3c0,0.1,0,0.2,0.1,0.3l0,0c0.3,0,0.7,0,1,0c0.2,0,0.4-0.1,0.6-0.1
	c0.1,0,0.2-0.1,0.2-0.1c0.2-0.7,0.2-1.4,0.2-2.2c0-0.9-0.1-2.1-0.2-3.7c-0.3-4.3-0.4-6.6-0.4-6.7c0-1,0-2-0.2-3l0,0
	c0,0-0.1-0.1-0.1-0.1c-0.1-0.2,0-0.3,0.1-0.5c0-0.1,0.1-0.1,0.2-0.2c0.1,0,0.2,0,0.3,0h0.5h0.8h0.7c0.5,0,1,0,1.5,0l0.5-0.1h0.1
	c0,0,0-0.1,0-0.2c0-0.1,0-0.3,0-0.4c-0.1-0.4-0.1-0.7-0.1-0.8v-0.3c0-0.2,0-0.4,0-0.4v-0.5L121.4,84.3z"/>
<path d="M142.4,103c0,0.1,0,0.2-0.1,0.2c0.1,0,0.2,0.1,0.2,0.3c0,0.1-0.1,0.3-0.2,0.3c0,0,0,0-0.1,0h-0.8c-0.5,0-0.9,0-1.1,0.1
	c-0.4,0-0.8,0-1.1,0c-0.2,0-0.3-0.1-0.5-0.1c-0.1,0-0.3-0.1-0.3-0.3c0-0.1,0-0.1,0-0.2c0-0.1,0-0.2,0-0.3c0-0.2,0-0.4,0-0.7
	c0-0.6,0-1.3,0-2.3c0-1.8,0-4,0-6.8c0.1-6.4,0.1-10.1,0.3-11c0-0.1,0.1-0.3,0.3-0.3c0,0,0,0,0.1,0c0.1,0,0.2,0,0.2,0.1
	c0.4-0.1,0.7-0.2,1.1-0.2c0.3,0,0.6-0.1,0.8-0.1c0.1,0,0.2,0,0.3,0c0.1,0,0.2,0,0.3,0.1L142,82v3.6c0.2-0.5,0.5-0.9,0.8-1.3
	c0.9-1.2,2.1-2.1,3.5-2.6c1.4-0.7,3-0.5,4.3,0.5c0.3,0.3,0.6,0.7,0.8,1.2c0.2,0.6,0.4,1.2,0.5,1.8c0.3,1.6,0.4,3.2,0.5,4.8
	c0.1,1.2,0.1,4,0.1,8.5v4.6c0,0,0,0.1,0,0.1v0.1c0,0,0,0.1-0.1,0.1c-0.1,0.1-0.2,0.1-0.3,0.1h-1.2h-0.3l-0.4,0.1l-0.5,0.1
	c0,0-0.1,0-0.1,0h-0.1c-0.1,0-0.1,0-0.2,0c-0.1-0.1-0.2-0.3-0.2-0.5c0,0,0-0.1,0-0.1V103c0-0.6,0-1.8,0-3.5c0-2.4,0-3.9,0-4.7
	c0.1-1.5,0-3-0.1-4.5c0-1-0.2-1.9-0.6-2.8c-0.4-0.5-1-0.8-1.6-0.8c-0.9-0.1-1.6,0.4-2.3,1.7c-0.7,1.5-1.1,3.2-1.4,4.8
	c-0.4,2.8-0.6,5.7-0.6,8.6c0.1,0.1,0.1,0.2,0.1,0.3l-0.1,0.3v0.2c0,0.1,0,0.1,0,0.2V103z M141.1,82.3c-0.3,0-0.5,0-0.8,0.1
	c-0.4,0-0.8,0.1-1.2,0.2c-0.1,1.5-0.2,5-0.3,10.6c0,2.7,0,5,0,6.8c0,1,0,1.7,0,2.3c0,0.2,0,0.4,0,0.7v0.2h0.1c0.1,0,0.2,0.1,0.3,0.1
	c0.3,0,0.7,0,1,0l1.1-0.1c0.2,0,0.3,0,0.5,0c0,0-0.1-0.1-0.1-0.2v-0.5c0-0.1,0-0.1,0-0.2c0-3.1,0.2-6.1,0.7-9.1
	c0.2-1.7,0.7-3.4,1.4-5c0.8-1.5,1.7-2.2,2.9-2c0.8,0.1,1.5,0.5,2,1.1c0.5,1,0.7,2,0.7,3.1c0.1,1.5,0.1,3,0.1,4.5
	c0,0.8-0.1,2.3-0.2,4.7c-0.1,1.7-0.1,2.9,0,3.5v0.1l0.3-0.1l0.4-0.1l0.3-0.1h1.1v-4.6c0-4.5,0-7.3-0.1-8.5c0-1.6-0.2-3.2-0.5-4.8
	c-0.1-0.6-0.2-1.1-0.4-1.7c-0.1-0.3-0.3-0.6-0.5-0.9c-1.1-0.8-2.5-1-3.7-0.4c-1.3,0.5-2.4,1.3-3.2,2.4c-0.6,0.7-1,1.5-1.2,2.4
	c0,0.2-0.1,0.4-0.1,0.5V88c0,0,0,0.1,0,0.1c-0.1,0.1-0.2,0.2-0.3,0.1c0,0,0,0,0,0l-0.2-0.1c0,0,0-0.1,0-0.1v-0.6c0-0.7,0-1.5,0-2.6
	v-2.5C141.3,82.3,141.1,82.3,141.1,82.3L141.1,82.3z M151.7,102.9L151.7,102.9z"/>
<path d="M164.8,102.2c-0.5,0.5-1.1,0.9-1.8,1.3c-0.7,0.4-1.6,0.6-2.4,0.5c-1.1-0.2-2-0.7-2.7-1.6c-1.1-1.2-1.7-3.6-1.8-7.2
	c0-1,0-2.4,0-4.2s0-2.9,0-3.5l-0.1-2.5v-1.5c0-0.2,0-0.3,0-0.5c0-0.1,0-0.1,0-0.2c0-0.1,0.1-0.2,0.2-0.3c0.2-0.1,0.5-0.2,0.8-0.2
	c0.3,0,0.6,0,0.9,0l0.9,0.1l0.7,0.1c0.1,0,0.3,0.1,0.3,0.3c0,0,0,0,0,0.1c0,0.1-0.1,0.3-0.3,0.3c0,0,0,0,0,0c0,0.8,0,2.1,0,3.7
	c0,1.6,0,2.8,0,3.5c0,3.2,0.1,5.6,0.3,7.3c0.1,0.5,0.2,0.9,0.5,1.3c0.3,0.4,0.7,0.7,1.1,0.8c0.9,0.4,1.9,0.1,2.4-0.8
	c1.1-1.6,1.7-4.1,1.7-7.5c0-0.5,0-1.9-0.1-4.2c0-1.7,0-3,0.1-3.9v-0.2c0-0.1,0.1-0.3,0.2-0.4c0.2-0.1,0.4-0.2,0.6-0.2l0.8-0.1
	c0.3,0,0.5,0,0.8,0c0.1,0,0.2,0,0.3,0c0.1,0,0.2,0.1,0.3,0.2c0.2,0.3,0.3,0.7,0.3,1.1c0,0.4,0,1,0.1,1.6c0,0.4,0,0.9,0,1.6
	s0,1.1,0,1.2c0.1,2.1,0.1,4.8,0.1,7.9c0,2,0,3.6,0,4.8c0,0.7,0,1.2-0.1,1.6c0,0.2,0,0.3-0.1,0.5c0,0.1-0.1,0.3-0.2,0.4
	c-0.1,0.1-0.2,0.1-0.3,0.2c-0.1,0-0.3,0-0.4,0c-0.3,0-0.6,0-0.9,0l-0.9-0.1l-0.4-0.1c-0.1,0-0.2-0.1-0.3-0.2
	c-0.1-0.1-0.1-0.3-0.1-0.4v-1.1C165.1,101.8,164.9,102,164.8,102.2z M166.1,83.3v0.2c-0.1,1.3-0.1,2.5-0.1,3.8
	c0.1,2.3,0.1,3.8,0.1,4.3c0,3.5-0.6,6.1-1.8,7.9c-0.3,0.5-0.9,0.9-1.5,1.1c-0.5,0.2-1.1,0.1-1.7-0.1c-0.5-0.2-1-0.5-1.4-1
	c-0.4-0.5-0.6-1-0.6-1.6c-0.2-1.8-0.3-4.2-0.3-7.4c0-0.7,0-1.9,0-3.5c0-1.6,0-2.9,0-3.7l-1-0.1c-0.3,0-0.5,0-0.8,0
	c-0.1,0-0.3,0-0.4,0l0,0c0,0.2,0,0.3,0,0.5v1.4l0.1,2.5c0,0.6,0,1.7,0,3.5c0,1.8,0,3.1,0,4.2c0.1,3.4,0.6,5.7,1.6,6.8
	c0.6,0.7,1.4,1.2,2.3,1.4c0.7,0.1,1.5-0.1,2.1-0.5c0.6-0.3,1.1-0.8,1.6-1.2l0.6-0.5l0.3-0.2c0.1,0,0.2,0,0.3,0
	c0.2,0.1,0.3,0.2,0.3,0.4c0,0.1,0,0.1,0,0.2v0.1c0,0.2,0,0.5,0,0.8v0.3c0,0,0,0.1,0,0.1l0,0l0.3,0.1l0.8,0.1c0.3,0,0.6,0,0.8,0
	c0.1,0,0.2,0,0.3,0l0,0V103c0-0.1,0.1-0.3,0.1-0.5c0.1-0.5,0.1-1.1,0.1-1.6c0-1.1,0-2.7,0-4.7c0-3.1,0-5.7-0.1-7.9
	c0-0.1,0-0.5,0-1.2s0-1.2,0-1.6c0-0.7,0-1.2-0.1-1.6c0-0.3-0.1-0.6-0.2-0.8h-0.3h-0.8L166.1,83.3c0-0.1-0.1-0.1-0.2-0.1L166.1,83.3z
	"/>
<path d="M176.1,103.2c-0.4,0-0.7,0.1-0.8,0.1c-0.3,0-0.6,0-0.9,0c-0.2,0-0.5-0.1-0.7-0.2c-0.1-0.1-0.1-0.1-0.1-0.2
	c0-0.1,0-0.1,0-0.2c0-0.2,0-0.3,0-0.5c-0.1-0.5-0.1-1-0.1-1.6c-0.1-1.1-0.1-2.7-0.1-4.7V83.3l-0.1-0.4c-0.1-0.2,0-0.5,0.2-0.7
	c0.3-0.1,0.6-0.2,0.9-0.1h0.2h0.3h0.2h0.2h0.2h0.2c0.4-0.2,0.8,0,1,0.3c0,0.1,0,0.2,0,0.3c0,0.1,0,0.3,0.1,0.6
	c0.1,0.3,0.1,0.8,0,1.6v1c0.1-0.1,0.2-0.3,0.3-0.4l0.2-0.3c0.4-0.7,0.9-1.4,1.5-2.1c0.3-0.3,0.7-0.6,1.2-0.8c0.5-0.1,1,0,1.3,0.5
	c0.6,0.9,0.9,1.9,0.9,2.9c0.1,0.4,0.1,1,0.1,1.7s0.1,1.1,0.1,1.3c0.2-1.1,0.6-2.1,1-3.1c0.4-1,1-2,1.8-2.8c0.6-0.7,1.7-1,2.6-0.7
	c0.7,0.2,1.3,0.6,1.7,1.3c0.6,1.5,1,3,1.1,4.6c0.1,1.7,0.1,3.5-0.1,5.2c0,0.3,0,1-0.1,2c-0.1,1-0.2,1.8-0.2,2.2c0,0.4,0,1.1-0.1,1.8
	c0,0.7,0,1.3,0,2c0,0.6,0.1,1.1,0.2,1.7c0,0.1,0,0.2-0.1,0.3v0.1c0,0.1-0.1,0.3-0.2,0.3c0,0,0,0-0.1,0H189c-0.3,0-0.7,0.1-1,0.1
	c-0.4,0-0.8,0-1,0c-0.3,0-0.5-0.1-0.8-0.2c-0.1,0-0.1-0.1-0.2-0.2v-0.1c0-0.1,0-0.1,0-0.2v-2c0-0.3,0-1,0-2.1s0-1.9,0-2.6
	c0-2,0-3.5,0-4.7c0-0.5-0.1-1-0.1-1.6c0-0.2-0.1-0.3-0.1-0.5l0,0h-0.2c-0.1,0.1-0.2,0.1-0.2,0.2c-0.2,0.4-0.3,0.8-0.4,1.3
	c-0.1,0.6-0.2,1.2-0.3,1.8c-0.1,0.8-0.2,1.4-0.3,1.7c0,0,0,0.1,0,0.1V95c-0.1,0.1-0.1,0.2-0.3,0.3c-0.2,0.1-0.4,0.2-0.6,0.2
	c-0.2,0-0.4,0-0.7,0h-0.8h-0.5h-0.5h-0.6c-0.4,0-0.8,0-1.2-0.1c-0.2-0.1-0.3-0.3-0.3-0.5c0-0.2-0.1-0.4-0.1-0.7
	c0-0.3-0.1-0.6-0.1-0.9c0-0.4,0-0.7,0-0.9c0-0.6-0.1-1.1-0.3-1.7c-0.1-0.4-0.3-0.6-0.4-0.6c-0.2,0-0.4,0.1-0.5,0.3
	c-0.2,0.4-0.4,0.8-0.5,1.2c-0.3,1.3-0.5,2.7-0.5,4.1c-0.1,1.5-0.1,3,0,4.4c0,0.9,0.1,1.7,0.3,2.6c0.1,0.2,0,0.3-0.1,0.4
	c-0.1,0-0.1,0-0.2,0h-0.1L176.1,103.2z M187.1,103.1c0.3,0,0.6,0,0.9,0c0.1,0,0.4,0,1-0.1h0.6c-0.1-0.6-0.2-1.2-0.2-1.8
	c0-0.7,0-1.4,0-2.1c0-0.8,0-1.4,0.1-1.9s0.1-1.2,0.1-2.2s0.1-1.7,0.1-2c0.2-1.7,0.2-3.4,0.1-5.1c-0.1-1.5-0.4-3-1-4.4
	c-0.3-0.5-0.8-0.8-1.3-0.9c-0.7-0.2-1.5,0-2,0.5c-0.7,0.8-1.2,1.7-1.6,2.7c-0.8,1.7-1.2,3.6-1.3,5.5v0.5l0,0l0,0
	c0,0.1-0.1,0.1-0.1,0.1c-0.1,0.1-0.2,0.1-0.3,0c0,0,0-0.1,0-0.1l0,0v-1.2c0-0.2-0.1-0.8-0.2-1.9c0-0.2,0-0.6-0.1-1.3
	c-0.1-0.7-0.1-1.3-0.1-1.7c0-0.9-0.3-1.8-0.8-2.6c-0.2-0.2-0.5-0.3-0.7-0.2c-0.4,0.1-0.7,0.3-0.9,0.6c-0.6,0.6-1.1,1.3-1.5,2
	c-0.3,0.4-0.6,0.9-0.8,1.4V87c0,0.1,0,0.1,0,0.2c0,0.1-0.1,0.2-0.2,0.2c-0.1,0-0.2,0-0.3,0c-0.1,0-0.1-0.1-0.2-0.1c0,0,0-0.1,0-0.1
	V87c0-0.2,0-0.4,0-0.5c0-0.2,0-0.7,0-1.6c0-0.7,0-1.2,0-1.6c0-0.2,0-0.4,0-0.5c0,0,0-0.1,0-0.1c-0.1,0-0.2,0-0.3,0l-0.7,0.1
	l-0.8-0.1c-0.1,0-0.3,0-0.4,0v0.1c0.1,0.2,0.1,0.4,0.1,0.5v12.6c0,2,0,3.6,0.1,4.7c0,0.7,0,1.2,0,1.6c0,0.1,0,0.3,0.1,0.4l0,0
	c0.1,0,0.2,0,0.3,0c0.3,0,0.5,0,0.8,0c0.3,0,0.6-0.1,0.8-0.1c0.1,0,0.3,0,0.4,0c-0.1-0.8-0.2-1.6-0.3-2.4c-0.1-1.5-0.1-3,0-4.5
	c0.1-1.4,0.3-2.8,0.6-4.2c0.1-0.5,0.3-1,0.6-1.4c0.2-0.4,0.7-0.6,1.1-0.5c0.4,0.1,0.7,0.4,0.9,1c0.2,0.6,0.3,1.2,0.3,1.8
	c0,0.2,0,0.4,0,0.9s0,0.7,0.1,0.9c0,0.2,0,0.4,0.1,0.5c0,0,0,0.1,0,0.1c0.3,0.1,0.6,0.1,0.8,0h0.6h0.5h0.5h0.7c0.2,0,0.4,0,0.6,0
	c0.1,0,0.2,0,0.3-0.1c0,0,0-0.1,0-0.1v-0.1c0.1-0.3,0.1-0.9,0.3-1.7c0.1-0.6,0.1-1.3,0.3-1.9c0.1-0.5,0.2-1,0.5-1.5
	c0.1-0.2,0.3-0.3,0.5-0.4c0.2-0.1,0.5-0.1,0.7,0.1c0.1,0.1,0.2,0.2,0.3,0.4c0,0.1,0.1,0.3,0.1,0.5c0.1,0.4,0.1,0.9,0.1,1.6
	c0.1,1.1,0.1,2.6,0,4.7c0,0.7,0,1.5,0,2.6s0,1.8,0,2.1v1.9C187,103,187.1,103,187.1,103.1L187.1,103.1z"/>
<path d="M197.9,102.1c0,0.2,0,0.3,0,0.5c-0.1,0.5-0.3,0.9-0.5,1c-0.2,0.1-0.4,0.1-0.6,0.1c-0.3,0-0.6,0-0.9,0c-0.3,0-0.6,0-0.9,0
	l-0.4-0.1c-0.1,0-0.2-0.1-0.3-0.2c-0.1-0.1-0.1-0.2-0.1-0.3v-0.6c0-0.1,0-0.3,0-0.4V102c0-1.6,0-4.1,0.1-7.3
	c0.1-3.3,0.1-5.7,0.1-7.3c0-2.4,0-0.9,0-2.6s0-3.2,0-4.3c0-1.6,0-3,0.1-4c0-0.7,0.1-1.1,0.1-1.4c0-0.1,0-0.3,0-0.4
	c0-0.1,0.1-0.2,0.2-0.3c0.1-0.1,0.2-0.1,0.3-0.1c0.1,0,0.2,0,0.3,0c0.2,0,0.5,0,0.7,0l0.8,0.1c0.1-0.1,0.1-0.1,0.3-0.1h0.5
	c0.2,0.1,0.4,0.3,0.5,0.5c0.1,0.7,0.2,1.5,0.1,2.2c0,0.9,0,2.1-0.1,3.6c0,0.6,0,1.4-0.1,2.4l-0.1,2.4c0,0.6,0,1.1,0,1.3v0.3
	c0.4-0.8,0.8-1.6,1.4-2.3c1.1-1.1,2.6-1.6,4.1-1.4c1.5,0.1,2.9,0.9,3.9,2c1,1.3,1.6,2.9,1.8,4.5c0.3,1.9,0.2,3.8-0.2,5.7
	c-0.3,1.9-1,3.8-2.1,5.5c-0.8,1.4-2.2,2.4-3.8,2.7c-1,0.2-1.9,0.1-2.9-0.2C199.4,103.2,198.6,102.7,197.9,102.1L197.9,102.1z
	 M195.9,74.6c-0.2,0-0.4,0-0.6,0h-0.2l0,0c0,0.1,0,0.3,0,0.4c0,0.3,0,0.7-0.1,1.3c-0.1,1-0.1,2.4-0.1,4c0,1.2,0,2.6,0,4.3
	c0,1.7,0,2.6,0,2.6c0,1.6,0,4.1-0.1,7.3c-0.1,3.3-0.1,5.7-0.1,7.3v0.3c0,0.1,0,0.3,0,0.4v0.5c0.1,0,0.2,0,0.3,0c0.3,0,0.6,0,0.8,0
	c0.3,0,0.6,0,0.8,0h0.4c0.1-0.1,0.1-0.2,0.2-0.5c0-0.2,0-0.3,0-0.5v-0.4c0,0,0-0.1,0-0.1c-0.1-0.2,0-0.4,0.3-0.5
	c0.2-0.1,0.4,0,0.5,0.3c0.2,0.3,0,0.1,0.1,0.1v0.1c0.6,0.7,1.4,1.1,2.2,1.4c0.9,0.3,1.8,0.3,2.7,0.2c1.4-0.3,2.7-1.2,3.4-2.5
	c1-1.6,1.6-3.4,1.9-5.2c0.4-1.9,0.4-3.8,0.1-5.7c-0.1-1.5-0.7-3-1.6-4.2c-0.9-1.1-2.2-1.7-3.6-1.9c-1.4-0.2-2.7,0.3-3.7,1.3
	c-0.2,0.2-0.4,0.5-0.6,0.8c-0.2,0.3-0.4,0.6-0.6,1s-0.4,0.7-0.5,0.9l0,0c0,0.1,0,0.1,0,0.2c0,0.1-0.1,0.2-0.1,0.2
	c-0.1,0.1-0.2,0.2-0.3,0.1c-0.1,0-0.2-0.1-0.3-0.2c0,0,0-0.1,0-0.1v-1.3c0-0.3,0-0.7,0-1.3l0.1-2.4c0.1-1,0.1-1.8,0.1-2.4
	c0.1-1.5,0.1-2.7,0.1-3.5c0-0.7,0-1.3-0.1-2c0,0,0-0.1,0-0.1h-0.1c0,0.1-0.2,0.2-0.3,0.2C196.7,74.7,196.3,74.6,195.9,74.6
	L195.9,74.6z M194.7,103.1L194.7,103.1z M198.5,90.9c0.4-1.2,1.2-2.2,2.1-3.1c0.8-0.7,1.7-1,2.7-0.9c1,0.1,1.8,0.7,2.2,1.6
	c0.6,1.2,0.8,2.5,0.6,3.8c-0.1,1.9-0.7,3.8-1.6,5.4c-0.4,0.8-1.1,1.5-2,1.8c-1,0.3-2.2,0.1-3-0.5c-0.3-0.2-0.5-0.3-0.8-0.5
	c-0.3-0.2-0.5-0.5-0.7-0.8c-0.2-1-0.2-2.1-0.1-3.2c0-0.3,0-0.7,0.1-1.1c0-0.5,0.1-0.9,0.1-1.2c0-0.3,0-0.6,0-0.8
	c0-0.1,0.1-0.3,0.2-0.3c0,0,0,0,0,0C198.5,91,198.5,91,198.5,90.9L198.5,90.9z M198.8,92.3c0,0.3,0,0.8-0.1,1.2
	c-0.1,0.5-0.1,0.9-0.1,1.1c-0.1,1-0.1,2,0.1,3c0.1,0.2,0.3,0.4,0.5,0.5c0.2,0.2,0.5,0.3,0.8,0.5c0.7,0.5,1.6,0.7,2.4,0.5
	c0.7-0.3,1.3-0.9,1.7-1.6c0.9-1.6,1.5-3.4,1.6-5.2c0.2-1.2,0-2.3-0.5-3.4c-0.3-0.7-1-1.2-1.8-1.4c-0.9-0.1-1.7,0.2-2.3,0.8
	c-0.9,0.7-1.6,1.7-2,2.8c0,0.1-0.1,0.2-0.2,0.2l0,0C198.9,91.6,198.9,91.9,198.8,92.3L198.8,92.3z"/>
<path d="M218.1,93.7h-0.3c-0.1,0-0.3,0.1-0.4,0.1c-0.3,0.1-0.4,0.2-0.5,0.2c0,0.1-0.1,0.3-0.1,0.4c0,0.2,0,0.4,0,0.8
	c0.1,0.7,0.2,1.3,0.4,2c0.2,0.7,0.4,1.3,0.8,1.9c0.3,0.5,0.5,0.8,0.8,0.8c0.9,0.1,1.7-0.1,2.4-0.7c0.7-0.6,1.2-1.4,1.4-2.4
	c0-0.2,0-0.3,0-0.5c0-0.3,0.1-0.5,0.2-0.7c0.1-0.1,0.2-0.2,0.4-0.2c0.1,0,0.3,0,0.4,0c0.3,0,0.7,0,1,0.1c0.3,0.1,0.7,0.1,1,0.2
	c0.1,0,0.3,0.1,0.4,0.2c0.1,0.1,0.2,0.2,0.3,0.3c0.2,0.5,0.2,1,0.1,1.4c-0.1,0.4-0.2,0.8-0.3,1.3c-0.4,1-1,2-1.9,2.7
	c-0.8,0.8-1.8,1.4-2.9,1.7c-1,0.4-2.2,0.5-3.3,0.4c-1.1-0.1-2.2-0.5-3.2-1.1c-1.4-1-2.3-2.8-2.6-5.4c-0.2-2.6,0.1-5.1,0.9-7.6
	c0.7-2.4,2-4.5,3.8-6.2c1.8-1.5,4.3-1.9,6.5-1c0.8,0.4,1.4,1.1,1.7,1.9c0.4,0.9,0.7,1.9,0.9,2.9c0.2,1,0.2,1.9,0.2,2.9
	c0,0.3-0.1,0.7-0.2,1c0,0.3-0.2,0.5-0.4,0.7c-0.5,0.2-1,0.3-1.5,0.4l-2.4,0.5c-1.5,0.3-2.6,0.5-3.4,0.6
	C218.2,93.5,218.1,93.6,218.1,93.7z M221.5,92.3c0.9-0.2,1.7-0.4,2.4-0.6c0.5-0.1,0.9-0.2,1.4-0.4c0.1,0,0.1-0.1,0.2-0.3
	c0.1-0.3,0.2-0.6,0.2-0.9c0-0.9-0.1-1.8-0.2-2.7c-0.2-1-0.4-1.9-0.8-2.8c-0.2-0.7-0.7-1.2-1.4-1.6c-2-0.9-4.3-0.5-5.9,0.9
	c-1.8,1.6-3,3.6-3.6,5.9c-0.8,2.4-1.1,4.8-0.8,7.3c0.3,2.5,1,4.1,2.3,5c1.2,0.8,2.5,1.1,3.9,1.1c1.4-0.1,2.7-0.5,3.8-1.3
	c1.1-0.8,2-1.8,2.5-3.1c0.2-0.4,0.3-0.8,0.3-1.2c0.1-0.4,0.1-0.7,0-1.1l0,0l-0.3-0.1c-0.3-0.1-0.6-0.2-0.9-0.2
	c-0.3-0.1-0.6-0.1-0.9-0.1c-0.1,0-0.2,0-0.3,0l0,0c0,0.1,0,0.2,0,0.3c0,0.2,0,0.4,0,0.6c-0.3,1-0.9,1.9-1.6,2.7
	c-0.8,0.7-1.8,1-2.8,0.8c-0.4-0.1-0.8-0.5-1.2-1.1c-0.3-0.6-0.6-1.3-0.8-2c-0.2-0.7-0.4-1.4-0.4-2.1c0-0.3,0-0.6,0-0.8
	c0-0.2,0.1-0.4,0.2-0.6c0.2-0.3,0.5-0.5,0.8-0.5c0-0.1,0.2-0.2,0.3-0.2C219,92.9,220.3,92.7,221.5,92.3z M218,87.7
	c0.3-0.6,0.7-1.1,1.3-1.6c0.5-0.4,1.1-0.6,1.8-0.6c0.7,0.2,1.3,0.8,1.5,1.5l0.2,0.7c0.1,0.1,0.1,0.3,0.1,0.4c0,0.1,0,0.3,0,0.4
	c0,0.1-0.1,0.2-0.1,0.2l0,0l-0.2,0.1c-0.2,0.1-0.3,0.2-0.5,0.3c-0.4,0.2-0.9,0.4-1.5,0.6l-1.6,0.5c-0.2,0.1-0.4,0.1-0.5,0.2
	c-0.1,0-0.1,0-0.2,0H218c-0.2-0.1-0.3-0.2-0.3-0.4c0,0,0-0.1,0-0.1v0c-0.1-0.1-0.1-0.2,0-0.3C217.6,88.9,217.7,88.3,218,87.7z
	 M222.2,88.3c0-0.1-0.1-0.2-0.1-0.4s-0.1-0.4-0.2-0.6c-0.2-0.7-0.5-1-1-1.1c-0.5,0-1,0.1-1.3,0.5c-0.5,0.4-0.9,0.9-1.2,1.5
	c-0.3,0.5-0.4,1.1-0.3,1.6l0,0l0.5-0.1c0.4-0.1,0.9-0.3,1.5-0.5s1.1-0.4,1.5-0.5L222.2,88.3L222.2,88.3L222.2,88.3z"/>
<path d="M234.2,84.6l0.4-0.3l0.3-0.2c1.5-0.4,3.1,0,4.2,1.1c1.2,0.9,1.9,2.3,2,3.8v0.3c0,0.1,0,0.3-0.1,0.4
	c-0.1,0.1-0.2,0.2-0.4,0.3c-0.1,0.1-0.3,0.2-0.4,0.2l-0.4,0.2l-0.3,0.1l-0.3,0.2c-0.1,0.1-0.3,0.2-0.5,0.2c-0.3,0.2-0.8,0.2-1.1,0
	c-0.1-0.1-0.2-0.3-0.3-0.4c0-0.1-0.1-0.3-0.3-0.6c-0.2-0.5-0.5-1-0.8-1.4c-0.2-0.4-0.5-0.7-0.9-0.8c-0.4-0.1-0.8,0.2-1.3,0.8
	c-0.5,0.9-0.8,2-0.8,3c-0.1,1.6-0.2,3.3-0.1,4.9c0,0.3,0,1,0,2.2c0,1.2,0,2,0,2.5c0,0.5,0,1.1-0.1,1.6c0,0.2,0,0.4-0.1,0.5
	c0,0.2-0.1,0.3-0.3,0.4c-0.2,0.1-0.5,0.2-0.8,0.2c-0.3,0-0.6,0-1,0c-0.3,0-0.7-0.1-1-0.2c-0.1,0-0.3-0.1-0.4-0.1
	c-0.1-0.1-0.2-0.2-0.3-0.3c-0.1-0.4-0.1-0.8-0.1-1.2c0-0.6,0-1.3,0-2.2c0-1.7,0-3.8,0.1-6.3c0.1-4.7,0.2-8,0.4-10
	c-0.1-0.1-0.1-0.1-0.1-0.2c0-0.1,0.1-0.2,0.2-0.3c0.1-0.1,0.2-0.2,0.3-0.2c0.1,0,0.2,0,0.2,0.1c0.5,0,1.5,0,3.1,0
	c0.1,0,0.3,0.1,0.3,0.2c0,0,0,0,0,0.1l0,0c0.1,0.1,0.1,0.1,0.1,0.3c0,0.1,0,0.2,0,0.4v0.6c0,0.2,0,0.3,0,0.5l0,0
	C234,84.9,234.1,84.7,234.2,84.6z M232.6,102.9c0-0.2,0-0.3,0-0.5c0.1-0.5,0.1-1,0.1-1.5c0-0.5,0-1.3,0-2.5c0-1.1,0-1.9,0-2.2
	c0-2.1,0-3.8,0.1-5c0-1.2,0.3-2.3,0.9-3.3c0.5-0.9,1.5-1.2,2.4-0.7c0.4,0.2,0.6,0.5,0.8,0.9c0.3,0.5,0.6,1,0.8,1.6
	c0.1,0.2,0.1,0.4,0.3,0.6c0,0.1,0.1,0.2,0.1,0.3c0.1,0.1,0.2,0,0.5-0.1c0.1,0,0.3-0.1,0.4-0.2c0.1-0.1,0.2-0.1,0.3-0.2l0.3-0.1
	l0.4-0.2c0.1-0.1,0.3-0.1,0.4-0.2h0.1v-0.3c-0.1-1.3-0.7-2.6-1.8-3.4c-1-0.9-2.4-1.3-3.7-0.9c-0.1,0-0.1,0-0.2,0.1l-0.4,0.3
	c-0.1,0.1-0.3,0.2-0.4,0.3l-0.2,0.1c-0.1,0-0.2,0-0.3,0c-0.2-0.1-0.3-0.3-0.3-0.5c0-0.2,0-0.4,0-0.7v-0.6c0-0.3,0-0.4,0-0.4
	c-1.4,0-2.4,0-2.9,0c-0.1,2-0.3,5.3-0.4,10c-0.1,2.5-0.1,4.6-0.1,6.2c0,0.9,0,1.7,0,2.2c0,0.3,0,0.7,0.1,1l0,0l0.3,0.1
	c0.3,0.1,0.6,0.1,0.9,0.1c0.3,0,0.6,0,0.9,0C232.2,102.9,232.4,102.9,232.6,102.9L232.6,102.9z"/>
<path class="st2" d="M11,54.4c-0.5-0.2-1-0.2-1.4,0c-0.2,0.4,0,0.9,0.4,1.1c0.4,0.2,0.9,0,1.1-0.4C11.1,54.8,11.1,54.6,11,54.4z"/>
<path class="st2" d="M17.6,64.5c-0.4,1.3,1.2,1.4,1.7,0.9C19.5,64.3,18.5,64.5,17.6,64.5z"/>
<path class="st2" d="M0.6,65.7c-0.2,1.3,1,1.2,1.7,0.9C2.3,65.6,1.4,65.7,0.6,65.7z"/>
<path class="st2" d="M10.7,73.5c-0.8-0.2-0.8,0.4-1.4,0.3c-0.4,1.6,1.6,1.3,1.7,0.3C10.8,74,10.6,73.8,10.7,73.5z"/>
<path class="st2" d="M13.9,64.1c-0.3,0.1-0.5,0.2-0.8,0.2l-0.4-0.3c-0.9-0.6-1.8-1.2-1.8-2.2H11c-0.6-1.4,0.5-2.8,0-4
	c-0.4,0-0.4-0.4-0.9-0.3c-0.5,1.1-0.5,2.8-0.9,4v0c-0.1,0-0.2,0.1-0.3,0.2c-0.4,0.8-0.9,1.5-1.6,2c-0.4,0.4-0.8,0.8-1.1,1.2
	c-0.6,0.1-1.2,0.4-1.7,0.9c0.7,0.2,1.1,0.8,2,0.9c0.9,0.4,1.5,1.1,1.8,2l0,0c0,0.2,0.1,0.4,0.3,0.6c0,0.9-0.3,2.2,0.9,2
	c0.6-0.3,0.6-1.1,0.6-2L10,69.3l0,0c1-1.4,2-2.7,3.2-3.9c0.3-0.1,0.7-0.1,1-0.2L13.9,64.1z M9.5,68.6H9.2C8.9,67.4,8,66.5,6.9,66
	l0,0v-0.3c0.3-0.4,0.7-0.8,1.1-1.2c0.7-0.6,1.2-1.2,1.6-2c0.2,0,0.3-0.2,0.4-0.2c0.3,1.1,1.1,2.1,2.2,2.6l0.2,0.2
	C11.4,66.1,10.4,67.3,9.5,68.6z"/>
<path class="st2" d="M247.5,53c-0.5-0.2-1-0.2-1.5,0c-0.2,0.4,0,0.9,0.4,1c0.4,0.2,0.9,0,1-0.4C247.6,53.4,247.6,53.2,247.5,53z"/>
<path class="st2" d="M254.1,63.2c-0.4,1.3,1.2,1.4,1.7,0.9C256,63,255,63.2,254.1,63.2z"/>
<path class="st2" d="M237.1,64.3c-0.1,1.3,1,1.2,1.7,0.9C238.8,64.3,237.9,64.3,237.1,64.3z"/>
<path class="st2" d="M247.2,72.2c-0.8-0.2-0.8,0.4-1.4,0.3c-0.4,1.6,1.6,1.3,1.7,0.3C247.3,72.7,247.1,72.5,247.2,72.2z"/>
<path class="st2" d="M250.4,62.8c-0.3,0.1-0.5,0.2-0.8,0.2l-0.4-0.3c-0.9-0.6-1.8-1.2-1.8-2.2h0.1c-0.6-1.4,0.5-2.8,0-4
	c-0.4,0-0.4-0.4-0.9-0.3c-0.5,1.1-0.5,2.8-0.9,4v0c-0.1,0-0.2,0.1-0.3,0.2c-0.4,0.8-0.9,1.5-1.6,2c-0.4,0.4-0.8,0.8-1.1,1.2
	c-0.6,0.1-1.2,0.4-1.7,0.9c0.7,0.2,1.1,0.8,2,0.9c0.9,0.4,1.5,1.1,1.8,2l0,0c0,0.2,0.1,0.4,0.3,0.6c0,0.9-0.3,2.2,0.9,2
	c0.6-0.3,0.6-1.1,0.6-2l-0.1-0.1l0,0c1-1.4,2-2.7,3.2-3.9c0.3-0.1,0.7-0.1,1-0.2L250.4,62.8z M246,67.2h-0.3
	c-0.3-1.2-1.2-2.1-2.3-2.6l0,0v-0.3c0.3-0.4,0.7-0.8,1.1-1.1c0.7-0.6,1.2-1.2,1.6-2c0.2,0,0.3-0.2,0.4-0.2c0.3,1.1,1.1,2.1,2.2,2.6
	l0.2,0.2C247.8,64.8,246.9,66,246,67.2z"/>
<path class="st2" d="M100.9,24.6h-3v-1.4h7.7v1.4h-3v9h-1.6L100.9,24.6z"/>
<path class="st2" d="M107.1,32l1.1-0.8c0.3,0.7,0.9,1.1,1.7,1.1c1,0,1.6-0.6,1.6-2.1v-7h1.6v7.2c0,1.8-0.9,3.3-3,3.3
	C108.8,33.8,107.6,33.1,107.1,32z"/>
<path class="st2" d="M131.3,29.2c-0.4,1.2-1,2.4-1.9,3.3c0.8,0.6,1.7,1,2.7,1.2c-0.3,0.3-0.6,0.6-0.8,1c-1-0.3-2-0.8-2.8-1.4
	c-0.8,0.6-1.7,1.1-2.6,1.4c-0.2-0.4-0.4-0.7-0.6-1v1H124v-1.2c-1.7,0.2-3.3,0.4-4.6,0.5l-0.1-1.1l1.3-0.1v-4.5h-1.2v-1.1h12.3v1.1
	h-6.5v5.4c0.8-0.3,1.6-0.7,2.3-1.2c-0.6-0.7-1.1-1.5-1.4-2.3l0.8-0.2h-1.3v-1h4.6h0.2L131.3,29.2z M130.1,26.4h-9v-4.2h9V26.4z
	 M121.8,28.2V29h2.2v-0.8L121.8,28.2z M121.8,30.7h2.2v-0.8h-2.2L121.8,30.7z M124,32.3v-0.7h-2.2v0.9L124,32.3z M128.8,23.1h-6.5
	v0.8h6.5V23.1z M128.8,24.8h-6.5v0.8h6.5V24.8z M127.2,29.9c0.3,0.7,0.7,1.2,1.2,1.8c0.5-0.5,0.9-1.1,1.3-1.8H127.2z"/>
<path class="st2" d="M139.2,32.7c-0.3-0.3-0.8-0.9-1.4-1.4v3.3h-1.3v-3.3c-0.6,0.9-1.3,1.7-2.1,2.4c-0.2-0.3-0.5-0.7-0.8-0.9
	c1.1-0.8,2-1.8,2.7-2.9H134v-1.1h2.6v-1.3H134v-1.1h1.4c-0.1-0.6-0.2-1.2-0.5-1.8l1-0.2h-1.7v-1.1h2.4v-1.3h1.3v1.3h2.4v1.1h-1.7
	l1,0.2c-0.3,0.7-0.5,1.3-0.8,1.8h1.6v1.1H138v1.3h2.5v1.1H138v0.2c0.5,0.4,1.8,1.4,2.1,1.7L139.2,32.7z M135.9,24.3
	c0.3,0.6,0.5,1.2,0.6,1.8l-0.8,0.2h3.1l-1-0.2c0.3-0.6,0.5-1.2,0.6-1.8H135.9z M146.7,27.7h-1.5v6.9H144v-6.9h-1.8v0.1
	c0,2.1-0.3,5-2.2,6.9c-0.2-0.4-0.6-0.7-0.9-0.9c1.7-1.7,1.9-4.1,1.9-6v-4.8l0.9,0.3c1.3-0.3,2.5-0.7,3.7-1.2l1.1,0.9
	c-1.4,0.6-2.9,1-4.4,1.3v2.3h4.5L146.7,27.7z"/>
<path class="st2" d="M153,28.7c-0.1,0.4-0.2,0.7-0.4,1h6.9c0,0.2,0,0.4-0.1,0.6c-0.3,2.4-0.7,3.5-1.2,3.9c-0.4,0.3-0.8,0.5-1.3,0.5
	c-0.5,0-1.4,0-2.4,0c0-0.5-0.2-0.9-0.5-1.3c1,0.1,2,0.1,2.4,0.1c0.2,0,0.5,0,0.7-0.1c0.3-0.3,0.6-1,0.8-2.5h-5.8l-0.3,0.9l-1.4-0.2
	c0.3-0.8,0.7-1.9,1.1-2.9h-2.9v-1.1h12.5v1.2L153,28.7z M159.5,26.5h-8.9v-4.2h8.9V26.5z M158.2,23.5h-6.3v1.9h6.3V23.5z"/>
<path class="st1" d="M108.6,64.4c-0.5,0-0.9-0.4-0.9-0.9c0-0.2,0.1-0.4,0.2-0.6c2.5-2.9,4.1-6.4,5.7-10.1c0.2-0.5,0.8-0.7,1.2-0.5
	c0.5,0.2,0.7,0.8,0.5,1.2l0,0c-1.6,3.8-3.3,7.5-6,10.6C109.1,64.3,108.8,64.4,108.6,64.4L108.6,64.4z"/>
<path class="st1" d="M114.4,54.1c-0.5,0-0.9-0.4-1-0.8c-0.1-0.9,0-1.9,0.1-2.8c0.1-0.5,0.1-1,0.1-1.5c-0.1-0.5,0.2-1.1,0.7-1.2
	c0.5-0.1,1.1,0.2,1.2,0.7c0,0.2,0,0.4,0,0.6c0,0.6-0.1,1.1-0.2,1.7c-0.1,0.8-0.2,1.6-0.1,2.4C115.3,53.6,115,54,114.4,54.1
	L114.4,54.1z"/>
<path class="st1" d="M126.4,54.8c-4,0-8.1-0.3-12.1-0.8c-0.5-0.1-0.8-0.5-0.8-1c0.1-0.5,0.5-0.8,1-0.8c11.4,1.3,21.6,0.8,34.9-1.8
	s32.8-11.3,31.1-24.5c-0.4-3.5-3.5-8.9-9.3-12.8c-13.3-9-31.1-10.4-43.6-10.1c-11.8,0.3-33,6.8-40.8,17.5c-2.9,3.7-3.7,8.5-2.4,12.9
	c3.2,10.6,14.6,15,23.7,16.9c0.5,0.1,0.7,0.6,0.6,1.1c-0.1,0.4-0.5,0.7-1,0.6c-13.7-2.8-22.3-9.1-25-18.1c-1.5-5-0.6-10.4,2.6-14.5
	c8.2-11.3,29.7-17.8,42.1-18.2c12.8-0.4,31,1.1,44.7,10.4c6.7,4.5,9.6,10.4,10,14c1.7,13.5-15.6,23.1-32.5,26.4
	C142,53.8,134.2,54.7,126.4,54.8L126.4,54.8z"/>
</svg>
