<svg xmlns="http://www.w3.org/2000/svg" xmlns:xlink="http://www.w3.org/1999/xlink" viewBox="0 0 170.29 94.79"><defs><style>.cls-1{fill:none;}.cls-2{clip-path:url(#clip-path);}.cls-3{fill:#0071b2;}.cls-4{fill:#333;}.cls-5{clip-path:url(#clip-path-2);}.cls-6{clip-path:url(#clip-path-3);}.cls-7{clip-path:url(#clip-path-4);}.cls-8{clip-path:url(#clip-path-5);}</style><clipPath id="clip-path"><rect class="cls-1" x="-207.27" y="143.68" width="282" height="188"/></clipPath><clipPath id="clip-path-2"><circle class="cls-1" cx="-13.62" cy="-221.18" r="73"/></clipPath><clipPath id="clip-path-3"><rect class="cls-1" x="-124.24" y="-309.73" width="282" height="188"/></clipPath><clipPath id="clip-path-4"><circle class="cls-1" cx="219.6" cy="-221.18" r="73"/></clipPath><clipPath id="clip-path-5"><rect class="cls-1" x="108.97" y="-309.73" width="282" height="188"/></clipPath><image id="image" width="540" height="800" xlink:href="../../../Volumes/DATA/共有/Dropbox/クライアント/TJかごしま/カゴシマプラス/デザイン/14-1.jpg"/></defs><title>bar-アートボード 65</title><g id="コンテンツ"><g class="cls-2"><use transform="translate(-241.03 54.65) scale(0.61)" xlink:href="#image"/></g><path class="cls-3" d="M31.16,77.91q.42,0,1.72-.13t1.72-.08a2,2,0,0,1,1.3.38,2.79,2.79,0,0,1,.17.29c0,.11.06.24.08.38a4.72,4.72,0,0,1,.08.92,5.53,5.53,0,0,1,0,1c0,.14-.06.27-.08.38a.9.9,0,0,1-.17.29,1.53,1.53,0,0,1-.67.25l-.88,0q-.54,0-2.22-.19T30,81.22a2.32,2.32,0,0,0-.79,0,.72.72,0,0,0-.38.13l0,.08v.42q0,.5.08,1.42,0,.63.21,2l.29,2a25.14,25.14,0,0,1,.21,4,3.81,3.81,0,0,1-.25,1.34.8.8,0,0,1-.84.63l-.25,0-.44,0-.48,0a3,3,0,0,1-.71,0,.92.92,0,0,1-.29,0,.57.57,0,0,1-.29-.12l-.08-.13V89.67q0-.67,0-1.61t0-1.49v-.71q0-3.56.17-10.59t.17-10.46a.28.28,0,0,1-.08-.21.26.26,0,0,1,.29-.29l1.17,0,2.34,0h2.47l3.51.08,1.21.13.38.08a.54.54,0,0,1,.33.25.68.68,0,0,1,.08.38v.46a3.42,3.42,0,0,1,0,.42v.25s0,.13,0,.29v.5a3.64,3.64,0,0,1,0,.5,1,1,0,0,1-.17.46.89.89,0,0,1-.29.17,1.59,1.59,0,0,1-.38,0,5.53,5.53,0,0,1-1,0q-.71,0-2.72-.13T30.79,68a5.08,5.08,0,0,0-.92,0l-.25,0v.25c0,.22,0,.36,0,.42q0,.38.13,1.92,0,.42.06.92t.06,1.15q0,.65.08,1,.08,2,.17,2.89c0,.42.06.74.08,1a.47.47,0,0,0,0,.21A1.88,1.88,0,0,0,31.16,77.91Z"/><path class="cls-3" d="M37.4,65.11l-.29,0a8.73,8.73,0,0,0-1.17-.13l-3.47-.08-5.61,0q0,3.43-.17,10.42t-.17,10.54v.71q0,.54,0,1.49t0,1.61v3.1h.13a2.26,2.26,0,0,0,.63,0l.46,0,.48,0,.27,0c.11,0,.21-.1.29-.29a3.11,3.11,0,0,0,.21-1.13,23.72,23.72,0,0,0-.21-3.85q-.08-.63-.25-2t-.25-2q-.08-1-.08-1.46a2.23,2.23,0,0,1,0-.5.73.73,0,0,1,.17-.42,1.52,1.52,0,0,1,.71-.29,2.86,2.86,0,0,1,.88,0q.75,0,2.3.13l2.22.21h.79a1.24,1.24,0,0,0,.29-.08,0,0,0,0,1,0,0,1.23,1.23,0,0,1,0-.29,4.16,4.16,0,0,0,0-.84,3.87,3.87,0,0,0-.08-.84,1.78,1.78,0,0,1,0-.29l0-.08c-.11-.14-.4-.21-.88-.21s-.92,0-1.67.08-1.44.13-1.72.13a2.37,2.37,0,0,1-1.34-.21.53.53,0,0,1-.13-.21.12.12,0,0,0,0-.08,1.8,1.8,0,0,0,0-.33c0-.22-.06-.54-.08-1q-.08-.92-.17-2.89,0-.38-.08-1t-.06-1.17q0-.52-.06-.9-.08-1.55-.13-1.88a4.45,4.45,0,0,0,0-.46v-.5a.24.24,0,0,1,.08-.17.89.89,0,0,1,.29-.17l.38-.08a5.85,5.85,0,0,1,1,0q.71,0,2.72.13t2.72.13a5.08,5.08,0,0,0,.92,0,.59.59,0,0,0,.25,0,.12.12,0,0,0,0-.08,2.63,2.63,0,0,0,0-.42v-.5a2.57,2.57,0,0,1,0-.33V66a3.4,3.4,0,0,0,0-.42v-.5Z"/><path class="cls-3" d="M46,89.25h1L49.74,89l2.89-.17q.71,0,1.13,0a2.28,2.28,0,0,1,.8.17.7.7,0,0,1,.29.33,2.18,2.18,0,0,1,.13.46,9,9,0,0,1,.1,1.19A6.25,6.25,0,0,1,55,92.26a2.23,2.23,0,0,1-.13.46.7.7,0,0,1-.29.33,1.63,1.63,0,0,1-.75.17l-1.3.08q-1.34,0-3.6,0-1.46,0-3.64,0l-2.47,0a.27.27,0,0,1-.29-.25.17.17,0,0,1-.13,0,.26.26,0,0,1-.29-.29q0-.92.21-4.43.17-2.76.13-4.35,0-2.38-.17-6-.17-4.1-.25-7.26t-.08-6v-.17a.27.27,0,0,1,.25-.29.4.4,0,0,1,.21-.17,1.85,1.85,0,0,1,.59-.13,9.16,9.16,0,0,1,1,0q1,0,2.64,0,2.89,0,4.35.08l.27,0,.5,0,.56,0c.33,0,.6,0,.8,0a1.1,1.1,0,0,1,.67.21.27.27,0,0,1,.13.13v.08a.24.24,0,0,1,0,.17,2.66,2.66,0,0,0,0,.42,10.73,10.73,0,0,1,0,1.34,8.19,8.19,0,0,1-.08,1.3,4.7,4.7,0,0,1-.08.5.66.66,0,0,1-.33.42,5.5,5.5,0,0,1-1.76.13l-2.55-.17q-1.92-.13-2.38-.13a3.22,3.22,0,0,0-.84.08.91.91,0,0,0-.29,0v.08a4.34,4.34,0,0,1,0,.5q0,.54,0,1.55c0,.33,0,.7-.06,1.09s0,.73,0,1,0,.45,0,.48,0,.27,0,.56,0,.63-.06,1,0,.77,0,1.13q0,1,0,1.55a2.84,2.84,0,0,0,0,.54V78a1.39,1.39,0,0,0,.63.08l1.34-.12a4.48,4.48,0,0,1,1.34,0,.9.9,0,0,1,.88.79,9.15,9.15,0,0,1,.08,1.3,3.77,3.77,0,0,1,0,.79,1.09,1.09,0,0,1,0,.33.94.94,0,0,1-.13.29.74.74,0,0,1-.42.17,2.56,2.56,0,0,1-.5,0,9.34,9.34,0,0,1-1.3-.13,5.08,5.08,0,0,1-.61-.06,5.06,5.06,0,0,0-.65-.06l-.38,0v.17a5.66,5.66,0,0,0,0,.59q0,.17.08.44t.08.46a1.51,1.51,0,0,1,0,.31v3.26l0,2v.67A.58.58,0,0,0,46,89.25Z"/><path class="cls-3" d="M53.09,64.36c-.2,0-.45,0-.75,0l-.52,0-.54,0-.31,0q-1.51-.08-4.35-.08-1.63,0-2.64,0a7.21,7.21,0,0,0-.9,0l-.4,0,0,.08v0l-.08.08q0,2.89.08,6t.25,7.2q.13,3.64.17,6,0,1.63-.13,4.39-.21,3.51-.21,4.35a.17.17,0,0,1,.13,0l2.51,0q2.18,0,3.6,0,2.26,0,3.6,0l1.21-.08a3.26,3.26,0,0,0,.54-.08,0,0,0,0,1,0,0,2.73,2.73,0,0,0,.08-.38,4.66,4.66,0,0,0,.06-1,7.65,7.65,0,0,0-.1-1.09,2.78,2.78,0,0,0-.08-.33.12.12,0,0,0,0-.08,1.75,1.75,0,0,0-.54-.13h-1l-2.89.17-2.8.21H46a1.11,1.11,0,0,1-.67-.21l-.13-.13v-1c0-.2,0-.52,0-1s0-.8,0-1V83.27a1.69,1.69,0,0,0,0-.23c0-.1,0-.23-.06-.4L45,82.18c0-.31,0-.54,0-.71a1,1,0,0,1,.17-.63.34.34,0,0,1,.25-.08.24.24,0,0,1,.17,0,2.59,2.59,0,0,1,.42,0c.14,0,.36.06.67.08l.59,0a9.27,9.27,0,0,0,1.26.13,1.74,1.74,0,0,0,.42,0H49v-.25A3,3,0,0,0,49,80a8.37,8.37,0,0,0-.08-1.26q0-.25-.4-.31a4.92,4.92,0,0,0-1.19,0q-1.21.17-1.38.17-.84,0-1.09-.33a.3.3,0,0,1-.13-.21v-.21a2.88,2.88,0,0,1,0-.54q0-.63,0-1.63,0-.5,0-1.11t.06-1c0-.29,0-.47,0-.52s0-.23,0-.52,0-.63,0-1,0-.75.06-1.09q0-1,0-1.55a4.62,4.62,0,0,0,0-.54.38.38,0,0,0,0-.17V68a.48.48,0,0,1,.08-.12,1.52,1.52,0,0,1,.67-.25,3.74,3.74,0,0,1,.88-.08q.54,0,2.47.13l2.51.17a8.45,8.45,0,0,0,1.51-.08,0,0,0,0,1,0,0,1.47,1.47,0,0,0,0-.42,7.38,7.38,0,0,0,.08-1.25,9.44,9.44,0,0,0,0-1.26,2.63,2.63,0,0,1,0-.42A.59.59,0,0,0,53.09,64.36Z"/><path class="cls-3" d="M53.42,64.4h-.08A.05.05,0,0,0,53.42,64.4Z"/><path class="cls-3" d="M58.23,93.35a.27.27,0,0,1,.17-.25,17.71,17.71,0,0,1,.29-2q.21-1,.54-2.24T59.7,87q.17-.8.33-2.26t.33-2.26q.38-2,1.3-5.65,1-4.1,1.3-5.57,0-.17.25-1.4t.38-2.07q.25-1.21.46-2a6.77,6.77,0,0,1,.25-.71,1.36,1.36,0,0,1,.25-.46,1.48,1.48,0,0,1,.67-.29h.33l.25,0q.5-.08,1-.12h.59a.89.89,0,0,1,.54.21l.08.13v0a1.6,1.6,0,0,1,.08.21c.06.17.13.39.21.67L69,67.83,71.08,75Q73.84,84.9,74.3,86.7a46.85,46.85,0,0,0,2,6.07.5.5,0,0,1,.08.13.43.43,0,0,1,.08.5.25.25,0,0,1-.17.17l-.17.08-.42.08a6.18,6.18,0,0,1-1.09.08,7.49,7.49,0,0,1-1.13,0,1.74,1.74,0,0,1-.42,0,1.41,1.41,0,0,1-.33-.08,1,1,0,0,1-.29-.42,3.37,3.37,0,0,1-.25-.54q0-.17-.17-.54a1.38,1.38,0,0,1-.08-.33,75.62,75.62,0,0,1-2.68-7.57q0-.08-.13-1a1.51,1.51,0,0,0-.21-.71.63.63,0,0,0-.25-.08,7.88,7.88,0,0,0-1.88,0l-2,.13-.5-.08h-.17a1.15,1.15,0,0,0-.25.46q-.17.46-.38,1.17-.25,1-.75,3.43-.54,2.64-.79,3.51a7.58,7.58,0,0,1-.75,2.22,1.27,1.27,0,0,1-.63.38,5.59,5.59,0,0,1-.75,0c-.2,0-.45,0-.75,0l-.25,0a.38.38,0,0,1-.17,0l-.13,0A.27.27,0,0,1,58.23,93.35Z"/><path class="cls-3" d="M67.35,64.77h-.54q-.46,0-.92.13l-.31,0-.27,0a.64.64,0,0,0-.33.13,1,1,0,0,0-.13.25,2.71,2.71,0,0,0-.21.67q-.21.71-.46,1.92Q64,68.75,63.8,70t-.25,1.36q-.38,1.84-1.3,5.65-.92,3.64-1.3,5.56-.13.71-.33,2.26t-.33,2.26q-.17.75-.48,1.95t-.52,2.17A16.16,16.16,0,0,0,59,93.1h.13c.28,0,.5,0,.67,0a4,4,0,0,0,.63,0q.21,0,.25-.13a7,7,0,0,0,.71-2l.75-3.51q.5-2.38.79-3.43.21-.8.38-1.26a1.65,1.65,0,0,1,.46-.73.73.73,0,0,1,.63-.1l.38.08,2-.12a8.94,8.94,0,0,1,2,0,1,1,0,0,1,.59.25,2.22,2.22,0,0,1,.38,1,4.43,4.43,0,0,0,.13.88,68.54,68.54,0,0,0,2.59,7.49,1.6,1.6,0,0,1,.17.42q.13.38.17.54a2.74,2.74,0,0,0,.17.46l.13.17h.08a1.59,1.59,0,0,0,.38,0,6.43,6.43,0,0,0,1,0,5.48,5.48,0,0,0,1-.08.47.47,0,0,0,.21,0,.66.66,0,0,1-.13-.17,57.52,57.52,0,0,1-2-6.07q-.54-2.13-3.22-11.71L68.44,68l-.67-2.34q-.13-.42-.21-.67a.32.32,0,0,1,0-.13A.38.38,0,0,1,67.35,64.77Z"/><path class="cls-3" d="M66.22,73.56a18.73,18.73,0,0,1,.84,1.76,9.52,9.52,0,0,0,.84,1.59A.51.51,0,0,0,68,77l.15.13.19.17a.9.9,0,0,1,.29.79.46.46,0,0,1-.54.25.17.17,0,0,1-.13,0h0l-.63.08c-.42.08-.75.14-1,.17a4.06,4.06,0,0,1-1,0,1,1,0,0,1-.75-.54.83.83,0,0,1,0-.38c0-.14.06-.31.08-.5l.33-1.38q.13-.38.27-.92t.23-.9q.08-.36.13-.48c.06-.2.17-.28.33-.25a.27.27,0,0,1,.25.29Z"/><path class="cls-3" d="M67.39,77.24a18,18,0,0,1-.88-1.72l-.59-1.3-.46,1.67-.33,1.34q0,.29-.08.46v.13c0,.06.1.1.29.13a2.48,2.48,0,0,0,.84,0q.38,0,1-.17l.71-.08Z"/><path class="cls-3" d="M85.42,69.84a1.78,1.78,0,0,0-.63-.08,16.74,16.74,0,0,0-1.92,0q-1.46.08-2,.08a2.81,2.81,0,0,1-.75-.08,1,1,0,0,1-.59-.29.47.47,0,0,1,0-.21.24.24,0,0,1,0-.17,3.43,3.43,0,0,1,0-.42q0-.38.08-1.21a14.46,14.46,0,0,0,.17-2,.3.3,0,1,1,.59-.08v.08a.17.17,0,0,1,.13,0l1.49,0L85,65.36l3.37-.08q3.05,0,4.77,0,1,0,1.59,0a2,2,0,0,1,.46,0,.24.24,0,0,1,.17,0,.53.53,0,0,1,.25.13,1.62,1.62,0,0,1,.13.5v1.55q.08.75.13,1.09a2.35,2.35,0,0,1,0,.63.82.82,0,0,1-.17.59,1,1,0,0,1-.59.21,7,7,0,0,1-.84,0L92.12,70a19.37,19.37,0,0,0-2.09,0,3.23,3.23,0,0,0-.67.13c-.14.06-.21.11-.21.17a2.74,2.74,0,0,0,0,1q.17,1.13.17,1.26.13,3.64.13,16.07v.92q0,.88,0,1.46a9.67,9.67,0,0,1-.08,1.42l-.13.5a.63.63,0,0,1-.38.42,2,2,0,0,1-.88,0,1.77,1.77,0,0,1-.42-.08l-.29,0h-.84a.64.64,0,0,1-.33-.17.27.27,0,0,1-.13-.17v-.08a.24.24,0,0,1,0-.17q0-.21,0-.63V87.2q0-1.51-.17-9.25-.13-5.36-.13-5.61,0-1.21,0-1.84a2.88,2.88,0,0,0,0-.54v-.08A.24.24,0,0,0,85.42,69.84Z"/><path class="cls-3" d="M95.09,65.94a1.49,1.49,0,0,0-.42,0q-.54,0-1.55,0-1.72,0-4.77,0L85,65.94,81.93,66l-1.49,0a.17.17,0,0,1-.13,0q0,.34-.17,1.55-.08.84-.08,1.21a2.51,2.51,0,0,0,0,.38v0l.21.08a4.32,4.32,0,0,0,.67,0q.5,0,1.92-.08a17.91,17.91,0,0,1,2,0,2.81,2.81,0,0,1,.75.08.83.83,0,0,1,.54.38l0,.08v.21a2.88,2.88,0,0,1,0,.54q0,.67,0,1.84,0,.29.13,5.61.17,7.78.17,9.29v4.73a5.69,5.69,0,0,1,0,.59v0h.84a1.33,1.33,0,0,1,.33.08,2.7,2.7,0,0,1,.42.08l.54,0a.12.12,0,0,1,0-.08,2.57,2.57,0,0,0,.08-.38A8.53,8.53,0,0,0,88.94,91q0-.59,0-1.46v-.92q0-12.43-.13-16.07,0-.08-.17-1.17a2.94,2.94,0,0,1,0-1.3.88.88,0,0,1,.59-.54,2.71,2.71,0,0,1,.84-.17,20.56,20.56,0,0,1,2.18,0l2.09.17H95l.25-.08v-.17a2.06,2.06,0,0,0,0-.59q0-.29-.13-1V65.94Z"/><path class="cls-3" d="M100.15,64.9h.25l.5-.08.5-.08a4.4,4.4,0,0,1,.75-.08,1.11,1.11,0,0,1,.67.21.51.51,0,0,1,.08.13v.21a1.77,1.77,0,0,1,0,.42v3q.38,11.67.38,14.73a21.88,21.88,0,0,0,.21,3.1,9.54,9.54,0,0,0,.38,1.63q.25.67.54.75,1.38.46,2.38-1.42A12.56,12.56,0,0,0,108,84.1a25.83,25.83,0,0,0,.54-3.7q.17-2.07.19-3.31t0-4q0-2.76,0-3.47,0-.08-.13-3.6a1.14,1.14,0,0,0,0-.25,1.12,1.12,0,0,1,0-.25.72.72,0,0,1,.21-.75.53.53,0,0,1,.21-.13h.63a3.39,3.39,0,0,1,.46,0h.54l.42,0a2.52,2.52,0,0,1,.84,0,.87.87,0,0,1,.33.46,4,4,0,0,1,.17.59q.08.59.13,1.63,0,.71,0,2.89,0,3-.06,5.13t-.31,5.17a39.36,39.36,0,0,1-.86,5.67,22.42,22.42,0,0,1-1.57,4.62,5.42,5.42,0,0,1-3.12,2.87,4.55,4.55,0,0,1-4.2-.56A7.9,7.9,0,0,1,99.82,89q-.92-2.84-.75-9.54.08-2.18.31-5.9t.23-3.89q0-.63,0-2.22a18.17,18.17,0,0,1,0-2.26.26.26,0,0,1,.33-.25h.17Z"/><path class="cls-3" d="M102.16,65.23a3.61,3.61,0,0,0-.67.08,4.68,4.68,0,0,0-.65.08,4.74,4.74,0,0,1-.65.08q0,.59,0,1.92,0,1.59,0,2.22,0,.21-.23,3.93t-.31,5.9q-.17,6.57.75,9.33a7.21,7.21,0,0,0,2.26,3.85,4,4,0,0,0,3.68.5,4.84,4.84,0,0,0,2.8-2.55,22.57,22.57,0,0,0,1.51-4.52,39.64,39.64,0,0,0,.84-5.56q.25-3,.31-5.12t.06-5.13q0-2.18,0-2.89,0-1-.13-1.55a1.55,1.55,0,0,0-.13-.46.32.32,0,0,1,0-.12,1.69,1.69,0,0,0-.54,0l-.42,0h-.63l-.42,0H109v.17a.46.46,0,0,1,.08.17v.25a.69.69,0,0,1,0,.21q.13,3.51.13,3.6,0,.67,0,3.45t0,4q0,1.25-.19,3.37a27.08,27.08,0,0,1-.54,3.79,15.2,15.2,0,0,1-1.17,3.43q-1.3,2.3-3.1,1.72a1.87,1.87,0,0,1-.92-1.13,9.08,9.08,0,0,1-.42-1.76,23.16,23.16,0,0,1-.21-3.18q0-3.05-.38-14.73v-3a1.09,1.09,0,0,0,0-.33A.24.24,0,0,0,102.16,65.23Z"/><path class="cls-3" d="M125.71,63.77a4.83,4.83,0,0,1,3.56,2.13q1.09,1.88-.29,5.23a22.8,22.8,0,0,1-4.23,6.19,2.54,2.54,0,0,1-.5.33,1,1,0,0,0-.25.25l.08.21a87.22,87.22,0,0,0,4.6,8.24l2.68,4.52q.59,1,.84,1.55a2.78,2.78,0,0,1,.21.5.69.69,0,0,1,0,.21.35.35,0,0,1,0,.29.27.27,0,0,1-.13.13h-.08a.37.37,0,0,1-.17,0,1.25,1.25,0,0,1-.38,0,11.53,11.53,0,0,1-1.17.13,8.05,8.05,0,0,1-1.17,0,2,2,0,0,1-.46,0,.51.51,0,0,1-.38-.13,3,3,0,0,1-.63-1,6.29,6.29,0,0,0-.54-1q-1.34-1.84-3.43-5.19-2.8-4.52-3.31-5.23a2.27,2.27,0,0,0-.13-.29l0,0v.13a.37.37,0,0,1,0,.17v0q.25,2.8.46,6,.17,2.47.21,3.56,0,.8.08,1.21v.38a.32.32,0,0,0,0,.13.24.24,0,0,1,0,.17.77.77,0,0,1-.42.25,1.56,1.56,0,0,1-.46.13,2.69,2.69,0,0,1-.42.08h-.08a.27.27,0,0,1-.29.25l-.59,0q-.54,0-.84,0a6.85,6.85,0,0,1-.84,0,1.09,1.09,0,0,1-.67-.33,1.15,1.15,0,0,1-.25-.58q0-.29-.08-.8-.08-.84-.08-2.17,0-1,0-2.32t0-1.44q0-3.47-.17-10.38T115.8,64.9a.17.17,0,0,1,.08-.17.24.24,0,0,1-.08-.17.26.26,0,0,1,.25-.33Q122.7,63.18,125.71,63.77Z"/><path class="cls-3" d="M116.55,75.28q.17,6.9.17,10.38,0,.08,0,1.44t0,2.32q0,1.26.08,2.13a7,7,0,0,0,.08.71.73.73,0,0,0,.08.29.5.5,0,0,0,.36.17,5,5,0,0,0,.73,0q.29,0,.79,0l.33,0a.27.27,0,0,1,.21-.21l.38,0a2.7,2.7,0,0,0,.42-.08l.33-.08a.17.17,0,0,0,.13,0v-.33q0-.42-.08-1.17,0-1.09-.21-3.56-.21-3.14-.46-5.94V81a1.81,1.81,0,0,1,0-.33,1.26,1.26,0,0,1,0-.38.45.45,0,0,1,.29-.42.42.42,0,0,1,.46.13.61.61,0,0,1,.21.29,1,1,0,0,1,.13.29,1,1,0,0,0,.13.21q.5.71,3.31,5.23,2.09,3.35,3.43,5.19a6.12,6.12,0,0,1,.54,1.09,3.89,3.89,0,0,0,.5.84.12.12,0,0,1,.08,0h.38a8.28,8.28,0,0,0,1.17,0l1.09-.08.25,0a1.45,1.45,0,0,0-.17-.38q-.25-.5-.79-1.51l-2.68-4.52a89.35,89.35,0,0,1-4.69-8.37.79.79,0,0,1,0-.63,1.2,1.2,0,0,1,.46-.46,3.73,3.73,0,0,0,.38-.29,23.11,23.11,0,0,0,4.14-6q1.21-3.05.29-4.69a4.21,4.21,0,0,0-3.18-1.84q-2.84-.54-9.25.42a.17.17,0,0,1,0,.13Q116.38,68.37,116.55,75.28Z"/><path class="cls-3" d="M119.65,68c0-.17,0-.27.23-.31a.27.27,0,0,1,.36.23,4.08,4.08,0,0,1,3.22,1.25,3.16,3.16,0,0,1,.33,2.8,6.71,6.71,0,0,1-1.46,2.59q-1.13,1.26-2,1.21-.46,0-.54-.59v-.46q0-.59,0-2t0-2.41a15.86,15.86,0,0,0-.15-1.9.28.28,0,0,1-.13-.25.36.36,0,0,1,0-.17Z"/><path class="cls-3" d="M121.86,74.15a6.18,6.18,0,0,0,1.34-2.38A2.46,2.46,0,0,0,123,69.5a3.34,3.34,0,0,0-2.68-1,17.09,17.09,0,0,1,.15,2q0,1,0,2.38t0,1.88v.46Q121,75.15,121.86,74.15Z"/><path class="cls-3" d="M140.48,89.25h1L144.2,89l2.89-.17q.71,0,1.13,0a2.28,2.28,0,0,1,.8.17.7.7,0,0,1,.29.33,2.18,2.18,0,0,1,.13.46,9,9,0,0,1,.1,1.19,6.25,6.25,0,0,1-.06,1.19,2.23,2.23,0,0,1-.13.46.7.7,0,0,1-.29.33,1.63,1.63,0,0,1-.75.17l-1.3.08q-1.34,0-3.6,0-1.46,0-3.64,0l-2.47,0A.27.27,0,0,1,137,93a.17.17,0,0,1-.13,0,.26.26,0,0,1-.29-.29q0-.92.21-4.43.17-2.76.13-4.35,0-2.38-.17-6-.17-4.1-.25-7.26t-.08-6v-.17a.27.27,0,0,1,.25-.29.4.4,0,0,1,.21-.17,1.85,1.85,0,0,1,.59-.13,9.16,9.16,0,0,1,1,0q1,0,2.64,0,2.89,0,4.35.08l.27,0,.5,0,.56,0c.33,0,.6,0,.8,0a1.1,1.1,0,0,1,.67.21.27.27,0,0,1,.13.13v.08a.24.24,0,0,1,0,.17,2.66,2.66,0,0,0,0,.42,10.73,10.73,0,0,1,0,1.34,8.19,8.19,0,0,1-.08,1.3,4.7,4.7,0,0,1-.08.5.66.66,0,0,1-.33.42,5.5,5.5,0,0,1-1.76.13l-2.55-.17q-1.92-.13-2.38-.13a3.22,3.22,0,0,0-.84.08.91.91,0,0,0-.29,0v.08a4.34,4.34,0,0,1,0,.5q0,.54,0,1.55c0,.33,0,.7-.06,1.09s0,.73,0,1,0,.45,0,.48,0,.27,0,.56,0,.63-.06,1,0,.77,0,1.13q0,1,0,1.55a2.84,2.84,0,0,0,0,.54V78a1.39,1.39,0,0,0,.63.08l1.34-.12a4.48,4.48,0,0,1,1.34,0,.9.9,0,0,1,.88.79A9.15,9.15,0,0,1,144,80a3.77,3.77,0,0,1,0,.79,1.09,1.09,0,0,1,0,.33.94.94,0,0,1-.13.29.74.74,0,0,1-.42.17,2.56,2.56,0,0,1-.5,0,9.34,9.34,0,0,1-1.3-.13,5.08,5.08,0,0,1-.61-.06,5.06,5.06,0,0,0-.65-.06l-.38,0v.17a5.66,5.66,0,0,0,0,.59q0,.17.08.44t.08.46a1.51,1.51,0,0,1,0,.31v3.26l0,2v.67A.58.58,0,0,0,140.48,89.25Z"/><path class="cls-3" d="M147.55,64.36c-.2,0-.45,0-.75,0l-.52,0-.54,0-.31,0q-1.51-.08-4.35-.08-1.63,0-2.64,0a7.21,7.21,0,0,0-.9,0l-.4,0,0,.08v0l-.08.08q0,2.89.08,6t.25,7.2q.13,3.64.17,6,0,1.63-.13,4.39-.21,3.51-.21,4.35a.17.17,0,0,1,.13,0l2.51,0q2.18,0,3.6,0,2.26,0,3.6,0l1.21-.08a3.26,3.26,0,0,0,.54-.08,0,0,0,0,1,0,0,2.73,2.73,0,0,0,.08-.38,4.66,4.66,0,0,0,.06-1,7.65,7.65,0,0,0-.1-1.09,2.78,2.78,0,0,0-.08-.33.12.12,0,0,0,0-.08,1.75,1.75,0,0,0-.54-.13h-1l-2.89.17-2.8.21h-1a1.11,1.11,0,0,1-.67-.21l-.13-.13v-1c0-.2,0-.52,0-1s0-.8,0-1V83.27a1.69,1.69,0,0,0,0-.23c0-.1,0-.23-.06-.4l-.13-.46c0-.31,0-.54,0-.71a1,1,0,0,1,.17-.63.34.34,0,0,1,.25-.08.24.24,0,0,1,.17,0,2.59,2.59,0,0,1,.42,0c.14,0,.36.06.67.08l.59,0a9.26,9.26,0,0,0,1.26.13,1.74,1.74,0,0,0,.42,0h.08v-.25a3,3,0,0,0,0-.71,8.37,8.37,0,0,0-.08-1.26q0-.25-.4-.31a4.92,4.92,0,0,0-1.19,0q-1.21.17-1.38.17-.84,0-1.09-.33a.3.3,0,0,1-.13-.21v-.21a2.88,2.88,0,0,1,0-.54q0-.63,0-1.63,0-.5,0-1.11t.06-1c0-.29,0-.47,0-.52s0-.23,0-.52,0-.63,0-1,0-.75.06-1.09q0-1,0-1.55a4.62,4.62,0,0,0,0-.54.38.38,0,0,0,0-.17V68a.48.48,0,0,1,.08-.12,1.52,1.52,0,0,1,.67-.25,3.74,3.74,0,0,1,.88-.08q.54,0,2.47.13l2.51.17a8.45,8.45,0,0,0,1.51-.08,0,0,0,0,1,0,0,1.47,1.47,0,0,0,0-.42,7.38,7.38,0,0,0,.08-1.25,9.44,9.44,0,0,0,0-1.26,2.63,2.63,0,0,1,0-.42A.59.59,0,0,0,147.55,64.36Z"/><path class="cls-3" d="M147.88,64.4h-.08A.05.05,0,0,0,147.88,64.4Z"/><path d="M29.36,75.91q.42,0,1.72-.13t1.72-.08a2,2,0,0,1,1.3.38,2.79,2.79,0,0,1,.17.29c0,.11.06.24.08.38a4.72,4.72,0,0,1,.08.92,5.53,5.53,0,0,1,0,1c0,.14-.06.27-.08.38a.9.9,0,0,1-.17.29,1.53,1.53,0,0,1-.67.25l-.88,0q-.54,0-2.22-.19t-2.26-.13a2.32,2.32,0,0,0-.79,0,.72.72,0,0,0-.38.13l0,.08v.42q0,.5.08,1.42,0,.63.21,2l.29,2a25.14,25.14,0,0,1,.21,4,3.81,3.81,0,0,1-.25,1.34.8.8,0,0,1-.84.63l-.25,0-.44,0-.48,0a3,3,0,0,1-.71,0,.92.92,0,0,1-.29,0,.57.57,0,0,1-.29-.12l-.08-.13V87.67q0-.67,0-1.61t0-1.49v-.71q0-3.56.17-10.59t.17-10.46a.28.28,0,0,1-.08-.21.26.26,0,0,1,.29-.29l1.17,0,2.34,0h2.47l3.51.08,1.21.13.38.08a.54.54,0,0,1,.33.25.68.68,0,0,1,.08.38v.46a3.42,3.42,0,0,1,0,.42v.25s0,.13,0,.29v.5a3.64,3.64,0,0,1,0,.5,1,1,0,0,1-.17.46.89.89,0,0,1-.29.17,1.59,1.59,0,0,1-.38,0,5.53,5.53,0,0,1-1,0q-.71,0-2.72-.13T29,66a5.08,5.08,0,0,0-.92,0l-.25,0v.25c0,.22,0,.36,0,.42q0,.38.13,1.92,0,.42.06.92t.06,1.15q0,.65.08,1,.08,2,.17,2.89c0,.42.06.74.08,1a.47.47,0,0,0,0,.21A1.88,1.88,0,0,0,29.36,75.91Zm6.23-12.8-.29,0a8.73,8.73,0,0,0-1.17-.13l-3.47-.08L25,62.9q0,3.43-.17,10.42t-.17,10.54v.71q0,.54,0,1.49t0,1.61v3.1h.13a2.26,2.26,0,0,0,.63,0l.46,0,.48,0,.27,0c.11,0,.21-.1.29-.29a3.11,3.11,0,0,0,.21-1.13,23.72,23.72,0,0,0-.21-3.85q-.08-.63-.25-2t-.25-2q-.08-1-.08-1.46a2.23,2.23,0,0,1,0-.5.73.73,0,0,1,.17-.42,1.52,1.52,0,0,1,.71-.29,2.86,2.86,0,0,1,.88,0q.75,0,2.3.13l2.22.21h.79a1.24,1.24,0,0,0,.29-.08,0,0,0,0,1,0,0,1.23,1.23,0,0,1,0-.29,4.16,4.16,0,0,0,0-.84,3.87,3.87,0,0,0-.08-.84,1.78,1.78,0,0,1,0-.29l0-.08c-.11-.14-.4-.21-.88-.21s-.92,0-1.67.08-1.44.13-1.72.13a2.37,2.37,0,0,1-1.34-.21.53.53,0,0,1-.13-.21.12.12,0,0,0,0-.08,1.8,1.8,0,0,0,0-.33c0-.22-.06-.54-.08-1q-.08-.92-.17-2.89,0-.38-.08-1t-.06-1.17q0-.52-.06-.9-.08-1.55-.13-1.88a4.45,4.45,0,0,0,0-.46v-.5a.24.24,0,0,1,.08-.17.89.89,0,0,1,.29-.17l.38-.08a5.85,5.85,0,0,1,1,0q.71,0,2.72.13t2.72.13a5.08,5.08,0,0,0,.92,0,.59.59,0,0,0,.25,0,.12.12,0,0,0,0-.08,2.63,2.63,0,0,0,0-.42v-.5a2.57,2.57,0,0,1,0-.33V64a3.4,3.4,0,0,0,0-.42v-.5Z"/><path d="M44.21,87.25h1L47.93,87l2.89-.17q.71,0,1.13,0a2.28,2.28,0,0,1,.8.17.7.7,0,0,1,.29.33,2.18,2.18,0,0,1,.13.46,9,9,0,0,1,.1,1.19,6.25,6.25,0,0,1-.06,1.19,2.23,2.23,0,0,1-.13.46.7.7,0,0,1-.29.33,1.63,1.63,0,0,1-.75.17l-1.3.08q-1.34,0-3.6,0-1.46,0-3.64,0l-2.47,0a.27.27,0,0,1-.29-.25.17.17,0,0,1-.13,0,.26.26,0,0,1-.29-.29q0-.92.21-4.43.17-2.76.13-4.35,0-2.38-.17-6-.17-4.1-.25-7.26t-.08-6v-.17a.27.27,0,0,1,.25-.29.4.4,0,0,1,.21-.17,1.85,1.85,0,0,1,.59-.13,9.16,9.16,0,0,1,1,0q1,0,2.64,0,2.89,0,4.35.08l.27,0,.5,0,.56,0c.33,0,.6,0,.8,0a1.1,1.1,0,0,1,.67.21.27.27,0,0,1,.13.13v.08a.24.24,0,0,1,0,.17,2.66,2.66,0,0,0,0,.42,10.73,10.73,0,0,1,0,1.34,8.19,8.19,0,0,1-.08,1.3,4.7,4.7,0,0,1-.08.5.66.66,0,0,1-.33.42,5.5,5.5,0,0,1-1.76.13l-2.55-.17q-1.92-.13-2.38-.13a3.22,3.22,0,0,0-.84.08.91.91,0,0,0-.29,0v.08a4.34,4.34,0,0,1,0,.5q0,.54,0,1.55c0,.33,0,.7-.06,1.09s0,.73,0,1,0,.45,0,.48,0,.27,0,.56,0,.63-.06,1,0,.77,0,1.13q0,1,0,1.55a2.84,2.84,0,0,0,0,.54V76a1.39,1.39,0,0,0,.63.08l1.34-.12a4.48,4.48,0,0,1,1.34,0,.9.9,0,0,1,.88.79,9.15,9.15,0,0,1,.08,1.3,3.77,3.77,0,0,1,0,.79,1.09,1.09,0,0,1,0,.33.94.94,0,0,1-.13.29.74.74,0,0,1-.42.17,2.56,2.56,0,0,1-.5,0,9.34,9.34,0,0,1-1.3-.13,5.08,5.08,0,0,1-.61-.06,5.06,5.06,0,0,0-.65-.06l-.38,0v.17a5.66,5.66,0,0,0,0,.59q0,.17.08.44T44,81a1.51,1.51,0,0,1,0,.31v3.26l0,2v.67A.58.58,0,0,0,44.21,87.25Zm7.07-24.89c-.2,0-.45,0-.75,0l-.52,0-.54,0-.31,0q-1.51-.08-4.35-.08-1.63,0-2.64,0a7.21,7.21,0,0,0-.9,0l-.4,0,0,.08v0l-.08.08q0,2.89.08,6t.25,7.2q.13,3.64.17,6,0,1.63-.13,4.39-.21,3.51-.21,4.35a.17.17,0,0,1,.13,0l2.51,0q2.18,0,3.6,0,2.26,0,3.6,0l1.21-.08a3.26,3.26,0,0,0,.54-.08,0,0,0,0,1,0,0,2.73,2.73,0,0,0,.08-.38,4.66,4.66,0,0,0,.06-1,7.65,7.65,0,0,0-.1-1.09,2.78,2.78,0,0,0-.08-.33.12.12,0,0,0,0-.08,1.75,1.75,0,0,0-.54-.13h-1L48,87.63l-2.8.21h-1a1.11,1.11,0,0,1-.67-.21l-.13-.13v-1c0-.2,0-.52,0-1s0-.8,0-1V81.27a1.69,1.69,0,0,0,0-.23c0-.1,0-.23-.06-.4l-.13-.46c0-.31,0-.54,0-.71a1,1,0,0,1,.17-.63.34.34,0,0,1,.25-.08.24.24,0,0,1,.17,0,2.59,2.59,0,0,1,.42,0c.14,0,.36.06.67.08l.59,0a9.27,9.27,0,0,0,1.26.13,1.74,1.74,0,0,0,.42,0h.08v-.25a3,3,0,0,0,0-.71,8.37,8.37,0,0,0-.08-1.26q0-.25-.4-.31a4.92,4.92,0,0,0-1.19,0q-1.21.17-1.38.17-.84,0-1.09-.33a.3.3,0,0,1-.13-.21v-.21a2.88,2.88,0,0,1,0-.54q0-.63,0-1.63,0-.5,0-1.11t.06-1c0-.29,0-.47,0-.52s0-.23,0-.52,0-.63,0-1,0-.75.06-1.09q0-1,0-1.55a4.62,4.62,0,0,0,0-.54.38.38,0,0,0,0-.17V66a.48.48,0,0,1,.08-.12,1.52,1.52,0,0,1,.67-.25,3.74,3.74,0,0,1,.88-.08q.54,0,2.47.13l2.51.17a8.45,8.45,0,0,0,1.51-.08,0,0,0,0,1,0,0,1.47,1.47,0,0,0,0-.42,7.38,7.38,0,0,0,.08-1.25,9.44,9.44,0,0,0,0-1.26,2.63,2.63,0,0,1,0-.42A.59.59,0,0,0,51.28,62.36Zm.33,0h-.08A.05.05,0,0,0,51.61,62.4Z"/><path d="M56.42,91.35a.27.27,0,0,1,.17-.25,17.71,17.71,0,0,1,.29-2q.21-1,.54-2.24T57.89,85q.17-.8.33-2.26t.33-2.26q.38-2,1.3-5.65,1-4.1,1.3-5.57,0-.17.25-1.4t.38-2.07q.25-1.21.46-2a6.77,6.77,0,0,1,.25-.71,1.36,1.36,0,0,1,.25-.46,1.48,1.48,0,0,1,.67-.29h.33l.25,0q.5-.08,1-.12h.59a.89.89,0,0,1,.54.21l.08.13v0a1.6,1.6,0,0,1,.08.21c.06.17.13.39.21.67l.71,2.38L69.27,73Q72,82.9,72.49,84.7a46.85,46.85,0,0,0,2,6.07.5.5,0,0,1,.08.13.43.43,0,0,1,.08.5.25.25,0,0,1-.17.17l-.17.08-.42.08a6.18,6.18,0,0,1-1.09.08,7.49,7.49,0,0,1-1.13,0,1.74,1.74,0,0,1-.42,0,1.41,1.41,0,0,1-.33-.08,1,1,0,0,1-.29-.42,3.37,3.37,0,0,1-.25-.54q0-.17-.17-.54a1.38,1.38,0,0,1-.08-.33,75.62,75.62,0,0,1-2.68-7.57q0-.08-.13-1a1.51,1.51,0,0,0-.21-.71.63.63,0,0,0-.25-.08,7.88,7.88,0,0,0-1.88,0l-2,.13-.5-.08h-.17A1.15,1.15,0,0,0,62,81q-.17.46-.38,1.17-.25,1-.75,3.43-.54,2.64-.79,3.51a7.58,7.58,0,0,1-.75,2.22,1.27,1.27,0,0,1-.63.38,5.59,5.59,0,0,1-.75,0c-.2,0-.45,0-.75,0l-.25,0a.38.38,0,0,1-.17,0l-.13,0A.27.27,0,0,1,56.42,91.35Zm9.12-28.58H65q-.46,0-.92.13l-.31,0-.27,0a.64.64,0,0,0-.33.13,1,1,0,0,0-.13.25,2.71,2.71,0,0,0-.21.67q-.21.71-.46,1.92Q62.2,66.75,62,68t-.25,1.36q-.38,1.84-1.3,5.65-.92,3.64-1.3,5.56-.13.71-.33,2.26t-.33,2.26Q58.3,85.83,58,87t-.52,2.17a16.16,16.16,0,0,0-.29,1.9h.13c.28,0,.5,0,.67,0a4,4,0,0,0,.63,0q.21,0,.25-.13a7,7,0,0,0,.71-2l.75-3.51q.5-2.38.79-3.43.21-.8.38-1.26a1.65,1.65,0,0,1,.46-.73.73.73,0,0,1,.63-.1l.38.08,2-.12a8.94,8.94,0,0,1,2,0,1,1,0,0,1,.59.25,2.22,2.22,0,0,1,.38,1,4.43,4.43,0,0,0,.13.88,68.54,68.54,0,0,0,2.59,7.49,1.6,1.6,0,0,1,.17.42q.13.38.17.54a2.74,2.74,0,0,0,.17.46l.13.17h.08a1.59,1.59,0,0,0,.38,0,6.43,6.43,0,0,0,1,0,5.48,5.48,0,0,0,1-.08.47.47,0,0,0,.21,0,.66.66,0,0,1-.13-.17,57.52,57.52,0,0,1-2-6.07q-.54-2.13-3.22-11.71L66.63,66,66,63.61q-.13-.42-.21-.67a.32.32,0,0,1,0-.13A.38.38,0,0,1,65.54,62.77Zm-1.13,8.79a18.73,18.73,0,0,1,.84,1.76,9.52,9.52,0,0,0,.84,1.59.51.51,0,0,0,.08.13l.15.13.19.17a.9.9,0,0,1,.29.79.46.46,0,0,1-.54.25.17.17,0,0,1-.13,0h0l-.63.08c-.42.08-.75.14-1,.17a4.06,4.06,0,0,1-1,0,1,1,0,0,1-.75-.54.83.83,0,0,1,0-.38c0-.14.06-.31.08-.5l.33-1.38q.13-.38.27-.92t.23-.9q.08-.36.13-.48c.06-.2.17-.28.33-.25a.27.27,0,0,1,.25.29Zm1.17,3.68a18,18,0,0,1-.88-1.72l-.59-1.3-.46,1.67-.33,1.34q0,.29-.08.46v.13c0,.06.1.1.29.13a2.48,2.48,0,0,0,.84,0q.38,0,1-.17l.71-.08Z"/><path d="M83.62,67.84a1.78,1.78,0,0,0-.63-.08,16.74,16.74,0,0,0-1.92,0q-1.46.08-2,.08a2.81,2.81,0,0,1-.75-.08,1,1,0,0,1-.59-.29.47.47,0,0,1,0-.21.24.24,0,0,1,0-.17,3.43,3.43,0,0,1,0-.42q0-.38.08-1.21a14.46,14.46,0,0,0,.17-2,.3.3,0,1,1,.59-.08v.08a.17.17,0,0,1,.13,0l1.49,0,3.05-.06,3.37-.08q3.05,0,4.77,0,1,0,1.59,0a2,2,0,0,1,.46,0,.24.24,0,0,1,.17,0,.53.53,0,0,1,.25.13,1.6,1.6,0,0,1,.13.5v1.55q.08.75.13,1.09a2.39,2.39,0,0,1,0,.63.82.82,0,0,1-.17.59,1,1,0,0,1-.59.21,7,7,0,0,1-.84,0L90.31,68a19.37,19.37,0,0,0-2.09,0,3.22,3.22,0,0,0-.67.13c-.14.06-.21.11-.21.17a2.74,2.74,0,0,0,0,1q.17,1.13.17,1.26.13,3.64.13,16.07v.92q0,.88,0,1.46a9.67,9.67,0,0,1-.08,1.42l-.13.5a.63.63,0,0,1-.38.42,2,2,0,0,1-.88,0,1.77,1.77,0,0,1-.42-.08l-.29,0H84.7a.64.64,0,0,1-.33-.17.27.27,0,0,1-.13-.17v-.08a.24.24,0,0,1,0-.17q0-.21,0-.63V85.2q0-1.51-.17-9.25-.13-5.36-.13-5.61,0-1.21,0-1.84a2.88,2.88,0,0,0,0-.54v-.08A.24.24,0,0,0,83.62,67.84Zm9.67-3.89a1.49,1.49,0,0,0-.42,0q-.54,0-1.55,0-1.71,0-4.77,0l-3.37.08L80.12,64l-1.49,0a.17.17,0,0,1-.13,0q0,.34-.17,1.55-.08.84-.08,1.21a2.51,2.51,0,0,0,0,.38v0l.21.08a4.32,4.32,0,0,0,.67,0q.5,0,1.92-.08a17.91,17.91,0,0,1,2,0,2.81,2.81,0,0,1,.75.08.83.83,0,0,1,.54.38l0,.08v.21a2.88,2.88,0,0,1,0,.54q0,.67,0,1.84,0,.29.13,5.61.17,7.78.17,9.29v4.73a5.69,5.69,0,0,1,0,.59v0h.84a1.33,1.33,0,0,1,.33.08,2.7,2.7,0,0,1,.42.08l.54,0a.12.12,0,0,1,0-.08A2.57,2.57,0,0,0,87,90.3,8.53,8.53,0,0,0,87.13,89q0-.59,0-1.46v-.92q0-12.43-.13-16.07,0-.08-.17-1.17a2.94,2.94,0,0,1,0-1.3.88.88,0,0,1,.59-.54,2.71,2.71,0,0,1,.84-.17,20.56,20.56,0,0,1,2.18,0l2.09.17h.75l.25-.08v-.17a2.09,2.09,0,0,0,0-.59q0-.29-.13-1V63.94Z"/><path d="M98.34,62.9h.25l.5-.08.5-.08a4.39,4.39,0,0,1,.75-.08,1.11,1.11,0,0,1,.67.21.53.53,0,0,1,.08.13v.21a1.79,1.79,0,0,1,0,.42v3q.38,11.67.38,14.73a22,22,0,0,0,.21,3.1,9.53,9.53,0,0,0,.38,1.63q.25.67.54.75,1.38.46,2.38-1.42a12.55,12.55,0,0,0,1.13-3.31,25.9,25.9,0,0,0,.54-3.7q.17-2.07.19-3.31t0-4q0-2.76,0-3.47,0-.08-.12-3.6a1.12,1.12,0,0,0,0-.25,1.12,1.12,0,0,1,0-.25.72.72,0,0,1,.21-.75.54.54,0,0,1,.21-.13h.63a3.38,3.38,0,0,1,.46,0h.54l.42,0a2.52,2.52,0,0,1,.84,0,.86.86,0,0,1,.34.46,4.12,4.12,0,0,1,.17.59q.08.59.13,1.63,0,.71,0,2.89,0,3-.06,5.13t-.31,5.17a39.36,39.36,0,0,1-.86,5.67,22.48,22.48,0,0,1-1.57,4.62,5.43,5.43,0,0,1-3.12,2.87,4.55,4.55,0,0,1-4.21-.56A7.9,7.9,0,0,1,98,87q-.92-2.84-.75-9.54.08-2.18.31-5.9t.23-3.89q0-.63,0-2.22a18.07,18.07,0,0,1,0-2.26.26.26,0,0,1,.33-.25h.17Zm2,.33a3.61,3.61,0,0,0-.67.08,4.69,4.69,0,0,0-.65.08,4.75,4.75,0,0,1-.65.08q0,.59,0,1.92,0,1.59,0,2.22,0,.21-.23,3.93t-.31,5.9q-.17,6.57.75,9.33a7.21,7.21,0,0,0,2.26,3.85,4,4,0,0,0,3.68.5,4.85,4.85,0,0,0,2.8-2.55,22.6,22.6,0,0,0,1.51-4.52,39.43,39.43,0,0,0,.84-5.56q.25-3,.31-5.12t.06-5.13q0-2.18,0-2.89,0-1-.13-1.55a1.54,1.54,0,0,0-.13-.46.32.32,0,0,1,0-.12,1.69,1.69,0,0,0-.54,0l-.42,0h-.63l-.42,0h-.5v.17a.45.45,0,0,1,.08.17v.25a.68.68,0,0,1,0,.21q.12,3.51.13,3.6,0,.67,0,3.45t0,4q0,1.25-.19,3.37a27.24,27.24,0,0,1-.54,3.79,15.22,15.22,0,0,1-1.17,3.43q-1.3,2.3-3.1,1.72a1.87,1.87,0,0,1-.92-1.13,9.14,9.14,0,0,1-.42-1.76,23.24,23.24,0,0,1-.21-3.18q0-3.05-.38-14.73v-3a1.1,1.1,0,0,0,0-.33A.24.24,0,0,0,100.35,63.23Z"/><path d="M123.9,61.77a4.83,4.83,0,0,1,3.56,2.13q1.09,1.88-.29,5.23a22.82,22.82,0,0,1-4.23,6.19,2.55,2.55,0,0,1-.5.33,1,1,0,0,0-.25.25l.08.21a87.36,87.36,0,0,0,4.6,8.24l2.68,4.52q.59,1,.84,1.55a2.75,2.75,0,0,1,.21.5.68.68,0,0,1,0,.21.35.35,0,0,1,0,.29.27.27,0,0,1-.12.13h-.08a.36.36,0,0,1-.17,0,1.25,1.25,0,0,1-.38,0,11.57,11.57,0,0,1-1.17.13,8.05,8.05,0,0,1-1.17,0,2,2,0,0,1-.46,0,.51.51,0,0,1-.38-.13,3,3,0,0,1-.63-1,6.27,6.27,0,0,0-.54-1q-1.34-1.84-3.43-5.19-2.8-4.52-3.3-5.23a2.33,2.33,0,0,0-.12-.29l0,0v.13a.37.37,0,0,1,0,.17v0q.25,2.8.46,6,.17,2.47.21,3.56,0,.8.08,1.21v.38a.32.32,0,0,0,0,.13.24.24,0,0,1,0,.17.77.77,0,0,1-.42.25,1.55,1.55,0,0,1-.46.13A2.69,2.69,0,0,1,118,91h-.08a.27.27,0,0,1-.29.25l-.59,0q-.54,0-.84,0a6.83,6.83,0,0,1-.84,0,1.09,1.09,0,0,1-.67-.33,1.15,1.15,0,0,1-.25-.58c0-.2-.06-.46-.08-.8q-.08-.84-.08-2.17,0-1,0-2.32c0-.91,0-1.39,0-1.44q0-3.47-.17-10.38T114,62.9a.17.17,0,0,1,.08-.17.24.24,0,0,1-.08-.17.26.26,0,0,1,.25-.33Q120.89,61.18,123.9,61.77Zm-9.16,11.51q.17,6.9.17,10.38,0,.08,0,1.44t0,2.32q0,1.26.08,2.13c0,.33.06.57.08.71a.76.76,0,0,0,.08.29.5.5,0,0,0,.36.17,5,5,0,0,0,.73,0c.2,0,.46,0,.79,0l.33,0a.27.27,0,0,1,.21-.21l.38,0a2.71,2.71,0,0,0,.42-.08l.33-.08a.17.17,0,0,0,.13,0v-.33q0-.42-.08-1.17,0-1.09-.21-3.56Q118.3,82,118,79.22V79a1.78,1.78,0,0,1,0-.33,1.24,1.24,0,0,1,0-.38.45.45,0,0,1,.29-.42.42.42,0,0,1,.46.13.61.61,0,0,1,.21.29,1,1,0,0,1,.13.29,1,1,0,0,0,.13.21q.5.71,3.3,5.23,2.09,3.35,3.43,5.19a6.08,6.08,0,0,1,.54,1.09,3.89,3.89,0,0,0,.5.84.12.12,0,0,1,.08,0h.38a8.28,8.28,0,0,0,1.17,0l1.09-.08.25,0a1.47,1.47,0,0,0-.17-.38q-.25-.5-.79-1.51l-2.68-4.52a89.42,89.42,0,0,1-4.69-8.37.79.79,0,0,1,0-.63,1.2,1.2,0,0,1,.46-.46,3.79,3.79,0,0,0,.38-.29,23.14,23.14,0,0,0,4.14-6q1.21-3.05.29-4.69a4.21,4.21,0,0,0-3.18-1.84q-2.84-.54-9.25.42a.17.17,0,0,1,0,.13Q114.57,66.37,114.74,73.28Zm3.1-7.32c0-.17,0-.27.23-.31a.27.27,0,0,1,.36.23,4.08,4.08,0,0,1,3.22,1.25,3.16,3.16,0,0,1,.33,2.8,6.71,6.71,0,0,1-1.46,2.59q-1.13,1.26-2,1.21-.46,0-.54-.59v-.46q0-.59,0-2t0-2.41a16.07,16.07,0,0,0-.15-1.9.28.28,0,0,1-.13-.25.35.35,0,0,1,0-.17Zm2.22,6.19a6.18,6.18,0,0,0,1.34-2.38,2.47,2.47,0,0,0-.21-2.26,3.34,3.34,0,0,0-2.68-1,17.21,17.21,0,0,1,.15,2q0,1,0,2.38t0,1.88v.46Q119.17,73.15,120.05,72.15Z"/><path d="M138.67,87.25h1l2.76-.21,2.89-.17q.71,0,1.13,0a2.29,2.29,0,0,1,.8.17.7.7,0,0,1,.29.33,2.24,2.24,0,0,1,.13.46,9.18,9.18,0,0,1,.1,1.19,6.16,6.16,0,0,1-.06,1.19,2.2,2.2,0,0,1-.12.46.71.71,0,0,1-.29.33,1.63,1.63,0,0,1-.75.17l-1.3.08q-1.34,0-3.6,0-1.46,0-3.64,0l-2.47,0a.27.27,0,0,1-.29-.25.17.17,0,0,1-.13,0,.26.26,0,0,1-.29-.29q0-.92.21-4.43.17-2.76.13-4.35,0-2.38-.17-6-.17-4.1-.25-7.26t-.08-6v-.17a.27.27,0,0,1,.25-.29.4.4,0,0,1,.21-.17,1.85,1.85,0,0,1,.59-.13,9.18,9.18,0,0,1,1,0q1,0,2.64,0,2.89,0,4.35.08l.27,0,.5,0,.56,0c.33,0,.6,0,.79,0a1.1,1.1,0,0,1,.67.21.27.27,0,0,1,.13.13v.08a.24.24,0,0,1,0,.17,2.61,2.61,0,0,0,0,.42,10.93,10.93,0,0,1,0,1.34,8.18,8.18,0,0,1-.08,1.3,4.83,4.83,0,0,1-.08.5.67.67,0,0,1-.33.42,5.5,5.5,0,0,1-1.76.13l-2.55-.17q-1.92-.13-2.38-.13a3.21,3.21,0,0,0-.84.08.91.91,0,0,0-.29,0v.08a4.18,4.18,0,0,1,0,.5q0,.54,0,1.55c0,.33,0,.7-.06,1.09s0,.73,0,1,0,.45,0,.48,0,.27,0,.56,0,.63-.06,1,0,.77,0,1.13q0,1,0,1.55a2.84,2.84,0,0,0,0,.54V76a1.39,1.39,0,0,0,.63.08l1.34-.12a4.49,4.49,0,0,1,1.34,0,.9.9,0,0,1,.88.79,9.22,9.22,0,0,1,.08,1.3,3.71,3.71,0,0,1,0,.79,1.11,1.11,0,0,1,0,.33,1,1,0,0,1-.12.29.74.74,0,0,1-.42.17,2.56,2.56,0,0,1-.5,0,9.34,9.34,0,0,1-1.3-.13,5.06,5.06,0,0,1-.61-.06,5.07,5.07,0,0,0-.65-.06l-.38,0v.17a5.78,5.78,0,0,0,0,.59,4.36,4.36,0,0,1,.08.44c0,.18.06.33.08.46a1.54,1.54,0,0,1,0,.31v3.26l0,2v.67A.58.58,0,0,0,138.67,87.25Zm7.07-24.89c-.2,0-.45,0-.75,0l-.52,0-.54,0-.31,0q-1.51-.08-4.35-.08-1.63,0-2.64,0a7.22,7.22,0,0,0-.9,0l-.4,0,0,.08v0l-.08.08q0,2.89.08,6t.25,7.2q.13,3.64.17,6,0,1.63-.13,4.39-.21,3.51-.21,4.35a.17.17,0,0,1,.13,0l2.51,0q2.18,0,3.6,0,2.26,0,3.6,0l1.21-.08a3.27,3.27,0,0,0,.54-.08,0,0,0,0,1,0,0,2.66,2.66,0,0,0,.08-.38,4.63,4.63,0,0,0,.06-1A7.72,7.72,0,0,0,147,88a2.69,2.69,0,0,0-.08-.33.12.12,0,0,0,0-.08,1.75,1.75,0,0,0-.54-.13h-1l-2.89.17-2.8.21h-1a1.11,1.11,0,0,1-.67-.21l-.13-.13v-1c0-.2,0-.52,0-1s0-.8,0-1V81.27a1.76,1.76,0,0,0,0-.23c0-.1,0-.23-.06-.4l-.13-.46c0-.31,0-.54,0-.71a1,1,0,0,1,.17-.63.34.34,0,0,1,.25-.08.24.24,0,0,1,.17,0,2.58,2.58,0,0,1,.42,0c.14,0,.36.06.67.08l.59,0a9.26,9.26,0,0,0,1.25.13,1.75,1.75,0,0,0,.42,0h.08v-.25a3,3,0,0,0,0-.71,8.51,8.51,0,0,0-.08-1.26q0-.25-.4-.31a4.91,4.91,0,0,0-1.19,0q-1.21.17-1.38.17-.84,0-1.09-.33a.3.3,0,0,1-.13-.21v-.21a2.84,2.84,0,0,1,0-.54q0-.63,0-1.63c0-.33,0-.7,0-1.11s0-.75.06-1,0-.47,0-.52,0-.23,0-.52,0-.63,0-1,0-.75.06-1.09q0-1,0-1.55a4.51,4.51,0,0,0,0-.54.38.38,0,0,0,0-.17V66a.52.52,0,0,1,.08-.12,1.53,1.53,0,0,1,.67-.25,3.74,3.74,0,0,1,.88-.08q.54,0,2.47.13l2.51.17a8.44,8.44,0,0,0,1.51-.08,0,0,0,0,1,0,0,1.46,1.46,0,0,0,0-.42,7.38,7.38,0,0,0,.08-1.25,9.61,9.61,0,0,0,0-1.26,2.58,2.58,0,0,1,0-.42A.59.59,0,0,0,145.74,62.36Zm.33,0H146A.05.05,0,0,0,146.07,62.4Z"/><path class="cls-4" d="M64.51,22.86v1.5H66v1.21H64.51V28.9c0,.7-.15,1.08-.63,1.3a7.56,7.56,0,0,1-2.31.21,5.14,5.14,0,0,0-.41-1.3c.78,0,1.54,0,1.76,0s.29-.06.29-.25V25.57H58.35v-.74L57,25.24v5.17H55.8V25.62l-2.21.66L53.25,25c.7-.17,1.58-.41,2.55-.69V21.53H54.66a12.17,12.17,0,0,1-.57,1.92,9.74,9.74,0,0,0-.94-.59A16.26,16.26,0,0,0,54,18.3l1.12.2c-.07.6-.14,1.22-.25,1.81h.91V17.57H57V20.3h1.3v1.23H57V24l1.47-.43.11.78h4.64v-1.5H58.08V21.66h3.45V20.13H58.91V19h2.62v-1.4h1.29V19h2.7v1.18h-2.7v1.53h3.33v1.21ZM60,25.79a10,10,0,0,1,1.72,2.16l-1,.67A10.13,10.13,0,0,0,59,26.39Z"/><path class="cls-4" d="M76.12,27.12a15.69,15.69,0,0,0,4.83,2,5.25,5.25,0,0,0-.8,1.06,16.19,16.19,0,0,1-5.1-2.56v2.76H73.76V27.68a15.8,15.8,0,0,1-5.08,2.61,7.51,7.51,0,0,0-.84-1.06,15.65,15.65,0,0,0,4.92-2.1H68.22V26.07h5.55v-.74H69.87v-4a12.46,12.46,0,0,1-1.09,1,4.61,4.61,0,0,0-.92-.88,11.64,11.64,0,0,0,3.29-4l1.36.27c-.25.43-.52.9-.83,1.34h2.38a12.39,12.39,0,0,0,.69-1.58l1.44.18c-.25.49-.52,1-.78,1.4h4.4v1H75.33V21h3.85v.88H75.33v.8h3.88v.87H75.33v.81h4.94v1H75.05v.74h5.6v1.05Zm-2-6.93h-3V21h3Zm0,1.65h-3v.8h3Zm-3,2.48h3v-.81h-3Z"/><path class="cls-4" d="M82.69,19.88h5.59v1H82.69Zm5,9.78H84.47v.59H83.32V25.54h4.38Zm-4.36-7.87h4.4v1h-4.4Zm0,1.86h4.4v1h-4.4Zm4.44-4.59H83.43V18h4.36Zm-3.32,7.54v2h2.07v-2Zm9,2.46c.7,0,.8-.35.9-2.2a3.83,3.83,0,0,0,1.22.53c-.18,2.25-.56,2.9-2,2.9H91c-1.54,0-2-.39-2-1.91V22.81h4.59V19.56H88.88V18.31h6v6.47h-1.3v-.73H90.3v4.33c0,.56.14.67.85.67Z"/><path class="cls-4" d="M110.2,26.51h-1.46V29h-1.32v-.6h-3v.73c0,.71-.18,1-.66,1.19a8.21,8.21,0,0,1-2.38.18,4.06,4.06,0,0,0-.45-1.05c.77,0,1.61,0,1.83,0s.34-.08.34-.32v-.74H98.75v-1h4.37v-.87h-5.6v-1h5.6v-.8H98.88v-.92h4.24v-.83H99.24V20.36h3.88v-.71H97.81v-1h5.31v-1h1.32v1h5.46v1h-5.46v.71h4.08v2.58h-4.08v.83h4.3v1.72h1.46Zm-7.07-4.44v-.84h-2.63v.84Zm1.32-.84v.84h2.76v-.84Zm0,4.26h3v-.8h-3Zm3,1h-3v.87h3Z"/></g><g id="コンテンツ-2" data-name="コンテンツ"><path class="cls-4" d="M10.55,42.63a1.8,1.8,0,0,0-1.45,0A.8.8,0,1,0,10.55,42.63Z"/><path class="cls-4" d="M17.2,52.76c-.39,1.3,1.17,1.41,1.74.87C19.11,52.59,18.08,52.75,17.2,52.76Z"/><path class="cls-4" d="M.13,53.92c-.15,1.33,1,1.17,1.74.87C1.89,53.89,1,53.92.13,53.92Z"/><path class="cls-4" d="M10.26,61.73c-.82-.24-.75.41-1.45.29-.36,1.64,1.64,1.27,1.74.29C10.32,62.25,10.21,62.07,10.26,61.73Z"/><path class="cls-4" d="M13.42,52.39a5.19,5.19,0,0,1-.77.2l-.38-.25c-.91-.59-1.77-1.16-1.81-2.2l.08,0c-.55-1.38.46-2.85,0-4.05-.37,0-.4-.37-.87-.29-.52,1.12-.47,2.82-.87,4.05l0,.05a.4.4,0,0,0-.26.24,5.38,5.38,0,0,1-1.56,2,10.47,10.47,0,0,0-1.12,1.19,2.86,2.86,0,0,0-1.7.86c.71.23,1.12.76,2,.86a3.15,3.15,0,0,1,1.8,2v0a1.55,1.55,0,0,0,.27.6c0,.92-.29,2.21.87,2,.59-.28.62-1.11.58-2l-.1-.08,0,0a32.8,32.8,0,0,1,3.17-3.92,6,6,0,0,0,1-.24ZM9.09,56.81h-.3a4,4,0,0,0-2.33-2.58l0,0v-.32a9.26,9.26,0,0,1,1.07-1.14,6.67,6.67,0,0,0,1.64-2c.17,0,.26-.17.4-.24a4.05,4.05,0,0,0,2.18,2.6l.22.15A33.93,33.93,0,0,0,9.09,56.81Z"/><path class="cls-4" d="M161.88,41.29a1.8,1.8,0,0,0-1.45,0A.8.8,0,1,0,161.88,41.29Z"/><path class="cls-4" d="M168.53,51.42c-.39,1.3,1.17,1.41,1.74.87C170.44,51.25,169.41,51.41,168.53,51.42Z"/><path class="cls-4" d="M151.46,52.58c-.15,1.33,1,1.17,1.74.87C153.22,52.55,152.32,52.59,151.46,52.58Z"/><path class="cls-4" d="M161.59,60.39c-.82-.24-.75.41-1.45.29-.36,1.64,1.64,1.27,1.74.29C161.65,60.91,161.54,60.73,161.59,60.39Z"/><path class="cls-4" d="M164.75,51.05a5.19,5.19,0,0,1-.77.2l-.38-.25c-.91-.59-1.77-1.16-1.81-2.2l.08,0c-.55-1.38.46-2.85,0-4.05-.37,0-.4-.37-.87-.29-.52,1.12-.47,2.82-.87,4.05l0,.05a.4.4,0,0,0-.26.24,5.38,5.38,0,0,1-1.56,2A10.47,10.47,0,0,0,157.22,52a2.86,2.86,0,0,0-1.7.86c.71.23,1.12.76,2,.86a3.15,3.15,0,0,1,1.8,2v0a1.55,1.55,0,0,0,.27.6c0,.92-.29,2.21.87,2,.59-.28.62-1.11.58-2l-.1-.08,0,0a32.8,32.8,0,0,1,3.17-3.92,6,6,0,0,0,1-.24Zm-4.33,4.42h-.3a4,4,0,0,0-2.33-2.58l0,0v-.32a9.26,9.26,0,0,1,1.07-1.14,6.67,6.67,0,0,0,1.64-2c.17,0,.26-.17.4-.24a4.05,4.05,0,0,0,2.18,2.6l.22.15A33.93,33.93,0,0,0,160.42,55.47Z"/><path class="cls-3" d="M63,54.11a.79.79,0,0,1-.6-1.31,32.44,32.44,0,0,0,4.81-8.56.79.79,0,0,1,1.46.62,33.77,33.77,0,0,1-5.06,9,.79.79,0,0,1-.6.28Z"/><path class="cls-3" d="M68,45.37a.81.81,0,0,1-.81-.72,9.76,9.76,0,0,1,.09-2.39c.05-.42.11-.85.12-1.27A.81.81,0,1,1,69,41c0,.48-.07,1-.13,1.42a8.41,8.41,0,0,0-.09,2,.81.81,0,0,1-.71.9Z"/><path class="cls-3" d="M78.12,45.92a86.63,86.63,0,0,1-10.26-.63A.74.74,0,1,1,68,43.81c9.69,1.15,18.25.71,29.57-1.49s27.75-9.56,26.34-20.73c-.38-3-3-7.5-7.87-10.81-11.29-7.63-26.33-8.85-37-8.54C69.16,2.53,51.14,8,44.59,17a12,12,0,0,0-2,11c2.67,9,12.38,12.74,20.06,14.33a.74.74,0,0,1-.3,1.46c-11.58-2.4-18.91-7.71-21.19-15.36a13.46,13.46,0,0,1,2.22-12.25C50.3,6.59,68.55,1.06,79.07.75c10.85-.32,26.22.95,37.84,8.79,5.66,3.82,8.12,8.78,8.51,11.86,1.44,11.41-13.26,19.6-27.53,22.38a101.63,101.63,0,0,1-19.77,2.13Z"/><g class="cls-5"><g class="cls-6"><use transform="translate(-158.01 -398.76) scale(0.61)" xlink:href="#image"/></g></g><g class="cls-7"><g class="cls-8"><use transform="translate(75.21 -398.76) scale(0.61)" xlink:href="#image"/></g></g></g></svg>