<svg xmlns="http://www.w3.org/2000/svg" viewBox="0 0 147.35 102.36"><defs><style>.cls-1{fill:#0071b2;}.cls-2{fill:#333;}</style></defs><title>bar-アートボード 69</title><g id="コンテンツ"><path class="cls-1" d="M27.62,72.66a7.88,7.88,0,0,1,1.08-1.2A5,5,0,0,1,32,70.82a4.13,4.13,0,0,1,2.92,1.68,9.81,9.81,0,0,1,1.72,3.8,17.09,17.09,0,0,1,.52,4.16A10.8,10.8,0,0,1,36.62,84q-1.76,4.44-4.6,5.84-.2.12-2.52,1-.92.32-1.36.52l-.44.2c-.05,0-.08.05-.08.08a27,27,0,0,0,0,4.44q.24,4.88.24,5a.25.25,0,0,1-.28.28.16.16,0,0,1-.12,0v0a.25.25,0,0,1-.24.32l-.64.08-.84.12a4.81,4.81,0,0,1-.88,0,.94.94,0,0,1-.68-.44,1.22,1.22,0,0,1-.12-.48,6.48,6.48,0,0,1,0-.8q0-.84,0-2.28,0-.68,0-1.56V94q-.2-6.4-.2-15.2,0-.64-.06-2.34t0-2.94a21.6,21.6,0,0,1,.2-2.36.25.25,0,0,1,.32-.24,2.77,2.77,0,0,1,.44-.16,6.86,6.86,0,0,1,.88-.28,3.64,3.64,0,0,1,.88-.12,1.32,1.32,0,0,1,.72.08,1,1,0,0,1,.32.88,4,4,0,0,1-.08,1,6.19,6.19,0,0,1-.12.72Z"/><path class="cls-1" d="M27.3,101.1q0-.16-.24-5a26.32,26.32,0,0,1,0-4.72.38.38,0,0,1,.16-.2.68.68,0,0,0,.16-.12l.48-.24q.48-.2,1.4-.52,2.32-.88,2.48-1,2.64-1.32,4.28-5.6a8.76,8.76,0,0,0,.54-3.26,15.73,15.73,0,0,0-.5-4.06,9.13,9.13,0,0,0-1.58-3.52,3.69,3.69,0,0,0-2.58-1.52,4.17,4.17,0,0,0-2.92.56,4.75,4.75,0,0,0-1,1l-.48.6-.2.2-.08.08a.27.27,0,0,1-.2.08.42.42,0,0,1-.4-.32,1.22,1.22,0,0,1,0-.36,7.34,7.34,0,0,1,.12-1,3.38,3.38,0,0,0,.08-1c0-.24,0-.37-.08-.4s-.15,0-.36,0a3.4,3.4,0,0,0-.8.12l-.84.24a1.5,1.5,0,0,0-.4.16,16.66,16.66,0,0,0-.18,2.24q0,1.2,0,2.8t.06,2.32q0,8.8.2,15.2v2.32q0,.88,0,1.56,0,1.4,0,2.24a5.69,5.69,0,0,0,0,.76l0,.32c0,.05.12.09.28.12a3.6,3.6,0,0,0,.76,0l.8-.12.64-.08a.36.36,0,0,1,.16,0Z"/><path class="cls-1" d="M31,74.46a2.3,2.3,0,0,1,2.28,1.48A7.8,7.8,0,0,1,34,79.36a11.58,11.58,0,0,1-.52,3.82A6.57,6.57,0,0,1,32.32,85a16,16,0,0,1-1.9,2,6.65,6.65,0,0,1-2,1.28,1.31,1.31,0,0,1-.88.08.86.86,0,0,1-.6-.64v-1.8q0-1.56,0-3.6.08-2.24.12-3.72,0-1.8.08-2c.05-.19.16-.27.32-.24l.16.08A5.28,5.28,0,0,1,31,74.46Z"/><path class="cls-1" d="M27.7,78.62q0,1.52-.12,3.72,0,2,0,3.6v1.64a.28.28,0,0,0,.2.24.74.74,0,0,0,.52,0A5.6,5.6,0,0,0,30,86.62a15.68,15.68,0,0,0,1.84-1.92,5.7,5.7,0,0,0,1-1.68,10.75,10.75,0,0,0,.52-3.64,7.31,7.31,0,0,0-.68-3.2A1.76,1.76,0,0,0,31,75q-1.32.08-3.16,2.12l-.12.08Q27.7,77.7,27.7,78.62Z"/><path class="cls-1" d="M44.62,72.78l.36-.24.32-.16a4.19,4.19,0,0,1,4,1,4.91,4.91,0,0,1,1.88,3.68v.24a.5.5,0,0,1-.08.4.82.82,0,0,1-.36.24,2.7,2.7,0,0,1-.4.2l-.4.16-.28.08-.28.16a1.87,1.87,0,0,1-.44.2,1,1,0,0,1-1,0,.85.85,0,0,1-.24-.4q0-.08-.24-.6a7.55,7.55,0,0,0-.72-1.36,1.51,1.51,0,0,0-.88-.76q-.56-.08-1.28.72a5.71,5.71,0,0,0-.72,2.84q-.16,1.72-.12,4.72,0,.44,0,2.1t0,2.38a10.7,10.7,0,0,1-.08,1.52c0,.21-.05.39-.08.52a.5.5,0,0,1-.28.36,1.78,1.78,0,0,1-.72.16q-.44,0-1,0a4.46,4.46,0,0,1-1-.16,1.4,1.4,0,0,1-.36-.12.65.65,0,0,1-.28-.32A6.4,6.4,0,0,1,40,89.14q0-.84,0-2.12,0-2.4.08-6,.16-6.76.36-9.6a.27.27,0,0,1-.08-.2.26.26,0,0,1,.16-.24.29.29,0,0,1,.28-.16.16.16,0,0,1,.16.12q.68,0,3,0a.25.25,0,0,1,.28.28v0a.27.27,0,0,1,.12.24c0,.05,0,.19,0,.4v.6a2.51,2.51,0,0,0,0,.48v0A1.76,1.76,0,0,0,44.62,72.78Z"/><path class="cls-1" d="M43.14,90.26a1.92,1.92,0,0,0,0-.44,9.58,9.58,0,0,0,.08-1.44q0-.72,0-2.36t0-2.12a47.25,47.25,0,0,1,.12-4.76,5.87,5.87,0,0,1,.88-3.2,2.09,2.09,0,0,1,1.76-.88,2.09,2.09,0,0,1,1.28,1A14.41,14.41,0,0,1,48,77.54a3.76,3.76,0,0,0,.24.56.9.9,0,0,0,.12.24q.08.08.44-.08a1.39,1.39,0,0,0,.36-.16,1.54,1.54,0,0,1,.32-.16l.32-.12.4-.16.36-.2.12,0V77.1A4.51,4.51,0,0,0,49,73.82a3.69,3.69,0,0,0-3.52-.88.41.41,0,0,0-.16.08l-.4.24a3.86,3.86,0,0,1-.4.24l-.2.08a.33.33,0,0,1-.28,0,.65.65,0,0,1-.32-.48,4.1,4.1,0,0,1,0-.64v-.56c0-.24,0-.37,0-.4q-2,0-2.76,0-.2,2.8-.36,9.52-.08,3.64-.08,6,0,1.32,0,2.12a9.31,9.31,0,0,0,.08,1,0,0,0,0,1,0,0l.24.08a5.4,5.4,0,0,0,.84.12q.48,0,.88,0a2.94,2.94,0,0,0,.48-.08Z"/><path class="cls-1" d="M59.66,81.42l-.32,0a1.31,1.31,0,0,1-.4.08q-.4.12-.44.22a1.86,1.86,0,0,0-.08.38q0,.28,0,.72a11.36,11.36,0,0,0,.36,1.92,8.85,8.85,0,0,0,.72,1.84q.4.72.72.76a2.71,2.71,0,0,0,2.28-.66,4.3,4.3,0,0,0,1.36-2.26,1.12,1.12,0,0,0,0-.44,1,1,0,0,1,.2-.68.64.64,0,0,1,.36-.16,1.5,1.5,0,0,1,.36,0,5.45,5.45,0,0,1,1,.1,9.21,9.21,0,0,1,.94.22,1.57,1.57,0,0,1,.36.16.48.48,0,0,1,.28.28,2.21,2.21,0,0,1,.08,1.36,8,8,0,0,1-.32,1.2,6.65,6.65,0,0,1-1.8,2.6,8.27,8.27,0,0,1-2.72,1.66,7.08,7.08,0,0,1-3.14.38,6.41,6.41,0,0,1-3-1.08q-2-1.4-2.44-5.2a17.57,17.57,0,0,1,.84-7.24,12.43,12.43,0,0,1,3.64-5.88,6,6,0,0,1,6.24-1,3.29,3.29,0,0,1,1.6,1.8,10.58,10.58,0,0,1,.84,2.8,14.78,14.78,0,0,1,.2,2.76,3.31,3.31,0,0,1-.2,1,.89.89,0,0,1-.42.66,10.22,10.22,0,0,1-1.46.42L63,80.7q-2.08.44-3.2.6A.6.6,0,0,1,59.66,81.42Z"/><path class="cls-1" d="M62.9,80.18q1.32-.28,2.32-.56a8.18,8.18,0,0,0,1.32-.36c.05,0,.11-.13.16-.32a3.24,3.24,0,0,0,.16-.88,13.19,13.19,0,0,0-.2-2.6,10.31,10.31,0,0,0-.8-2.68,2.46,2.46,0,0,0-1.32-1.48,5.35,5.35,0,0,0-5.64.84,11.84,11.84,0,0,0-3.48,5.64,17.81,17.81,0,0,0-.8,7q.36,3.52,2.2,4.76a6.34,6.34,0,0,0,3.74,1,7,7,0,0,0,3.66-1.28,6.25,6.25,0,0,0,2.4-3,4.43,4.43,0,0,0,.32-1.12,2.2,2.2,0,0,0,0-1,0,0,0,0,1,0,0L66.62,84a7.16,7.16,0,0,0-.86-.22,4.59,4.59,0,0,0-.9-.1.89.89,0,0,0-.28,0h0a.68.68,0,0,0,0,.28,3,3,0,0,1,0,.6,5.32,5.32,0,0,1-1.58,2.54,3.14,3.14,0,0,1-2.7.78q-.6-.12-1.16-1.08a9.7,9.7,0,0,1-.72-1.92,10.23,10.23,0,0,1-.4-2q0-.48,0-.8a1.48,1.48,0,0,1,.16-.6,1.16,1.16,0,0,1,.8-.48.28.28,0,0,1,.28-.2A29.46,29.46,0,0,0,62.9,80.18Z"/><path class="cls-1" d="M59.54,75.76a5,5,0,0,1,1.2-1.5,2.21,2.21,0,0,1,1.68-.56,1.88,1.88,0,0,1,1.4,1.44l.16.64a2.71,2.71,0,0,1,.12.36.78.78,0,0,1,0,.36.5.5,0,0,1-.12.2l0,0-.2.08a2,2,0,0,1-.48.24q-.56.24-1.4.56l-1.48.48a3.63,3.63,0,0,1-.52.16.44.44,0,0,0-.2,0h-.2a.49.49,0,0,1-.32-.36.17.17,0,0,0,0-.12v-.08a.26.26,0,0,1,0-.28A3.27,3.27,0,0,1,59.54,75.76Z"/><path class="cls-1" d="M63.54,76.26c0-.11-.05-.23-.08-.36s-.12-.39-.2-.6q-.28-.92-.92-1a1.73,1.73,0,0,0-1.26.46A3.88,3.88,0,0,0,60,76.12a2.3,2.3,0,0,0-.26,1.54v0l.52-.12q.6-.2,1.44-.52t1.4-.52l.44-.2,0,0Z"/><path class="cls-1" d="M78.22,74.34a1.89,1.89,0,0,0-1.32-.24,1.42,1.42,0,0,0-1,.64,1.44,1.44,0,0,0,0,1.44,8.25,8.25,0,0,0,2,2.44,16.74,16.74,0,0,1,2.52,2.6,11.41,11.41,0,0,1,1.4,3.18,6.73,6.73,0,0,1,.16,3.06,4,4,0,0,1-1.56,2.48,5.67,5.67,0,0,1-3.44.92,8.39,8.39,0,0,1-3.12-.4,3.78,3.78,0,0,1-1.08-.84,16.62,16.62,0,0,1-1.16-1.48,8.19,8.19,0,0,1-.88-1.6,1.88,1.88,0,0,1-.12-1.44.9.9,0,0,1,.32-.32,2.63,2.63,0,0,1,.44-.16l.28-.1.24-.1.12,0,.36-.32q.4-.36.72-.16a.7.7,0,0,1,.28.28,3.57,3.57,0,0,1,.2.36,7,7,0,0,0,.44.84,2.67,2.67,0,0,0,2,1.24,1.65,1.65,0,0,0,1.24-.42,1.57,1.57,0,0,0,.68-1.14,3,3,0,0,0-.76-1.72q-.32-.4-1.08-1.26T75.18,81q-3-3.56-3-6.76a4,4,0,0,1,.64-2.18,4.87,4.87,0,0,1,1.64-1.62,5.25,5.25,0,0,1,3.8-.76,4.63,4.63,0,0,1,2.56,1.72A7.18,7.18,0,0,1,82,73.94,3.2,3.2,0,0,1,82.14,75a1.1,1.1,0,0,1-.24.8.61.61,0,0,1-.32.16,1,1,0,0,1-.32,0c-.21,0-.48,0-.8,0l-.8,0-.52,0a.25.25,0,0,1-.28-.28.27.27,0,0,1,.08-.2A1.48,1.48,0,0,0,78.22,74.34Z"/><path class="cls-1" d="M71.22,86.3a6.34,6.34,0,0,0,.84,1.52,8.59,8.59,0,0,0,1.12,1.4,3.72,3.72,0,0,0,.88.76,8.58,8.58,0,0,0,2.88.32q3.84,0,4.44-3a6.46,6.46,0,0,0-.16-2.82,10.36,10.36,0,0,0-1.32-3A18.67,18.67,0,0,0,77.5,79a9.49,9.49,0,0,1-2.24-2.6,2.09,2.09,0,0,1,.12-2,2,2,0,0,1,1.44-.88,2.43,2.43,0,0,1,1.72.32,2,2,0,0,1,1,1.52h.2l.8.08h.72a.56.56,0,0,0,.24,0h0a.74.74,0,0,0,.08-.4,2.33,2.33,0,0,0-.12-.92,6.24,6.24,0,0,0-1.12-2.32,3.87,3.87,0,0,0-2.24-1.52,4.34,4.34,0,0,0-3.36.68,4.08,4.08,0,0,0-1.48,1.42,3.54,3.54,0,0,0-.56,1.9q0,3,2.92,6.4l.92,1.08q.76.88,1.08,1.28a3.23,3.23,0,0,1,.88,2.12,2.11,2.11,0,0,1-.92,1.48,2.24,2.24,0,0,1-1.64.56,3.17,3.17,0,0,1-2.4-1.48,7.43,7.43,0,0,1-.52-.92,1.8,1.8,0,0,0-.16-.32.11.11,0,0,1,0-.08l-.12.08a4.06,4.06,0,0,1-.48.4.43.43,0,0,1-.16.08l-.28.1-.24.1a1.54,1.54,0,0,0-.36.16l-.12,0A1.4,1.4,0,0,0,71.22,86.3Z"/><path class="cls-1" d="M90.58,81.42l-.32,0a1.3,1.3,0,0,1-.4.08q-.4.12-.44.22a2,2,0,0,0-.08.38q0,.28,0,.72a11.46,11.46,0,0,0,.36,1.92,8.8,8.8,0,0,0,.72,1.84q.4.72.72.76a2.71,2.71,0,0,0,2.28-.66,4.31,4.31,0,0,0,1.36-2.26,1.14,1.14,0,0,0,0-.44,1,1,0,0,1,.2-.68.64.64,0,0,1,.36-.16,1.5,1.5,0,0,1,.36,0,5.44,5.44,0,0,1,1,.1,9.17,9.17,0,0,1,.94.22,1.58,1.58,0,0,1,.36.16.47.47,0,0,1,.28.28,2.21,2.21,0,0,1,.08,1.36,7.85,7.85,0,0,1-.32,1.2,6.63,6.63,0,0,1-1.8,2.6,8.25,8.25,0,0,1-2.72,1.66,7.07,7.07,0,0,1-3.14.38,6.41,6.41,0,0,1-3-1.08q-2-1.4-2.44-5.2a17.59,17.59,0,0,1,.84-7.24,12.43,12.43,0,0,1,3.64-5.88,6,6,0,0,1,6.24-1,3.29,3.29,0,0,1,1.6,1.8,10.54,10.54,0,0,1,.84,2.8,14.79,14.79,0,0,1,.2,2.76,3.31,3.31,0,0,1-.2,1,.89.89,0,0,1-.42.66,10.22,10.22,0,0,1-1.46.42l-2.32.52q-2.08.44-3.2.6A.61.61,0,0,1,90.58,81.42Z"/><path class="cls-1" d="M93.82,80.18q1.32-.28,2.32-.56a8.2,8.2,0,0,0,1.32-.36c.05,0,.11-.13.16-.32a3.25,3.25,0,0,0,.16-.88,13.11,13.11,0,0,0-.2-2.6,10.31,10.31,0,0,0-.8-2.68,2.46,2.46,0,0,0-1.32-1.48,5.35,5.35,0,0,0-5.64.84,11.83,11.83,0,0,0-3.48,5.64,17.77,17.77,0,0,0-.8,7q.36,3.52,2.2,4.76a6.34,6.34,0,0,0,3.74,1,7,7,0,0,0,3.66-1.28,6.25,6.25,0,0,0,2.4-3,4.39,4.39,0,0,0,.32-1.12,2.2,2.2,0,0,0,0-1,0,0,0,0,1,0,0L97.54,84a7.18,7.18,0,0,0-.86-.22,4.58,4.58,0,0,0-.9-.1.9.9,0,0,0-.28,0h0a.69.69,0,0,0,0,.28,2.88,2.88,0,0,1,0,.6,5.31,5.31,0,0,1-1.58,2.54,3.14,3.14,0,0,1-2.7.78q-.6-.12-1.16-1.08a9.7,9.7,0,0,1-.72-1.92,10.16,10.16,0,0,1-.4-2q0-.48,0-.8a1.47,1.47,0,0,1,.16-.6,1.15,1.15,0,0,1,.8-.48.28.28,0,0,1,.28-.2A29.43,29.43,0,0,0,93.82,80.18Z"/><path class="cls-1" d="M90.46,75.76a5,5,0,0,1,1.2-1.5,2.21,2.21,0,0,1,1.68-.56,1.87,1.87,0,0,1,1.4,1.44l.16.64a3,3,0,0,1,.12.36.81.81,0,0,1,0,.36.52.52,0,0,1-.12.2l0,0-.2.08a2,2,0,0,1-.48.24q-.56.24-1.4.56l-1.48.48a3.62,3.62,0,0,1-.52.16.44.44,0,0,0-.2,0h-.2a.49.49,0,0,1-.32-.36.17.17,0,0,0,0-.12v-.08a.26.26,0,0,1,0-.28A3.26,3.26,0,0,1,90.46,75.76Z"/><path class="cls-1" d="M94.46,76.26c0-.11-.05-.23-.08-.36s-.12-.39-.2-.6q-.28-.92-.92-1a1.73,1.73,0,0,0-1.26.46,3.9,3.9,0,0,0-1.12,1.4,2.3,2.3,0,0,0-.26,1.54v0l.52-.12q.6-.2,1.44-.52t1.4-.52l.44-.2,0,0Z"/><path class="cls-1" d="M105.9,90.38a.27.27,0,0,1-.08.2.26.26,0,0,1,.16.24.25.25,0,0,1-.28.28l-.72,0c-.51,0-.87.05-1.08.08q-.64,0-1,0a1.51,1.51,0,0,1-.44-.12.48.48,0,0,1-.32-.28.23.23,0,0,1,0-.16.54.54,0,0,1,0-.24,4,4,0,0,1,0-.64q0-.8,0-2.2,0-2.52,0-6.52.08-9.24.28-10.56a.25.25,0,0,1,.32-.24.16.16,0,0,1,.16.12q.52-.12,1.08-.2a5.09,5.09,0,0,1,.8-.08.64.64,0,0,1,.32,0,.43.43,0,0,1,.32.12l.08.12v3.4a6.37,6.37,0,0,1,.8-1.28,7.52,7.52,0,0,1,3.32-2.52,3.9,3.9,0,0,1,4.08.44,2.7,2.7,0,0,1,.72,1.12,12.24,12.24,0,0,1,.44,1.72,33.19,33.19,0,0,1,.44,4.6q.08,1.72.08,8.16v4.4a.31.31,0,0,0,0,.12v.12a.43.43,0,0,1-.08.12.5.5,0,0,1-.24.12h-1.16l-.24,0L113,91l-.44.08a.16.16,0,0,0-.12,0h-.12a.36.36,0,0,1-.16,0,.53.53,0,0,1-.2-.44.31.31,0,0,0,0-.12v-.12q0-.88,0-3.32.16-3.4.16-4.48a35.13,35.13,0,0,0-.08-4.28,6.33,6.33,0,0,0-.6-2.64,2,2,0,0,0-1.52-.8q-1.28-.2-2.16,1.64a17.3,17.3,0,0,0-1.32,4.64,55.84,55.84,0,0,0-.6,8.2.28.28,0,0,1,.08.28l-.08.24V90a.36.36,0,0,1,0,.16Z"/><path class="cls-1" d="M104.62,70.62a4.31,4.31,0,0,0-.76.08,9.42,9.42,0,0,0-1.12.2q-.16,2.16-.24,10.12,0,3.88,0,6.52,0,1.4,0,2.16a3.66,3.66,0,0,0,0,.64v.2h.08a1.18,1.18,0,0,0,.28.08,8.9,8.9,0,0,0,1,0l1-.08a2.1,2.1,0,0,0,.48,0,.23.23,0,0,1-.08-.16v-.44a.35.35,0,0,1,0-.16,60,60,0,0,1,.64-8.72,16.32,16.32,0,0,1,1.32-4.8q1.12-2.2,2.76-2a2.63,2.63,0,0,1,1.92,1,6.72,6.72,0,0,1,.68,2.92,35.48,35.48,0,0,1,.08,4.32q0,1.12-.16,4.48-.08,2.44,0,3.32v.12l.32-.08.4-.08.28-.08h1V85.94q0-6.4-.08-8.12a31.91,31.91,0,0,0-.44-4.56,8.15,8.15,0,0,0-.4-1.62,1.81,1.81,0,0,0-.52-.82,3.39,3.39,0,0,0-3.56-.4,7.06,7.06,0,0,0-3,2.32,6.52,6.52,0,0,0-1.2,2.28,4.57,4.57,0,0,0-.12.52v.52a.12.12,0,0,0,0,.08.24.24,0,0,1-.32.12l-.16-.12a.11.11,0,0,1,0-.08v-.6q0-1,0-2.44v-2.4S104.67,70.6,104.62,70.62Z"/><path class="cls-1" d="M120.5,75l-.56.24a3.76,3.76,0,0,0-.48.24.91.91,0,0,1-1.08-.2,3.39,3.39,0,0,1-.32-1.8v-.28a3.31,3.31,0,0,1,0-.4,1.21,1.21,0,0,1,.2-.88,1.28,1.28,0,0,1,.92-.36,5.39,5.39,0,0,1,1.08,0q.76.08,1,.08a1,1,0,0,0,.6-.2v0c0-.08.05-.17.08-.28v-1q0-.88-.16-2.76l-.2-2.76a5.67,5.67,0,0,1,0-1,1.23,1.23,0,0,1,0-.36.42.42,0,0,1,.16-.28.78.78,0,0,1,.56-.16,2.23,2.23,0,0,1,.72,0,5,5,0,0,1,1,.24.17.17,0,0,1,.12,0,.25.25,0,0,1,.28.28v4.64q0,1.76.08,2.8a7.79,7.79,0,0,0,0,.92.55.55,0,0,0,0,.24h0a1.21,1.21,0,0,0,.44,0q.32,0,1.24-.08t1.28-.08a2.16,2.16,0,0,1,.48,0,.76.76,0,0,1,.44.16.5.5,0,0,1,.12.24v.6a4.33,4.33,0,0,1,0,.44v.24l.08.64c0,.19.05.33.08.44a1.23,1.23,0,0,1,0,.36.73.73,0,0,1-.44.4,2.9,2.9,0,0,1-.6.12,13.54,13.54,0,0,1-1.48,0l-.72,0-.76,0h-.44a.36.36,0,0,1,0,.16,16.73,16.73,0,0,1,.2,2.92q0,.24.36,6.4.16,2.24.16,3.56a9.55,9.55,0,0,1-.16,2.24.75.75,0,0,1-.56.44,2.34,2.34,0,0,1-.68.16,2.74,2.74,0,0,1-1.32-.12.48.48,0,0,1-.28-.28l-.12-.44q-.08-.48-.16-1.28-.12-1.4-.2-3.8v-7q0-.4,0-.8a8.07,8.07,0,0,0,0-1q0-.84,0-1.32c0-.16-.05-.29-.08-.4a0,0,0,0,1,0,0A1.41,1.41,0,0,0,120.5,75Z"/><path class="cls-1" d="M128,72.46a1.38,1.38,0,0,0-.4,0q-.32,0-1.24.08t-1.28.08a1.37,1.37,0,0,1-.48,0,1,1,0,0,1-.44-.16.46.46,0,0,1-.08-.16.17.17,0,0,1,0-.12,1.05,1.05,0,0,1,0-.32,8,8,0,0,1,0-.92q0-1-.08-2.84V63.7a6.71,6.71,0,0,0-1-.2,1.62,1.62,0,0,0-.6,0h-.24v.24a5,5,0,0,0,0,.92l.2,2.76q.16,1.92.16,2.8v1c0,.13-.05.25-.08.36a.61.61,0,0,1-.16.32,1.44,1.44,0,0,1-1,.36q-.36,0-1.12-.08a4.28,4.28,0,0,0-1,0,.68.68,0,0,0-.56.2,1.33,1.33,0,0,0,0,.44c0,.08,0,.21,0,.38s0,.29,0,.34a2.64,2.64,0,0,0,.24,1.44c.05.11.19.12.4,0l.44-.2a3.69,3.69,0,0,1,.6-.28,2,2,0,0,1,1.36-.08.63.63,0,0,1,.32.4c0,.13.05.29.08.48a9.38,9.38,0,0,1,.08,1.36,8.52,8.52,0,0,1,0,1c0,.25,0,.51,0,.78v7q.08,2.36.2,3.72a6.18,6.18,0,0,0,.16,1.24,3,3,0,0,0,.08.32l0,0a3.39,3.39,0,0,0,1,0,2.91,2.91,0,0,0,.6-.12c.11,0,.16-.05.16-.08a8,8,0,0,0,.16-2.08q0-1.28-.16-3.52-.36-6.2-.36-6.44a15.84,15.84,0,0,0-.2-2.84v0a.45.45,0,0,1-.08-.12.42.42,0,0,1,.08-.44.39.39,0,0,1,.2-.16.55.55,0,0,1,.24,0h.52l.78,0,.7,0a12.74,12.74,0,0,0,1.44,0l.44-.08.08,0s0-.09,0-.18a2.77,2.77,0,0,1,0-.38q-.12-.64-.12-.72V73.3c0-.21,0-.35,0-.4v-.44Z"/><path d="M25.62,70a7.88,7.88,0,0,1,1.08-1.2A5,5,0,0,1,30,68.17a4.13,4.13,0,0,1,2.92,1.68,9.81,9.81,0,0,1,1.72,3.8,17.09,17.09,0,0,1,.52,4.16,10.8,10.8,0,0,1-.56,3.52q-1.76,4.44-4.6,5.84-.2.12-2.52,1-.92.32-1.36.52l-.44.2c-.05,0-.08.05-.08.08a27,27,0,0,0,0,4.44q.24,4.88.24,5a.25.25,0,0,1-.28.28.16.16,0,0,1-.12,0v0a.25.25,0,0,1-.24.32l-.64.08-.84.12a4.81,4.81,0,0,1-.88,0,.94.94,0,0,1-.68-.44,1.22,1.22,0,0,1-.12-.48,6.48,6.48,0,0,1,0-.8q0-.84,0-2.28,0-.68,0-1.56V91.36q-.2-6.4-.2-15.2,0-.64-.06-2.34t0-2.94a21.6,21.6,0,0,1,.2-2.36.25.25,0,0,1,.32-.24,2.77,2.77,0,0,1,.44-.16,6.86,6.86,0,0,1,.88-.28,3.64,3.64,0,0,1,.88-.12,1.32,1.32,0,0,1,.72.08,1,1,0,0,1,.32.88,4,4,0,0,1-.08,1,6.19,6.19,0,0,1-.12.72ZM25.3,98.44q0-.16-.24-5a26.32,26.32,0,0,1,0-4.72.38.38,0,0,1,.16-.2.68.68,0,0,0,.16-.12l.48-.24q.48-.2,1.4-.52,2.32-.88,2.48-1,2.64-1.32,4.28-5.6a8.76,8.76,0,0,0,.54-3.26,15.73,15.73,0,0,0-.5-4.06,9.13,9.13,0,0,0-1.58-3.52,3.69,3.69,0,0,0-2.58-1.52,4.17,4.17,0,0,0-2.92.56,4.75,4.75,0,0,0-1,1l-.48.6-.2.2-.08.08a.27.27,0,0,1-.2.08.42.42,0,0,1-.4-.32,1.22,1.22,0,0,1,0-.36,7.34,7.34,0,0,1,.12-1,3.38,3.38,0,0,0,.08-1c0-.24,0-.37-.08-.4s-.15,0-.36,0a3.4,3.4,0,0,0-.8.12l-.84.24a1.5,1.5,0,0,0-.4.16A16.66,16.66,0,0,0,22.2,71q0,1.2,0,2.8t.06,2.32q0,8.8.2,15.2v2.32q0,.88,0,1.56,0,1.4,0,2.24a5.69,5.69,0,0,0,0,.76l0,.32c0,.05.12.09.28.12a3.6,3.6,0,0,0,.76,0l.8-.12.64-.08a.36.36,0,0,1,.16,0ZM29,71.81a2.3,2.3,0,0,1,2.28,1.48A7.8,7.8,0,0,1,32,76.71a11.58,11.58,0,0,1-.52,3.82,6.57,6.57,0,0,1-1.14,1.84,16,16,0,0,1-1.9,2,6.65,6.65,0,0,1-2,1.28,1.31,1.31,0,0,1-.88.08.86.86,0,0,1-.6-.64v-1.8q0-1.56,0-3.6.08-2.24.12-3.72,0-1.8.08-2c.05-.19.16-.27.32-.24l.16.08A5.28,5.28,0,0,1,29,71.81ZM25.7,76q0,1.52-.12,3.72,0,2,0,3.6v1.64a.28.28,0,0,0,.2.24.74.74,0,0,0,.52,0A5.6,5.6,0,0,0,28,84,15.68,15.68,0,0,0,29.86,82a5.7,5.7,0,0,0,1-1.68,10.75,10.75,0,0,0,.52-3.64,7.31,7.31,0,0,0-.68-3.2A1.76,1.76,0,0,0,29,72.37q-1.32.08-3.16,2.12l-.12.08Q25.7,75,25.7,76Z"/><path d="M42.62,70.13l.36-.24.32-.16a4.19,4.19,0,0,1,4,1,4.91,4.91,0,0,1,1.88,3.68v.24a.5.5,0,0,1-.08.4.82.82,0,0,1-.36.24,2.7,2.7,0,0,1-.4.2l-.4.16-.28.08-.28.16a1.87,1.87,0,0,1-.44.2,1,1,0,0,1-1,0,.85.85,0,0,1-.24-.4q0-.08-.24-.6a7.55,7.55,0,0,0-.72-1.36,1.51,1.51,0,0,0-.88-.76q-.56-.08-1.28.72a5.71,5.71,0,0,0-.72,2.84q-.16,1.72-.12,4.72,0,.44,0,2.1t0,2.38a10.7,10.7,0,0,1-.08,1.52c0,.21-.05.39-.08.52a.5.5,0,0,1-.28.36,1.78,1.78,0,0,1-.72.16q-.44,0-1,0a4.46,4.46,0,0,1-1-.16,1.4,1.4,0,0,1-.36-.12.65.65,0,0,1-.28-.32A6.4,6.4,0,0,1,38,86.48q0-.84,0-2.12,0-2.4.08-6,.16-6.76.36-9.6a.27.27,0,0,1-.08-.2.26.26,0,0,1,.16-.24.29.29,0,0,1,.28-.16.16.16,0,0,1,.16.12q.68,0,3,0a.25.25,0,0,1,.28.28v0a.27.27,0,0,1,.12.24c0,.05,0,.19,0,.4v.6a2.51,2.51,0,0,0,0,.48v0A1.76,1.76,0,0,0,42.62,70.13ZM41.14,87.6a1.92,1.92,0,0,0,0-.44,9.58,9.58,0,0,0,.08-1.44q0-.72,0-2.36t0-2.12a47.25,47.25,0,0,1,.12-4.76,5.87,5.87,0,0,1,.88-3.2,2.09,2.09,0,0,1,1.76-.88,2.09,2.09,0,0,1,1.28,1A14.41,14.41,0,0,1,46,74.89a3.76,3.76,0,0,0,.24.56.9.9,0,0,0,.12.24q.08.08.44-.08a1.39,1.39,0,0,0,.36-.16,1.54,1.54,0,0,1,.32-.16l.32-.12.4-.16.36-.2.12,0v-.32A4.51,4.51,0,0,0,47,71.17a3.69,3.69,0,0,0-3.52-.88.41.41,0,0,0-.16.08l-.4.24a3.86,3.86,0,0,1-.4.24l-.2.08a.33.33,0,0,1-.28,0,.65.65,0,0,1-.32-.48,4.1,4.1,0,0,1,0-.64v-.56c0-.24,0-.37,0-.4q-2,0-2.76,0-.2,2.8-.36,9.52-.08,3.64-.08,6,0,1.32,0,2.12a9.31,9.31,0,0,0,.08,1,0,0,0,0,1,0,0l.24.08a5.4,5.4,0,0,0,.84.12q.48,0,.88,0a2.94,2.94,0,0,0,.48-.08Z"/><path d="M57.66,78.77l-.32,0a1.31,1.31,0,0,1-.4.08q-.4.12-.44.22a1.86,1.86,0,0,0-.08.38q0,.28,0,.72a11.36,11.36,0,0,0,.36,1.92A8.85,8.85,0,0,0,57.54,84q.4.72.72.76a2.71,2.71,0,0,0,2.28-.66A4.3,4.3,0,0,0,61.9,81.8a1.12,1.12,0,0,0,0-.44,1,1,0,0,1,.2-.68.64.64,0,0,1,.36-.16,1.5,1.5,0,0,1,.36,0,5.45,5.45,0,0,1,1,.1,9.21,9.21,0,0,1,.94.22,1.57,1.57,0,0,1,.36.16.48.48,0,0,1,.28.28,2.21,2.21,0,0,1,.08,1.36,8,8,0,0,1-.32,1.2,6.65,6.65,0,0,1-1.8,2.6,8.27,8.27,0,0,1-2.72,1.66,7.08,7.08,0,0,1-3.14.38,6.41,6.41,0,0,1-3-1.08q-2-1.4-2.44-5.2a17.57,17.57,0,0,1,.84-7.24A12.43,12.43,0,0,1,56.54,69a6,6,0,0,1,6.24-1,3.29,3.29,0,0,1,1.6,1.8,10.58,10.58,0,0,1,.84,2.8,14.78,14.78,0,0,1,.2,2.76,3.31,3.31,0,0,1-.2,1,.89.89,0,0,1-.42.66,10.22,10.22,0,0,1-1.46.42L61,78q-2.08.44-3.2.6A.6.6,0,0,1,57.66,78.77Zm3.24-1.24q1.32-.28,2.32-.56a8.18,8.18,0,0,0,1.32-.36c.05,0,.11-.13.16-.32a3.24,3.24,0,0,0,.16-.88,13.19,13.19,0,0,0-.2-2.6,10.31,10.31,0,0,0-.8-2.68,2.46,2.46,0,0,0-1.32-1.48,5.35,5.35,0,0,0-5.64.84,11.84,11.84,0,0,0-3.48,5.64,17.81,17.81,0,0,0-.8,7q.36,3.52,2.2,4.76a6.34,6.34,0,0,0,3.74,1,7,7,0,0,0,3.66-1.28,6.25,6.25,0,0,0,2.4-3,4.43,4.43,0,0,0,.32-1.12,2.2,2.2,0,0,0,0-1,0,0,0,0,1,0,0l-.28-.08a7.16,7.16,0,0,0-.86-.22,4.59,4.59,0,0,0-.9-.1.89.89,0,0,0-.28,0h0a.68.68,0,0,0,0,.28,3,3,0,0,1,0,.6,5.32,5.32,0,0,1-1.58,2.54,3.14,3.14,0,0,1-2.7.78q-.6-.12-1.16-1.08a9.7,9.7,0,0,1-.72-1.92,10.23,10.23,0,0,1-.4-2q0-.48,0-.8a1.48,1.48,0,0,1,.16-.6,1.16,1.16,0,0,1,.8-.48.28.28,0,0,1,.28-.2A29.46,29.46,0,0,0,60.9,77.53Zm-3.36-4.42a5,5,0,0,1,1.2-1.5A2.21,2.21,0,0,1,60.42,71a1.88,1.88,0,0,1,1.4,1.44l.16.64a2.71,2.71,0,0,1,.12.36.78.78,0,0,1,0,.36A.5.5,0,0,1,62,74l0,0-.2.08a2,2,0,0,1-.48.24q-.56.24-1.4.56l-1.48.48a3.63,3.63,0,0,1-.52.16.44.44,0,0,0-.2,0h-.2a.49.49,0,0,1-.32-.36.17.17,0,0,0,0-.12v-.08a.26.26,0,0,1,0-.28A3.27,3.27,0,0,1,57.54,73.11Zm4,.5c0-.11-.05-.23-.08-.36s-.12-.39-.2-.6q-.28-.92-.92-1a1.73,1.73,0,0,0-1.26.46A3.88,3.88,0,0,0,58,73.47,2.3,2.3,0,0,0,57.7,75v0l.52-.12q.6-.2,1.44-.52t1.4-.52l.44-.2,0,0Z"/><path d="M76.22,71.69a1.89,1.89,0,0,0-1.32-.24,1.42,1.42,0,0,0-1,.64,1.44,1.44,0,0,0,0,1.44,8.25,8.25,0,0,0,2,2.44,16.74,16.74,0,0,1,2.52,2.6,11.41,11.41,0,0,1,1.4,3.18,6.73,6.73,0,0,1,.16,3.06,4,4,0,0,1-1.56,2.48,5.67,5.67,0,0,1-3.44.92,8.39,8.39,0,0,1-3.12-.4A3.78,3.78,0,0,1,70.74,87a16.62,16.62,0,0,1-1.16-1.48,8.19,8.19,0,0,1-.88-1.6,1.88,1.88,0,0,1-.12-1.44.9.9,0,0,1,.32-.32,2.63,2.63,0,0,1,.44-.16l.28-.1.24-.1.12,0,.36-.32q.4-.36.72-.16a.7.7,0,0,1,.28.28,3.57,3.57,0,0,1,.2.36,7,7,0,0,0,.44.84A2.67,2.67,0,0,0,74,84a1.65,1.65,0,0,0,1.24-.42,1.57,1.57,0,0,0,.68-1.14,3,3,0,0,0-.76-1.72q-.32-.4-1.08-1.26t-.92-1.06q-3-3.56-3-6.76a4,4,0,0,1,.64-2.18,4.87,4.87,0,0,1,1.64-1.62,5.25,5.25,0,0,1,3.8-.76,4.63,4.63,0,0,1,2.56,1.72A7.18,7.18,0,0,1,80,71.29a3.2,3.2,0,0,1,.12,1.08,1.1,1.1,0,0,1-.24.8.61.61,0,0,1-.32.16,1,1,0,0,1-.32,0c-.21,0-.48,0-.8,0l-.8,0-.52,0a.25.25,0,0,1-.28-.28.27.27,0,0,1,.08-.2A1.48,1.48,0,0,0,76.22,71.69Zm-7,12a6.34,6.34,0,0,0,.84,1.52,8.59,8.59,0,0,0,1.12,1.4,3.72,3.72,0,0,0,.88.76,8.58,8.58,0,0,0,2.88.32q3.84,0,4.44-3a6.46,6.46,0,0,0-.16-2.82,10.36,10.36,0,0,0-1.32-3,18.67,18.67,0,0,0-2.4-2.52,9.49,9.49,0,0,1-2.24-2.6,2.09,2.09,0,0,1,.12-2,2,2,0,0,1,1.44-.88,2.43,2.43,0,0,1,1.72.32,2,2,0,0,1,1,1.52h.2l.8.08h.72a.56.56,0,0,0,.24,0h0a.74.74,0,0,0,.08-.4,2.33,2.33,0,0,0-.12-.92,6.24,6.24,0,0,0-1.12-2.32,3.87,3.87,0,0,0-2.24-1.52,4.34,4.34,0,0,0-3.36.68,4.08,4.08,0,0,0-1.48,1.42,3.54,3.54,0,0,0-.56,1.9q0,3,2.92,6.4l.92,1.08q.76.88,1.08,1.28a3.23,3.23,0,0,1,.88,2.12A2.11,2.11,0,0,1,75.58,84a2.24,2.24,0,0,1-1.64.56A3.17,3.17,0,0,1,71.54,83a7.43,7.43,0,0,1-.52-.92,1.8,1.8,0,0,0-.16-.32.11.11,0,0,1,0-.08l-.12.08a4.06,4.06,0,0,1-.48.4.43.43,0,0,1-.16.08l-.28.1-.24.1a1.54,1.54,0,0,0-.36.16l-.12,0A1.4,1.4,0,0,0,69.22,83.64Z"/><path d="M88.58,78.77l-.32,0a1.3,1.3,0,0,1-.4.08q-.4.12-.44.22a2,2,0,0,0-.08.38q0,.28,0,.72a11.46,11.46,0,0,0,.36,1.92A8.8,8.8,0,0,0,88.46,84q.4.72.72.76a2.71,2.71,0,0,0,2.28-.66,4.31,4.31,0,0,0,1.36-2.26,1.14,1.14,0,0,0,0-.44,1,1,0,0,1,.2-.68.64.64,0,0,1,.36-.16,1.5,1.5,0,0,1,.36,0,5.44,5.44,0,0,1,1,.1,9.17,9.17,0,0,1,.94.22,1.58,1.58,0,0,1,.36.16.47.47,0,0,1,.28.28,2.21,2.21,0,0,1,.08,1.36,7.85,7.85,0,0,1-.32,1.2,6.63,6.63,0,0,1-1.8,2.6,8.25,8.25,0,0,1-2.72,1.66,7.07,7.07,0,0,1-3.14.38,6.41,6.41,0,0,1-3-1.08q-2-1.4-2.44-5.2a17.59,17.59,0,0,1,.84-7.24A12.43,12.43,0,0,1,87.46,69a6,6,0,0,1,6.24-1,3.29,3.29,0,0,1,1.6,1.8,10.54,10.54,0,0,1,.84,2.8,14.79,14.79,0,0,1,.2,2.76,3.31,3.31,0,0,1-.2,1,.89.89,0,0,1-.42.66,10.22,10.22,0,0,1-1.46.42L91.94,78q-2.08.44-3.2.6A.61.61,0,0,1,88.58,78.77Zm3.24-1.24q1.32-.28,2.32-.56a8.2,8.2,0,0,0,1.32-.36c.05,0,.11-.13.16-.32a3.25,3.25,0,0,0,.16-.88,13.11,13.11,0,0,0-.2-2.6,10.31,10.31,0,0,0-.8-2.68,2.46,2.46,0,0,0-1.32-1.48,5.35,5.35,0,0,0-5.64.84,11.83,11.83,0,0,0-3.48,5.64,17.77,17.77,0,0,0-.8,7q.36,3.52,2.2,4.76a6.34,6.34,0,0,0,3.74,1,7,7,0,0,0,3.66-1.28,6.25,6.25,0,0,0,2.4-3,4.39,4.39,0,0,0,.32-1.12,2.2,2.2,0,0,0,0-1,0,0,0,0,1,0,0l-.28-.08a7.18,7.18,0,0,0-.86-.22,4.58,4.58,0,0,0-.9-.1.9.9,0,0,0-.28,0h0a.69.69,0,0,0,0,.28,2.88,2.88,0,0,1,0,.6A5.31,5.31,0,0,1,91.8,84.5a3.14,3.14,0,0,1-2.7.78q-.6-.12-1.16-1.08a9.7,9.7,0,0,1-.72-1.92,10.16,10.16,0,0,1-.4-2q0-.48,0-.8a1.47,1.47,0,0,1,.16-.6,1.15,1.15,0,0,1,.8-.48.28.28,0,0,1,.28-.2A29.43,29.43,0,0,0,91.82,77.53Zm-3.36-4.42a5,5,0,0,1,1.2-1.5A2.21,2.21,0,0,1,91.34,71a1.87,1.87,0,0,1,1.4,1.44l.16.64a3,3,0,0,1,.12.36.81.81,0,0,1,0,.36.52.52,0,0,1-.12.2l0,0-.2.08a2,2,0,0,1-.48.24q-.56.24-1.4.56l-1.48.48a3.62,3.62,0,0,1-.52.16.44.44,0,0,0-.2,0h-.2a.49.49,0,0,1-.32-.36.17.17,0,0,0,0-.12v-.08a.26.26,0,0,1,0-.28A3.26,3.26,0,0,1,88.46,73.11Zm4,.5c0-.11-.05-.23-.08-.36s-.12-.39-.2-.6q-.28-.92-.92-1a1.73,1.73,0,0,0-1.26.46,3.9,3.9,0,0,0-1.12,1.4A2.3,2.3,0,0,0,88.62,75v0l.52-.12q.6-.2,1.44-.52t1.4-.52l.44-.2,0,0Z"/><path d="M103.9,87.72a.27.27,0,0,1-.08.2.26.26,0,0,1,.16.24.25.25,0,0,1-.28.28l-.72,0c-.51,0-.87.05-1.08.08q-.64,0-1,0a1.51,1.51,0,0,1-.44-.12.48.48,0,0,1-.32-.28.23.23,0,0,1,0-.16.54.54,0,0,1,0-.24,4,4,0,0,1,0-.64q0-.8,0-2.2,0-2.52,0-6.52.08-9.24.28-10.56a.25.25,0,0,1,.32-.24.16.16,0,0,1,.16.12q.52-.12,1.08-.2a5.09,5.09,0,0,1,.8-.08.64.64,0,0,1,.32,0,.43.43,0,0,1,.32.12l.08.12V71a6.37,6.37,0,0,1,.8-1.28,7.52,7.52,0,0,1,3.32-2.52,3.9,3.9,0,0,1,4.08.44,2.7,2.7,0,0,1,.72,1.12,12.24,12.24,0,0,1,.44,1.72,33.19,33.19,0,0,1,.44,4.6q.08,1.72.08,8.16v4.4a.31.31,0,0,0,0,.12v.12a.43.43,0,0,1-.08.12.5.5,0,0,1-.24.12h-1.16l-.24,0-.4.12-.44.08a.16.16,0,0,0-.12,0h-.12a.36.36,0,0,1-.16,0A.53.53,0,0,1,110,88a.31.31,0,0,0,0-.12v-.12q0-.88,0-3.32.16-3.4.16-4.48a35.13,35.13,0,0,0-.08-4.28,6.33,6.33,0,0,0-.6-2.64,2,2,0,0,0-1.52-.8q-1.28-.2-2.16,1.64a17.3,17.3,0,0,0-1.32,4.64,55.84,55.84,0,0,0-.6,8.2A.28.28,0,0,1,104,87l-.08.24v.16a.36.36,0,0,1,0,.16ZM102.62,68a4.31,4.31,0,0,0-.76.08,9.42,9.42,0,0,0-1.12.2q-.16,2.16-.24,10.12,0,3.88,0,6.52,0,1.4,0,2.16a3.66,3.66,0,0,0,0,.64v.2h.08a1.18,1.18,0,0,0,.28.08,8.9,8.9,0,0,0,1,0l1-.08a2.1,2.1,0,0,0,.48,0,.23.23,0,0,1-.08-.16v-.44a.35.35,0,0,1,0-.16A60,60,0,0,1,104,78.4a16.32,16.32,0,0,1,1.32-4.8q1.12-2.2,2.76-2a2.63,2.63,0,0,1,1.92,1,6.72,6.72,0,0,1,.68,2.92,35.48,35.48,0,0,1,.08,4.32q0,1.12-.16,4.48-.08,2.44,0,3.32v.12l.32-.08.4-.08.28-.08h1V83.28q0-6.4-.08-8.12a31.91,31.91,0,0,0-.44-4.56,8.15,8.15,0,0,0-.4-1.62,1.81,1.81,0,0,0-.52-.82,3.39,3.39,0,0,0-3.56-.4,7.06,7.06,0,0,0-3,2.32,6.52,6.52,0,0,0-1.2,2.28,4.57,4.57,0,0,0-.12.52v.52a.12.12,0,0,0,0,.08.24.24,0,0,1-.32.12l-.16-.12a.11.11,0,0,1,0-.08v-.6q0-1,0-2.44V68S102.67,67.94,102.62,68ZM112.74,87.6h0Z"/><path d="M118.5,72.37l-.56.24a3.76,3.76,0,0,0-.48.24.91.91,0,0,1-1.08-.2,3.39,3.39,0,0,1-.32-1.8v-.28a3.31,3.31,0,0,1,0-.4,1.21,1.21,0,0,1,.2-.88,1.28,1.28,0,0,1,.92-.36,5.39,5.39,0,0,1,1.08,0q.76.08,1,.08a1,1,0,0,0,.6-.2v0c0-.08.05-.17.08-.28v-1q0-.88-.16-2.76l-.2-2.76a5.67,5.67,0,0,1,0-1,1.23,1.23,0,0,1,0-.36.42.42,0,0,1,.16-.28.78.78,0,0,1,.56-.16,2.23,2.23,0,0,1,.72,0,5,5,0,0,1,1,.24.17.17,0,0,1,.12,0,.25.25,0,0,1,.28.28v4.64q0,1.76.08,2.8a7.79,7.79,0,0,0,0,.92.55.55,0,0,0,0,.24h0a1.21,1.21,0,0,0,.44,0q.32,0,1.24-.08t1.28-.08a2.16,2.16,0,0,1,.48,0,.76.76,0,0,1,.44.16.5.5,0,0,1,.12.24v.6a4.33,4.33,0,0,1,0,.44v.24l.08.64c0,.19.05.33.08.44a1.23,1.23,0,0,1,0,.36.73.73,0,0,1-.44.4,2.9,2.9,0,0,1-.6.12,13.54,13.54,0,0,1-1.48,0l-.72,0-.76,0h-.44a.36.36,0,0,1,0,.16,16.73,16.73,0,0,1,.2,2.92q0,.24.36,6.4.16,2.24.16,3.56a9.55,9.55,0,0,1-.16,2.24.75.75,0,0,1-.56.44,2.34,2.34,0,0,1-.68.16,2.74,2.74,0,0,1-1.32-.12.48.48,0,0,1-.28-.28l-.12-.44q-.08-.48-.16-1.28-.12-1.4-.2-3.8v-7q0-.4,0-.8a8.07,8.07,0,0,0,0-1q0-.84,0-1.32c0-.16-.05-.29-.08-.4a0,0,0,0,1,0,0A1.41,1.41,0,0,0,118.5,72.37ZM126,69.81a1.38,1.38,0,0,0-.4,0q-.32,0-1.24.08t-1.28.08a1.37,1.37,0,0,1-.48,0,1,1,0,0,1-.44-.16.46.46,0,0,1-.08-.16.17.17,0,0,1,0-.12,1.05,1.05,0,0,1,0-.32,8,8,0,0,1,0-.92q0-1-.08-2.84V61a6.71,6.71,0,0,0-1-.2,1.62,1.62,0,0,0-.6,0h-.24V61a5,5,0,0,0,0,.92l.2,2.76q.16,1.92.16,2.8v1c0,.13-.05.25-.08.36a.61.61,0,0,1-.16.32,1.44,1.44,0,0,1-1,.36q-.36,0-1.12-.08a4.28,4.28,0,0,0-1,0,.68.68,0,0,0-.56.2,1.33,1.33,0,0,0,0,.44c0,.08,0,.21,0,.38s0,.29,0,.34a2.64,2.64,0,0,0,.24,1.44c.05.11.19.12.4,0l.44-.2a3.69,3.69,0,0,1,.6-.28,2,2,0,0,1,1.36-.08.63.63,0,0,1,.32.4c0,.13.05.29.08.48a9.38,9.38,0,0,1,.08,1.36,8.52,8.52,0,0,1,0,1c0,.25,0,.51,0,.78v7q.08,2.36.2,3.72a6.18,6.18,0,0,0,.16,1.24,3,3,0,0,0,.08.32l0,0a3.39,3.39,0,0,0,1,0,2.91,2.91,0,0,0,.6-.12c.11,0,.16-.05.16-.08a8,8,0,0,0,.16-2.08q0-1.28-.16-3.52-.36-6.2-.36-6.44a15.84,15.84,0,0,0-.2-2.84v0a.45.45,0,0,1-.08-.12.42.42,0,0,1,.08-.44.39.39,0,0,1,.2-.16.55.55,0,0,1,.24,0h.52l.78,0,.7,0a12.74,12.74,0,0,0,1.44,0l.44-.08.08,0s0-.09,0-.18a2.77,2.77,0,0,1,0-.38q-.12-.64-.12-.72v-.28c0-.21,0-.35,0-.4v-.44Z"/><path class="cls-2" d="M49.92,20a4.23,4.23,0,0,0,.55,0,1.6,1.6,0,0,1,0-.35,1.5,1.5,0,1,1,1.5,1.5,1.41,1.41,0,0,1-.34,0l-.06.25a13,13,0,0,1-2,4.77,10.11,10.11,0,0,1-5.16,3.52l-1.12-1.22a8.64,8.64,0,0,0,5.08-3.09,9.1,9.1,0,0,0,1.63-4H43.61c-.56,0-1.08,0-1.4,0V19.94a11.62,11.62,0,0,0,1.4.09Zm2.82-.38a.81.81,0,0,0-1.62,0,.81.81,0,0,0,1.63,0Z"/><path class="cls-2" d="M56.39,28.62a1.43,1.43,0,0,0,.14-.73V20.63a7.65,7.65,0,0,0-.12-1.31H58a8.43,8.43,0,0,0-.12,1.3v7.11a14.42,14.42,0,0,0,6.93-4.37l.74,1.14A15.6,15.6,0,0,1,58,29.17a2.26,2.26,0,0,0-.65.27Z"/><path class="cls-2" d="M71.67,22.3c2.08-.39,4.15-.82,4.72-.95a3.77,3.77,0,0,0,.79-.26l1,.75a6.73,6.73,0,0,0-.38.6,19.18,19.18,0,0,1-2.67,3.8L74,25.57a12.26,12.26,0,0,0,2.21-2.9l-4.52.91v3.68c0,.86.29,1.14,1.78,1.14a20.52,20.52,0,0,0,4.08-.4l-.05,1.4a30,30,0,0,1-4.06.27c-2.65,0-3.09-.66-3.09-2.05V23.85c-1.25.25-2.35.48-2.89.6l-.25-1.35c.6-.08,1.79-.29,3.13-.53V20.5a8.91,8.91,0,0,0-.09-1.33h1.53a8.91,8.91,0,0,0-.1,1.33Zm5.16-1.55a15.59,15.59,0,0,0-1-1.79l.83-.35a18.86,18.86,0,0,1,1.05,1.78Zm1.27-2.7a16.64,16.64,0,0,1,1.08,1.77l-.84.38a13.05,13.05,0,0,0-1.07-1.79Z"/><path class="cls-2" d="M86.46,26.27A12.37,12.37,0,0,0,91,21.37l.79,1.42a13.4,13.4,0,0,1-4.56,4.71,14.32,14.32,0,0,1-5,1.94l-.87-1.34A13.5,13.5,0,0,0,86.46,26.27ZM86,22.11l-1,1.05a29.5,29.5,0,0,0-3.25-2.76l.95-1A26.41,26.41,0,0,1,86,22.11Z"/><path class="cls-2" d="M103.22,25.89a34.73,34.73,0,0,0-4.91-2v4a15.36,15.36,0,0,0,.1,1.66h-1.6a13.73,13.73,0,0,0,.1-1.66V20.37a9.39,9.39,0,0,0-.12-1.46h1.6c0,.43-.09,1-.09,1.46v2a45,45,0,0,1,5.5,2.08Z"/></g><g id="コンテンツ-2" data-name="コンテンツ"><path class="cls-2" d="M11.61,42.27a1.8,1.8,0,0,0-1.45,0A.8.8,0,1,0,11.61,42.27Z"/><path class="cls-2" d="M18.27,52.4c-.39,1.3,1.17,1.41,1.74.87C20.17,52.23,19.15,52.39,18.27,52.4Z"/><path class="cls-2" d="M1.19,53.55c-.15,1.33,1,1.17,1.74.87C3,53.53,2.06,53.56,1.19,53.55Z"/><path class="cls-2" d="M11.32,61.37c-.82-.24-.75.41-1.45.29-.36,1.64,1.64,1.27,1.74.29C11.39,61.88,11.28,61.7,11.32,61.37Z"/><path class="cls-2" d="M14.49,52a5.19,5.19,0,0,1-.77.2L13.34,52c-.91-.59-1.77-1.16-1.81-2.2l.08,0c-.55-1.38.46-2.85,0-4.05-.37,0-.4-.37-.87-.29-.52,1.12-.47,2.82-.87,4.05l0,.05a.4.4,0,0,0-.26.24,5.38,5.38,0,0,1-1.56,2A10.47,10.47,0,0,0,7,53a2.86,2.86,0,0,0-1.7.86c.71.23,1.12.76,2,.86a3.15,3.15,0,0,1,1.8,2v0a1.55,1.55,0,0,0,.27.6c0,.92-.29,2.21.87,2,.59-.28.62-1.11.58-2l-.1-.08,0,0a32.8,32.8,0,0,1,3.17-3.92,6,6,0,0,0,1-.24Zm-4.33,4.42h-.3a4,4,0,0,0-2.33-2.58l0,0v-.32a9.26,9.26,0,0,1,1.07-1.14,6.67,6.67,0,0,0,1.64-2c.17,0,.26-.17.4-.24a4.05,4.05,0,0,0,2.18,2.6l.22.15A33.93,33.93,0,0,0,10.16,56.45Z"/><path class="cls-2" d="M137.94,39.93a1.8,1.8,0,0,0-1.45,0A.8.8,0,1,0,137.94,39.93Z"/><path class="cls-2" d="M144.6,50.06c-.39,1.3,1.17,1.41,1.74.87C146.5,49.89,145.48,50,144.6,50.06Z"/><path class="cls-2" d="M127.52,51.22c-.15,1.33,1,1.17,1.74.87C129.29,51.19,128.39,51.22,127.52,51.22Z"/><path class="cls-2" d="M137.65,59c-.82-.24-.75.41-1.45.29-.36,1.64,1.64,1.27,1.74.29C137.72,59.54,137.6,59.37,137.65,59Z"/><path class="cls-2" d="M140.81,49.69a5.19,5.19,0,0,1-.77.2l-.38-.25c-.91-.59-1.77-1.16-1.81-2.2l.08,0c-.55-1.38.46-2.85,0-4.05-.37,0-.4-.37-.87-.29-.52,1.12-.47,2.82-.87,4.05l0,.05a.4.4,0,0,0-.26.24,5.38,5.38,0,0,1-1.56,2,10.47,10.47,0,0,0-1.12,1.19,2.86,2.86,0,0,0-1.7.86c.71.23,1.12.76,2,.86a3.15,3.15,0,0,1,1.8,2v0a1.55,1.55,0,0,0,.27.6c0,.92-.29,2.21.87,2,.59-.28.62-1.11.58-2l-.1-.08,0,0A32.8,32.8,0,0,1,140.17,51a6,6,0,0,0,1-.24Zm-4.33,4.42h-.3a4,4,0,0,0-2.33-2.58l0,0v-.32A9.26,9.26,0,0,1,135,50.05a6.67,6.67,0,0,0,1.64-2c.17,0,.26-.17.4-.24a4.05,4.05,0,0,0,2.18,2.6l.22.15A33.93,33.93,0,0,0,136.49,54.11Z"/><path class="cls-1" d="M53.14,54.68a.79.79,0,0,1-.6-1.31,32.44,32.44,0,0,0,4.81-8.56.79.79,0,0,1,1.46.62,33.77,33.77,0,0,1-5.06,9,.79.79,0,0,1-.6.28Z"/><path class="cls-1" d="M58.08,45.93a.81.81,0,0,1-.81-.72,9.76,9.76,0,0,1,.09-2.39c.05-.42.11-.85.12-1.27a.81.81,0,1,1,1.63.05c0,.48-.07,1-.13,1.42a8.41,8.41,0,0,0-.09,2,.81.81,0,0,1-.71.9Z"/><path class="cls-1" d="M68.25,46.48A86.63,86.63,0,0,1,58,45.86a.74.74,0,1,1,.18-1.48c9.69,1.15,18.25.71,29.57-1.49s27.75-9.56,26.34-20.73c-.38-3-3-7.5-7.87-10.81-11.29-7.63-26.33-8.85-37-8.54-10,.29-28,5.73-34.53,14.79a12,12,0,0,0-2,11c2.67,9,12.38,12.74,20.06,14.33a.74.74,0,0,1-.3,1.46C40.89,41.94,33.56,36.63,31.28,29a13.46,13.46,0,0,1,2.22-12.25C40.42,7.16,58.68,1.63,69.2,1.32,80,1,95.42,2.26,107,10.11c5.66,3.82,8.12,8.78,8.51,11.86C117,33.39,102.29,41.57,88,44.35a101.63,101.63,0,0,1-19.77,2.13Z"/></g></svg>