<?xml version="1.0" encoding="utf-8"?>
<!-- Generator: Adobe Illustrator 21.0.0, SVG Export Plug-In . SVG Version: 6.00 Build 0)  -->
<svg version="1.1" id="レイヤー_1" xmlns="http://www.w3.org/2000/svg" xmlns:xlink="http://www.w3.org/1999/xlink" x="0px"
	 y="0px" viewBox="0 0 360 90" style="enable-background:new 0 0 360 90;" xml:space="preserve">
<style type="text/css">
	.st0{fill:#231F20;}
	.st1{fill:#0071B2;}
	.st2{fill:none;stroke:#231F20;stroke-width:5;stroke-linejoin:round;}
</style>
<g>
	<g>
		<g>
			<path class="st0" d="M41.4,19.1H29.9l-7.5,28h-8.8l7.5-28H9.9l2.4-8.8h31.4L41.4,19.1z"/>
			<path class="st0" d="M56.8,35.5c-0.9,3.4-2.7,6.2-5.4,8.3C48.7,46,45.6,47,42.2,47H29.7l2.4-8.9h11.5c1,0,2-0.3,2.8-1
				c0.9-0.7,1.5-1.5,1.7-2.5l6.5-24.3h8.9L56.8,35.5z"/>
			<path class="st0" d="M92.6,34.9c-1.2,4.3-2.6,7.3-4.5,9c-1.8,1.7-4.4,2.5-7.6,2.5h-3.9l1.9-7h4c1.3,0,2.3-0.3,3-1.1
				c0.7-0.7,1.3-1.9,1.7-3.5l3.6-13.4h-9.3c-1.7,6.3-4.3,11.7-7.9,16.1c-3.4,4.2-7.3,7.2-12,9.2l2.1-7.9c2.7-1.3,5.1-3.3,7.1-6
				c2.2-3,3.9-6.8,5.1-11.4h-7.6l1.9-7h7.6l1.1-3.9h5.5l-1.1,3.9h14.7L92.6,34.9z"/>
			<path class="st0" d="M119.6,46.2H93.6l1.9-7.1h20.6l5.3-19.8h-20.6l1.9-7h19.7l-1.6,5.9h6.3L119.6,46.2z M125.4,16.5h-2.8
				l1.8-6.8h2.8L125.4,16.5z M129.6,16.5h-2.8l1.8-6.8h2.8L129.6,16.5z"/>
			<path class="st0" d="M159,20.2c-1.4,5.1-3,9.3-4.9,12.8c-2.3,4.3-5.1,7.5-8.3,9.7c-3.7,2.5-8,3.8-13,3.8h-8.2l1.9-7.1h9
				c5,0,9.1-2,12.1-5.9c2.4-3.1,4.5-7.8,6.2-14.2l0.9-3.4h5.5L159,20.2z M143.1,29.2h-13.8l1.7-6.3h13.8L143.1,29.2z M146.1,18.1
				h-13.8l1.7-6.3h13.8L146.1,18.1z"/>
			<path class="st0" d="M190.5,21.3c-1.3,4.9-3.6,9-6.8,12.3c-3.2,3.3-6.9,5.4-11.2,6.2l0.9,6.8h-6.3l-2.3-20.5h6l0.9,7
				c3.1,0,5.8-1,8.1-3.1c2.3-2.1,3.9-5,5-8.9l0.8-2.9H163l1.9-7h28.3L190.5,21.3z"/>
			<path class="st0" d="M221.6,24.6l-1.2,4.7h-13.5L202,47.2h-4.7l0.4-1.4c-1.9,0.4-5.5,0.7-10.8,0.7l1.2-4.3l0.9,0l3.4-12.9h-0.9
				l1.2-4.7H221.6z M193.6,42.1c2.1,0,3.8-0.1,5.1-0.4l0.5-1.8h-5L193.6,42.1z M224.2,10.7L220.9,23h-26.6l3.3-12.3H224.2z
				 M195,36.7h5l0.6-2.1h-5L195,36.7z M196.5,31.5h5l0.6-2.2h-5L196.5,31.5z M199.9,20h17l0.4-1.6h-17L199.9,20z M201.2,15.2h17
				l0.4-1.6h-17L201.2,15.2z M219.1,31l-1,3.7c-0.4,1.3-0.9,2.6-1.6,3.7c-0.7,1.1-1.5,2.2-2.5,3.3c0.6,0.2,1,0.3,1.4,0.3
				c0.4,0.1,0.9,0.1,1.4,0.1l-1.4,5.1c-1.2,0-2.3-0.2-3.3-0.5c-1-0.3-2-0.8-2.8-1.4c-1.1,0.6-2.2,1.1-3.3,1.4
				c-1.1,0.3-2.1,0.5-3.1,0.5l1.3-4.7c0.6-0.1,1.1-0.2,1.5-0.3c0.4-0.1,0.7-0.2,0.9-0.3c-0.6-1.5-0.9-3.2-0.8-5.2h4.3
				c0,1.1,0.3,1.9,0.8,2.6c0.6-0.6,1.1-1.2,1.6-1.8c0.4-0.6,0.8-1.4,1.1-2.2h-7.4l1.1-4.3H219.1z"/>
			<path class="st0" d="M238.2,10.1l-0.5,1.8h4.7l-1.4,5.3h-1.2l-1.8,4.4h1.8l-1.4,5.3h-4.7l-0.7,2.5h4.7l-1.5,5.5h-3.8
				c0.1,1.1,0.4,2.2,0.8,3.1c0.4,0.9,0.9,1.5,1.6,1.9l-2,7.3c-0.8-0.5-1.4-1.2-2-2.1c-0.6-0.9-1-1.9-1.4-3l-1.4,5.1h-4.9l1.4-5.2
				c-0.9,1.2-1.9,2.2-3,3.1c-1,0.9-2.1,1.6-3.2,2.1l2-7.3c0.9-0.4,1.7-1,2.6-1.9c0.9-0.9,1.7-1.9,2.5-3.1h-3.8l1.5-5.5h4.8l0.7-2.5
				h-4.8l1.4-5.3h2.3c0.3-1.5,0.4-2.9,0.5-4.4h-1.6l1.4-5.3h4.8l0.5-1.8H238.2z M234,21.6l1.7-4.4h-3.3c-0.1,0.9-0.1,1.7-0.2,2.4
				c-0.1,0.7-0.2,1.3-0.4,2H234z M256.7,10.1l-1.6,5.8c-0.9,0.3-2,0.6-3.3,0.8c-1.3,0.2-2.9,0.3-4.8,0.3l-1.1,4.2h8.5l-1.6,5.8h-2.1
				l-5.4,20.2h-4.2l5.4-20.2h-2.3l-0.8,2.9c-1.2,4.5-2.6,8.1-4,10.7c-1.5,2.6-3.4,4.8-5.8,6.6l2.4-9.1c0.7-1,1.2-2,1.6-3
				c0.4-1,0.9-2.8,1.5-5.2l5-18.7h1.8c2.6,0,4.7,0,6.2-0.1C253.9,11,255.3,10.7,256.7,10.1z"/>
			<path class="st0" d="M285.1,25.9l-1.4,5.3h-21.4l-1,2.2h21l-1.8,6.8c-0.5,1.9-1.4,3.5-2.7,4.7c-1.3,1.2-2.7,1.9-4.4,1.9h-17.4
				l1.5-5.5h16.3c0.4,0,0.8-0.2,1.2-0.5c0.4-0.4,0.6-0.8,0.7-1.3l0.3-1.1H254l3.4-7.1h-2.5l1.4-5.3H285.1z M288.4,10.7l-3.5,13
				h-27.3l3.5-13H288.4z M263.9,18.9h17.3l0.9-3.5h-17.3L263.9,18.9z"/>
			<path class="st0" d="M289.4,35.5c-0.7,2.5-1.3,4.7-1.9,6.6c-0.6,1.9-1.2,3.5-1.7,4.7h-3.4c0.4-1,0.9-2.4,1.6-4.4
				c0.6-2,1.3-4.3,2-6.9H289.4z M301.4,10.1l-7,7.2h2.5l2-2.2h4.7l-11,12.2h2c0.7,0,1.3-0.1,1.9-0.3l0.8-3.9h3.6l-2.1,10.9h-3.6
				l0.3-1.6c-0.2,0.1-0.3,0.2-0.4,0.2c-0.2,0.1-0.3,0.1-0.3,0.1l-3.9,14.6h-4.1l3.9-14.5h-4.4l1.5-5.6l4.5-4.8h-3.2l1.6-6.1l5.8-6.1
				H301.4z M297.9,35.5l-2.5,11.3h-3.4l2.6-11.3H297.9z M315.1,30.4l-4.4,16.3h-14.3l4.4-16.3H315.1z M305.8,10.7h14.6L317,23
				c-0.4,1.6-1.1,2.9-2.1,3.9c-1,1-2.1,1.5-3.4,1.5h-4.3l1.5-5.7h2.4c0.4,0,0.8-0.2,1.1-0.5c0.3-0.3,0.5-0.7,0.7-1.3l1.2-4.5h-2.4
				c-1.2,3.2-2.6,5.8-4.3,7.9c-1.9,2.3-4.1,3.9-6.6,4.6l1.8-6.7c2-0.9,3.6-2.8,4.7-5.8h-3.1L305.8,10.7z M302.6,41.2h4.9l1.4-5.2
				H304L302.6,41.2z"/>
			<path class="st0" d="M330.3,25.6l-1.4,5.2c-1.2,4.3-3,7.9-5.5,10.8c-2.7,3.1-5.8,4.9-9.4,5.6l2-7.6c1.7-0.3,3.3-1.3,4.6-2.9
				c1.3-1.5,2.2-3.1,2.7-5l1.7-6.2H330.3z M335.5,10.1h5.6c0.2,2.5,1.2,4.7,2.8,6.6c1.6,1.9,3.7,3.1,6.1,3.6l-1.8,6.6
				c-2.8-0.6-5.3-1.8-7.4-3.8c-1.9-1.9-3.3-4.2-4.2-7.1c-2.3,2.8-5,5.2-8.1,7.2c-3,1.9-6.1,3.2-9.3,3.8l1.8-6.6
				c2.7-0.5,5.4-1.7,8-3.5C331.8,14.8,333.9,12.6,335.5,10.1z M343.3,25.6l-5.8,21.6h-5.3l5.8-21.6H343.3z"/>
		</g>
		<g>
			<path class="st1" d="M41.4,19.1H29.9l-7.5,28h-8.8l7.5-28H9.9l2.4-8.8h31.4L41.4,19.1z"/>
			<path class="st1" d="M56.8,35.5c-0.9,3.4-2.7,6.2-5.4,8.3C48.7,46,45.6,47,42.2,47H29.7l2.4-8.9h11.5c1,0,2-0.3,2.8-1
				c0.9-0.7,1.5-1.5,1.7-2.5l6.5-24.3h8.9L56.8,35.5z"/>
			<path class="st1" d="M92.6,34.9c-1.2,4.3-2.6,7.3-4.5,9c-1.8,1.7-4.4,2.5-7.6,2.5h-3.9l1.9-7h4c1.3,0,2.3-0.3,3-1.1
				c0.7-0.7,1.3-1.9,1.7-3.5l3.6-13.4h-9.3c-1.7,6.3-4.3,11.7-7.9,16.1c-3.4,4.2-7.3,7.2-12,9.2l2.1-7.9c2.7-1.3,5.1-3.3,7.1-6
				c2.2-3,3.9-6.8,5.1-11.4h-7.6l1.9-7h7.6l1.1-3.9h5.5l-1.1,3.9h14.7L92.6,34.9z"/>
			<path class="st1" d="M119.6,46.2H93.6l1.9-7.1h20.6l5.3-19.8h-20.6l1.9-7h19.7l-1.6,5.9h6.3L119.6,46.2z M125.4,16.5h-2.8
				l1.8-6.8h2.8L125.4,16.5z M129.6,16.5h-2.8l1.8-6.8h2.8L129.6,16.5z"/>
			<path class="st1" d="M159,20.2c-1.4,5.1-3,9.3-4.9,12.8c-2.3,4.3-5.1,7.5-8.3,9.7c-3.7,2.5-8,3.8-13,3.8h-8.2l1.9-7.1h9
				c5,0,9.1-2,12.1-5.9c2.4-3.1,4.5-7.8,6.2-14.2l0.9-3.4h5.5L159,20.2z M143.1,29.2h-13.8l1.7-6.3h13.8L143.1,29.2z M146.1,18.1
				h-13.8l1.7-6.3h13.8L146.1,18.1z"/>
			<path class="st1" d="M190.5,21.3c-1.3,4.9-3.6,9-6.8,12.3c-3.2,3.3-6.9,5.4-11.2,6.2l0.9,6.8h-6.3l-2.3-20.5h6l0.9,7
				c3.1,0,5.8-1,8.1-3.1c2.3-2.1,3.9-5,5-8.9l0.8-2.9H163l1.9-7h28.3L190.5,21.3z"/>
			<path class="st1" d="M221.6,24.6l-1.2,4.7h-13.5L202,47.2h-4.7l0.4-1.4c-1.9,0.4-5.5,0.7-10.8,0.7l1.2-4.3l0.9,0l3.4-12.9h-0.9
				l1.2-4.7H221.6z M193.6,42.1c2.1,0,3.8-0.1,5.1-0.4l0.5-1.8h-5L193.6,42.1z M224.2,10.7L220.9,23h-26.6l3.3-12.3H224.2z
				 M195,36.7h5l0.6-2.1h-5L195,36.7z M196.5,31.5h5l0.6-2.2h-5L196.5,31.5z M199.9,20h17l0.4-1.6h-17L199.9,20z M201.2,15.2h17
				l0.4-1.6h-17L201.2,15.2z M219.1,31l-1,3.7c-0.4,1.3-0.9,2.6-1.6,3.7c-0.7,1.1-1.5,2.2-2.5,3.3c0.6,0.2,1,0.3,1.4,0.3
				c0.4,0.1,0.9,0.1,1.4,0.1l-1.4,5.1c-1.2,0-2.3-0.2-3.3-0.5c-1-0.3-2-0.8-2.8-1.4c-1.1,0.6-2.2,1.1-3.3,1.4
				c-1.1,0.3-2.1,0.5-3.1,0.5l1.3-4.7c0.6-0.1,1.1-0.2,1.5-0.3c0.4-0.1,0.7-0.2,0.9-0.3c-0.6-1.5-0.9-3.2-0.8-5.2h4.3
				c0,1.1,0.3,1.9,0.8,2.6c0.6-0.6,1.1-1.2,1.6-1.8c0.4-0.6,0.8-1.4,1.1-2.2h-7.4l1.1-4.3H219.1z"/>
			<path class="st1" d="M238.2,10.1l-0.5,1.8h4.7l-1.4,5.3h-1.2l-1.8,4.4h1.8l-1.4,5.3h-4.7l-0.7,2.5h4.7l-1.5,5.5h-3.8
				c0.1,1.1,0.4,2.2,0.8,3.1c0.4,0.9,0.9,1.5,1.6,1.9l-2,7.3c-0.8-0.5-1.4-1.2-2-2.1c-0.6-0.9-1-1.9-1.4-3l-1.4,5.1h-4.9l1.4-5.2
				c-0.9,1.2-1.9,2.2-3,3.1c-1,0.9-2.1,1.6-3.2,2.1l2-7.3c0.9-0.4,1.7-1,2.6-1.9c0.9-0.9,1.7-1.9,2.5-3.1h-3.8l1.5-5.5h4.8l0.7-2.5
				h-4.8l1.4-5.3h2.3c0.3-1.5,0.4-2.9,0.5-4.4h-1.6l1.4-5.3h4.8l0.5-1.8H238.2z M234,21.6l1.7-4.4h-3.3c-0.1,0.9-0.1,1.7-0.2,2.4
				c-0.1,0.7-0.2,1.3-0.4,2H234z M256.7,10.1l-1.6,5.8c-0.9,0.3-2,0.6-3.3,0.8c-1.3,0.2-2.9,0.3-4.8,0.3l-1.1,4.2h8.5l-1.6,5.8h-2.1
				l-5.4,20.2h-4.2l5.4-20.2h-2.3l-0.8,2.9c-1.2,4.5-2.6,8.1-4,10.7c-1.5,2.6-3.4,4.8-5.8,6.6l2.4-9.1c0.7-1,1.2-2,1.6-3
				c0.4-1,0.9-2.8,1.5-5.2l5-18.7h1.8c2.6,0,4.7,0,6.2-0.1C253.9,11,255.3,10.7,256.7,10.1z"/>
			<path class="st1" d="M285.1,25.9l-1.4,5.3h-21.4l-1,2.2h21l-1.8,6.8c-0.5,1.9-1.4,3.5-2.7,4.7c-1.3,1.2-2.7,1.9-4.4,1.9h-17.4
				l1.5-5.5h16.3c0.4,0,0.8-0.2,1.2-0.5c0.4-0.4,0.6-0.8,0.7-1.3l0.3-1.1H254l3.4-7.1h-2.5l1.4-5.3H285.1z M288.4,10.7l-3.5,13
				h-27.3l3.5-13H288.4z M263.9,18.9h17.3l0.9-3.5h-17.3L263.9,18.9z"/>
			<path class="st1" d="M289.4,35.5c-0.7,2.5-1.3,4.7-1.9,6.6c-0.6,1.9-1.2,3.5-1.7,4.7h-3.4c0.4-1,0.9-2.4,1.6-4.4
				c0.6-2,1.3-4.3,2-6.9H289.4z M301.4,10.1l-7,7.2h2.5l2-2.2h4.7l-11,12.2h2c0.7,0,1.3-0.1,1.9-0.3l0.8-3.9h3.6l-2.1,10.9h-3.6
				l0.3-1.6c-0.2,0.1-0.3,0.2-0.4,0.2c-0.2,0.1-0.3,0.1-0.3,0.1l-3.9,14.6h-4.1l3.9-14.5h-4.4l1.5-5.6l4.5-4.8h-3.2l1.6-6.1l5.8-6.1
				H301.4z M297.9,35.5l-2.5,11.3h-3.4l2.6-11.3H297.9z M315.1,30.4l-4.4,16.3h-14.3l4.4-16.3H315.1z M305.8,10.7h14.6L317,23
				c-0.4,1.6-1.1,2.9-2.1,3.9c-1,1-2.1,1.5-3.4,1.5h-4.3l1.5-5.7h2.4c0.4,0,0.8-0.2,1.1-0.5c0.3-0.3,0.5-0.7,0.7-1.3l1.2-4.5h-2.4
				c-1.2,3.2-2.6,5.8-4.3,7.9c-1.9,2.3-4.1,3.9-6.6,4.6l1.8-6.7c2-0.9,3.6-2.8,4.7-5.8h-3.1L305.8,10.7z M302.6,41.2h4.9l1.4-5.2
				H304L302.6,41.2z"/>
			<path class="st1" d="M330.3,25.6l-1.4,5.2c-1.2,4.3-3,7.9-5.5,10.8c-2.7,3.1-5.8,4.9-9.4,5.6l2-7.6c1.7-0.3,3.3-1.3,4.6-2.9
				c1.3-1.5,2.2-3.1,2.7-5l1.7-6.2H330.3z M335.5,10.1h5.6c0.2,2.5,1.2,4.7,2.8,6.6c1.6,1.9,3.7,3.1,6.1,3.6l-1.8,6.6
				c-2.8-0.6-5.3-1.8-7.4-3.8c-1.9-1.9-3.3-4.2-4.2-7.1c-2.3,2.8-5,5.2-8.1,7.2c-3,1.9-6.1,3.2-9.3,3.8l1.8-6.6
				c2.7-0.5,5.4-1.7,8-3.5C331.8,14.8,333.9,12.6,335.5,10.1z M343.3,25.6l-5.8,21.6h-5.3l5.8-21.6H343.3z"/>
		</g>
	</g>
	<g>
		<g>
			<g>
				<path class="st0" d="M86.8,80.3h-9.5c-1.8,0-3.2-0.6-4-1.7c-0.8-1.1-1-2.6-0.5-4.4l2-7.3c0.5-1.8,1.4-3.3,2.9-4.4
					c1.4-1.1,3-1.7,4.9-1.7H92l-1.3,4.9h-8.9c-1.1,0-1.8,0.6-2.1,1.6L78,73.7c-0.3,1.1,0.1,1.7,1.2,1.7h8.9L86.8,80.3z"/>
				<path class="st0" d="M104.9,74.4c-0.5,1.9-1.4,3.4-2.8,4.4c-1.3,1.1-2.9,1.6-4.8,1.6h-2.1c-1.9,0-3.2-0.5-4-1.6
					c-0.8-1.1-0.9-2.5-0.4-4.4l2.3-8.5h4.6l-2.1,8c-0.2,0.7-0.2,1.2,0.1,1.6c0.3,0.3,0.7,0.5,1.4,0.5h0.9c1.3,0,2.2-0.7,2.6-2l2.1-8
					h4.6L104.9,74.4z"/>
				<path class="st0" d="M118.3,70.5h-2.7c-0.7,0-1.4,0.2-2,0.7c-0.6,0.5-0.9,1.1-1.1,1.8l-2,7.3h-4.8l2.2-8.3
					c0.5-1.9,1.5-3.5,2.9-4.6c1.4-1.1,3.1-1.7,5.1-1.7h3.5L118.3,70.5z"/>
				<path class="st0" d="M130,70.5h-2.7c-0.7,0-1.4,0.2-2,0.7c-0.6,0.5-0.9,1.1-1.1,1.8l-2,7.3h-4.8l2.2-8.3
					c0.5-1.9,1.5-3.5,2.9-4.6c1.4-1.1,3.1-1.7,5.1-1.7h3.5L130,70.5z"/>
				<path class="st0" d="M145.7,71c-0.3,1.3-1,2.2-1.9,2.9c-0.9,0.7-2,1.1-3.2,1.1h-5.1l-0.1,0.4c-0.1,0.5,0,0.8,0.3,0.8h7.7
					l-1.1,4.2h-8.7c-1.3,0-2.2-0.4-2.8-1.1c-0.6-0.7-0.7-1.7-0.4-3l1.6-6.1c0.3-1.3,1-2.3,2-3.1c1-0.8,2.1-1.2,3.4-1.2h5.6
					c1.2,0,2.1,0.3,2.7,1c0.5,0.7,0.6,1.7,0.3,2.9L145.7,71z M141,71l0.1-0.5c0.1-0.3,0-0.5-0.4-0.5h-3.3c-0.4,0-0.6,0.2-0.7,0.6
					l-0.2,0.9h3.9C140.7,71.5,140.9,71.4,141,71z"/>
				<path class="st0" d="M159.8,80.3h-4.7l2.2-8.2c0.1-0.5,0.1-1,0-1.2c-0.2-0.3-0.6-0.4-1.2-0.4h-3l-2.6,9.9h-4.7l3.9-14.5h8.9
					c1.6,0,2.8,0.5,3.4,1.5c0.7,1,0.8,2.2,0.4,3.8L159.8,80.3z"/>
				<path class="st0" d="M176.5,70.4H173l-2.6,9.9h-4.9l2.6-9.9h-3.7l1.2-4.6h3.7l1.3-4.9h4.9l-1.3,4.9h3.5L176.5,70.4z"/>
				<path class="st0" d="M200.5,80.3h-5L198,71l-5.2-4l-3.6,13.3h-5l5.2-19.4h5l-0.1,0.2l5.2,4l1.1-4.3h5L200.5,80.3z"/>
				<path class="st0" d="M219.1,74.4c-0.5,1.9-1.4,3.4-2.8,4.4c-1.3,1.1-2.9,1.6-4.8,1.6h-2.1c-1.9,0-3.2-0.5-4-1.6
					c-0.8-1.1-0.9-2.5-0.4-4.4l2.3-8.5h4.6l-2.1,8c-0.2,0.7-0.2,1.2,0.1,1.6c0.3,0.3,0.7,0.5,1.4,0.5h0.9c1.3,0,2.2-0.7,2.6-2l2.1-8
					h4.6L219.1,74.4z"/>
				<path class="st0" d="M238.4,80.3h-4.6l2.4-8.9c0.2-0.8,0-1.1-0.7-1.1h-1.4l-2.7,10h-4.3l2.7-10h-2.4l-2.7,10h-4.5l3.9-14.5h13.2
					c1.6,0,2.7,0.4,3.4,1.3c0.6,0.8,0.7,2,0.3,3.6L238.4,80.3z"/>
				<path class="st0" d="M255.8,76.1c-0.4,1.3-1,2.3-2.1,3.1c-1,0.7-2.2,1.1-3.6,1.1h-4.2c-1.4,0-2.5-0.4-3.1-1.1
					c-0.6-0.7-0.7-1.8-0.3-3.1l4.1-15.2h4.7l-1.3,4.9h4.4c1.3,0,2.2,0.4,2.8,1.1c0.5,0.7,0.6,1.7,0.3,3L255.8,76.1z M251.4,74.6
					l0.8-2.9c0.2-0.7-0.1-1-0.9-1h-2.5l-1.1,4c-0.1,0.3,0,0.6,0.1,0.8c0.1,0.2,0.4,0.3,0.7,0.3h1.6c0.3,0,0.6-0.1,0.8-0.3
					C251.1,75.3,251.3,75,251.4,74.6z"/>
				<path class="st0" d="M273.5,71c-0.3,1.3-1,2.2-1.9,2.9c-0.9,0.7-2,1.1-3.2,1.1h-5.1l-0.1,0.4c-0.1,0.5,0,0.8,0.3,0.8h7.7
					l-1.1,4.2h-8.7c-1.3,0-2.2-0.4-2.8-1.1c-0.6-0.7-0.7-1.7-0.4-3l1.6-6.1c0.3-1.3,1-2.3,2-3.1c1-0.8,2.1-1.2,3.4-1.2h5.6
					c1.2,0,2.1,0.3,2.7,1c0.5,0.7,0.6,1.7,0.3,2.9L273.5,71z M268.8,71l0.1-0.5c0.1-0.3,0-0.5-0.4-0.5h-3.3c-0.4,0-0.6,0.2-0.7,0.6
					l-0.2,0.9h3.9C268.4,71.5,268.7,71.4,268.8,71z"/>
				<path class="st0" d="M285.6,70.5h-2.7c-0.7,0-1.4,0.2-2,0.7c-0.6,0.5-0.9,1.1-1.1,1.8l-2,7.3h-4.8l2.2-8.3
					c0.5-1.9,1.5-3.5,2.9-4.6c1.4-1.1,3.1-1.7,5.1-1.7h3.5L285.6,70.5z"/>
			</g>
		</g>
		<g>
			<g>
				<path class="st2" d="M86.8,80.3h-9.5c-1.8,0-3.2-0.6-4-1.7c-0.8-1.1-1-2.6-0.5-4.4l2-7.3c0.5-1.8,1.4-3.3,2.9-4.4
					c1.4-1.1,3-1.7,4.9-1.7H92l-1.3,4.9h-8.9c-1.1,0-1.8,0.6-2.1,1.6L78,73.7c-0.3,1.1,0.1,1.7,1.2,1.7h8.9L86.8,80.3z"/>
				<path class="st2" d="M104.9,74.4c-0.5,1.9-1.4,3.4-2.8,4.4c-1.3,1.1-2.9,1.6-4.8,1.6h-2.1c-1.9,0-3.2-0.5-4-1.6
					c-0.8-1.1-0.9-2.5-0.4-4.4l2.3-8.5h4.6l-2.1,8c-0.2,0.7-0.2,1.2,0.1,1.6c0.3,0.3,0.7,0.5,1.4,0.5h0.9c1.3,0,2.2-0.7,2.6-2l2.1-8
					h4.6L104.9,74.4z"/>
				<path class="st2" d="M118.3,70.5h-2.7c-0.7,0-1.4,0.2-2,0.7c-0.6,0.5-0.9,1.1-1.1,1.8l-2,7.3h-4.8l2.2-8.3
					c0.5-1.9,1.5-3.5,2.9-4.6c1.4-1.1,3.1-1.7,5.1-1.7h3.5L118.3,70.5z"/>
				<path class="st2" d="M130,70.5h-2.7c-0.7,0-1.4,0.2-2,0.7c-0.6,0.5-0.9,1.1-1.1,1.8l-2,7.3h-4.8l2.2-8.3
					c0.5-1.9,1.5-3.5,2.9-4.6c1.4-1.1,3.1-1.7,5.1-1.7h3.5L130,70.5z"/>
				<path class="st2" d="M145.7,71c-0.3,1.3-1,2.2-1.9,2.9c-0.9,0.7-2,1.1-3.2,1.1h-5.1l-0.1,0.4c-0.1,0.5,0,0.8,0.3,0.8h7.7
					l-1.1,4.2h-8.7c-1.3,0-2.2-0.4-2.8-1.1c-0.6-0.7-0.7-1.7-0.4-3l1.6-6.1c0.3-1.3,1-2.3,2-3.1c1-0.8,2.1-1.2,3.4-1.2h5.6
					c1.2,0,2.1,0.3,2.7,1c0.5,0.7,0.6,1.7,0.3,2.9L145.7,71z M141,71l0.1-0.5c0.1-0.3,0-0.5-0.4-0.5h-3.3c-0.4,0-0.6,0.2-0.7,0.6
					l-0.2,0.9h3.9C140.7,71.5,140.9,71.4,141,71z"/>
				<path class="st2" d="M159.8,80.3h-4.7l2.2-8.2c0.1-0.5,0.1-1,0-1.2c-0.2-0.3-0.6-0.4-1.2-0.4h-3l-2.6,9.9h-4.7l3.9-14.5h8.9
					c1.6,0,2.8,0.5,3.4,1.5c0.7,1,0.8,2.2,0.4,3.8L159.8,80.3z"/>
				<path class="st2" d="M176.5,70.4H173l-2.6,9.9h-4.9l2.6-9.9h-3.7l1.2-4.6h3.7l1.3-4.9h4.9l-1.3,4.9h3.5L176.5,70.4z"/>
				<path class="st2" d="M200.5,80.3h-5L198,71l-5.2-4l-3.6,13.3h-5l5.2-19.4h5l-0.1,0.2l5.2,4l1.1-4.3h5L200.5,80.3z"/>
				<path class="st2" d="M219.1,74.4c-0.5,1.9-1.4,3.4-2.8,4.4c-1.3,1.1-2.9,1.6-4.8,1.6h-2.1c-1.9,0-3.2-0.5-4-1.6
					c-0.8-1.1-0.9-2.5-0.4-4.4l2.3-8.5h4.6l-2.1,8c-0.2,0.7-0.2,1.2,0.1,1.6c0.3,0.3,0.7,0.5,1.4,0.5h0.9c1.3,0,2.2-0.7,2.6-2l2.1-8
					h4.6L219.1,74.4z"/>
				<path class="st2" d="M238.4,80.3h-4.6l2.4-8.9c0.2-0.8,0-1.1-0.7-1.1h-1.4l-2.7,10h-4.3l2.7-10h-2.4l-2.7,10h-4.5l3.9-14.5h13.2
					c1.6,0,2.7,0.4,3.4,1.3c0.6,0.8,0.7,2,0.3,3.6L238.4,80.3z"/>
				<path class="st2" d="M255.8,76.1c-0.4,1.3-1,2.3-2.1,3.1c-1,0.7-2.2,1.1-3.6,1.1h-4.2c-1.4,0-2.5-0.4-3.1-1.1
					c-0.6-0.7-0.7-1.8-0.3-3.1l4.1-15.2h4.7l-1.3,4.9h4.4c1.3,0,2.2,0.4,2.8,1.1c0.5,0.7,0.6,1.7,0.3,3L255.8,76.1z M251.4,74.6
					l0.8-2.9c0.2-0.7-0.1-1-0.9-1h-2.5l-1.1,4c-0.1,0.3,0,0.6,0.1,0.8c0.1,0.2,0.4,0.3,0.7,0.3h1.6c0.3,0,0.6-0.1,0.8-0.3
					C251.1,75.3,251.3,75,251.4,74.6z"/>
				<path class="st2" d="M273.5,71c-0.3,1.3-1,2.2-1.9,2.9c-0.9,0.7-2,1.1-3.2,1.1h-5.1l-0.1,0.4c-0.1,0.5,0,0.8,0.3,0.8h7.7
					l-1.1,4.2h-8.7c-1.3,0-2.2-0.4-2.8-1.1c-0.6-0.7-0.7-1.7-0.4-3l1.6-6.1c0.3-1.3,1-2.3,2-3.1c1-0.8,2.1-1.2,3.4-1.2h5.6
					c1.2,0,2.1,0.3,2.7,1c0.5,0.7,0.6,1.7,0.3,2.9L273.5,71z M268.8,71l0.1-0.5c0.1-0.3,0-0.5-0.4-0.5h-3.3c-0.4,0-0.6,0.2-0.7,0.6
					l-0.2,0.9h3.9C268.4,71.5,268.7,71.4,268.8,71z"/>
				<path class="st2" d="M285.6,70.5h-2.7c-0.7,0-1.4,0.2-2,0.7c-0.6,0.5-0.9,1.1-1.1,1.8l-2,7.3h-4.8l2.2-8.3
					c0.5-1.9,1.5-3.5,2.9-4.6c1.4-1.1,3.1-1.7,5.1-1.7h3.5L285.6,70.5z"/>
			</g>
		</g>
		<g>
			<g>
				<path class="st1" d="M86.8,80.3h-9.5c-1.8,0-3.2-0.6-4-1.7c-0.8-1.1-1-2.6-0.5-4.4l2-7.3c0.5-1.8,1.4-3.3,2.9-4.4
					c1.4-1.1,3-1.7,4.9-1.7H92l-1.3,4.9h-8.9c-1.1,0-1.8,0.6-2.1,1.6L78,73.7c-0.3,1.1,0.1,1.7,1.2,1.7h8.9L86.8,80.3z"/>
				<path class="st1" d="M104.9,74.4c-0.5,1.9-1.4,3.4-2.8,4.4c-1.3,1.1-2.9,1.6-4.8,1.6h-2.1c-1.9,0-3.2-0.5-4-1.6
					c-0.8-1.1-0.9-2.5-0.4-4.4l2.3-8.5h4.6l-2.1,8c-0.2,0.7-0.2,1.2,0.1,1.6c0.3,0.3,0.7,0.5,1.4,0.5h0.9c1.3,0,2.2-0.7,2.6-2l2.1-8
					h4.6L104.9,74.4z"/>
				<path class="st1" d="M118.3,70.5h-2.7c-0.7,0-1.4,0.2-2,0.7c-0.6,0.5-0.9,1.1-1.1,1.8l-2,7.3h-4.8l2.2-8.3
					c0.5-1.9,1.5-3.5,2.9-4.6c1.4-1.1,3.1-1.7,5.1-1.7h3.5L118.3,70.5z"/>
				<path class="st1" d="M130,70.5h-2.7c-0.7,0-1.4,0.2-2,0.7c-0.6,0.5-0.9,1.1-1.1,1.8l-2,7.3h-4.8l2.2-8.3
					c0.5-1.9,1.5-3.5,2.9-4.6c1.4-1.1,3.1-1.7,5.1-1.7h3.5L130,70.5z"/>
				<path class="st1" d="M145.7,71c-0.3,1.3-1,2.2-1.9,2.9c-0.9,0.7-2,1.1-3.2,1.1h-5.1l-0.1,0.4c-0.1,0.5,0,0.8,0.3,0.8h7.7
					l-1.1,4.2h-8.7c-1.3,0-2.2-0.4-2.8-1.1c-0.6-0.7-0.7-1.7-0.4-3l1.6-6.1c0.3-1.3,1-2.3,2-3.1c1-0.8,2.1-1.2,3.4-1.2h5.6
					c1.2,0,2.1,0.3,2.7,1c0.5,0.7,0.6,1.7,0.3,2.9L145.7,71z M141,71l0.1-0.5c0.1-0.3,0-0.5-0.4-0.5h-3.3c-0.4,0-0.6,0.2-0.7,0.6
					l-0.2,0.9h3.9C140.7,71.5,140.9,71.4,141,71z"/>
				<path class="st1" d="M159.8,80.3h-4.7l2.2-8.2c0.1-0.5,0.1-1,0-1.2c-0.2-0.3-0.6-0.4-1.2-0.4h-3l-2.6,9.9h-4.7l3.9-14.5h8.9
					c1.6,0,2.8,0.5,3.4,1.5c0.7,1,0.8,2.2,0.4,3.8L159.8,80.3z"/>
				<path class="st1" d="M176.5,70.4H173l-2.6,9.9h-4.9l2.6-9.9h-3.7l1.2-4.6h3.7l1.3-4.9h4.9l-1.3,4.9h3.5L176.5,70.4z"/>
				<path class="st1" d="M200.5,80.3h-5L198,71l-5.2-4l-3.6,13.3h-5l5.2-19.4h5l-0.1,0.2l5.2,4l1.1-4.3h5L200.5,80.3z"/>
				<path class="st1" d="M219.1,74.4c-0.5,1.9-1.4,3.4-2.8,4.4c-1.3,1.1-2.9,1.6-4.8,1.6h-2.1c-1.9,0-3.2-0.5-4-1.6
					c-0.8-1.1-0.9-2.5-0.4-4.4l2.3-8.5h4.6l-2.1,8c-0.2,0.7-0.2,1.2,0.1,1.6c0.3,0.3,0.7,0.5,1.4,0.5h0.9c1.3,0,2.2-0.7,2.6-2l2.1-8
					h4.6L219.1,74.4z"/>
				<path class="st1" d="M238.4,80.3h-4.6l2.4-8.9c0.2-0.8,0-1.1-0.7-1.1h-1.4l-2.7,10h-4.3l2.7-10h-2.4l-2.7,10h-4.5l3.9-14.5h13.2
					c1.6,0,2.7,0.4,3.4,1.3c0.6,0.8,0.7,2,0.3,3.6L238.4,80.3z"/>
				<path class="st1" d="M255.8,76.1c-0.4,1.3-1,2.3-2.1,3.1c-1,0.7-2.2,1.1-3.6,1.1h-4.2c-1.4,0-2.5-0.4-3.1-1.1
					c-0.6-0.7-0.7-1.8-0.3-3.1l4.1-15.2h4.7l-1.3,4.9h4.4c1.3,0,2.2,0.4,2.8,1.1c0.5,0.7,0.6,1.7,0.3,3L255.8,76.1z M251.4,74.6
					l0.8-2.9c0.2-0.7-0.1-1-0.9-1h-2.5l-1.1,4c-0.1,0.3,0,0.6,0.1,0.8c0.1,0.2,0.4,0.3,0.7,0.3h1.6c0.3,0,0.6-0.1,0.8-0.3
					C251.1,75.3,251.3,75,251.4,74.6z"/>
				<path class="st1" d="M273.5,71c-0.3,1.3-1,2.2-1.9,2.9c-0.9,0.7-2,1.1-3.2,1.1h-5.1l-0.1,0.4c-0.1,0.5,0,0.8,0.3,0.8h7.7
					l-1.1,4.2h-8.7c-1.3,0-2.2-0.4-2.8-1.1c-0.6-0.7-0.7-1.7-0.4-3l1.6-6.1c0.3-1.3,1-2.3,2-3.1c1-0.8,2.1-1.2,3.4-1.2h5.6
					c1.2,0,2.1,0.3,2.7,1c0.5,0.7,0.6,1.7,0.3,2.9L273.5,71z M268.8,71l0.1-0.5c0.1-0.3,0-0.5-0.4-0.5h-3.3c-0.4,0-0.6,0.2-0.7,0.6
					l-0.2,0.9h3.9C268.4,71.5,268.7,71.4,268.8,71z"/>
				<path class="st1" d="M285.6,70.5h-2.7c-0.7,0-1.4,0.2-2,0.7c-0.6,0.5-0.9,1.1-1.1,1.8l-2,7.3h-4.8l2.2-8.3
					c0.5-1.9,1.5-3.5,2.9-4.6c1.4-1.1,3.1-1.7,5.1-1.7h3.5L285.6,70.5z"/>
			</g>
		</g>
	</g>
</g>
</svg>
