<svg xmlns="http://www.w3.org/2000/svg" xmlns:xlink="http://www.w3.org/1999/xlink" viewBox="0 0 125 40.68"><defs><style>.cls-1{fill:none;}.cls-2{clip-path:url(#clip-path);}.cls-3{fill:#0080d6;}.cls-4{clip-path:url(#clip-path-2);}</style><clipPath id="clip-path"><rect class="cls-1" x="7" y="75.5" width="384" height="384"/></clipPath><clipPath id="clip-path-2"><rect class="cls-1" x="-400.54" y="75.5" width="384" height="384"/></clipPath></defs><title>gnav-アートボード 56</title><g id="コンテンツ"><g class="cls-2"><image width="624" height="674" transform="translate(-26.02 -25.6) scale(0.74)" xlink:href="../../../Volumes/DATA/共有/Dropbox/クライアント/TJかごしま/カゴシマプラス/デザイン/スクリーンショット 2016-09-01 19.40.08.png"/></g></g><g id="コンテンツ-2" data-name="コンテンツ"><path class="cls-3" d="M25.06,28.9h2.65v3h2.9v-3h2.67v8.47H30.62V33.94h-2.9v3.43H25.06Z"/><path class="cls-3" d="M34.59,34.32a3,3,0,0,1,1-2.31,3.62,3.62,0,0,1,2.6-.91A3.59,3.59,0,0,1,41,32.16a3.31,3.31,0,0,1-.18,4.44,3.67,3.67,0,0,1-2.63.9,3.73,3.73,0,0,1-2.43-.75A3,3,0,0,1,34.59,34.32Zm2.39,0a1.83,1.83,0,0,0,.34,1.21,1.11,1.11,0,0,0,1.69,0,1.9,1.9,0,0,0,.33-1.24A1.79,1.79,0,0,0,39,33.1a1,1,0,0,0-.83-.39,1.09,1.09,0,0,0-.86.4A1.81,1.81,0,0,0,37,34.31Z"/><path class="cls-3" d="M45.77,28.9v2.33h1.31V33H45.77v2.17a1.16,1.16,0,0,0,.08.52.44.44,0,0,0,.41.2A2.65,2.65,0,0,0,47,35.7l.18,1.62a7.86,7.86,0,0,1-1.65.19,2.91,2.91,0,0,1-1.31-.23,1.38,1.38,0,0,1-.62-.68,4,4,0,0,1-.2-1.49V33H42.5V31.23h.88V30.11Z"/><path class="cls-3" d="M51.92,34.57l2.53-.16a1.88,1.88,0,0,0,.33.92,1.41,1.41,0,0,0,1.17.51,1.31,1.31,0,0,0,.88-.26.78.78,0,0,0,.31-.61.77.77,0,0,0-.29-.59,3.42,3.42,0,0,0-1.36-.49,5.82,5.82,0,0,1-2.49-1,2.06,2.06,0,0,1-.75-1.64A2.2,2.2,0,0,1,52.62,30a2.54,2.54,0,0,1,1.15-.91,5.46,5.46,0,0,1,2.11-.33,4.37,4.37,0,0,1,2.51.6,2.6,2.6,0,0,1,1,1.92l-2.5.14a1.32,1.32,0,0,0-.42-.83,1.36,1.36,0,0,0-.88-.26,1.08,1.08,0,0,0-.7.19.59.59,0,0,0-.23.47.47.47,0,0,0,.19.36,2.19,2.19,0,0,0,.89.31,11.26,11.26,0,0,1,2.49.75,2.61,2.61,0,0,1,1.1.94,2.35,2.35,0,0,1,.34,1.25,2.66,2.66,0,0,1-.46,1.5,2.85,2.85,0,0,1-1.28,1,5.22,5.22,0,0,1-2.07.36,4.3,4.3,0,0,1-3-.83A3.26,3.26,0,0,1,51.92,34.57Z"/><path class="cls-3" d="M60.9,39.71V31.23h2.23v.91a3,3,0,0,1,.85-.77,2.46,2.46,0,0,1,1.15-.27,2.24,2.24,0,0,1,1.93.94,3.86,3.86,0,0,1,.68,2.33A3.33,3.33,0,0,1,67,36.7a2.45,2.45,0,0,1-1.88.81,2.65,2.65,0,0,1-1-.18,2.4,2.4,0,0,1-.81-.55v2.93Zm2.39-5.39a1.6,1.6,0,0,0,.31,1.08,1,1,0,0,0,.79.35.87.87,0,0,0,.7-.34,1.81,1.81,0,0,0,.28-1.15,1.69,1.69,0,0,0-.29-1.1.9.9,0,0,0-.71-.35,1,1,0,0,0-.76.35A1.74,1.74,0,0,0,63.29,34.32Z"/><path class="cls-3" d="M68.91,31.23h2.23v1a2.4,2.4,0,0,1,.67-.9,1.42,1.42,0,0,1,.85-.25,2.55,2.55,0,0,1,1.15.32l-.74,1.68a1.89,1.89,0,0,0-.67-.17.83.83,0,0,0-.73.38,3.83,3.83,0,0,0-.37,2v2.06h-2.4Z"/><path class="cls-3" d="M74.3,28.9h2.38v1.6H74.3Zm0,2.33h2.38v6.14H74.3Z"/><path class="cls-3" d="M78.21,31.23h2.22v1a3.29,3.29,0,0,1,1-.88,2.68,2.68,0,0,1,1.24-.26,2.05,2.05,0,0,1,1.55.58,2.5,2.5,0,0,1,.56,1.79v3.9H82.4V34a1.22,1.22,0,0,0-.22-.82.78.78,0,0,0-.61-.24.87.87,0,0,0-.7.32,1.86,1.86,0,0,0-.27,1.16v2.95H78.21Z"/><path class="cls-3" d="M90.55,31.23h2.23V37.3a2.53,2.53,0,0,1-.25,1.1,2.32,2.32,0,0,1-.66.85,2.61,2.61,0,0,1-1,.47,6.6,6.6,0,0,1-1.46.14,4.33,4.33,0,0,1-2.58-.55,1.8,1.8,0,0,1-.7-1.49q0-.12,0-.31l2.31.26a.74.74,0,0,0,.27.44,1.15,1.15,0,0,0,.66.18,1,1,0,0,0,.77-.27,1.38,1.38,0,0,0,.25-.95v-.93a2.47,2.47,0,0,1-.7.6,2.52,2.52,0,0,1-1.19.29,2.37,2.37,0,0,1-2-1.07,3.4,3.4,0,0,1-.54-2,3.08,3.08,0,0,1,.7-2.18,2.4,2.4,0,0,1,1.84-.75,2.27,2.27,0,0,1,2.08,1Zm-2.24,3a1.44,1.44,0,0,0,.29,1,1,1,0,0,0,1.5,0,1.45,1.45,0,0,0,.3-1,1.49,1.49,0,0,0-.32-1,1,1,0,0,0-.77-.36.9.9,0,0,0-.73.33A1.7,1.7,0,0,0,88.3,34.21Z"/><path class="cls-3" d="M93.8,35.67l2.37-.22a1.15,1.15,0,0,0,.41.6,1.23,1.23,0,0,0,.7.18A1.2,1.2,0,0,0,98,36a.45.45,0,0,0,.21-.37.43.43,0,0,0-.27-.39,5,5,0,0,0-1-.24,10.84,10.84,0,0,1-1.73-.4,1.82,1.82,0,0,1-.81-.61,1.58,1.58,0,0,1-.33-1,1.6,1.6,0,0,1,.36-1,2.13,2.13,0,0,1,1-.66,5.3,5.3,0,0,1,1.68-.22,5.9,5.9,0,0,1,1.64.17,2.15,2.15,0,0,1,.88.52,2.71,2.71,0,0,1,.59,1L97.94,33a.76.76,0,0,0-.29-.43,1.21,1.21,0,0,0-.68-.18,1,1,0,0,0-.59.14.42.42,0,0,0-.18.34.37.37,0,0,0,.23.34,3.84,3.84,0,0,0,1,.21,7.07,7.07,0,0,1,1.77.37,2,2,0,0,1,.89.68,1.64,1.64,0,0,1,.31,1,1.88,1.88,0,0,1-.33,1,2.2,2.2,0,0,1-1,.8,5,5,0,0,1-1.91.3A4.58,4.58,0,0,1,94.73,37,2.15,2.15,0,0,1,93.8,35.67Z"/><path class="cls-3" d="M50.72,13.74a11.15,11.15,0,0,0-2.22-1.27l.58-.8a11.19,11.19,0,0,1,2.25,1.17Zm1,1.51c-.58,1.24-1.32,2.65-2,3.77l-1-.67a35.12,35.12,0,0,0,2.09-3.77Zm-.3-4.71a10.69,10.69,0,0,0-2.17-1.27l.6-.79A10.27,10.27,0,0,1,52,9.66Zm8.22,7.4v1h-8.4v-1h1V14.31h6.66v3.63Zm-1.17-4.51H52.58V8.83h5.87Zm-5.25,4.51h1V15.25h-1Zm4.15-8.19H53.64v.94h3.71Zm0,1.81H53.64v1h3.71ZM55,15.25v2.69h1V15.25Zm1.82,0v2.69h1V15.25Z"/><path class="cls-3" d="M67.41,14.74a6.66,6.66,0,0,1-3.84,4.17,3.41,3.41,0,0,0-.66-.92A5.76,5.76,0,0,0,66,15.48H63.37v-1h3.14l.19,0Zm6-.27a28.86,28.86,0,0,1-2.6,1.73,7.73,7.73,0,0,0,3.34,1.7,4.23,4.23,0,0,0-.72,1,8,8,0,0,1-4.37-3.13V18c0,.59-.12.88-.56,1a6.73,6.73,0,0,1-2,.17,3.86,3.86,0,0,0-.36-1c.68,0,1.36,0,1.54,0s.25,0,.25-.21V13.75h-3.5V9.33h3a8.08,8.08,0,0,0,.48-1.08l1.33.21c-.18.3-.36.59-.54.87h4v4.42H69.07v.15a6.88,6.88,0,0,0,1.09,1.63,16.59,16.59,0,0,0,2.29-1.76Zm-7.86-3.33h6V10.2h-6Zm0,1.75h6v-.94h-6Z"/><g class="cls-4"><image width="656" height="535" transform="translate(-454.12 11.22) scale(0.86)" xlink:href="../../../Volumes/DATA/共有/Dropbox/クライアント/TJかごしま/カゴシマプラス/デザイン/05-L1.jpg"/></g></g></svg>