<svg xmlns="http://www.w3.org/2000/svg" xmlns:xlink="http://www.w3.org/1999/xlink" viewBox="0 0 125 40.68"><defs><style>.cls-1{fill:none;}.cls-2{clip-path:url(#clip-path);}.cls-3{fill:#3bb55f;}.cls-4{fill:#329750;}</style><clipPath id="clip-path"><rect class="cls-1" x="-387" y="75.5" width="384" height="384"/></clipPath></defs><title>gnav-アートボード 59</title><g id="コンテンツ"><g class="cls-2"><image width="624" height="674" transform="translate(-420.02 -25.6) scale(0.74)" xlink:href="../../../Volumes/DATA/共有/Dropbox/クライアント/TJかごしま/カゴシマプラス/デザイン/スクリーンショット 2016-09-01 19.40.08.png"/></g></g><g id="コンテンツ-2" data-name="コンテンツ"><path class="cls-3" d="M45.7,13.44a22,22,0,0,1-2.22,1.44,6.12,6.12,0,0,0,2.69,2.39,5.94,5.94,0,0,0-1,1.23c-2.15-1.13-3.34-3.32-4-6.09h0a7.73,7.73,0,0,1-1,.69c2.28,2,2.18,4.92,1,5.77a2,2,0,0,1-1.47.5,10.18,10.18,0,0,1-1,0A2.93,2.93,0,0,0,38.2,18c.46,0,.84.06,1.16.06a.86.86,0,0,0,.72-.25,1.54,1.54,0,0,0,.4-1.33,18.7,18.7,0,0,1-4.61,2.36,6.08,6.08,0,0,0-.75-1.18,14,14,0,0,0,5-2.4,4.7,4.7,0,0,0-.23-.42,17.9,17.9,0,0,1-3.66,1.79,5.1,5.1,0,0,0-.72-1.07A13.1,13.1,0,0,0,39.27,14L39,13.7a18.16,18.16,0,0,1-2.86,1,8.33,8.33,0,0,0-.74-1.11,14.72,14.72,0,0,0,3.69-1.2H37.3V11.21h6.48v1.19H42.41a10.54,10.54,0,0,0,.49,1.38,14.49,14.49,0,0,0,1.68-1.3Zm-8.82-1.62H35.47V9.17h4.34V8.24h1.47v.93H45.7v2.65H44.23V10.45H36.88Z"/><path class="cls-3" d="M51,11.61a19.65,19.65,0,0,1,5.09-1.12c2.16,0,3.86,1.21,3.86,3.4,0,2.67-2.57,4.38-6.79,4.58l-.69-1.57c3.24-.07,5.77-1,5.77-3a2,2,0,0,0-2.21-2c-1.76,0-4.57,1.18-5.83,1.71L49.51,12C49.94,11.89,50.55,11.73,51,11.61Zm8.28-1.23-1,.4a15,15,0,0,0-1-1.65l1-.39A15.27,15.27,0,0,1,59.26,10.38Zm1.45-.56-1,.4a13.39,13.39,0,0,0-1-1.64l1-.38A16.93,16.93,0,0,1,60.71,9.82Z"/><path class="cls-3" d="M72.34,9.76c-.37.27-.77.58-1,.8-.77.62-2.35,1.82-3.15,2.5-.64.54-.63.67,0,1.21.89.75,3.2,2.55,4.38,3.68l-1.39,1.26c-.34-.37-.71-.74-1-1.09-.65-.68-2.47-2.21-3.57-3.13s-1.09-1.64.11-2.62c.93-.75,2.57-2.06,3.38-2.84a8.14,8.14,0,0,0,.92-1Z"/><path class="cls-3" d="M82.37,8.79a19,19,0,0,0-.48,2.44,3.7,3.7,0,0,1,3-1.9c1.67,0,3,1.61,3,4.2,0,3.33-2.08,4.93-5.24,5.5l-.91-1.37c2.66-.4,4.51-1.26,4.51-4.12,0-1.82-.62-2.83-1.61-2.83-1.41,0-2.64,2.09-2.7,3.64a7,7,0,0,0,.06,1.25l-1.48.1a15,15,0,0,1-.14-2A28.1,28.1,0,0,1,80.63,10c.06-.43.08-.9.1-1.24Z"/><path class="cls-4" d="M37.55,28.9h2.38V32a3.22,3.22,0,0,1,1-.71A2.78,2.78,0,0,1,42,31.1a2,2,0,0,1,1.53.58,2.51,2.51,0,0,1,.56,1.79v3.9h-2.4V34a1.22,1.22,0,0,0-.22-.82.78.78,0,0,0-.61-.24.87.87,0,0,0-.7.32,1.86,1.86,0,0,0-.27,1.16v2.95H37.55Z"/><path class="cls-4" d="M45.26,34.32a3,3,0,0,1,1-2.31,4.21,4.21,0,0,1,5.42.16,3.31,3.31,0,0,1-.18,4.44,3.67,3.67,0,0,1-2.63.9,3.73,3.73,0,0,1-2.43-.75A3,3,0,0,1,45.26,34.32Zm2.39,0A1.83,1.83,0,0,0,48,35.53a1.11,1.11,0,0,0,1.69,0A1.9,1.9,0,0,0,50,34.29a1.79,1.79,0,0,0-.33-1.19,1,1,0,0,0-.83-.39,1.09,1.09,0,0,0-.86.4A1.81,1.81,0,0,0,47.65,34.31Z"/><path class="cls-4" d="M60.11,37.37H57.89v-1a3.27,3.27,0,0,1-1,.87,2.71,2.71,0,0,1-1.25.26,2,2,0,0,1-1.54-.58,2.49,2.49,0,0,1-.56-1.79V31.23h2.4v3.38a1.23,1.23,0,0,0,.22.82.77.77,0,0,0,.61.24.87.87,0,0,0,.7-.32,1.85,1.85,0,0,0,.27-1.16v-3h2.38Z"/><path class="cls-4" d="M61.14,35.67l2.37-.22a1.15,1.15,0,0,0,.41.6,1.23,1.23,0,0,0,.7.18,1.2,1.2,0,0,0,.74-.2.45.45,0,0,0,.21-.37.43.43,0,0,0-.27-.39,5,5,0,0,0-1-.24,10.84,10.84,0,0,1-1.73-.4,1.82,1.82,0,0,1-.81-.61,1.58,1.58,0,0,1-.33-1,1.6,1.6,0,0,1,.36-1,2.13,2.13,0,0,1,1-.66,5.3,5.3,0,0,1,1.68-.22,5.9,5.9,0,0,1,1.64.17,2.15,2.15,0,0,1,.88.52,2.71,2.71,0,0,1,.59,1L65.28,33a.76.76,0,0,0-.29-.43,1.21,1.21,0,0,0-.68-.19,1,1,0,0,0-.59.14.42.42,0,0,0-.18.34.37.37,0,0,0,.23.34,3.83,3.83,0,0,0,1,.21,7.07,7.07,0,0,1,1.77.37,2,2,0,0,1,.89.68,1.64,1.64,0,0,1,.31,1,1.88,1.88,0,0,1-.33,1,2.2,2.2,0,0,1-1,.8,5,5,0,0,1-1.91.3A4.58,4.58,0,0,1,62.07,37,2.15,2.15,0,0,1,61.14,35.67Z"/><path class="cls-4" d="M69,28.9h2.38v1.6H69Zm0,2.33h2.38v6.14H69Z"/><path class="cls-4" d="M72.89,31.23h2.22v1a3.29,3.29,0,0,1,1-.88,2.68,2.68,0,0,1,1.24-.26,2.05,2.05,0,0,1,1.55.58,2.5,2.5,0,0,1,.56,1.79v3.9h-2.4V34a1.22,1.22,0,0,0-.22-.82.78.78,0,0,0-.61-.24.87.87,0,0,0-.7.32,1.86,1.86,0,0,0-.27,1.16v2.95H72.89Z"/><path class="cls-4" d="M85.22,31.23h2.23V37.3a2.53,2.53,0,0,1-.25,1.1,2.32,2.32,0,0,1-.66.85,2.62,2.62,0,0,1-1,.47,6.61,6.61,0,0,1-1.46.14,4.33,4.33,0,0,1-2.58-.55,1.8,1.8,0,0,1-.7-1.49q0-.12,0-.31l2.31.26a.74.74,0,0,0,.27.44,1.15,1.15,0,0,0,.66.18,1,1,0,0,0,.77-.27,1.38,1.38,0,0,0,.25-.95v-.93a2.47,2.47,0,0,1-.7.6,2.52,2.52,0,0,1-1.19.29,2.37,2.37,0,0,1-2-1.07,3.4,3.4,0,0,1-.54-2,3.08,3.08,0,0,1,.7-2.18,2.4,2.4,0,0,1,1.84-.75,2.27,2.27,0,0,1,2.08,1Zm-2.24,3a1.44,1.44,0,0,0,.29,1,1,1,0,0,0,1.5,0,1.45,1.45,0,0,0,.3-1,1.5,1.5,0,0,0-.32-1A1,1,0,0,0,84,32.8a.9.9,0,0,0-.73.33A1.7,1.7,0,0,0,83,34.21Z"/></g></svg>