<svg xmlns="http://www.w3.org/2000/svg" xmlns:xlink="http://www.w3.org/1999/xlink" viewBox="0 0 125 41"><defs><style>.cls-1{fill:none;}.cls-2{fill:#dc5380;}.cls-3{clip-path:url(#clip-path);}</style><clipPath id="clip-path"><rect class="cls-1" x="-90.7" y="75.15" width="384" height="384"/></clipPath></defs><title>gnav-アートボード 54</title><g id="コンテンツ"><path class="cls-2" d="M49.11,10.78a2.85,2.85,0,0,0,.91-.12l1,.6a4.06,4.06,0,0,0-.34.73,11.84,11.84,0,0,1-2.12,4.08,10.86,10.86,0,0,1-4.83,3.31l-1.12-1a9.67,9.67,0,0,0,4.84-3,9.07,9.07,0,0,0,1.83-3.54H45.49a12.47,12.47,0,0,1-3.05,2.93L41.37,14a10.29,10.29,0,0,0,3.79-4A5.62,5.62,0,0,0,45.61,9l1.4.46c-.24.36-.5.82-.63,1.06s-.11.2-.18.31Zm1-2a17.32,17.32,0,0,1,1,1.64l-.8.34a14.23,14.23,0,0,0-1-1.66Zm1.36-.52a14.1,14.1,0,0,1,1,1.63l-.78.35a12,12,0,0,0-1-1.66Z"/><path class="cls-2" d="M55.92,18.08A5.65,5.65,0,0,0,58,15.17a20.66,20.66,0,0,0,.35-4.79,3.7,3.7,0,0,0-.1-1h1.4a8.86,8.86,0,0,0-.06,1,26.13,26.13,0,0,1-.37,5.12,6.73,6.73,0,0,1-2.15,3.36Zm5.55.11a3.43,3.43,0,0,0,.08-.76v-7.1a8.76,8.76,0,0,0-.07-1h1.4a7.27,7.27,0,0,0-.06,1V17a8.48,8.48,0,0,0,3.28-2.76l.72,1a12.64,12.64,0,0,1-4.1,3.31,2.52,2.52,0,0,0-.46.3Z"/><path class="cls-2" d="M79.71,9.7a8.7,8.7,0,0,0-.45,1,16.72,16.72,0,0,1-1.73,3.41,32.25,32.25,0,0,1,2.93,2.7l-1,1.07a25.44,25.44,0,0,0-2.76-2.7,15.19,15.19,0,0,1-4.62,3.8L71,18a13.26,13.26,0,0,0,4.71-3.67,36.24,36.24,0,0,0-3.32-2.35l.81-1c1,.64,2.33,1.55,3.3,2.27A13.06,13.06,0,0,0,78,10.18a7.43,7.43,0,0,0,.27-1Z"/><path class="cls-2" d="M39.37,34.57V32.8h4.1v3.64a8.43,8.43,0,0,1-2.08,1.09,7.11,7.11,0,0,1-2.15.29,5.24,5.24,0,0,1-2.49-.52,3.56,3.56,0,0,1-1.49-1.54,5,5,0,0,1-.53-2.35A4.89,4.89,0,0,1,35.3,31,3.75,3.75,0,0,1,37,29.39,5.56,5.56,0,0,1,39.35,29a6.64,6.64,0,0,1,2.13.26,2.77,2.77,0,0,1,1.17.79,3.53,3.53,0,0,1,.7,1.37l-2.56.45a1.38,1.38,0,0,0-.54-.74,1.68,1.68,0,0,0-1-.26,1.74,1.74,0,0,0-1.39.6,2.89,2.89,0,0,0-.52,1.91,3,3,0,0,0,.52,2,1.85,1.85,0,0,0,1.46.59,2.79,2.79,0,0,0,.85-.13,4.59,4.59,0,0,0,.93-.44v-.8Z"/><path class="cls-2" d="M44.59,34.59a3.09,3.09,0,0,1,1-2.33,4.19,4.19,0,0,1,5.42.16,3.35,3.35,0,0,1-.18,4.48,3.65,3.65,0,0,1-2.63.91A3.71,3.71,0,0,1,45.73,37,3,3,0,0,1,44.59,34.59Zm2.39,0a1.86,1.86,0,0,0,.34,1.22,1.11,1.11,0,0,0,1.69,0,1.92,1.92,0,0,0,.33-1.25,1.81,1.81,0,0,0-.33-1.2,1,1,0,0,0-.83-.39,1.08,1.08,0,0,0-.86.4A1.84,1.84,0,0,0,47,34.58Z"/><path class="cls-2" d="M59.45,37.67H57.22v-1a3.28,3.28,0,0,1-1,.88,2.69,2.69,0,0,1-1.25.26,2,2,0,0,1-1.54-.59,2.53,2.53,0,0,1-.56-1.8V31.48h2.4v3.4a1.25,1.25,0,0,0,.22.83.77.77,0,0,0,.61.24.87.87,0,0,0,.7-.33,1.87,1.87,0,0,0,.27-1.17v-3h2.38Z"/><path class="cls-2" d="M60.92,31.48h2.23v1a2.42,2.42,0,0,1,.67-.91,1.41,1.41,0,0,1,.85-.25,2.53,2.53,0,0,1,1.15.33l-.74,1.69a1.88,1.88,0,0,0-.67-.17.83.83,0,0,0-.73.38,3.89,3.89,0,0,0-.37,2v2.07h-2.4Z"/><path class="cls-2" d="M66.24,31.48h2.23v.9a3.11,3.11,0,0,1,1-.8,2.68,2.68,0,0,1,1.18-.24,2.27,2.27,0,0,1,1.18.26,2,2,0,0,1,.71.78,3.59,3.59,0,0,1,1-.82,2.66,2.66,0,0,1,1.14-.22,2.05,2.05,0,0,1,1.56.59,2.61,2.61,0,0,1,.56,1.85v3.89H74.41V34.14a1,1,0,0,0-.16-.62.72.72,0,0,0-.6-.32.84.84,0,0,0-.68.3,1.49,1.49,0,0,0-.26,1v3.19H70.32V34.26a2.13,2.13,0,0,0,0-.55.76.76,0,0,0-.26-.38.71.71,0,0,0-.44-.14.85.85,0,0,0-.68.31,1.55,1.55,0,0,0-.26,1v3.16H66.24Z"/><path class="cls-2" d="M85.13,35.16H80.35a1.53,1.53,0,0,0,.31.85,1.13,1.13,0,0,0,.9.4,1.36,1.36,0,0,0,.67-.17,1.57,1.57,0,0,0,.42-.39l2.35.22a3.36,3.36,0,0,1-1.3,1.34,4.75,4.75,0,0,1-2.19.4,4.5,4.5,0,0,1-1.95-.35,2.85,2.85,0,0,1-1.17-1.1,3.31,3.31,0,0,1-.47-1.77,3.11,3.11,0,0,1,.93-2.35,3.57,3.57,0,0,1,2.58-.9,4.62,4.62,0,0,1,2.11.4,2.72,2.72,0,0,1,1.18,1.17,4.24,4.24,0,0,1,.4,2ZM82.7,34a1.58,1.58,0,0,0-.37-1,1.17,1.17,0,0,0-1.7.15,1.64,1.64,0,0,0-.28.83Z"/><path class="cls-2" d="M89.1,29.13v2.35h1.31v1.74H89.1v2.19a1.17,1.17,0,0,0,.08.52.44.44,0,0,0,.41.2,2.63,2.63,0,0,0,.74-.15l.18,1.64a7.81,7.81,0,0,1-1.65.19,2.89,2.89,0,0,1-1.31-.23,1.39,1.39,0,0,1-.62-.69,4,4,0,0,1-.2-1.5V33.22h-.88V31.48h.88V30.34Z"/></g><g id="コンテンツ-2" data-name="コンテンツ"><g class="cls-3"><image width="656" height="535" transform="translate(-144.28 10.87) scale(0.86)" xlink:href="../../../Volumes/DATA/共有/Dropbox/クライアント/TJかごしま/カゴシマプラス/デザイン/05-L1.jpg"/></g></g></svg>