<svg xmlns="http://www.w3.org/2000/svg" xmlns:xlink="http://www.w3.org/1999/xlink" viewBox="0 0 125 40.68"><defs><style>.cls-1{fill:none;}.cls-2{clip-path:url(#clip-path);}.cls-3{fill:#abdb58;}</style><clipPath id="clip-path"><rect class="cls-1" x="-247" y="75.5" width="384" height="384"/></clipPath></defs><title>gnav-アートボード 58</title><g id="コンテンツ"><g class="cls-2"><image width="624" height="674" transform="translate(-280.02 -25.6) scale(0.74)" xlink:href="../../../Volumes/DATA/共有/Dropbox/クライアント/TJかごしま/カゴシマプラス/デザイン/スクリーンショット 2016-09-01 19.40.08.png"/></g></g><g id="コンテンツ-2" data-name="コンテンツ"><path class="cls-3" d="M36.89,28.9h2.38V32a3.22,3.22,0,0,1,1-.71,2.78,2.78,0,0,1,1.14-.21,2,2,0,0,1,1.53.58,2.51,2.51,0,0,1,.56,1.79v3.9h-2.4V34a1.22,1.22,0,0,0-.22-.82.78.78,0,0,0-.61-.24.87.87,0,0,0-.7.32,1.86,1.86,0,0,0-.27,1.16v2.95H36.89Z"/><path class="cls-3" d="M44.6,34.32a3,3,0,0,1,1-2.31,4.21,4.21,0,0,1,5.42.16,3.31,3.31,0,0,1-.18,4.44,3.67,3.67,0,0,1-2.63.9,3.73,3.73,0,0,1-2.43-.75A3,3,0,0,1,44.6,34.32Zm2.39,0a1.83,1.83,0,0,0,.34,1.21,1.11,1.11,0,0,0,1.69,0,1.9,1.9,0,0,0,.33-1.24A1.79,1.79,0,0,0,49,33.1a1,1,0,0,0-.83-.39,1.09,1.09,0,0,0-.86.4A1.81,1.81,0,0,0,47,34.31Z"/><path class="cls-3" d="M52.47,35.67l2.37-.22a1.15,1.15,0,0,0,.41.6,1.23,1.23,0,0,0,.7.18,1.2,1.2,0,0,0,.74-.2.45.45,0,0,0,.21-.37.43.43,0,0,0-.27-.39,5,5,0,0,0-1-.24,10.84,10.84,0,0,1-1.73-.4,1.82,1.82,0,0,1-.81-.61,1.58,1.58,0,0,1-.33-1,1.6,1.6,0,0,1,.36-1,2.13,2.13,0,0,1,1-.66,5.3,5.3,0,0,1,1.68-.22,5.9,5.9,0,0,1,1.64.17,2.15,2.15,0,0,1,.88.52,2.71,2.71,0,0,1,.59,1L56.62,33a.76.76,0,0,0-.29-.43,1.21,1.21,0,0,0-.68-.18,1,1,0,0,0-.59.14.42.42,0,0,0-.18.34.37.37,0,0,0,.23.34,3.84,3.84,0,0,0,1,.21,7.07,7.07,0,0,1,1.77.37,2,2,0,0,1,.89.68,1.64,1.64,0,0,1,.31,1,1.88,1.88,0,0,1-.33,1,2.2,2.2,0,0,1-1,.8,5,5,0,0,1-1.91.3A4.58,4.58,0,0,1,53.4,37,2.15,2.15,0,0,1,52.47,35.67Z"/><path class="cls-3" d="M60.24,39.71V31.23h2.23v.91a3,3,0,0,1,.85-.77,2.46,2.46,0,0,1,1.15-.27,2.24,2.24,0,0,1,1.93.94,3.86,3.86,0,0,1,.68,2.33,3.33,3.33,0,0,1-.74,2.34,2.45,2.45,0,0,1-1.88.81,2.65,2.65,0,0,1-1-.18,2.4,2.4,0,0,1-.81-.55v2.93Zm2.39-5.39a1.6,1.6,0,0,0,.31,1.08,1,1,0,0,0,.79.35.87.87,0,0,0,.7-.34,1.81,1.81,0,0,0,.28-1.15,1.69,1.69,0,0,0-.29-1.1.9.9,0,0,0-.71-.35,1,1,0,0,0-.76.35A1.74,1.74,0,0,0,62.63,34.32Z"/><path class="cls-3" d="M68.32,28.9H70.7v1.6H68.32Zm0,2.33H70.7v6.14H68.32Z"/><path class="cls-3" d="M75.1,28.9v2.33h1.31V33H75.1v2.17a1.16,1.16,0,0,0,.08.52.44.44,0,0,0,.41.2,2.65,2.65,0,0,0,.74-.15l.18,1.62a7.86,7.86,0,0,1-1.65.19,2.91,2.91,0,0,1-1.31-.23,1.38,1.38,0,0,1-.62-.68,4,4,0,0,1-.2-1.49V33h-.88V31.23h.88V30.11Z"/><path class="cls-3" d="M79.73,33.22,77.45,33a2.5,2.5,0,0,1,.37-.93,2,2,0,0,1,.7-.59,3,3,0,0,1,.9-.28,7.38,7.38,0,0,1,1.24-.1,10,10,0,0,1,1.72.12,2.23,2.23,0,0,1,1.08.49,1.73,1.73,0,0,1,.48.74,2.63,2.63,0,0,1,.18.91v2.71a3.23,3.23,0,0,0,.06.68,3,3,0,0,0,.24.63H82.19A2.24,2.24,0,0,1,82,37a2.65,2.65,0,0,1-.08-.39,3.09,3.09,0,0,1-.93.64,3.93,3.93,0,0,1-1.47.25A2.48,2.48,0,0,1,77.84,37a1.61,1.61,0,0,1-.58-1.25,1.63,1.63,0,0,1,.42-1.15,2.83,2.83,0,0,1,1.54-.67q1.34-.27,1.74-.37a8.21,8.21,0,0,0,.84-.28.82.82,0,0,0-.18-.61.92.92,0,0,0-.64-.17,1.67,1.67,0,0,0-.88.18A1,1,0,0,0,79.73,33.22Zm2.07,1.24q-.49.17-1,.31a2.38,2.38,0,0,0-.92.38.6.6,0,0,0,0,.89.84.84,0,0,0,.58.18,1.5,1.5,0,0,0,.74-.19,1.16,1.16,0,0,0,.49-.47,1.54,1.54,0,0,0,.14-.71Z"/><path class="cls-3" d="M85.64,28.9H88v8.47H85.64Z"/><path class="cls-3" d="M59.63,9.49v1.27h-8V13c0,1.9-.28,4.63-1.94,6.26a5.88,5.88,0,0,0-1-.94A5.44,5.44,0,0,0,50,15.59c-.45.26-.89.52-1.33.76L48.3,15c.49-.21,1.19-.54,1.92-.89,0-.38,0-.75,0-1.11V12.7l-1,.54A10.27,10.27,0,0,0,48.4,11l1-.5a9.51,9.51,0,0,1,.81,1.86V9.49h3.62V8.24h1.52V9.49ZM52,11.55h7.51v1.19H56.27v.86h3V18c0,.61-.12.94-.56,1.14a3.89,3.89,0,0,1-1.73.23,4.2,4.2,0,0,0-.46-1.23c.48,0,1,0,1.16,0s.21,0,.21-.18V17l-.76.68a12.27,12.27,0,0,0-1.39-1.39,4,4,0,0,1-1.58,1.45,4.08,4.08,0,0,0-.54-.64v2.2H52.3V13.6H55v-.86H52Zm1.53,5.21a2.54,2.54,0,0,0,1.39-2H53.58Zm4.27-2H56.22c0,.15,0,.32-.08.48a22.36,22.36,0,0,1,1.71,1.52Z"/><path class="cls-3" d="M67.16,9.22c-.31,1-.71,2.31-1.05,3.24A3.63,3.63,0,0,1,67,14.85a1.73,1.73,0,0,1-.53,1.52,1.75,1.75,0,0,1-.7.25,5.18,5.18,0,0,1-.77,0,3,3,0,0,0-.31-1.2h.53a.63.63,0,0,0,.34-.11c.13-.1.18-.33.18-.67a3.16,3.16,0,0,0-.83-2.08c.24-.75.5-1.79.69-2.59h-.94v9.34H63.39V8.74H66l.21-.06ZM72.76,18c.19,0,.23-.18.25-1.39a3.71,3.71,0,0,0,1.2.52c-.12,1.67-.43,2.12-1.29,2.12h-.81c-1,0-1.28-.4-1.28-1.62V15h-.89c-.14,2.15-.65,3.52-3,4.3a3.43,3.43,0,0,0-.76-1.11c1.93-.57,2.29-1.54,2.41-3.19H67.26V13.77H74V15H72.17v2.57c0,.35,0,.38.19.38Zm-3-8.46V8.28h1.39V9.52H74v2.33h-.93v1.06H68v-1h-.89V9.52Zm3,1.2H68.35v1h4.37Z"/></g></svg>