<svg xmlns="http://www.w3.org/2000/svg" xmlns:xlink="http://www.w3.org/1999/xlink" viewBox="0 0 125 40.68"><defs><style>.cls-1{fill:none;}.cls-2{clip-path:url(#clip-path);}.cls-3{fill:#edb376;}</style><clipPath id="clip-path"><rect class="cls-1" x="-121" y="75.5" width="384" height="384"/></clipPath></defs><title>gnav-アートボード 57</title><g id="コンテンツ"><g class="cls-2"><image width="624" height="674" transform="translate(-154.02 -25.6) scale(0.74)" xlink:href="../../../Volumes/DATA/共有/Dropbox/クライアント/TJかごしま/カゴシマプラス/デザイン/スクリーンショット 2016-09-01 19.40.08.png"/></g></g><g id="コンテンツ-2" data-name="コンテンツ"><path class="cls-3" d="M43.71,28.9h7.11v1.81H46.37v1.35H50.5v1.73H46.37v1.67H51v1.92H43.71Z"/><path class="cls-3" d="M51.52,31.23H54l1.21,3.89,1.25-3.89h2.41l-2.64,6.14H54.11Z"/><path class="cls-3" d="M66.46,34.89H61.68a1.51,1.51,0,0,0,.31.84,1.14,1.14,0,0,0,.9.4,1.37,1.37,0,0,0,.67-.17,1.57,1.57,0,0,0,.42-.39l2.35.21A3.34,3.34,0,0,1,65,37.11a4.78,4.78,0,0,1-2.19.4,4.53,4.53,0,0,1-1.95-.34,2.84,2.84,0,0,1-1.17-1.09,3.26,3.26,0,0,1-.47-1.76A3.07,3.07,0,0,1,60.19,32a3.59,3.59,0,0,1,2.58-.89,4.65,4.65,0,0,1,2.11.4,2.71,2.71,0,0,1,1.18,1.16,4.18,4.18,0,0,1,.4,2ZM64,33.76a1.56,1.56,0,0,0-.37-1,1.18,1.18,0,0,0-1.7.15,1.62,1.62,0,0,0-.28.83Z"/><path class="cls-3" d="M67.56,31.23h2.22v1a3.29,3.29,0,0,1,1-.88A2.68,2.68,0,0,1,72,31.09a2.05,2.05,0,0,1,1.55.58,2.5,2.5,0,0,1,.56,1.79v3.9h-2.4V34a1.22,1.22,0,0,0-.22-.82.78.78,0,0,0-.61-.24.87.87,0,0,0-.7.32,1.86,1.86,0,0,0-.27,1.16v2.95H67.56Z"/><path class="cls-3" d="M78.44,28.9v2.33h1.31V33H78.44v2.17a1.15,1.15,0,0,0,.08.52.44.44,0,0,0,.41.2,2.65,2.65,0,0,0,.74-.15l.18,1.62a7.86,7.86,0,0,1-1.65.19,2.91,2.91,0,0,1-1.31-.23,1.38,1.38,0,0,1-.62-.68,4,4,0,0,1-.2-1.49V33h-.88V31.23H76V30.11Z"/><path class="cls-3" d="M41,17.27a8.07,8.07,0,0,0,.11,1.56H39.21a13.24,13.24,0,0,0,.08-1.56v-3.9A23.79,23.79,0,0,1,35.15,15l-.87-1.45a18.7,18.7,0,0,0,5.49-2.15,12.69,12.69,0,0,0,3.15-2.69l1.29,1.15A19.68,19.68,0,0,1,41,12.41Z"/><path class="cls-3" d="M49.44,14c.56-.55,1.5-1.71,2.32-2.69s1.38-.93,2.37-.11a31.18,31.18,0,0,1,2.46,2.42c.81.87,2.1,2.23,3,3.21l-1.29,1.38c-.77-1-1.87-2.3-2.58-3.12a26.05,26.05,0,0,0-2.22-2.36c-.42-.36-.63-.36-1,.07-.47.6-1.34,1.77-1.83,2.43-.28.37-.57.8-.77,1.11l-1.42-1.44C48.81,14.63,49.08,14.38,49.44,14ZM57.71,12l-1.09.46a11.14,11.14,0,0,0-1.1-1.94l1.05-.43A19,19,0,0,1,57.71,12Zm1.65-.7-1.05.5a12.41,12.41,0,0,0-1.16-1.89l1-.46A17.31,17.31,0,0,1,59.36,11.26Z"/><path class="cls-3" d="M68.52,15.63A11.34,11.34,0,0,0,72.92,11l.94,1.68a12.74,12.74,0,0,1-4.47,4.4,13.18,13.18,0,0,1-4.48,1.68l-1-1.57A12.55,12.55,0,0,0,68.52,15.63Zm0-3.86L67.29,13a25,25,0,0,0-3-2.57l1.13-1.19A25.26,25.26,0,0,1,68.52,11.77Z"/><path class="cls-3" d="M86.79,15.57a35.12,35.12,0,0,0-4.36-1.77v3.37c0,.35.06,1.18.11,1.65H80.66a12.59,12.59,0,0,0,.12-1.65V10.33a8.14,8.14,0,0,0-.12-1.44h1.88a12.87,12.87,0,0,0-.11,1.44v1.75a39.76,39.76,0,0,1,5,1.84Z"/></g></svg>