<svg xmlns="http://www.w3.org/2000/svg" viewBox="0 0 125 40.68"><defs><style>.cls-1{fill:#e8728d;}</style></defs><title>gnav-アートボード 60</title><g id="コンテンツ-2" data-name="コンテンツ"><path class="cls-1" d="M35.93,10l.76.49a6,6,0,0,0-.27.82,11.92,11.92,0,0,1-1.81,4.33A9.55,9.55,0,0,1,29.76,19l-1.32-1.42a8,8,0,0,0,4.73-2.8,7.58,7.58,0,0,0,1.42-3.36H29c-.55,0-1.12,0-1.44,0V9.76a13.57,13.57,0,0,0,1.44.1h5.59a5.14,5.14,0,0,0,.57,0,13.23,13.23,0,0,0-.68-1.15l1-.4a15.6,15.6,0,0,1,.93,1.57ZM37.13,8c.3.43.74,1.15,1,1.57l-1,.43a14,14,0,0,0-1-1.59Z"/><path class="cls-1" d="M51.68,12.63a4.22,4.22,0,0,0-.23.5,8.52,8.52,0,0,1-1.79,3.3A9.06,9.06,0,0,1,45.36,19l-1.21-1.34a8.17,8.17,0,0,0,4.19-2.08,5.14,5.14,0,0,0,1.24-2.06H43.75c-.29,0-.89,0-1.4.06V12c.51,0,1,.07,1.4.07h6a2.58,2.58,0,0,0,.88-.12ZM43.46,9.18a10.32,10.32,0,0,0,1.26.06h4.65a11.54,11.54,0,0,0,1.3-.06v1.54c-.33,0-.89,0-1.33,0H44.72c-.39,0-.91,0-1.26,0Z"/><path class="cls-1" d="M62.74,17.27a8.11,8.11,0,0,0,.11,1.56H60.94A13,13,0,0,0,61,17.27v-3.9A23.79,23.79,0,0,1,56.87,15L56,13.54a18.69,18.69,0,0,0,5.49-2.15,12.71,12.71,0,0,0,3.15-2.69l1.29,1.15a19.68,19.68,0,0,1-3.2,2.56Z"/><path class="cls-1" d="M79.42,10.45l.88.54a6.3,6.3,0,0,0-.4.86,12.93,12.93,0,0,1-1.67,3.25c.45.29.86.55,1.16.76l-1.09,1.4c-.29-.25-.69-.54-1.12-.84a11.63,11.63,0,0,1-4.45,3l-1.4-1.2a10.11,10.11,0,0,0,4.49-2.67c-.81-.52-1.63-1-2.25-1.36l1-1.13c.64.32,1.46.77,2.27,1.25a8.6,8.6,0,0,0,1.25-2.54H74.66a14.3,14.3,0,0,1-3.17,3.07l-1.3-1a11.1,11.1,0,0,0,3.84-4,5.41,5.41,0,0,0,.54-1.25l1.75.54c-.29.42-.59,1-.74,1.21H78a4,4,0,0,0,1-.11,13.65,13.65,0,0,0-.8-1.36l1-.38a17.18,17.18,0,0,1,1,1.63ZM80.57,8a15.35,15.35,0,0,1,1,1.62l-1,.4a11.28,11.28,0,0,0-1-1.64Z"/><path class="cls-1" d="M84.71,17.87A5.61,5.61,0,0,0,86.76,15a20.18,20.18,0,0,0,.35-4.71A4.29,4.29,0,0,0,87,9.23h1.77a7.58,7.58,0,0,0-.08,1.07,25.88,25.88,0,0,1-.36,5.12,6.88,6.88,0,0,1-2.15,3.42ZM90.3,18a4.5,4.5,0,0,0,.1-.88V10.23a5.23,5.23,0,0,0-.1-1h1.8a6,6,0,0,0-.08,1v6.22A7.63,7.63,0,0,0,95,14l.93,1.31a13.25,13.25,0,0,1-4.09,3.25,3.07,3.07,0,0,0-.53.36Z"/><path class="cls-1" d="M44.57,28.9H47v2.94a2.36,2.36,0,0,1,.81-.55,2.65,2.65,0,0,1,1-.18,2.45,2.45,0,0,1,1.88.81,3.29,3.29,0,0,1,.74,2.31A4.33,4.33,0,0,1,51.08,36a2.5,2.5,0,0,1-.94,1.14,2.45,2.45,0,0,1-1.33.38,2.49,2.49,0,0,1-1.15-.27,3,3,0,0,1-.86-.78v.91H44.57ZM47,34.29a1.76,1.76,0,0,0,.3,1.15,1,1,0,0,0,.76.36.9.9,0,0,0,.72-.35A1.86,1.86,0,0,0,49,34.26a1.65,1.65,0,0,0-.28-1.07.87.87,0,0,0-.69-.34,1,1,0,0,0-.79.36A1.61,1.61,0,0,0,47,34.29Z"/><path class="cls-1" d="M52.58,31.23h2.23v1a2.4,2.4,0,0,1,.67-.9,1.42,1.42,0,0,1,.85-.25,2.54,2.54,0,0,1,1.15.32l-.74,1.68a1.9,1.9,0,0,0-.67-.17.83.83,0,0,0-.73.38,3.83,3.83,0,0,0-.37,2v2.06h-2.4Z"/><path class="cls-1" d="M58,28.9h2.38v1.6H58Zm0,2.33h2.38v6.14H58Z"/><path class="cls-1" d="M68.43,28.9v8.47H66.2v-.91a3,3,0,0,1-.86.78,2.47,2.47,0,0,1-1.15.27,2.23,2.23,0,0,1-1.94-1,3.92,3.92,0,0,1-.67-2.32,3.34,3.34,0,0,1,.74-2.33,2.44,2.44,0,0,1,1.88-.81,2.66,2.66,0,0,1,1,.18,2.3,2.3,0,0,1,.81.55V28.9ZM66,34.29a1.6,1.6,0,0,0-.31-1.08,1,1,0,0,0-.79-.36.87.87,0,0,0-.7.34A1.81,1.81,0,0,0,64,34.34a1.71,1.71,0,0,0,.29,1.1.9.9,0,0,0,.72.35,1,1,0,0,0,.76-.35A1.75,1.75,0,0,0,66,34.29Z"/><path class="cls-1" d="M72.06,33.22,69.78,33a2.5,2.5,0,0,1,.37-.93,2,2,0,0,1,.7-.59,3,3,0,0,1,.9-.28A7.38,7.38,0,0,1,73,31.1a10,10,0,0,1,1.72.12,2.23,2.23,0,0,1,1.08.49,1.73,1.73,0,0,1,.48.74,2.63,2.63,0,0,1,.18.91v2.71a3.23,3.23,0,0,0,.06.68,3,3,0,0,0,.24.63H74.52a2.24,2.24,0,0,1-.18-.36,2.65,2.65,0,0,1-.08-.39,3.09,3.09,0,0,1-.93.64,3.93,3.93,0,0,1-1.47.25A2.48,2.48,0,0,1,70.17,37a1.61,1.61,0,0,1-.58-1.25A1.63,1.63,0,0,1,70,34.6a2.83,2.83,0,0,1,1.54-.67q1.34-.27,1.74-.37a8.21,8.21,0,0,0,.84-.28.82.82,0,0,0-.18-.61.92.92,0,0,0-.64-.17,1.67,1.67,0,0,0-.88.19A1,1,0,0,0,72.06,33.22Zm2.07,1.24q-.49.17-1,.31a2.38,2.38,0,0,0-.92.38.6.6,0,0,0,0,.89.84.84,0,0,0,.58.18A1.5,1.5,0,0,0,73.5,36a1.16,1.16,0,0,0,.49-.47,1.54,1.54,0,0,0,.14-.71Z"/><path class="cls-1" d="M78,28.9h2.39v8.47H78Z"/></g></svg>