<svg xmlns="http://www.w3.org/2000/svg" xmlns:xlink="http://www.w3.org/1999/xlink" viewBox="0 0 125 41"><defs><style>.cls-1{fill:none;}.cls-2{clip-path:url(#clip-path);}.cls-3{fill:#ffaede;}.cls-4{clip-path:url(#clip-path-2);}</style><clipPath id="clip-path"><rect class="cls-1" x="141" y="75.5" width="384" height="384"/></clipPath><clipPath id="clip-path-2"><rect class="cls-1" x="-266.54" y="75.5" width="384" height="384"/></clipPath></defs><title>gnav-アートボード 55</title><g id="コンテンツ"><g class="cls-2"><image width="624" height="674" transform="translate(107.98 -25.6) scale(0.74)" xlink:href="../../../Volumes/DATA/共有/Dropbox/クライアント/TJかごしま/カゴシマプラス/デザイン/スクリーンショット 2016-09-01 19.40.08.png"/></g></g><g id="コンテンツ-2" data-name="コンテンツ"><path class="cls-3" d="M40.37,29.13h5a2.72,2.72,0,0,1,1.91.61,2,2,0,0,1,.67,1.51,1.91,1.91,0,0,1-.47,1.3,2.12,2.12,0,0,1-.93.57,2.41,2.41,0,0,1,1.36.76,2.08,2.08,0,0,1,.44,1.35A2.32,2.32,0,0,1,48,36.43a2.28,2.28,0,0,1-.85.84,2.82,2.82,0,0,1-1,.28,11.7,11.7,0,0,1-1.19.12H40.37ZM43,32.48H44.2a1.33,1.33,0,0,0,.86-.21.77.77,0,0,0,.24-.61.73.73,0,0,0-.24-.58,1.31,1.31,0,0,0-.85-.21H43Zm0,3.35H44.4a1.5,1.5,0,0,0,1-.24.81.81,0,0,0,.28-.65.75.75,0,0,0-.28-.61,1.56,1.56,0,0,0-1-.23H43Z"/><path class="cls-3" d="M56.44,35.16H51.66A1.53,1.53,0,0,0,52,36a1.13,1.13,0,0,0,.9.4,1.36,1.36,0,0,0,.67-.17,1.57,1.57,0,0,0,.42-.39l2.35.22A3.36,3.36,0,0,1,55,37.4a4.75,4.75,0,0,1-2.19.4,4.5,4.5,0,0,1-1.95-.35,2.85,2.85,0,0,1-1.17-1.1,3.31,3.31,0,0,1-.47-1.77,3.11,3.11,0,0,1,.93-2.35,3.57,3.57,0,0,1,2.58-.9,4.62,4.62,0,0,1,2.11.4A2.72,2.72,0,0,1,56,32.91a4.24,4.24,0,0,1,.4,2ZM54,34a1.58,1.58,0,0,0-.37-1,1.17,1.17,0,0,0-1.7.15,1.64,1.64,0,0,0-.28.83Z"/><path class="cls-3" d="M59.71,33.48l-2.28-.24a2.53,2.53,0,0,1,.37-.93,2,2,0,0,1,.7-.59,3,3,0,0,1,.9-.28,7.33,7.33,0,0,1,1.24-.1,10,10,0,0,1,1.72.12,2.22,2.22,0,0,1,1.08.5,1.75,1.75,0,0,1,.48.74,2.67,2.67,0,0,1,.18.92v2.73a3.28,3.28,0,0,0,.06.68,3.06,3.06,0,0,0,.24.63H62.17A2.26,2.26,0,0,1,62,37.3a2.69,2.69,0,0,1-.08-.39,3.09,3.09,0,0,1-.93.64,3.9,3.9,0,0,1-1.47.26,2.47,2.47,0,0,1-1.69-.51A1.62,1.62,0,0,1,57.25,36a1.65,1.65,0,0,1,.42-1.16,2.82,2.82,0,0,1,1.54-.68q1.34-.27,1.74-.38a8.07,8.07,0,0,0,.84-.28.83.83,0,0,0-.18-.61.92.92,0,0,0-.64-.17,1.66,1.66,0,0,0-.88.19A1,1,0,0,0,59.71,33.48Zm2.07,1.25q-.49.17-1,.31a2.37,2.37,0,0,0-.92.38.6.6,0,0,0,0,.89.83.83,0,0,0,.58.18,1.49,1.49,0,0,0,.74-.19,1.17,1.17,0,0,0,.49-.47,1.56,1.56,0,0,0,.14-.72Z"/><path class="cls-3" d="M72.1,37.67H69.87v-1a3.28,3.28,0,0,1-1,.88,2.69,2.69,0,0,1-1.25.26,2,2,0,0,1-1.54-.59,2.53,2.53,0,0,1-.56-1.8V31.48h2.4v3.4a1.25,1.25,0,0,0,.22.83.77.77,0,0,0,.61.24.87.87,0,0,0,.7-.33,1.87,1.87,0,0,0,.27-1.17v-3H72.1Z"/><path class="cls-3" d="M76.42,29.13v2.35h1.31v1.74H76.42v2.19a1.17,1.17,0,0,0,.08.52.44.44,0,0,0,.41.2,2.63,2.63,0,0,0,.74-.15l.18,1.64a7.81,7.81,0,0,1-1.65.19,2.89,2.89,0,0,1-1.31-.23,1.39,1.39,0,0,1-.62-.69,4,4,0,0,1-.2-1.5V33.22h-.88V31.48H74V30.34Z"/><path class="cls-3" d="M78.19,31.48H80.7L82,35.6l1.19-4.12h2.35l-2.47,6.61a4,4,0,0,1-.86,1.53,2.76,2.76,0,0,1-1.89.56A13.76,13.76,0,0,1,78.71,40l-.19-1.65a3.79,3.79,0,0,0,1.15.16,1.12,1.12,0,0,0,.68-.19,1.46,1.46,0,0,0,.44-.69Z"/><path class="cls-3" d="M7.88,17.86c0,.53.23.66.75.77a9.53,9.53,0,0,0,1.37.08,18.28,18.28,0,0,0,3.78-.36V19.6a32.05,32.05,0,0,1-3.85.22,12,12,0,0,1-1.8-.11c-.89-.16-1.4-.6-1.4-1.52v-6a6.26,6.26,0,0,0-.08-1H8a7.17,7.17,0,0,0-.07,1v2.3a30.29,30.29,0,0,0,4-1.28A6.1,6.1,0,0,0,13,12.68l.48,1.1c-.36.14-.8.34-1.16.46a42.61,42.61,0,0,1-4.41,1.39ZM13,12.6a14.91,14.91,0,0,0-.88-1.51l.7-.3a15.92,15.92,0,0,1,.89,1.5Zm1.08-2.26a14.54,14.54,0,0,1,.9,1.49l-.71.31a10.17,10.17,0,0,0-.89-1.5Z"/><path class="cls-3" d="M24.79,18.44c.25,0,.7,0,1,0v1.12l-.94,0H18.88l-1,0V18.39a9,9,0,0,0,1,.05h3.81c.15-.93.44-2.81.47-3.42H19.9c-.33,0-.68,0-1,0V13.91a9.61,9.61,0,0,0,1,.05H23a2.24,2.24,0,0,0,.66-.09l.84.4c0,.12-.07.28-.09.39-.09.7-.4,2.75-.55,3.76Z"/><path class="cls-3" d="M28.93,14.61c.35,0,1,.07,1.63.07h6c.54,0,1,0,1.23-.07V16c-.24,0-.74,0-1.22,0h-6c-.62,0-1.27,0-1.63,0Z"/><path class="cls-3" d="M48.6,14.1c.23,0,.65,0,.92-.05v1.13c-.25,0-.64,0-.92,0H45.77a6.78,6.78,0,0,1-.68,2.92,5.35,5.35,0,0,1-2.19,2l-1-.74a4.56,4.56,0,0,0,2-1.63,5,5,0,0,0,.66-2.58H41.4c-.33,0-.69,0-1,0V14a9.67,9.67,0,0,0,1,.05Zm-5.82-1.74c-.36,0-.77,0-1.08,0V11.27a8.48,8.48,0,0,0,1.08.08h4.43a7.54,7.54,0,0,0,1.1-.08v1.13c-.35,0-.76,0-1.1,0Z"/><path class="cls-3" d="M59.72,13.59a13.72,13.72,0,0,1-2.49,2v3.77a6.93,6.93,0,0,0,.06,1.05H56c0-.19.05-.7.05-1.05V16.23a18.28,18.28,0,0,1-3.31,1.3l-.58-1A14.33,14.33,0,0,0,56,15a11,11,0,0,0,2.83-2.25Z"/><path class="cls-3" d="M63.58,14.61c.35,0,1,.07,1.63.07h6c.54,0,1,0,1.23-.07V16c-.24,0-.74,0-1.22,0h-6c-.62,0-1.26,0-1.63,0Z"/><path class="cls-3" d="M82.76,19.64a12.11,12.11,0,0,1-1.49-1,3.34,3.34,0,0,1-2.49,1c-1.69,0-2.71-.9-2.71-2.22,0-1.08.8-1.72,1.68-2.26a3.3,3.3,0,0,1-.69-1.86,1.9,1.9,0,0,1,2-2A1.67,1.67,0,0,1,80.95,13c0,1.07-.84,1.72-1.72,2.29a20.44,20.44,0,0,0,2,1.79,4.74,4.74,0,0,0,.75-2h1.14A7.28,7.28,0,0,1,82,17.72a12.3,12.3,0,0,0,1.34.91Zm-3.86-1a2.35,2.35,0,0,0,1.57-.72,22.78,22.78,0,0,1-2.16-2.07c-.61.43-1.09.88-1.09,1.51C77.23,18.19,77.93,18.64,78.9,18.64Zm-.23-4C79.39,14.15,80,13.71,80,13a.82.82,0,0,0-.85-.88,1,1,0,0,0-1,1.07A2.51,2.51,0,0,0,78.67,14.59Z"/><path class="cls-3" d="M87,15.54c.52-.51,1.43-1.67,2.14-2.52s1.13-.8,2-.11a31.3,31.3,0,0,1,2.27,2.25c.74.79,1.88,2,2.67,2.93l-.91,1c-.75-.94-1.74-2.08-2.43-2.86A25.94,25.94,0,0,0,90.66,14c-.43-.36-.59-.35-.95.08-.48.6-1.34,1.74-1.82,2.34-.24.32-.5.67-.67.92l-1-1.06C86.49,16.06,86.71,15.85,87,15.54Z"/><path class="cls-3" d="M97.75,19.15a5.15,5.15,0,0,0,1.89-2.66,18.91,18.91,0,0,0,.32-4.37,3.38,3.38,0,0,0-.09-.89h1.28a8.25,8.25,0,0,0-.05.88,23.77,23.77,0,0,1-.34,4.67,6.14,6.14,0,0,1-2,3.06Zm5.06.1a3.14,3.14,0,0,0,.08-.69V12.09a7.93,7.93,0,0,0-.07-.88h1.28a6.63,6.63,0,0,0-.05.88v6.05a7.73,7.73,0,0,0,3-2.52l.66.94a11.53,11.53,0,0,1-3.74,3,2.28,2.28,0,0,0-.42.27Z"/><path class="cls-3" d="M117.67,12.13a3.7,3.7,0,0,0-.32.57,15,15,0,0,1-1.8,3.12A29.22,29.22,0,0,1,118.69,19l-1,.85a23.72,23.72,0,0,0-2.9-3.19,14.07,14.07,0,0,1-4.24,3.14l-.89-.92a12.37,12.37,0,0,0,4.52-3.21A9,9,0,0,0,116,12.81h-4c-.43,0-1,.05-1.2.07V11.64a11.89,11.89,0,0,0,1.2.08H116a3.35,3.35,0,0,0,1-.11Z"/><g class="cls-4"><image width="656" height="535" transform="translate(-320.12 11.22) scale(0.86)" xlink:href="../../../Volumes/DATA/共有/Dropbox/クライアント/TJかごしま/カゴシマプラス/デザイン/05-L1.jpg"/></g></g></svg>