<?xml version="1.0" encoding="utf-8"?>
<!-- Generator: Adobe Illustrator 20.1.0, SVG Export Plug-In . SVG Version: 6.00 Build 0)  -->
<svg version="1.1" id="背景" xmlns="http://www.w3.org/2000/svg" xmlns:xlink="http://www.w3.org/1999/xlink" x="0px" y="0px"
	 viewBox="0 0 40 40" style="enable-background:new 0 0 40 40;" xml:space="preserve">
<style type="text/css">
	.st0{fill:#F8C44F;}
	.st1{fill:#282D33;}
	.st2{fill:#FFFFFF;}
	.st3{fill:#0071B2;}
</style>
<title>icon-アートボード 49</title>
<circle class="st0" cx="22.5" cy="11.6" r="4.2"/>
<rect x="21.5" y="3.5" class="st1" width="1.4" height="2.7"/>
<rect x="18.3" y="4.6" transform="matrix(0.866 -0.5 0.5 0.866 -0.4448 10.2718)" class="st1" width="1.4" height="2.7"/>
<rect x="16" y="7.1" transform="matrix(0.5 -0.866 0.866 0.5 0.969 18.69)" class="st1" width="1.4" height="2.7"/>
<rect x="14.6" y="11.2" class="st1" width="2.7" height="1.4"/>
<rect x="15.7" y="14.4" transform="matrix(0.866 -0.5 0.5 0.866 -5.2555 10.5407)" class="st1" width="2.7" height="1.4"/>
<rect x="27.7" y="13.1" transform="matrix(0.4998 -0.8661 0.8661 0.4998 1.7163 31.8356)" class="st1" width="1.4" height="2.7"/>
<rect x="27.8" y="10.4" class="st1" width="2.7" height="1.4"/>
<rect x="26.7" y="7.2" transform="matrix(0.866 -0.5 0.5 0.866 -0.1709 15.0811)" class="st1" width="2.7" height="1.4"/>
<rect x="24.1" y="4.9" transform="matrix(0.4997 -0.8662 0.8662 0.4997 7.9197 24.8962)" class="st1" width="2.7" height="1.4"/>
<path class="st2" d="M14.2,32.4h2.2c0.8,1.1,2.1,1.8,3.5,1.8h9.2c1.1,0,2-0.9,2-2c0-1.1-0.9-2-2-2h1.6c1.1,0,2-0.9,2-2s-0.9-2-2-2
	h0.5c1.1,0,2-0.9,2-2s-0.9-2-2-2h1.1c1.1,0,2-0.9,2-2s-0.9-2-2-2h-5.6c-0.1,0-0.2,0-0.3,0h-2.3l0.7-2.5v-2.9c0-1.4-1.1-2.5-2.5-2.5
	l0,0h-0.9v3.9l-1,1.4l-3.7,4c-0.5,0.6-0.9,1.2-1.1,2h-1.5V32.4z"/>
<path class="st1" d="M27.4,34.8H20c-1.5,0-2.9-0.7-3.9-1.8h-1.9v-1.3h2.6L17,32c0.7,1,1.8,1.5,3,1.5h9.2c0.7,0,1.3-0.6,1.3-1.3
	c0-0.7-0.6-1.3-1.3-1.3c0,0,0,0,0,0v-1.4h1.6c0.7,0,1.3-0.6,1.3-1.3c0-0.7-0.6-1.3-1.3-1.3c0,0,0,0,0,0v-1.4h0.5
	c0.7,0,1.3-0.6,1.3-1.3c0-0.7-0.6-1.3-1.3-1.3c0,0,0,0,0,0v-1.4h1.1c0.7,0,1.3-0.6,1.3-1.3c0-0.7-0.6-1.3-1.3-1.3h-5.6h-0.2h-3.3
	l0.9-3.3v-2.7c0-1-0.8-1.8-1.8-1.8l0,0h-0.3v3.4L21,15.9l-3.7,4c-0.5,0.5-0.8,1.1-0.9,1.7l-0.1,0.5h-2v-1.4h1c0.2-0.7,0.6-1.3,1-1.8
	l3.6-4l0.8-1.2V9.6h0.6h1c1.8,0,3.2,1.4,3.2,3.2l0,0v2.9l-0.5,1.7h1.3h0.4h5.6c1.5,0,2.7,1.2,2.7,2.7c0,1.1-0.6,2-1.6,2.4
	c0.9,1.2,0.6,2.9-0.6,3.8c0,0-0.1,0-0.1,0.1c1,1.1,0.9,2.8-0.2,3.8c-0.3,0.3-0.7,0.5-1.1,0.6c0.8,1.3,0.4,2.9-0.9,3.7
	c-0.4,0.3-0.9,0.4-1.4,0.4L27.4,34.8z"/>
<rect x="4.9" y="20.7" class="st3" width="8.4" height="15.8"/>
<rect x="10.4" y="33.7" class="st2" width="1" height="1"/>
</svg>
