<svg xmlns="http://www.w3.org/2000/svg" viewBox="0 0 40 40"><defs><style>.cls-1{fill:#f8c44f;}.cls-2{fill:#fff;}.cls-3{fill:#282d33;}.cls-4{fill:#34ca9d;}</style></defs><title>icon-アートボード 48</title><g id="コンテンツ-2" data-name="コンテンツ"><path class="cls-1" d="M14.46,32.9h9.32V13.66c-.42-.62-3.13-.6-3.51.05l-8.06,7.85c-.38.65-.12,1.11.08,2.31Z"/><rect class="cls-2" x="14.42" y="3.43" width="12.95" height="20.72" rx="1.06" ry="1.06"/><path class="cls-3" d="M26.31,24.8H15.49a1.72,1.72,0,0,1-1.72-1.72V4.5a1.72,1.72,0,0,1,1.72-1.72H26.31A1.72,1.72,0,0,1,28,4.5V23.08A1.72,1.72,0,0,1,26.31,24.8ZM15.49,4.08a.41.41,0,0,0-.41.41V23.08a.41.41,0,0,0,.41.41H26.31a.41.41,0,0,0,.41-.41V4.5a.42.42,0,0,0-.41-.41Z"/><rect class="cls-3" x="20.99" y="18.82" width="1.3" height="3.72"/><rect class="cls-3" x="23.66" y="15.95" width="1.3" height="6.59"/><rect class="cls-3" x="20.99" y="14.16" width="1.3" height="3.72"/><rect class="cls-3" x="20.99" y="9.51" width="1.3" height="3.72"/><rect class="cls-3" x="20.99" y="4.86" width="1.3" height="3.72"/><circle class="cls-1" cx="17.59" cy="6.9" r="1.63"/><circle class="cls-4" cx="17.59" cy="9.07" r="1.63"/><path class="cls-1" d="M21.41,31.82a14.76,14.76,0,0,0,.09-1.61A10.23,10.23,0,0,0,19.86,24V16.86a1.54,1.54,0,0,0-1.54-1.54h-.61a1.54,1.54,0,0,0-1.54,1.54v9Z"/><path class="cls-3" d="M22.06,31.89l-1.3-.14a14.17,14.17,0,0,0,.08-1.54,9.63,9.63,0,0,0-1.51-5.78l-.13-.17v-7.4a.88.88,0,0,0-.88-.88h-.61a.88.88,0,0,0-.88.88v9h-1.3v-9a2.19,2.19,0,0,1,2.19-2.19h.61a2.19,2.19,0,0,1,2.19,2.19v7a11.08,11.08,0,0,1,1.64,6.37A15.42,15.42,0,0,1,22.06,31.89Z"/><rect class="cls-4" x="11.98" y="33.72" width="14.03" height="3.5"/></g></svg>