<?xml version="1.0" encoding="utf-8"?>
<!-- Generator: Adobe Illustrator 20.1.0, SVG Export Plug-In . SVG Version: 6.00 Build 0)  -->
<svg version="1.1" id="レイヤー_1" xmlns="http://www.w3.org/2000/svg" xmlns:xlink="http://www.w3.org/1999/xlink" x="0px"
	 y="0px" viewBox="0 0 40 40" style="enable-background:new 0 0 40 40;" xml:space="preserve">
<style type="text/css">
	.st0{fill:#282D33;}
	.st1{fill:#F8C44F;}
</style>
<title>2nd-nav-アートボード 44</title>
<g id="コンテンツ-2">
	<polygon class="st0" points="5.8,38 5.8,30.1 0,30.1 0,8 21.3,8 21.3,9.6 1.5,9.6 1.5,28.6 7.4,28.6 7.4,34.5 13.9,28.6 30.5,28.6 
		30.5,16.8 32,16.8 32,30.1 14.5,30.1 	"/>
	<rect x="7.2" y="14.6" class="st0" width="16.4" height="1.5"/>
	<rect x="7.2" y="18.5" class="st0" width="16.4" height="1.5"/>
	<rect x="7.2" y="22.3" class="st0" width="16.4" height="1.5"/>
	<polygon class="st1" points="30.9,3.9 32.5,8.8 37.6,8.8 33.5,11.8 35.1,16.7 30.9,13.7 26.7,16.7 28.3,11.8 24.1,8.8 29.3,8.8 	
		"/>
	<path class="st0" d="M36.5,18.7l-5.6-4.1l-5.6,4.1l2.1-6.6L21.8,8h7l2.1-6.6L33,8h7l-5.6,4.1L36.5,18.7z M26.5,9.6l2.7,2l-1,3.2
		l2.7-2l2.7,2l-1-3.2l2.7-2h-3.4l-1-3.2l-1,3.2H26.5z"/>
</g>
</svg>
