<svg xmlns="http://www.w3.org/2000/svg" viewBox="0 0 40 40"><defs><style>.cls-1{fill:#282d33;}.cls-2{fill:#5eb4e7;}</style></defs><title>icon-アートボード 47</title><g id="コンテンツ-2" data-name="コンテンツ"><path class="cls-1" d="M20,26a8.89,8.89,0,0,1-8.88-8.88h1.27A7.61,7.61,0,1,0,20,9.47V8.2A8.88,8.88,0,0,1,20,26Z"/><path class="cls-1" d="M12.39,17.08H11.12c0-.23,0-.46,0-.68l1.27.1C12.39,16.69,12.39,16.89,12.39,17.08Z"/><path class="cls-1" d="M12.59,15.31,11.36,15a8.78,8.78,0,0,1,.43-1.33l1.17.49A7.58,7.58,0,0,0,12.59,15.31Zm.91-2.2-1.08-.66a9,9,0,0,1,.82-1.13l1,.82A7.65,7.65,0,0,0,13.5,13.11Zm1.55-1.82-.83-1a9,9,0,0,1,1.13-.82L16,10.59A7.67,7.67,0,0,0,15.05,11.29Zm2-1.25L16.6,8.87a8.82,8.82,0,0,1,1.33-.43l.29,1.24A7.56,7.56,0,0,0,17.09,10Z"/><path class="cls-1" d="M19.41,9.49l-.1-1.27.68,0V9.47Z"/><circle class="cls-2" cx="20" cy="17.08" r="5.88"/><polygon class="cls-1" points="18.79 20.27 16.38 17.85 17.27 16.95 18.79 18.47 22.91 14.35 23.81 15.25 18.79 20.27"/><path class="cls-1" d="M20,36.18a.63.63,0,0,1-.41-.15c-.54-.46-13.15-11.3-13.15-18.65a13.57,13.57,0,0,1,27.13,0c0,7.35-12.62,18.19-13.15,18.65A.63.63,0,0,1,20,36.18Zm0-31.1A12.31,12.31,0,0,0,7.7,17.38c0,2.76,2.18,6.69,6.31,11.34a74.22,74.22,0,0,0,6,6,74.29,74.29,0,0,0,6-6c4.12-4.65,6.3-8.57,6.3-11.33A12.31,12.31,0,0,0,20,5.09Z"/></g></svg>