<?xml version="1.0" encoding="utf-8"?>
<!-- Generator: Adobe Illustrator 20.1.0, SVG Export Plug-In . SVG Version: 6.00 Build 0)  -->
<svg version="1.1" id="背景" xmlns="http://www.w3.org/2000/svg" xmlns:xlink="http://www.w3.org/1999/xlink" x="0px" y="0px"
	 viewBox="0 0 40 40" style="enable-background:new 0 0 40 40;" xml:space="preserve">
<style type="text/css">
	.st0{fill:#0071B2;}
	.st1{fill:#F8C44F;}
	.st2{fill:#282D33;}
	.st3{fill:#FFFFFF;}
</style>
<title>icon-アートボード 50</title>
<polygon class="st0" points="26.8,38 20,34.6 13.2,38 13.2,21.2 20,17.3 26.8,21.2 "/>
<path class="st1" d="M20,32.3c-0.6-0.1-1.2-0.4-1.6-0.9c-0.2-0.2-0.3-0.3-0.5-0.5c-0.2,0.1-0.5,0.2-0.7,0.3
	c-0.4,0.3-0.9,0.4-1.4,0.5c-0.1,0-0.3,0-0.4-0.1c-0.6-0.3-1-0.8-1.2-1.4c-0.1-0.2-0.2-0.4-0.4-0.6h-0.1c-0.2,0-0.4,0-0.6,0.1
	c-0.3,0.1-0.6,0.1-0.9,0.1c-0.3,0-0.7-0.1-0.9-0.3c-0.5-0.4-0.7-1-0.7-1.7c0-0.2-0.1-0.5-0.2-0.7C10.2,27,10,27,9.7,27
	c-0.6,0-1.2-0.3-1.7-0.7c-0.3-0.6-0.4-1.2-0.2-1.8C8,24.2,8,23.9,8,23.7c-0.2-0.1-0.4-0.3-0.6-0.4c-0.6-0.2-1.1-0.6-1.4-1.2
	c-0.1-0.6,0-1.3,0.4-1.8c0.1-0.2,0.2-0.4,0.3-0.7c-0.1-0.2-0.3-0.4-0.5-0.5c-0.5-0.4-0.9-1-0.9-1.6c0.1-0.6,0.4-1.2,0.9-1.5
	c0.2-0.2,0.3-0.3,0.5-0.5c-0.1-0.2-0.2-0.5-0.3-0.7C6,14.3,5.9,13.6,6,13c0.3-0.6,0.8-1,1.4-1.2c0.2-0.1,0.4-0.2,0.6-0.4
	c0-0.2,0-0.5-0.1-0.7c-0.2-0.6-0.1-1.3,0.2-1.8c0.4-0.5,1-0.7,1.7-0.7c0.2,0,0.5-0.1,0.7-0.1c0.1-0.2,0.1-0.5,0.1-0.7
	c0-0.6,0.3-1.2,0.7-1.7c0.3-0.2,0.6-0.3,0.9-0.3c0.3,0,0.6,0,0.9,0.1c0.2,0,0.4,0.1,0.6,0.1h0.1c0.1-0.2,0.3-0.4,0.4-0.6
	c0.2-0.6,0.6-1.1,1.2-1.4c0.1,0,0.3-0.1,0.4-0.1c0.5,0,0.9,0.2,1.3,0.5c0.2,0.1,0.4,0.2,0.7,0.3c0.2-0.1,0.4-0.3,0.5-0.5
	c0.4-0.5,1-0.9,1.6-1c0.6,0.1,1.2,0.4,1.6,0.9c0.2,0.2,0.3,0.3,0.5,0.5c0.2-0.1,0.5-0.2,0.7-0.3c0.4-0.3,0.9-0.4,1.4-0.5
	c0.1,0,0.3,0,0.4,0.1c0.6,0.3,1,0.8,1.2,1.4c0.1,0.2,0.2,0.4,0.4,0.6h0.1c0.2,0,0.4,0,0.6-0.1c0.3-0.1,0.6-0.1,0.9-0.1
	c0.3,0,0.7,0.1,1,0.3c0.5,0.4,0.7,1,0.7,1.7c0,0.2,0.1,0.5,0.2,0.7c0.2,0.1,0.5,0.1,0.7,0.1c0.6,0,1.2,0.3,1.7,0.7
	c0.3,0.6,0.4,1.2,0.2,1.8c-0.1,0.2-0.1,0.5-0.1,0.7c0.2,0.1,0.4,0.3,0.6,0.4c0.6,0.2,1.1,0.7,1.3,1.2c0.1,0.6,0,1.3-0.4,1.8
	c-0.1,0.2-0.2,0.4-0.3,0.7c0.1,0.2,0.3,0.4,0.5,0.5c0.5,0.4,0.9,1,0.9,1.6c-0.1,0.6-0.4,1.2-0.9,1.6c-0.2,0.2-0.3,0.3-0.5,0.5
	c0.1,0.2,0.2,0.5,0.3,0.7c0.4,0.5,0.5,1.2,0.4,1.8c-0.3,0.6-0.8,1-1.4,1.2c-0.2,0.1-0.4,0.2-0.6,0.4c0,0.2,0,0.5,0.1,0.7
	c0.2,0.6,0.1,1.3-0.2,1.8c-0.4,0.5-1,0.7-1.7,0.7c-0.2,0-0.5,0.1-0.7,0.2c-0.1,0.2-0.1,0.5-0.1,0.7c0,0.6-0.3,1.2-0.7,1.7
	c-0.3,0.2-0.6,0.3-0.9,0.3c-0.3,0-0.6,0-0.9-0.1c-0.2,0-0.4-0.1-0.6-0.1h-0.1c-0.1,0.2-0.3,0.4-0.4,0.6c-0.2,0.6-0.6,1.1-1.2,1.4
	c-0.1,0-0.3,0.1-0.4,0.1c-0.5,0-0.9-0.2-1.4-0.5c-0.2-0.1-0.4-0.2-0.7-0.3c-0.2,0.1-0.4,0.3-0.5,0.5C21.2,31.9,20.6,32.2,20,32.3z"
	/>
<path class="st2" d="M20,3.5c0.7,0,1.3,1.3,2,1.4h0.1c0.6,0,1.4-0.8,2-0.8c0.1,0,0.1,0,0.2,0c0.7,0.2,0.9,1.6,1.5,2
	c0.1,0.1,0.3,0.1,0.4,0.1c0.5,0,1-0.2,1.5-0.2c0.2,0,0.4,0,0.5,0.1C28.8,6.6,28.5,8,29,8.5s1.9,0.2,2.3,0.8s-0.3,1.8,0,2.4
	s1.7,0.8,2,1.5s-0.8,1.6-0.7,2.3s1.4,1.3,1.4,2s-1.3,1.3-1.4,2s0.9,1.7,0.7,2.3s-1.6,0.8-2,1.5s0.4,1.9,0,2.4s-1.8,0.3-2.3,0.8
	s-0.2,1.9-0.8,2.3c-0.2,0.1-0.3,0.1-0.5,0.1c-0.5,0-1-0.2-1.5-0.2c-0.2,0-0.3,0-0.4,0.1c-0.6,0.3-0.8,1.7-1.5,2c-0.1,0-0.1,0-0.2,0
	c-0.6,0-1.4-0.8-2-0.8H22c-0.7,0.1-1.3,1.4-2,1.4s-1.3-1.3-2-1.4h-0.1c-0.6,0-1.4,0.8-2,0.8c-0.1,0-0.1,0-0.2,0
	c-0.7-0.2-0.9-1.6-1.5-2c-0.1-0.1-0.3-0.1-0.4-0.1c-0.5,0-1,0.2-1.5,0.2c-0.2,0-0.4,0-0.5-0.1c-0.6-0.4-0.3-1.8-0.8-2.3
	s-1.9-0.2-2.3-0.8s0.3-1.8,0-2.4s-1.7-0.8-2-1.5s0.8-1.6,0.7-2.3S6,18.3,6,17.5s1.3-1.3,1.4-2s-0.9-1.7-0.7-2.3s1.6-0.8,2-1.5
	s-0.4-1.9,0-2.4S10.5,9,11,8.5s0.2-1.9,0.8-2.3c0.2-0.1,0.3-0.1,0.5-0.1c0.5,0,1,0.2,1.5,0.2c0.2,0,0.3,0,0.4-0.1
	c0.6-0.3,0.8-1.7,1.5-2c0.1,0,0.1,0,0.2,0c0.6,0,1.4,0.8,2,0.8H18C18.7,4.8,19.3,3.5,20,3.5L20,3.5z M20,2c-0.8,0.1-1.6,0.5-2.1,1.2
	l-0.1,0.1l-0.2-0.1c-0.5-0.3-1.1-0.5-1.7-0.5c-0.2,0-0.4,0-0.6,0.1c-0.8,0.3-1.4,1-1.6,1.8l-0.1,0.2h-0.2c-0.3-0.1-0.7-0.1-1-0.1
	c-0.5,0-1,0.1-1.4,0.4c-0.6,0.6-1,1.3-1,2.2v0.2H9.7c-0.8,0-1.6,0.4-2.2,1C7.1,9.1,7,9.9,7.2,10.8V11L7,11.1
	c-0.8,0.3-1.4,0.9-1.8,1.6c-0.2,0.8,0,1.7,0.4,2.3l0.1,0.2l-0.1,0.1C5,16,4.6,16.7,4.5,17.5c0.1,0.8,0.5,1.6,1.2,2.1l0.1,0.1L5.7,20
	c-0.5,0.7-0.6,1.5-0.4,2.3c0.3,0.8,1,1.4,1.8,1.7l0.2,0.1v0.2c-0.2,0.8-0.1,1.7,0.3,2.4c0.6,0.6,1.3,1,2.2,1h0.2v0.2
	c0,0.8,0.4,1.6,1,2.2c0.4,0.3,0.9,0.4,1.4,0.4c0.3,0,0.7,0,1-0.1h0.2l0.1,0.2c0.3,0.8,0.9,1.4,1.6,1.8c0.2,0.1,0.4,0.1,0.6,0.1
	c0.6,0,1.2-0.2,1.7-0.5l0.2-0.1l0.1,0.1c0.5,0.7,1.3,1.1,2.1,1.1c0.8-0.1,1.6-0.5,2.1-1.2l0.1-0.1l0.2,0.1c0.5,0.3,1.1,0.5,1.7,0.6
	c0.2,0,0.4,0,0.6-0.1c0.8-0.3,1.4-1,1.6-1.8l0.1-0.2h0.2c0.3,0.1,0.7,0.1,1,0.1c0.5,0,1-0.1,1.4-0.4c0.6-0.6,1-1.3,1-2.2v-0.2h0.2
	c0.8,0,1.6-0.4,2.2-1c0.4-0.7,0.5-1.6,0.3-2.4v-0.2L33,24c0.8-0.3,1.4-0.9,1.8-1.6c0.2-0.8,0-1.7-0.5-2.4l-0.1-0.2l0.1-0.1
	c0.7-0.5,1.1-1.3,1.2-2.1c-0.1-0.8-0.5-1.6-1.2-2.1l-0.1-0.1l0.1-0.2c0.5-0.7,0.6-1.5,0.5-2.3c-0.3-0.8-1-1.4-1.8-1.6L32.8,11v-0.2
	c0.2-0.8,0.1-1.7-0.3-2.4c-0.6-0.6-1.3-1-2.2-1h-0.2V7.2c0-0.8-0.4-1.6-1-2.2c-0.4-0.3-0.9-0.4-1.4-0.4c-0.3,0-0.7,0-1,0.1h-0.2
	l-0.1-0.2c-0.3-0.8-0.9-1.4-1.7-1.8c-0.2-0.1-0.4-0.1-0.6-0.1c-0.6,0-1.2,0.2-1.7,0.5l-0.2,0.1l-0.1-0.1C21.6,2.5,20.8,2.1,20,2z"/>
<circle class="st3" cx="20" cy="17.5" r="9.7"/>
<path class="st2" d="M20,28c-5.8,0-10.4-4.7-10.4-10.4S14.2,7.1,20,7.1c5.7,0,10.4,4.7,10.4,10.4C30.4,23.3,25.8,28,20,28z M20,8.6
	c-5,0-9,4-9,9s4,9,9,9s9-4,9-9C29,12.6,25,8.6,20,8.6C20,8.6,20,8.6,20,8.6L20,8.6z"/>
<polygon class="st1" points="20,12.5 21.6,15.7 25.1,16.2 22.6,18.7 23.2,22.3 20,20.6 16.8,22.3 17.4,18.7 14.9,16.2 18.4,15.7 "/>
<path class="st2" d="M24.1,23.6L20,21.4l-4.1,2.2l0.8-4.6l-3.4-3.3l4.6-0.7l2.1-4.1l2.1,4.1l4.6,0.7L23.4,19L24.1,23.6z M16.4,16.8
	l1.8,1.7l-0.4,2.5l2.2-1.2l2.2,1.2l-0.4-2.5l1.8-1.7l-2.5-0.4L20,14.1l-1.1,2.2L16.4,16.8z"/>
</svg>
