<svg xmlns="http://www.w3.org/2000/svg" viewBox="0 0 40 40"><defs><style>.cls-1{fill:#282d33;}.cls-2{fill:#5eb4e7;}.cls-3{fill:#fff;}.cls-4{fill:#f8c44f;}</style></defs><title>2nd-nav-アートボード 45</title><g id="コンテンツ-2" data-name="コンテンツ"><rect class="cls-1" x="9.43" y="2.31" width="1.52" height="1.45"/><rect class="cls-1" x="6.52" y="3.92" width="1.52" height="1.45" transform="matrix(0.5, -0.87, 0.87, 0.5, -0.38, 8.63)"/><rect class="cls-1" x="6.49" y="7.21" width="1.45" height="1.52" transform="translate(-3.02 4.67) rotate(-29.97)"/><rect class="cls-1" x="9.3" y="8.96" width="1.52" height="1.45"/><rect class="cls-1" x="12.21" y="7.35" width="1.52" height="1.45" transform="translate(-0.51 15.27) rotate(-59.99)"/><rect class="cls-1" x="12.31" y="3.99" width="1.45" height="1.52" transform="translate(-0.63 7.14) rotate(-29.94)"/><path class="cls-1" d="M38.3,35.69H1.7V12.56H38.3ZM3.23,34.17H36.77V14.09H3.23Z"/><rect class="cls-2" x="4.75" y="15.61" width="30.5" height="17.04"/><polygon class="cls-1" points="25.46 11.75 23.94 11.75 23.94 10.36 17.07 10.36 17.07 11.75 15.55 11.75 15.55 8.84 25.46 8.84 25.46 11.75"/><rect class="cls-1" x="29.41" y="10.06" width="6.09" height="1.52"/><circle class="cls-3" cx="19.81" cy="25.51" r="9.05"/><path class="cls-1" d="M19.81,35.32a9.81,9.81,0,1,1,9.81-9.81A9.82,9.82,0,0,1,19.81,35.32Zm0-18.09a8.28,8.28,0,1,0,8.28,8.28A8.29,8.29,0,0,0,19.81,17.23Z"/><path class="cls-4" d="M19.81,19.81a5.68,5.68,0,0,0-2.15.42,2.23,2.23,0,1,1-3.12,3.12,5.69,5.69,0,1,0,5.27-3.54Z"/><path class="cls-1" d="M19.81,32a6.45,6.45,0,0,1-6-8.9l.52-1.27.8,1.11a1.47,1.47,0,1,0,2.05-2.05l-1.11-.8,1.27-.52A6.46,6.46,0,1,1,19.81,32Zm-4.87-7.28a4.94,4.94,0,1,0,4-4,3,3,0,0,1-4,4Z"/></g></svg>