<svg xmlns="http://www.w3.org/2000/svg" viewBox="0 0 40 40"><defs><style>.cls-1{fill:#282d33;}.cls-2{fill:#f8c44f;}</style></defs><title>2nd-nav-アートボード 44</title><g id="コンテンツ-2" data-name="コンテンツ"><polygon class="cls-1" points="5.82 37.98 5.82 30.09 -0.03 30.09 -0.03 8.03 21.31 8.03 21.31 9.56 1.5 9.56 1.5 28.56 7.36 28.56 7.36 34.52 13.95 28.56 30.5 28.56 30.5 16.81 32.03 16.81 32.03 30.09 14.54 30.09 5.82 37.98"/><rect class="cls-1" x="7.24" y="14.58" width="16.44" height="1.53"/><rect class="cls-1" x="7.24" y="18.46" width="16.44" height="1.53"/><rect class="cls-1" x="7.24" y="22.34" width="16.44" height="1.53"/><polygon class="cls-2" points="30.89 3.9 32.48 8.8 37.63 8.8 33.47 11.83 35.06 16.72 30.89 13.7 26.73 16.72 28.32 11.83 24.15 8.8 29.3 8.8 30.89 3.9"/><path class="cls-1" d="M36.52,18.73l-5.62-4.09-5.62,4.09,2.15-6.61L21.79,8h7l2.15-6.61L33,8h7l-5.62,4.09Zm-10-9.16,2.71,2-1,3.18,2.71-2,2.71,2-1-3.18,2.71-2H31.93l-1-3.18-1,3.18Z"/></g></svg>